<svg width="33" height="36" viewBox="0 0 33 36" fill="none" xmlns="http://www.w3.org/2000/svg">
<path d="M32.1012 16.2959C32.1012 16.2851 32.0958 16.2691 32.0905 16.2584C32.0905 16.253 32.0851 16.2477 32.0797 16.2423C32.0744 16.2209 32.0637 16.2048 32.053 16.1834C32.0262 16.1352 31.9941 16.0924 31.9566 16.0603C31.9352 16.0442 31.9191 16.0282 31.8977 16.0121C31.8763 15.9961 31.8495 15.98 31.8228 15.9693C31.8014 15.9586 31.7746 15.9479 31.7478 15.9425C31.6836 15.9157 31.614 15.9104 31.539 15.9157C31.4373 15.9265 31.3356 15.9265 31.2285 15.9265C29.0549 15.9265 27.2882 14.1598 27.2882 11.9861C27.2882 11.7881 27.3043 11.59 27.3364 11.3919C27.3418 11.3384 27.3471 11.2848 27.3578 11.2366C27.3792 11.1296 27.406 11.0225 27.4328 10.9154C27.4916 10.6959 27.4006 10.4657 27.224 10.3372C27.2079 10.3212 27.1972 10.3105 27.1811 10.2944C27.0045 10.1177 26.7421 10.0909 26.5387 10.2141C26.4959 10.2355 26.4584 10.2676 26.4263 10.2998C25.8802 10.8512 25.1842 11.2206 24.4133 11.3758C24.167 11.4294 23.91 11.4508 23.6423 11.4508C21.4741 11.4508 19.7074 9.68942 19.7074 7.52119C19.7074 7.23211 19.4719 6.99655 19.1828 6.98583C19.0222 6.98583 18.8508 6.98047 18.6849 6.98047C10.7882 6.98047 4.36914 13.4049 4.36914 21.2962C4.36914 21.5799 4.3745 21.8637 4.39594 22.1474C4.83494 29.6961 11.1094 35.6172 18.6849 35.6172C26.5815 35.6172 33.0006 29.1928 33.0006 21.2962C33.0006 19.5777 32.7008 17.8912 32.1012 16.2959ZM23.9112 20.6935C23.9112 21.1084 23.5735 21.4461 23.1586 21.4461C22.7438 21.4461 22.4063 21.1084 22.4063 20.6935C22.4063 20.2786 22.7438 19.9409 23.1586 19.9409C23.5735 19.9409 23.9112 20.2786 23.9112 20.6935ZM22.6272 14.9699C23.042 14.9699 23.3798 15.3074 23.3798 15.7223C23.3798 16.1371 23.042 16.4749 22.6272 16.4749C22.2123 16.4749 21.8748 16.1371 21.8748 15.7223C21.8748 15.3074 22.2123 14.9699 22.6272 14.9699ZM12.5286 26.6084C11.3335 26.6084 10.361 25.636 10.361 24.4408C10.361 23.2456 11.3335 22.2735 12.5286 22.2735C13.7238 22.2735 14.696 23.2456 14.696 24.4408C14.696 25.636 13.7238 26.6084 12.5286 26.6084ZM11.7761 19.761C11.7761 19.3462 12.1138 19.0087 12.5286 19.0087C12.9435 19.0087 13.281 19.3462 13.281 19.761C13.281 20.1759 12.9435 20.5136 12.5286 20.5136C12.1138 20.5136 11.7761 20.1759 11.7761 19.761ZM12.5286 17.2489C11.3335 17.2489 10.361 16.2767 10.361 15.0816C10.361 13.8864 11.3335 12.9139 12.5286 12.9139C13.7238 12.9139 14.696 13.8864 14.696 15.0816C14.696 16.2767 13.7238 17.2489 12.5286 17.2489ZM17.3984 19.6659C17.3984 18.4707 18.3706 17.4983 19.5658 17.4983C20.761 17.4983 21.7334 18.4707 21.7334 19.6659C21.7334 20.8611 20.761 21.8332 19.5658 21.8332C18.3706 21.8332 17.3984 20.8611 17.3984 19.6659ZM21.5125 31.8175C21.0977 31.8175 20.7599 31.48 20.7599 31.0652C20.7599 30.6503 21.0977 30.3126 21.5125 30.3126C21.9274 30.3126 22.2651 30.6503 22.2651 31.0652C22.2651 31.48 21.9274 31.8175 21.5125 31.8175ZM22.4102 28.2404C21.215 28.2404 20.2426 27.2682 20.2426 26.073C20.2426 24.8779 21.215 23.9054 22.4102 23.9054C23.6054 23.9054 24.5775 24.8779 24.5775 26.073C24.5775 27.2682 23.6054 28.2404 22.4102 28.2404ZM26.7514 21.2289C25.5563 21.2289 24.5841 20.2567 24.5841 19.0615C24.5841 17.8663 25.5563 16.8939 26.7514 16.8939C27.9466 16.8939 28.919 17.8663 28.919 19.0615C28.919 20.2567 27.9466 21.2289 26.7514 21.2289Z" fill="#52CBFF"/>
<path d="M27.4043 10.5706C27.4279 10.627 27.4448 10.6858 27.4483 10.7462C27.4444 10.685 27.4279 10.6264 27.4043 10.5706Z" fill="#52CBFF"/>
<path d="M27.4473 10.7574C27.4478 10.7567 27.4481 10.7559 27.4486 10.7552C27.4485 10.7528 27.4487 10.7504 27.4486 10.748C27.4487 10.7512 27.4472 10.7542 27.4473 10.7574Z" fill="#52CBFF"/>
<path d="M24.6697 9.58764C24.6269 9.43775 24.5894 9.29319 24.5412 9.14328C24.4984 8.99875 24.4502 8.85419 24.402 8.70963C24.3485 8.5651 24.295 8.42054 24.2414 8.27598C23.8185 7.19456 23.2456 6.172 22.5389 5.24582C22.2606 4.87106 21.9554 4.51773 21.6342 4.18581C21.4789 4.01448 21.313 3.84852 21.147 3.69324H21.1416C18.8074 1.49289 15.7558 0.282959 12.549 0.282959C5.62671 0.282959 0 5.90967 0 12.8266C0 16.0013 1.18317 19.0101 3.29785 21.3068C3.29785 21.3015 3.29785 21.3015 3.29785 21.2961C3.29785 12.8106 10.1987 5.90967 18.6843 5.90967L19.1822 5.91503C20.0923 5.94715 20.7776 6.65384 20.7776 7.52113C20.7776 9.09511 22.0625 10.38 23.6418 10.38C23.8506 10.38 24.0273 10.3639 24.1825 10.3318C24.402 10.289 24.6055 10.2247 24.7982 10.1337C24.7607 9.95168 24.7179 9.76968 24.6697 9.58764ZM2.48947 8.96663C2.48947 8.54903 2.82675 8.21174 3.23896 8.21174C3.65656 8.21174 3.99385 8.54903 3.99385 8.96663C3.99385 9.37884 3.65656 9.72148 3.23896 9.72148C2.82675 9.72148 2.48947 9.37884 2.48947 8.96663ZM3.61373 13.1318C3.20148 13.1318 2.8642 12.7945 2.8642 12.3769C2.8642 11.9647 3.20148 11.6274 3.61373 11.6274C4.03133 11.6274 4.36858 11.9647 4.36858 12.3769C4.36858 12.7945 4.03133 13.1318 3.61373 13.1318ZM7.65574 8.52762C6.46188 8.52762 5.48751 7.55325 5.48751 6.35939C5.48751 5.1655 6.46188 4.19113 7.65574 4.19113C8.84963 4.19113 9.82397 5.1655 9.82397 6.35939C9.82397 7.55325 8.84963 8.52762 7.65574 8.52762ZM13.5448 3.91812C13.1272 3.91812 12.7899 3.57548 12.7899 3.16324C12.7899 2.75099 13.1272 2.40838 13.5448 2.40838C13.957 2.40838 14.2943 2.75099 14.2943 3.16324C14.2943 3.57548 13.957 3.91812 13.5448 3.91812Z" fill="#52CBFF"/>
</svg>
