<svg width="267" height="294" viewBox="0 0 267 294" fill="none" xmlns="http://www.w3.org/2000/svg">
<path d="M193.51 271.41C193.51 271.41 17.0044 230.021 8.61671 266.807C-3.37723 319.35 123.977 354.676 191.808 352.526C259.638 350.377 193.51 271.41 193.51 271.41Z" fill="#263238"/>
<path opacity="0.2" d="M193.51 271.41C193.51 271.41 17.0044 230.021 8.61671 266.807C-3.37723 319.35 123.977 354.676 191.808 352.526C259.638 350.377 193.51 271.41 193.51 271.41Z" fill="black"/>
<path opacity="0.7" d="M66.5495 278.163L149.453 330.888L138.391 346.625C138.391 346.625 144.206 355.284 155.309 328.719L104.031 294.792C104.031 294.792 120.076 293.19 119.671 290.736C118.982 286.68 83.73 278.751 67.6435 275.223C67.2551 275.114 66.8398 275.155 66.4808 275.339C66.1217 275.524 65.8454 275.837 65.7071 276.216C65.5688 276.595 65.5788 277.013 65.7349 277.385C65.8911 277.758 66.1821 278.057 66.5495 278.224V278.163Z" fill="black"/>
<path d="M120.653 159.004C120.653 159.004 114.211 216.434 112.549 219.516C106.714 229.94 68.1191 247.907 68.1191 247.907L48.4467 243.851L34.2646 255.633L43.564 262.913L54.4639 258.858C60.4154 259.921 66.4498 260.45 72.4953 260.439C82.6253 260.439 131.675 248.008 139.86 234.32C148.045 220.632 151.793 157.26 151.793 157.26L120.653 159.004Z" fill="#B97964"/>
<path d="M152.636 181.575C152.636 181.575 167.75 131.141 148.908 117.128C130.066 103.116 115.094 172.49 115.094 172.49L152.636 181.575Z" fill="#52CBFF"/>
<path opacity="0.3" d="M152.636 181.575C152.636 181.575 167.75 131.141 148.908 117.128C130.066 103.116 115.094 172.49 115.094 172.49L152.636 181.575Z" fill="white"/>
<path d="M140.665 273.844L140.807 206.923L142.671 114.857L181.712 106.745L216.154 105.224L255.134 123.252L256.046 145.721C256.046 145.721 251.589 248.86 251.832 251.983C252.136 255.795 263.238 279.704 263.238 279.704C213.844 290.979 139.855 277.25 140.665 273.844Z" fill="#52CBFF"/>
<path opacity="0.3" d="M140.665 273.844L140.807 206.923L142.671 114.857L181.712 106.745L216.154 105.224L255.134 123.252L256.046 145.721C256.046 145.721 251.589 248.86 251.832 251.983C252.136 255.795 263.238 279.704 263.238 279.704C213.844 290.979 139.855 277.25 140.665 273.844Z" fill="white"/>
<path d="M196.65 120.109C196.65 120.109 187.067 128.647 182.164 117.615L179.611 119.643C179.611 119.643 179.854 127.856 184.514 130.593C183.379 135.156 163.93 201.468 160.445 234.888L165.753 248.455L179.935 237.281C179.935 237.281 186.783 179.952 189.133 131.222C191.882 130.3 194.396 128.785 196.496 126.784C198.597 124.783 200.233 122.346 201.289 119.643L196.65 120.109Z" fill="#52CBFF"/>
<path opacity="0.2" d="M184.266 121.286L175.959 127.755L174.602 108.348L177.235 107.78L179.444 120.86L183.374 118.568L184.266 121.286Z" fill="black"/>
<path opacity="0.2" d="M224.28 109.098C224.422 109.098 204.73 133.21 204.73 133.21L198.044 128.099L193.445 124.206L192.249 122.746L218.324 104.616C219.521 105.896 220.808 107.088 222.173 108.185C222.903 108.422 223.609 108.727 224.28 109.098Z" fill="black"/>
<path d="M222.871 108.692L213.349 100.175L187.274 124.611L194.082 122.198L204.029 129.843L222.871 108.692Z" fill="#52CBFF"/>
<path d="M187.286 124.611C187.853 123.496 185.26 101.311 185.26 101.311L176.021 107.638C176.508 107.536 176.832 125.889 177.136 125.889C177.44 125.889 183.214 119.602 183.214 119.602L187.286 124.611Z" fill="#52CBFF"/>
<path opacity="0.2" d="M141.4 178.857L143.426 135.744L133.782 177.012L141.4 178.857Z" fill="black"/>
<path opacity="0.2" d="M225.001 185.144C223.785 184.9 217.646 182.873 217.646 182.873L231.281 144.789L212.5 187.03L223.785 191.532L225.001 185.144Z" fill="black"/>
<path opacity="0.3" d="M222.871 108.692L213.349 100.175L187.274 124.611L194.082 122.198L204.029 129.843L222.871 108.692Z" fill="white"/>
<path opacity="0.3" d="M187.286 124.611C187.853 123.496 185.26 101.311 185.26 101.311L176.021 107.638C176.508 107.536 176.832 125.889 177.136 125.889C177.44 125.889 183.214 119.602 183.214 119.602L187.286 124.611Z" fill="white"/>
<path opacity="0.3" d="M172.496 160.261L168.12 181.777L155.376 186.401L146.766 178.877L148.346 158.558L172.496 160.261Z" fill="white"/>
<path d="M185.744 122.745L189.796 123.719C189.796 123.719 189.937 123.982 189.796 123.82C189.654 123.658 192.004 131.465 192.004 131.465C191.356 132.053 189.188 135.805 188.945 135.744C188.702 135.683 183.333 135.176 183.333 135.176L181.307 129.498L185.744 122.745Z" fill="#52CBFF"/>
<path opacity="0.2" d="M185.744 122.745L189.796 123.719C189.796 123.719 189.937 123.982 189.796 123.82C189.654 123.658 192.004 131.465 192.004 131.465C191.356 132.053 189.188 135.805 188.945 135.744C188.702 135.683 183.333 135.176 183.333 135.176L181.307 129.498L185.744 122.745Z" fill="black"/>
<path d="M230.194 153.549C230.194 153.549 220.631 217.306 215.1 223.268C205.761 233.408 159.466 260.074 159.466 260.074L136.35 251.963C135.559 251.699 134.717 251.632 133.895 251.766C133.072 251.9 132.295 252.232 131.629 252.733L115.826 264.901L117.326 266.178C117.651 266.45 118.048 266.622 118.469 266.672C118.89 266.723 119.316 266.65 119.696 266.462L122.148 265.246L119.412 267.922L120.263 268.673C120.699 269.035 121.216 269.287 121.77 269.407C122.323 269.527 122.898 269.512 123.444 269.362L130.515 267.456L123.991 271.816C124.727 272.42 125.597 272.837 126.529 273.031C127.46 273.225 128.425 273.191 129.34 272.931L139.672 269.991C146.728 271.599 153.904 272.623 161.128 273.053C173.284 273.803 230.761 253.707 241.479 239.005C252.197 224.302 263.238 163.08 263.238 163.08L230.194 153.549Z" fill="#B97964"/>
<path d="M260.823 195.973C260.823 195.973 275.147 138.178 256.305 124.165C237.463 110.152 218.803 183.278 218.803 183.278L260.823 195.973Z" fill="#52CBFF"/>
<path opacity="0.3" d="M260.823 195.973C260.823 195.973 275.147 138.178 256.305 124.165C237.463 110.152 218.803 183.278 218.803 183.278L260.823 195.973Z" fill="white"/>
<path d="M137.497 46.4764C136.296 46.3475 135.181 45.7917 134.355 44.9099C133.528 44.0281 133.046 42.8789 132.994 41.6711C132.943 40.4633 133.326 39.277 134.074 38.328C134.822 37.3789 135.886 36.73 137.071 36.4992L148.234 35.3838C147.708 42.5626 147.174 49.7345 146.634 56.8998C144.487 57.5488 142.196 57.5488 140.049 56.8998C138.98 56.5603 138.004 55.9743 137.202 55.1888C136.4 54.4034 135.793 53.4405 135.43 52.3776C135.094 51.3024 135.113 50.1472 135.486 49.084C135.858 48.0208 136.563 47.1062 137.497 46.4764Z" fill="#263238"/>
<path d="M180.19 87.8655L204.198 57.6296C204.198 57.6296 204.198 57.6296 204.198 57.731C204.198 60.5903 204.198 63.8147 204.522 67.3433C204.522 67.3433 207.116 66.1063 207.116 66.1468C208.149 81.8427 214.348 108.733 214.065 110.963L188.841 123.516L184.242 118.913L183.351 108.773C185.924 102.284 183.533 94.8212 180.19 87.8655Z" fill="#B97964"/>
<path opacity="0.2" d="M183.818 98.066L198.993 86.0609C199.378 92.1446 196.177 101.777 184.001 106.766C184.661 103.895 184.598 100.906 183.818 98.066Z" fill="black"/>
<path d="M199.039 42.6437C204.003 62.9226 205.887 72.7579 199.039 86.0609C188.605 106.056 163.098 106.218 152.117 87.7035C142.25 71.0545 135.767 40.5956 152.927 26.745C156.728 23.7047 161.236 21.6754 166.031 20.8455C170.825 20.0157 175.752 20.4123 180.352 21.9985C184.953 23.5847 189.078 26.3091 192.345 29.9185C195.612 33.5278 197.915 37.9051 199.039 42.6437Z" fill="#B97964"/>
<path d="M194.815 15.0235C188.737 4.88408 172.529 3.24151 166.593 11.2517C165.721 12.4481 175.325 12.732 174.231 12.6712L179.863 28.7118C180.977 28.0832 183.733 28.7119 186.062 32.0376C186.062 32.0376 189.689 54.101 201.116 60.2658C212.319 44.7727 211.043 15.0641 194.815 15.0235Z" fill="#263238"/>
<path d="M212.086 56.8389C212.062 59.4397 211.523 62.01 210.5 64.4012C209.478 66.7924 207.992 68.9572 206.129 70.7706C201.085 75.5767 195.25 71.8453 193.852 65.3966C192.616 59.5765 193.73 50.0455 200.112 47.6931C206.494 45.3408 212.086 50.3902 212.086 56.8389Z" fill="#B97964"/>
<path d="M171.555 59.6987C172.183 61.7268 171.555 63.7551 170.278 64.1201C169.002 64.4852 167.341 63.1871 166.692 61.159C166.044 59.1308 166.692 57.1026 167.969 56.7173C169.245 56.3319 170.906 57.6502 171.555 59.6987Z" fill="#263238"/>
<path d="M151.574 66.2083C152.202 68.2364 151.574 70.2646 150.298 70.6297C149.022 70.9947 147.34 69.6967 146.712 67.6686C146.084 65.6404 146.712 63.6122 147.988 63.2269C149.265 62.8415 150.926 64.1598 151.574 66.2083Z" fill="#263238"/>
<path d="M158.567 60.7528C158.567 60.7528 156.014 70.0608 154.859 75.5767C154.791 75.8873 154.791 76.2091 154.86 76.5196C154.929 76.8302 155.064 77.122 155.257 77.3748C155.45 77.6276 155.695 77.8354 155.977 77.9836C156.258 78.1318 156.568 78.217 156.885 78.2332C158.882 78.1888 160.837 77.6525 162.578 76.6717L158.567 60.7528Z" fill="#A24E3F"/>
<path d="M173.694 47.43C173.558 47.5428 173.396 47.6188 173.222 47.6508C173.048 47.6828 172.869 47.6696 172.702 47.6125C171.537 47.135 170.276 46.9359 169.021 47.031C167.765 47.126 166.549 47.5126 165.469 48.1601C165.252 48.3163 164.983 48.3825 164.719 48.3447C164.455 48.3069 164.215 48.168 164.051 47.9573C163.898 47.7411 163.836 47.4737 163.877 47.2122C163.919 46.9506 164.061 46.7158 164.274 46.5579C165.622 45.7033 167.154 45.1837 168.744 45.0426C170.333 44.9014 171.933 45.1428 173.411 45.7465C173.655 45.8421 173.852 46.0286 173.962 46.2669C174.071 46.5051 174.085 46.7766 173.998 47.0243C173.933 47.1831 173.828 47.3227 173.694 47.43Z" fill="#263238"/>
<path d="M140.911 56.9208C140.716 56.8791 140.535 56.7883 140.384 56.6571C140.2 56.471 140.097 56.2195 140.097 55.9574C140.097 55.6953 140.2 55.4438 140.384 55.2576C141.408 54.0519 142.706 53.1095 144.169 52.5096C145.632 51.9097 147.218 51.6697 148.792 51.8098C149.056 51.8547 149.292 52.0003 149.451 52.2159C149.61 52.4315 149.679 52.7004 149.643 52.9659C149.624 53.0951 149.579 53.2192 149.511 53.331C149.443 53.4428 149.354 53.5401 149.248 53.6174C149.143 53.6946 149.023 53.7503 148.897 53.7811C148.77 53.812 148.638 53.8175 148.509 53.7974C147.26 53.6854 146.003 53.882 144.848 54.37C143.693 54.858 142.675 55.6225 141.884 56.5962C141.763 56.7287 141.61 56.8281 141.44 56.8849C141.269 56.9417 141.088 56.954 140.911 56.9208Z" fill="#263238"/>
<path d="M173.213 80.8289C172.512 81.3954 171.767 81.904 170.984 82.3498C170.86 82.4131 170.717 82.4315 170.58 82.402C170.444 82.3724 170.322 82.2967 170.234 82.1875C170.175 82.0545 170.167 81.9042 170.212 81.7655C170.257 81.6269 170.351 81.5099 170.478 81.4372C172.488 80.3569 174.214 78.8166 175.517 76.9419C176.82 75.0671 177.661 72.9109 177.974 70.6488C177.989 70.5108 178.056 70.3838 178.161 70.2935C178.267 70.2031 178.402 70.1562 178.541 70.1621C178.667 70.1565 178.79 70.1998 178.884 70.283C178.979 70.3662 179.037 70.4828 179.048 70.6083C179.057 70.6483 179.057 70.69 179.048 70.73C178.811 72.7217 178.172 74.6445 177.169 76.3808C176.166 78.1171 174.82 79.6306 173.213 80.8289Z" fill="#263238"/>
<path d="M127.43 31.2875C128.808 27.2318 133.63 25.5283 137.905 25.2039C136.573 25.0487 135.345 24.4055 134.459 23.3983C133.572 22.3911 133.089 21.0911 133.103 19.7488C133.186 18.4042 133.567 17.0949 134.219 15.9162C134.871 14.7375 135.777 13.7191 136.872 12.9351C138.773 11.4573 141.022 10.4945 143.403 10.1393C145.784 9.78412 148.217 10.0485 150.466 10.9072C150.065 10.6671 149.759 10.2958 149.601 9.85604C149.442 9.41627 149.44 8.93509 149.595 8.49398C149.926 7.61292 150.52 6.85536 151.297 6.32419C153.616 4.65531 156.433 3.8246 159.286 3.9683C162.139 4.11199 164.858 5.22154 166.998 7.11503C167.81 4.66413 169.505 2.60398 171.753 1.33664C174.001 0.0693038 176.639 -0.314277 179.154 0.260746C183.996 1.51804 193.113 2.49141 194.511 14.8818C195.554 13.887 196.797 13.1262 198.157 12.6503C199.516 12.1743 200.962 11.9941 202.397 12.1216C203.832 12.2492 205.223 12.6816 206.477 13.39C207.732 14.0984 208.821 15.0665 209.673 16.2297C210.524 17.3929 211.118 18.7244 211.414 20.1354C211.71 21.5465 211.702 23.0045 211.391 24.4123C211.08 25.8201 210.472 27.1453 209.609 28.2994C208.745 29.4534 207.646 30.4099 206.384 31.105C207.527 30.7296 208.771 30.8037 209.862 31.312C210.953 31.8204 211.81 32.7251 212.259 33.8426C212.654 34.9826 212.738 36.2072 212.503 37.3905C212.268 38.5737 211.722 39.673 210.922 40.5753C209.286 42.3395 207.175 43.593 204.844 44.1849C202.68 44.8891 200.36 44.9595 198.158 44.3877C197.068 44.0779 196.077 43.4882 195.285 42.6772C194.492 41.8662 193.925 40.862 193.64 39.7641C193.397 40.9197 192.739 41.9459 191.79 42.6485C190.842 43.3511 189.669 43.6813 188.494 43.5766C187.324 43.4005 186.239 42.8585 185.394 42.028C184.55 41.1976 183.99 40.1213 183.794 38.953C183.64 37.7816 183.799 36.5904 184.255 35.5005C184.71 34.4105 185.446 33.4608 186.387 32.7476C185.692 33.3343 184.874 33.7572 183.993 33.9853C183.113 34.2135 182.193 34.2411 181.3 34.0659C180.408 33.8908 179.566 33.5174 178.837 32.9734C178.108 32.4294 177.51 31.7285 177.088 30.9225C175.293 34.8445 172.222 38.0405 168.376 39.9872C166.434 40.9065 164.245 41.1624 162.144 40.7154C160.043 40.2685 158.147 39.1434 156.747 37.5131C155.543 39.06 154.124 40.4258 152.533 41.5689C151.724 42.1304 150.805 42.5115 149.837 42.6864C148.868 42.8614 147.874 42.826 146.921 42.5829C145.98 42.2987 145.169 41.6914 144.632 40.8679C144.094 40.0444 143.865 39.0574 143.983 38.0809C142.482 39.4252 140.667 40.3694 138.705 40.8266C136.744 41.2838 134.699 41.2392 132.759 40.6969C130.87 40.0591 129.282 38.7467 128.299 37.0108C127.316 35.275 127.007 33.2373 127.43 31.2875Z" fill="#263238"/>
<path d="M106.58 269.423H179.84C179.84 272.222 176.7 274.473 172.85 274.453H53.5389C49.73 274.453 46.6707 272.161 46.691 269.382L106.58 269.423Z" fill="#263238"/>
<path d="M52.4792 274.229H119.337C119.827 274.264 120.31 274.108 120.688 273.794C121.065 273.481 121.307 273.034 121.363 272.546C121.359 272.366 121.325 272.188 121.262 272.019L91.4798 203.719C90.9838 202.686 90.1949 201.821 89.2113 201.233C88.2277 200.645 87.0931 200.36 85.9488 200.414H19.0907C18.6035 200.374 18.1198 200.525 17.7417 200.835C17.3637 201.145 17.1209 201.59 17.0647 202.077C17.0661 202.266 17.1076 202.452 17.1863 202.624L46.9482 270.944C47.4513 271.97 48.2424 272.828 49.2248 273.411C50.2071 273.995 51.3381 274.279 52.4792 274.229Z" fill="#263238"/>
<path opacity="0.7" d="M19.0564 200.393H85.9144C87.0587 200.34 88.1934 200.625 89.177 201.213C90.1605 201.801 90.9495 202.665 91.4454 203.699L120.093 269.423H179.84C179.84 272.221 176.7 274.472 172.85 274.452H53.5389C52.4047 274.45 51.2822 274.222 50.2365 273.783C49.5032 273.57 48.8246 273.2 48.2476 272.699C47.6705 272.199 47.2086 271.579 46.8936 270.883L17.1317 202.563C17.053 202.391 17.0116 202.205 17.0101 202.016C17.0759 201.533 17.3257 201.095 17.7071 200.792C18.0885 200.49 18.572 200.347 19.0564 200.393Z" fill="white"/>
<path d="M59.3034 236.774C60.7621 240.039 63.6796 242.29 65.8677 241.844C68.0557 241.398 68.6433 238.396 67.2251 235.111C65.8069 231.826 62.8692 229.616 60.6811 230.082C58.493 230.548 57.8447 233.408 59.3034 236.774Z" fill="white"/>
<g opacity="0.3">
<path d="M91.5633 203.699L120.211 269.423H117.111L86.0323 200.475C87.1678 200.414 88.2963 200.687 89.2789 201.26C90.2616 201.833 91.0555 202.681 91.5633 203.699Z" fill="black"/>
</g>
<path d="M250.097 325.535C259.396 310.711 280.487 270.538 237.779 262.67C195.071 254.802 52.6834 322.594 52.6834 322.594L61.6991 349.869L194.301 328.982C194.301 328.982 176.067 353.216 198.171 352.12C230.181 348.916 237.86 341.251 250.097 325.535Z" fill="#263238"/>
</svg>
