<svg width="103" height="155" viewBox="0 0 103 155" fill="none" xmlns="http://www.w3.org/2000/svg">
<path d="M27.8503 104.092C27.8503 104.092 95.6618 88.2731 98.8843 102.333C103.492 122.415 54.5639 135.916 28.5041 135.095C2.44431 134.273 27.8503 104.092 27.8503 104.092Z" fill="#263238"/>
<path opacity="0.2" d="M27.8503 104.092C27.8503 104.092 95.6618 88.2731 98.8843 102.333C103.492 122.415 54.5639 135.916 28.5041 135.095C2.44431 134.273 27.8503 104.092 27.8503 104.092Z" fill="black"/>
<path opacity="0.7" d="M76.6394 106.673L44.7885 126.825L49.0384 132.839C49.0384 132.839 46.8045 136.149 42.5391 125.995L62.2396 113.029C62.2396 113.029 56.0749 112.416 56.2306 111.479C56.4952 109.928 70.0389 106.898 76.2191 105.549C76.3683 105.508 76.5279 105.523 76.6658 105.594C76.8038 105.664 76.9099 105.784 76.9631 105.929C77.0162 106.074 77.0124 106.234 76.9524 106.376C76.8924 106.518 76.7806 106.633 76.6394 106.696V106.673Z" fill="black"/>
<path opacity="0.7" d="M43.6388 124.546L49.1652 133.459C42.3448 134.638 35.4288 135.18 28.5073 135.079C26.236 135.063 23.9846 134.656 21.8522 133.878L19.9141 130.343L24.0861 121.973L43.6388 124.546Z" fill="black"/>
<path d="M54.1781 121.012L40.0195 129.956L42.557 136.8L59.183 129.359L54.1781 121.012Z" fill="#B97964"/>
<path d="M32.2188 132.25L33.612 137.172C33.927 137.252 34.217 137.408 34.4562 137.628C34.6953 137.847 34.876 138.122 34.982 138.427C35.0251 139.165 34.9409 139.904 34.7329 140.613L38.4535 154.185C38.9057 154.066 39.342 153.894 39.7534 153.673C40.1518 153.392 40.515 153.064 40.8353 152.696C41.8472 151.542 41.9562 149.86 41.9951 148.62C42.0573 146.542 43.256 140.458 43.256 140.458C43.6813 139.289 44.422 138.259 45.3965 137.482C45.776 137.208 46.0886 136.853 46.311 136.442C46.5334 136.032 46.6598 135.576 46.6809 135.11C46.6557 134.853 46.5746 134.604 46.4433 134.381C46.3119 134.158 46.1334 133.966 45.9202 133.819C45.7069 133.671 45.464 133.572 45.2083 133.527C44.9525 133.482 44.6901 133.494 44.4392 133.56L43.0848 133.723C42.6038 133.383 42.2698 132.874 42.1499 132.299C42.0301 131.724 42.1333 131.125 42.4387 130.623C42.4387 130.623 43.2171 127.67 41.9951 128.166C41.279 128.445 38.1577 129.84 35.6514 130.863L34.0324 131.522L32.2188 132.25Z" fill="#263238"/>
<path d="M42.7346 143.698C42.7519 143.66 42.7567 143.618 42.7483 143.578C42.7399 143.537 42.7187 143.501 42.6879 143.473C42.3927 143.196 42.0264 143.006 41.6293 142.923C41.4114 142.923 41.318 143.225 41.5281 143.272C41.8788 143.343 42.2039 143.506 42.47 143.744C42.4851 143.765 42.505 143.782 42.528 143.794C42.551 143.806 42.5765 143.812 42.6023 143.812C42.6281 143.812 42.6536 143.806 42.6766 143.794C42.6996 143.782 42.7195 143.765 42.7346 143.744V143.698Z" fill="#52CBFF"/>
<path d="M43.0154 142.497C43.0326 142.459 43.0374 142.417 43.029 142.376C43.0206 142.336 42.9995 142.299 42.9687 142.272C42.6737 141.996 42.3069 141.808 41.9101 141.729C41.6921 141.683 41.5909 142.024 41.8089 142.07C42.1595 142.141 42.4847 142.305 42.7507 142.543C42.7688 142.562 42.7911 142.576 42.8159 142.585C42.8407 142.593 42.8672 142.596 42.8931 142.592C42.9191 142.588 42.9437 142.578 42.965 142.563C42.9863 142.548 43.0036 142.528 43.0154 142.504V142.497Z" fill="#52CBFF"/>
<path d="M43.2502 141.28C43.2659 141.241 43.2698 141.198 43.2616 141.156C43.2533 141.115 43.2331 141.077 43.2035 141.047C42.9027 140.775 42.5346 140.588 42.1371 140.505C41.927 140.458 41.8258 140.799 42.0437 140.846C42.3927 140.92 42.7152 141.086 42.9778 141.326C42.9963 141.345 43.0192 141.359 43.0444 141.367C43.0696 141.375 43.0963 141.376 43.1223 141.372C43.1483 141.367 43.1728 141.357 43.1938 141.34C43.2147 141.324 43.2314 141.304 43.2424 141.28H43.2502Z" fill="#52CBFF"/>
<path opacity="0.2" d="M34.0324 131.522L32.2188 132.297L33.612 137.218C33.927 137.298 34.217 137.455 34.4562 137.674C34.6953 137.893 34.876 138.168 34.982 138.474C35.0251 139.211 34.9409 139.951 34.7329 140.66L38.4535 154.231C38.9057 154.112 39.342 153.941 39.7534 153.719C39.9557 153.572 40.1348 153.425 40.306 153.278L34.3048 131.444L34.0324 131.522Z" fill="white"/>
<path d="M45.1399 142.272C45.0067 142.27 44.8739 142.257 44.743 142.233C44.1156 142.004 43.5275 141.68 42.9994 141.272L42.8438 141.171L43.015 141.101C43.4792 140.919 43.9584 140.776 44.4472 140.675C44.9465 140.568 45.4656 140.597 45.9494 140.76C46.088 140.776 46.2176 140.836 46.3185 140.932C46.4193 141.028 46.4859 141.154 46.5079 141.291C46.53 141.428 46.5064 141.569 46.4406 141.691C46.3749 141.814 46.2708 141.911 46.144 141.969C45.8496 142.173 45.4982 142.278 45.1399 142.272ZM43.2563 141.225C43.728 141.578 44.2537 141.853 44.813 142.039C45.0251 142.087 45.2448 142.092 45.4588 142.054C45.6729 142.015 45.8768 141.934 46.0584 141.814C46.1461 141.763 46.2184 141.689 46.2677 141.601C46.317 141.512 46.3415 141.412 46.3386 141.311C46.2919 141.109 46.0584 140.993 45.9183 140.939C45.4638 140.79 44.9777 140.763 44.5095 140.861C44.0817 140.945 43.6624 141.067 43.2563 141.225Z" fill="#52CBFF"/>
<path d="M42.9513 141.326V141.148C42.8813 140.483 42.9101 139.812 43.0369 139.156C43.1182 138.926 43.2447 138.714 43.4091 138.533C43.5735 138.352 43.7724 138.205 43.9943 138.102C44.1085 138.03 44.2428 137.995 44.3778 138.004C44.5128 138.013 44.6416 138.064 44.7455 138.15C44.8494 138.236 44.9231 138.353 44.956 138.484C44.9889 138.614 44.9792 138.752 44.9284 138.877C44.8172 139.374 44.5724 139.833 44.2201 140.202C43.8819 140.563 43.512 140.892 43.1148 141.187L42.9513 141.326ZM44.3602 138.226C44.2558 138.226 44.1526 138.247 44.0566 138.288C43.8588 138.381 43.6818 138.513 43.5361 138.675C43.3904 138.837 43.2789 139.027 43.2082 139.233C43.0884 139.799 43.0595 140.38 43.1226 140.954C43.4601 140.697 43.7751 140.412 44.0644 140.102C44.3878 139.754 44.6156 139.33 44.726 138.869C44.7556 138.776 44.7618 138.677 44.7442 138.581C44.7265 138.486 44.6855 138.395 44.6248 138.319C44.5899 138.285 44.5484 138.259 44.5029 138.241C44.4574 138.224 44.4088 138.216 44.3602 138.218V138.226Z" fill="#52CBFF"/>
<path d="M55.8659 61.1303C55.8659 61.1303 58.3411 83.0801 58.9794 84.2582C61.2211 88.242 76.049 95.1091 76.049 95.1091L83.607 93.559L89.0555 98.0621L85.4828 100.845L81.2952 99.2945C79.0087 99.7007 76.6903 99.9031 74.3677 99.899C70.4759 99.899 51.6316 95.1479 48.4869 89.9162C45.3423 84.6845 43.9023 60.4637 43.9023 60.4637L55.8659 61.1303Z" fill="#B97964"/>
<path d="M43.5707 69.7568C43.5707 69.7568 37.7641 50.481 45.0029 45.1253C52.2417 39.7696 57.9939 66.2845 57.9939 66.2845L43.5707 69.7568Z" fill="#52CBFF"/>
<path opacity="0.3" d="M43.5707 69.7568C43.5707 69.7568 37.7641 50.481 45.0029 45.1253C52.2417 39.7696 57.9939 66.2845 57.9939 66.2845L43.5707 69.7568Z" fill="white"/>
<path d="M48.1539 105.022L48.0994 79.445L47.3833 44.2571L32.3841 41.1569L19.1518 40.5756L4.17598 47.4659L3.82571 56.0536C3.82571 56.0536 5.53813 95.4733 5.44472 96.6669C5.32797 98.1241 1.0625 107.262 1.0625 107.262C20.0391 111.571 48.4652 106.324 48.1539 105.022Z" fill="#52CBFF"/>
<path opacity="0.3" d="M48.1539 105.022L48.0994 79.445L47.3833 44.2571L32.3841 41.1569L19.1518 40.5756L4.17598 47.4659L3.82571 56.0536C3.82571 56.0536 5.53813 95.4733 5.44472 96.6669C5.32797 98.1241 1.0625 107.262 1.0625 107.262C20.0391 111.571 48.4652 106.324 48.1539 105.022Z" fill="white"/>
<path d="M26.6692 46.2646C26.6692 46.2646 30.3509 49.5276 32.2345 45.3113L33.2153 46.0863C33.2153 46.0863 33.1219 49.2254 31.3316 50.2717C31.7675 52.0156 39.2399 77.3602 40.5786 90.1332L38.5393 95.3184L33.0907 91.0478C33.0907 91.0478 30.4598 69.1368 29.5569 50.512C28.5007 50.1595 27.535 49.5805 26.7281 48.8158C25.9211 48.0511 25.2926 47.1193 24.8867 46.0863L26.6692 46.2646Z" fill="#52CBFF"/>
<path opacity="0.2" d="M31.418 46.7142L34.6093 49.1866L35.1308 41.7693L34.1189 41.5522L33.2705 46.5514L31.7605 45.6756L31.418 46.7142Z" fill="black"/>
<path opacity="0.2" d="M16.0433 42.056C15.9888 42.056 23.5545 51.2715 23.5545 51.2715L26.1231 49.3184L27.89 47.8303L28.3493 47.2722L18.3317 40.3431C17.8717 40.8321 17.3775 41.288 16.8528 41.7073C16.5724 41.7975 16.3013 41.9143 16.0433 42.056Z" fill="black"/>
<path d="M16.582 41.901L20.2404 38.6458L30.258 47.9853L27.6427 47.0629L23.8209 49.9849L16.582 41.901Z" fill="#52CBFF"/>
<path d="M30.2577 47.9852C30.0398 47.5589 31.0361 39.0797 31.0361 39.0797L34.5855 41.4979C34.3987 41.4592 34.2741 48.4735 34.1574 48.4735C34.0406 48.4735 31.8223 46.0708 31.8223 46.0708L30.2577 47.9852Z" fill="#52CBFF"/>
<path opacity="0.2" d="M47.8877 68.7182L47.1094 52.2404L50.8144 68.0129L47.8877 68.7182Z" fill="black"/>
<path opacity="0.2" d="M15.7723 71.1209C16.2393 71.0279 18.5978 70.2528 18.5978 70.2528L13.3594 55.6971L20.5749 71.8417L16.2393 73.5624L15.7723 71.1209Z" fill="black"/>
<path opacity="0.3" d="M16.582 41.901L20.2404 38.6458L30.258 47.9853L27.6427 47.0629L23.8209 49.9849L16.582 41.901Z" fill="white"/>
<path opacity="0.3" d="M30.2577 47.9852C30.0398 47.5589 31.0361 39.0797 31.0361 39.0797L34.5855 41.4979C34.3987 41.4592 34.2741 48.4735 34.1574 48.4735C34.0406 48.4735 31.8223 46.0708 31.8223 46.0708L30.2577 47.9852Z" fill="white"/>
<path opacity="0.3" d="M35.9375 61.6109L37.6188 69.8343L42.5147 71.6015L45.8228 68.726L45.2157 60.9598L35.9375 61.6109Z" fill="white"/>
<path d="M30.8583 47.2721L29.3015 47.6441C29.3015 47.6441 29.2471 47.7449 29.3015 47.6829C29.356 47.6209 28.4531 50.6049 28.4531 50.6049C28.7022 50.8297 29.5351 52.2635 29.6285 52.2403C29.7219 52.217 31.7845 52.0232 31.7845 52.0232L32.5629 49.8531L30.8583 47.2721Z" fill="#52CBFF"/>
<path opacity="0.2" d="M30.8583 47.2721L29.3015 47.6441C29.3015 47.6441 29.2471 47.7449 29.3015 47.6829C29.356 47.6209 28.4531 50.6049 28.4531 50.6049C28.7022 50.8297 29.5351 52.2635 29.6285 52.2403C29.7219 52.217 31.7845 52.0232 31.7845 52.0232L32.5629 49.8531L30.8583 47.2721Z" fill="black"/>
<path d="M13.7577 59.0454C13.7577 59.0454 17.4316 83.4134 19.5566 85.6921C23.1448 89.5674 40.9306 99.7595 40.9306 99.7595L49.8118 96.6593C50.1154 96.5585 50.4391 96.5327 50.755 96.584C51.0709 96.6353 51.3696 96.7622 51.6254 96.9538L57.6967 101.604L57.1207 102.092C56.9957 102.196 56.8432 102.262 56.6815 102.281C56.5198 102.301 56.356 102.273 56.21 102.201L55.2682 101.736L56.3189 102.759L55.992 103.046C55.8246 103.184 55.6261 103.281 55.4134 103.326C55.2007 103.372 54.98 103.366 54.77 103.309L52.0535 102.581L54.5598 104.247C54.2773 104.478 53.9428 104.637 53.585 104.712C53.2271 104.786 52.8566 104.773 52.5049 104.673L48.5352 103.55C45.8245 104.164 43.0676 104.556 40.2923 104.72C35.6221 105.007 13.5398 97.3258 9.42219 91.7066C5.30461 86.0874 1.0625 62.6882 1.0625 62.6882L13.7577 59.0454Z" fill="#B97964"/>
<path d="M2.00257 75.2598C2.00257 75.2598 -3.5005 53.1704 3.73834 47.8148C10.9772 42.4591 18.146 70.4079 18.146 70.4079L2.00257 75.2598Z" fill="#52CBFF"/>
<path opacity="0.3" d="M2.00257 75.2598C2.00257 75.2598 -3.5005 53.1704 3.73834 47.8148C10.9772 42.4591 18.146 70.4079 18.146 70.4079L2.00257 75.2598Z" fill="white"/>
<path d="M49.3832 18.122C49.8445 18.0728 50.2729 17.8603 50.5903 17.5233C50.9077 17.1863 51.0932 16.7471 51.1129 16.2854C51.1327 15.8238 50.9855 15.3704 50.6981 15.0077C50.4107 14.645 50.0021 14.3969 49.5466 14.3087L45.2578 13.8824C45.4602 16.6262 45.6652 19.3673 45.8727 22.1059C46.6976 22.3539 47.5776 22.3539 48.4024 22.1059C48.8134 21.9761 49.1881 21.7521 49.4963 21.452C49.8045 21.1518 50.0377 20.7837 50.1771 20.3775C50.3063 19.9665 50.2988 19.525 50.1558 19.1187C50.0127 18.7123 49.7417 18.3628 49.3832 18.122Z" fill="#263238"/>
<path d="M32.9828 33.9411L23.7591 22.3849C23.7591 22.3849 23.7591 22.3849 23.7591 22.4236C23.7591 23.5165 23.7591 24.7488 23.6346 26.0975C23.6346 26.0975 22.6383 25.6247 22.6383 25.6402C22.2413 31.6392 19.8595 41.9165 19.9685 42.7691L29.6592 47.5667L31.4261 45.8073L31.7686 41.932C30.78 39.4518 31.6985 36.5996 32.9828 33.9411Z" fill="#B97964"/>
<path opacity="0.2" d="M31.5955 37.8397L25.7655 33.2513C25.6176 35.5765 26.8474 39.2581 31.5254 41.1648C31.2719 40.0677 31.296 38.9252 31.5955 37.8397Z" fill="black"/>
<path d="M25.728 16.6572C23.821 24.4079 23.0971 28.1669 25.728 33.2514C29.7366 40.8935 39.5363 40.9555 43.7551 33.8792C47.5457 27.5159 50.0365 15.8744 43.4437 10.5807C41.9833 9.41871 40.2516 8.64309 38.4095 8.32593C36.5674 8.00877 34.6748 8.16034 32.9073 8.76659C31.1398 9.37284 29.5549 10.4141 28.2997 11.7936C27.0446 13.1731 26.16 14.8461 25.728 16.6572Z" fill="#B97964"/>
<path d="M27.371 6.10075C29.7062 2.22543 35.9331 1.59764 38.2137 4.65915C38.5484 5.11643 34.859 5.22493 35.2793 5.20168L33.1154 11.3324C32.6873 11.0922 31.6287 11.3324 30.7336 12.6036C30.7336 12.6036 29.3403 21.0362 24.9503 23.3924C20.6459 17.4709 21.1363 6.11625 27.371 6.10075Z" fill="#263238"/>
<path d="M20.7148 22.0826C20.7242 23.0767 20.9313 24.059 21.324 24.9729C21.7168 25.8869 22.2875 26.7143 23.0033 27.4073C24.9414 29.2442 27.1831 27.8181 27.7202 25.3534C28.195 23.1289 27.7669 19.4862 25.315 18.5871C22.8631 17.688 20.7148 19.6179 20.7148 22.0826Z" fill="#B97964"/>
<path d="M36.2976 23.1754C36.0563 23.9505 36.2976 24.7255 36.788 24.865C37.2784 25.0046 37.9166 24.5085 38.1657 23.7334C38.4148 22.9584 38.1657 22.1833 37.6753 22.036C37.185 21.8888 36.5467 22.3926 36.2976 23.1754Z" fill="#263238"/>
<path d="M43.989 25.6634C43.7477 26.4385 43.989 27.2136 44.4794 27.3531C44.9698 27.4926 45.6158 26.9965 45.8571 26.2215C46.0984 25.4464 45.8571 24.6713 45.3668 24.5241C44.8764 24.3768 44.2381 24.8806 43.989 25.6634Z" fill="#263238"/>
<path d="M41.2794 23.5785C41.2794 23.5785 42.2602 27.136 42.7039 29.2442C42.73 29.3629 42.7299 29.4859 42.7035 29.6046C42.6771 29.7233 42.625 29.8348 42.551 29.9315C42.4769 30.0281 42.3826 30.1075 42.2745 30.1641C42.1665 30.2208 42.0474 30.2534 41.9255 30.2595C41.1583 30.2426 40.407 30.0376 39.7383 29.6627L41.2794 23.5785Z" fill="#A24E3F"/>
<path d="M35.4821 18.4863C35.5344 18.5294 35.5969 18.5585 35.6637 18.5707C35.7305 18.5829 35.7993 18.5779 35.8635 18.556C36.3112 18.3736 36.7954 18.2975 37.2778 18.3338C37.7601 18.3701 38.2273 18.5179 38.6423 18.7653C38.7256 18.825 38.8288 18.8503 38.9304 18.8358C39.032 18.8214 39.124 18.7683 39.1872 18.6878C39.2459 18.6052 39.2697 18.503 39.2537 18.403C39.2378 18.3031 39.1831 18.2134 39.1016 18.153C38.5836 17.8264 37.9948 17.6279 37.3841 17.5739C36.7734 17.52 36.1587 17.6122 35.5911 17.843C35.4974 17.8795 35.4215 17.9508 35.3794 18.0418C35.3373 18.1329 35.3323 18.2366 35.3654 18.3313C35.3905 18.3919 35.4307 18.4453 35.4821 18.4863Z" fill="#263238"/>
<path d="M48.0731 22.1136C48.148 22.0977 48.2177 22.063 48.2755 22.0129C48.3463 21.9417 48.386 21.8456 48.386 21.7455C48.386 21.6453 48.3463 21.5492 48.2755 21.4781C47.882 21.0173 47.3834 20.6572 46.8213 20.4279C46.2593 20.1986 45.6502 20.1069 45.0452 20.1605C44.9439 20.1776 44.8532 20.2333 44.7922 20.3157C44.7313 20.3981 44.7048 20.5008 44.7183 20.6023C44.7259 20.6517 44.7432 20.6991 44.7692 20.7418C44.7953 20.7845 44.8295 20.8217 44.87 20.8512C44.9105 20.8808 44.9564 20.902 45.0052 20.9138C45.054 20.9256 45.1046 20.9277 45.1542 20.92C45.634 20.8772 46.1169 20.9524 46.5607 21.1389C47.0045 21.3254 47.3955 21.6175 47.6995 21.9896C47.746 22.0403 47.8047 22.0782 47.8701 22.0999C47.9355 22.1216 48.0054 22.1263 48.0731 22.1136Z" fill="#263238"/>
<path d="M35.6507 31.2516C35.9198 31.4681 36.2062 31.6625 36.5069 31.8329C36.5547 31.8571 36.6095 31.8641 36.6619 31.8528C36.7144 31.8415 36.7613 31.8126 36.7949 31.7709C36.8178 31.7201 36.8209 31.6626 36.8036 31.6096C36.7864 31.5566 36.75 31.5119 36.7015 31.4841C35.9293 31.0712 35.2659 30.4825 34.7654 29.766C34.265 29.0494 33.9416 28.2253 33.8215 27.3608C33.8156 27.308 33.7899 27.2595 33.7494 27.2249C33.7089 27.1904 33.6568 27.1725 33.6036 27.1748C33.5553 27.1726 33.508 27.1892 33.4717 27.2209C33.4355 27.2527 33.413 27.2973 33.409 27.3453C33.4053 27.3606 33.4053 27.3765 33.409 27.3918C33.4997 28.153 33.7453 28.8879 34.1307 29.5515C34.5161 30.2152 35.0333 30.7936 35.6507 31.2516Z" fill="#263238"/>
<path d="M53.2495 12.317C52.7202 10.7669 50.8677 10.1159 49.2254 9.99185C49.7372 9.93253 50.2088 9.6867 50.5494 9.30175C50.89 8.91679 51.0755 8.41995 51.0701 7.90692C51.0383 7.393 50.8918 6.89257 50.6414 6.44209C50.391 5.9916 50.0428 5.60237 49.6223 5.3027C48.8918 4.73788 48.0276 4.36989 47.1128 4.23415C46.1981 4.0984 45.2636 4.19946 44.3995 4.52763C44.5535 4.43589 44.671 4.29397 44.7319 4.12589C44.7929 3.95781 44.7937 3.7739 44.7342 3.6053C44.6069 3.26856 44.3787 2.97902 44.0803 2.776C43.1893 2.13816 42.107 1.82066 41.011 1.87558C39.915 1.9305 38.8702 2.35457 38.048 3.07827C37.7361 2.14153 37.0848 1.35413 36.2213 0.869756C35.3578 0.385378 34.344 0.238772 33.3778 0.458547C31.5175 0.939087 28.0148 1.31111 27.4777 6.04675C27.0771 5.66653 26.5997 5.37576 26.0773 5.19385C25.5549 5.01193 24.9995 4.94305 24.4482 4.9918C23.897 5.04055 23.3625 5.20582 22.8805 5.47657C22.3984 5.74732 21.9799 6.11734 21.6529 6.56192C21.3258 7.00649 21.0978 7.51539 20.9839 8.05469C20.8701 8.59398 20.873 9.15126 20.9926 9.68933C21.1122 10.2274 21.3457 10.7339 21.6774 11.175C22.0092 11.616 22.4316 11.9816 22.9165 12.2473C22.4771 12.1038 21.9994 12.1321 21.5803 12.3264C21.1611 12.5207 20.8318 12.8665 20.6592 13.2936C20.5077 13.7293 20.4754 14.1973 20.5657 14.6496C20.656 15.1018 20.8656 15.522 21.1729 15.8668C21.8015 16.5411 22.6124 17.0202 23.508 17.2464C24.3393 17.5156 25.2305 17.5425 26.0767 17.3239C26.4955 17.2055 26.8761 16.9802 27.1805 16.6702C27.485 16.3602 27.7028 15.9764 27.8124 15.5568C27.9059 15.9985 28.1587 16.3907 28.523 16.6592C28.8874 16.9278 29.338 17.054 29.7895 17.0139C30.2392 16.9466 30.656 16.7395 30.9803 16.4221C31.3047 16.1047 31.5199 15.6933 31.5953 15.2468C31.6543 14.7991 31.5931 14.3438 31.4181 13.9272C31.2431 13.5107 30.9605 13.1477 30.599 12.8751C30.8661 13.0993 31.1804 13.2609 31.5186 13.3481C31.8568 13.4354 32.2104 13.4459 32.5532 13.3789C32.8961 13.312 33.2195 13.1693 33.4996 12.9614C33.7797 12.7534 34.0094 12.4856 34.1717 12.1775C34.8611 13.6765 36.0411 14.898 37.5187 15.642C38.2646 15.9934 39.1058 16.0912 39.9129 15.9204C40.7201 15.7496 41.4486 15.3196 41.9865 14.6965C42.4489 15.2877 42.9941 15.8097 43.6055 16.2466C43.9161 16.4612 44.2693 16.6069 44.6413 16.6737C45.0133 16.7406 45.3953 16.7271 45.7616 16.6341C46.1231 16.5255 46.4345 16.2934 46.6409 15.9787C46.8474 15.6639 46.9357 15.2867 46.8903 14.9135C47.4669 15.4273 48.1642 15.7882 48.9178 15.9629C49.6715 16.1376 50.4572 16.1206 51.2024 15.9133C51.9281 15.6695 52.5381 15.168 52.9158 14.5045C53.2934 13.841 53.4123 13.0623 53.2495 12.317Z" fill="#263238"/>
<path d="M61.2552 103.333H33.1094C33.1094 104.402 34.3159 105.262 35.7948 105.255H81.6329C83.0963 105.255 84.2716 104.379 84.2638 103.317L61.2552 103.333Z" fill="#263238"/>
<path d="M82.0505 105.169H56.3643C56.1763 105.183 55.9905 105.123 55.8455 105.003C55.7005 104.883 55.6075 104.713 55.5859 104.526C55.5876 104.457 55.6007 104.389 55.6249 104.325L67.0669 78.2205C67.2574 77.8255 67.5605 77.495 67.9384 77.2703C68.3163 77.0457 68.7522 76.9368 69.1918 76.9571H94.878C95.0652 76.9418 95.2511 76.9996 95.3963 77.1181C95.5415 77.2367 95.6348 77.4069 95.6564 77.5927C95.6559 77.665 95.6399 77.7363 95.6097 77.802L84.1755 103.914C83.9822 104.306 83.6782 104.634 83.3008 104.857C82.9234 105.08 82.4889 105.189 82.0505 105.169Z" fill="#263238"/>
<path opacity="0.7" d="M94.8808 76.9493H69.1946C68.755 76.9289 68.319 77.0379 67.9412 77.2625C67.5633 77.4872 67.2602 77.8176 67.0696 78.2127L56.0635 103.333H33.1094C33.1094 104.402 34.3159 105.262 35.7948 105.255H81.6329C82.0687 105.254 82.4999 105.167 82.9017 104.999C83.1834 104.917 83.4441 104.776 83.6658 104.585C83.8875 104.394 84.065 104.157 84.186 103.891L95.6202 77.7786C95.6505 77.713 95.6664 77.6416 95.6669 77.5694C95.6416 77.385 95.5457 77.2174 95.3992 77.1018C95.2526 76.9863 95.0669 76.9316 94.8808 76.9493Z" fill="white"/>
<path d="M79.4256 90.854C78.8652 92.1019 77.7443 92.9622 76.9037 92.7917C76.063 92.6211 75.8373 91.474 76.3822 90.2184C76.927 88.9628 78.0557 88.118 78.8963 88.2963C79.7369 88.4746 79.986 89.5674 79.4256 90.854Z" fill="white"/>
<g opacity="0.3">
<path d="M67.0296 78.2127L56.0234 103.333H57.2143L69.1545 76.9803C68.7183 76.9572 68.2847 77.0615 67.9072 77.2805C67.5297 77.4994 67.2246 77.8234 67.0296 78.2127Z" fill="black"/>
</g>
<path d="M68.3516 132.297L84.9153 134.947L87.5695 128.15L70.1652 122.74L68.3516 132.297Z" fill="#B97964"/>
<path d="M92.2758 138.381L94.5097 133.777C94.3256 133.51 94.212 133.201 94.1793 132.879C94.1467 132.556 94.1961 132.231 94.3229 131.932C94.572 131.374 95.9653 130.46 95.9653 130.46L102.192 117.842C101.775 117.63 101.333 117.471 100.877 117.369C100.391 117.314 99.8997 117.314 99.4135 117.369C97.8957 117.578 96.697 118.756 95.8407 119.694C94.4085 121.244 89.4581 124.972 89.4581 124.972C88.3603 125.568 87.1184 125.85 85.8698 125.786C85.4036 125.738 84.9325 125.797 84.4926 125.958C84.0527 126.119 83.6558 126.378 83.3324 126.716C83.1761 126.924 83.0676 127.164 83.0145 127.418C82.9614 127.673 82.9651 127.936 83.0252 128.188C83.0854 128.441 83.2005 128.678 83.3625 128.881C83.5245 129.085 83.7295 129.251 83.9628 129.367L85.0915 130.142C85.2275 130.712 85.1428 131.311 84.8542 131.821C84.5656 132.331 84.0944 132.714 83.5347 132.894C83.5347 132.894 80.9661 134.583 82.2349 135.025C82.951 135.288 86.2201 136.312 88.7731 137.195L90.4311 137.769L92.2758 138.381Z" fill="#263238"/>
<path d="M92.0514 122.864C92.0112 122.879 91.9772 122.907 91.9546 122.944C91.9321 122.98 91.9223 123.023 91.9269 123.066C91.9731 123.467 92.1233 123.849 92.3627 124.174C92.4951 124.352 92.7986 124.174 92.6663 123.98C92.4491 123.696 92.3144 123.359 92.2771 123.004C92.2773 122.977 92.2706 122.951 92.2578 122.928C92.2449 122.905 92.2262 122.885 92.2036 122.871C92.1809 122.857 92.155 122.849 92.1284 122.848C92.1017 122.847 92.0752 122.852 92.0514 122.864Z" fill="#52CBFF"/>
<path d="M91.0166 123.577C90.9779 123.594 90.9455 123.622 90.9245 123.659C90.9034 123.695 90.8948 123.737 90.8999 123.779C90.9379 124.18 91.086 124.564 91.328 124.887C91.4603 125.065 91.7638 124.887 91.6315 124.693C91.4164 124.409 91.2844 124.071 91.2501 123.717C91.2469 123.692 91.2381 123.668 91.2243 123.646C91.2105 123.625 91.1922 123.607 91.1706 123.594C91.1489 123.58 91.1246 123.572 91.0993 123.569C91.074 123.566 91.0484 123.569 91.0244 123.577H91.0166Z" fill="#52CBFF"/>
<path d="M90.0283 124.345C89.9896 124.361 89.9572 124.39 89.9362 124.426C89.9151 124.462 89.9065 124.504 89.9116 124.546C89.9523 124.948 90.1031 125.332 90.3475 125.654C90.472 125.825 90.7756 125.654 90.6432 125.461C90.4325 125.174 90.301 124.837 90.2618 124.484C90.2601 124.458 90.2522 124.433 90.2389 124.411C90.2255 124.389 90.207 124.37 90.1849 124.357C90.1629 124.343 90.1379 124.335 90.112 124.333C90.0861 124.331 90.0601 124.335 90.0361 124.345H90.0283Z" fill="#52CBFF"/>
<path opacity="0.2" d="M94.3243 131.932C94.5734 131.374 95.9667 130.46 95.9667 130.46L102.194 117.842C101.777 117.63 101.335 117.471 100.878 117.369C100.629 117.369 100.396 117.369 100.17 117.369L90.1289 137.676L90.4091 137.769L92.2616 138.412L94.4956 133.808C94.3085 133.536 94.1945 133.221 94.1646 132.892C94.1346 132.564 94.1896 132.234 94.3243 131.932Z" fill="white"/>
<path d="M90.2544 124.686L90.0832 124.624L90.1221 124.531L90.0832 124.616C89.6139 124.453 89.1605 124.248 88.7288 124.004C88.2826 123.753 87.9138 123.386 87.6625 122.942C87.5832 122.83 87.535 122.7 87.5227 122.564C87.5104 122.427 87.5344 122.29 87.5924 122.167C87.6736 122.054 87.7859 121.967 87.9157 121.916C88.0455 121.865 88.1873 121.852 88.3241 121.88C88.5666 121.913 88.7999 121.994 89.0099 122.12C89.2199 122.245 89.4023 122.411 89.5461 122.608C89.8608 123.195 90.0864 123.824 90.2155 124.476L90.2544 124.686ZM88.2151 122.097C88.1278 122.09 88.0401 122.105 87.96 122.14C87.8798 122.175 87.8097 122.23 87.7559 122.298C87.723 122.39 87.713 122.487 87.7265 122.583C87.7401 122.679 87.7769 122.77 87.8337 122.849C88.07 123.263 88.4142 123.605 88.83 123.841C89.1979 124.052 89.5833 124.231 89.982 124.376C89.8705 123.808 89.6709 123.262 89.3904 122.756C89.2626 122.579 89.1001 122.431 88.9128 122.319C88.7254 122.207 88.5172 122.134 88.3007 122.105L88.2151 122.097Z" fill="#52CBFF"/>
<path d="M87.8633 126.313C87.6944 126.311 87.5267 126.285 87.3652 126.236C87.232 126.198 87.1114 126.126 87.0156 126.026C86.9198 125.927 86.8524 125.804 86.8203 125.67C86.8222 125.539 86.8574 125.41 86.9228 125.296C86.9881 125.182 87.0814 125.087 87.1939 125.019C87.6085 124.722 88.0946 124.54 88.6028 124.492C89.1 124.449 89.6 124.449 90.0973 124.492H90.2841L90.1673 124.631C89.7854 125.189 89.3179 125.683 88.7818 126.096C88.4974 126.24 88.1825 126.315 87.8633 126.313ZM89.2722 124.655C89.057 124.643 88.8413 124.643 88.6261 124.655C88.152 124.699 87.6981 124.867 87.3107 125.143C87.2282 125.194 87.1586 125.263 87.1073 125.345C87.056 125.427 87.0243 125.519 87.0149 125.616C87.0404 125.714 87.0923 125.803 87.165 125.874C87.2377 125.945 87.3284 125.995 87.4274 126.019C87.8533 126.139 88.3095 126.086 88.6962 125.871C89.1607 125.526 89.5678 125.11 89.9027 124.639L89.2722 124.655Z" fill="#52CBFF"/>
<path d="M6.12705 124.779C2.55434 119.113 -5.54849 103.759 10.8595 100.752C27.2676 97.7443 81.9714 123.655 81.9714 123.655L78.5076 134.079L27.5633 126.096C27.5633 126.096 34.5687 135.358 26.0767 134.94C13.7784 133.715 10.8284 130.785 6.12705 124.779Z" fill="#263238"/>
<path opacity="0.7" d="M28.7685 126.368L14.7578 121.988C14.7578 121.988 26.4801 129.127 30.7844 129.979L28.7685 126.368Z" fill="black"/>
</svg>
