<svg width="110" height="180" viewBox="0 0 110 180" fill="none" xmlns="http://www.w3.org/2000/svg">
<path d="M41.1667 30.9994V30.4868C41.1667 27.8387 44.5212 27.7216 44.5212 25.8365C44.5212 25.0292 43.8551 24.4842 42.8621 24.4842C41.7762 24.4842 41.09 25.0736 41.09 25.9132V26.1231C41.09 26.333 40.977 26.4259 40.7671 26.4259L38.7487 26.3492C38.559 26.3492 38.4258 26.2563 38.4258 26.1231V25.9132C38.4258 23.6083 40.2544 22.0259 42.9388 22.0259C45.6232 22.0259 47.2217 23.5114 47.2217 25.7396C47.2217 28.9044 43.8107 28.9246 43.8107 30.6563V30.9994C43.8159 31.0431 43.8111 31.0874 43.7967 31.1289C43.7823 31.1704 43.7587 31.2082 43.7276 31.2393C43.6965 31.2704 43.6588 31.294 43.6173 31.3084C43.5757 31.3228 43.5314 31.3276 43.4878 31.3224H41.4694C41.4274 31.3244 41.3854 31.3172 41.3464 31.3014C41.3074 31.2856 41.2723 31.2616 41.2435 31.2308C41.2147 31.2001 41.1929 31.1635 41.1796 31.1236C41.1664 31.0836 41.162 31.0413 41.1667 30.9994V30.9994ZM40.9971 34.0673C40.9794 33.7448 41.0588 33.4243 41.2251 33.1474C41.3913 32.8704 41.6369 32.6497 41.9299 32.5138C42.2229 32.3778 42.55 32.3329 42.8688 32.3848C43.1877 32.4367 43.4836 32.5831 43.7184 32.8049C43.9532 33.0268 44.116 33.314 44.1859 33.6294C44.2557 33.9448 44.2293 34.2739 44.1102 34.5741C43.991 34.8744 43.7845 35.132 43.5174 35.3137C43.2503 35.4953 42.9349 35.5927 42.6118 35.5932C42.1949 35.6073 41.7894 35.4555 41.4844 35.1709C41.1794 34.8863 40.9998 34.4923 40.985 34.0754L40.9971 34.0673Z" fill="#52CBFF"/>
<path d="M100.909 141.665V141.153C100.909 138.504 104.263 138.391 104.263 136.502C104.263 135.695 103.597 135.15 102.604 135.15C101.518 135.15 100.832 135.739 100.832 136.579V136.789C100.832 136.999 100.719 137.096 100.509 137.096L98.4909 137.019C98.3012 137.019 98.168 136.922 98.168 136.789V136.579C98.168 134.274 99.9966 132.692 102.681 132.692C105.365 132.692 107.008 134.177 107.008 136.409C107.008 139.57 103.597 139.59 103.597 141.322V141.665C103.602 141.709 103.598 141.753 103.583 141.795C103.569 141.837 103.545 141.875 103.514 141.906C103.483 141.938 103.446 141.962 103.404 141.976C103.363 141.991 103.318 141.997 103.274 141.992H101.256C101.21 142.001 101.163 141.999 101.119 141.986C101.074 141.972 101.033 141.949 100.999 141.917C100.965 141.885 100.939 141.846 100.924 141.802C100.908 141.758 100.903 141.711 100.909 141.665V141.665ZM100.739 144.733C100.722 144.411 100.801 144.09 100.967 143.813C101.134 143.536 101.379 143.315 101.672 143.18C101.965 143.044 102.292 142.999 102.611 143.051C102.93 143.102 103.226 143.249 103.461 143.471C103.695 143.693 103.858 143.98 103.928 144.295C103.998 144.611 103.972 144.94 103.852 145.24C103.733 145.54 103.527 145.798 103.26 145.979C102.992 146.161 102.677 146.258 102.354 146.259C101.938 146.269 101.536 146.114 101.234 145.828C100.932 145.542 100.756 145.149 100.743 144.733H100.739Z" stroke="#52CBFF" stroke-miterlimit="10"/>
<path d="M85.1047 150.852C85.0765 150.768 85.0482 150.683 85.0159 150.598C84.9836 150.513 84.9594 150.424 84.9271 150.34C84.8948 150.255 84.8706 150.17 84.8383 150.085C84.806 150.001 84.7818 149.912 84.7495 149.827C84.7172 149.742 84.693 149.658 84.6607 149.573C84.6284 149.488 84.6042 149.399 84.5719 149.314L84.4831 149.06C84.4548 148.971 84.4225 148.887 84.3943 148.802L84.3055 148.547C84.2772 148.459 84.2449 148.374 84.2167 148.289L84.1279 148.035C84.0996 147.946 84.0673 147.861 84.039 147.776L83.9543 147.506C83.926 147.417 83.8937 147.332 83.8655 147.248L83.7726 146.993C83.7444 146.905 83.7161 146.82 83.6838 146.735C83.6515 146.65 83.6273 146.565 83.595 146.481C83.5627 146.396 83.5385 146.307 83.5062 146.222C83.4739 146.138 83.4497 146.053 83.4174 145.968C82.1014 141.964 78.0325 139.025 73.5558 139.025C69.2163 139.025 65.442 141.552 63.8677 145.112C63.8274 145.193 63.791 145.278 63.7547 145.358L63.6457 145.609C63.6053 145.689 63.569 145.77 63.5327 145.855C63.4964 145.94 63.456 146.02 63.4197 146.101L63.3107 146.347C63.2703 146.432 63.234 146.513 63.1976 146.598C63.1613 146.682 63.1209 146.759 63.0846 146.844C63.0483 146.929 63.0079 147.005 62.9716 147.09L62.8626 147.336C62.8222 147.417 62.7859 147.502 62.7496 147.583C62.7132 147.663 62.6729 147.748 62.6365 147.829L62.5276 148.079C62.4872 148.16 62.4509 148.241 62.4145 148.325C62.3782 148.41 62.3378 148.491 62.3015 148.572L62.1925 148.818C62.1521 148.903 62.1158 148.983 62.0795 149.068C62.0431 149.153 62.0028 149.23 61.9665 149.314L61.8575 149.561C61.8171 149.641 61.7808 149.726 61.7444 149.807C61.7081 149.888 61.6677 149.972 61.6314 150.057C60.9388 151.532 60.5831 153.143 60.5899 154.772C60.5899 161.271 66.2009 166.583 73.14 166.583C79.9297 166.583 85.8354 161.271 85.8354 154.772C85.8341 153.533 85.6169 152.304 85.1935 151.139C85.1653 151.022 85.137 150.937 85.1047 150.852Z" fill="#263238"/>
<path d="M75.5017 61.4441C54.6845 61.4441 40.5117 73.6954 40.5117 91.5618V93.1765C40.5155 93.4433 40.5881 93.7046 40.7224 93.9352C40.8568 94.1657 41.0484 94.3577 41.2787 94.4924C41.3658 94.5763 41.4604 94.6519 41.5613 94.7185C41.6487 94.8035 41.7448 94.8793 41.8479 94.9445C41.9353 95.0296 42.0314 95.1053 42.1345 95.1706C42.2211 95.2565 42.3173 95.3324 42.4211 95.3967C42.5071 95.4816 42.6018 95.5574 42.7036 95.6227C42.791 95.709 42.8871 95.7862 42.9902 95.8528C43.0788 95.9367 43.1747 96.0123 43.2768 96.0789C43.3645 96.1636 43.4606 96.2394 43.5635 96.3049C43.6497 96.3897 43.7444 96.4654 43.846 96.531C43.9408 96.6224 44.045 96.7036 44.1568 96.7732C44.2391 96.8481 44.3268 96.9169 44.4192 96.979C44.5077 97.0629 44.6037 97.1386 44.7058 97.2051C44.7929 97.2889 44.8875 97.3646 44.9884 97.4311C45.0769 97.515 45.1728 97.5907 45.275 97.6572C45.3627 97.742 45.4587 97.8177 45.5616 97.8833C45.6479 97.968 45.7426 98.0438 45.8442 98.1093C45.9319 98.1941 46.0279 98.2698 46.1308 98.3354C46.217 98.4201 46.3117 98.4959 46.4133 98.5614C46.5019 98.6453 46.5978 98.7209 46.7 98.7875C46.7862 98.8722 46.8809 98.948 46.9825 99.0135C47.449 99.4239 48.0575 99.6355 48.6779 99.6029L61.6599 100.087C62.9961 100.087 63.7227 99.4818 63.7227 98.1456V96.8135C63.7227 91.473 68.0903 87.7148 75.0254 87.7148C81.3347 87.7148 85.5813 91.1097 85.5813 96.3291C85.5814 96.9239 85.5246 97.5173 85.4118 98.1012C78.8965 106.643 61.9384 110.409 61.9384 126.988V130.976C61.9384 132.591 62.8225 133.483 64.4493 133.483H80.0793C81.694 133.483 82.5901 132.599 82.5901 130.976V128.316C82.5901 114.882 109.018 114.732 109.018 90.2257C109.018 72.9567 95.8748 61.4441 75.5017 61.4441Z" fill="#263238"/>
<path d="M61.9201 130.984V126.996C61.9201 106.473 87.9042 105.601 87.9042 90.9723C87.9042 84.6226 82.7373 80.477 75.0595 80.477C66.643 80.477 61.3348 85.0546 61.3348 91.5496V93.1643C61.3348 94.7789 60.4467 95.5298 58.8239 95.5298L43.0244 94.9364C41.551 94.9364 40.5176 94.1977 40.5176 93.1643V91.5496C40.5176 73.6832 54.6904 61.4319 75.5076 61.4319C95.8807 61.4319 109.012 72.9445 109.012 90.2215C109.012 114.728 82.5839 114.878 82.5839 128.312V130.972C82.5839 132.587 81.6958 133.479 80.0731 133.479H64.4309C62.8041 133.491 61.9201 132.607 61.9201 130.984ZM60.592 154.772C60.592 148.277 66.3483 142.961 73.2874 142.961C79.9318 142.961 85.8374 148.277 85.8374 154.772C85.8374 161.267 79.9197 166.563 73.1421 166.563C66.1949 166.563 60.592 161.251 60.592 154.772Z" fill="#52CBFF" stroke="#52CBFF" stroke-miterlimit="10"/>
<path d="M72.4955 179.799C84.6703 179.799 94.5398 177.593 94.5398 174.871C94.5398 172.149 84.6703 169.942 72.4955 169.942C60.3208 169.942 50.4512 172.149 50.4512 174.871C50.4512 177.593 60.3208 179.799 72.4955 179.799Z" fill="#263238"/>
<path d="M55.6446 63.0793L54.8009 64.9201C54.8009 64.9201 49.9004 65.4489 49.9004 65.8162C49.9004 66.1836 49.9529 68.7146 50.2193 68.8195C50.4218 68.8983 50.6465 68.8983 50.849 68.8195L58.0666 66.9747L58.7529 63.7091L55.6446 63.0793Z" fill="#F0BCAA" stroke="#263238" stroke-linecap="round" stroke-linejoin="round"/>
<path d="M54.2726 66.3688C53.3764 67.103 52.4096 67.7467 51.3864 68.2903C50.2198 68.815 50.1754 69.6103 50.5467 69.6103C50.9181 69.6103 54.2121 68.2297 54.2121 68.2297C54.2121 68.2297 57.2032 67.4466 57.6352 67.2084C58.0671 66.9703 58.1155 65.6462 58.1155 65.6462" fill="#F0BCAA"/>
<path d="M54.2726 66.3688C53.3764 67.103 52.4096 67.7467 51.3864 68.2903C50.2198 68.815 50.1754 69.6103 50.5467 69.6103C50.9181 69.6103 54.2121 68.2297 54.2121 68.2297C54.2121 68.2297 57.2032 67.4466 57.6352 67.2084C58.0671 66.9703 58.1155 65.6462 58.1155 65.6462" stroke="#263238" stroke-linecap="round" stroke-linejoin="round"/>
<path d="M59.956 27.7097L56.9446 50.7915L54.8496 63.2891L59.4999 64.387L62.9674 49.6047L64.6103 40.3001L59.956 27.7097Z" fill="#52CBFF" stroke="#263238" stroke-linecap="round" stroke-linejoin="round"/>
<path d="M84.2576 10.9978L82.4209 10.7072L78.6587 9.28223L78.5215 13.7508L84.3545 14.2877L84.2576 10.9978Z" fill="#F0BCAA" stroke="#263238" stroke-linecap="round" stroke-linejoin="round"/>
<path d="M62.7861 92.8496C61.4172 94.4457 60.1383 96.1168 58.9553 97.8551C57.4011 100.229 57.9501 102.78 59.8675 103.422C61.785 104.064 64.2433 102.324 64.8851 100.955C65.527 99.5868 65.3413 98.8602 66.3424 97.4918C67.3435 96.1234 68.167 94.7549 67.8037 92.9303C67.4404 91.1057 63.771 91.574 62.7861 92.8496Z" fill="#52CBFF" stroke="#263238" stroke-linecap="round" stroke-linejoin="round"/>
<path d="M64.6977 101.298C64.5685 101.024 64.4191 100.733 64.2415 100.422C62.7762 97.843 60.2048 98.0489 58.5902 98.5293C57.5285 100.697 58.134 102.853 59.8738 103.434C61.6136 104.015 63.858 102.594 64.6977 101.298Z" fill="#F0BCAA" stroke="#263238" stroke-linecap="round" stroke-linejoin="round"/>
<path d="M64.2428 100.423C63.6978 101.23 62.9672 103.434 60.1375 102.522C59.3484 102.319 58.6426 101.874 58.1191 101.25C58.1803 101.742 58.3779 102.208 58.6896 102.594C59.0013 102.98 59.4148 103.271 59.8832 103.434C61.7966 104.072 64.2589 102.336 64.9008 100.968C65.5426 99.5991 65.3569 98.8725 66.358 97.5041C67.3591 96.1356 68.1826 94.7672 67.8193 92.9426C67.8193 95.1305 67.012 95.4938 65.9947 96.6806C64.9775 97.8674 64.7918 99.5991 64.2428 100.423Z" fill="#F0BCAA" stroke="#263238" stroke-linecap="round" stroke-linejoin="round"/>
<path d="M89.7066 92.8496C91.0755 94.4457 92.3544 96.1168 93.5374 97.8551C95.0915 100.229 94.5425 102.78 92.6251 103.422C90.7077 104.064 88.2493 102.324 87.6075 100.955C86.9657 99.5868 87.1514 98.8602 86.1503 97.4918C85.1492 96.1234 84.3257 94.7549 84.689 92.9303C85.0523 91.1057 88.7055 91.574 89.7066 92.8496Z" fill="#52CBFF" stroke="#263238" stroke-linecap="round" stroke-linejoin="round"/>
<path d="M87.7969 101.298C87.922 101.024 88.0714 100.733 88.249 100.422C89.7143 97.843 92.2857 98.0489 93.9003 98.5293C94.962 100.697 94.3565 102.853 92.6167 103.434C90.8769 104.015 88.6325 102.594 87.7969 101.298Z" fill="#F0BCAA" stroke="#263238" stroke-linecap="round" stroke-linejoin="round"/>
<path d="M88.2479 100.423C88.7929 101.23 89.5235 103.434 92.3532 102.522C93.1423 102.319 93.8482 101.874 94.3716 101.25C94.3104 101.742 94.1128 102.208 93.8011 102.594C93.4894 102.98 93.076 103.271 92.6076 103.434C90.6942 104.072 88.2318 102.336 87.59 100.968C86.9481 99.5991 87.1338 98.8725 86.1327 97.5041C85.1316 96.1356 84.3081 94.7672 84.6714 92.9426C84.6714 95.1305 85.4788 95.4938 86.496 96.6806C87.5132 97.8674 87.6989 99.5991 88.2479 100.423Z" fill="#F0BCAA" stroke="#263238" stroke-linecap="round" stroke-linejoin="round"/>
<path d="M93.9854 61.3758C93.9854 59.7328 91.1598 57.9082 91.1598 57.9082C86.9011 53.5769 79.2152 54.1501 76.3774 54.5376C73.5517 54.1339 65.8578 53.5769 61.5991 57.9082C61.5991 57.9082 58.7734 59.7328 58.7734 61.3758C58.7734 63.0187 62.3338 92.6681 62.3338 92.6681C62.3338 92.6681 62.2409 94.2182 64.7962 94.3999C67.3514 94.5815 68.4292 93.1243 68.4292 93.1243L69.4343 68.0363C69.4343 68.0363 73.5396 65.1137 74.2783 65.0249C74.5448 64.9886 74.8919 64.9321 75.2794 64.8836V64.9321C76.0023 64.7813 76.7485 64.7813 77.4714 64.9321V64.8836C77.875 64.9321 78.202 64.9886 78.4725 65.0249C79.2031 65.1137 83.3165 68.0363 83.3165 68.0363L84.3216 93.1243C84.3216 93.1243 85.4156 94.5815 87.9546 94.3999C90.4937 94.2182 90.417 92.6681 90.417 92.6681C90.417 92.6681 93.9854 63.0187 93.9854 61.3758Z" fill="#263238" stroke="#263238" stroke-linecap="round" stroke-linejoin="round"/>
<path d="M83.3108 68.0361C83.3108 68.0361 82.7618 62.0134 85.4099 59.7327" stroke="#707070" stroke-linecap="round" stroke-linejoin="round"/>
<path d="M69.4448 68.0361C69.4448 68.0361 69.7193 63.0185 69.1703 61.1939C68.6213 59.3693 67.709 58.6387 67.709 58.6387" stroke="#707070" stroke-linecap="round" stroke-linejoin="round"/>
<path d="M72.8203 56.0837C72.8203 56.0837 75.7388 59.4584 76.2878 62.2881" stroke="#707070" stroke-linecap="round" stroke-linejoin="round"/>
<path d="M79.2074 56.2771C79.2074 56.2771 77.5645 58.1017 77.3828 59.4701" stroke="#707070" stroke-linecap="round" stroke-linejoin="round"/>
<path d="M75.1002 20.7784C75.1002 20.7784 72.4561 20.4111 71.5438 21.3234C70.6316 22.2357 67.5273 25.5982 67.5273 25.5982L69.1703 54.6099C69.1703 54.6099 72.9123 56.0712 76.1053 56.0712C79.2983 56.0712 82.9475 54.8844 83.775 54.2466C84.6025 53.6088 83.8679 22.498 83.8679 22.498C83.8679 22.498 77.0903 20.5039 75.1002 20.7784Z" fill="white" stroke="#263238" stroke-linecap="round" stroke-linejoin="round"/>
<path d="M79.9373 21.4165C81.3262 21.2056 82.727 21.0829 84.1314 21.0492C85.956 21.0492 87.7645 21.142 87.7645 21.142L92.3259 16.7622L83.1465 14.6632L83.8771 10.469C83.8771 10.469 90.6265 10.0129 94.0012 10.6507C97.3758 11.2885 102.668 12.9314 102.942 12.9314C103.217 12.9314 103.58 13.9366 103.306 14.6632C103.031 15.3898 94.4492 24.884 91.8859 27.3464C90.2091 28.9897 88.6256 30.7255 87.1428 32.5457L85.9722 52.8906C85.9722 52.8906 88.9835 54.5335 89.5325 55.0785C90.0815 55.6234 90.7193 57.8153 90.7193 57.8153C90.7193 57.8153 85.1527 55.5346 83.6914 55.3529C82.2302 55.1713 81.3219 55.0785 81.0474 54.5456C80.7729 54.0128 78.4922 29.6393 78.4922 29.6393L78.585 21.8848C78.585 21.8848 78.5689 21.4165 79.9373 21.4165Z" fill="#52CBFF" stroke="#263238" stroke-linecap="round" stroke-linejoin="round"/>
<path d="M85.4112 33.9143L80.4824 34.5521L80.9386 36.3767L83.405 37.0145L85.7745 35.9205L85.4112 33.9143Z" stroke="#263238" stroke-linecap="round" stroke-linejoin="round"/>
<path d="M88.2365 22.9666L87.1426 32.5456L89.9723 24.4278" stroke="#263238" stroke-linecap="round" stroke-linejoin="round"/>
<path d="M92.3418 16.7624C92.3418 16.7624 94.6225 17.2185 98.09 15.8501" stroke="#263238" stroke-linecap="round" stroke-linejoin="round"/>
<path d="M94.7148 17.4002C96.2132 17.4419 97.7116 17.3201 99.1835 17.0369" stroke="#263238" stroke-linecap="round" stroke-linejoin="round"/>
<path d="M72.002 20.6858L72.4581 27.3463C72.8739 27.8932 73.4124 28.3349 74.0301 28.6357C74.6477 28.9364 75.3274 29.088 76.0144 29.0781C78.2951 28.9892 78.5696 27.3463 78.5696 27.3463V21.8726L72.002 20.6858Z" fill="#F0BCAA" stroke="#263238" stroke-linecap="round" stroke-linejoin="round"/>
<path d="M78.6582 24.1535L78.4766 29.6354L80.394 26.624C80.394 26.624 82.4931 29.268 83.038 29.1792C83.583 29.0904 82.6747 27.9924 82.4931 26.9913C82.3114 25.9902 80.7573 22.4258 80.5756 21.4248C80.394 20.4237 78.6582 20.238 78.5573 20.6941C78.5067 21.0881 78.5067 21.4869 78.5573 21.8809L78.6582 24.1535Z" fill="#52CBFF" stroke="#263238" stroke-linecap="round" stroke-linejoin="round"/>
<path d="M72.3633 29.0781C72.3633 29.0781 72.7266 54.6222 71.8143 54.9128C70.902 55.2035 67.2529 55.2802 64.952 56.3741C62.651 57.4681 61.5773 57.9242 61.5773 57.9242C61.5773 57.9242 62.6712 55.2802 63.9509 54.0934C64.8014 53.329 65.752 52.6839 66.7765 52.176L64.407 39.9529C64.407 39.9529 60.0272 28.3636 59.9344 27.7258C59.8415 27.088 68.2378 22.3449 69.9695 21.5214C71.7013 20.6979 72.1615 21.4326 72.1615 21.4326L72.3633 29.0781Z" fill="#52CBFF" stroke="#263238" stroke-linecap="round" stroke-linejoin="round"/>
<path d="M70.0826 20.2299C70.0826 20.2299 67.8947 27.165 67.709 28.0772C67.5233 28.9895 67.709 28.9895 68.3508 28.3477C68.9927 27.7059 70.6315 26.1598 70.6315 26.1598L72.3633 29.0783L72.2704 23.6974V20.5932C72.2704 20.5932 72.1816 19.3176 70.0826 20.2299Z" fill="#52CBFF" stroke="#263238" stroke-linecap="round" stroke-linejoin="round"/>
<path d="M65.796 35.1938H71.1769L71.0881 37.3817L68.7145 38.2012L65.7031 37.3817L65.796 35.1938Z" stroke="#263238" stroke-linecap="round" stroke-linejoin="round"/>
<path d="M80.5768 11.1998C80.5768 11.1998 81.8524 16.7624 82.1269 17.6585C82.4014 18.5547 80.6696 22.1312 80.1085 22.9506C79.895 23.306 79.6013 23.6065 79.2508 23.828C78.9003 24.0495 78.5028 24.1859 78.0902 24.2262C77.4524 24.2262 73.9849 23.0435 73.1614 22.4945C72.3379 21.9455 71.5225 21.3077 71.5225 21.3077C71.1344 21.4846 70.7032 21.5445 70.2816 21.48C69.86 21.4155 69.4663 21.2293 69.149 20.9444C68.055 19.9393 66.5937 18.7525 66.957 17.933C67.134 17.5309 67.4303 17.1929 67.8057 16.9648C68.1812 16.7366 68.6177 16.6293 69.0561 16.6574C70.0612 16.6574 69.6979 16.5646 69.6979 16.5646C69.6979 16.5646 67.8734 13.9206 67.8734 11.8215C67.8734 9.72242 71.793 8.18848 74.0737 8.18848C75.6507 8.2542 77.1999 8.62573 78.6352 9.28242L80.5768 11.1998Z" fill="#F0BCAA" stroke="#263238" stroke-linecap="round" stroke-linejoin="round"/>
<path d="M77.383 13.2947L79.0259 16.3989L77.383 17.4928L76.6523 16.5805" stroke="#263238" stroke-linecap="round" stroke-linejoin="round"/>
<path d="M80.3938 16.1243C80.3938 16.1243 80.4826 16.8549 79.3887 18.0417" stroke="#263238" stroke-linecap="round" stroke-linejoin="round"/>
<path d="M75.6511 14.4374C75.6511 14.8653 75.4654 15.2124 75.2474 15.2124C75.0294 15.2124 74.8438 14.8653 74.8438 14.4374C74.8438 14.0095 75.0294 13.6624 75.2474 13.6624C75.4654 13.6624 75.6511 14.0095 75.6511 14.4374Z" fill="#263238"/>
<path d="M78.5211 13.7508C78.7485 13.7508 78.9329 13.4038 78.9329 12.9757C78.9329 12.5477 78.7485 12.2007 78.5211 12.2007C78.2937 12.2007 78.1094 12.5477 78.1094 12.9757C78.1094 13.4038 78.2937 13.7508 78.5211 13.7508Z" fill="#263238"/>
<path d="M70.722 6.45255C70.722 6.45255 64.9818 8.55163 64.7921 11.1997C64.6024 13.8478 69.9025 17.4929 70.177 17.949C70.4515 18.4052 71.271 17.4 71.271 17.4C71.0885 17.1549 70.9612 16.8733 70.8978 16.5744C70.8344 16.2755 70.8364 15.9664 70.9036 15.6683C71.1781 14.756 72.3649 13.65 72.3649 13.2059C72.3649 12.7619 70.9965 13.5692 70.9965 12.2008C70.9965 10.8324 74.3711 10.0129 76.3774 10.1017C78.3836 10.1905 80.1194 13.5692 81.5807 11.9263C83.0419 10.2834 80.9388 9.83125 80.9388 9.83125C80.9388 9.83125 83.7645 9.46392 83.7645 8.00667C83.7645 6.54943 82.3032 5.54026 81.6654 5.54026C81.0276 5.54026 79.2959 6.63824 79.2959 5.45145C79.2959 4.26467 81.0276 3.71568 79.3847 1.81843C77.7418 -0.078808 75.6467 1.81843 75.6467 2.54907C75.6467 3.27971 75.0977 4.64411 74.7344 4.64411C74.3711 4.64411 73.2732 3.00522 71.9976 3.91751C71.614 4.22246 71.3013 4.60709 71.0811 5.0448C70.8608 5.4825 70.7383 5.96283 70.722 6.45255V6.45255Z" fill="#263238" stroke="#263238" stroke-linecap="round" stroke-linejoin="round"/>
<path d="M73.0957 13.4803L76.0142 12.3823" stroke="#263238" stroke-linecap="round" stroke-linejoin="round"/>
<path d="M76.4705 11.107C76.4146 10.8206 76.4603 10.5237 76.5996 10.2673" stroke="#263238" stroke-linecap="round" stroke-linejoin="round"/>
<path d="M76.5996 10.2591C76.8055 9.85547 77.2697 9.33474 78.295 8.91089" stroke="#F0BCAA" stroke-linecap="round" stroke-linejoin="round"/>
</svg>
