<svg preserveAspectRatio="none" viewBox="0 0 426 426" fill="none" xmlns="http://www.w3.org/2000/svg">
<path d="M318.369 288.496V285.641C318.369 270.944 336.976 270.305 336.976 259.843C336.976 255.302 333.278 252.337 327.775 252.337C321.751 252.337 317.943 255.617 317.943 260.269V261.436C317.943 262.595 317.312 263.14 316.145 263.14L304.839 262.714C303.782 262.714 303.041 262.186 303.041 261.453V260.286C303.041 247.506 313.188 238.722 328.098 238.722C342.685 238.722 352.091 246.969 352.091 259.332C352.091 276.883 333.168 276.994 333.168 286.596V288.496C333.196 288.739 333.17 288.985 333.09 289.216C333.009 289.447 332.878 289.657 332.705 289.83C332.532 290.003 332.322 290.135 332.091 290.215C331.859 290.295 331.613 290.322 331.37 290.293H320.166C319.923 290.322 319.677 290.295 319.446 290.215C319.214 290.135 319.004 290.003 318.831 289.83C318.658 289.657 318.527 289.447 318.447 289.216C318.366 288.985 318.34 288.739 318.369 288.496ZM317.414 305.536C317.414 300.884 321.538 297.075 326.505 297.075C331.268 297.075 335.494 300.884 335.494 305.536C335.494 310.187 331.234 313.996 326.403 313.996C321.572 313.996 317.414 310.17 317.414 305.518V305.536Z" fill="#52CBFF"/>
<path d="M94.9739 167.426V164.947C94.9739 152.167 111.162 151.63 111.162 142.54C111.162 138.586 107.95 136.022 103.179 136.022C97.9389 136.022 94.6587 138.867 94.6587 142.906V143.92C94.6587 144.925 94.1134 145.385 93.0995 145.385L83.276 145.019C82.3558 145.019 81.7168 144.559 81.7168 143.92V142.906C81.7168 131.83 90.5265 124.162 103.477 124.162C116.146 124.162 124.325 131.327 124.325 142.054C124.325 157.296 107.882 157.39 107.882 165.748V167.401C107.906 167.612 107.883 167.825 107.813 168.025C107.744 168.226 107.629 168.408 107.479 168.558C107.329 168.708 107.147 168.822 106.947 168.892C106.747 168.961 106.533 168.985 106.323 168.96H96.5331C96.3248 168.984 96.1137 168.961 95.9155 168.893C95.7172 168.824 95.5367 168.713 95.3872 168.566C95.2377 168.419 95.123 168.24 95.0515 168.043C94.98 167.846 94.9535 167.635 94.9739 167.426ZM94.1219 182.209C94.1219 178.17 97.7003 174.864 102.011 174.864C106.144 174.864 109.824 178.17 109.824 182.209C109.824 186.247 106.144 189.553 101.926 189.553C99.9228 189.603 97.9806 188.86 96.5234 187.484C95.0661 186.108 94.2121 184.212 94.1475 182.209H94.1219Z" fill="#52CBFF"/>
<path d="M300.612 69.6595V68.407C300.612 61.9574 308.774 61.6762 308.774 57.0839C308.774 55.0903 307.147 53.7867 304.735 53.7867C302.094 53.7867 300.424 55.2266 300.424 57.2714V57.7826C300.424 58.2938 300.143 58.5238 299.632 58.5238L294.673 58.3364C294.205 58.3364 293.881 58.1063 293.881 57.7826V57.2714C293.881 51.6567 298.337 47.8057 304.88 47.8057C311.279 47.8057 315.411 51.4267 315.411 56.8539C315.411 64.5219 307.104 64.5986 307.104 68.7819V69.6339C307.116 69.7406 307.104 69.8488 307.069 69.9502C307.033 70.0515 306.975 70.1435 306.899 70.2191C306.823 70.2946 306.73 70.3518 306.628 70.3862C306.526 70.4206 306.418 70.4314 306.312 70.4177H301.396C301.292 70.431 301.186 70.4207 301.087 70.3876C300.987 70.3546 300.897 70.2996 300.821 70.2268C300.746 70.154 300.688 70.0652 300.652 69.967C300.616 69.8688 300.602 69.7637 300.612 69.6595ZM300.194 77.1315C300.139 76.3348 300.326 75.5402 300.729 74.8508C301.132 74.1614 301.733 73.6093 302.454 73.2661C303.175 72.923 303.983 72.8047 304.772 72.9268C305.561 73.0488 306.295 73.4054 306.879 73.9503C307.462 74.4952 307.869 75.2031 308.045 75.982C308.221 76.7609 308.158 77.5748 307.865 78.3177C307.573 79.0606 307.063 79.6982 306.403 80.1477C305.743 80.5971 304.963 80.8375 304.165 80.8377C303.66 80.8559 303.157 80.7744 302.685 80.5979C302.212 80.4213 301.779 80.1532 301.41 79.8089C301.041 79.4645 300.744 79.0508 300.535 78.5914C300.327 78.1319 300.211 77.6358 300.194 77.1315Z" fill="#52CBFF"/>
<path d="M61.3448 241.968V240.392C61.3448 232.264 71.6369 231.914 71.6369 226.121C71.6369 223.607 69.5921 221.972 66.5249 221.972C63.1936 221.972 61.0892 223.786 61.0892 226.359V226.998C61.0892 227.646 60.7398 227.936 60.0923 227.936L53.8386 227.706C53.2508 227.706 52.8418 227.407 52.8418 226.998V226.359C52.8418 219.288 58.4565 214.431 66.7038 214.431C74.7723 214.431 79.9695 218.99 79.9695 225.831C79.9695 235.535 69.5069 235.595 69.5069 240.92V241.968C69.5235 242.103 69.5091 242.24 69.4648 242.368C69.4206 242.497 69.3476 242.613 69.2515 242.71C69.1555 242.806 69.0388 242.879 68.9103 242.923C68.7818 242.967 68.645 242.981 68.5101 242.965H62.3246C62.191 242.979 62.0561 242.962 61.9298 242.917C61.8035 242.871 61.689 242.798 61.5949 242.702C61.5008 242.606 61.4295 242.491 61.3862 242.364C61.3429 242.237 61.3287 242.101 61.3448 241.968V241.968ZM60.8165 251.383C60.7498 250.379 60.9868 249.378 61.4967 248.511C62.0066 247.644 62.7658 246.95 63.6754 246.521C64.585 246.091 65.6029 245.945 66.5966 246.102C67.5902 246.259 68.5137 246.711 69.2466 247.4C69.9796 248.089 70.4881 248.983 70.706 249.965C70.924 250.947 70.8412 251.972 70.4685 252.907C70.0957 253.841 69.4503 254.642 68.6163 255.204C67.7822 255.766 66.7982 256.065 65.7922 256.06C64.51 256.101 63.2638 255.632 62.3276 254.755C61.3914 253.878 60.8417 252.665 60.7995 251.383H60.8165Z" stroke="#52CBFF" stroke-miterlimit="10"/>
<path d="M139.728 94.8958V93.8137C139.728 88.2246 146.809 87.9775 146.809 83.9987C146.809 82.2947 145.403 81.1445 143.307 81.1445C141.015 81.1445 139.567 82.3884 139.567 84.1606V84.6036C139.567 85.0467 139.328 85.2426 138.885 85.2426L134.625 85.0807C134.225 85.0807 133.943 84.8848 133.943 84.6036V84.1606C133.943 79.2956 137.803 75.9558 143.469 75.9558C149.135 75.9558 152.508 79.0912 152.508 83.7942C152.508 90.4739 145.309 90.5165 145.309 94.1716V94.8958C145.32 94.9879 145.31 95.0814 145.28 95.169C145.249 95.2567 145.199 95.3364 145.134 95.402C145.068 95.4676 144.988 95.5175 144.901 95.5479C144.813 95.5782 144.72 95.5883 144.627 95.5774H140.367C140.279 95.5816 140.19 95.5666 140.108 95.5332C140.025 95.4999 139.951 95.449 139.89 95.3842C139.83 95.3194 139.784 95.2421 139.756 95.1578C139.728 95.0735 139.718 94.9841 139.728 94.8958ZM139.371 101.371C139.333 100.69 139.501 100.014 139.852 99.4293C140.203 98.8447 140.721 98.3789 141.339 98.092C141.958 97.8051 142.648 97.7103 143.321 97.8198C143.994 97.9294 144.619 98.2383 145.114 98.7066C145.61 99.1749 145.953 99.781 146.101 100.447C146.248 101.112 146.193 101.807 145.941 102.441C145.69 103.074 145.254 103.618 144.69 104.002C144.126 104.385 143.46 104.591 142.779 104.592C141.899 104.621 141.043 104.301 140.399 103.7C139.755 103.1 139.376 102.268 139.345 101.388L139.371 101.371Z" fill="#52CBFF"/>
<path d="M265.824 328.471V327.389C265.824 321.8 272.904 321.562 272.904 317.574C272.904 315.87 271.498 314.72 269.403 314.72C267.111 314.72 265.662 315.964 265.662 317.736V318.179C265.662 318.622 265.424 318.827 264.981 318.827L260.721 318.665C260.32 318.665 260.039 318.46 260.039 318.179V317.736C260.039 312.871 263.899 309.531 269.564 309.531C275.23 309.531 278.698 312.667 278.698 317.378C278.698 324.05 271.498 324.092 271.498 327.747V328.471C271.509 328.564 271.499 328.658 271.469 328.746C271.438 328.834 271.389 328.914 271.323 328.98C271.258 329.046 271.178 329.097 271.091 329.128C271.003 329.16 270.909 329.171 270.817 329.162H266.557C266.46 329.18 266.361 329.175 266.267 329.148C266.172 329.12 266.086 329.071 266.015 329.003C265.943 328.936 265.889 328.853 265.856 328.76C265.822 328.668 265.812 328.569 265.824 328.471V328.471ZM265.466 334.947C265.429 334.266 265.596 333.59 265.947 333.005C266.298 332.42 266.817 331.955 267.435 331.668C268.054 331.381 268.744 331.286 269.417 331.396C270.09 331.505 270.714 331.814 271.21 332.282C271.705 332.751 272.049 333.357 272.197 334.022C272.344 334.688 272.288 335.383 272.037 336.016C271.785 336.65 271.349 337.194 270.786 337.577C270.222 337.961 269.556 338.166 268.874 338.167C267.997 338.188 267.148 337.861 266.511 337.258C265.874 336.654 265.502 335.824 265.475 334.947H265.466Z" stroke="#52CBFF" stroke-miterlimit="10"/>
<path d="M232.469 347.863C232.409 347.684 232.349 347.505 232.281 347.326C232.213 347.147 232.162 346.96 232.094 346.781C232.026 346.602 231.975 346.423 231.906 346.244C231.838 346.065 231.787 345.878 231.719 345.699C231.651 345.52 231.6 345.341 231.532 345.162C231.463 344.983 231.412 344.796 231.344 344.617L231.157 344.08C231.097 343.893 231.029 343.714 230.969 343.535L230.782 342.998C230.722 342.811 230.654 342.632 230.594 342.453L230.407 341.916C230.347 341.729 230.279 341.55 230.219 341.371L230.041 340.8C229.981 340.612 229.913 340.434 229.853 340.255L229.657 339.718C229.597 339.53 229.538 339.352 229.47 339.173C229.402 338.994 229.35 338.815 229.282 338.636C229.214 338.457 229.163 338.27 229.095 338.091C229.027 337.912 228.976 337.733 228.907 337.554C226.13 329.102 217.542 322.899 208.093 322.899C198.934 322.899 190.968 328.233 187.645 335.748C187.56 335.918 187.483 336.097 187.406 336.267L187.176 336.796C187.091 336.966 187.015 337.136 186.938 337.315C186.861 337.494 186.776 337.665 186.699 337.835L186.469 338.355C186.384 338.534 186.307 338.704 186.231 338.883C186.154 339.062 186.069 339.224 185.992 339.403C185.915 339.582 185.83 339.743 185.754 339.922L185.524 340.442C185.438 340.612 185.362 340.791 185.285 340.962C185.208 341.132 185.123 341.311 185.046 341.482L184.816 342.01C184.731 342.18 184.654 342.351 184.578 342.529C184.501 342.708 184.416 342.879 184.339 343.049L184.109 343.569C184.024 343.748 183.947 343.918 183.871 344.097C183.794 344.276 183.709 344.438 183.632 344.617L183.402 345.137C183.317 345.307 183.24 345.486 183.163 345.656C183.087 345.827 183.002 346.006 182.925 346.185C181.463 349.298 180.712 352.697 180.727 356.136C180.727 369.853 192.57 381.065 207.215 381.065C221.546 381.065 234.011 369.853 234.011 356.136C234.008 353.521 233.55 350.926 232.656 348.468C232.597 348.221 232.537 348.042 232.469 347.863Z" fill="#0D2842"/>
<path d="M212.199 159.154C168.261 159.154 138.348 185.012 138.348 222.721V226.129C138.356 226.692 138.509 227.244 138.792 227.731C139.076 228.217 139.48 228.622 139.966 228.907C140.15 229.084 140.35 229.243 140.563 229.384C140.747 229.563 140.95 229.723 141.168 229.861C141.352 230.041 141.555 230.2 141.773 230.338C141.956 230.52 142.159 230.68 142.378 230.815C142.559 230.995 142.759 231.155 142.974 231.292C143.158 231.475 143.361 231.637 143.579 231.778C143.766 231.955 143.968 232.115 144.184 232.255C144.369 232.434 144.572 232.594 144.789 232.732C144.971 232.911 145.171 233.071 145.385 233.209C145.585 233.402 145.805 233.574 146.041 233.721C146.215 233.879 146.4 234.024 146.595 234.155C146.782 234.332 146.984 234.492 147.2 234.632C147.384 234.809 147.583 234.969 147.796 235.109C147.983 235.286 148.186 235.446 148.401 235.586C148.586 235.765 148.789 235.925 149.006 236.064C149.188 236.242 149.388 236.402 149.603 236.541C149.788 236.72 149.99 236.88 150.207 237.018C150.39 237.197 150.589 237.357 150.804 237.495C150.991 237.672 151.193 237.832 151.409 237.972C151.591 238.151 151.791 238.311 152.005 238.449C152.99 239.315 154.274 239.762 155.584 239.693L182.984 240.716C185.804 240.716 187.338 239.438 187.338 236.617V233.806C187.338 222.534 196.556 214.602 211.194 214.602C224.51 214.602 233.473 221.767 233.473 232.783C233.474 234.039 233.354 235.291 233.116 236.524C219.364 254.552 183.572 262.501 183.572 297.493V305.911C183.572 309.319 185.438 311.201 188.871 311.201H221.861C225.269 311.201 227.16 309.336 227.16 305.911V300.296C227.16 271.941 282.941 271.626 282.941 219.901C282.941 183.453 255.199 159.154 212.199 159.154Z" fill="#0D2842"/>
<path d="M183.53 305.928V297.51C183.53 254.194 238.374 252.354 238.374 221.477C238.374 208.075 227.468 199.325 211.263 199.325C193.499 199.325 182.295 208.987 182.295 222.696V226.104C182.295 229.512 180.421 231.096 176.996 231.096L143.648 229.844C140.539 229.844 138.357 228.285 138.357 226.104V222.696C138.357 184.986 168.271 159.128 212.209 159.128C255.209 159.128 282.925 183.427 282.925 219.893C282.925 271.617 227.144 271.933 227.144 300.287V305.902C227.144 309.31 225.27 311.193 221.845 311.193H188.83C185.396 311.218 183.53 309.353 183.53 305.928ZM180.727 356.136C180.727 342.427 192.877 331.206 207.523 331.206C221.547 331.206 234.011 342.427 234.011 356.136C234.011 369.845 221.521 381.023 207.216 381.023C192.553 381.023 180.727 369.81 180.727 356.136Z" fill="#52CBFF" stroke="#52CBFF" stroke-miterlimit="10"/>
<path d="M205.852 408.96C231.548 408.96 252.38 404.302 252.38 398.557C252.38 392.812 231.548 388.154 205.852 388.154C180.155 388.154 159.324 392.812 159.324 398.557C159.324 404.302 180.155 408.96 205.852 408.96Z" fill="#0D2842"/>
<path d="M170.29 162.604L168.509 166.489C168.509 166.489 158.166 167.605 158.166 168.381C158.166 169.156 158.277 174.498 158.839 174.719C159.267 174.886 159.741 174.886 160.168 174.719L175.402 170.826L176.85 163.933L170.29 162.604Z" fill="#F0BCAA" stroke="#0D2842" stroke-linecap="round" stroke-linejoin="round"/>
<path d="M167.392 169.548C165.501 171.098 163.46 172.456 161.301 173.604C158.838 174.711 158.745 176.39 159.528 176.39C160.312 176.39 167.265 173.476 167.265 173.476C167.265 173.476 173.578 171.823 174.49 171.32C175.401 170.818 175.503 168.023 175.503 168.023" fill="#F0BCAA"/>
<path d="M167.392 169.548C165.501 171.098 163.46 172.456 161.301 173.604C158.838 174.711 158.745 176.39 159.528 176.39C160.312 176.39 167.265 173.476 167.265 173.476C167.265 173.476 173.578 171.823 174.49 171.32C175.401 170.818 175.503 168.023 175.503 168.023" stroke="#0D2842" stroke-linecap="round" stroke-linejoin="round"/>
<path d="M179.389 87.9519L173.033 136.669L168.611 163.047L178.426 165.365L185.745 134.164L189.213 114.526L179.389 87.9519Z" fill="#52CBFF" stroke="#0D2842" stroke-linecap="round" stroke-linejoin="round"/>
<path d="M230.679 52.6791L226.803 52.0657L218.862 49.0581L218.572 58.4897L230.884 59.6229L230.679 52.6791Z" fill="#F0BCAA" stroke="#0D2842" stroke-linecap="round" stroke-linejoin="round"/>
<path d="M185.361 225.439C182.472 228.808 179.773 232.335 177.276 236.004C173.996 241.014 175.155 246.398 179.202 247.753C183.249 249.108 188.437 245.436 189.792 242.547C191.147 239.659 190.755 238.125 192.868 235.237C194.981 232.349 196.719 229.461 195.952 225.609C195.185 221.758 187.44 222.747 185.361 225.439Z" fill="#52CBFF" stroke="#0D2842" stroke-linecap="round" stroke-linejoin="round"/>
<path d="M189.401 243.271C189.128 242.692 188.813 242.079 188.438 241.423C185.345 235.978 179.918 236.413 176.51 237.427C174.269 242.002 175.547 246.552 179.219 247.779C182.891 249.005 187.629 246.006 189.401 243.271Z" fill="#F0BCAA" stroke="#0D2842" stroke-linecap="round" stroke-linejoin="round"/>
<path d="M188.439 241.423C187.288 243.127 185.746 247.778 179.774 245.853C178.108 245.425 176.618 244.487 175.514 243.169C175.643 244.208 176.06 245.19 176.718 246.005C177.376 246.819 178.248 247.434 179.237 247.778C183.275 249.125 188.473 245.461 189.827 242.573C191.182 239.684 190.79 238.151 192.903 235.263C195.016 232.374 196.754 229.486 195.987 225.635C195.987 230.253 194.283 231.02 192.136 233.525C189.989 236.029 189.597 239.684 188.439 241.423Z" fill="#F0BCAA" stroke="#0D2842" stroke-linecap="round" stroke-linejoin="round"/>
<path d="M242.181 225.439C245.07 228.808 247.77 232.335 250.267 236.004C253.547 241.014 252.388 246.398 248.341 247.753C244.294 249.108 239.105 245.436 237.751 242.547C236.396 239.659 236.788 238.125 234.675 235.237C232.562 232.349 230.824 229.461 231.591 225.609C232.358 221.758 240.068 222.747 242.181 225.439Z" fill="#52CBFF" stroke="#0D2842" stroke-linecap="round" stroke-linejoin="round"/>
<path d="M238.152 243.271C238.416 242.692 238.732 242.079 239.107 241.423C242.199 235.978 247.627 236.413 251.035 237.427C253.275 242.002 251.997 246.552 248.325 247.779C244.653 249.005 239.916 246.006 238.152 243.271Z" fill="#F0BCAA" stroke="#0D2842" stroke-linecap="round" stroke-linejoin="round"/>
<path d="M239.106 241.423C240.257 243.127 241.799 247.778 247.771 245.853C249.437 245.425 250.926 244.487 252.031 243.169C251.902 244.208 251.485 245.19 250.827 246.005C250.169 246.819 249.297 247.434 248.308 247.778C244.269 249.125 239.072 245.461 237.718 242.573C236.363 239.684 236.755 238.151 234.642 235.263C232.529 232.374 230.791 229.486 231.558 225.635C231.558 230.253 233.262 231.02 235.409 233.525C237.556 236.029 237.948 239.684 239.106 241.423Z" fill="#F0BCAA" stroke="#0D2842" stroke-linecap="round" stroke-linejoin="round"/>
<path d="M251.213 159.009C251.213 155.541 245.249 151.69 245.249 151.69C236.26 142.548 220.038 143.758 214.048 144.576C208.084 143.724 191.845 142.548 182.857 151.69C182.857 151.69 176.893 155.541 176.893 159.009C176.893 162.476 184.407 225.056 184.407 225.056C184.407 225.056 184.211 228.327 189.604 228.711C194.998 229.094 197.272 226.018 197.272 226.018L199.394 173.067C199.394 173.067 208.059 166.898 209.618 166.711C210.18 166.634 210.913 166.515 211.731 166.413V166.515C213.257 166.197 214.832 166.197 216.357 166.515V166.413C217.209 166.515 217.899 166.634 218.47 166.711C220.012 166.898 228.694 173.067 228.694 173.067L230.816 226.018C230.816 226.018 233.125 229.094 238.484 228.711C243.843 228.327 243.681 225.056 243.681 225.056C243.681 225.056 251.213 162.476 251.213 159.009Z" fill="#0D2842" stroke="#0D2842" stroke-linecap="round" stroke-linejoin="round"/>
<path d="M228.685 173.067C228.685 173.067 227.527 160.355 233.116 155.541" stroke="#707070" stroke-linecap="round" stroke-linejoin="round"/>
<path d="M199.419 173.067C199.419 173.067 199.999 162.476 198.84 158.625C197.681 154.774 195.756 153.232 195.756 153.232" stroke="#707070" stroke-linecap="round" stroke-linejoin="round"/>
<path d="M206.543 147.839C206.543 147.839 212.703 154.962 213.862 160.934" stroke="#707070" stroke-linecap="round" stroke-linejoin="round"/>
<path d="M220.021 148.248C220.021 148.248 216.553 152.099 216.17 154.987" stroke="#707070" stroke-linecap="round" stroke-linejoin="round"/>
<path d="M211.357 73.323C211.357 73.323 205.776 72.5477 203.85 74.4732C201.925 76.3987 195.373 83.4959 195.373 83.4959L198.841 144.729C198.841 144.729 206.739 147.813 213.478 147.813C220.217 147.813 227.919 145.308 229.666 143.962C231.413 142.616 229.862 76.9525 229.862 76.9525C229.862 76.9525 215.557 72.7436 211.357 73.323Z" fill="white" stroke="#0D2842" stroke-linecap="round" stroke-linejoin="round"/>
<path d="M221.564 74.6692C224.495 74.2241 227.452 73.9651 230.416 73.8939C234.267 73.8939 238.084 74.0899 238.084 74.0899L247.712 64.8457L228.337 60.4153L229.879 51.563C229.879 51.563 244.125 50.6002 251.248 51.9464C258.37 53.2925 269.54 56.7602 270.119 56.7602C270.699 56.7602 271.465 58.8817 270.886 60.4153C270.307 61.9489 252.193 81.9879 246.783 87.1851C243.244 90.6534 239.902 94.3171 236.772 98.1589L234.301 141.1C234.301 141.1 240.657 144.567 241.816 145.717C242.975 146.868 244.321 151.494 244.321 151.494C244.321 151.494 232.572 146.68 229.487 146.297C226.403 145.913 224.486 145.718 223.907 144.593C223.327 143.468 218.514 92.0245 218.514 92.0245L218.71 75.6575C218.71 75.6575 218.676 74.6692 221.564 74.6692Z" fill="#52CBFF" stroke="#0D2842" stroke-linecap="round" stroke-linejoin="round"/>
<path d="M233.116 101.047L222.713 102.393L223.676 106.244L228.881 107.59L233.883 105.282L233.116 101.047Z" stroke="#0D2842" stroke-linecap="round" stroke-linejoin="round"/>
<path d="M239.08 77.9409L236.771 98.1589L242.744 81.0252" stroke="#0D2842" stroke-linecap="round" stroke-linejoin="round"/>
<path d="M247.746 64.8457C247.746 64.8457 252.56 65.8085 259.879 62.9202" stroke="#0D2842" stroke-linecap="round" stroke-linejoin="round"/>
<path d="M252.756 66.1918C255.918 66.2799 259.081 66.0228 262.188 65.425" stroke="#0D2842" stroke-linecap="round" stroke-linejoin="round"/>
<path d="M204.812 73.127L205.775 87.1849C206.653 88.3393 207.789 89.2714 209.093 89.9063C210.397 90.5411 211.831 90.861 213.281 90.84C218.095 90.6526 218.675 87.1849 218.675 87.1849V75.6318L204.812 73.127Z" fill="#F0BCAA" stroke="#0D2842" stroke-linecap="round" stroke-linejoin="round"/>
<path d="M218.862 80.4457L218.479 92.0159L222.526 85.6599C222.526 85.6599 226.956 91.2405 228.106 91.0531C229.256 90.8657 227.339 88.5482 226.956 86.4353C226.573 84.3223 223.292 76.7991 222.909 74.6862C222.526 72.5732 218.862 72.1813 218.649 73.1441C218.542 73.9756 218.542 74.8174 218.649 75.6489L218.862 80.4457Z" fill="#52CBFF" stroke="#0D2842" stroke-linecap="round" stroke-linejoin="round"/>
<path d="M205.58 90.8401C205.58 90.8401 206.347 144.755 204.422 145.368C202.496 145.982 194.794 146.143 189.938 148.452C185.081 150.761 182.815 151.724 182.815 151.724C182.815 151.724 185.124 146.143 187.825 143.639C189.62 142.025 191.626 140.664 193.789 139.592L188.787 113.793C188.787 113.793 179.543 89.3321 179.347 87.9859C179.151 86.6397 196.873 76.6287 200.528 74.8907C204.183 73.1526 205.154 74.7032 205.154 74.7032L205.58 90.8401Z" fill="#52CBFF" stroke="#0D2842" stroke-linecap="round" stroke-linejoin="round"/>
<path d="M200.765 72.1642C200.765 72.1642 196.148 86.8016 195.756 88.7271C195.364 90.6526 195.756 90.6526 197.11 89.2979C198.465 87.9432 201.924 84.6801 201.924 84.6801L205.579 90.84L205.383 79.4829V72.931C205.383 72.931 205.196 70.2387 200.765 72.1642Z" fill="#52CBFF" stroke="#0D2842" stroke-linecap="round" stroke-linejoin="round"/>
<path d="M191.717 103.748H203.075L202.887 108.366L197.877 110.095L191.521 108.366L191.717 103.748Z" stroke="#0D2842" stroke-linecap="round" stroke-linejoin="round"/>
<path d="M222.909 53.1049C222.909 53.1049 225.601 64.8455 226.181 66.7369C226.76 68.6284 223.105 76.1771 221.921 77.9067C221.47 78.6568 220.85 79.291 220.11 79.7585C219.371 80.226 218.532 80.5138 217.661 80.599C216.315 80.599 208.996 78.1026 207.258 76.9439C205.52 75.7852 203.799 74.439 203.799 74.439C202.98 74.8125 202.069 74.9389 201.179 74.8027C200.29 74.6664 199.459 74.2736 198.789 73.6722C196.48 71.5507 193.396 69.0459 194.163 67.3163C194.536 66.4676 195.161 65.7542 195.954 65.2726C196.746 64.791 197.668 64.5646 198.593 64.624C200.714 64.624 199.948 64.428 199.948 64.428C199.948 64.428 196.097 58.8474 196.097 54.417C196.097 49.9866 204.369 46.749 209.183 46.749C212.512 46.8877 215.782 47.6719 218.811 49.0579L222.909 53.1049Z" fill="#F0BCAA" stroke="#0D2842" stroke-linecap="round" stroke-linejoin="round"/>
<path d="M216.171 57.5269L219.639 64.0787L216.171 66.3877L214.629 64.4621" stroke="#0D2842" stroke-linecap="round" stroke-linejoin="round"/>
<path d="M222.526 63.4995C222.526 63.4995 222.713 65.0416 220.404 67.5465" stroke="#0D2842" stroke-linecap="round" stroke-linejoin="round"/>
<path d="M212.515 59.9381C212.515 60.8412 212.123 61.5739 211.663 61.5739C211.202 61.5739 210.811 60.8412 210.811 59.9381C210.811 59.035 211.202 58.3022 211.663 58.3022C212.123 58.3022 212.515 59.035 212.515 59.9381Z" fill="#0D2842"/>
<path d="M218.572 58.4897C219.052 58.4897 219.441 57.7573 219.441 56.8539C219.441 55.9504 219.052 55.218 218.572 55.218C218.092 55.218 217.703 55.9504 217.703 56.8539C217.703 57.7573 218.092 58.4897 218.572 58.4897Z" fill="#0D2842"/>
<path d="M202.112 43.0855C202.112 43.0855 189.997 47.5159 189.596 53.1051C189.196 58.6942 200.383 66.3877 200.962 67.3505C201.541 68.3133 203.271 66.1918 203.271 66.1918C202.886 65.6744 202.617 65.0799 202.483 64.4491C202.35 63.8182 202.354 63.1658 202.496 62.5367C203.075 60.6112 205.58 58.2767 205.58 57.3395C205.58 56.4023 202.692 58.1063 202.692 55.218C202.692 52.3297 209.814 50.6002 214.049 50.7876C218.283 50.975 221.947 58.1063 225.031 54.6386C228.115 51.171 223.676 50.2168 223.676 50.2168C223.676 50.2168 229.64 49.4414 229.64 46.3657C229.64 43.29 226.556 41.16 225.21 41.16C223.864 41.16 220.209 43.4775 220.209 40.9726C220.209 38.4677 223.864 37.309 220.396 33.3046C216.929 29.3002 212.507 33.3046 212.507 34.8467C212.507 36.3888 211.348 39.2686 210.581 39.2686C209.814 39.2686 207.497 35.8095 204.805 37.735C203.995 38.3786 203.335 39.1904 202.87 40.1143C202.405 41.0381 202.147 42.0519 202.112 43.0855Z" fill="#0D2842" stroke="#0D2842" stroke-linecap="round" stroke-linejoin="round"/>
<path d="M207.121 57.919L213.281 55.6016" stroke="#0D2842" stroke-linecap="round" stroke-linejoin="round"/>
<path d="M214.244 52.9091C214.126 52.3047 214.223 51.6781 214.517 51.137" stroke="#0D2842" stroke-linecap="round" stroke-linejoin="round"/>
<path d="M214.518 51.1199C214.952 50.2679 215.932 49.1688 218.096 48.2742" stroke="#F0BCAA" stroke-linecap="round" stroke-linejoin="round"/>
</svg>
