<svg preserveAspectRatio="none" viewBox="0 0 1173 373" fill="none" xmlns="http://www.w3.org/2000/svg">
<path d="M23.1313 41.1554C24.7345 18.1554 44.1923 0.512872 67.2389 1.1626L1099.18 30.2549C1120.59 30.8584 1138.29 47.1221 1140.7 68.4015L1167.67 306.714C1170.53 331.935 1151.03 354.129 1125.65 354.545L46.8598 372.232C21.6578 372.645 1.5062 351.392 3.25889 326.247L23.1313 41.1554Z" fill="#DCF5FF"/>
<mask id="mask0" mask-type="alpha" maskUnits="userSpaceOnUse" x="3" y="1" width="1165" height="372">
<path d="M23.1313 41.1554C24.7345 18.1554 44.1923 0.512872 67.2389 1.1626L1099.18 30.2549C1120.59 30.8584 1138.29 47.1221 1140.7 68.4015L1167.67 306.714C1170.53 331.935 1151.03 354.129 1125.65 354.545L46.8598 372.232C21.6578 372.645 1.5062 351.392 3.25889 326.247L23.1313 41.1554Z" fill="#DCF5FF"/>
</mask>
<g mask="url(#mask0)">
<g opacity="0.2" filter="url(#filter0_f)">
<circle cx="787" cy="426" r="177" fill="#50FBF1"/>
</g>
<g opacity="0.2" filter="url(#filter1_f)">
<circle cx="382" cy="-10" r="177" fill="#B050FB" fill-opacity="0.4"/>
</g>
</g>
<defs>
<filter id="filter0_f" x="410" y="49" width="754" height="754" filterUnits="userSpaceOnUse" color-interpolation-filters="sRGB">
<feFlood flood-opacity="0" result="BackgroundImageFix"/>
<feBlend mode="normal" in="SourceGraphic" in2="BackgroundImageFix" result="shape"/>
<feGaussianBlur stdDeviation="100" result="effect1_foregroundBlur"/>
</filter>
<filter id="filter1_f" x="5" y="-387" width="754" height="754" filterUnits="userSpaceOnUse" color-interpolation-filters="sRGB">
<feFlood flood-opacity="0" result="BackgroundImageFix"/>
<feBlend mode="normal" in="SourceGraphic" in2="BackgroundImageFix" result="shape"/>
<feGaussianBlur stdDeviation="100" result="effect1_foregroundBlur"/>
</filter>
</defs>
</svg>
