<svg width="405" height="405" viewBox="0 0 405 405" fill="none" xmlns="http://www.w3.org/2000/svg">
<path opacity="0.4" d="M192.536 334.479C266.436 334.479 326.344 331.001 326.344 326.711C326.344 322.421 266.436 318.944 192.536 318.944C118.637 318.944 58.7295 322.421 58.7295 326.711C58.7295 331.001 118.637 334.479 192.536 334.479Z" fill="#23AEEA"/>
<path d="M130.432 221.428C145.323 206.622 145.323 182.618 130.432 167.812C115.542 153.007 91.4005 153.007 76.5103 167.812C61.6202 182.618 61.6202 206.622 76.5103 221.428C91.4005 236.234 115.542 236.234 130.432 221.428Z" fill="#059BDB"/>
<path opacity="0.4" d="M130.432 221.428C145.323 206.622 145.323 182.618 130.432 167.812C115.542 153.007 91.4005 153.007 76.5103 167.812C61.6202 182.618 61.6202 206.622 76.5103 221.428C91.4005 236.234 115.542 236.234 130.432 221.428Z" fill="#1A475A"/>
<path opacity="0.2" d="M135.037 199.973C138.01 182.641 126.289 166.194 108.858 163.238C91.4269 160.281 74.8858 171.935 71.9125 189.267C68.9392 206.599 80.6596 223.047 98.0909 226.003C115.522 228.959 132.063 217.306 135.037 199.973Z" fill="#1A475A"/>
<path d="M136.567 197.669C137.755 180.79 124.957 166.149 107.982 164.968C91.0063 163.786 76.2817 176.511 75.0935 193.39C73.9052 210.269 86.7032 224.91 103.679 226.092C120.654 227.273 135.378 214.548 136.567 197.669Z" fill="#059BDB"/>
<path opacity="0.4" d="M136.567 197.669C137.755 180.79 124.957 166.149 107.982 164.968C91.0063 163.786 76.2817 176.511 75.0935 193.39C73.9052 210.269 86.7032 224.91 103.679 226.092C120.654 227.273 135.378 214.548 136.567 197.669Z" fill="#1A475A"/>
<path d="M101.852 192.065H104.67C106.092 192.052 107.215 191.684 108.041 190.961C108.878 190.237 109.297 189.19 109.297 187.819C109.297 186.498 108.948 185.476 108.25 184.753C107.564 184.016 106.511 183.648 105.089 183.648C103.845 183.648 102.823 184.01 102.023 184.734C101.223 185.445 100.823 186.378 100.823 187.533H96.1958C96.1958 186.111 96.5703 184.816 97.3193 183.648C98.0811 182.48 99.1348 181.573 100.48 180.925C101.839 180.265 103.356 179.935 105.032 179.935C107.799 179.935 109.97 180.633 111.544 182.03C113.131 183.413 113.925 185.343 113.925 187.819C113.925 189.063 113.525 190.237 112.725 191.342C111.938 192.433 110.916 193.259 109.659 193.817C111.183 194.338 112.338 195.156 113.125 196.274C113.925 197.391 114.325 198.724 114.325 200.273C114.325 202.761 113.468 204.741 111.754 206.214C110.053 207.687 107.812 208.423 105.032 208.423C102.366 208.423 100.182 207.712 98.481 206.29C96.7798 204.868 95.9292 202.977 95.9292 200.615H100.557C100.557 201.834 100.963 202.824 101.775 203.586C102.601 204.348 103.705 204.729 105.089 204.729C106.523 204.729 107.653 204.348 108.479 203.586C109.304 202.824 109.716 201.72 109.716 200.273C109.716 198.813 109.285 197.689 108.421 196.902C107.558 196.115 106.276 195.721 104.575 195.721H101.852V192.065Z" fill="white"/>
<path d="M99.6952 307.279H98.9912V315.182H99.6952V307.279Z" fill="#059BDB"/>
<path opacity="0.1" d="M99.6952 307.279H98.9912V315.182H99.6952V307.279Z" fill="#1A475A"/>
<path d="M307.009 244.671H306.305V255.5H307.009V244.671Z" fill="#059BDB"/>
<path d="M307.009 261.177H306.305V267.05H307.009V261.177Z" fill="#059BDB"/>
<path opacity="0.1" d="M307.009 244.671H306.305V255.5H307.009V244.671Z" fill="#1A475A"/>
<path opacity="0.1" d="M307.009 261.177H306.305V267.05H307.009V261.177Z" fill="#1A475A"/>
<path d="M293.957 197.708H112.05C106.199 197.708 101.455 202.425 101.455 208.243V314.118C101.455 319.936 106.199 324.653 112.05 324.653H293.957C299.808 324.653 304.552 319.936 304.552 314.118V208.243C304.552 202.425 299.808 197.708 293.957 197.708Z" fill="#1EA5DF"/>
<path opacity="0.2" d="M271.675 241.913C278.934 241.913 284.819 236.062 284.819 228.844C284.819 221.626 278.934 215.775 271.675 215.775C264.416 215.775 258.532 221.626 258.532 228.844C258.532 236.062 264.416 241.913 271.675 241.913Z" fill="white"/>
<path d="M254.709 241.913C261.968 241.913 267.853 236.062 267.853 228.844C267.853 221.626 261.968 215.775 254.709 215.775C247.45 215.775 241.565 221.626 241.565 228.844C241.565 236.062 247.45 241.913 254.709 241.913Z" fill="#059BDB"/>
<path d="M157.057 241.913H125.75C123.231 241.913 121.188 243.944 121.188 246.449V266.798C121.188 269.303 123.231 271.334 125.75 271.334H157.057C159.577 271.334 161.619 269.303 161.619 266.798V246.449C161.619 243.944 159.577 241.913 157.057 241.913Z" fill="#50B9E6"/>
<path d="M178.719 212.569H124.42C122.635 212.569 121.188 214.006 121.188 215.779C121.188 217.551 122.635 218.988 124.42 218.988H178.719C180.504 218.988 181.951 217.551 181.951 215.779C181.951 214.006 180.504 212.569 178.719 212.569Z" fill="#059BDB"/>
<path opacity="0.3" d="M178.719 212.569H124.42C122.635 212.569 121.188 214.006 121.188 215.779C121.188 217.551 122.635 218.988 124.42 218.988H178.719C180.504 218.988 181.951 217.551 181.951 215.779C181.951 214.006 180.504 212.569 178.719 212.569Z" fill="white"/>
<path d="M150.348 285.936H125.926C123.31 285.936 121.188 288.045 121.188 290.647V295.05C121.188 297.652 123.31 299.761 125.926 299.761H150.348C152.965 299.761 155.086 297.652 155.086 295.05V290.647C155.086 288.045 152.965 285.936 150.348 285.936Z" fill="#A5DBF2"/>
<path d="M193.588 285.936H169.166C166.549 285.936 164.428 288.045 164.428 290.647V295.05C164.428 297.652 166.549 299.761 169.166 299.761H193.588C196.205 299.761 198.326 297.652 198.326 295.05V290.647C198.326 288.045 196.205 285.936 193.588 285.936Z" fill="#A5DBF2"/>
<path d="M236.834 285.936H212.412C209.796 285.936 207.674 288.045 207.674 290.647V295.05C207.674 297.652 209.796 299.761 212.412 299.761H236.834C239.451 299.761 241.572 297.652 241.572 295.05V290.647C241.572 288.045 239.451 285.936 236.834 285.936Z" fill="#A5DBF2"/>
<path d="M280.074 285.936H255.652C253.035 285.936 250.914 288.045 250.914 290.647V295.05C250.914 297.652 253.035 299.761 255.652 299.761H280.074C282.69 299.761 284.812 297.652 284.812 295.05V290.647C284.812 288.045 282.69 285.936 280.074 285.936Z" fill="#A5DBF2"/>
<path d="M233.272 151.774C231.603 156.457 229.752 160.986 227.788 165.515C225.8 170.12 223.519 174.595 220.959 178.913C220.614 179.466 220.255 180.019 219.882 180.572L219.607 180.985L219.234 181.496C218.981 181.818 218.741 182.098 218.53 182.371C217.643 183.354 216.703 184.289 215.714 185.171C213.834 186.9 211.92 188.468 209.984 190.015C206.097 193.081 202.127 195.951 198.016 198.674L195.559 195.643L205.907 185.5C207.618 183.813 209.315 182.112 210.899 180.411C211.68 179.564 212.441 178.696 213.067 177.898C213.222 177.702 213.356 177.506 213.475 177.338L213.623 177.1L213.827 176.736C214.102 176.253 214.391 175.784 214.658 175.287C216.812 171.262 218.713 166.887 220.544 162.449C222.374 158.011 224.134 153.538 225.824 149.1L233.272 151.774Z" fill="#F0BCAA"/>
<path d="M235.25 148.4C236.848 153.048 227.457 166.719 227.457 166.719L218.488 161.756C220.016 157.49 221.822 153.328 223.895 149.296C227.034 143.388 233.497 143.297 235.25 148.4Z" fill="#059BDB"/>
<path opacity="0.7" d="M235.25 148.4C236.848 153.048 227.457 166.719 227.457 166.719L218.488 161.756C220.016 157.49 221.822 153.328 223.895 149.296C227.034 143.388 233.497 143.297 235.25 148.4Z" fill="white"/>
<path opacity="0.31" d="M235.384 148.981C233.371 148.022 231.055 148.827 228.612 152.663C226.169 156.499 224.092 162.904 223.867 164.731L227.464 166.712C227.464 166.712 236.13 154.084 235.384 148.981Z" fill="#059BDB"/>
<path d="M229.175 144.844C229.175 144.844 222.473 160.517 227.302 189.7H255.216C255.561 185.437 253.589 164.654 258.426 144.578C255.353 143.983 252.244 143.59 249.119 143.402C245.168 143.178 241.208 143.178 237.257 143.402C234.53 143.677 231.828 144.159 229.175 144.844V144.844Z" fill="#059BDB"/>
<path opacity="0.7" d="M229.175 144.844C229.175 144.844 222.473 160.517 227.302 189.7H255.216C255.561 185.437 253.589 164.654 258.426 144.578C255.353 143.983 252.244 143.59 249.119 143.402C245.168 143.178 241.208 143.178 237.257 143.402C234.53 143.677 231.828 144.159 229.175 144.844V144.844Z" fill="white"/>
<path d="M265.1 314.041L260.968 317.723L253.09 309.568L257.229 305.886L265.1 314.041Z" fill="#F0BCAA"/>
<path d="M250.928 321.699H245.712L245.036 309.687H250.252L250.928 321.699Z" fill="#F0BCAA"/>
<path d="M253.097 309.568L257.152 313.775L261.291 310.086L257.236 305.886L253.097 309.568Z" fill="#CE6F64"/>
<path d="M250.252 309.687H245.036L245.388 315.882H250.604L250.252 309.687Z" fill="#CE6F64"/>
<path d="M227.302 189.7C227.302 189.7 221.803 227.542 219.931 248.136C218.424 264.663 254.364 313.936 254.364 313.936L261.312 307.433C261.312 307.433 235.067 263.256 237.087 244.86C239.044 227.045 245.676 189.679 245.676 189.679L227.302 189.7Z" fill="#059BDB"/>
<path opacity="0.7" d="M227.302 189.7C227.302 189.7 221.803 227.542 219.931 248.136C218.424 264.663 254.364 313.936 254.364 313.936L261.312 307.433C261.312 307.433 235.067 263.256 237.087 244.86C239.044 227.045 245.676 189.679 245.676 189.679L227.302 189.7Z" fill="#1A475A"/>
<path opacity="0.2" d="M237.087 244.881C238.094 235.704 240.347 221.326 242.283 209.552C241.269 207.578 238.425 203.581 238.425 203.581C235.877 212.338 230.336 245.35 238.242 289.933C246.479 303.135 254.364 313.957 254.364 313.957L255.441 296.933C247.83 282.695 235.687 257.6 237.087 244.881Z" fill="#1A475A"/>
<path d="M237.229 189.7C237.229 189.7 236.736 229.355 237.581 244.216C238.503 260.484 243.149 314.391 243.149 314.391H252.71C252.71 314.391 252.421 261.8 252.984 245.7C253.611 228.2 255.23 189.7 255.23 189.7H237.229Z" fill="#059BDB"/>
<path opacity="0.7" d="M237.229 189.7C237.229 189.7 236.736 229.355 237.581 244.216C238.503 260.484 243.149 314.391 243.149 314.391H252.71C252.71 314.391 252.421 261.8 252.984 245.7C253.611 228.2 255.23 189.7 255.23 189.7H237.229Z" fill="#1A475A"/>
<path d="M245.437 321.104H251.302C251.399 321.1 251.495 321.135 251.567 321.2C251.64 321.266 251.683 321.357 251.689 321.454L251.977 326.067C251.978 326.187 251.955 326.307 251.91 326.419C251.864 326.53 251.797 326.632 251.712 326.718C251.627 326.803 251.526 326.872 251.415 326.919C251.303 326.966 251.183 326.99 251.062 326.991C249.021 326.956 248.042 326.837 245.465 326.837C243.881 326.837 237.137 327.005 234.948 327.005C232.758 327.005 232.836 324.849 233.744 324.653C237.904 323.778 243.065 322.553 244.543 321.419C244.798 321.219 245.112 321.108 245.437 321.104V321.104Z" fill="#263238"/>
<path d="M259.827 316.246L264.853 312.879C264.936 312.814 265.037 312.779 265.142 312.779C265.247 312.779 265.349 312.814 265.431 312.879L269.275 316.736C269.35 316.821 269.405 316.921 269.437 317.029C269.468 317.137 269.476 317.251 269.458 317.363C269.441 317.474 269.399 317.581 269.336 317.674C269.272 317.768 269.189 317.847 269.092 317.905C265.881 320.362 263.565 322.217 261.735 324.261C259.623 326.648 258.482 326.991 253.554 326.991C251.273 326.991 249.985 325.08 250.914 324.786C259.123 322.203 256.926 321.076 258.926 317.289C259.134 316.872 259.444 316.514 259.827 316.246Z" fill="#263238"/>
<path d="M196.742 194.992L191.3 195.181L192.44 199.423C192.44 199.423 198.129 199.927 198.635 198.219L196.742 194.992Z" fill="#F0BCAA"/>
<path d="M185.428 197.708L189.244 199.92L192.44 199.423L191.3 195.181L185.428 197.708Z" fill="#F0BCAA"/>
<path opacity="0.31" d="M252.188 149.534C251.611 152.838 252.379 160.734 255.23 169.876C255.453 162.043 256.369 154.246 257.968 146.573V146.531C256.138 146.349 252.745 146.433 252.188 149.534Z" fill="#059BDB"/>
<path d="M248.408 130.116C247.528 133.91 246.535 140.868 249.112 143.416C249.112 143.416 248 146.559 240.903 146.559C233.103 146.559 237.25 143.416 237.25 143.416C241.544 142.408 241.544 139.265 240.903 136.318L248.408 130.116Z" fill="#F0BCAA"/>
<path d="M240.706 146.545L238.594 148.778L239.629 150.934L241.312 151.011L242.748 148.953L240.706 146.545Z" fill="#059BDB"/>
<path d="M245.352 132.643L240.91 136.297C241.07 136.987 241.169 137.69 241.206 138.397C242.839 138.166 245.134 136.388 245.366 134.694C245.491 134.016 245.486 133.32 245.352 132.643V132.643Z" fill="#CE6F64"/>
<path d="M239.15 117.25C236.482 118.153 234.349 125.188 237.461 127.05C240.572 128.912 244.219 115.535 239.15 117.25Z" fill="#263238"/>
<path d="M250.077 126.14C248.486 131.04 247.81 134.001 244.599 136.01C243.564 136.672 242.366 137.039 241.135 137.073C239.905 137.107 238.688 136.805 237.617 136.201C236.547 135.597 235.663 134.714 235.06 133.646C234.458 132.578 234.161 131.367 234.201 130.144C234.265 125.433 236.855 118.181 242.311 117.271C243.487 117.045 244.702 117.131 245.834 117.519C246.967 117.907 247.977 118.584 248.763 119.482C249.549 120.38 250.084 121.468 250.315 122.636C250.546 123.805 250.463 125.013 250.077 126.14V126.14Z" fill="#F0BCAA"/>
<path d="M254.019 117.95C252.428 121.772 256.131 118.58 255.174 123.116C254.554 126.07 249.19 133.147 247.12 132.503C245.05 131.859 245.071 126.84 247.711 123.291C249.232 121.254 245.944 118.944 238.559 119.189C231.174 119.434 226.711 115.304 236.525 112.273C236.525 112.273 232.906 114.373 235.053 115.073C238.095 116.2 257.208 110.292 254.019 117.95Z" fill="#263238"/>
<path d="M252.611 119.7C252.533 119.7 254.265 119.273 255.188 116.2C255.188 116.249 254.885 120.778 252.611 119.7Z" fill="#263238"/>
<path d="M238.791 112.952C234.25 114.352 236.13 115.927 238.01 116.319L242.318 114.639C235.771 115.5 238.791 112.952 238.791 112.952Z" fill="#263238"/>
<path d="M250.95 132.125C250.006 133.037 248.746 133.556 247.43 133.574C245.691 133.574 245.318 131.936 246.254 130.564C247.085 129.332 248.986 127.848 250.52 128.513C252.055 129.178 252.104 130.998 250.95 132.125Z" fill="#F0BCAA"/>
<path d="M242.058 125.867C241.953 126.273 241.65 126.567 241.354 126.497C241.059 126.427 240.953 126.056 241.058 125.65C241.164 125.244 241.467 124.95 241.763 125.027C242.058 125.104 242.164 125.461 242.058 125.867Z" fill="#263238"/>
<path d="M237.412 124.852C237.306 125.258 237.003 125.552 236.708 125.482C236.412 125.412 236.306 125.048 236.412 124.642C236.518 124.236 236.813 123.942 237.116 124.012C237.419 124.082 237.496 124.446 237.412 124.852Z" fill="#263238"/>
<path d="M238.834 125.377C238.033 126.51 237.086 127.534 236.018 128.422C236.253 128.682 236.542 128.887 236.866 129.024C237.189 129.16 237.539 129.225 237.89 129.213L238.834 125.377Z" fill="#F0BCAA"/>
<path d="M239.608 130.69C239.317 130.69 239.026 130.657 238.742 130.592C238.711 130.584 238.684 130.564 238.667 130.537C238.65 130.509 238.644 130.476 238.651 130.445C238.659 130.414 238.679 130.387 238.706 130.37C238.734 130.353 238.767 130.348 238.798 130.354C239.317 130.469 239.855 130.465 240.372 130.344C240.888 130.223 241.371 129.987 241.783 129.654C241.807 129.631 241.839 129.619 241.871 129.619C241.904 129.619 241.936 129.631 241.959 129.654C241.982 129.677 241.995 129.709 241.995 129.741C241.995 129.774 241.982 129.805 241.959 129.829C241.306 130.389 240.471 130.694 239.608 130.69V130.69Z" fill="#263238"/>
<path d="M243.902 124.698C243.854 124.699 243.807 124.685 243.767 124.659C243.727 124.633 243.695 124.595 243.677 124.551C243.562 124.27 243.38 124.021 243.147 123.825C242.914 123.629 242.637 123.491 242.34 123.424C242.307 123.42 242.276 123.409 242.247 123.393C242.219 123.376 242.194 123.354 242.175 123.328C242.155 123.302 242.141 123.272 242.133 123.241C242.125 123.209 242.123 123.176 242.128 123.144C242.139 123.08 242.174 123.022 242.226 122.983C242.279 122.943 242.345 122.926 242.41 122.934C242.789 123.011 243.144 123.179 243.443 123.423C243.742 123.667 243.977 123.979 244.128 124.334C244.142 124.363 244.149 124.395 244.15 124.427C244.151 124.46 244.146 124.492 244.134 124.522C244.122 124.552 244.104 124.58 244.081 124.603C244.058 124.626 244.031 124.644 244.001 124.656C243.972 124.677 243.938 124.691 243.902 124.698Z" fill="#263238"/>
<path d="M235.842 122.843C235.785 122.842 235.731 122.823 235.687 122.787C235.636 122.745 235.605 122.684 235.598 122.619C235.591 122.554 235.611 122.488 235.652 122.437C235.9 122.13 236.216 121.884 236.574 121.718C236.933 121.551 237.326 121.469 237.722 121.478C237.754 121.481 237.786 121.49 237.815 121.504C237.843 121.519 237.869 121.54 237.89 121.564C237.911 121.589 237.927 121.618 237.937 121.648C237.946 121.679 237.95 121.712 237.947 121.744C237.945 121.776 237.937 121.808 237.922 121.838C237.908 121.867 237.887 121.893 237.862 121.914C237.837 121.935 237.808 121.95 237.776 121.96C237.745 121.969 237.712 121.972 237.679 121.968C237.363 121.965 237.05 122.034 236.764 122.169C236.478 122.305 236.228 122.505 236.032 122.752C236.009 122.78 235.981 122.804 235.948 122.819C235.915 122.835 235.879 122.843 235.842 122.843V122.843Z" fill="#263238"/>
<path d="M259.778 148.155C260.327 149.002 260.785 149.751 261.249 150.563C261.714 151.375 262.157 152.159 262.594 152.971C263.453 154.588 264.262 156.24 265.002 157.927C266.552 161.381 267.716 164.993 268.472 168.7L268.543 169.057L268.578 169.232L268.627 169.526C268.687 169.918 268.718 170.313 268.719 170.709C268.712 171.372 268.641 172.033 268.507 172.683C268.269 173.755 267.925 174.801 267.48 175.805C266.689 177.565 265.747 179.254 264.664 180.852C262.616 183.891 260.287 186.734 257.708 189.343L254.646 186.9C256.349 183.946 258.046 180.88 259.468 177.877C260.167 176.441 260.765 174.958 261.256 173.439C261.457 172.805 261.594 172.154 261.665 171.493C261.689 171.277 261.689 171.058 261.665 170.842C261.665 170.779 261.665 170.723 261.622 170.716C261.58 170.709 261.622 170.716 261.622 170.681L261.58 170.541L261.496 170.254C261.051 168.71 260.522 167.191 259.912 165.704C259.292 164.185 258.602 162.673 257.877 161.168C257.152 159.663 256.371 158.179 255.568 156.695C255.174 155.953 254.758 155.218 254.343 154.49L253.104 152.39L259.778 148.155Z" fill="#F0BCAA"/>
<path d="M243.592 322C243.241 322.035 242.889 321.938 242.607 321.727C242.527 321.639 242.471 321.533 242.444 321.418C242.417 321.303 242.42 321.183 242.452 321.069C242.468 320.992 242.502 320.921 242.553 320.861C242.603 320.801 242.668 320.755 242.741 320.726C243.381 320.474 244.853 321.482 245.022 321.594C245.043 321.607 245.059 321.626 245.068 321.649C245.076 321.671 245.078 321.696 245.071 321.72C245.067 321.743 245.057 321.765 245.04 321.783C245.024 321.8 245.003 321.813 244.979 321.818C244.525 321.927 244.06 321.988 243.592 322V322ZM242.98 320.929C242.931 320.921 242.881 320.921 242.832 320.929C242.796 320.942 242.765 320.964 242.741 320.994C242.718 321.024 242.703 321.059 242.698 321.097C242.673 321.17 242.667 321.249 242.682 321.325C242.697 321.401 242.732 321.472 242.783 321.531C243.022 321.769 243.705 321.797 244.641 321.615C244.144 321.272 243.577 321.04 242.98 320.936V320.929Z" fill="white"/>
<path d="M244.952 321.825H244.888C244.367 321.517 243.593 320.425 243.713 319.865C243.733 319.762 243.788 319.67 243.869 319.602C243.95 319.535 244.051 319.497 244.156 319.494C244.249 319.482 244.343 319.491 244.432 319.52C244.521 319.549 244.602 319.598 244.67 319.662C245.198 320.173 245.078 321.664 245.078 321.727C245.076 321.748 245.068 321.768 245.056 321.785C245.043 321.802 245.027 321.816 245.008 321.825H244.952ZM244.248 319.725H244.191C244.015 319.725 243.973 319.83 243.959 319.9C243.882 320.271 244.395 321.09 244.846 321.468C244.911 320.9 244.793 320.326 244.508 319.83C244.473 319.796 244.431 319.769 244.385 319.751C244.339 319.733 244.29 319.724 244.241 319.725H244.248Z" fill="white"/>
<path d="M256.448 319.06C256.318 319.064 256.188 319.04 256.068 318.99C255.975 318.953 255.892 318.894 255.828 318.819C255.763 318.743 255.717 318.653 255.695 318.556C255.677 318.497 255.674 318.434 255.688 318.374C255.701 318.314 255.73 318.259 255.772 318.213C256.244 317.646 258.715 317.814 258.996 317.835C259.023 317.836 259.048 317.845 259.068 317.862C259.088 317.878 259.103 317.901 259.109 317.926C259.114 317.951 259.112 317.978 259.102 318.001C259.092 318.025 259.075 318.045 259.053 318.059C258.266 318.574 257.378 318.916 256.448 319.06V319.06ZM257.94 318.038C257.074 318.038 256.166 318.122 255.962 318.367C255.95 318.386 255.944 318.408 255.944 318.43C255.944 318.452 255.95 318.474 255.962 318.493C255.974 318.554 256.001 318.61 256.04 318.658C256.079 318.706 256.13 318.743 256.187 318.766C256.582 318.927 257.469 318.661 258.588 318.066L257.94 318.038Z" fill="white"/>
<path d="M258.989 318.08C258.285 318.08 256.701 317.541 256.581 316.981C256.581 316.841 256.581 316.645 256.919 316.484C258.13 315.917 259.066 317.821 259.108 317.884C259.117 317.904 259.121 317.925 259.121 317.947C259.121 317.969 259.117 317.99 259.108 318.01C259.097 318.031 259.08 318.049 259.058 318.062C259.037 318.074 259.013 318.08 258.989 318.08V318.08ZM257.363 316.631C257.243 316.63 257.125 316.656 257.018 316.708C256.87 316.778 256.799 316.855 256.813 316.925C256.884 317.254 258.024 317.716 258.771 317.814C258.545 317.436 258.003 316.631 257.363 316.631V316.631Z" fill="white"/>
<path d="M256.039 185.766L250.872 184.863L253.54 190.848C253.54 190.848 258.278 190.848 258.067 188.384L256.039 185.766Z" fill="#F0BCAA"/>
<path d="M246.965 187.873L249.408 192.703L253.512 190.848L250.844 184.863L246.965 187.873Z" fill="#F0BCAA"/>
<path d="M261.735 307.062L253.941 314.356L251.428 311.675L260.348 303.597L261.735 307.062Z" fill="#059BDB"/>
<path opacity="0.6" d="M261.735 307.062L253.941 314.356L251.428 311.675L260.348 303.597L261.735 307.062Z" fill="white"/>
<path d="M253.09 314.391H242.762L242.192 310.779L253.59 311.346L253.09 314.391Z" fill="#059BDB"/>
<path opacity="0.6" d="M253.09 314.391H242.762L242.192 310.779L253.59 311.346L253.09 314.391Z" fill="white"/>
<path d="M258.426 144.578C263.354 145.278 268.401 162.302 268.401 162.302L257.841 168.126C257.841 168.126 253.554 160.034 251.505 154.028C249.358 147.735 253.153 143.808 258.426 144.578Z" fill="#059BDB"/>
<path opacity="0.7" d="M258.426 144.578C263.354 145.278 268.401 162.302 268.401 162.302L257.841 168.126C257.841 168.126 253.554 160.034 251.505 154.028C249.358 147.735 253.153 143.808 258.426 144.578Z" fill="white"/>
<path opacity="0.2" d="M240.706 146.545L238.594 148.778L239.629 150.934L241.312 151.011L242.748 148.953L240.706 146.545Z" fill="#1A475A"/>
<path d="M239.812 150.549C239.812 150.549 235.806 167.048 235.652 170.478C235.433 175.196 237.419 183.253 237.419 183.253C237.419 183.253 240.235 176.554 240.812 170.331C241.389 164.108 240.96 154.042 241.22 150.549H239.812Z" fill="#059BDB"/>
<path opacity="0.2" d="M239.812 150.549C239.812 150.549 235.806 167.048 235.652 170.478C235.433 175.196 237.419 183.253 237.419 183.253C237.419 183.253 240.235 176.554 240.812 170.331C241.389 164.108 240.96 154.042 241.22 150.549H239.812Z" fill="#1A475A"/>
<path d="M240.706 146.545C241.508 147.836 241.973 149.307 242.058 150.822C242.058 150.822 250.844 147.742 250.428 143.227C250.428 143.227 249.182 142.492 248.394 141.897C248.394 141.897 248.098 144.739 240.706 146.545Z" fill="#059BDB"/>
<path opacity="0.6" d="M240.706 146.545C241.508 147.836 241.973 149.307 242.058 150.822C242.058 150.822 250.844 147.742 250.428 143.227C250.428 143.227 249.182 142.492 248.394 141.897C248.394 141.897 248.098 144.739 240.706 146.545Z" fill="white"/>
<path d="M240.706 146.545C239.899 147.767 239.317 149.123 238.989 150.549C238.989 150.549 235.011 147.875 236.208 143.416C236.937 143.124 237.688 142.89 238.454 142.716C238.454 142.716 237.933 145.6 240.706 146.545Z" fill="#059BDB"/>
<path opacity="0.6" d="M240.706 146.545C239.899 147.767 239.317 149.123 238.989 150.549C238.989 150.549 235.011 147.875 236.208 143.416C236.937 143.124 237.688 142.89 238.454 142.716C238.454 142.716 237.933 145.6 240.706 146.545Z" fill="white"/>
<path d="M184.836 164.471C194.322 153.309 192.912 136.614 181.687 127.182C170.461 117.749 153.671 119.151 144.185 130.313C134.698 141.475 136.108 158.169 147.334 167.602C158.559 177.034 175.349 175.632 184.836 164.471Z" fill="#059BDB"/>
<path opacity="0.4" d="M184.836 164.471C194.322 153.309 192.912 136.614 181.687 127.182C170.461 117.749 153.671 119.151 144.185 130.313C134.698 141.475 136.108 158.169 147.334 167.602C158.559 177.034 175.349 175.632 184.836 164.471Z" fill="#1A475A"/>
<path opacity="0.2" d="M181.734 161.528C189.597 152.071 188.261 138.066 178.749 130.247C169.238 122.429 155.153 123.758 147.29 133.215C139.427 142.673 140.763 156.678 150.275 164.496C159.786 172.314 173.871 170.985 181.734 161.528Z" fill="#1A475A"/>
<path d="M182.408 161.76C189.602 152.401 187.804 139.015 178.391 131.862C168.978 124.709 155.516 126.497 148.322 135.857C141.128 145.216 142.927 158.602 152.34 165.755C161.752 172.908 175.215 171.119 182.408 161.76Z" fill="#059BDB"/>
<path opacity="0.4" d="M182.408 161.76C189.602 152.401 187.804 139.015 178.391 131.862C168.978 124.709 155.516 126.497 148.322 135.857C141.128 145.216 142.927 158.602 152.34 165.755C161.752 172.908 175.215 171.119 182.408 161.76Z" fill="#1A475A"/>
<path d="M158.914 152.697H156.55V141.281L153.064 142.472V140.47L158.611 138.429H158.914V152.697ZM163.486 150.197C163.929 150.197 164.27 150.324 164.511 150.578C164.752 150.825 164.873 151.138 164.873 151.515C164.873 151.886 164.752 152.196 164.511 152.443C164.27 152.684 163.929 152.804 163.486 152.804C163.063 152.804 162.727 152.684 162.48 152.443C162.233 152.202 162.109 151.893 162.109 151.515C162.109 151.138 162.229 150.825 162.47 150.578C162.711 150.324 163.05 150.197 163.486 150.197ZM166.076 145.646L166.847 138.478H174.484V140.529H168.82L168.429 143.927C169.087 143.55 169.829 143.361 170.656 143.361C172.01 143.361 173.061 143.794 173.81 144.66C174.565 145.526 174.943 146.691 174.943 148.156C174.943 149.601 174.526 150.754 173.693 151.613C172.86 152.466 171.717 152.892 170.265 152.892C168.963 152.892 167.882 152.524 167.023 151.789C166.17 151.047 165.708 150.07 165.636 148.859H167.931C168.022 149.549 168.27 150.08 168.673 150.451C169.077 150.816 169.604 150.998 170.255 150.998C170.985 150.998 171.551 150.737 171.955 150.217C172.365 149.696 172.57 148.986 172.57 148.088C172.57 147.222 172.345 146.538 171.896 146.037C171.447 145.529 170.828 145.275 170.041 145.275C169.611 145.275 169.246 145.334 168.947 145.451C168.647 145.562 168.322 145.783 167.97 146.115L166.076 145.646Z" fill="white"/>
</svg>
