<svg width="248" height="266" viewBox="0 0 248 266" fill="none" xmlns="http://www.w3.org/2000/svg">
<path opacity="0.4" d="M118.282 265.874C183.509 265.874 236.386 262.787 236.386 258.979C236.386 255.171 183.509 252.084 118.282 252.084C53.0556 252.084 0.178711 255.171 0.178711 258.979C0.178711 262.787 53.0556 265.874 118.282 265.874Z" fill="#23AEEA"/>
<path d="M187.807 258.979H109.071C107.917 258.986 106.774 258.757 105.712 258.306C104.649 257.856 103.69 257.194 102.892 256.361C102.094 255.527 101.474 254.54 101.07 253.459C100.666 252.378 100.487 251.226 100.543 250.074L107.701 82.2225C107.827 79.8366 108.857 77.5885 110.581 75.9345C112.306 74.2805 114.595 73.3446 116.984 73.3171H195.72C196.874 73.3098 198.017 73.5382 199.08 73.988C200.143 74.4379 201.103 75.0999 201.901 75.9335C202.699 76.7671 203.319 77.7548 203.723 78.8361C204.126 79.9175 204.305 81.0698 204.247 82.2225L197.09 250.074C196.962 252.459 195.931 254.706 194.208 256.36C192.484 258.014 190.196 258.95 187.807 258.979V258.979Z" fill="#059BDB"/>
<path d="M200.892 140.157H200.349C200.091 140.158 199.834 140.106 199.596 140.005C199.358 139.904 199.143 139.755 198.964 139.569C198.785 139.382 198.646 139.16 198.555 138.918C198.465 138.675 198.424 138.417 198.437 138.159L199.783 106.606C199.812 106.071 200.044 105.567 200.43 105.196C200.817 104.825 201.33 104.615 201.866 104.608H202.408C202.667 104.607 202.923 104.658 203.161 104.76C203.399 104.861 203.613 105.009 203.792 105.196C203.97 105.383 204.109 105.605 204.199 105.847C204.289 106.09 204.328 106.348 204.315 106.606L202.975 138.159C202.945 138.694 202.714 139.198 202.327 139.569C201.941 139.94 201.427 140.15 200.892 140.157Z" fill="#059BDB"/>
<path d="M105.77 116.778H104.399C104.195 116.78 103.992 116.74 103.803 116.661C103.615 116.581 103.444 116.464 103.303 116.316C103.161 116.168 103.052 115.993 102.98 115.801C102.909 115.609 102.878 115.405 102.889 115.201L103.273 106.192C103.294 105.768 103.476 105.369 103.782 105.075C104.087 104.78 104.493 104.614 104.917 104.608H106.288C106.493 104.607 106.696 104.648 106.885 104.728C107.074 104.808 107.245 104.926 107.387 105.074C107.529 105.222 107.639 105.397 107.711 105.59C107.782 105.782 107.814 105.987 107.804 106.192L107.421 115.201C107.397 115.624 107.214 116.023 106.907 116.316C106.601 116.609 106.194 116.774 105.77 116.778V116.778Z" fill="#263238"/>
<path d="M105.088 132.872H103.712C103.507 132.873 103.305 132.832 103.117 132.752C102.928 132.672 102.758 132.555 102.617 132.408C102.476 132.26 102.366 132.085 102.294 131.894C102.223 131.702 102.191 131.498 102.201 131.294L102.585 122.279C102.608 121.856 102.791 121.458 103.096 121.166C103.401 120.873 103.806 120.707 104.229 120.701H105.606C105.81 120.7 106.013 120.741 106.201 120.82C106.389 120.9 106.559 121.018 106.701 121.165C106.842 121.313 106.952 121.488 107.023 121.679C107.095 121.871 107.127 122.075 107.117 122.279L106.733 131.294C106.71 131.716 106.527 132.114 106.222 132.407C105.916 132.7 105.511 132.866 105.088 132.872V132.872Z" fill="#263238"/>
<path d="M185.687 258.979H106.952C105.797 258.987 104.653 258.76 103.59 258.31C102.527 257.86 101.567 257.199 100.768 256.365C99.9697 255.531 99.3499 254.543 98.9468 253.461C98.5437 252.379 98.3657 251.227 98.4238 250.074L105.575 82.2225C105.702 79.8366 106.732 77.5885 108.456 75.9345C110.18 74.2805 112.469 73.3446 114.858 73.3171H193.6C194.754 73.3098 195.898 73.5382 196.961 73.988C198.023 74.4379 198.983 75.0999 199.782 75.9335C200.58 76.7671 201.2 77.7548 201.603 78.8361C202.006 79.9175 202.185 81.0698 202.128 82.2225L194.971 250.074C194.844 252.46 193.814 254.708 192.09 256.362C190.366 258.016 188.077 258.952 185.687 258.979Z" fill="#263238"/>
<path opacity="0.6" d="M185.687 258.979H106.952C105.797 258.987 104.653 258.76 103.59 258.31C102.527 257.86 101.567 257.199 100.768 256.365C99.9697 255.531 99.3499 254.543 98.9468 253.461C98.5437 252.379 98.3657 251.227 98.4238 250.074L105.575 82.2225C105.702 79.8366 106.732 77.5885 108.456 75.9345C110.18 74.2805 112.469 73.3446 114.858 73.3171H193.6C194.754 73.3098 195.898 73.5382 196.961 73.988C198.023 74.4379 198.983 75.0999 199.782 75.9335C200.58 76.7671 201.2 77.7548 201.603 78.8361C202.006 79.9175 202.185 81.0698 202.128 82.2225L194.971 250.074C194.844 252.46 193.814 254.708 192.09 256.362C190.366 258.016 188.077 258.952 185.687 258.979Z" fill="#059BDB"/>
<path opacity="0.5" d="M152.794 247.655C152.712 249.263 152.02 250.778 150.858 251.892C149.697 253.006 148.154 253.634 146.545 253.649C145.768 253.656 144.997 253.504 144.282 253.202C143.566 252.899 142.919 252.454 142.382 251.892C141.845 251.331 141.429 250.665 141.159 249.936C140.889 249.208 140.771 248.431 140.813 247.655C140.894 246.049 141.585 244.535 142.746 243.422C143.906 242.309 145.448 241.681 147.056 241.668C147.833 241.661 148.603 241.813 149.319 242.115C150.035 242.416 150.681 242.861 151.219 243.422C151.756 243.983 152.173 244.648 152.444 245.376C152.715 246.104 152.834 246.88 152.794 247.655Z" fill="#059BDB"/>
<path opacity="0.5" d="M136.757 81.2113C136.788 80.5593 137.067 79.9439 137.537 79.491C138.007 79.038 138.632 78.7818 139.285 78.7748C139.6 78.7717 139.913 78.8336 140.204 78.9565C140.494 79.0793 140.757 79.2606 140.974 79.4891C141.192 79.7176 141.36 79.9884 141.469 80.2846C141.577 80.5809 141.624 80.8963 141.606 81.2113C141.576 81.8637 141.297 82.48 140.827 82.9332C140.357 83.3865 139.731 83.6422 139.078 83.6478C138.762 83.6508 138.449 83.589 138.159 83.4661C137.868 83.3432 137.606 83.1619 137.388 82.9334C137.171 82.705 137.002 82.4342 136.894 82.1379C136.785 81.8417 136.738 81.5263 136.757 81.2113V81.2113Z" fill="#059BDB"/>
<path opacity="0.5" d="M147.666 78.781H167.828C168.143 78.7798 168.455 78.8428 168.745 78.9663C169.035 79.0898 169.296 79.2712 169.514 79.4993C169.731 79.7273 169.899 79.9974 170.009 80.2929C170.118 80.5883 170.166 80.903 170.149 81.2175C170.118 81.8695 169.839 82.4849 169.369 82.9378C168.899 83.3908 168.274 83.647 167.621 83.654H147.459C147.144 83.6562 146.831 83.5937 146.541 83.4705C146.251 83.3474 145.989 83.166 145.772 82.9377C145.554 82.7095 145.386 82.439 145.277 82.1432C145.168 81.8473 145.121 81.5323 145.138 81.2175V81.2175C145.171 80.5661 145.45 79.9515 145.92 79.4988C146.39 79.0462 147.014 78.7895 147.666 78.781V78.781Z" fill="#059BDB"/>
<path d="M175.338 197.32C190.391 182.584 191.148 158.944 177.028 144.521C162.908 130.097 139.258 130.35 124.204 145.087C109.151 159.823 108.394 183.462 122.514 197.886C136.634 212.31 160.284 212.057 175.338 197.32Z" fill="white"/>
<path d="M156.188 165.18H156.767L158.095 164.51H159.13L160.02 164.924H160.994L161.366 164.711L161.39 164.108L160.854 163.858L160.099 163.072L160.129 162.317H159.526L159.014 162.81L158.338 162.097H157.553L156.267 164.223L156.547 164.735L156.121 165.015L156.188 165.18Z" fill="#059BDB"/>
<path d="M163.99 165.752L163.96 166.489L164.612 167.178H165.958L166.013 165.771H165.714L165.769 164.449L165.215 163.87L165.251 162.956H165.83L165.866 162.152L165.026 162.037L163.607 163.401L163.576 164.156L164.356 164.979L164.338 165.417L163.99 165.752Z" fill="#059BDB"/>
<path d="M117.703 185.738L115.267 183.192L115.346 181.315L117.368 179.378L117.411 178.41L116.387 177.338H114.365L114.408 176.302L112.495 175.383C112.921 181.741 115.041 187.87 118.635 193.133L119.415 188.588L117.661 186.761L117.703 185.738Z" fill="#059BDB"/>
<path opacity="0.3" d="M163.571 193.772L159.77 206.728C161.41 206.212 163.012 205.581 164.563 204.84L163.571 193.772Z" fill="#263238"/>
<path d="M191.335 237.185H103.158C102.89 237.187 102.625 237.134 102.379 237.03C102.132 236.925 101.91 236.772 101.725 236.578C101.54 236.385 101.397 236.156 101.304 235.905C101.211 235.654 101.17 235.387 101.184 235.12L107.318 91.3229C107.345 90.769 107.582 90.2464 107.982 89.8623C108.382 89.4782 108.914 89.262 109.469 89.2579H197.64C197.908 89.2551 198.174 89.3072 198.421 89.411C198.668 89.5149 198.891 89.6683 199.077 89.8618C199.262 90.0553 199.406 90.2848 199.499 90.5361C199.593 90.7874 199.634 91.0552 199.619 91.3229L193.492 235.12C193.464 235.674 193.225 236.197 192.824 236.581C192.423 236.965 191.89 237.181 191.335 237.185Z" fill="#E4EEF5"/>
<path d="M185.845 231H109.706C109.475 231.002 109.247 230.953 109.034 230.858C108.821 230.762 108.629 230.621 108.469 230.443C108.31 230.265 108.186 230.054 108.106 229.823C108.025 229.593 107.99 229.347 108.002 229.102L113.299 96.8986C113.322 96.3894 113.527 95.9088 113.872 95.5558C114.217 95.2027 114.677 95.0038 115.155 95.0001H191.288C191.52 94.9975 191.749 95.0454 191.963 95.1409C192.176 95.2364 192.369 95.3774 192.529 95.5553C192.689 95.7332 192.813 95.9442 192.894 96.1752C192.975 96.4063 193.01 96.6524 192.998 96.8986L187.706 229.102C187.682 229.611 187.476 230.092 187.13 230.445C186.784 230.798 186.324 230.996 185.845 231Z" fill="white"/>
<path d="M182 164.5C182 181 166.897 195.5 149.5 195.5C132.103 195.5 120 181.897 120 164.5C120 147.103 136 133 151.5 133C168.897 133 182 145.83 182 164.5Z" fill="#DCF5FF"/>
<path d="M182 164.726L180.32 165.482H179.728L179.101 166.09V166.632L179.941 167.516L179.895 168.614L178.585 169.457V169.125L177.649 168.134H177.077L177.022 169.386L178.034 170.781L177.998 171.573L178.251 171.838H177.892L177.184 170.919L177.209 170.244L176.733 169.626L176.794 168.19L176.491 166.754H176.319L175.995 167.071H175.696L175.737 166.141L175.069 165.436V164.925H174.948L174.563 165.298H173.784L171.674 167.342L171.624 168.497L170.996 169.606L170.582 169.416L169.954 167.858L169.605 165.85L168.922 165.584L167.789 163.806H165.199L164.966 163.535H163.954L163.185 162.999L162.973 162.304H162.467L162.229 162.483L162.7 163.796L163.514 164.818L164.389 163.97H164.617L164.743 164.353L165.533 165.058L164.926 165.778L164.819 166.213L163.246 167.373L160.514 168.282L160.367 166.719L159.441 165.523L158.936 164.103L157.924 162.687V163.019L158.829 166.504L160.479 169.1L162.3 168.814L162.249 169.943L161.288 171.419L158.647 173.857L158.597 175.057L159.052 177.137L157.367 178.971L157.312 180.239L155.743 182.185V182.625L153.649 183.825H152.662L152.359 183.284L151.17 178.011L151.22 176.795L151.483 176.422L151.529 175.323L150.426 172.687L150.456 171.987L150.709 171.823V171.159L150.522 170.842H149.551L149.101 170.234H147.871L146.247 170.525H144.284L142.655 167.792L142.772 165.048L146.338 160.623L148.524 160.015H150.881L151.043 161.19L153.406 162.212L153.952 161.701H155.217L155.597 162.1H157.823L158.556 160.817L158.586 160.209L158.42 160.03H158.172L157.989 160.204H157.6L157.408 160.005H157.069L156.866 160.204H156.603L156.391 159.974L155.915 159.463L155.956 158.441H155.217L154.883 158.615L155.005 159.412L154.681 159.555V159.938L154.448 159.816L153.876 158.594V158.017L153.128 157.506L152.222 156.551H151.848V156.995L152.354 157.429L152.394 157.767L153.522 158.635L153.411 158.875L153.36 158.635H153.072L153.118 159.008L152.571 159.575L152.404 159.984L151.929 159.473H152.536L152.804 159.218V158.738L151.286 157.542L151.16 157.128H150.628L150.077 157.552H149.652L149.343 157.409L148.838 157.726V158.043L148.013 158.845V159.259L147.35 159.959H146.718L146.455 160.127H146.136L145.994 159.897L145.286 159.754L145.327 158.809L145.762 158.39V157.573H147.73L147.841 156.351L147.016 155.564L150.214 153.439L151.048 153.086L151.099 151.967L151.544 151.533L151.483 152.964L153.148 152.734H154.605L154.65 151.64L154.995 151.308L155.207 151.533H155.495L155.531 150.654H156.649L157.064 150.256H155.217L154.843 149.862L154.888 148.891L155.951 147.87V147.359H155.217L153.295 149.218L153.193 151.85L152.308 152.182L151.802 150.859L150.659 151.313L150.229 150.859L150.279 149.617L153.578 145.688L157.185 144.615L160.276 146.332L159.699 146.888H157.797L159.315 148.503L161.076 147.481L167.278 145.54L174.229 142.581C171.436 139.534 168.044 137.108 164.271 135.458C160.497 133.809 156.425 132.972 152.313 133.001C147.497 133.004 142.744 134.116 138.416 136.25L139.858 136.097L144.411 137.451L141.881 145.115L138.517 146.495L136.235 147.624L135.411 150.271L133.584 149.581L132.315 146.715L132.679 145.836L131.667 141.477L130.928 141.319C129.638 142.478 128.439 143.738 127.341 145.085L129.021 146.618L128.09 149.244L125.981 147.839L126.441 146.878L126.168 146.592C124.739 148.569 123.532 150.701 122.571 152.948L123.583 153.556L124.837 152.345L124.964 149.244L129.011 151.078L131.126 153.751L130.169 154.675H128.247L128.783 156.479L123.218 161.773L123.866 163.408L123.471 163.791L122.287 162.539H120.147C120.092 163.122 120.046 163.714 120.021 164.307C119.996 164.9 119.991 165.6 120.021 166.238H120.102L120.744 165.62H121.685L121.179 166.131L121.124 167.454H122.267L122.631 168.885H123.547L124.443 169.835L125.414 168.875L131.166 171.052L131.788 172.457L133.898 173.479L135.234 173.56L136.681 174.827L135.274 177.086L134.485 179.676L132.375 180.504L127.771 186.007C131.947 190.602 137.451 193.749 143.5 195L143.966 194.775L148.337 194.464L151.301 194.213L152.252 193.702L154.701 193.789L156.527 194.3L156.092 194.464L156.816 194.826C162.207 193.544 167.19 190.909 171.305 187.165C175.42 183.421 178.533 178.689 180.356 173.407L179.749 172.273L180.973 171.465C181.556 169.263 181.9 167.003 182 164.726V164.726ZM165.533 141.886L168.194 140.936H169.383L165.877 142.504L165.128 143.777L165.846 144.666L164.91 144.543L164.404 143.695L165.533 141.886ZM156.704 138.693L155.9 139.056L154.226 138.493L156.704 138.693ZM153.492 138.693L155.278 139.49L156.153 140.067L155.141 140.231L154.924 139.653L154.357 139.51L153.583 140.854L152.435 139.383L152.293 138.872L153.492 138.693ZM125.029 166.044L124.524 165.927L122.449 165.073L122.91 164.874L125.065 165.62L125.029 166.044ZM126.436 166.591H125.333L125.642 166.044L126.871 166.172L126.436 166.591ZM146.541 151.349L147.138 151.058L147.644 152.105L148.574 153.909L146.718 154.655L147.107 152.856L146.45 152.202L146.541 151.349ZM145.397 152.724H146.409L146.176 153.878H145.256L145.397 152.724ZM143.197 148.314L142.751 148.452L141.937 148.283L141.765 147.808L141.967 147.583L143.652 147.19L144.497 147.583L144.33 147.9L143.434 148.018L143.197 148.314ZM161.693 179.109L160.828 180.668H160.241L159.993 180.407L160.043 179.263L160.342 178.971L160.16 178.777L160.21 177.755L161.364 177.157L161.824 176.442L161.946 177.229L161.693 179.109ZM178.626 174.158H178.029L176.642 172.114L175.777 170.771L176.491 170.832L178.661 173.295L178.626 174.158Z" fill="url(#paint0_linear)"/>
<path d="M62.3893 97.597C61.2624 100.71 60.1233 103.883 59.0391 107.02C58.4847 108.592 57.9609 110.163 57.4553 111.729C56.9497 113.294 56.4807 114.854 56.097 116.364C55.902 117.113 55.7376 117.857 55.634 118.508C55.5792 118.837 55.5609 119.118 55.5366 119.337C55.5122 119.556 55.5366 119.946 55.5366 120.263C55.6734 121.776 55.9259 123.277 56.2919 124.752C57.0289 127.883 57.9792 131.117 58.9172 134.303L55.6645 135.832C53.7746 132.868 52.1617 129.736 50.8463 126.476C50.1322 124.739 49.5875 122.938 49.2199 121.097C49.1218 120.568 49.0547 120.033 49.0189 119.495C48.9904 118.927 49.0026 118.357 49.0554 117.79C49.1468 116.754 49.293 115.828 49.4575 114.927C50.1727 111.479 51.0776 108.072 52.1681 104.724C53.2158 101.435 54.3427 98.2244 55.6157 94.9778L62.3893 97.597Z" fill="#F0BCAA"/>
<path d="M57.918 132.744L60.6286 136.24L55.6337 138.603C55.6337 138.603 54.2084 136.301 55.0673 134.145L57.918 132.744Z" fill="#F0BCAA"/>
<path d="M62.2855 139.255L58.6429 141.527L55.6338 138.597L60.6286 136.234L62.2855 139.255Z" fill="#F0BCAA"/>
<path d="M79.7069 74.6633C79.6643 75.0471 79.8287 75.376 80.0846 75.4065C80.3404 75.4369 80.5719 75.1445 80.6145 74.7608C80.6572 74.377 80.4866 74.0481 80.2369 74.0176C79.9871 73.9872 79.7496 74.2674 79.7069 74.6633Z" fill="#263238"/>
<path d="M79.7985 75.376C80.1259 76.5972 80.6198 77.7676 81.2665 78.8541C80.9843 79.0132 80.6707 79.1088 80.3477 79.134C80.0246 79.1593 79.7 79.1136 79.3965 79.0003L79.7985 75.376Z" fill="#BD8B86"/>
<path d="M78.5375 72.3791C78.4831 72.3625 78.4372 72.3254 78.4096 72.2756C78.3945 72.2497 78.3847 72.221 78.3808 72.1912C78.3769 72.1615 78.379 72.1313 78.3869 72.1023C78.3949 72.0734 78.4085 72.0463 78.4271 72.0227C78.4456 71.9991 78.4687 71.9795 78.4949 71.9649C78.8042 71.7812 79.1529 71.6738 79.5119 71.6516C79.871 71.6293 80.2302 71.6929 80.5599 71.837C80.6126 71.8667 80.6521 71.9153 80.6702 71.973C80.6883 72.0308 80.6837 72.0932 80.6573 72.1477C80.6288 72.2 80.5813 72.2393 80.5246 72.2574C80.4679 72.2756 80.4063 72.2712 80.3528 72.2451V72.2451C80.0902 72.1323 79.8045 72.0839 79.5194 72.1041C79.2344 72.1242 78.9583 72.2122 78.7142 72.3609C78.6875 72.3757 78.6581 72.385 78.6278 72.3881C78.5974 72.3913 78.5667 72.3882 78.5375 72.3791V72.3791Z" fill="#263238"/>
<path d="M67.4024 77.5017C68.0907 80.9981 68.7729 87.4122 66.3242 89.7452C66.3242 89.7452 67.2866 93.2964 73.786 93.2964C80.9372 93.2964 77.2032 89.7452 77.2032 89.7452C73.2987 88.8132 73.4023 85.9199 74.0784 83.1971L67.4024 77.5017Z" fill="#F0BCAA"/>
<path d="M64.2592 91.5484C63.6136 91.122 64.4542 88.8865 65.0998 88.5028C66.8115 87.4672 74.4012 87.12 77.5626 89.1119C77.8532 89.4765 78.0587 89.9014 78.1641 90.3557C78.2695 90.8099 78.2721 91.2819 78.1717 91.7372L64.2592 91.5484Z" fill="#263238"/>
<path d="M46.5946 253.729C46.79 253.788 46.9955 253.808 47.1986 253.786C47.4017 253.764 47.5983 253.701 47.7763 253.601C47.8447 253.533 47.8897 253.445 47.905 253.35C47.9203 253.254 47.9051 253.157 47.8616 253.071C47.838 252.998 47.7983 252.932 47.7456 252.878C47.6928 252.823 47.6284 252.78 47.5571 252.754C46.8931 252.48 45.4434 253.156 45.3825 253.186C45.3622 253.195 45.345 253.209 45.333 253.228C45.3211 253.246 45.315 253.268 45.3155 253.29C45.3164 253.312 45.3231 253.333 45.3349 253.351C45.3467 253.369 45.3631 253.384 45.3825 253.394C45.7738 253.547 46.18 253.659 46.5946 253.729V253.729ZM47.3317 252.925L47.4657 252.961C47.5075 252.978 47.5453 253.004 47.5767 253.036C47.6082 253.069 47.6326 253.108 47.6484 253.15C47.7215 253.351 47.6484 253.418 47.6484 253.436C47.4048 253.668 46.4302 253.515 45.754 253.278C46.2483 253.048 46.7865 252.927 47.3317 252.925V252.925Z" fill="#059BDB"/>
<path d="M45.4127 253.4H45.4676C45.9975 253.217 47.1122 252.34 47.1 251.798C47.0981 251.712 47.0659 251.629 47.0091 251.564C46.9523 251.5 46.8745 251.457 46.7894 251.444C46.7062 251.419 46.6185 251.412 46.5324 251.424C46.4462 251.435 46.3635 251.465 46.2899 251.511C45.6807 251.865 45.3335 253.211 45.3214 253.266C45.3152 253.285 45.3148 253.306 45.3202 253.325C45.3256 253.345 45.3366 253.362 45.3518 253.375C45.3694 253.389 45.3905 253.398 45.4127 253.4V253.4ZM46.6797 251.645H46.7285C46.8686 251.682 46.8746 251.755 46.8746 251.779C46.8746 252.102 46.1498 252.785 45.6016 253.071C45.7244 252.54 46.0046 252.058 46.4056 251.688C46.4883 251.64 46.5863 251.624 46.6797 251.645Z" fill="#059BDB"/>
<path d="M79.0486 254.338C79.6577 254.338 80.2668 254.252 80.4557 253.978C80.506 253.906 80.5329 253.82 80.5329 253.732C80.5329 253.643 80.506 253.557 80.4557 253.485C80.4171 253.418 80.3654 253.36 80.3036 253.314C80.2418 253.268 80.1713 253.235 80.0963 253.217C79.3044 253.004 77.6598 253.954 77.5623 253.997C77.5415 254.007 77.5248 254.024 77.5149 254.045C77.5049 254.066 77.5023 254.09 77.5075 254.112C77.5098 254.135 77.5194 254.156 77.5348 254.172C77.5502 254.189 77.5705 254.2 77.5928 254.204C78.0732 254.291 78.5603 254.335 79.0486 254.338V254.338ZM79.81 253.412C79.8828 253.402 79.9565 253.402 80.0293 253.412C80.0748 253.422 80.1178 253.441 80.1556 253.468C80.1934 253.495 80.225 253.53 80.2486 253.57C80.3277 253.71 80.2973 253.783 80.2486 253.82C80.0232 254.131 78.8171 254.137 77.9278 254.015C78.5093 253.692 79.149 253.487 79.81 253.412V253.412Z" fill="#059BDB"/>
<path d="M77.6053 254.21H77.654C78.2266 253.948 79.3718 252.918 79.2865 252.382C79.2865 252.254 79.1769 252.096 78.8601 252.066C78.7507 252.056 78.6406 252.068 78.536 252.102C78.4314 252.135 78.3345 252.189 78.251 252.261C77.6419 252.76 77.5139 254.045 77.5078 254.088C77.5074 254.108 77.5115 254.127 77.52 254.145C77.5284 254.163 77.541 254.179 77.5566 254.191C77.5714 254.201 77.588 254.207 77.6053 254.21V254.21ZM78.7748 252.267H78.8418C79.0429 252.267 79.055 252.364 79.0611 252.395C79.1159 252.717 78.3363 253.528 77.7454 253.887C77.7914 253.343 78.0041 252.826 78.3545 252.407C78.4721 252.309 78.6221 252.259 78.7748 252.267Z" fill="#059BDB"/>
<path d="M72.3428 254.094H77.1305L77.6056 243.014H72.824L72.3428 254.094Z" fill="#F0BCAA"/>
<path d="M40.0703 252.395L44.8459 253.174L48.2387 242.636L43.4571 241.857L40.0703 252.395Z" fill="#F0BCAA"/>
<path d="M45.1874 252.681L39.8819 251.81C39.7879 251.793 39.6911 251.81 39.6079 251.857C39.5247 251.903 39.4601 251.977 39.425 252.066L37.8048 256.104C37.7661 256.203 37.75 256.309 37.7577 256.414C37.7655 256.52 37.7968 256.622 37.8494 256.714C37.9021 256.806 37.9746 256.885 38.0618 256.945C38.1489 257.005 38.2484 257.044 38.353 257.061C40.1804 257.329 41.1306 257.371 43.4575 257.755C44.895 257.993 48.5498 258.845 50.5538 258.973C52.5578 259.101 52.9477 257.146 52.1375 256.902C48.5132 255.861 46.8929 254.338 45.9001 253.101C45.7228 252.878 45.4688 252.728 45.1874 252.681V252.681Z" fill="#263238"/>
<path d="M77.0994 253.54H71.8731C71.7776 253.539 71.6848 253.572 71.6104 253.632C71.536 253.691 71.4846 253.775 71.465 253.869L70.5208 258.133C70.4978 258.235 70.4983 258.341 70.5223 258.444C70.5463 258.546 70.5932 258.641 70.6595 258.723C70.7258 258.805 70.8097 258.87 70.9049 258.914C71.0001 258.959 71.1041 258.981 71.2091 258.979C73.0913 258.949 75.8141 258.839 78.1837 258.839C80.9552 258.839 82.1247 258.991 85.3714 258.991C87.3328 258.991 87.881 257.006 87.0587 256.823C83.3125 256.007 81.4851 255.921 78.2507 253.924C77.9091 253.693 77.511 253.56 77.0994 253.54Z" fill="#263238"/>
<path d="M57.7601 90.8294C53.3927 92.2669 50.7734 104.005 50.7734 104.005L60.3672 110.005C62.4588 107.315 63.8168 104.129 64.3083 100.758C65.2889 94.6425 62.2433 89.3553 57.7601 90.8294Z" fill="#059BDB"/>
<g opacity="0.4">
<path opacity="0.4" d="M57.7601 90.8294C53.3927 92.2669 50.7734 104.005 50.7734 104.005L60.3672 110.005C62.4588 107.315 63.8168 104.129 64.3083 100.758C65.2889 94.6425 62.2433 89.3553 57.7601 90.8294Z" fill="white"/>
</g>
<path opacity="0.2" d="M60.3791 103.134C59.2883 104.816 58.5697 106.713 58.2715 108.695L60.3669 110.005C62.172 107.692 63.4223 104.995 64.0216 102.123L60.3791 103.134Z" fill="black"/>
<path d="M84.5614 91.0733C84.5614 91.0733 89.6537 96.8234 84.8416 132.421H59.2582C59.0816 128.492 61.5485 109.335 57.7598 90.8296C60.588 90.2828 63.4488 89.9206 66.3241 89.7454C69.9474 89.5351 73.5798 89.5351 77.2031 89.7454C79.6866 89.9969 82.1467 90.4408 84.5614 91.0733V91.0733Z" fill="#059BDB"/>
<g opacity="0.4">
<path opacity="0.4" d="M84.5614 91.0733C84.5614 91.0733 89.6537 96.8234 84.8416 132.421H59.2582C59.0816 128.492 61.5485 109.335 57.7598 90.8296C60.588 90.2828 63.4488 89.9206 66.3241 89.7454C69.9474 89.5351 73.5798 89.5351 77.2031 89.7454C79.6866 89.9969 82.1467 90.4408 84.5614 91.0733V91.0733Z" fill="white"/>
</g>
<path opacity="0.2" d="M86.7968 101.952L86.6993 101.867L80.8822 103.262C80.5533 107.197 84.5979 111.893 86.6811 114.043C86.9389 110.018 86.9776 105.982 86.7968 101.952V101.952Z" fill="black"/>
<path opacity="0.2" d="M77.6056 243.02L77.362 248.728H72.5742L72.8179 243.02H77.6056Z" fill="black"/>
<path opacity="0.2" d="M43.4572 241.857L48.2388 242.642L46.4846 248.07L41.709 247.29L43.4572 241.857Z" fill="black"/>
<path d="M67.0002 72.44C66.7748 77.1791 66.391 79.9445 68.5108 82.6247C71.6843 86.6571 77.7391 85.1404 79.3776 80.5597C80.8578 76.442 80.9857 69.3761 76.5817 66.9944C75.613 66.4638 74.5247 66.1898 73.4202 66.1984C72.3158 66.2071 71.2318 66.4981 70.2716 67.0439C69.3113 67.5897 68.5066 68.372 67.934 69.3165C67.3614 70.261 67.0399 71.3362 67.0002 72.44Z" fill="#F0BCAA"/>
<path d="M75.8082 76.6003C73.8833 79.5485 74.9615 80.5292 73.8833 81.8814C72.8052 83.2337 65.587 85.1646 65.52 81.7474C65.5537 80.527 65.3058 79.3152 64.7956 78.2061C64.2854 77.0969 63.5266 76.1202 62.5779 75.3516C62.1632 74.9428 61.8502 74.4424 61.664 73.8906C61.4779 73.3388 61.4238 72.7511 61.5062 72.1746C61.5885 71.5981 61.805 71.049 62.1382 70.5714C62.4714 70.0938 62.912 69.7011 63.4246 69.4248C65.9951 68.0055 62.3343 67.3111 63.9058 65.0269C66.2449 61.6401 69.4428 60.5254 72.1169 62.8645C74.7909 65.2035 79.1279 66.5192 82.2406 63.5406C85.3532 60.562 84.8111 72.178 77.063 71.6481C80.3949 74.98 74.8275 73.3537 75.8082 76.6003Z" fill="#263238"/>
<path d="M65.0514 68.249C63.7905 69.1322 61.9448 66.1962 62.3834 64.5942C60.7875 66.4216 61.1652 69.4185 64.4301 69.4673C67.695 69.516 65.0514 68.249 65.0514 68.249Z" fill="#263238"/>
<path d="M74.2667 74.3648C74.1392 75.5375 74.4026 76.7195 75.0159 77.7271C75.8383 79.049 77.0382 78.5373 77.4525 77.1972C77.8423 75.9789 77.8849 73.8409 76.7459 72.9881C75.6068 72.1354 74.4251 72.9577 74.2667 74.3648Z" fill="#F0BCAA"/>
<path d="M75.7655 132.421C75.7655 132.421 70.3381 168.969 67.3595 182.668C64.0702 197.665 48.976 247.26 48.976 247.26L40.4482 245.432C40.4482 245.432 50.2978 204.998 53.0389 184.032C55.1404 167.927 59.2886 132.421 59.2886 132.421H75.7655Z" fill="#263238"/>
<path d="M51.0292 244.427C51.0657 244.427 49.4333 247.521 49.4333 247.521L39.7969 245.432L40.6131 242.533L51.0292 244.427Z" fill="#059BDB"/>
<path opacity="0.3" d="M72.3361 145.444C66.0622 146.662 66.7261 170.083 67.4631 182.12C69.2905 173.592 71.9219 157.237 73.731 145.615C73.2983 145.403 72.8071 145.343 72.3361 145.444V145.444Z" fill="black"/>
<path d="M84.842 132.421C84.842 132.421 86.8338 168.183 86.3099 182.771C85.7678 197.92 79.1405 247.625 79.1405 247.625H71.0391C71.0391 247.625 72.0685 198.828 71.7092 183.929C71.3132 167.683 66.4463 132.421 66.4463 132.421H84.842Z" fill="#263238"/>
<path d="M80.6997 244.397C80.7362 244.397 80.2428 247.759 80.2428 247.759H70.3872L70.1191 244.756L80.6997 244.397Z" fill="#059BDB"/>
<path d="M87.162 95.9219C88.5326 99.1015 90.0249 102.379 91.5721 105.528C93.0566 108.648 94.7329 111.673 96.5913 114.586C97.0482 115.28 97.5172 115.944 97.9984 116.565L98.3639 117.016C98.4857 117.156 98.5223 117.217 98.6441 117.345C98.8512 117.576 99.1375 117.832 99.4177 118.094C100.587 119.154 102.013 120.196 103.426 121.237C106.276 123.302 109.267 125.349 112.197 127.426L110.546 130.618C107.072 129.33 103.686 127.814 100.411 126.08C98.6937 125.189 97.0374 124.185 95.4523 123.077C95.0045 122.756 94.5735 122.412 94.1609 122.047C93.9538 121.865 93.6858 121.597 93.497 121.408L92.967 120.829C92.2848 120.062 91.6574 119.288 91.0605 118.502C88.8338 115.424 86.8463 112.18 85.1154 108.799C84.2626 107.142 83.4281 105.485 82.6789 103.792C81.9296 102.098 81.1256 100.46 80.4434 98.6325L87.162 95.9219Z" fill="#F0BCAA"/>
<path d="M77.5812 95.8547C73.8899 101.337 82.5334 111.284 82.5334 111.284L92.2003 104.584C91.5271 101.184 90.4239 97.8848 88.9171 94.7644C85.7679 88.1431 80.3954 91.6944 77.5812 95.8547Z" fill="#059BDB"/>
<g opacity="0.4">
<path opacity="0.4" d="M77.5812 95.8547C73.8899 101.337 82.5334 111.284 82.5334 111.284L92.2003 104.584C91.5271 101.184 90.4239 97.8848 88.9171 94.7644C85.7679 88.1431 80.3954 91.6944 77.5812 95.8547Z" fill="white"/>
</g>
<path d="M109.292 126.786L115.237 127.627L113.683 132.622C113.683 132.622 109.462 132.622 108.201 129.369L109.292 126.786Z" fill="#F0BCAA"/>
<path d="M117.082 129.223L115.797 133.316L113.665 132.622L115.218 127.627L117.082 129.223Z" fill="#F0BCAA"/>
<path opacity="0.8" d="M247.233 67.4473L239.617 73.083C239.418 73.2291 239.169 73.2909 238.925 73.2548C238.681 73.2187 238.461 73.0878 238.313 72.8903L227.582 58.388C227.436 58.1886 227.375 57.9398 227.412 57.6957C227.449 57.4516 227.581 57.232 227.779 57.0844L235.395 51.4488C235.594 51.3026 235.842 51.2409 236.087 51.277C236.331 51.313 236.551 51.444 236.699 51.6414L247.43 66.1437C247.576 66.3432 247.637 66.592 247.6 66.8361C247.563 67.0801 247.431 67.2998 247.233 67.4473V67.4473Z" fill="#059BDB"/>
<path d="M247.604 66.8026L238.573 64.4247C237.736 64.2037 237 63.7042 236.485 63.0087C235.971 62.3132 235.708 61.4631 235.741 60.5985L236.114 51.2742C236.35 51.3175 236.56 51.4498 236.701 51.6438L247.432 66.1461C247.57 66.3356 247.631 66.5699 247.604 66.8026V66.8026Z" fill="#00A6DA"/>
<path opacity="0.6" d="M247.604 66.8026L238.573 64.4247C237.736 64.2037 237 63.7042 236.485 63.0087C235.971 62.3132 235.708 61.4631 235.741 60.5985L236.114 51.2742C236.35 51.3175 236.56 51.4498 236.701 51.6438L247.432 66.1461C247.57 66.3356 247.631 66.5699 247.604 66.8026V66.8026Z" fill="#4882C5"/>
<path opacity="0.8" d="M200.462 55.0784L194.622 65.1932C194.469 65.4562 194.218 65.6482 193.924 65.7275C193.631 65.8068 193.317 65.7669 193.053 65.6166L173.793 54.4966C173.53 54.3427 173.339 54.0913 173.261 53.7973C173.182 53.5032 173.223 53.1901 173.375 52.926L179.214 42.8112C179.367 42.5482 179.618 42.3562 179.912 42.2769C180.206 42.1976 180.519 42.2375 180.784 42.3878L200.044 53.5077C200.306 53.6617 200.497 53.913 200.576 54.2071C200.654 54.5012 200.613 54.8143 200.462 55.0784V55.0784Z" fill="#059BDB"/>
<path d="M200.564 54.1672L189.185 55.9185C188.131 56.0798 187.053 55.8771 186.129 55.3438C185.206 54.8105 184.491 53.9784 184.104 52.9847L179.941 42.2606C180.229 42.1935 180.532 42.2398 180.787 42.3898L200.047 53.5098C200.296 53.6563 200.48 53.891 200.564 54.1672V54.1672Z" fill="#00A6DA"/>
<path opacity="0.6" d="M200.564 54.1672L189.185 55.9185C188.131 56.0798 187.053 55.8771 186.129 55.3438C185.206 54.8105 184.491 53.9784 184.104 52.9847L179.941 42.2606C180.229 42.1935 180.532 42.2398 180.787 42.3898L200.047 53.5098C200.296 53.6563 200.48 53.891 200.564 54.1672V54.1672Z" fill="#4882C5"/>
<path opacity="0.8" d="M166.949 18.734L162.211 26.9391C162.087 27.1525 161.884 27.3082 161.645 27.3725C161.407 27.4368 161.153 27.4045 160.938 27.2826L145.315 18.2621C145.102 18.1372 144.947 17.9333 144.883 17.6948C144.82 17.4562 144.853 17.2022 144.976 16.988L149.713 8.78288C149.837 8.56952 150.04 8.41377 150.279 8.34946C150.517 8.28515 150.771 8.31749 150.986 8.43944L166.61 17.4599C166.822 17.5848 166.978 17.7887 167.041 18.0272C167.104 18.2658 167.071 18.5198 166.949 18.734V18.734Z" fill="#059BDB"/>
<path d="M167.032 17.9947L157.801 19.4153C156.946 19.5461 156.072 19.3817 155.322 18.9491C154.573 18.5165 153.994 17.8415 153.679 17.0354L150.303 8.33599C150.536 8.28161 150.782 8.31915 150.988 8.44085L166.612 17.4613C166.814 17.5802 166.964 17.7705 167.032 17.9947V17.9947Z" fill="#00A6DA"/>
<path opacity="0.6" d="M167.032 17.9947L157.801 19.4153C156.946 19.5461 156.072 19.3817 155.322 18.9491C154.573 18.5165 153.994 17.8415 153.679 17.0354L150.303 8.33599C150.536 8.28161 150.782 8.31915 150.988 8.44085L166.612 17.4613C166.814 17.5802 166.964 17.7705 167.032 17.9947V17.9947Z" fill="#4882C5"/>
<g opacity="0.6">
<path opacity="0.8" d="M122.259 0.797464L124.732 8.88554C124.796 9.0965 124.773 9.32407 124.67 9.51883C124.567 9.71358 124.391 9.85977 124.181 9.92565L108.78 14.6342C108.569 14.6972 108.341 14.6743 108.147 14.5705C107.953 14.4667 107.807 14.2904 107.742 14.0799L105.269 5.99181C105.205 5.78085 105.228 5.55327 105.331 5.35852C105.434 5.16377 105.61 5.01757 105.82 4.95169L121.221 0.24313C121.432 0.180155 121.66 0.203054 121.854 0.306847C122.048 0.41064 122.194 0.586947 122.259 0.797464V0.797464Z" fill="#059BDB"/>
<path d="M121.827 0.292893L117.135 7.18408C116.7 7.82212 116.06 8.29284 115.321 8.51866C114.583 8.74448 113.789 8.71193 113.071 8.42637L105.336 5.33459C105.443 5.14899 105.617 5.01155 105.822 4.95074L121.223 0.242181C121.424 0.182778 121.639 0.20088 121.827 0.292893V0.292893Z" fill="#00A6DA"/>
<path opacity="0.6" d="M121.827 0.292893L117.135 7.18408C116.7 7.82212 116.06 8.29284 115.321 8.51866C114.583 8.74448 113.789 8.71193 113.071 8.42637L105.336 5.33459C105.443 5.14899 105.617 5.01155 105.822 4.95074L121.223 0.242181C121.424 0.182778 121.639 0.20088 121.827 0.292893V0.292893Z" fill="#4882C5"/>
</g>
<path opacity="0.8" d="M97.4824 27.2463L104.182 33.9458C104.356 34.1209 104.454 34.3576 104.454 34.6045C104.454 34.8514 104.357 35.0884 104.184 35.2642L91.4273 48.021C91.2515 48.1944 91.0144 48.2914 90.7676 48.291C90.5207 48.2905 90.284 48.1927 90.1088 48.0187L83.4094 41.3193C83.2354 41.1441 83.1376 40.9074 83.1372 40.6605C83.1367 40.4137 83.2337 40.1766 83.4071 40.0009L96.1639 27.244C96.3397 27.0707 96.5768 26.9737 96.8236 26.9741C97.0705 26.9745 97.3072 27.0723 97.4824 27.2463V27.2463Z" fill="#059BDB"/>
<path d="M96.7898 26.9744L95.773 36.2581C95.678 37.1182 95.2929 37.9201 94.6811 38.532C94.0693 39.1438 93.2673 39.5289 92.4073 39.6239L83.1304 40.6338C83.1383 40.3941 83.2381 40.1667 83.4092 39.9986L96.166 27.2417C96.3331 27.0776 96.5557 26.9821 96.7898 26.9744V26.9744Z" fill="#00A6DA"/>
<path opacity="0.6" d="M96.7898 26.9744L95.773 36.2581C95.678 37.1182 95.2929 37.9201 94.6811 38.532C94.0693 39.1438 93.2673 39.5289 92.4073 39.6239L83.1304 40.6338C83.1383 40.3941 83.2381 40.1667 83.4092 39.9986L96.166 27.2417C96.3331 27.0776 96.5557 26.9821 96.7898 26.9744V26.9744Z" fill="#4882C5"/>
<path opacity="0.8" d="M139.648 42.5107L144.272 53.6733C144.391 53.9646 144.391 54.2912 144.271 54.5823C144.151 54.8733 143.921 55.1053 143.631 55.2278L122.376 64.032C122.084 64.1505 121.758 64.1491 121.467 64.0281C121.176 63.9072 120.945 63.6764 120.824 63.3859L116.2 52.2233C116.08 51.9321 116.081 51.6054 116.201 51.3144C116.321 51.0233 116.551 50.7913 116.841 50.6689L138.096 41.8646C138.388 41.7461 138.714 41.7475 139.005 41.8685C139.296 41.9895 139.527 42.2203 139.648 42.5107V42.5107Z" fill="#059BDB"/>
<path d="M138.965 41.852L133.237 52.2937C132.705 53.2606 131.86 54.0175 130.841 54.4397C129.821 54.862 128.688 54.9244 127.629 54.6166L116.206 51.2792C116.332 51.0007 116.561 50.7814 116.844 50.6668L138.1 41.8625C138.377 41.7506 138.686 41.7469 138.965 41.852V41.852Z" fill="#00A6DA"/>
<path opacity="0.6" d="M138.965 41.852L133.237 52.2937C132.705 53.2606 131.86 54.0175 130.841 54.4397C129.821 54.862 128.688 54.9244 127.629 54.6166L116.206 51.2792C116.332 51.0007 116.561 50.7814 116.844 50.6668L138.1 41.8625C138.377 41.7506 138.686 41.7469 138.965 41.852V41.852Z" fill="#4882C5"/>
<g opacity="0.6">
<path opacity="0.8" d="M213.852 25.249L205.904 28.1416C205.697 28.2163 205.468 28.2061 205.268 28.1134C205.069 28.0206 204.913 27.8527 204.837 27.6461L199.328 12.5126C199.254 12.305 199.265 12.0767 199.359 11.8771C199.452 11.6775 199.621 11.5229 199.828 11.4468L207.775 8.55417C207.983 8.47951 208.211 8.48968 208.411 8.58246C208.611 8.67525 208.766 8.84315 208.843 9.04971L214.351 24.1832C214.425 24.3908 214.414 24.6192 214.32 24.8187C214.227 25.0183 214.058 25.1729 213.852 25.249V25.249Z" fill="#059BDB"/>
<path d="M214.333 24.7909L207.206 20.4659C206.546 20.0646 206.042 19.4504 205.778 18.7246C205.514 17.9989 205.505 17.2047 205.752 16.4731L208.435 8.58673C208.626 8.68356 208.772 8.85012 208.844 9.0519L214.352 24.1854C214.422 24.3825 214.415 24.5986 214.333 24.7909V24.7909Z" fill="#00A6DA"/>
<path opacity="0.6" d="M214.333 24.7909L207.206 20.4659C206.546 20.0646 206.042 19.4504 205.778 18.7246C205.514 17.9989 205.505 17.2047 205.752 16.4731L208.435 8.58673C208.626 8.68356 208.772 8.85012 208.844 9.0519L214.352 24.1854C214.422 24.3825 214.415 24.5986 214.333 24.7909V24.7909Z" fill="#4882C5"/>
</g>
<defs>
<linearGradient id="paint0_linear" x1="151" y1="133" x2="151" y2="195" gradientUnits="userSpaceOnUse">
<stop stop-color="#52CBFF" stop-opacity="0.38"/>
<stop offset="1" stop-color="#52CBFF"/>
</linearGradient>
</defs>
</svg>
