<svg width="405" height="405" viewBox="0 0 405 405" fill="none" xmlns="http://www.w3.org/2000/svg">
<g clip-path="url(#clip0)">
<path opacity="0.4" d="M195.163 318.273C280.401 318.273 349.5 314.239 349.5 309.263C349.5 304.286 280.401 300.252 195.163 300.252C109.925 300.252 40.8267 304.286 40.8267 309.263C40.8267 314.239 109.925 318.273 195.163 318.273Z" fill="#23AEEA"/>
<path d="M238.704 200.218L214.657 181.974L243.369 146.878L238.704 200.218Z" fill="#059BDB"/>
<path opacity="0.7" d="M243.369 146.878L238.704 200.218L214.657 181.974L243.369 146.878Z" fill="white"/>
<path d="M337.155 227.422C337.016 228.527 336.398 229.551 335.417 230.303C334.436 231.055 333.159 231.483 331.827 231.506H233.925C233.298 231.513 232.677 231.41 232.101 231.203C231.526 230.995 231.011 230.688 230.589 230.302C230.167 229.916 229.848 229.459 229.653 228.963C229.459 228.466 229.393 227.941 229.461 227.422L244.573 83.4071C244.714 82.298 245.338 81.2705 246.328 80.5192C247.317 79.7678 248.602 79.3447 249.94 79.33H347.858C348.484 79.3224 349.105 79.4255 349.679 79.6327C350.254 79.8398 350.769 80.1461 351.191 80.5315C351.613 80.9168 351.932 81.3724 352.127 81.8681C352.322 82.3638 352.388 82.8884 352.322 83.4071L337.155 227.422Z" fill="#059BDB"/>
<path opacity="0.7" d="M337.155 227.422C337.016 228.527 336.398 229.551 335.417 230.303C334.436 231.055 333.159 231.483 331.827 231.506H233.925C233.298 231.513 232.677 231.41 232.101 231.203C231.526 230.995 231.011 230.688 230.589 230.302C230.167 229.916 229.848 229.459 229.653 228.963C229.459 228.466 229.393 227.941 229.461 227.422L244.573 83.4071C244.714 82.298 245.338 81.2705 246.328 80.5192C247.317 79.7678 248.602 79.3447 249.94 79.33H347.858C348.484 79.3224 349.105 79.4255 349.679 79.6327C350.254 79.8398 350.769 80.1461 351.191 80.5315C351.613 80.9168 351.932 81.3724 352.127 81.8681C352.322 82.3638 352.388 82.8884 352.322 83.4071L337.155 227.422Z" fill="white"/>
<path d="M337.155 227.422C337.016 228.527 336.398 229.551 335.417 230.303C334.436 231.055 333.159 231.483 331.827 231.506H233.925C233.298 231.513 232.677 231.41 232.101 231.203C231.526 230.995 231.011 230.688 230.589 230.302C230.167 229.916 229.848 229.459 229.653 228.963C229.459 228.466 229.393 227.941 229.461 227.422L244.573 83.4071C244.714 82.298 245.338 81.2705 246.328 80.5192C247.317 79.7678 248.602 79.3447 249.94 79.33H347.858C348.484 79.3224 349.105 79.4255 349.679 79.6327C350.254 79.8398 350.769 80.1461 351.191 80.5315C351.613 80.9168 351.932 81.3724 352.127 81.8681C352.322 82.3638 352.388 82.8884 352.322 83.4071L337.155 227.422Z" fill="#059BDB"/>
<path opacity="0.7" d="M337.155 227.422C337.016 228.527 336.398 229.551 335.417 230.303C334.436 231.055 333.159 231.483 331.827 231.506H233.925C233.298 231.513 232.677 231.41 232.101 231.203C231.526 230.995 231.011 230.688 230.589 230.302C230.167 229.916 229.848 229.459 229.653 228.963C229.459 228.466 229.393 227.941 229.461 227.422L244.573 83.4071C244.714 82.298 245.338 81.2705 246.328 80.5192C247.317 79.7678 248.602 79.3447 249.94 79.33H347.858C348.484 79.3224 349.105 79.4255 349.679 79.6327C350.254 79.8398 350.769 80.1461 351.191 80.5315C351.613 80.9168 351.932 81.3724 352.127 81.8681C352.322 82.3638 352.388 82.8884 352.322 83.4071L337.155 227.422Z" fill="white"/>
<g clip-path="url(#clip1)">
<path d="M271.108 94.5482H266.101C265.758 94.5482 265.466 94.7861 265.413 95.1093L263.388 107.375C263.347 107.617 263.544 107.835 263.801 107.835H266.191C266.534 107.835 266.825 107.598 266.879 107.274L267.425 103.966C267.478 103.642 267.77 103.404 268.112 103.404H269.697C272.996 103.404 274.9 101.879 275.397 98.8575C275.621 97.5356 275.406 96.4969 274.758 95.7695C274.047 94.9707 272.784 94.5482 271.108 94.5482V94.5482ZM271.686 99.0282C271.412 100.745 270.039 100.745 268.712 100.745H267.956L268.486 97.5391C268.518 97.3453 268.693 97.2027 268.898 97.2027H269.245C270.149 97.2027 271.002 97.2027 271.443 97.695C271.706 97.9888 271.786 98.4252 271.686 99.0282Z" fill="#263238"/>
<path d="M286.077 98.9733H283.679C283.475 98.9733 283.298 99.1159 283.267 99.3097L283.161 99.9504L282.993 99.7181C282.474 98.9984 281.316 98.7578 280.161 98.7578C277.511 98.7578 275.247 100.675 274.807 103.364C274.577 104.706 274.903 105.989 275.7 106.883C276.431 107.706 277.476 108.048 278.72 108.048C280.856 108.048 282.04 106.737 282.04 106.737L281.933 107.373C281.892 107.617 282.089 107.835 282.344 107.835H284.504C284.848 107.835 285.138 107.597 285.192 107.273L286.488 99.4335C286.529 99.1922 286.333 98.9733 286.077 98.9733V98.9733ZM282.734 103.431C282.503 104.74 281.416 105.619 280.029 105.619C279.333 105.619 278.776 105.405 278.419 105.001C278.064 104.599 277.93 104.028 278.042 103.392C278.258 102.094 279.364 101.187 280.73 101.187C281.411 101.187 281.964 101.403 282.329 101.811C282.694 102.223 282.839 102.798 282.734 103.431Z" fill="#263238"/>
<path d="M298.848 98.973H296.439C296.209 98.973 295.993 99.0822 295.862 99.2648L292.539 103.941L291.13 99.4473C291.042 99.1661 290.77 98.973 290.462 98.973H288.094C287.807 98.973 287.607 99.2416 287.698 99.5004L290.353 106.941L287.857 110.306C287.661 110.571 287.858 110.936 288.198 110.936H290.604C290.833 110.936 291.047 110.829 291.176 110.65L299.191 99.5991C299.383 99.3346 299.186 98.973 298.848 98.973" fill="#263238"/>
<path d="M306.826 94.5482H301.818C301.476 94.5482 301.185 94.7861 301.131 95.1093L299.106 107.375C299.066 107.617 299.262 107.835 299.517 107.835H302.088C302.326 107.835 302.531 107.669 302.568 107.442L303.143 103.966C303.195 103.642 303.488 103.404 303.829 103.404H305.414C308.713 103.404 310.616 101.879 311.114 98.8575C311.339 97.5356 311.123 96.4969 310.475 95.7695C309.764 94.9707 308.503 94.5482 306.826 94.5482V94.5482ZM307.404 99.0282C307.131 100.745 305.758 100.745 304.43 100.745H303.675L304.206 97.5391C304.237 97.3453 304.412 97.2027 304.617 97.2027H304.964C305.867 97.2027 306.721 97.2027 307.162 97.695C307.425 97.9888 307.504 98.4252 307.404 99.0282Z" fill="#3D8EE0"/>
<path d="M321.795 98.9733H319.399C319.193 98.9733 319.018 99.1159 318.987 99.3097L318.881 99.9504L318.712 99.7181C318.193 98.9984 317.036 98.7578 315.881 98.7578C313.231 98.7578 310.968 100.675 310.528 103.364C310.299 104.706 310.624 105.989 311.42 106.883C312.152 107.706 313.197 108.048 314.441 108.048C316.576 108.048 317.76 106.737 317.76 106.737L317.653 107.373C317.613 107.617 317.809 107.835 318.066 107.835H320.225C320.567 107.835 320.859 107.597 320.912 107.273L322.209 99.4335C322.248 99.1922 322.052 98.9733 321.795 98.9733V98.9733ZM318.452 103.431C318.223 104.74 317.134 105.619 315.747 105.619C315.052 105.619 314.494 105.405 314.137 105.001C313.782 104.599 313.649 104.028 313.76 103.392C313.978 102.094 315.082 101.187 316.448 101.187C317.129 101.187 317.682 101.403 318.047 101.811C318.414 102.223 318.559 102.798 318.452 103.431Z" fill="#3D8EE0"/>
<path d="M324.622 94.8847L322.567 107.375C322.527 107.617 322.723 107.835 322.978 107.835H325.045C325.388 107.835 325.68 107.598 325.732 107.274L327.759 95.0086C327.799 94.7665 327.603 94.5476 327.348 94.5476H325.034C324.829 94.5482 324.654 94.6911 324.622 94.8847" fill="#3D8EE0"/>
</g>
<path d="M349.068 79.33H347.127C347.748 79.3224 348.363 79.4255 348.932 79.6327C349.502 79.8398 350.012 80.1461 350.431 80.5315C350.849 80.9168 351.165 81.3724 351.358 81.8681C351.551 82.3638 351.617 82.8884 351.552 83.4071L336.557 227.422C336.42 228.527 335.807 229.552 334.835 230.304C333.863 231.056 332.597 231.483 331.276 231.506H333.217C334.538 231.483 335.804 231.056 336.776 230.304C337.748 229.552 338.361 228.527 338.499 227.422L353.493 83.4071C353.559 82.8884 353.493 82.3638 353.299 81.8681C353.106 81.3724 352.79 80.9168 352.372 80.5315C351.953 80.1461 351.443 79.8398 350.873 79.6327C350.304 79.4255 349.689 79.3224 349.068 79.33V79.33Z" fill="#059BDB"/>
<path opacity="0.4" d="M349.068 79.33H347.127C347.748 79.3224 348.363 79.4255 348.932 79.6327C349.502 79.8398 350.012 80.1461 350.431 80.5315C350.849 80.9168 351.165 81.3724 351.358 81.8681C351.551 82.3638 351.617 82.8884 351.552 83.4071L336.557 227.422C336.42 228.527 335.807 229.552 334.835 230.304C333.863 231.056 332.597 231.483 331.276 231.506H333.217C334.538 231.483 335.804 231.056 336.776 230.304C337.748 229.552 338.361 228.527 338.499 227.422L353.493 83.4071C353.559 82.8884 353.493 82.3638 353.299 81.8681C353.106 81.3724 352.79 80.9168 352.372 80.5315C351.953 80.1461 351.443 79.8398 350.873 79.6327C350.304 79.4255 349.689 79.3224 349.068 79.33V79.33Z" fill="white"/>
<path d="M341.396 131.453C341.26 132.784 340.642 134.019 339.658 134.925C338.674 135.831 337.393 136.346 336.055 136.372H253.446C252.817 136.382 252.193 136.257 251.616 136.007C251.039 135.757 250.521 135.387 250.097 134.922C249.674 134.457 249.353 133.907 249.158 133.309C248.963 132.711 248.897 132.079 248.965 131.453L249.411 126.382C249.548 125.053 250.167 123.82 251.151 122.915C252.135 122.011 253.415 121.497 254.752 121.471H337.361C337.989 121.462 338.612 121.586 339.189 121.836C339.766 122.085 340.283 122.454 340.706 122.919C341.13 123.383 341.45 123.931 341.646 124.529C341.842 125.126 341.909 125.758 341.842 126.382L341.396 131.453Z" fill="white"/>
<path d="M338.722 151.122C338.583 152.453 337.962 153.687 336.977 154.593C335.992 155.499 334.711 156.014 333.373 156.041H250.74C250.111 156.05 249.486 155.926 248.909 155.676C248.331 155.426 247.813 155.057 247.389 154.592C246.964 154.127 246.643 153.577 246.447 152.979C246.251 152.381 246.184 151.748 246.25 151.122L246.696 146.051C246.837 144.722 247.459 143.49 248.443 142.586C249.428 141.681 250.709 141.168 252.045 141.14H334.678C335.307 141.131 335.93 141.255 336.506 141.505C337.083 141.754 337.6 142.123 338.024 142.587C338.448 143.052 338.768 143.6 338.964 144.198C339.159 144.795 339.226 145.427 339.16 146.051L338.722 151.122Z" fill="white"/>
<path d="M336.525 171.49C336.387 172.819 335.768 174.052 334.784 174.957C333.801 175.862 332.52 176.375 331.184 176.401H248.583C247.954 176.411 247.33 176.288 246.752 176.039C246.174 175.79 245.656 175.421 245.232 174.957C244.807 174.493 244.486 173.943 244.29 173.346C244.094 172.748 244.027 172.115 244.093 171.49L244.539 166.419C244.678 165.09 245.297 163.857 246.281 162.951C247.264 162.045 248.544 161.53 249.88 161.5H332.489C333.118 161.491 333.742 161.615 334.319 161.865C334.897 162.115 335.414 162.485 335.838 162.95C336.262 163.415 336.582 163.965 336.777 164.563C336.972 165.161 337.038 165.794 336.971 166.419L336.525 171.49Z" fill="white"/>
<path d="M296.319 181.472C294.981 181.499 293.699 182.014 292.714 182.92C291.729 183.826 291.109 185.06 290.969 186.391L290.532 191.461C290.464 192.087 290.53 192.72 290.725 193.318C290.92 193.916 291.24 194.466 291.664 194.931C292.088 195.396 292.605 195.766 293.183 196.016C293.76 196.266 294.384 196.39 295.013 196.381H329.432C330.77 196.353 332.052 195.838 333.037 194.932C334.022 194.027 334.642 192.792 334.781 191.461L335.227 186.391C335.294 185.765 335.226 185.132 335.03 184.534C334.834 183.936 334.513 183.386 334.089 182.921C333.665 182.456 333.147 182.087 332.569 181.837C331.991 181.587 331.367 181.463 330.738 181.472H296.319Z" fill="white"/>
<path d="M287.038 186.415C287.105 185.789 287.039 185.157 286.844 184.559C286.649 183.96 286.329 183.411 285.905 182.946C285.481 182.48 284.964 182.111 284.386 181.861C283.809 181.611 283.185 181.486 282.556 181.496H248.137C246.798 181.521 245.514 182.036 244.528 182.941C243.541 183.847 242.92 185.083 242.78 186.415L242.342 191.485C242.274 192.111 242.34 192.744 242.536 193.342C242.731 193.94 243.051 194.49 243.475 194.955C243.898 195.42 244.416 195.79 244.993 196.04C245.571 196.289 246.195 196.414 246.824 196.405H281.243C282.581 196.377 283.862 195.862 284.847 194.956C285.832 194.05 286.452 192.816 286.592 191.485L287.038 186.415Z" fill="white"/>
<path d="M268.459 206.985C267.121 207.012 265.839 207.528 264.854 208.433C263.869 209.339 263.249 210.573 263.11 211.904L262.672 216.975C262.605 217.6 262.672 218.231 262.868 218.828C263.064 219.426 263.384 219.974 263.808 220.439C264.231 220.903 264.748 221.272 265.325 221.521C265.902 221.771 266.525 221.895 267.153 221.886H301.572C302.909 221.859 304.19 221.345 305.174 220.44C306.159 219.536 306.78 218.304 306.922 216.975L307.367 211.904C307.434 211.278 307.367 210.645 307.171 210.047C306.974 209.449 306.654 208.899 306.229 208.435C305.805 207.97 305.287 207.6 304.709 207.35C304.131 207.1 303.507 206.976 302.878 206.985H268.459Z" fill="#059BDB"/>
<path d="M72.3403 192.736H121.915C122.861 192.764 123.765 193.128 124.467 193.762C125.169 194.397 125.621 195.26 125.744 196.198L133.64 271.349C133.7 271.787 133.664 272.233 133.535 272.656C133.406 273.079 133.187 273.469 132.893 273.798C132.598 274.128 132.236 274.391 131.83 274.567C131.425 274.743 130.986 274.829 130.544 274.819H80.969L72.3403 192.736Z" fill="#059BDB"/>
<path opacity="0.5" d="M72.3403 192.736H121.915C122.861 192.764 123.765 193.128 124.467 193.762C125.169 194.397 125.621 195.26 125.744 196.198L133.64 271.349C133.7 271.787 133.664 272.233 133.535 272.656C133.406 273.079 133.187 273.469 132.893 273.798C132.598 274.128 132.236 274.391 131.83 274.567C131.425 274.743 130.986 274.829 130.544 274.819H80.969L72.3403 192.736Z" fill="white"/>
<path d="M186.216 267.99C185.97 265.602 179.283 201.985 179.052 199.597C178.827 197.737 177.938 196.021 176.549 194.763C175.16 193.506 173.364 192.792 171.49 192.752H128.849C128.407 192.742 127.969 192.828 127.564 193.004C127.158 193.18 126.796 193.441 126.501 193.77C126.206 194.099 125.986 194.487 125.855 194.909C125.725 195.331 125.687 195.776 125.744 196.214L133.641 271.365C133.762 272.305 134.215 273.172 134.918 273.808C135.622 274.445 136.529 274.809 137.477 274.835H180.095C180.968 274.855 181.834 274.685 182.634 274.337C183.435 273.99 184.151 273.473 184.732 272.822C185.314 272.172 185.748 271.403 186.004 270.569C186.26 269.734 186.333 268.855 186.216 267.99V267.99Z" fill="#059BDB"/>
<path opacity="0.5" d="M186.216 267.99C185.97 265.602 179.283 201.985 179.052 199.597C178.827 197.737 177.938 196.021 176.549 194.763C175.16 193.506 173.364 192.792 171.49 192.752H128.849C128.407 192.742 127.969 192.828 127.564 193.004C127.158 193.18 126.796 193.441 126.501 193.77C126.206 194.099 125.986 194.487 125.855 194.909C125.725 195.331 125.687 195.776 125.744 196.214L133.641 271.365C133.762 272.305 134.215 273.172 134.918 273.808C135.622 274.445 136.529 274.809 137.477 274.835H180.095C180.968 274.855 181.834 274.685 182.634 274.337C183.435 273.99 184.151 273.473 184.732 272.822C185.314 272.172 185.748 271.403 186.004 270.569C186.26 269.734 186.333 268.855 186.216 267.99V267.99Z" fill="white"/>
<path d="M79.9106 199.598C79.6832 197.737 78.7926 196.02 77.4023 194.763C76.0119 193.506 74.2148 192.792 72.3407 192.752C71.4679 192.733 70.6014 192.903 69.8006 193.25C68.9997 193.598 68.2836 194.114 67.7012 194.765C67.1189 195.415 66.6843 196.184 66.4271 197.018C66.17 197.852 66.0964 198.732 66.2115 199.598C66.5219 202.543 73.0889 265.037 73.3755 267.99C73.6029 269.851 74.4935 271.567 75.8839 272.824C77.2743 274.082 79.0713 274.796 80.9455 274.836C81.8182 274.855 82.6847 274.685 83.4856 274.337C84.2864 273.99 85.0026 273.473 85.5849 272.823C86.1672 272.172 86.6018 271.404 86.859 270.569C87.1162 269.735 87.1897 268.855 87.0747 267.99C86.8438 265.594 80.1574 201.986 79.9106 199.598Z" fill="#059BDB"/>
<path opacity="0.4" d="M79.9106 199.598C79.6832 197.737 78.7926 196.02 77.4023 194.763C76.0119 193.506 74.2148 192.792 72.3407 192.752C71.4679 192.733 70.6014 192.903 69.8006 193.25C68.9997 193.598 68.2836 194.114 67.7012 194.765C67.1189 195.415 66.6843 196.184 66.4271 197.018C66.17 197.852 66.0964 198.732 66.2115 199.598C66.5219 202.543 73.0889 265.037 73.3755 267.99C73.6029 269.851 74.4935 271.567 75.8839 272.824C77.2743 274.082 79.0713 274.796 80.9455 274.836C81.8182 274.855 82.6847 274.685 83.4856 274.337C84.2864 273.99 85.0026 273.473 85.5849 272.823C86.1672 272.172 86.6018 271.404 86.859 270.569C87.1162 269.735 87.1897 268.855 87.0747 267.99C86.8438 265.594 80.1574 201.986 79.9106 199.598Z" fill="white"/>
<path d="M108.598 223.907H62.9637C59.3887 223.993 55.9891 225.474 53.4911 228.033C50.9931 230.592 49.5947 234.026 49.5947 237.602C49.5947 241.178 50.9931 244.613 53.4911 247.172C55.9891 249.731 59.3887 251.211 62.9637 251.298V302.13C62.9637 303.15 63.3688 304.128 64.0898 304.849C64.8108 305.57 65.7887 305.975 66.8084 305.975H118.437C119.457 305.975 120.436 305.57 121.158 304.849C121.881 304.128 122.287 303.151 122.29 302.13V237.598C122.29 233.967 120.847 230.485 118.28 227.917C115.712 225.35 112.23 223.907 108.598 223.907V223.907Z" fill="#059BDB"/>
<path opacity="0.3" d="M108.598 223.907H62.9637C59.3887 223.993 55.9891 225.474 53.4911 228.033C50.9931 230.592 49.5947 234.026 49.5947 237.602C49.5947 241.178 50.9931 244.613 53.4911 247.172C55.9891 249.731 59.3887 251.211 62.9637 251.298V302.13C62.9637 303.15 63.3688 304.128 64.0898 304.849C64.8108 305.57 65.7887 305.975 66.8084 305.975H118.437C119.457 305.975 120.436 305.57 121.158 304.849C121.881 304.128 122.287 303.151 122.29 302.13V237.598C122.29 233.967 120.847 230.485 118.28 227.917C115.712 225.35 112.23 223.907 108.598 223.907V223.907Z" fill="white"/>
<path d="M196.429 223.907H242.064C245.639 223.993 249.038 225.474 251.536 228.033C254.034 230.592 255.433 234.026 255.433 237.602C255.433 241.178 254.034 244.613 251.536 247.172C249.038 249.731 245.639 251.211 242.064 251.298V302.13C242.062 303.151 241.655 304.128 240.933 304.849C240.21 305.57 239.232 305.975 238.211 305.975H186.583C185.562 305.975 184.583 305.57 183.861 304.849C183.139 304.128 182.732 303.151 182.73 302.13V237.598C182.732 233.967 184.176 230.484 186.745 227.917C189.314 225.349 192.797 223.907 196.429 223.907Z" fill="#059BDB"/>
<path opacity="0.3" d="M196.429 223.907H242.064C245.639 223.993 249.038 225.474 251.536 228.033C254.034 230.592 255.433 234.026 255.433 237.602C255.433 241.178 254.034 244.613 251.536 247.172C249.038 249.731 245.639 251.211 242.064 251.298V302.13C242.062 303.151 241.655 304.128 240.933 304.849C240.21 305.57 239.232 305.975 238.211 305.975H186.583C185.562 305.975 184.583 305.57 183.861 304.849C183.139 304.128 182.732 303.151 182.73 302.13V237.598C182.732 233.967 184.176 230.484 186.745 227.917C189.314 225.349 192.797 223.907 196.429 223.907Z" fill="white"/>
<path d="M108.598 223.907C105.023 223.993 101.624 225.474 99.1258 228.033C96.6278 230.592 95.2295 234.026 95.2295 237.602C95.2295 241.178 96.6278 244.613 99.1258 247.172C101.624 249.731 105.023 251.211 108.598 251.298V302.13C108.598 303.15 109.004 304.128 109.725 304.849C110.446 305.57 111.423 305.975 112.443 305.975H118.437C119.457 305.975 120.436 305.57 121.158 304.849C121.881 304.128 122.288 303.151 122.29 302.13V237.598C122.29 235.8 121.936 234.02 121.247 232.359C120.559 230.698 119.551 229.189 118.28 227.917C117.008 226.646 115.499 225.637 113.838 224.949C112.177 224.261 110.396 223.907 108.598 223.907V223.907Z" fill="#059BDB"/>
<path opacity="0.6" d="M108.598 223.907C105.023 223.993 101.624 225.474 99.1258 228.033C96.6278 230.592 95.2295 234.026 95.2295 237.602C95.2295 241.178 96.6278 244.613 99.1258 247.172C101.624 249.731 105.023 251.211 108.598 251.298V302.13C108.598 303.15 109.004 304.128 109.725 304.849C110.446 305.57 111.423 305.975 112.443 305.975H118.437C119.457 305.975 120.436 305.57 121.158 304.849C121.881 304.128 122.288 303.151 122.29 302.13V237.598C122.29 235.8 121.936 234.02 121.247 232.359C120.559 230.698 119.551 229.189 118.28 227.917C117.008 226.646 115.499 225.637 113.838 224.949C112.177 224.261 110.396 223.907 108.598 223.907V223.907Z" fill="white"/>
<path d="M242.063 223.907C245.638 223.993 249.038 225.474 251.536 228.033C254.034 230.592 255.432 234.026 255.432 237.602C255.432 241.178 254.034 244.613 251.536 247.172C249.038 249.731 245.638 251.211 242.063 251.298V302.13C242.061 303.151 241.654 304.128 240.932 304.849C240.21 305.57 239.231 305.975 238.211 305.975H232.217C231.196 305.975 230.218 305.57 229.495 304.849C228.773 304.128 228.366 303.151 228.364 302.13V237.598C228.366 233.967 229.811 230.484 232.379 227.917C234.948 225.349 238.432 223.907 242.063 223.907V223.907Z" fill="#059BDB"/>
<path opacity="0.6" d="M242.063 223.907C245.638 223.993 249.038 225.474 251.536 228.033C254.034 230.592 255.432 234.026 255.432 237.602C255.432 241.178 254.034 244.613 251.536 247.172C249.038 249.731 245.638 251.211 242.063 251.298V302.13C242.061 303.151 241.654 304.128 240.932 304.849C240.21 305.57 239.231 305.975 238.211 305.975H232.217C231.196 305.975 230.218 305.57 229.495 304.849C228.773 304.128 228.366 303.151 228.364 302.13V237.598C228.366 233.967 229.811 230.484 232.379 227.917C234.948 225.349 238.432 223.907 242.063 223.907V223.907Z" fill="white"/>
<path d="M214.323 267.297H127.838C124.774 267.297 122.29 269.781 122.29 272.845V300.426C122.29 303.491 124.774 305.975 127.838 305.975H214.323C217.387 305.975 219.871 303.491 219.871 300.426V272.845C219.871 269.781 217.387 267.297 214.323 267.297Z" fill="#059BDB"/>
<path opacity="0.4" d="M214.323 267.297H127.838C124.774 267.297 122.29 269.781 122.29 272.845V300.426C122.29 303.491 124.774 305.975 127.838 305.975H214.323C217.387 305.975 219.871 303.491 219.871 300.426V272.845C219.871 269.781 217.387 267.297 214.323 267.297Z" fill="white"/>
<path d="M175.327 269.964V264.639C175.327 261.948 173.146 259.767 170.456 259.767H127.161C124.471 259.767 122.29 261.948 122.29 264.639V269.964C122.29 272.654 124.471 274.835 127.161 274.835H170.456C173.146 274.835 175.327 272.654 175.327 269.964Z" fill="#059BDB"/>
<path opacity="0.6" d="M175.327 269.964V264.639C175.327 261.948 173.146 259.767 170.456 259.767H127.161C124.471 259.767 122.29 261.948 122.29 264.639V269.964C122.29 272.654 124.471 274.835 127.161 274.835H170.456C173.146 274.835 175.327 272.654 175.327 269.964Z" fill="white"/>
<path d="M228.364 269.964V264.639C228.364 261.948 226.183 259.767 223.493 259.767H180.198C177.508 259.767 175.327 261.948 175.327 264.639V269.964C175.327 272.654 177.508 274.835 180.198 274.835H223.493C226.183 274.835 228.364 272.654 228.364 269.964Z" fill="#059BDB"/>
<path opacity="0.6" d="M228.364 269.964V264.639C228.364 261.948 226.183 259.767 223.493 259.767H180.198C177.508 259.767 175.327 261.948 175.327 264.639V269.964C175.327 272.654 177.508 274.835 180.198 274.835H223.493C226.183 274.835 228.364 272.654 228.364 269.964Z" fill="white"/>
<path d="M128.013 221.702C128.116 222.713 128.228 223.732 128.331 224.751C128.331 224.974 128.713 224.974 128.689 224.751C128.578 223.732 128.474 222.713 128.371 221.702C128.371 221.472 127.989 221.472 128.013 221.702Z" fill="#059BDB"/>
<path d="M126.246 204.947C126.739 209.611 127.23 214.276 127.718 218.94C127.718 219.163 128.1 219.171 128.077 218.94C127.583 214.276 127.092 209.611 126.604 204.947C126.604 204.716 126.222 204.716 126.246 204.947Z" fill="#059BDB"/>
<g opacity="0.3">
<path opacity="0.3" d="M128.013 221.702C128.116 222.713 128.228 223.732 128.331 224.751C128.331 224.974 128.713 224.974 128.689 224.751C128.578 223.732 128.474 222.713 128.371 221.702C128.371 221.472 127.989 221.472 128.013 221.702Z" fill="white"/>
</g>
<g opacity="0.3">
<path opacity="0.3" d="M126.246 204.947C126.739 209.611 127.23 214.276 127.718 218.94C127.718 219.163 128.1 219.171 128.077 218.94C127.583 214.276 127.092 209.611 126.604 204.947C126.604 204.716 126.222 204.716 126.246 204.947Z" fill="white"/>
</g>
<path d="M175.176 295.492V298.087C175.176 298.127 175.192 298.165 175.22 298.194C175.248 298.222 175.287 298.238 175.327 298.238C175.367 298.238 175.406 298.222 175.434 298.194C175.462 298.165 175.478 298.127 175.478 298.087V295.492C175.478 295.451 175.462 295.413 175.434 295.385C175.406 295.356 175.367 295.34 175.327 295.34C175.287 295.34 175.248 295.356 175.22 295.385C175.192 295.413 175.176 295.451 175.176 295.492Z" fill="#059BDB"/>
<path d="M175.176 282.787V292.682C175.176 292.722 175.192 292.76 175.22 292.789C175.248 292.817 175.287 292.833 175.327 292.833C175.367 292.833 175.406 292.817 175.434 292.789C175.462 292.76 175.478 292.722 175.478 292.682V282.787C175.478 282.747 175.462 282.709 175.434 282.681C175.406 282.652 175.367 282.636 175.327 282.636C175.287 282.636 175.248 282.652 175.22 282.681C175.192 282.709 175.176 282.747 175.176 282.787V282.787Z" fill="#059BDB"/>
<g opacity="0.2">
<path opacity="0.2" d="M175.176 295.492V298.087C175.176 298.127 175.192 298.165 175.22 298.194C175.248 298.222 175.287 298.238 175.327 298.238C175.367 298.238 175.406 298.222 175.434 298.194C175.462 298.165 175.478 298.127 175.478 298.087V295.492C175.478 295.451 175.462 295.413 175.434 295.385C175.406 295.356 175.367 295.34 175.327 295.34C175.287 295.34 175.248 295.356 175.22 295.385C175.192 295.413 175.176 295.451 175.176 295.492Z" fill="white"/>
</g>
<g opacity="0.2">
<path opacity="0.2" d="M175.176 282.787V292.682C175.176 292.722 175.192 292.76 175.22 292.789C175.248 292.817 175.287 292.833 175.327 292.833C175.367 292.833 175.406 292.817 175.434 292.789C175.462 292.76 175.478 292.722 175.478 292.682V282.787C175.478 282.747 175.462 282.709 175.434 282.681C175.406 282.652 175.367 282.636 175.327 282.636C175.287 282.636 175.248 282.652 175.22 282.681C175.192 282.709 175.176 282.747 175.176 282.787V282.787Z" fill="white"/>
</g>
<path d="M94.9072 237.598H49.2725C49.2725 241.23 50.7147 244.713 53.282 247.282C55.8494 249.851 59.3318 251.295 62.9637 251.297H108.598C104.966 251.295 101.484 249.851 98.9167 247.282C96.3494 244.713 94.9072 241.23 94.9072 237.598V237.598Z" fill="#059BDB"/>
<g opacity="0.2">
<path opacity="0.2" d="M94.9072 237.598H49.2725C49.2725 241.23 50.7147 244.713 53.282 247.282C55.8494 249.851 59.3318 251.295 62.9637 251.297H108.598C104.966 251.295 101.484 249.851 98.9167 247.282C96.3494 244.713 94.9072 241.23 94.9072 237.598V237.598Z" fill="white"/>
</g>
<path d="M206.164 189.48L200.887 189.655C200.78 189.666 200.671 189.654 200.569 189.618C200.468 189.582 200.375 189.523 200.299 189.447C200.223 189.371 200.165 189.278 200.128 189.177C200.092 189.075 200.08 188.966 200.091 188.859L200.927 177.063C200.949 176.839 201.05 176.63 201.212 176.474C201.374 176.318 201.586 176.225 201.81 176.211L207.096 176.036C207.203 176.024 207.312 176.037 207.413 176.073C207.515 176.109 207.607 176.168 207.684 176.244C207.76 176.32 207.818 176.413 207.854 176.514C207.89 176.616 207.903 176.724 207.892 176.832L207.048 188.628C207.027 188.853 206.927 189.062 206.765 189.218C206.602 189.375 206.389 189.468 206.164 189.48V189.48Z" fill="#059BDB"/>
<path d="M207.135 189.448L201.858 189.624C201.75 189.635 201.642 189.622 201.54 189.586C201.438 189.55 201.346 189.492 201.27 189.415C201.193 189.339 201.135 189.247 201.099 189.145C201.063 189.043 201.05 188.935 201.062 188.828L201.905 177.031C201.926 176.806 202.027 176.597 202.189 176.441C202.351 176.284 202.564 176.191 202.789 176.179L208.066 176.004C208.174 175.993 208.282 176.006 208.384 176.042C208.486 176.078 208.578 176.136 208.654 176.212C208.731 176.288 208.789 176.381 208.825 176.483C208.861 176.584 208.874 176.693 208.862 176.8L208.019 188.597C208 188.822 207.9 189.032 207.737 189.189C207.574 189.345 207.361 189.438 207.135 189.448V189.448Z" fill="#059BDB"/>
<path d="M201.094 188.828L201.937 177.031C201.958 176.807 202.059 176.597 202.221 176.441C202.383 176.284 202.596 176.192 202.821 176.179H201.826C201.601 176.193 201.389 176.287 201.227 176.443C201.066 176.599 200.965 176.807 200.942 177.031L200.106 188.828C200.095 188.935 200.108 189.043 200.144 189.145C200.18 189.247 200.238 189.339 200.315 189.415C200.391 189.492 200.483 189.55 200.585 189.586C200.687 189.622 200.795 189.635 200.902 189.624H201.89C201.782 189.635 201.674 189.622 201.572 189.586C201.47 189.55 201.378 189.492 201.302 189.415C201.225 189.339 201.167 189.247 201.131 189.145C201.095 189.043 201.082 188.935 201.094 188.828Z" fill="#059BDB"/>
<path opacity="0.5" d="M201.094 188.828L201.937 177.031C201.958 176.807 202.059 176.597 202.221 176.441C202.383 176.284 202.596 176.192 202.821 176.179H201.826C201.601 176.193 201.389 176.287 201.227 176.443C201.066 176.599 200.965 176.807 200.942 177.031L200.106 188.828C200.095 188.935 200.108 189.043 200.144 189.145C200.18 189.247 200.238 189.339 200.315 189.415C200.391 189.492 200.483 189.55 200.585 189.586C200.687 189.622 200.795 189.635 200.902 189.624H201.89C201.782 189.635 201.674 189.622 201.572 189.586C201.47 189.55 201.378 189.492 201.302 189.415C201.225 189.339 201.167 189.247 201.131 189.145C201.095 189.043 201.082 188.935 201.094 188.828Z" fill="white"/>
<path d="M204.166 177.548C204.154 177.751 204.065 177.941 203.917 178.08C203.769 178.22 203.573 178.297 203.37 178.296C203.278 178.302 203.186 178.287 203.101 178.253C203.015 178.219 202.938 178.167 202.874 178.1C202.811 178.034 202.762 177.954 202.733 177.867C202.703 177.78 202.692 177.688 202.702 177.596C202.714 177.393 202.803 177.203 202.951 177.064C203.099 176.925 203.294 176.847 203.498 176.848C203.589 176.844 203.68 176.86 203.765 176.894C203.85 176.928 203.927 176.98 203.99 177.047C204.054 177.113 204.102 177.192 204.132 177.279C204.163 177.365 204.174 177.457 204.166 177.548V177.548Z" fill="#263238"/>
<path d="M203.378 312.462L205.758 320.143L212.811 318.838L210.845 310.289L203.378 312.462Z" fill="#F1C09A"/>
<path opacity="0.2" d="M204.787 317.016L211.983 315.272L211.426 312.853L204.23 315.225L204.787 317.016Z" fill="black"/>
<path d="M214.554 318.894C214.514 318.897 214.473 318.887 214.439 318.865C214.405 318.844 214.378 318.812 214.363 318.774C214.347 318.738 214.342 318.698 214.351 318.659C214.36 318.62 214.381 318.585 214.411 318.56C214.514 318.456 216.95 316.172 218.391 316.235C218.658 316.245 218.911 316.356 219.099 316.546C219.21 316.642 219.29 316.769 219.327 316.911C219.364 317.054 219.357 317.204 219.306 317.342C219.075 317.851 218.088 318.281 217.085 318.52C216.255 318.721 215.407 318.846 214.554 318.894ZM215.111 318.496C216.656 318.329 218.685 317.835 218.94 317.222C218.98 317.143 218.996 317.015 218.797 316.808C218.743 316.749 218.676 316.703 218.602 316.672C218.527 316.642 218.447 316.629 218.367 316.633C218.238 316.627 218.109 316.64 217.985 316.673C216.92 317.097 215.945 317.718 215.111 318.504V318.496Z" fill="#059BDB"/>
<path d="M214.45 318.91C214.418 318.897 214.39 318.877 214.368 318.851C214.345 318.824 214.33 318.793 214.323 318.759C214.323 318.655 214.013 316.426 214.841 315.344C214.958 315.186 215.106 315.054 215.276 314.954C215.445 314.854 215.633 314.789 215.828 314.763C216.369 314.691 216.624 314.922 216.663 315.137C217.053 316.005 215.525 318.209 214.665 318.862C214.639 318.869 214.612 318.869 214.586 318.862C214.548 318.894 214.5 318.911 214.45 318.91V318.91ZM215.788 315.161C215.545 315.212 215.33 315.351 215.183 315.551C214.746 316.39 214.577 317.343 214.697 318.281C215.557 317.485 216.504 315.782 216.289 315.248C216.289 315.201 216.21 315.073 215.859 315.121L215.756 315.161H215.788Z" fill="#059BDB"/>
<path d="M213.463 317.963L204.668 320.04C204.507 320.078 204.364 320.17 204.263 320.3C204.162 320.431 204.108 320.592 204.11 320.757L204.206 328.295C204.21 328.615 204.34 328.921 204.568 329.146C204.796 329.371 205.104 329.497 205.424 329.497C205.509 329.505 205.594 329.505 205.679 329.497C208.863 328.701 211.617 327.849 215.565 326.926C220.229 325.827 219.179 326.663 224.671 325.445C227.983 324.713 227.704 320.812 226.263 320.964C219.672 321.672 218.55 319.889 215.533 318.186C214.895 317.856 214.157 317.777 213.463 317.963Z" fill="#263238"/>
<path d="M237.559 301.263L241.212 308.419L247.938 305.927L244.539 297.848L237.559 301.263Z" fill="#F1C09A"/>
<path opacity="0.2" d="M239.724 305.505L246.522 302.56L245.558 300.268L238.872 303.834L239.724 305.505Z" fill="black"/>
<path d="M249.674 305.689C249.634 305.698 249.593 305.694 249.556 305.678C249.519 305.663 249.487 305.636 249.467 305.601C249.442 305.569 249.429 305.53 249.429 305.49C249.429 305.449 249.442 305.41 249.467 305.378C249.554 305.259 251.56 302.608 252.977 302.417C253.24 302.377 253.507 302.44 253.725 302.592C253.861 302.67 253.968 302.789 254.031 302.932C254.094 303.076 254.11 303.235 254.075 303.388C253.94 303.929 253.033 304.518 252.085 304.924C251.304 305.246 250.498 305.502 249.674 305.689V305.689ZM250.151 305.195C251.648 304.765 253.558 303.929 253.701 303.285C253.701 303.205 253.701 303.078 253.494 302.91C253.431 302.859 253.356 302.823 253.276 302.805C253.196 302.787 253.112 302.788 253.033 302.807C252.908 302.822 252.787 302.857 252.674 302.91C251.697 303.506 250.841 304.282 250.151 305.195Z" fill="#059BDB"/>
<path d="M249.57 305.72C249.537 305.712 249.506 305.696 249.479 305.674C249.453 305.652 249.432 305.624 249.419 305.593C249.419 305.489 248.718 303.348 249.347 302.138C249.434 301.963 249.556 301.807 249.705 301.68C249.854 301.552 250.028 301.457 250.215 301.398C250.74 301.239 251.011 301.398 251.106 301.621C251.632 302.417 250.509 304.805 249.769 305.601C249.761 305.613 249.75 305.623 249.738 305.63C249.726 305.637 249.712 305.64 249.697 305.641C249.683 305.662 249.664 305.68 249.642 305.694C249.62 305.708 249.596 305.717 249.57 305.72V305.72ZM250.246 301.796C250.016 301.889 249.828 302.065 249.721 302.289C249.435 303.188 249.435 304.153 249.721 305.052C250.422 304.088 251.074 302.289 250.804 301.788C250.804 301.748 250.692 301.629 250.358 301.74L250.262 301.796H250.246Z" fill="#059BDB"/>
<path d="M248.44 304.972L240.129 308.522C239.978 308.586 239.853 308.7 239.775 308.845C239.697 308.989 239.67 309.156 239.7 309.318L241.085 316.721C241.143 317.037 241.324 317.317 241.587 317.501C241.851 317.684 242.177 317.756 242.494 317.7L242.732 317.628C245.709 316.291 248.304 314.994 252.038 313.402C256.439 311.523 255.548 312.526 260.754 310.385C263.89 309.095 262.951 305.306 261.55 305.696C255.182 307.519 253.765 305.959 250.501 304.797C249.816 304.599 249.082 304.661 248.44 304.972V304.972Z" fill="#263238"/>
<path d="M172.278 235.927C172.278 235.927 212.747 232.273 222.307 241.499C231.867 250.725 247.071 299.098 247.071 299.098L236.325 303.874C236.325 303.874 219.386 276.953 211.139 256.623C211.139 256.623 160.848 263.66 157.282 253.184L158.993 235.02L172.278 235.927Z" fill="#059BDB"/>
<path d="M234.303 302.855L235.927 305.426L248.36 299.503L246.728 296.049L234.303 302.855Z" fill="#059BDB"/>
<path opacity="0.3" d="M234.303 302.855L235.927 305.426L248.36 299.503L246.728 296.049L234.303 302.855Z" fill="black"/>
<path d="M141.529 235.067C141.529 235.067 138.902 256.702 148.216 259.743C157.529 262.784 185.301 259.504 185.301 259.504C185.301 259.504 185.357 281.936 202.153 315.057L212.079 311.587C212.079 311.587 206.228 255.508 201.587 247.906C198.26 242.478 188.724 234.462 141.529 235.067Z" fill="#059BDB"/>
<path d="M200.561 313.696L201.699 316.808L213.591 312.398L212.692 309.39L200.561 313.696Z" fill="#059BDB"/>
<path opacity="0.3" d="M200.561 313.696L201.699 316.808L213.591 312.398L212.692 309.39L200.561 313.696Z" fill="black"/>
<path opacity="0.1" d="M203.227 246.259C196.294 238.618 165.903 240.846 156.932 240.799V240.87C176.879 243.163 197.838 241.125 201.587 247.915C202.447 249.467 203.49 252.89 204.461 257.467C205.687 257.34 205.997 257.212 206.928 257.101C205.567 251.433 205.838 249.133 203.227 246.259Z" fill="black"/>
<path d="M168.052 183.717C168.052 183.717 173.082 183.542 178.917 197.823L185.468 210.686C185.468 210.686 194.383 204.644 199.279 196.947C199.279 196.947 200.019 183.375 204.811 184.434C205.69 184.6 206.521 184.96 207.243 185.488C207.965 186.015 208.56 186.698 208.985 187.485C209.41 188.272 209.654 189.144 209.699 190.037C209.743 190.931 209.588 191.823 209.245 192.649C207.89 195.166 206.383 197.598 204.731 199.932C204.731 199.932 193.11 219.951 185.588 220.198C178.065 220.445 170.647 205.83 170.647 205.83L168.306 192.028L168.052 183.717Z" fill="#F1C09A"/>
<path d="M169.007 183.462C169.007 183.462 174.253 184.577 178.352 195.713C178.352 195.713 179.888 196.039 179.777 198.244C179.777 198.244 182.332 207.191 175.168 213.83C175.168 213.83 173.664 213.917 173.051 211.442L169.755 205.719L166.866 192.346L166.707 187.458L166.945 183.168L169.007 183.462Z" fill="#263238"/>
<path d="M169.007 183.462C169.007 183.462 174.253 184.577 178.352 195.713C178.352 195.713 179.888 196.039 179.777 198.244C179.777 198.244 182.332 207.191 175.168 213.83C175.168 213.83 173.664 213.917 173.051 211.442L169.755 205.719L166.866 192.346L166.707 187.458L166.945 183.168L169.007 183.462Z" fill="#263238"/>
<path d="M197.791 198.69C199.459 199.496 200.946 200.633 202.161 202.033L203.593 200.529C203.593 200.529 202.495 198.141 198.61 197.472L197.791 198.69Z" fill="#059BDB"/>
<path opacity="0.7" d="M197.791 198.69C199.459 199.496 200.946 200.633 202.161 202.033L203.593 200.529C203.593 200.529 202.495 198.141 198.61 197.472L197.791 198.69Z" fill="white"/>
<path d="M204.572 202.328C203.935 203.323 202.821 203.752 202.081 203.283C201.34 202.813 201.285 201.619 201.906 200.624C202.526 199.629 203.657 199.191 204.397 199.661C205.137 200.131 205.201 201.325 204.572 202.328Z" fill="#059BDB"/>
<path d="M204.262 202.137C204.079 202.291 203.858 202.391 203.622 202.427C203.386 202.463 203.145 202.432 202.925 202.339C202.705 202.245 202.516 202.093 202.378 201.898C202.239 201.703 202.158 201.474 202.142 201.236C202.127 200.998 202.178 200.76 202.289 200.549C202.401 200.338 202.569 200.162 202.775 200.041C202.98 199.92 203.216 199.858 203.454 199.863C203.693 199.867 203.926 199.938 204.126 200.067C204.41 200.329 204.582 200.69 204.608 201.075C204.633 201.46 204.509 201.84 204.262 202.137V202.137Z" fill="#263238"/>
<path opacity="0.3" d="M168.967 202.073L169.763 205.695L173.059 211.418C173.672 213.918 175.176 213.806 175.176 213.806C176.486 212.602 177.582 211.183 178.416 209.611C175.916 205.536 171.347 203.084 168.967 202.073Z" fill="black"/>
<path d="M171.936 185.628C170.862 184.155 168.625 182.579 165.274 181.401L163.244 186.447L159.996 187.697L157.409 186.981L155.109 185.866L152.498 181.974L152.148 179.666C148.903 179.765 145.672 180.125 142.484 180.74C125.506 183.924 139.969 236.906 139.969 236.906C167.343 242.239 178.121 234.844 178.121 234.844C174.531 224.902 174.643 189.297 171.936 185.628Z" fill="#263238"/>
<path opacity="0.3" d="M144.076 188.318L134.835 191.701C134.291 195.464 134.131 199.273 134.357 203.068C146.87 200.999 144.076 188.318 144.076 188.318Z" fill="black"/>
<path d="M172.581 151.734C172.581 151.734 175.431 153.883 174.587 156.08C174.587 156.08 176.434 160.856 172.732 160.689C172.732 160.689 168.649 157.282 172.581 151.734Z" fill="#263238"/>
<path d="M161.143 186.853L163.451 184.521L165.21 181.337C164.653 181.138 164.064 180.955 163.435 180.788L163.968 173.274L155.173 168.131C155.173 168.131 155.451 177.683 153.318 179.602C152.864 180.008 152.888 179.602 152.259 179.602L153.294 183.582L156.582 187.673L161.143 186.853Z" fill="#F1C09A"/>
<path d="M152.832 179.411C152.832 179.411 155.276 185.54 159.097 186.846C159.097 186.846 157.178 192.362 154.321 189.305C151.463 186.249 151.137 179.467 151.137 179.467L152.832 179.411Z" fill="#059BDB"/>
<path opacity="0.7" d="M152.832 179.411C152.832 179.411 155.276 185.54 159.097 186.846C159.097 186.846 157.178 192.362 154.321 189.305C151.463 186.249 151.137 179.467 151.137 179.467L152.832 179.411Z" fill="white"/>
<path d="M158.285 187.164C158.285 187.164 162.551 186.296 164.255 180.916L166.157 181.712C166.157 181.712 165.409 190.157 162.408 190.014C161.528 189.954 160.68 189.658 159.954 189.157C159.228 188.655 158.651 187.967 158.285 187.164V187.164Z" fill="#059BDB"/>
<path opacity="0.7" d="M158.285 187.164C158.285 187.164 162.551 186.296 164.255 180.916L166.157 181.712C166.157 181.712 165.409 190.157 162.408 190.014C161.528 189.954 160.68 189.658 159.954 189.157C159.228 188.655 158.651 187.967 158.285 187.164V187.164Z" fill="white"/>
<path opacity="0.2" d="M155.117 168.856C155.117 168.856 155.308 175.71 163.634 178.074L163.905 174.149L155.149 168.856H155.117Z" fill="black"/>
<path d="M173.703 161.206C174.627 168.999 172.509 175.646 166.062 176.418C159.614 177.19 154.52 172.183 153.596 164.39C152.673 156.598 154.695 149.163 161.143 148.399C167.59 147.635 172.78 153.422 173.703 161.206Z" fill="#F1C09A"/>
<path d="M155.22 163.403C156.621 161.193 157.389 158.641 157.441 156.024C157.441 156.024 159.996 155.722 160.625 154.345C160.625 154.345 168.585 157.688 172.119 154.974C172.119 154.974 179.283 152.729 174.125 148.757C174.125 148.757 175.152 145.637 170.838 144.156C166.524 142.676 164 143.87 164 143.87C164 143.87 160.386 141.402 156.319 144.984C156.319 144.984 149.155 145.732 150.309 150.683C150.309 150.683 146.329 151.853 147.921 155.555C147.379 156.325 147.124 157.26 147.201 158.198C147.279 159.137 147.683 160.018 148.343 160.689C148.343 160.689 148.343 166.778 152.275 167.017C152.243 167.017 155.841 172.963 155.22 163.403Z" fill="#263238"/>
<path d="M156.199 163.212C157.115 164.653 156.995 166.396 155.984 167.009C154.974 167.622 153.374 167.009 152.458 165.584C151.543 164.16 151.662 162.44 152.673 161.788C153.684 161.135 155.284 161.772 156.199 163.212Z" fill="#F1C09A"/>
<path d="M151.24 146.727C151.455 146.552 151.24 146.186 151.017 146.361C149.808 147.348 149.155 148.709 149.585 149.943C149.153 149.704 148.667 149.582 148.173 149.591C147.68 149.599 147.198 149.737 146.775 149.991C146.552 150.142 146.775 150.508 147.006 150.357C147.347 150.147 147.737 150.03 148.137 150.016C148.538 150.002 148.935 150.092 149.29 150.278C148.255 150.373 147.308 151.424 146.783 152.467C146.655 152.713 147.037 152.92 147.157 152.673C147.778 151.448 149.035 150.086 150.293 151.026C150.388 151.122 150.489 151.212 150.596 151.296C150.638 151.335 150.694 151.356 150.751 151.354C150.809 151.352 150.863 151.327 150.902 151.284C150.941 151.242 150.962 151.186 150.96 151.129C150.957 151.071 150.932 151.017 150.89 150.978C150.79 150.876 150.684 150.78 150.572 150.691C149.322 149.426 149.887 147.818 151.24 146.727Z" fill="#263238"/>
<path d="M165.186 163.443C165.266 163.945 165.608 164.311 165.934 164.239C166.261 164.167 166.46 163.753 166.38 163.252C166.3 162.751 165.958 162.376 165.584 162.456C165.21 162.536 165.098 162.942 165.186 163.443Z" fill="#263238"/>
<path d="M170.893 163.475C170.973 163.976 171.307 164.343 171.641 164.271C171.976 164.199 172.167 163.785 172.087 163.276C172.008 162.766 171.665 162.408 171.331 162.48C170.997 162.551 170.806 162.965 170.893 163.475Z" fill="#263238"/>
<path d="M169.118 163.968C169.984 165.427 171.038 166.765 172.254 167.948C171.946 168.242 171.578 168.465 171.176 168.602C170.773 168.739 170.345 168.788 169.922 168.744L169.118 163.968Z" fill="#F1C09A"/>
<path d="M168.091 171.14C167.503 171.157 166.917 171.053 166.369 170.835C165.822 170.618 165.324 170.291 164.907 169.875C164.884 169.845 164.872 169.809 164.872 169.771C164.872 169.734 164.884 169.697 164.907 169.668C164.937 169.641 164.975 169.626 165.015 169.626C165.055 169.626 165.093 169.641 165.122 169.668V169.668C165.583 170.115 166.142 170.448 166.754 170.643C167.365 170.838 168.014 170.888 168.649 170.79C168.687 170.777 168.728 170.78 168.764 170.798C168.8 170.816 168.827 170.848 168.84 170.886C168.847 170.904 168.85 170.924 168.85 170.945C168.849 170.965 168.844 170.984 168.835 171.002C168.826 171.02 168.813 171.036 168.797 171.049C168.782 171.062 168.764 171.071 168.744 171.077H168.688C168.492 171.118 168.292 171.14 168.091 171.14V171.14Z" fill="#263238"/>
<path d="M164.024 161.079C163.977 161.065 163.933 161.04 163.896 161.007C163.852 160.945 163.834 160.867 163.846 160.791C163.858 160.716 163.899 160.647 163.96 160.601V160.601C164.345 160.323 164.793 160.144 165.264 160.08C165.734 160.017 166.213 160.07 166.659 160.235C166.694 160.25 166.726 160.272 166.753 160.299C166.78 160.326 166.801 160.359 166.815 160.394C166.829 160.43 166.836 160.468 166.835 160.506C166.834 160.545 166.826 160.582 166.81 160.617V160.617C166.795 160.654 166.773 160.687 166.745 160.714C166.718 160.742 166.685 160.764 166.648 160.779C166.612 160.794 166.573 160.801 166.534 160.801C166.495 160.8 166.456 160.792 166.42 160.776V160.776C166.073 160.651 165.701 160.611 165.335 160.659C164.969 160.708 164.621 160.844 164.318 161.055C164.276 161.086 164.227 161.105 164.175 161.109C164.122 161.114 164.07 161.103 164.024 161.079V161.079Z" fill="#263238"/>
<path d="M172.852 160.952C172.896 160.933 172.936 160.906 172.971 160.872C172.991 160.838 173.004 160.801 173.009 160.762C173.014 160.723 173.011 160.683 173.001 160.646C172.99 160.608 172.972 160.572 172.948 160.542C172.924 160.511 172.894 160.485 172.86 160.466V160.466C172.449 160.227 171.986 160.092 171.511 160.074C171.037 160.056 170.565 160.155 170.137 160.363C170.103 160.38 170.072 160.404 170.047 160.434C170.022 160.464 170.003 160.499 169.992 160.536C169.981 160.573 169.977 160.612 169.982 160.651C169.986 160.689 169.998 160.727 170.018 160.761V160.761C170.056 160.827 170.119 160.877 170.193 160.899C170.267 160.922 170.347 160.915 170.416 160.88V160.88C170.749 160.722 171.116 160.647 171.484 160.66C171.853 160.674 172.213 160.777 172.533 160.96C172.582 160.987 172.637 161.001 172.693 160.999C172.75 160.998 172.804 160.982 172.852 160.952V160.952Z" fill="#263238"/>
<path d="M141.593 182.228C141.593 182.228 118.978 180.215 104.507 187.554C104.507 187.554 102.175 192.194 104.786 195.928C107.397 199.661 116.216 214.626 116.216 214.626L117.434 221.79C117.434 221.79 116.869 226.056 119.026 227.473C121.183 228.89 126.556 226.231 126.867 223.923C127.177 221.615 122.258 212.134 122.258 212.134C122.258 212.134 117.028 196.859 114.998 193.293C114.998 193.293 134.946 195.299 141.943 193.158C141.959 193.158 145.851 189.488 141.593 182.228Z" fill="#F1C09A"/>
<path d="M141.847 181.361C141.847 181.361 135.161 180.653 130.703 181.306C130.703 181.306 129.907 180.39 127.997 181.815C128.983 185.9 128.929 190.167 127.838 194.225C128.753 194.642 129.789 194.71 130.751 194.416C130.751 194.416 138.95 196.804 142.811 194.185C145.453 192.394 148.375 187.873 141.847 181.361Z" fill="#263238"/>
</g>
<defs>
<clipPath id="clip0">
<rect width="405" height="405" fill="white"/>
</clipPath>
<clipPath id="clip1">
<rect width="64.3824" height="16.3882" fill="white" transform="translate(263.382 94.5474)"/>
</clipPath>
</defs>
</svg>
