<svg width="405" height="405" viewBox="0 0 405 405" fill="none" xmlns="http://www.w3.org/2000/svg">
<path opacity="0.4" d="M203 342.207C286.953 342.207 355.01 338.234 355.01 333.332C355.01 328.431 286.953 324.457 203 324.457C119.047 324.457 50.9902 328.431 50.9902 333.332C50.9902 338.234 119.047 342.207 203 342.207Z" fill="#23AEEA"/>
<path d="M106.262 161.871C101.079 161.871 98.6413 156.658 98.5393 156.438C98.4506 156.194 98.4569 155.926 98.5569 155.686C98.6569 155.446 98.8434 155.253 99.0793 155.145C99.3151 155.036 99.5832 155.02 99.8303 155.1C100.077 155.18 100.285 155.35 100.413 155.576C100.413 155.646 102.475 159.919 106.419 159.81C106.678 159.824 106.922 159.936 107.103 160.122C107.284 160.308 107.388 160.556 107.395 160.815C107.402 161.075 107.311 161.327 107.14 161.523C106.969 161.719 106.731 161.843 106.473 161.871H106.262Z" fill="#50B9E6"/>
<path d="M173.992 89.4691C173.541 89.4711 173.09 89.4423 172.643 89.3829C172.509 89.3628 172.381 89.3165 172.265 89.2468C172.149 89.177 172.048 89.0851 171.967 88.9762C171.887 88.8674 171.829 88.7438 171.796 88.6125C171.763 88.4811 171.757 88.3446 171.777 88.2108C171.797 88.0769 171.843 87.9484 171.913 87.8324C171.983 87.7164 172.075 87.6153 172.184 87.5349C172.292 87.4544 172.416 87.3962 172.547 87.3635C172.679 87.3309 172.815 87.3244 172.949 87.3445C172.996 87.3445 177.716 88.0109 179.786 84.6475C179.856 84.5322 179.949 84.4319 180.058 84.3524C180.167 84.2728 180.291 84.2156 180.423 84.1839C180.554 84.1523 180.69 84.1468 180.824 84.1678C180.957 84.1888 181.085 84.236 181.201 84.3065C181.316 84.377 181.416 84.4696 181.496 84.5788C181.575 84.6881 181.633 84.812 181.664 84.9434C181.696 85.0748 181.701 85.2112 181.68 85.3447C181.659 85.4782 181.612 85.6063 181.542 85.7216C179.48 88.983 175.913 89.4691 173.992 89.4691Z" fill="#50B9E6"/>
<path opacity="0.6" d="M173.992 89.4691C173.541 89.4711 173.09 89.4423 172.643 89.3829C172.509 89.3628 172.381 89.3165 172.265 89.2468C172.149 89.177 172.048 89.0851 171.967 88.9762C171.887 88.8674 171.829 88.7438 171.796 88.6125C171.763 88.4811 171.757 88.3446 171.777 88.2108C171.797 88.0769 171.843 87.9484 171.913 87.8324C171.983 87.7164 172.075 87.6153 172.184 87.5349C172.292 87.4544 172.416 87.3962 172.547 87.3635C172.679 87.3309 172.815 87.3244 172.949 87.3445C172.996 87.3445 177.716 88.0109 179.786 84.6475C179.856 84.5322 179.949 84.4319 180.058 84.3524C180.167 84.2728 180.291 84.2156 180.423 84.1839C180.554 84.1523 180.69 84.1468 180.824 84.1678C180.957 84.1888 181.085 84.236 181.201 84.3065C181.316 84.377 181.416 84.4696 181.496 84.5788C181.575 84.6881 181.633 84.812 181.664 84.9434C181.696 85.0748 181.701 85.2112 181.68 85.3447C181.659 85.4782 181.612 85.6063 181.542 85.7216C179.48 88.983 175.913 89.4691 173.992 89.4691Z" fill="white"/>
<path d="M57.6463 128.732C55.6572 128.664 53.7255 128.048 52.0642 126.952C51.947 126.877 51.8463 126.779 51.7682 126.664C51.6901 126.548 51.6363 126.419 51.6099 126.282C51.5835 126.145 51.5852 126.005 51.6149 125.869C51.6445 125.733 51.7015 125.604 51.7823 125.491C51.8632 125.377 51.9662 125.282 52.0852 125.21C52.2042 125.137 52.3366 125.09 52.4744 125.07C52.6122 125.051 52.7526 125.06 52.8869 125.096C53.0212 125.132 53.1468 125.196 53.2559 125.282V125.282C53.2951 125.282 57.2465 127.956 60.5785 125.831C60.6926 125.748 60.8225 125.689 60.9601 125.658C61.0978 125.627 61.2403 125.625 61.379 125.651C61.5177 125.677 61.6495 125.731 61.7664 125.81C61.8833 125.889 61.9829 125.991 62.0589 126.11C62.1349 126.229 62.1859 126.362 62.2085 126.502C62.2312 126.641 62.2252 126.783 62.1908 126.92C62.1564 127.057 62.0944 127.185 62.0086 127.297C61.9228 127.409 61.8149 127.503 61.6918 127.571C60.484 128.342 59.0787 128.745 57.6463 128.732Z" fill="#50B9E6"/>
<path opacity="0.6" d="M57.6463 128.732C55.6572 128.664 53.7255 128.048 52.0642 126.952C51.947 126.877 51.8463 126.779 51.7682 126.664C51.6901 126.548 51.6363 126.419 51.6099 126.282C51.5835 126.145 51.5852 126.005 51.6149 125.869C51.6445 125.733 51.7015 125.604 51.7823 125.491C51.8632 125.377 51.9662 125.282 52.0852 125.21C52.2042 125.137 52.3366 125.09 52.4744 125.07C52.6122 125.051 52.7526 125.06 52.8869 125.096C53.0212 125.132 53.1468 125.196 53.2559 125.282V125.282C53.2951 125.282 57.2465 127.956 60.5785 125.831C60.6926 125.748 60.8225 125.689 60.9601 125.658C61.0978 125.627 61.2403 125.625 61.379 125.651C61.5177 125.677 61.6495 125.731 61.7664 125.81C61.8833 125.889 61.9829 125.991 62.0589 126.11C62.1349 126.229 62.1859 126.362 62.2085 126.502C62.2312 126.641 62.2252 126.783 62.1908 126.92C62.1564 127.057 62.0944 127.185 62.0086 127.297C61.9228 127.409 61.8149 127.503 61.6918 127.571C60.484 128.342 59.0787 128.745 57.6463 128.732Z" fill="white"/>
<path d="M326.581 101.237C324.595 101.183 322.662 100.587 320.991 99.5121C320.767 99.3572 320.613 99.1194 320.564 98.8511C320.515 98.5827 320.574 98.3058 320.729 98.0813C320.884 97.8567 321.121 97.7029 321.39 97.6536C321.658 97.6044 321.935 97.6637 322.16 97.8186V97.8186C322.199 97.8186 326.158 100.484 329.49 98.3674C329.604 98.2949 329.731 98.2454 329.864 98.2219C329.996 98.1983 330.133 98.2012 330.264 98.2303C330.396 98.2595 330.521 98.3143 330.632 98.3916C330.742 98.4689 330.836 98.5673 330.909 98.681C330.982 98.7948 331.031 98.9218 331.055 99.0546C331.078 99.1875 331.075 99.3237 331.046 99.4555C331.017 99.5873 330.962 99.712 330.885 99.8226C330.808 99.9332 330.709 100.027 330.595 100.1C329.396 100.86 328.001 101.255 326.581 101.237V101.237Z" fill="#50B9E6"/>
<path opacity="0.6" d="M326.581 101.237C324.595 101.183 322.662 100.587 320.991 99.5121C320.767 99.3572 320.613 99.1194 320.564 98.8511C320.515 98.5827 320.574 98.3058 320.729 98.0813C320.884 97.8567 321.121 97.7029 321.39 97.6536C321.658 97.6044 321.935 97.6637 322.16 97.8186V97.8186C322.199 97.8186 326.158 100.484 329.49 98.3674C329.604 98.2949 329.731 98.2454 329.864 98.2219C329.996 98.1983 330.133 98.2012 330.264 98.2303C330.396 98.2595 330.521 98.3143 330.632 98.3916C330.742 98.4689 330.836 98.5673 330.909 98.681C330.982 98.7948 331.031 98.9218 331.055 99.0546C331.078 99.1875 331.075 99.3237 331.046 99.4555C331.017 99.5873 330.962 99.712 330.885 99.8226C330.808 99.9332 330.709 100.027 330.595 100.1C329.396 100.86 328.001 101.255 326.581 101.237V101.237Z" fill="white"/>
<path d="M200.499 182.216C195.693 182.216 193.074 177.559 192.956 177.348C192.824 177.108 192.793 176.827 192.868 176.564C192.944 176.302 193.121 176.08 193.36 175.948C193.599 175.816 193.881 175.784 194.144 175.86C194.406 175.936 194.628 176.113 194.76 176.352C194.76 176.415 197.112 180.523 201.032 180.123C201.294 180.114 201.55 180.205 201.747 180.377C201.945 180.549 202.07 180.79 202.097 181.051C202.124 181.312 202.051 181.573 201.892 181.782C201.734 181.991 201.502 182.132 201.243 182.177C201.008 182.201 200.749 182.216 200.499 182.216Z" fill="#50B9E6"/>
<path opacity="0.6" d="M200.499 182.216C195.693 182.216 193.074 177.559 192.956 177.348C192.824 177.108 192.793 176.827 192.868 176.564C192.944 176.302 193.121 176.08 193.36 175.948C193.599 175.816 193.881 175.784 194.144 175.86C194.406 175.936 194.628 176.113 194.76 176.352C194.76 176.415 197.112 180.523 201.032 180.123C201.294 180.114 201.55 180.205 201.747 180.377C201.945 180.549 202.07 180.79 202.097 181.051C202.124 181.312 202.051 181.573 201.892 181.782C201.734 181.991 201.502 182.132 201.243 182.177C201.008 182.201 200.749 182.216 200.499 182.216Z" fill="white"/>
<path d="M68.9359 203.157C68.6862 203.155 68.4458 203.062 68.2597 202.895C68.0737 202.729 67.9546 202.5 67.9248 202.252C67.895 202.004 67.9566 201.754 68.0979 201.548C68.2393 201.343 68.4508 201.195 68.6928 201.134V201.134C68.7399 201.134 73.3419 199.919 73.9691 196.015C73.9908 195.881 74.0384 195.753 74.1094 195.639C74.1804 195.524 74.2734 195.424 74.3829 195.345C74.4925 195.266 74.6165 195.209 74.748 195.178C74.8794 195.147 75.0157 195.142 75.1491 195.164C75.2824 195.186 75.4101 195.233 75.5251 195.304C75.64 195.375 75.7398 195.468 75.8187 195.578C75.8977 195.687 75.9544 195.811 75.9854 195.943C76.0165 196.074 76.0213 196.21 75.9997 196.344C75.1608 201.604 69.4298 203.071 69.1867 203.133C69.104 203.149 69.02 203.157 68.9359 203.157Z" fill="#50B9E6"/>
<path opacity="0.6" d="M68.9359 203.157C68.6862 203.155 68.4458 203.062 68.2597 202.895C68.0737 202.729 67.9546 202.5 67.9248 202.252C67.895 202.004 67.9566 201.754 68.0979 201.548C68.2393 201.343 68.4508 201.195 68.6928 201.134V201.134C68.7399 201.134 73.3419 199.919 73.9691 196.015C73.9908 195.881 74.0384 195.753 74.1094 195.639C74.1804 195.524 74.2734 195.424 74.3829 195.345C74.4925 195.266 74.6165 195.209 74.748 195.178C74.8794 195.147 75.0157 195.142 75.1491 195.164C75.2824 195.186 75.4101 195.233 75.5251 195.304C75.64 195.375 75.7398 195.468 75.8187 195.578C75.8977 195.687 75.9544 195.811 75.9854 195.943C76.0165 196.074 76.0213 196.21 75.9997 196.344C75.1608 201.604 69.4298 203.071 69.1867 203.133C69.104 203.149 69.02 203.157 68.9359 203.157Z" fill="black"/>
<path d="M297.864 131.695C297.608 131.704 297.357 131.616 297.162 131.45C296.967 131.283 296.841 131.049 296.81 130.795C296.779 130.54 296.844 130.283 296.992 130.074C297.141 129.865 297.363 129.719 297.614 129.665C297.661 129.665 302.263 128.457 302.89 124.553C302.903 124.412 302.945 124.275 303.013 124.15C303.081 124.026 303.174 123.916 303.286 123.829C303.398 123.743 303.527 123.68 303.665 123.644C303.802 123.609 303.945 123.603 304.085 123.626C304.226 123.648 304.36 123.699 304.479 123.776C304.598 123.853 304.701 123.953 304.78 124.071C304.859 124.189 304.913 124.322 304.938 124.461C304.964 124.601 304.961 124.744 304.928 124.882C304.082 130.143 298.35 131.609 298.107 131.664C298.028 131.686 297.947 131.696 297.864 131.695V131.695Z" fill="#50B9E6"/>
<path opacity="0.6" d="M297.864 131.695C297.608 131.704 297.357 131.616 297.162 131.45C296.967 131.283 296.841 131.049 296.81 130.795C296.779 130.54 296.844 130.283 296.992 130.074C297.141 129.865 297.363 129.719 297.614 129.665C297.661 129.665 302.263 128.457 302.89 124.553C302.903 124.412 302.945 124.275 303.013 124.15C303.081 124.026 303.174 123.916 303.286 123.829C303.398 123.743 303.527 123.68 303.665 123.644C303.802 123.609 303.945 123.603 304.085 123.626C304.226 123.648 304.36 123.699 304.479 123.776C304.598 123.853 304.701 123.953 304.78 124.071C304.859 124.189 304.913 124.322 304.938 124.461C304.964 124.601 304.961 124.744 304.928 124.882C304.082 130.143 298.35 131.609 298.107 131.664C298.028 131.686 297.947 131.696 297.864 131.695V131.695Z" fill="black"/>
<path d="M339.989 170.786H339.816C339.565 170.739 333.748 169.672 332.549 164.514C332.517 164.381 332.513 164.243 332.536 164.108C332.558 163.974 332.608 163.845 332.681 163.73C332.754 163.614 332.849 163.515 332.961 163.437C333.073 163.359 333.199 163.304 333.333 163.275C333.465 163.245 333.603 163.241 333.737 163.264C333.871 163.287 334 163.337 334.115 163.41C334.23 163.483 334.329 163.577 334.408 163.689C334.486 163.8 334.542 163.926 334.571 164.059C335.465 167.9 340.138 168.763 340.185 168.763C340.432 168.816 340.651 168.957 340.801 169.16C340.951 169.363 341.021 169.614 340.999 169.866C340.977 170.117 340.864 170.352 340.68 170.526C340.497 170.7 340.257 170.8 340.004 170.809L339.989 170.786Z" fill="#50B9E6"/>
<path d="M321.611 208.582C319.816 208.61 318.07 207.996 316.688 206.85C316.573 206.767 316.476 206.662 316.403 206.54C316.33 206.419 316.284 206.283 316.266 206.143C316.248 206.002 316.26 205.86 316.3 205.724C316.34 205.588 316.407 205.462 316.498 205.353C316.59 205.245 316.702 205.156 316.829 205.094C316.956 205.031 317.095 204.995 317.236 204.988C317.377 204.981 317.519 205.004 317.651 205.054C317.783 205.105 317.904 205.182 318.005 205.282C321.039 207.806 325.296 205.689 325.343 205.666C325.586 205.541 325.869 205.518 326.13 205.602C326.39 205.686 326.606 205.869 326.731 206.113C326.856 206.356 326.879 206.639 326.795 206.899C326.711 207.159 326.527 207.375 326.284 207.5C324.823 208.195 323.229 208.564 321.611 208.582Z" fill="#50B9E6"/>
<path d="M273.56 79.9121C273.381 79.9134 273.205 79.8674 273.05 79.7788C272.839 79.6612 267.719 76.6977 268.346 71.4057C268.377 71.1343 268.515 70.8865 268.729 70.7167C268.943 70.5468 269.216 70.469 269.487 70.5001C269.758 70.5313 270.006 70.669 270.176 70.883C270.346 71.0969 270.424 71.3695 270.392 71.6409C269.946 75.5609 274.054 77.9678 274.093 77.9913C274.293 78.1041 274.449 78.2804 274.536 78.4922C274.624 78.7041 274.639 78.9391 274.577 79.1601C274.516 79.381 274.382 79.5751 274.198 79.7113C274.014 79.8476 273.789 79.9183 273.56 79.9121V79.9121Z" fill="#50B9E6"/>
<path d="M68.7713 84.0908C68.6364 84.0964 68.5017 84.0755 68.3749 84.0291C68.2482 83.9827 68.1318 83.9118 68.0324 83.8204C67.933 83.7291 67.8526 83.619 67.7958 83.4966C67.7389 83.3742 67.7068 83.2417 67.7011 83.1068C67.6954 82.972 67.7164 82.8373 67.7628 82.7105C67.8092 82.5838 67.8801 82.4674 67.9714 82.368C68.0628 82.2686 68.1728 82.1882 68.2953 82.1314C68.4177 82.0745 68.5501 82.0423 68.685 82.0367C72.605 81.6917 74.173 77.1916 74.173 77.1445C74.2641 76.8943 74.4487 76.6893 74.6881 76.5726C74.9274 76.4559 75.2027 76.4368 75.4558 76.5191C75.709 76.6015 75.9203 76.779 76.0452 77.0141C76.1701 77.2492 76.1987 77.5237 76.1252 77.7796C76.0546 78.0226 74.173 83.6282 68.8653 84.0516L68.7713 84.0908Z" fill="#50B9E6"/>
<path d="M145.266 115.114C142.483 116.415 140.029 122.671 140.829 131.656C141.628 140.641 123.016 134.337 120.484 144.404C115.913 162.624 146.56 173.577 159.621 162.624C167.704 155.85 175.301 133.522 174.188 121.339C172.996 108.238 152.675 99.4493 145.266 115.114Z" fill="#263238"/>
<path d="M174.674 138.1C175.019 137.998 175.521 137.849 175.952 137.708L177.301 137.254C178.202 136.94 179.096 136.595 179.982 136.227C181.747 135.502 183.469 134.677 185.141 133.757C188.416 132.01 191.363 129.707 193.851 126.952C196.07 124.318 197.661 120.727 198.908 117.042C199.543 115.192 200.076 113.287 200.531 111.35C200.985 109.414 201.417 107.43 201.746 105.525L204.945 105.721C204.95 109.961 204.49 114.188 203.573 118.328C203.106 120.449 202.474 122.53 201.683 124.553C200.863 126.688 199.764 128.705 198.414 130.55C195.652 134.091 192.228 137.06 188.332 139.292C186.454 140.402 184.506 141.387 182.499 142.24C181.495 142.663 180.484 143.024 179.449 143.408C178.939 143.588 178.422 143.761 177.881 143.918C177.34 144.074 176.862 144.223 176.219 144.38L174.674 138.1Z" fill="#F0BCAA"/>
<path d="M204.929 106.795L206.262 102.005L200.97 102.413C200.97 102.413 200.593 105.549 202.42 107.438L204.929 106.795Z" fill="#F0BCAA"/>
<path d="M207.054 96.4309L202.224 97.6931L200.97 102.413L206.262 102.005L207.054 96.4309Z" fill="#F0BCAA"/>
<path d="M168.684 139.324C171.123 137.105 177.308 135.404 177.308 135.404L184.09 145.596C184.09 145.596 176.352 150.762 173.067 149.563C169.649 148.371 166.411 141.385 168.684 139.324Z" fill="#50B9E6"/>
<path d="M146.349 284.293L150.575 288.934L162.703 280.295L158.478 275.653L146.349 284.293Z" fill="#F0BCAA"/>
<path d="M122.5 302.631L128.168 305.445L136.502 293.223L130.833 290.408L122.5 302.631Z" fill="#F0BCAA"/>
<path d="M129.069 304.747L124.695 299.142C124.621 299.044 124.514 298.977 124.394 298.952C124.275 298.928 124.15 298.948 124.044 299.009L119.112 301.831C118.99 301.906 118.886 302.005 118.805 302.123C118.724 302.241 118.669 302.375 118.644 302.516C118.619 302.657 118.624 302.801 118.659 302.94C118.694 303.079 118.757 303.208 118.846 303.321C120.414 305.249 121.253 306.104 123.181 308.573C124.357 310.086 126.756 313.614 128.387 315.708C130.018 317.801 132.182 316.304 131.688 315.284C129.477 310.714 129.336 308.001 129.414 305.822C129.43 305.434 129.308 305.053 129.069 304.747Z" fill="#263238"/>
<path d="M151.837 289.021L148.951 282.09C148.9 281.966 148.81 281.862 148.693 281.796C148.577 281.729 148.441 281.703 148.309 281.722L142.193 282.506C142.048 282.521 141.908 282.571 141.785 282.651C141.663 282.731 141.561 282.839 141.488 282.966C141.416 283.093 141.374 283.235 141.367 283.382C141.36 283.528 141.388 283.674 141.449 283.807C142.499 286.214 143.134 287.335 144.404 290.385C145.188 292.258 147.007 297.182 148.081 299.793C149.155 302.403 151.915 301.784 151.711 300.639C150.794 295.512 151.107 292.204 151.868 290.189C151.94 290.002 151.974 289.802 151.969 289.601C151.964 289.401 151.919 289.204 151.837 289.021V289.021Z" fill="#263238"/>
<path opacity="0.2" d="M162.695 280.295L156.446 284.748L151.719 280.467L158.469 275.653L162.695 280.295Z" fill="black"/>
<path opacity="0.2" d="M130.833 290.408L136.501 293.223L132.197 299.526L126.529 296.704L130.833 290.408Z" fill="black"/>
<path d="M177.222 140.115C177.222 140.115 177.41 139.833 173.976 177.293L148.34 179.088C148.042 168.629 148.826 161.244 143.941 139.755C147.543 139.029 151.193 138.568 154.863 138.375C158.748 138.116 162.646 138.137 166.528 138.438C171.538 138.916 177.222 140.115 177.222 140.115Z" fill="#50B9E6"/>
<path d="M145.871 145.964C143.965 145.086 142.295 144.145 140.563 143.149C138.83 142.154 137.192 141.087 135.561 139.958C132.242 137.705 129.156 135.126 126.349 132.26L125.314 131.138L125.047 130.856C124.895 130.681 124.751 130.497 124.616 130.307C124.374 129.962 124.164 129.594 123.989 129.21C123.47 127.985 123.203 126.667 123.205 125.337C123.223 123.219 123.507 121.112 124.052 119.065C125.047 115.234 126.429 111.515 128.176 107.963L131.171 109.124C130.708 110.903 130.269 112.754 129.877 114.565C129.485 116.376 129.156 118.202 128.936 119.99C128.682 121.671 128.613 123.374 128.732 125.07C128.771 125.657 128.92 126.232 129.171 126.764C129.171 126.819 129.25 126.881 129.273 126.889C129.297 126.897 129.273 126.889 129.273 126.889L129.516 127.117L130.481 128.034C133.172 130.471 136.056 132.687 139.105 134.659C140.633 135.67 142.241 136.595 143.809 137.528C145.377 138.461 147.062 139.347 148.591 140.123L145.871 145.964Z" fill="#F0BCAA"/>
<path d="M154.031 141.189C151.123 137.136 145.407 137.199 145.407 137.199L138.516 147.391C138.516 147.391 146.207 152.628 149.492 151.46C152.973 150.221 155.827 143.682 154.031 141.189Z" fill="#50B9E6"/>
<path d="M166.529 138.437L154.863 138.375C153.075 139.096 152.04 143.745 163.879 147.681C172.087 143.016 167.72 138.869 166.529 138.437Z" fill="white"/>
<path d="M156.086 125.243C156.799 128.998 157.497 135.882 154.863 138.375C154.863 138.375 155.882 142.193 163.879 147.681C169.484 142.06 166.529 138.438 166.529 138.438C162.35 137.411 162.475 134.306 163.22 131.382L156.086 125.243Z" fill="#F0BCAA"/>
<path d="M180.265 162.53H180.139C179.726 162.496 179.343 162.299 179.074 161.983C178.805 161.667 178.672 161.258 178.705 160.844C178.987 157.347 176.353 154.705 173.326 151.64C169.853 148.136 165.91 144.161 165.753 137.975C165.743 137.559 165.898 137.156 166.184 136.855C166.471 136.553 166.866 136.378 167.282 136.368C167.698 136.357 168.101 136.513 168.402 136.799C168.703 137.086 168.879 137.481 168.889 137.896C169.014 142.836 172.339 146.191 175.553 149.437C178.767 152.683 182.225 156.164 181.825 161.095C181.792 161.486 181.613 161.85 181.324 162.116C181.035 162.382 180.657 162.529 180.265 162.53V162.53Z" fill="#263238"/>
<path d="M157.348 170.464C157.222 170.463 157.095 170.448 156.972 170.417C156.569 170.317 156.222 170.061 156.007 169.705C155.793 169.349 155.728 168.923 155.827 168.52C157.341 162.373 155.357 157.544 153.256 152.463C151.374 147.9 149.43 143.181 150.371 137.661C150.452 137.262 150.686 136.909 151.022 136.679C151.359 136.449 151.772 136.359 152.174 136.428C152.576 136.498 152.935 136.721 153.175 137.051C153.415 137.38 153.517 137.791 153.46 138.194C152.676 142.82 154.361 146.928 156.149 151.272C158.25 156.36 160.626 162.13 158.869 169.304C158.779 169.638 158.581 169.933 158.306 170.143C158.031 170.352 157.694 170.465 157.348 170.464Z" fill="#263238"/>
<path opacity="0.2" d="M161.746 130.088L158.61 130.456C158.762 131.301 159.065 132.111 159.504 132.848C160.123 133.781 161.503 134.188 162.867 134.227C162.866 133.257 162.998 132.292 163.259 131.358L161.746 130.088Z" fill="black"/>
<path d="M149.147 121.464C151.444 127.313 152.283 129.837 156.289 131.922C162.311 135.058 168.99 130.974 168.488 124.561C168.042 118.783 164.365 110.19 157.756 109.704C156.3 109.59 154.84 109.851 153.513 110.46C152.186 111.069 151.037 112.008 150.175 113.186C149.313 114.364 148.766 115.742 148.586 117.191C148.406 118.64 148.599 120.111 149.147 121.464V121.464Z" fill="#F0BCAA"/>
<path d="M155.443 108.857C159.904 111.601 156.086 127.744 148.536 126.889C140.986 126.035 148.85 104.804 155.443 108.857Z" fill="#263238"/>
<path d="M155.278 108.92C151.915 111.154 154.212 115.043 165.549 112.738C165.549 112.73 160.86 105.204 155.278 108.92Z" fill="#263238"/>
<path d="M149.962 127.148C150.458 128.256 151.371 129.124 152.502 129.563C154.016 130.127 154.902 128.779 154.604 127.313C154.329 125.972 153.216 124.051 151.648 124.13C151.305 124.153 150.974 124.261 150.684 124.445C150.393 124.628 150.154 124.882 149.986 125.181C149.819 125.481 149.729 125.818 149.725 126.162C149.721 126.505 149.802 126.844 149.962 127.148V127.148Z" fill="#F0BCAA"/>
<path d="M173.992 177.293C173.992 177.293 187.712 222.083 188.818 241.353C189.962 261.4 160.194 285.187 160.194 285.187L152.785 277.057C152.785 277.057 176.972 256.516 173.655 241.636C169.069 221.126 155.176 178.61 155.176 178.61L173.992 177.293Z" fill="#263238"/>
<path opacity="0.2" d="M165.439 191.953C164.185 188.033 161.394 190.668 160.421 194.823C162.358 201.095 164.6 208.433 166.733 215.779C167.556 209.272 167.893 199.637 165.439 191.953Z" fill="black"/>
<path d="M150.778 276.665L160.178 286.363L164.193 284.144L154.259 273.333L150.778 276.665Z" fill="#50B9E6"/>
<path d="M167.211 177.771C167.211 177.771 163.291 221.675 159.371 246.128C156.196 265.885 134.628 298.154 134.628 298.154L126.725 294.477C126.725 294.477 141.221 259.926 143.479 246.496C150.723 203.509 140.939 191.107 148.348 179.072L167.211 177.771Z" fill="#263238"/>
<path d="M126.168 294.563L135.082 298.938L138.006 295.308L127.579 290.393L126.168 294.563Z" fill="#50B9E6"/>
<path d="M147.853 177.614L146.858 179.966C146.779 180.146 146.999 180.319 147.297 180.295L174.188 178.414C174.415 178.414 174.604 178.273 174.604 178.124L174.674 175.772C174.674 175.615 174.47 175.497 174.219 175.513L148.253 177.332C148.166 177.335 148.082 177.363 148.011 177.413C147.94 177.463 147.885 177.533 147.853 177.614V177.614Z" fill="white"/>
<path d="M151.538 180.264L150.849 180.311C150.707 180.311 150.598 180.256 150.598 180.17L150.715 177.167C150.715 177.081 150.841 176.995 150.974 176.987L151.672 176.94C151.813 176.94 151.923 176.995 151.915 177.081L151.797 180.084C151.797 180.185 151.68 180.264 151.538 180.264Z" fill="#263238"/>
<path d="M172.252 178.821L171.554 178.868C171.413 178.868 171.304 178.814 171.311 178.727L171.429 175.725C171.429 175.638 171.547 175.56 171.688 175.544L172.378 175.497C172.519 175.497 172.629 175.552 172.629 175.638L172.511 178.649C172.503 178.735 172.425 178.814 172.252 178.821Z" fill="#263238"/>
<path d="M161.895 179.55L161.198 179.597C161.064 179.597 160.955 179.543 160.955 179.456L161.072 176.446C161.072 176.36 161.19 176.281 161.331 176.273L162.029 176.226C162.162 176.226 162.272 176.281 162.272 176.367L162.154 179.37C162.154 179.48 162.037 179.535 161.895 179.55Z" fill="#263238"/>
<path d="M158.595 119.269C158.218 119.394 158.061 119.959 158.25 120.539L159.622 120.1C159.433 119.52 158.971 119.112 158.595 119.269Z" fill="#263238"/>
<path d="M164.585 117.371C164.201 117.497 164.044 118.069 164.232 118.649L165.612 118.203C165.369 117.622 164.922 117.254 164.585 117.371Z" fill="#263238"/>
<path d="M164.388 117.458L165.65 116.611C165.65 116.611 165.29 117.928 164.388 117.458Z" fill="#263238"/>
<path d="M163.016 119.739C163.804 120.708 164.722 121.562 165.744 122.279C165.555 122.537 165.312 122.749 165.031 122.902C164.751 123.055 164.44 123.145 164.122 123.165L163.016 119.739Z" fill="#CD9C8A"/>
<path d="M163.111 125.603C163.134 125.583 163.15 125.557 163.159 125.528C163.167 125.499 163.167 125.468 163.158 125.439C163.145 125.401 163.118 125.37 163.083 125.353C163.048 125.335 163.007 125.332 162.969 125.345C162.37 125.552 161.73 125.616 161.101 125.532C160.472 125.448 159.871 125.217 159.347 124.859C159.334 124.845 159.317 124.834 159.299 124.826C159.281 124.818 159.261 124.814 159.242 124.814C159.222 124.814 159.202 124.818 159.184 124.826C159.166 124.834 159.15 124.845 159.136 124.859C159.121 124.872 159.109 124.888 159.1 124.906C159.092 124.925 159.088 124.944 159.088 124.964C159.088 124.984 159.092 125.004 159.1 125.022C159.109 125.041 159.121 125.057 159.136 125.07C159.696 125.472 160.345 125.731 161.028 125.827C161.711 125.923 162.407 125.851 163.056 125.619L163.111 125.603Z" fill="#263238"/>
<path d="M156.612 118.916C156.651 118.883 156.681 118.84 156.698 118.791C156.806 118.426 157 118.092 157.265 117.819C157.53 117.546 157.857 117.342 158.219 117.223C158.257 117.213 158.293 117.197 158.324 117.174C158.356 117.15 158.383 117.121 158.403 117.088C158.424 117.054 158.437 117.017 158.443 116.978C158.449 116.94 158.448 116.9 158.438 116.862C158.429 116.824 158.412 116.788 158.389 116.756C158.366 116.725 158.337 116.698 158.303 116.678C158.27 116.657 158.233 116.644 158.194 116.638C158.155 116.632 158.116 116.633 158.078 116.642C157.623 116.786 157.21 117.035 156.871 117.371C156.533 117.706 156.28 118.118 156.133 118.571C156.108 118.646 156.114 118.728 156.15 118.798C156.185 118.869 156.247 118.922 156.321 118.947C156.368 118.969 156.42 118.978 156.471 118.972C156.522 118.967 156.571 118.947 156.612 118.916V118.916Z" fill="#263238"/>
<path d="M166.003 115.043C166.02 115.034 166.034 115.021 166.042 115.004C166.068 114.973 166.086 114.938 166.098 114.9C166.109 114.862 166.112 114.822 166.108 114.782C166.104 114.743 166.091 114.705 166.072 114.67C166.053 114.635 166.027 114.605 165.995 114.581C165.629 114.277 165.195 114.065 164.73 113.963C164.265 113.861 163.782 113.871 163.322 113.993C163.284 114.005 163.249 114.025 163.219 114.051C163.189 114.077 163.164 114.109 163.147 114.145C163.129 114.181 163.119 114.22 163.117 114.259C163.114 114.299 163.12 114.339 163.134 114.377C163.161 114.45 163.214 114.511 163.284 114.546C163.354 114.581 163.435 114.588 163.51 114.565C163.875 114.471 164.257 114.466 164.624 114.551C164.991 114.635 165.332 114.807 165.619 115.051C165.674 115.095 165.742 115.119 165.813 115.117C165.883 115.116 165.95 115.09 166.003 115.043V115.043Z" fill="#263238"/>
<path d="M134.596 110.276C134.406 110.276 134.219 110.224 134.056 110.127L110.206 95.4352C109.997 95.2812 109.854 95.0543 109.804 94.7994C109.755 94.5445 109.803 94.2803 109.939 94.0592C110.075 93.8381 110.289 93.6763 110.539 93.6059C110.789 93.5355 111.057 93.5616 111.288 93.6791L135.137 108.371C135.33 108.488 135.478 108.664 135.561 108.874C135.643 109.083 135.654 109.314 135.593 109.53C135.531 109.746 135.401 109.936 135.221 110.071C135.041 110.206 134.821 110.278 134.596 110.276V110.276Z" fill="#50B9E6"/>
<path d="M115.608 97.058C116.949 97.0032 118.328 96.9404 118.509 95.7331C118.689 94.5257 117.395 94.0632 116.157 93.6084L115.82 93.483C115.82 93.3654 115.765 93.2478 115.733 93.138L116.008 92.8323C116.886 91.8601 117.803 90.8566 117.09 89.9001C116.376 88.9436 115.153 89.5081 113.954 90.0648L113.585 90.2372C113.483 90.1667 113.381 90.1118 113.272 90.0491C113.162 89.9864 113.272 89.7982 113.272 89.6884C113.209 88.3556 113.146 86.9758 111.947 86.7955C110.747 86.6152 110.277 87.9088 109.822 89.1475C109.783 89.2494 109.744 89.367 109.697 89.4846L109.344 89.5708L109.046 89.3043C108.074 88.4184 107.07 87.5089 106.114 88.2145C105.157 88.9201 105.722 90.151 106.278 91.3505L106.451 91.719C106.382 91.8173 106.32 91.9194 106.263 92.0248H105.902C104.569 92.0875 103.182 92.1502 103.001 93.3576C102.821 94.5649 104.122 95.0275 105.353 95.4822L105.69 95.6076C105.69 95.7252 105.745 95.8428 105.777 95.9526C105.682 96.0624 105.588 96.1721 105.502 96.2584C104.624 97.2305 103.715 98.2262 104.42 99.1905C105.126 100.155 106.357 99.5747 107.556 99.0259L107.933 98.8534L108.238 99.0416C108.238 99.167 108.238 99.2924 108.238 99.4022C108.301 100.735 108.364 102.115 109.563 102.295C110.763 102.475 111.241 101.182 111.696 99.9432C111.696 99.8491 111.774 99.7315 111.813 99.606C111.933 99.5847 112.05 99.5559 112.166 99.5198L112.472 99.7942C113.436 100.672 114.44 101.59 115.404 100.884C116.368 100.178 115.788 98.9475 115.232 97.748C115.185 97.646 115.122 97.5128 115.067 97.3795L115.255 97.0737L115.608 97.058Z" fill="#50B9E6"/>
<path opacity="0.7" d="M115.608 97.058C116.949 97.0032 118.328 96.9404 118.509 95.7331C118.689 94.5257 117.395 94.0632 116.157 93.6084L115.82 93.483C115.82 93.3654 115.765 93.2478 115.733 93.138L116.008 92.8323C116.886 91.8601 117.803 90.8566 117.09 89.9001C116.376 88.9436 115.153 89.5081 113.954 90.0648L113.585 90.2372C113.483 90.1667 113.381 90.1118 113.272 90.0491C113.162 89.9864 113.272 89.7982 113.272 89.6884C113.209 88.3556 113.146 86.9758 111.947 86.7955C110.747 86.6152 110.277 87.9088 109.822 89.1475C109.783 89.2494 109.744 89.367 109.697 89.4846L109.344 89.5708L109.046 89.3043C108.074 88.4184 107.07 87.5089 106.114 88.2145C105.157 88.9201 105.722 90.151 106.278 91.3505L106.451 91.719C106.382 91.8173 106.32 91.9194 106.263 92.0248H105.902C104.569 92.0875 103.182 92.1502 103.001 93.3576C102.821 94.5649 104.122 95.0275 105.353 95.4822L105.69 95.6076C105.69 95.7252 105.745 95.8428 105.777 95.9526C105.682 96.0624 105.588 96.1721 105.502 96.2584C104.624 97.2305 103.715 98.2262 104.42 99.1905C105.126 100.155 106.357 99.5747 107.556 99.0259L107.933 98.8534L108.238 99.0416C108.238 99.167 108.238 99.2924 108.238 99.4022C108.301 100.735 108.364 102.115 109.563 102.295C110.763 102.475 111.241 101.182 111.696 99.9432C111.696 99.8491 111.774 99.7315 111.813 99.606C111.933 99.5847 112.05 99.5559 112.166 99.5198L112.472 99.7942C113.436 100.672 114.44 101.59 115.404 100.884C116.368 100.178 115.788 98.9475 115.232 97.748C115.185 97.646 115.122 97.5128 115.067 97.3795L115.255 97.0737L115.608 97.058Z" fill="white"/>
<path d="M127.478 110.527L126.498 104.255L132.895 107.391C132.654 108.447 132.109 109.409 131.327 110.159C131.005 110.525 130.586 110.793 130.119 110.932C129.652 111.07 129.154 111.074 128.685 110.943L127.478 110.527Z" fill="#F0BCAA"/>
<path d="M130.088 101.182L133.365 104.059L132.895 107.352L126.498 104.247L130.088 101.182Z" fill="#F0BCAA"/>
<path d="M131.124 307.75C131.19 307.703 131.253 307.65 131.312 307.593C131.379 307.532 131.428 307.454 131.455 307.367C131.481 307.28 131.483 307.188 131.461 307.1C131.273 306.316 129.109 305.532 128.866 305.477C128.839 305.465 128.809 305.463 128.781 305.47C128.752 305.477 128.727 305.493 128.709 305.516C128.693 305.54 128.684 305.569 128.684 305.598C128.684 305.627 128.693 305.656 128.709 305.681C129.062 306.465 129.767 307.75 130.559 307.884C130.757 307.913 130.959 307.865 131.124 307.75ZM129.109 305.884C129.963 306.206 131.069 306.755 131.171 307.17C131.178 307.209 131.175 307.25 131.161 307.287C131.147 307.324 131.123 307.357 131.092 307.382C131.033 307.458 130.954 307.517 130.865 307.554C130.776 307.591 130.679 307.605 130.583 307.593C130.151 307.515 129.618 306.888 129.109 305.884Z" fill="#50B9E6"/>
<path d="M131.523 305.657C131.574 305.626 131.619 305.586 131.656 305.539C131.732 305.447 131.774 305.33 131.774 305.21C131.774 305.09 131.732 304.974 131.656 304.881C131.598 304.782 131.518 304.697 131.423 304.632C131.329 304.567 131.221 304.523 131.107 304.505C130.206 304.34 128.755 305.453 128.7 305.5C128.68 305.517 128.664 305.539 128.655 305.564C128.645 305.588 128.642 305.615 128.645 305.641C128.65 305.666 128.66 305.69 128.675 305.71C128.69 305.731 128.709 305.747 128.732 305.759C129.644 306.064 130.635 306.028 131.523 305.657V305.657ZM129.171 305.539C129.708 305.102 130.369 304.844 131.06 304.803C131.132 304.811 131.201 304.837 131.261 304.878C131.321 304.919 131.371 304.974 131.405 305.038C131.507 305.202 131.46 305.289 131.405 305.343C131.123 305.681 129.837 305.743 129.124 305.563L129.171 305.539Z" fill="#50B9E6"/>
<path d="M151.978 292.572C152.137 293.063 152.447 293.491 152.864 293.795C152.981 293.864 153.112 293.907 153.248 293.919C153.384 293.931 153.52 293.913 153.648 293.866C153.724 293.844 153.793 293.802 153.847 293.744C153.901 293.686 153.938 293.614 153.954 293.536C154.118 292.752 152.064 290.816 151.649 290.4C151.623 290.384 151.593 290.375 151.562 290.375C151.532 290.375 151.502 290.384 151.476 290.4C151.449 290.415 151.427 290.438 151.414 290.467C151.402 290.495 151.398 290.527 151.406 290.557C151.521 291.248 151.713 291.924 151.978 292.572ZM153.609 293.16C153.653 293.25 153.672 293.35 153.664 293.45C153.664 293.489 153.664 293.529 153.554 293.56C153.462 293.595 153.364 293.609 153.266 293.601C153.168 293.593 153.074 293.563 152.989 293.513C152.511 293.231 152.072 292.29 151.79 290.957C152.504 291.595 153.117 292.338 153.609 293.16V293.16Z" fill="#50B9E6"/>
<path d="M151.437 290.612C151.434 290.628 151.434 290.643 151.437 290.659C152.08 291.31 154 292.36 154.62 292C154.753 291.921 154.894 291.749 154.784 291.373C154.385 289.93 151.648 290.385 151.515 290.408C151.488 290.412 151.462 290.423 151.441 290.441C151.42 290.46 151.405 290.483 151.397 290.51C151.398 290.548 151.412 290.584 151.437 290.612V290.612ZM154.494 291.357L154.533 291.451C154.533 291.608 154.533 291.702 154.533 291.741C154.173 291.945 152.722 291.271 151.954 290.659C152.597 290.589 154.149 290.526 154.494 291.357Z" fill="#50B9E6"/>
<path d="M158.438 119.355L159.7 118.5C159.7 118.5 159.339 119.825 158.438 119.355Z" fill="#263238"/>
<path d="M260.929 324.732L254.853 324.74L253.215 310.675L259.291 310.667L260.929 324.732Z" fill="#F0BCAA"/>
<path d="M313.23 298.624L308.628 302.599L298.209 293.011L302.803 289.036L313.23 298.624Z" fill="#F0BCAA"/>
<path d="M307.734 302.442L313.332 297.597C313.423 297.521 313.538 297.48 313.657 297.48C313.776 297.48 313.891 297.521 313.983 297.597L318.247 301C318.351 301.087 318.435 301.197 318.492 301.32C318.55 301.443 318.579 301.577 318.579 301.713C318.579 301.849 318.55 301.984 318.492 302.107C318.435 302.23 318.351 302.339 318.247 302.427C316.421 303.956 315.017 304.983 312.759 306.943C311.364 308.15 307.271 311.945 305.343 313.614C303.414 315.284 301.587 313.52 302.207 312.658C305.108 308.801 306.911 305.382 307.193 303.352C307.263 302.995 307.454 302.674 307.734 302.442Z" fill="#263238"/>
<path d="M254.893 324.034H261.533C261.654 324.035 261.771 324.076 261.865 324.151C261.958 324.227 262.024 324.332 262.051 324.449L263.258 329.851C263.288 329.981 263.287 330.117 263.257 330.247C263.227 330.377 263.168 330.498 263.084 330.602C263.001 330.706 262.895 330.79 262.774 330.848C262.653 330.905 262.521 330.934 262.388 330.933C259.989 330.894 256.531 330.761 253.521 330.761C250.008 330.761 247.947 330.855 243.823 330.863C241.33 330.863 240.632 328.346 241.675 328.119C246.426 327.068 249.326 327.06 253.435 324.52C253.866 324.225 254.371 324.057 254.893 324.034Z" fill="#263238"/>
<path d="M235.144 150.088C233.92 149.617 232.87 149.186 231.772 148.685C230.675 148.183 229.616 147.689 228.55 147.164C226.423 146.118 224.332 144.953 222.278 143.667C220.211 142.4 218.224 141.007 216.328 139.496C215.849 139.104 215.363 138.712 214.893 138.312L213.497 137.034C213.035 136.611 212.596 136.125 212.149 135.67C211.921 135.419 211.725 135.239 211.467 134.941C211.208 134.643 210.957 134.353 210.73 134.055C209.872 132.922 209.144 131.696 208.558 130.402C208.013 129.219 207.549 128.001 207.17 126.756C206.45 124.404 205.925 121.997 205.602 119.559C204.984 114.865 204.866 110.119 205.25 105.4H209.812C210.126 107.525 210.455 109.759 210.887 111.907C211.318 114.055 211.772 116.203 212.329 118.273C212.856 120.295 213.521 122.278 214.32 124.208C214.984 125.915 215.919 127.503 217.088 128.912L217.472 129.304C217.59 129.429 217.825 129.618 217.997 129.774C218.374 130.096 218.719 130.433 219.119 130.739C219.903 131.366 220.687 131.985 221.565 132.581C223.258 133.757 225.046 134.878 226.912 135.929C228.777 136.979 230.683 137.975 232.619 138.916C233.591 139.394 234.571 139.865 235.551 140.304C236.531 140.743 237.558 141.205 238.436 141.581L235.144 150.088Z" fill="#F0BCAA"/>
<path d="M236.116 155.262C232.656 153.111 229.388 150.667 226.348 147.955L228.77 135.576C233.275 136.857 237.854 137.857 242.482 138.571C250.126 139.559 241.565 158.508 236.116 155.262Z" fill="#263238"/>
<path d="M209.97 106.466L210.401 98.728L203.972 100.79C203.972 100.79 202.475 106.333 206.645 107.791L209.97 106.466Z" fill="#F0BCAA"/>
<path d="M209.624 94.5649L204.317 96.7758L203.972 100.79L210.4 98.728L209.624 94.5649Z" fill="#F0BCAA"/>
<path opacity="0.2" d="M253.223 310.675L254.062 317.927L260.138 317.919L259.299 310.667L253.223 310.675Z" fill="black"/>
<path opacity="0.2" d="M302.811 289.036L298.209 293.011L303.587 297.95L308.181 293.975L302.811 289.036Z" fill="black"/>
<path d="M265.845 138.32C265.859 137.89 265.787 137.461 265.634 137.059C265.481 136.656 265.25 136.288 264.954 135.975C264.658 135.663 264.303 135.412 263.91 135.237C263.517 135.062 263.092 134.967 262.662 134.957C245.32 134.635 234.038 139.496 233.262 139.81C232.973 139.926 232.718 140.115 232.522 140.358C232.325 140.601 232.194 140.89 232.141 141.197C231.42 145.541 229.373 163.745 239.401 192.236L271.545 187.634C271.114 182.89 265.124 161.127 265.845 138.32Z" fill="#263238"/>
<path d="M239.848 137.622C237.943 140.17 237.08 146.042 243.391 150.339C251.153 144.545 255.151 138.312 256.335 135.066C250.766 135.346 245.24 136.202 239.848 137.622V137.622Z" fill="white"/>
<path d="M238.405 140.006C237.99 140.006 237.591 139.84 237.297 139.546C237.003 139.252 236.837 138.853 236.837 138.438C236.837 137.144 237.959 136.031 238.907 135.302C242.09 132.95 248.315 131.154 256.155 133.42C256.54 133.547 256.861 133.819 257.051 134.178C257.24 134.536 257.283 134.955 257.17 135.344C257.057 135.734 256.798 136.065 256.447 136.268C256.095 136.47 255.679 136.529 255.285 136.431C246.191 133.804 240.585 137.536 239.981 138.61C239.938 138.997 239.754 139.354 239.462 139.612C239.171 139.869 238.794 140.01 238.405 140.006V140.006Z" fill="#50B9E6"/>
<path d="M251.435 120.163C251.2 124.686 251.49 132.871 254.987 135.364C252.933 138.085 250.197 141.276 244.999 142.209C241.863 142.765 240.789 141.605 240.655 140.139C240.611 139.432 240.767 138.726 241.106 138.104C241.444 137.481 241.951 136.967 242.568 136.619C245.947 134.659 245.273 131.507 244.058 128.528L251.435 120.163Z" fill="#F0BCAA"/>
<path d="M237.927 175.975C237.751 175.975 237.576 175.943 237.41 175.881C237.018 175.743 236.697 175.454 236.518 175.08C236.339 174.705 236.316 174.274 236.454 173.882C236.671 173.334 236.773 172.746 236.751 172.156C236.729 171.566 236.585 170.987 236.328 170.456L236.163 170.009C235.896 169.483 235.541 169.005 235.113 168.598C234.196 167.862 233.561 166.832 233.317 165.682C233.072 164.531 233.233 163.332 233.772 162.287C233.965 161.839 234.079 161.362 234.109 160.876C233.96 160.317 233.719 159.787 233.396 159.308C232.749 158.382 232.367 157.298 232.291 156.172C232.379 154.994 232.807 153.866 233.521 152.926C233.791 152.569 234.003 152.172 234.149 151.75C234.154 151.314 234.069 150.881 233.898 150.48C233.521 149.589 233.428 148.603 233.631 147.657C233.949 146.591 234.604 145.656 235.497 144.992C235.749 144.801 235.969 144.571 236.148 144.31C236.26 143.931 236.26 143.528 236.148 143.149C235.909 142.241 236.036 141.276 236.501 140.46C237.049 139.598 236.994 139.378 236.947 139.198C236.868 138.923 236.834 138.637 236.846 138.351C236.846 137.935 237.011 137.537 237.305 137.242C237.599 136.948 237.998 136.783 238.414 136.783C238.829 136.783 239.228 136.948 239.522 137.242C239.816 137.537 239.982 137.935 239.982 138.351V138.398C240.201 139.284 240.264 140.343 239.198 142.075C239.21 142.259 239.234 142.443 239.268 142.624C239.504 143.486 239.469 144.4 239.168 145.242C238.866 146.084 238.313 146.812 237.582 147.328C237.081 147.767 236.799 148.034 236.689 148.418C236.673 148.78 236.745 149.141 236.9 149.468C237.234 150.307 237.365 151.212 237.285 152.11C237.111 153.011 236.736 153.861 236.187 154.596C235.823 155.054 235.571 155.591 235.45 156.164C235.577 156.713 235.808 157.232 236.132 157.692C236.696 158.535 237.078 159.485 237.253 160.484C237.297 161.427 237.134 162.369 236.775 163.243C236.52 163.801 236.399 164.41 236.422 165.023C236.669 165.567 237.024 166.055 237.465 166.458C238.191 167.167 238.766 168.015 239.158 168.951L239.299 169.358C240.071 171.111 240.119 173.098 239.433 174.886C239.331 175.204 239.13 175.481 238.859 175.678C238.588 175.874 238.262 175.978 237.927 175.975Z" fill="#50B9E6"/>
<path d="M265.555 138.061C266.41 138.845 267.123 139.504 267.845 140.256C268.566 141.009 269.271 141.738 269.969 142.491C271.365 143.996 272.682 145.58 273.952 147.195C276.598 150.542 278.813 154.209 280.545 158.108C280.982 159.151 281.364 160.216 281.69 161.299C281.855 161.848 281.996 162.42 282.129 163L282.176 163.212L282.247 163.58C282.294 163.824 282.317 164.082 282.341 164.364C282.378 164.887 282.363 165.413 282.294 165.932C282.178 166.869 281.894 167.778 281.455 168.614C281.088 169.31 280.644 169.962 280.13 170.558C279.28 171.529 278.302 172.378 277.221 173.083C275.378 174.289 273.392 175.263 271.31 175.983C270.322 176.344 269.326 176.65 268.323 176.908C267.319 177.167 266.347 177.41 265.257 177.591L263.846 173.255C264.63 172.816 265.469 172.353 266.261 171.883C267.053 171.413 267.829 170.919 268.613 170.425C270.07 169.504 271.443 168.454 272.713 167.289C273.2 166.819 273.629 166.293 273.991 165.721C274.266 165.274 274.242 164.976 274.164 165.07C274.158 165.096 274.158 165.123 274.164 165.148C274.164 165.148 274.164 165.148 274.164 165.148L274.117 165.007C273.999 164.647 273.889 164.278 273.732 163.902C273.442 163.137 273.109 162.388 272.737 161.66C271.95 160.111 271.054 158.62 270.055 157.199C269.06 155.725 267.962 154.282 266.802 152.871C265.642 151.46 264.45 150.072 263.188 148.7C262.568 148.018 261.933 147.352 261.29 146.693C260.647 146.035 259.973 145.345 259.401 144.796L265.555 138.061Z" fill="#F0BCAA"/>
<path d="M263.533 135.09C267.076 135.615 272.635 144.498 272.635 144.498L263.611 156.595C263.611 156.595 258.797 152.009 257.394 147.971C254.744 140.225 256.571 134.071 263.533 135.09Z" fill="#263238"/>
<path d="M258.805 165.54C258.533 165.537 258.266 165.464 258.031 165.326C257.796 165.189 257.601 164.992 257.464 164.756C256.925 163.702 256.692 162.518 256.79 161.338C256.832 160.851 256.79 160.361 256.665 159.888C256.351 159.401 255.956 158.971 255.497 158.618C254.594 157.946 253.892 157.041 253.466 155.999C253.175 154.854 253.227 153.65 253.615 152.534C253.758 152.109 253.834 151.665 253.842 151.217C253.645 150.679 253.359 150.178 252.996 149.735C252.188 148.905 251.715 147.806 251.667 146.649C251.619 145.491 252 144.357 252.737 143.463C252.95 143.144 253.121 142.799 253.247 142.436C253.206 141.841 253.063 141.258 252.823 140.711C252.375 139.787 252.222 138.747 252.384 137.732C252.677 136.289 253.405 134.97 254.47 133.953L254.572 133.851C254.864 133.573 255.253 133.419 255.656 133.42C256.06 133.421 256.447 133.578 256.738 133.858C257.029 134.138 257.201 134.519 257.218 134.922C257.235 135.325 257.096 135.72 256.829 136.023L256.649 136.203C256.008 136.821 255.578 137.625 255.418 138.5C255.503 138.894 255.621 139.279 255.771 139.653C256.182 140.603 256.388 141.629 256.375 142.663C256.253 143.522 255.934 144.34 255.442 145.055C255.102 145.517 254.879 146.055 254.791 146.623C254.976 147.108 255.241 147.558 255.575 147.955C256.209 148.742 256.671 149.653 256.931 150.629C257.051 151.538 256.963 152.463 256.673 153.334C256.474 153.885 256.402 154.475 256.461 155.058C256.759 155.539 257.144 155.959 257.598 156.297C258.395 156.924 259.054 157.709 259.534 158.602C259.873 159.483 260.013 160.428 259.942 161.37C259.884 161.98 259.961 162.596 260.169 163.173C260.382 163.53 260.444 163.956 260.343 164.359C260.242 164.762 259.985 165.108 259.628 165.321C259.379 165.469 259.095 165.545 258.805 165.54Z" fill="#50B9E6"/>
<path opacity="0.2" d="M248.425 123.573L244.066 128.52C244.395 129.28 244.657 130.067 244.85 130.872C246.684 130.331 248.966 127.909 248.887 125.917C248.875 125.114 248.719 124.32 248.425 123.573Z" fill="black"/>
<path d="M239.26 107.297C237.323 110.668 238.562 115.466 238.562 115.466C239.082 115.804 239.682 115.997 240.301 116.024C240.92 116.052 241.535 115.913 242.082 115.623L241.533 106.686L239.26 107.297Z" fill="#263238"/>
<path d="M254.524 115.858C253.042 121.707 252.47 125.204 248.911 127.673C243.556 131.389 236.766 127.297 236.476 121.127C236.21 115.568 238.679 106.944 244.92 105.69C246.293 105.405 247.715 105.477 249.053 105.898C250.39 106.319 251.597 107.075 252.56 108.094C253.523 109.113 254.208 110.361 254.552 111.721C254.896 113.08 254.886 114.504 254.524 115.858V115.858Z" fill="#F0BCAA"/>
<path d="M237.449 122.663H237.237L223.948 119.849C223.226 119.696 222.593 119.262 222.191 118.644C221.788 118.025 221.647 117.271 221.8 116.548C221.953 115.826 222.386 115.193 223.005 114.791C223.624 114.388 224.378 114.247 225.101 114.4C225.232 114.428 225.357 114.482 225.467 114.558C225.578 114.634 225.673 114.732 225.746 114.845C225.818 114.958 225.868 115.084 225.892 115.216C225.916 115.348 225.913 115.484 225.885 115.615C225.826 115.88 225.666 116.111 225.438 116.257C225.211 116.404 224.934 116.455 224.669 116.399C224.576 116.377 224.479 116.374 224.384 116.392C224.29 116.409 224.2 116.447 224.121 116.501C224.041 116.553 223.972 116.619 223.919 116.697C223.865 116.775 223.827 116.863 223.807 116.956C223.773 117.145 223.809 117.341 223.909 117.505C224.018 117.661 224.179 117.772 224.364 117.818L237.653 120.633C237.9 120.687 238.118 120.83 238.266 121.034C238.414 121.239 238.482 121.492 238.456 121.743C238.429 121.994 238.311 122.227 238.124 122.397C237.937 122.567 237.694 122.662 237.441 122.663H237.449Z" fill="#50B9E6"/>
<path d="M237.394 122.899L235.787 122.554L236.296 120.202L237.864 120.539C238.181 120.607 238.458 120.797 238.635 121.069C238.811 121.341 238.872 121.672 238.805 121.989V121.989C238.727 122.29 238.538 122.551 238.277 122.719C238.015 122.888 237.7 122.952 237.394 122.899Z" fill="white"/>
<path d="M250.894 112.644C250.894 110.417 249.217 108.794 243.619 109.226C239.048 109.571 236.822 107.438 238.131 104.467C241.831 106.395 241.22 103.871 248.276 103.565C255.332 103.259 257.378 105.917 258.123 110.049C262.443 116.454 254.987 119.112 254.987 119.112L252.07 121.66C251.466 121.797 250.836 121.77 250.246 121.581C249.656 121.392 249.127 121.048 248.715 120.586C248.715 120.586 248.142 115.388 250.894 112.644Z" fill="#263238"/>
<path d="M243.399 102.46L243.219 102.554C243.051 102.643 242.91 102.775 242.809 102.937C242.709 103.098 242.652 103.283 242.646 103.473C242.64 103.663 242.684 103.851 242.773 104.019C242.863 104.186 242.995 104.327 243.156 104.428L259.526 114.549C259.68 114.644 259.855 114.698 260.036 114.707C260.216 114.717 260.396 114.681 260.559 114.603C260.721 114.525 260.862 114.407 260.968 114.261C261.074 114.115 261.142 113.944 261.165 113.765V113.765C261.241 113.26 261.168 112.743 260.953 112.279C260.738 111.814 260.392 111.424 259.957 111.154L246.002 102.53C245.612 102.293 245.167 102.161 244.71 102.149C244.253 102.136 243.802 102.244 243.399 102.46V102.46Z" fill="#50B9E6"/>
<path d="M246.348 103.542L250.534 97.4108C250.654 97.2361 250.836 97.1136 251.043 97.0684C251.25 97.0233 251.466 97.0588 251.648 97.1678L263.204 104.09C263.305 104.15 263.392 104.23 263.46 104.325C263.528 104.421 263.574 104.53 263.597 104.645C263.619 104.76 263.616 104.878 263.589 104.992C263.562 105.106 263.511 105.213 263.439 105.306L258.429 111.923L246.348 103.542Z" fill="#50B9E6"/>
<path d="M246.348 103.542L248.018 100.555L260.922 109.085L258.429 111.923L246.348 103.542Z" fill="#50B9E6"/>
<path opacity="0.6" d="M246.348 103.542L248.018 100.555L260.922 109.085L258.429 111.923L246.348 103.542Z" fill="white"/>
<path d="M255.269 123.032C254.123 123.814 252.716 124.118 251.349 123.879C249.57 123.534 249.57 121.73 250.801 120.453C251.906 119.3 254.172 118.101 255.599 119.096C257.025 120.092 256.688 122.052 255.269 123.032Z" fill="#F0BCAA"/>
<path d="M251.78 316.531H262.066C262.066 316.531 260.451 279.95 258.233 261.149C257.558 255.426 258.288 247.586 258.358 238.829C258.452 227.798 258.962 215.779 259.464 206.348C259.997 196.414 260.444 189.256 260.444 189.256L239.401 192.259C239.401 192.259 237.316 244.34 240.585 262.592C243.987 281.549 251.78 316.531 251.78 316.531Z" fill="#50B9E6"/>
<path opacity="0.2" d="M258.358 238.805C258.452 227.774 258.962 215.756 259.463 206.324L256.327 202.13C252.455 209.382 255.144 228.692 258.358 238.805Z" fill="black"/>
<path d="M249.428 190.801C249.428 190.801 262.497 242.412 268.707 259.103C275.504 277.37 300.537 298.726 300.537 298.726L306.864 291.764C306.864 291.764 293.622 271.122 283.861 251.263C279.197 225.477 271.576 187.634 271.576 187.634L249.428 190.801Z" fill="#50B9E6"/>
<path d="M299.69 299.777L309.608 291.208L307.044 288.252L295.794 297.637L299.69 299.777Z" fill="#263238"/>
<path d="M250.487 316.766L262.748 316.75L262.74 312.791L249.044 312.603L250.487 316.766Z" fill="#263238"/>
<path d="M245.493 114.714C245.101 114.596 244.638 114.972 244.45 115.56L245.846 116.007C246.034 115.419 245.877 114.839 245.493 114.714Z" fill="#263238"/>
<path d="M239.377 113.561C238.977 113.561 238.593 114.016 238.593 114.635L240.051 114.729C240.075 114.11 239.785 113.624 239.377 113.561Z" fill="#263238"/>
<path d="M241.486 115.349C240.632 116.712 239.596 117.952 238.405 119.033C238.691 119.33 239.039 119.561 239.423 119.71C239.808 119.859 240.22 119.922 240.632 119.896L241.486 115.349Z" fill="#F0BCAA"/>
<path d="M247.484 114.087C247.533 114.098 247.584 114.098 247.633 114.087C247.705 114.063 247.766 114.012 247.801 113.945C247.836 113.877 247.843 113.799 247.821 113.726C247.699 113.286 247.473 112.882 247.162 112.547C246.851 112.213 246.464 111.958 246.033 111.805C245.997 111.793 245.959 111.789 245.922 111.792C245.884 111.796 245.847 111.807 245.814 111.826C245.781 111.844 245.752 111.869 245.729 111.899C245.706 111.93 245.69 111.964 245.681 112.001C245.67 112.037 245.667 112.075 245.671 112.112C245.675 112.15 245.686 112.186 245.704 112.219C245.723 112.252 245.747 112.281 245.777 112.304C245.807 112.327 245.84 112.344 245.877 112.354V112.354C246.217 112.485 246.522 112.696 246.765 112.969C247.007 113.241 247.181 113.568 247.272 113.922C247.293 113.964 247.322 114 247.359 114.029C247.396 114.057 247.438 114.077 247.484 114.087V114.087Z" fill="#263238"/>
<path d="M237.566 112.738C237.613 112.746 237.661 112.742 237.706 112.727C237.751 112.712 237.792 112.686 237.825 112.652C238.061 112.38 238.358 112.167 238.692 112.031C239.025 111.894 239.386 111.839 239.746 111.868C239.821 111.879 239.899 111.86 239.96 111.814C240.022 111.769 240.063 111.701 240.075 111.625C240.086 111.551 240.068 111.476 240.024 111.416C239.98 111.355 239.913 111.315 239.84 111.303C239.385 111.258 238.926 111.323 238.502 111.492C238.078 111.662 237.7 111.93 237.401 112.276C237.374 112.302 237.352 112.334 237.337 112.369C237.322 112.404 237.314 112.441 237.314 112.479C237.314 112.517 237.322 112.555 237.337 112.59C237.352 112.625 237.374 112.657 237.401 112.683C237.45 112.716 237.507 112.735 237.566 112.738V112.738Z" fill="#263238"/>
<path d="M306.872 304.591C307.271 304.226 307.628 303.819 307.938 303.376C307.954 303.352 307.962 303.325 307.962 303.297C307.962 303.269 307.954 303.242 307.938 303.219C307.926 303.193 307.906 303.171 307.88 303.159C307.854 303.146 307.825 303.142 307.797 303.148C307.546 303.148 305.312 303.517 305.022 304.23C304.99 304.308 304.978 304.394 304.989 304.478C305 304.561 305.033 304.641 305.084 304.708C305.159 304.829 305.262 304.929 305.386 304.999C305.509 305.069 305.648 305.107 305.79 305.108C306.2 305.066 306.582 304.883 306.872 304.591V304.591ZM307.499 303.493C306.848 304.332 306.221 304.818 305.798 304.818C305.702 304.816 305.608 304.788 305.525 304.739C305.443 304.69 305.375 304.62 305.327 304.536C305.309 304.508 305.299 304.475 305.299 304.442C305.299 304.408 305.309 304.376 305.327 304.348C305.437 303.979 306.605 303.65 307.499 303.493Z" fill="#50B9E6"/>
<path d="M307.915 303.407C307.936 303.387 307.952 303.363 307.962 303.336C307.974 303.313 307.98 303.288 307.98 303.262C307.98 303.236 307.974 303.21 307.962 303.187C307.907 303.132 306.707 301.855 305.814 301.862C305.704 301.863 305.596 301.886 305.496 301.93C305.396 301.975 305.307 302.04 305.234 302.121C305.15 302.193 305.094 302.292 305.074 302.4C305.055 302.508 305.072 302.62 305.124 302.717C305.445 303.328 307.193 303.579 307.883 303.438L307.915 303.407ZM305.453 302.278C305.544 302.199 305.662 302.157 305.782 302.16C306.355 302.16 307.139 302.827 307.515 303.179C306.731 303.219 305.531 302.936 305.335 302.576C305.335 302.537 305.281 302.458 305.406 302.325L305.453 302.278Z" fill="#50B9E6"/>
<path d="M254.297 324.881C254.322 324.872 254.345 324.856 254.361 324.835C254.378 324.815 254.388 324.79 254.391 324.763C254.398 324.734 254.395 324.703 254.382 324.676C254.369 324.649 254.348 324.627 254.321 324.614C254.039 324.473 251.6 323.234 250.863 323.65C250.793 323.687 250.733 323.742 250.69 323.809C250.648 323.877 250.624 323.954 250.62 324.034V324.034C250.604 324.164 250.621 324.296 250.669 324.418C250.717 324.54 250.794 324.648 250.895 324.732C251.561 325.32 253.302 325.077 254.282 324.881H254.297ZM251.051 323.877C251.514 323.72 252.839 324.222 253.803 324.661C252.463 324.888 251.451 324.834 251.083 324.496C251.017 324.44 250.967 324.368 250.937 324.287C250.907 324.207 250.898 324.119 250.91 324.034C250.91 324.003 250.919 323.972 250.936 323.946C250.952 323.919 250.976 323.898 251.004 323.885L251.051 323.877Z" fill="#50B9E6"/>
<path d="M254.297 324.881H254.336C254.356 324.865 254.373 324.845 254.383 324.821C254.394 324.798 254.4 324.773 254.399 324.747C254.399 324.685 254.219 323.046 253.45 322.395C253.343 322.304 253.218 322.235 253.083 322.193C252.949 322.152 252.807 322.138 252.666 322.152V322.152C252.267 322.152 252.157 322.395 252.133 322.552C252.024 323.242 253.474 324.551 254.211 324.904C254.241 324.905 254.271 324.897 254.297 324.881V324.881ZM252.533 322.458H252.682C252.787 322.446 252.893 322.457 252.993 322.489C253.093 322.522 253.185 322.575 253.262 322.646C253.71 323.172 253.984 323.824 254.046 324.512C253.301 324.065 252.306 323.038 252.376 322.623C252.392 322.568 252.392 322.497 252.533 322.458Z" fill="#50B9E6"/>
<path d="M264.583 172.847L258.734 174.698L263.274 179.213C263.274 179.213 268.573 176.916 266.911 174.58L264.583 172.847Z" fill="#F0BCAA"/>
<path d="M256.328 179.856L260.491 182.381L263.274 179.213L258.735 174.698L256.328 179.856Z" fill="#F0BCAA"/>
</svg>
