<svg width="405" height="405" viewBox="0 0 405 405" fill="none" xmlns="http://www.w3.org/2000/svg">
<path opacity="0.4" d="M203.084 334C287.63 334 356.168 329.999 356.168 325.063C356.168 320.126 287.63 316.125 203.084 316.125C118.538 316.125 50 320.126 50 325.063C50 329.999 118.538 334 203.084 334Z" fill="#23AEEA"/>
<path d="M251.38 84H160.846C154.494 84 149.345 89.1579 149.345 95.5206V312.654C149.345 319.017 154.494 324.175 160.846 324.175H251.38C257.732 324.175 262.882 319.017 262.882 312.654V95.5206C262.882 89.1579 257.732 84 251.38 84Z" fill="#059BDB"/>
<path opacity="0.7" d="M251.38 84H160.846C154.494 84 149.345 89.1579 149.345 95.5206V312.654C149.345 319.017 154.494 324.175 160.846 324.175H251.38C257.732 324.175 262.882 319.017 262.882 312.654V95.5206C262.882 89.1579 257.732 84 251.38 84Z" fill="white"/>
<path d="M251.325 84H160.465C154.09 84 148.922 89.168 148.922 95.5431V313.101C148.922 319.476 154.09 324.644 160.465 324.644H251.325C257.7 324.644 262.868 319.476 262.868 313.101V95.5431C262.868 89.168 257.7 84 251.325 84Z" fill="#059BDB"/>
<path opacity="0.2" d="M251.325 84H160.465C154.09 84 148.922 89.168 148.922 95.5431V313.101C148.922 319.476 154.09 324.644 160.465 324.644H251.325C257.7 324.644 262.868 319.476 262.868 313.101V95.5431C262.868 89.168 257.7 84 251.325 84Z" fill="black"/>
<path d="M210.34 314.04C210.341 315.057 210.041 316.052 209.477 316.899C208.913 317.745 208.11 318.405 207.171 318.795C206.231 319.185 205.197 319.288 204.199 319.09C203.201 318.892 202.285 318.402 201.566 317.683C200.846 316.963 200.357 316.047 200.158 315.049C199.96 314.051 200.063 313.017 200.453 312.078C200.843 311.138 201.503 310.335 202.349 309.771C203.196 309.207 204.191 308.907 205.208 308.908C206.569 308.908 207.874 309.449 208.837 310.411C209.799 311.374 210.34 312.679 210.34 314.04Z" fill="#059BDB"/>
<path opacity="0.4" d="M210.34 314.04C210.341 315.057 210.041 316.052 209.477 316.899C208.913 317.745 208.11 318.405 207.171 318.795C206.231 319.185 205.197 319.288 204.199 319.09C203.201 318.892 202.285 318.402 201.566 317.683C200.846 316.963 200.357 316.047 200.158 315.049C199.96 314.051 200.063 313.017 200.453 312.078C200.843 311.138 201.503 310.335 202.349 309.771C203.196 309.207 204.191 308.907 205.208 308.908C206.569 308.908 207.874 309.449 208.837 310.411C209.799 311.374 210.34 312.679 210.34 314.04Z" fill="black"/>
<path d="M261.952 306.516H148.574V99.7197H262.742L261.952 306.516Z" fill="#059BDB"/>
<path opacity="0.8" d="M262.954 306.406L148.51 306.54V99.7356L262.851 99.6172L262.954 306.406Z" fill="white"/>
<path d="M238.218 108.278H159.572C155.237 108.278 151.724 111.792 151.724 116.126V163.072C151.724 167.407 155.237 170.92 159.572 170.92H238.218C242.552 170.92 246.066 167.407 246.066 163.072V116.126C246.066 111.792 242.552 108.278 238.218 108.278Z" fill="white"/>
<path opacity="0.27" d="M170.205 132.389C175.528 130.164 178.038 124.045 175.813 118.723C173.588 113.4 167.469 110.889 162.146 113.115C156.824 115.34 154.313 121.459 156.539 126.781C158.764 132.104 164.883 134.614 170.205 132.389Z" fill="#059BDB"/>
<path d="M174.802 122.75C174.808 124.185 174.45 125.598 173.759 126.856C172.758 128.704 171.116 130.122 169.142 130.844C167.168 131.566 164.998 131.542 163.041 130.777C161.083 130.011 159.472 128.557 158.512 126.688C157.551 124.819 157.306 122.663 157.823 120.625C158.34 118.588 159.584 116.81 161.32 115.625C163.056 114.441 165.165 113.931 167.251 114.192C169.336 114.453 171.254 115.467 172.645 117.043C174.036 118.619 174.803 120.648 174.802 122.75V122.75Z" fill="white"/>
<path opacity="0.27" d="M173.76 126.848C173.02 128.213 171.925 129.353 170.591 130.147C169.257 130.942 167.733 131.361 166.181 131.361C164.628 131.361 163.104 130.942 161.77 130.147C160.436 129.353 159.341 128.213 158.601 126.848C160.845 125.35 163.483 124.551 166.181 124.551C168.879 124.551 171.516 125.35 173.76 126.848V126.848Z" fill="#059BDB"/>
<path opacity="0.27" d="M166.18 123.627C168.3 123.627 170.018 121.909 170.018 119.79C170.018 117.671 168.3 115.953 166.18 115.953C164.061 115.953 162.343 117.671 162.343 119.79C162.343 121.909 164.061 123.627 166.18 123.627Z" fill="#059BDB"/>
<path d="M240.278 176.708H157.511C154.315 176.708 151.724 179.299 151.724 182.495V192.846C151.724 196.042 154.315 198.634 157.511 198.634H240.278C243.475 198.634 246.066 196.042 246.066 192.846V182.495C246.066 179.299 243.475 176.708 240.278 176.708Z" fill="white"/>
<path d="M283.657 195.946L294.813 226.69C295.101 227.495 295.059 228.38 294.697 229.153C294.334 229.927 293.681 230.526 292.879 230.82L234.35 252.05C233.547 252.338 232.663 252.297 231.889 251.937C231.116 251.576 230.517 250.924 230.221 250.124L219.065 219.371C218.775 218.568 218.817 217.683 219.179 216.91C219.542 216.138 220.197 215.54 220.999 215.25L279.528 194.011C280.332 193.724 281.217 193.766 281.991 194.128C282.764 194.49 283.363 195.144 283.657 195.946V195.946Z" fill="#059BDB"/>
<path d="M281.889 194.083L265.159 221.614C263.609 224.167 261.234 226.113 258.427 227.132C255.619 228.15 252.549 228.178 249.723 227.212L219.231 216.806C219.598 216.074 220.231 215.509 221 215.226L279.528 193.988C280.299 193.721 281.142 193.755 281.889 194.083Z" fill="#147FBC"/>
<path opacity="0.6" d="M243.745 253.601L243.208 281.298C243.191 282.021 242.89 282.707 242.369 283.209C241.849 283.71 241.151 283.985 240.428 283.975L187.695 282.948C187.337 282.941 186.985 282.863 186.657 282.72C186.329 282.576 186.033 282.37 185.785 282.111C185.537 281.853 185.343 281.549 185.212 281.216C185.082 280.882 185.019 280.527 185.026 280.169L185.555 252.472C185.565 252.097 185.65 251.729 185.806 251.388C185.962 251.047 186.186 250.742 186.463 250.49C186.977 250.031 187.646 249.783 188.335 249.795L241.068 250.814C241.792 250.83 242.48 251.133 242.981 251.655C243.483 252.177 243.757 252.877 243.745 253.601V253.601Z" fill="#059BDB"/>
<path d="M242.916 251.588L221.314 268.263C219.311 269.808 216.841 270.623 214.311 270.574C211.782 270.525 209.345 269.615 207.403 267.994L186.503 250.49C187.017 250.031 187.686 249.783 188.375 249.795L241.108 250.814C241.786 250.838 242.43 251.114 242.916 251.588V251.588Z" fill="#059BDB"/>
<path opacity="0.5" d="M242.916 251.588L221.314 268.263C219.311 269.808 216.841 270.623 214.311 270.574C211.782 270.525 209.345 269.615 207.403 267.994L186.503 250.49C187.017 250.031 187.686 249.783 188.375 249.795L241.108 250.814C241.786 250.838 242.43 251.114 242.916 251.588V251.588Z" fill="white"/>
<path d="M190.554 90.5141C190.555 90.1553 190.663 89.805 190.864 89.5074C191.064 89.2098 191.348 88.9783 191.68 88.842C192.012 88.7058 192.377 88.671 192.729 88.7419C193.08 88.8129 193.403 88.9864 193.656 89.2407C193.91 89.495 194.082 89.8186 194.151 90.1706C194.221 90.5227 194.184 90.8874 194.047 91.2187C193.909 91.5501 193.676 91.8332 193.378 92.0324C193.079 92.2316 192.728 92.3379 192.37 92.3379C192.131 92.3379 191.894 92.2907 191.673 92.199C191.452 92.1072 191.252 91.9727 191.083 91.8033C190.914 91.6338 190.78 91.4327 190.69 91.2115C190.599 90.9902 190.553 90.7532 190.554 90.5141Z" fill="#059BDB"/>
<path d="M198.647 88.6978H213.735C214.216 88.6998 214.677 88.8918 215.017 89.2319C215.357 89.572 215.549 90.0327 215.551 90.5137C215.551 90.996 215.36 91.4587 215.02 91.8006C214.679 92.1424 214.217 92.3354 213.735 92.3375H198.647C198.165 92.3354 197.703 92.1424 197.362 91.8006C197.022 91.4587 196.831 90.996 196.831 90.5137C196.833 90.0327 197.025 89.572 197.365 89.2319C197.705 88.8918 198.166 88.6998 198.647 88.6978Z" fill="#059BDB"/>
<path opacity="0.4" d="M190.554 90.5141C190.555 90.1553 190.663 89.805 190.864 89.5074C191.064 89.2098 191.348 88.9783 191.68 88.842C192.012 88.7058 192.377 88.671 192.729 88.7419C193.08 88.8129 193.403 88.9864 193.656 89.2407C193.91 89.495 194.082 89.8186 194.151 90.1706C194.221 90.5227 194.184 90.8874 194.047 91.2187C193.909 91.5501 193.676 91.8332 193.378 92.0324C193.079 92.2316 192.728 92.3379 192.37 92.3379C192.131 92.3379 191.894 92.2907 191.673 92.199C191.452 92.1072 191.252 91.9727 191.083 91.8033C190.914 91.6338 190.78 91.4327 190.69 91.2115C190.599 90.9902 190.553 90.7532 190.554 90.5141Z" fill="black"/>
<path opacity="0.4" d="M198.647 88.6978H213.735C214.216 88.6998 214.677 88.8918 215.017 89.2319C215.357 89.572 215.549 90.0327 215.551 90.5137C215.551 90.996 215.36 91.4587 215.02 91.8006C214.679 92.1424 214.217 92.3354 213.735 92.3375H198.647C198.165 92.3354 197.703 92.1424 197.362 91.8006C197.022 91.4587 196.831 90.996 196.831 90.5137C196.833 90.0327 197.025 89.572 197.365 89.2319C197.705 88.8918 198.166 88.6998 198.647 88.6978Z" fill="black"/>
<path d="M263.025 125.285H255.501C253.752 125.285 252.335 126.703 252.335 128.451V151.372C252.335 153.12 253.752 154.538 255.501 154.538H263.025C264.774 154.538 266.191 153.12 266.191 151.372V128.451C266.191 126.703 264.774 125.285 263.025 125.285Z" fill="#059BDB"/>
<path opacity="0.8" d="M263.025 125.285H255.501C253.752 125.285 252.335 126.703 252.335 128.451V151.372C252.335 153.12 253.752 154.538 255.501 154.538H263.025C264.774 154.538 266.191 153.12 266.191 151.372V128.451C266.191 126.703 264.774 125.285 263.025 125.285Z" fill="white"/>
<path d="M263.815 162.978H254.711C253.399 162.978 252.335 164.042 252.335 165.355V177.103C252.335 178.415 253.399 179.479 254.711 179.479H263.815C265.127 179.479 266.191 178.415 266.191 177.103V165.355C266.191 164.042 265.127 162.978 263.815 162.978Z" fill="#059BDB"/>
<path opacity="0.8" d="M263.815 162.978H254.711C253.399 162.978 252.335 164.042 252.335 165.355V177.103C252.335 178.415 253.399 179.479 254.711 179.479H263.815C265.127 179.479 266.191 178.415 266.191 177.103V165.355C266.191 164.042 265.127 162.978 263.815 162.978Z" fill="white"/>
<path d="M162.801 300.736L168.604 301.297L174.644 287.488L168.841 286.919L162.801 300.736Z" fill="#F0BCAA"/>
<path d="M103.894 258.441L107.202 263.454L119.882 257.398L116.566 252.377L103.894 258.441Z" fill="#F0BCAA"/>
<path d="M174.645 287.488L171.534 294.61H165.479L168.834 286.919L174.645 287.488Z" fill="#F0BCAA"/>
<path d="M116.566 252.385L119.874 257.399L113.345 260.518L110.029 255.504L116.566 252.385Z" fill="#F0BCAA"/>
<path d="M228.057 159.401L228.247 159.827L228.491 160.325C228.649 160.656 228.831 160.996 229.012 161.335C229.384 162.006 229.802 162.685 230.197 163.333C231.028 164.658 231.943 165.929 232.936 167.138C233.947 168.336 235.025 169.475 236.166 170.549C236.758 171.07 237.334 171.607 237.95 172.128L238.874 172.855L239.087 173.028C238.987 172.997 238.884 172.976 238.779 172.965C238.55 172.942 238.319 172.977 238.108 173.068C237.979 173.105 237.864 173.179 237.776 173.281C237.721 173.36 237.863 173.234 237.982 173.028C238.294 172.453 238.54 171.843 238.716 171.212C239.149 169.679 239.49 168.121 239.734 166.546C240.003 164.92 240.224 163.254 240.398 161.588C240.571 159.922 240.753 158.224 240.911 156.566L243.958 156.519C244.148 158.28 244.227 159.993 244.298 161.746C244.369 163.499 244.337 165.236 244.298 167.012C244.228 168.839 244.02 170.657 243.674 172.452C243.474 173.486 243.154 174.493 242.719 175.452C242.404 176.131 241.971 176.749 241.44 177.276C241.029 177.663 240.546 177.966 240.019 178.168C239.404 178.398 238.744 178.479 238.092 178.405C237.563 178.336 237.051 178.175 236.576 177.931C236.387 177.836 236.202 177.731 236.024 177.616L235.724 177.418L234.571 176.629C233.781 176.108 233.086 175.531 232.368 174.955C230.947 173.769 229.615 172.481 228.381 171.102C227.156 169.711 226.03 168.236 225.009 166.688C224.504 165.899 224.038 165.109 223.588 164.32C223.367 163.901 223.154 163.491 222.949 163.056L222.649 162.385C222.546 162.148 222.467 161.959 222.341 161.635L228.057 159.401Z" fill="#F0BCAA"/>
<path d="M230.726 163.483L225.42 170.802L227.615 172.957L233.26 166.167L230.726 163.483Z" fill="#F5F5F5"/>
<path d="M222.404 153.827C228.381 155.406 232.502 163.791 232.502 163.791L225.602 173.463C225.602 173.463 217.296 163.018 217.509 159.717C217.714 156.259 218.804 152.856 222.404 153.827Z" fill="#059BDB"/>
<path opacity="0.7" d="M222.404 153.827C228.381 155.406 232.502 163.791 232.502 163.791L225.602 173.463C225.602 173.463 217.296 163.018 217.509 159.717C217.714 156.259 218.804 152.856 222.404 153.827Z" fill="#059BDB"/>
<path d="M227.56 156.914C227.56 156.914 229.526 159.235 206.771 186.775L185.714 174.442C191.083 166.081 194.186 160.799 200.384 140.808C203.694 141.921 206.919 143.275 210.032 144.858C213.336 146.522 216.532 148.392 219.601 150.456C223.486 153.235 227.56 156.914 227.56 156.914Z" fill="#059BDB"/>
<path opacity="0.7" d="M227.56 156.914C227.56 156.914 229.526 159.235 206.771 186.775L185.714 174.442C191.083 166.081 194.186 160.799 200.384 140.808C203.694 141.921 206.919 143.275 210.032 144.858C213.336 146.522 216.532 148.392 219.601 150.456C223.486 153.235 227.56 156.914 227.56 156.914Z" fill="#059BDB"/>
<path d="M224.828 154.538C223.343 153.306 221.44 151.782 219.601 150.456C216.548 148.366 213.35 146.495 210.032 144.858C208.168 143.887 206.258 143.034 204.631 142.387C204.371 142.821 204.584 144.147 205.381 146.09C208.413 149.998 215.456 155.754 221.33 156.898C224.062 156.504 224.914 155.635 224.828 154.538Z" fill="#F5F5F5"/>
<path d="M205.381 146.09C207.15 150.033 209.506 153.685 212.368 156.922C215.348 157.22 218.35 157.22 221.33 156.922C215.455 155.754 208.413 149.998 205.381 146.09Z" fill="#F5F5F5"/>
<path d="M206.795 186.775C206.795 186.775 207.134 240.874 197.541 256.491C187.562 272.732 174.55 292.541 174.55 292.541L163.283 291.997C163.283 291.997 176.421 262.689 181.379 249.085C188.209 230.333 191.367 177.742 191.367 177.742L206.795 186.775Z" fill="#365984"/>
<path opacity="0.4" d="M206.795 186.775C206.795 186.775 207.134 240.874 197.541 256.491C187.562 272.732 174.55 292.541 174.55 292.541L163.283 291.997C163.283 291.997 176.421 262.689 181.379 249.085C188.209 230.333 191.367 177.742 191.367 177.742L206.795 186.775Z" fill="black"/>
<path opacity="0.2" d="M194.809 188.282C192.985 189.83 191.416 191.655 190.159 193.691C189.804 197.717 189.369 202.241 188.872 206.979C192.307 202.312 195.023 194.125 194.809 188.282Z" fill="black"/>
<path d="M201.229 183.545C201.229 183.545 177.392 217.385 162.541 235.655C150.54 250.38 115.8 260.92 115.8 260.92L111.561 253.814C111.561 253.814 139.194 238.387 147.437 228.423C173.824 196.525 173.492 179.985 185.746 174.529L201.229 183.545Z" fill="#36577E"/>
<path opacity="0.4" d="M201.229 183.545C201.229 183.545 177.392 217.385 162.541 235.655C150.54 250.38 115.8 260.92 115.8 260.92L111.561 253.814C111.561 253.814 139.194 238.387 147.437 228.423C173.824 196.525 173.492 179.985 185.746 174.529L201.229 183.545Z" fill="black"/>
<path d="M240.982 157.309L239.403 150.992L245.427 152.745C245.427 152.745 245.261 156.993 243.177 158.374L240.982 157.309Z" fill="#F0BCAA"/>
<path d="M241.321 145.924L245.553 148.063L245.45 152.777L239.426 151.024L241.321 145.924Z" fill="#F0BCAA"/>
<path d="M165.643 148.245L160.117 144.85L165.643 141.897C165.643 141.897 168.478 145.055 167.957 147.503L165.643 148.245Z" fill="#F0BCAA"/>
<path d="M157.93 139.868L162.454 138.447L165.676 141.897L160.125 144.85L157.93 139.868Z" fill="#F0BCAA"/>
<path d="M108.592 262.926L106.626 256.467C106.591 256.357 106.518 256.262 106.419 256.201C106.321 256.14 106.203 256.117 106.089 256.136L100.759 256.925C100.626 256.95 100.499 257.003 100.388 257.081C100.276 257.158 100.182 257.258 100.112 257.375C100.042 257.491 99.9975 257.621 99.9812 257.756C99.9648 257.89 99.9771 258.027 100.017 258.157C100.744 260.391 101.202 261.441 102.07 264.276C102.599 266.029 103.523 269.968 104.257 272.384C104.991 274.8 107.415 274.2 107.328 273.127C106.926 268.326 107.715 265.871 108.528 263.968C108.667 263.638 108.689 263.27 108.592 262.926V262.926Z" fill="#263238"/>
<path d="M169.378 299.505H162.272C162.144 299.506 162.02 299.549 161.919 299.627C161.817 299.706 161.745 299.815 161.712 299.939L160.133 305.584C160.094 305.717 160.087 305.857 160.113 305.993C160.139 306.129 160.196 306.257 160.281 306.366C160.366 306.476 160.475 306.563 160.6 306.622C160.726 306.681 160.863 306.71 161.001 306.705C163.496 306.666 164.712 306.524 167.846 306.524C169.773 306.524 174.763 306.721 177.424 306.721C180.084 306.721 180.582 304.084 179.5 303.847C174.66 302.781 171.881 301.305 170.389 299.9C170.114 299.645 169.753 299.503 169.378 299.505Z" fill="#263238"/>
<path d="M186.132 173.02L184.08 174.355C183.922 174.457 184.009 174.71 184.253 174.852L206.36 187.777C206.55 187.887 206.763 187.887 206.842 187.777L208.137 186C208.224 185.874 208.137 185.669 207.916 185.55L186.598 173.068C186.533 173.017 186.454 172.986 186.372 172.977C186.29 172.969 186.207 172.984 186.132 173.02Z" fill="#263238"/>
<path d="M198.654 149.864C197.162 151.056 195.741 152.019 194.233 153.022C192.725 154.024 191.193 154.885 189.614 155.738C186.445 157.472 183.11 158.882 179.658 159.946C179.232 160.096 178.774 160.199 178.339 160.317C177.905 160.435 177.487 160.554 176.966 160.664C175.834 160.918 174.667 160.977 173.515 160.838C172.294 160.693 171.12 160.283 170.073 159.638C169.1 159.023 168.247 158.236 167.554 157.317C166.386 155.688 165.549 153.845 165.091 151.893C164.857 150.993 164.688 150.077 164.586 149.153C164.46 148.232 164.4 147.303 164.404 146.374L167.436 146.113C167.802 147.655 168.295 149.163 168.912 150.622C169.449 151.958 170.228 153.184 171.21 154.238C171.562 154.635 171.992 154.956 172.472 155.181C172.953 155.407 173.474 155.531 174.005 155.548C174.562 155.544 175.116 155.456 175.647 155.288C176.334 155.067 177.139 154.814 177.874 154.546C180.912 153.403 183.852 152.011 186.661 150.385C188.098 149.595 189.472 148.687 190.862 147.811C192.251 146.934 193.617 145.947 194.809 145.047L198.654 149.864Z" fill="#F0BCAA"/>
<path d="M188.888 147.795L191.62 156.053L194.186 154.514L191.786 146.326L188.888 147.795Z" fill="#F5F5F5"/>
<path d="M109.199 266.313C109.066 266.311 108.936 266.276 108.82 266.21C108.165 265.815 107.984 264.418 107.928 263.621C107.928 263.593 107.935 263.566 107.949 263.542C107.963 263.519 107.983 263.499 108.007 263.486C108.031 263.473 108.059 263.466 108.086 263.466C108.114 263.466 108.141 263.473 108.165 263.486C108.355 263.644 110.013 265.065 109.91 265.808C109.899 265.893 109.866 265.974 109.813 266.042C109.76 266.11 109.69 266.163 109.61 266.194C109.485 266.266 109.344 266.307 109.199 266.313V266.313ZM108.244 263.944C108.347 265.01 108.607 265.752 108.963 265.965C109.044 266.008 109.135 266.031 109.227 266.031C109.319 266.031 109.41 266.008 109.492 265.965C109.602 265.91 109.626 265.847 109.626 265.792C109.681 265.389 108.891 264.528 108.244 263.944Z" fill="#059BDB"/>
<path d="M110.194 264.6C109.383 264.53 108.611 264.223 107.975 263.715C107.963 263.695 107.956 263.672 107.956 263.648C107.956 263.625 107.963 263.601 107.975 263.581C107.981 263.557 107.993 263.535 108.009 263.517C108.026 263.499 108.047 263.486 108.07 263.479C108.141 263.479 109.799 262.957 110.541 263.415C110.635 263.471 110.716 263.546 110.777 263.636C110.839 263.726 110.879 263.829 110.897 263.937C110.929 264.045 110.923 264.162 110.88 264.266C110.837 264.371 110.759 264.458 110.66 264.513C110.514 264.58 110.354 264.609 110.194 264.6ZM108.378 263.676C108.986 264.094 110.115 264.465 110.486 264.26C110.541 264.26 110.612 264.165 110.581 263.984C110.569 263.916 110.543 263.852 110.503 263.796C110.464 263.74 110.412 263.694 110.352 263.66C109.708 263.46 109.018 263.466 108.378 263.676V263.676Z" fill="#059BDB"/>
<path d="M172.537 300.681C171.88 300.669 171.227 300.587 170.587 300.437C170.558 300.429 170.532 300.413 170.513 300.39C170.493 300.368 170.48 300.34 170.477 300.31C170.476 300.281 170.484 300.252 170.5 300.227C170.515 300.202 170.537 300.181 170.563 300.168C171.037 299.939 173.469 298.842 174.116 299.276C174.178 299.32 174.227 299.38 174.258 299.449C174.289 299.519 174.3 299.595 174.29 299.671C174.287 299.804 174.253 299.934 174.191 300.052C174.13 300.169 174.042 300.271 173.935 300.35C173.514 300.602 173.026 300.718 172.537 300.681V300.681ZM171.085 300.247C171.874 300.389 173.2 300.547 173.761 300.121C173.837 300.067 173.899 299.996 173.942 299.914C173.984 299.831 174.006 299.74 174.006 299.647C174.01 299.622 174.008 299.597 174 299.574C173.992 299.55 173.977 299.529 173.958 299.513C173.603 299.276 172.142 299.781 171.085 300.247Z" fill="#059BDB"/>
<path d="M170.618 300.436C170.59 300.447 170.559 300.447 170.531 300.436C170.509 300.421 170.493 300.399 170.484 300.373C170.475 300.348 170.475 300.32 170.484 300.294C170.484 300.184 171.1 297.602 172.521 297.784C172.892 297.823 172.987 298.013 173.01 298.155C173.105 298.834 171.478 300.128 170.642 300.46L170.618 300.436ZM172.394 298.028C171.542 298.028 171.028 299.41 170.815 300.034C171.605 299.584 172.758 298.557 172.702 298.163C172.702 298.099 172.615 298.052 172.465 298.036L172.394 298.028Z" fill="#059BDB"/>
<path d="M187.6 177.087L187.032 176.755C186.921 176.684 186.866 176.574 186.914 176.51L188.619 174.213C188.666 174.15 188.801 174.15 188.911 174.213L189.487 174.552C189.598 174.616 189.653 174.726 189.606 174.789L187.9 177.087C187.853 177.15 187.719 177.15 187.6 177.087Z" fill="#059BDB"/>
<path d="M204.616 187.043L204.048 186.703C203.937 186.64 203.882 186.53 203.929 186.467L205.635 184.169C205.682 184.106 205.816 184.106 205.927 184.169L206.503 184.501C206.614 184.572 206.669 184.682 206.614 184.745L204.916 187.043C204.869 187.106 204.734 187.106 204.616 187.043Z" fill="#059BDB"/>
<path d="M196.113 182.061L195.537 181.729C195.426 181.666 195.371 181.556 195.426 181.485L197.123 179.195C197.179 179.124 197.305 179.124 197.424 179.195L197.992 179.527C198.11 179.59 198.158 179.7 198.11 179.771L196.405 182.061C196.358 182.132 196.223 182.132 196.113 182.061Z" fill="#059BDB"/>
<path opacity="0.4" d="M187.6 177.087L187.032 176.755C186.921 176.684 186.866 176.574 186.914 176.51L188.619 174.213C188.666 174.15 188.801 174.15 188.911 174.213L189.487 174.552C189.598 174.616 189.653 174.726 189.606 174.789L187.9 177.087C187.853 177.15 187.719 177.15 187.6 177.087Z" fill="black"/>
<path opacity="0.4" d="M204.616 187.043L204.048 186.703C203.937 186.64 203.882 186.53 203.929 186.467L205.635 184.169C205.682 184.106 205.816 184.106 205.927 184.169L206.503 184.501C206.614 184.572 206.669 184.682 206.614 184.745L204.916 187.043C204.869 187.106 204.734 187.106 204.616 187.043Z" fill="black"/>
<path opacity="0.4" d="M196.113 182.061L195.537 181.729C195.426 181.666 195.371 181.556 195.426 181.485L197.123 179.195C197.179 179.124 197.305 179.124 197.424 179.195L197.992 179.527C198.11 179.59 198.158 179.7 198.11 179.771L196.405 182.061C196.358 182.132 196.223 182.132 196.113 182.061Z" fill="black"/>
<path d="M211.911 146.437C211.911 141.7 210.332 123.059 218.101 121.48C220.556 118.89 232.723 118.622 234.586 125.206C237.05 133.852 233.402 154.948 233.402 154.948L211.911 146.437Z" fill="#263238"/>
<path d="M235.021 154.995C234.995 154.992 234.97 154.984 234.947 154.971C234.924 154.959 234.904 154.941 234.888 154.921C234.872 154.9 234.86 154.877 234.853 154.852C234.846 154.826 234.844 154.8 234.848 154.774C234.848 154.561 237.414 133.456 234.579 125.103C233.79 122.813 231.595 121.211 228.342 120.579C224.11 119.75 219.53 120.784 218.259 122.253C218.222 122.289 218.173 122.309 218.121 122.309C218.069 122.309 218.02 122.289 217.983 122.253C217.946 122.215 217.926 122.164 217.926 122.111C217.926 122.058 217.946 122.007 217.983 121.969C219.467 120.247 224.449 119.387 228.444 120.169C231.839 120.824 234.161 122.537 234.982 124.953C237.84 133.409 235.29 154.585 235.266 154.798C235.265 154.828 235.258 154.857 235.245 154.884C235.232 154.911 235.213 154.935 235.19 154.953C235.166 154.972 235.139 154.986 235.11 154.993C235.081 155 235.051 155.001 235.021 154.995V154.995Z" fill="#263238"/>
<path d="M217.295 134.649C216.103 138.076 213.403 144.068 210.047 144.858C210.047 144.858 209.06 148.474 214.785 151.821C221.101 155.501 219.617 150.456 219.617 150.456C216.664 147.629 218.235 145.134 220.232 143.097L217.295 134.649Z" fill="#F0BCAA"/>
<path d="M218.479 138.092L220.216 143.09C219.747 143.562 219.316 144.071 218.929 144.613C217.729 143.658 216.442 141.329 217.106 139.876C217.453 139.204 217.918 138.599 218.479 138.092V138.092Z" fill="#F0BCAA"/>
<path d="M217.342 127.82C215.708 133.56 214.895 135.952 216.719 139.828C219.458 145.671 226.856 146.421 230.141 141.289C233.125 136.67 235.289 128.064 230.583 123.919C229.551 123.001 228.303 122.361 226.955 122.06C225.607 121.758 224.205 121.804 222.88 122.195C221.556 122.585 220.352 123.306 219.383 124.29C218.414 125.274 217.712 126.489 217.342 127.82Z" fill="#F0BCAA"/>
<path d="M215.661 131.436C219.743 132.96 229.336 127.899 231.949 124.796C232.297 120.011 221.077 121.898 221.077 121.898C221.077 121.898 215.093 120.059 215.661 131.436Z" fill="#263238"/>
<path d="M214.69 132.581C214.425 133.702 214.615 134.884 215.219 135.865C216.009 137.16 217.462 136.655 218.093 135.376C218.662 134.207 218.922 132.115 217.699 131.27C217.426 131.091 217.114 130.982 216.789 130.954C216.465 130.927 216.138 130.98 215.839 131.11C215.541 131.24 215.279 131.443 215.078 131.7C214.878 131.957 214.744 132.259 214.69 132.581Z" fill="#F0BCAA"/>
<path d="M225.309 132.391C225.143 132.849 225.254 133.307 225.554 133.409C225.854 133.512 226.225 133.228 226.391 132.77C226.557 132.312 226.438 131.862 226.138 131.751C225.838 131.641 225.467 131.933 225.309 132.391Z" fill="#263238"/>
<path d="M230.474 134.215C230.316 134.673 230.426 135.123 230.726 135.233C231.026 135.344 231.397 135.052 231.555 134.594C231.713 134.136 231.603 133.678 231.311 133.575C231.018 133.473 230.639 133.757 230.474 134.215Z" fill="#263238"/>
<path d="M231.167 133.552L232.375 133.623C232.375 133.623 231.506 134.286 231.167 133.552Z" fill="#263238"/>
<path d="M228.831 134.515C228.873 135.7 229.075 136.874 229.431 138.004C229.139 138.09 228.833 138.11 228.532 138.064C228.232 138.017 227.946 137.906 227.694 137.736L228.831 134.515Z" fill="#F0BCAA"/>
<path d="M225.499 138.984H225.452C224.832 138.782 224.269 138.436 223.811 137.973C223.352 137.51 223.011 136.944 222.815 136.323C222.807 136.285 222.815 136.246 222.835 136.214C222.856 136.182 222.888 136.159 222.925 136.149C222.943 136.145 222.962 136.144 222.981 136.147C222.999 136.15 223.017 136.157 223.033 136.168C223.048 136.178 223.062 136.192 223.072 136.207C223.082 136.223 223.088 136.241 223.091 136.26C223.282 136.831 223.604 137.35 224.03 137.776C224.456 138.203 224.975 138.524 225.547 138.715C225.578 138.726 225.605 138.748 225.622 138.777C225.639 138.806 225.646 138.84 225.64 138.873C225.634 138.907 225.617 138.937 225.591 138.958C225.565 138.98 225.533 138.992 225.499 138.991V138.984Z" fill="#263238"/>
<path d="M225.08 130.582C225.016 130.583 224.954 130.563 224.903 130.524C224.852 130.484 224.816 130.429 224.8 130.367C224.785 130.305 224.791 130.239 224.817 130.181C224.844 130.123 224.889 130.075 224.946 130.046C225.338 129.824 225.778 129.699 226.228 129.681C226.679 129.663 227.127 129.753 227.536 129.943C227.573 129.958 227.606 129.981 227.634 130.01C227.661 130.038 227.682 130.073 227.696 130.11C227.709 130.148 227.715 130.188 227.712 130.227C227.709 130.267 227.697 130.306 227.678 130.341C227.659 130.376 227.633 130.407 227.602 130.431C227.57 130.456 227.534 130.473 227.495 130.482C227.456 130.492 227.416 130.493 227.377 130.486C227.337 130.478 227.3 130.463 227.267 130.44C226.941 130.296 226.584 130.23 226.228 130.249C225.871 130.269 225.524 130.372 225.215 130.551C225.173 130.573 225.127 130.583 225.08 130.582Z" fill="#263238"/>
<path d="M233.749 132.675C233.687 132.675 233.627 132.654 233.578 132.615C233.529 132.576 233.495 132.522 233.481 132.462C233.401 132.114 233.241 131.79 233.014 131.516C232.786 131.242 232.497 131.025 232.17 130.883C232.099 130.858 232.04 130.806 232.006 130.738C231.972 130.67 231.966 130.592 231.989 130.52C232 130.484 232.019 130.45 232.043 130.422C232.068 130.394 232.099 130.37 232.133 130.354C232.167 130.338 232.204 130.329 232.241 130.327C232.279 130.326 232.317 130.332 232.352 130.346C232.769 130.517 233.14 130.787 233.431 131.132C233.722 131.477 233.926 131.887 234.026 132.328C234.035 132.364 234.037 132.402 234.032 132.439C234.027 132.476 234.014 132.512 233.995 132.544C233.976 132.576 233.951 132.605 233.921 132.627C233.891 132.649 233.857 132.666 233.82 132.675H233.749Z" fill="#263238"/>
<path d="M225.98 131.735L227.188 131.806C227.188 131.806 226.344 132.462 225.98 131.735Z" fill="#263238"/>
<path d="M200.399 140.807C197.912 140.215 190.261 146.042 190.261 146.042L193.506 156.393C193.506 156.393 201.504 151.964 202.246 148.703C202.981 145.324 203.233 141.486 200.399 140.807Z" fill="#059BDB"/>
<path opacity="0.7" d="M200.399 140.807C197.912 140.215 190.261 146.042 190.261 146.042L193.506 156.393C193.506 156.393 201.504 151.964 202.246 148.703C202.981 145.324 203.233 141.486 200.399 140.807Z" fill="#059BDB"/>
</svg>
