<svg width="405" height="405" viewBox="0 0 405 405" fill="none" xmlns="http://www.w3.org/2000/svg">
<path opacity="0.4" d="M202.5 324.567C278.528 324.567 340.162 320.969 340.162 316.53C340.162 312.092 278.528 308.493 202.5 308.493C126.471 308.493 64.8379 312.092 64.8379 316.53C64.8379 320.969 126.471 324.567 202.5 324.567Z" fill="#23AEEA"/>
<path d="M232.923 93.0298H101.715L111.911 271.716H243.112L232.923 93.0298Z" fill="#263238"/>
<path d="M235.472 93.0298H104.264L114.46 271.716H245.668L235.472 93.0298Z" fill="#059BDB"/>
<path opacity="0.5" d="M226.434 99.0361H110.264L118.592 260.781H237.78L226.434 99.0361Z" fill="black"/>
<path d="M110.264 99.0361C118.897 152.954 112.976 206.871 121.624 260.781H240.797C232.164 206.871 238.085 152.954 229.437 99.0361H110.264Z" fill="white"/>
<g opacity="0.3">
<path opacity="0.3" d="M134.631 147.501C137.263 147.522 139.786 148.552 141.68 150.379C143.575 152.206 144.696 154.691 144.812 157.32C144.865 158.585 144.66 159.847 144.21 161.03C143.759 162.213 143.073 163.292 142.192 164.202C141.312 165.111 140.255 165.832 139.087 166.32C137.919 166.808 136.663 167.053 135.398 167.04C132.782 167.018 130.275 165.991 128.397 164.171C126.518 162.35 125.412 159.877 125.308 157.263C125.254 156.002 125.454 154.743 125.897 153.561C126.339 152.379 127.016 151.298 127.886 150.383C128.758 149.477 129.806 148.757 130.966 148.269C132.126 147.781 133.373 147.534 134.631 147.543V147.501ZM134.56 145.491C133.029 145.482 131.513 145.785 130.104 146.381C128.694 146.977 127.421 147.855 126.363 148.96C125.304 150.065 124.482 151.375 123.947 152.809C123.411 154.242 123.174 155.77 123.249 157.299C123.373 160.454 124.707 163.441 126.974 165.64C129.242 167.838 132.268 169.079 135.426 169.106C136.963 169.119 138.487 168.819 139.906 168.226C141.324 167.632 142.607 166.757 143.677 165.653C144.747 164.549 145.582 163.24 146.131 161.804C146.68 160.368 146.932 158.835 146.871 157.299C146.719 154.129 145.357 151.139 143.067 148.943C140.777 146.747 137.733 145.511 134.56 145.491V145.491Z" fill="#059BDB"/>
</g>
<path d="M200.526 236.074H162.896C162.614 236.069 162.335 236.124 162.077 236.236C161.818 236.347 161.586 236.513 161.397 236.721C161.207 236.929 161.065 237.176 160.978 237.444C160.891 237.711 160.862 237.995 160.894 238.275V238.275C160.962 238.873 161.245 239.427 161.69 239.832C162.135 240.238 162.712 240.469 163.315 240.483H200.945C201.226 240.488 201.506 240.432 201.764 240.32C202.023 240.208 202.254 240.042 202.443 239.832C202.631 239.623 202.772 239.375 202.857 239.107C202.942 238.838 202.967 238.554 202.933 238.275V238.275C202.866 237.678 202.585 237.127 202.143 236.722C201.7 236.317 201.126 236.087 200.526 236.074V236.074Z" fill="#E0E0E0"/>
<path d="M220.654 226.808H162.136C161.853 226.803 161.572 226.857 161.311 226.968C161.051 227.079 160.817 227.244 160.624 227.452C160.432 227.66 160.286 227.906 160.195 228.174C160.104 228.443 160.071 228.727 160.099 229.009C160.15 229.606 160.421 230.162 160.859 230.57C161.297 230.978 161.871 231.209 162.47 231.217H220.96C221.243 231.225 221.526 231.173 221.788 231.064C222.05 230.956 222.286 230.793 222.48 230.586C222.675 230.379 222.823 230.134 222.916 229.866C223.009 229.598 223.044 229.313 223.019 229.03V229.03C222.973 228.432 222.705 227.872 222.267 227.461C221.83 227.05 221.255 226.817 220.654 226.808V226.808Z" fill="#E0E0E0"/>
<g opacity="0.3">
<path opacity="0.3" d="M135.831 185.72C138.443 185.739 140.947 186.767 142.82 188.589C144.692 190.411 145.787 192.886 145.877 195.497C145.925 196.761 145.718 198.022 145.268 199.204C144.817 200.386 144.134 201.465 143.257 202.377C142.38 203.285 141.327 204.006 140.163 204.494C138.998 204.982 137.747 205.228 136.484 205.217C133.865 205.199 131.354 204.173 129.471 202.353C127.589 200.532 126.479 198.057 126.373 195.44C126.33 194.174 126.544 192.913 127 191.731C127.457 190.55 128.148 189.473 129.031 188.565C129.914 187.657 130.972 186.937 132.14 186.448C133.309 185.96 134.564 185.712 135.831 185.72V185.72ZM135.831 183.661C134.292 183.652 132.768 183.953 131.349 184.547C129.93 185.141 128.645 186.016 127.572 187.119C126.5 188.221 125.661 189.529 125.106 190.964C124.551 192.399 124.291 193.931 124.343 195.469C124.469 198.633 125.81 201.627 128.087 203.827C130.364 206.028 133.402 207.265 136.569 207.283C138.103 207.289 139.622 206.984 141.035 206.387C142.448 205.79 143.725 204.914 144.79 203.81C145.855 202.706 146.685 201.397 147.231 199.964C147.776 198.53 148.026 197.001 147.965 195.469C147.858 192.315 146.536 189.324 144.274 187.123C142.012 184.922 138.987 183.682 135.831 183.661V183.661Z" fill="#059BDB"/>
</g>
<path d="M179.638 154.828H159.51C158.918 154.823 158.351 154.591 157.926 154.18C157.5 153.769 157.249 153.211 157.223 152.62V152.62C157.214 152.334 157.262 152.05 157.365 151.783C157.467 151.516 157.623 151.273 157.822 151.068C158.02 150.862 158.258 150.699 158.522 150.588C158.785 150.476 159.068 150.419 159.353 150.419H179.475C180.066 150.424 180.634 150.654 181.062 151.063C181.489 151.472 181.744 152.029 181.775 152.62V152.62C181.786 152.907 181.738 153.193 181.635 153.461C181.533 153.729 181.377 153.973 181.177 154.179C180.978 154.386 180.738 154.549 180.474 154.661C180.209 154.772 179.925 154.829 179.638 154.828V154.828Z" fill="#E0E0E0"/>
<path d="M202.869 154.828H189.237C188.645 154.823 188.077 154.592 187.65 154.181C187.224 153.77 186.971 153.211 186.944 152.62V152.62C186.934 152.334 186.982 152.05 187.085 151.783C187.188 151.516 187.343 151.273 187.542 151.068C187.741 150.862 187.979 150.699 188.242 150.588C188.505 150.476 188.788 150.419 189.074 150.419H202.713C203.304 150.424 203.87 150.654 204.297 151.064C204.723 151.473 204.977 152.03 205.006 152.62V152.62C205.017 152.907 204.969 153.193 204.866 153.461C204.763 153.729 204.608 153.973 204.408 154.179C204.208 154.386 203.969 154.549 203.705 154.661C203.44 154.772 203.156 154.829 202.869 154.828V154.828Z" fill="#E0E0E0"/>
<path d="M213.86 164.094H159.829C159.237 164.09 158.67 163.859 158.245 163.447C157.821 163.036 157.571 162.476 157.55 161.886V161.886C157.54 161.6 157.588 161.315 157.691 161.049C157.794 160.782 157.949 160.539 158.148 160.333C158.346 160.128 158.585 159.965 158.848 159.853C159.111 159.742 159.394 159.684 159.68 159.685H213.703C214.293 159.688 214.858 159.919 215.281 160.329C215.705 160.739 215.953 161.297 215.975 161.886C215.986 162.171 215.939 162.455 215.837 162.721C215.736 162.988 215.582 163.231 215.385 163.437C215.187 163.643 214.951 163.808 214.689 163.92C214.427 164.033 214.145 164.092 213.86 164.094V164.094Z" fill="#E0E0E0"/>
<g opacity="0.3">
<path opacity="0.3" d="M137.371 223.89C140.02 223.942 142.556 224.969 144.495 226.774C146.434 228.579 147.639 231.036 147.879 233.674C148.007 234.91 147.876 236.159 147.496 237.342C147.116 238.525 146.495 239.616 145.671 240.547C144.841 241.461 143.825 242.187 142.691 242.677C141.557 243.167 140.332 243.409 139.097 243.387C136.425 243.343 133.861 242.326 131.887 240.526C129.913 238.725 128.664 236.266 128.376 233.61C128.254 232.365 128.397 231.108 128.796 229.922C129.195 228.736 129.841 227.648 130.69 226.73C131.545 225.818 132.581 225.094 133.731 224.605C134.882 224.116 136.121 223.873 137.371 223.89V223.89ZM137.272 221.838C135.751 221.808 134.242 222.1 132.842 222.695C131.442 223.289 130.184 224.173 129.149 225.288C128.115 226.402 127.328 227.723 126.84 229.164C126.352 230.604 126.173 232.131 126.317 233.645C126.863 240.163 132.778 245.453 139.295 245.453C145.813 245.453 150.485 240.163 149.945 233.645C149.664 230.461 148.214 227.493 145.876 225.313C143.537 223.134 140.475 221.896 137.279 221.838H137.272Z" fill="#059BDB"/>
</g>
<path d="M223.09 197.882H160.745C160.459 197.882 160.176 197.94 159.913 198.051C159.65 198.163 159.412 198.326 159.213 198.531C159.014 198.737 158.859 198.98 158.756 199.246C158.653 199.513 158.605 199.798 158.615 200.083V200.083C158.64 200.672 158.891 201.229 159.315 201.639C159.739 202.048 160.304 202.28 160.894 202.284H223.268C223.553 202.285 223.836 202.227 224.099 202.116C224.363 202.004 224.601 201.841 224.799 201.636C224.998 201.43 225.153 201.187 225.256 200.92C225.359 200.654 225.407 200.369 225.398 200.083V200.083C225.375 199.488 225.122 198.925 224.691 198.514C224.26 198.103 223.686 197.876 223.09 197.882V197.882Z" fill="#E0E0E0"/>
<path d="M208.314 188.61H160.475C160.188 188.61 159.905 188.667 159.641 188.779C159.377 188.891 159.139 189.055 158.94 189.261C158.741 189.467 158.586 189.711 158.484 189.979C158.382 190.246 158.334 190.532 158.345 190.818V190.818C158.365 191.406 158.612 191.964 159.034 192.374C159.456 192.785 160.021 193.016 160.61 193.019H208.456C208.742 193.019 209.025 192.962 209.288 192.85C209.551 192.739 209.79 192.576 209.988 192.37C210.187 192.165 210.342 191.922 210.445 191.655C210.548 191.388 210.596 191.104 210.586 190.818V190.818C210.57 190.227 210.323 189.665 209.899 189.253C209.475 188.84 208.906 188.61 208.314 188.61V188.61Z" fill="#E0E0E0"/>
<path d="M135.71 164.222L134.872 162.844C133.033 159.841 129.192 157.164 127.872 156.376L128.866 154.615C131.473 156.194 133.797 158.2 135.738 160.551C138.756 156.497 143.165 152.329 149.136 147.828L150.421 149.489C144.031 154.296 139.501 158.719 136.597 162.929C136.306 163.362 136.008 163.796 135.71 164.222Z" fill="#059BDB"/>
<path d="M136.775 202.42C136.498 201.958 136.214 201.497 135.93 201.042C134.084 198.039 130.25 195.362 128.944 194.567L129.952 192.806C132.547 194.389 134.858 196.395 136.789 198.742C139.814 194.695 144.259 190.52 150.322 186.019L151.579 187.68C145.103 192.487 140.545 196.91 137.656 201.12L136.775 202.42Z" fill="#059BDB"/>
<path d="M139.21 240.703L138.273 239.325C136.228 236.322 132.267 233.645 130.903 232.857L131.826 231.096C134.509 232.686 136.927 234.687 138.99 237.025C141.773 232.978 146.005 228.803 151.884 224.309L153.212 225.97C146.935 230.777 142.625 235.2 140.006 239.41L139.21 240.703Z" fill="#059BDB"/>
<path d="M184.111 112.59C182.861 115.317 181.581 118.041 180.27 120.762C182.972 122.107 185.283 124.125 186.98 126.622C188.676 129.119 189.7 132.011 189.954 135.019H199.39C198.765 125.37 192.56 116.971 184.111 112.59Z" fill="#059BDB"/>
<path d="M148.163 135.033H157.599C157.368 132.364 157.854 129.682 159.008 127.264C160.161 124.846 161.94 122.78 164.16 121.281C162.323 118.554 160.458 115.828 158.565 113.102C151.678 117.56 147.56 125.732 148.163 135.033Z" fill="#263238"/>
<path d="M171.345 109.424C166.818 109.379 162.376 110.657 158.565 113.101C160.458 115.828 162.323 118.554 164.16 121.281C166.62 119.673 169.5 118.828 172.438 118.852C175.157 118.868 177.833 119.527 180.248 120.776C181.555 118.05 182.835 115.326 184.089 112.604C180.156 110.542 175.786 109.452 171.345 109.424V109.424Z" fill="#059BDB"/>
<path opacity="0.5" d="M171.345 109.424C166.818 109.379 162.376 110.657 158.565 113.101C160.458 115.828 162.323 118.554 164.16 121.281C166.62 119.673 169.5 118.828 172.438 118.852C175.157 118.868 177.833 119.527 180.248 120.776C181.555 118.05 182.835 115.326 184.089 112.604C180.156 110.542 175.786 109.452 171.345 109.424V109.424Z" fill="#263238"/>
<path d="M182.875 128.572C182.875 128.572 173.347 132.47 172.339 133.18C172.098 133.363 171.896 133.591 171.745 133.853C171.594 134.114 171.497 134.403 171.459 134.703C171.421 135.003 171.444 135.307 171.526 135.598C171.607 135.889 171.746 136.16 171.934 136.396C172.29 136.902 172.828 137.248 173.435 137.364C174.042 137.479 174.67 137.354 175.186 137.014C176.23 136.262 182.89 128.572 182.875 128.572ZM172.864 135.672C172.772 135.556 172.703 135.422 172.663 135.279C172.623 135.136 172.612 134.986 172.63 134.839C172.649 134.691 172.697 134.549 172.771 134.42C172.845 134.291 172.945 134.179 173.063 134.089C173.319 133.924 173.628 133.864 173.926 133.921C174.225 133.978 174.49 134.147 174.668 134.394C174.761 134.511 174.829 134.644 174.869 134.787C174.909 134.931 174.921 135.08 174.902 135.228C174.884 135.375 174.836 135.518 174.761 135.646C174.687 135.775 174.588 135.888 174.469 135.978C174.217 136.145 173.91 136.21 173.612 136.158C173.313 136.107 173.046 135.943 172.864 135.701V135.672Z" fill="#263238"/>
<path d="M194.172 124.064C194.218 124.491 194.173 124.924 194.039 125.332C193.905 125.741 193.686 126.116 193.396 126.433C193.106 126.75 192.751 127.002 192.356 127.171C191.961 127.34 191.534 127.424 191.104 127.415C190.194 127.397 189.321 127.046 188.651 126.429C187.981 125.811 187.561 124.97 187.469 124.064C187.421 123.639 187.463 123.208 187.595 122.801C187.726 122.394 187.943 122.019 188.23 121.703C188.518 121.386 188.87 121.135 189.263 120.965C189.656 120.796 190.08 120.712 190.508 120.72C191.421 120.735 192.297 121.083 192.972 121.699C193.647 122.315 194.073 123.156 194.172 124.064V124.064Z" fill="white"/>
<path d="M190.018 123.297C190.025 123.365 190.018 123.433 189.997 123.497C189.976 123.562 189.941 123.621 189.896 123.671C189.85 123.722 189.794 123.762 189.732 123.789C189.67 123.816 189.603 123.83 189.535 123.83C189.39 123.829 189.249 123.774 189.142 123.675C189.034 123.577 188.967 123.442 188.953 123.297C188.945 123.23 188.951 123.161 188.972 123.096C188.993 123.031 189.027 122.971 189.073 122.921C189.119 122.87 189.175 122.83 189.237 122.803C189.3 122.776 189.368 122.763 189.436 122.765C189.582 122.766 189.722 122.821 189.829 122.919C189.937 123.018 190.004 123.152 190.018 123.297V123.297Z" fill="#263238"/>
<path d="M192.56 123.297C192.567 123.365 192.559 123.434 192.538 123.499C192.516 123.564 192.481 123.623 192.435 123.674C192.389 123.724 192.332 123.764 192.269 123.791C192.206 123.818 192.138 123.831 192.07 123.829C191.925 123.825 191.787 123.769 191.68 123.672C191.573 123.574 191.505 123.441 191.488 123.297C191.48 123.229 191.486 123.159 191.507 123.094C191.528 123.029 191.563 122.968 191.61 122.918C191.657 122.867 191.714 122.827 191.777 122.801C191.841 122.774 191.909 122.762 191.978 122.764C192.123 122.766 192.264 122.821 192.371 122.919C192.479 123.017 192.546 123.152 192.56 123.297V123.297Z" fill="#263238"/>
<path d="M190.976 126.08C190.274 126.075 189.599 125.809 189.081 125.335C189.032 125.286 189.005 125.219 189.005 125.15C189.005 125.081 189.032 125.015 189.081 124.966C189.105 124.941 189.133 124.921 189.165 124.907C189.197 124.894 189.231 124.887 189.265 124.887C189.3 124.887 189.334 124.894 189.366 124.907C189.397 124.921 189.426 124.941 189.45 124.966C189.87 125.353 190.419 125.57 190.991 125.576V125.576C191.256 125.582 191.519 125.532 191.764 125.429C192.009 125.326 192.229 125.173 192.411 124.98C192.459 124.929 192.525 124.899 192.595 124.897C192.629 124.896 192.664 124.902 192.696 124.914C192.729 124.927 192.758 124.945 192.783 124.969C192.808 124.993 192.829 125.021 192.843 125.053C192.857 125.085 192.865 125.119 192.866 125.153C192.867 125.188 192.861 125.222 192.849 125.255C192.836 125.287 192.818 125.317 192.794 125.342C192.56 125.586 192.277 125.778 191.964 125.905C191.651 126.033 191.314 126.092 190.976 126.08V126.08Z" fill="#263238"/>
<path d="M175.25 114.081C175.309 114.504 175.275 114.934 175.151 115.342C175.027 115.75 174.816 116.127 174.533 116.445C174.249 116.764 173.9 117.017 173.509 117.188C173.118 117.358 172.695 117.442 172.268 117.433C171.35 117.411 170.469 117.061 169.787 116.447C169.104 115.832 168.665 114.993 168.548 114.081C168.484 113.661 168.514 113.232 168.634 112.824C168.754 112.416 168.963 112.039 169.244 111.72C169.526 111.402 169.874 111.148 170.264 110.978C170.654 110.809 171.076 110.726 171.501 110.737C172.421 110.759 173.304 111.107 173.991 111.72C174.678 112.333 175.124 113.17 175.25 114.081Z" fill="white"/>
<path d="M171.075 113.3C171.085 113.367 171.079 113.435 171.06 113.499C171.04 113.564 171.007 113.623 170.963 113.674C170.918 113.724 170.864 113.765 170.802 113.792C170.741 113.819 170.674 113.833 170.607 113.833C170.46 113.829 170.32 113.774 170.211 113.676C170.102 113.578 170.031 113.445 170.01 113.3C170 113.233 170.004 113.165 170.023 113.1C170.042 113.035 170.075 112.975 170.12 112.924C170.165 112.873 170.22 112.833 170.282 112.806C170.344 112.779 170.411 112.766 170.479 112.768C170.626 112.77 170.767 112.825 170.876 112.923C170.986 113.021 171.057 113.155 171.075 113.3V113.3Z" fill="#263238"/>
<path d="M173.61 113.3C173.619 113.367 173.614 113.436 173.594 113.501C173.574 113.566 173.54 113.626 173.495 113.676C173.45 113.727 173.394 113.767 173.332 113.794C173.269 113.821 173.202 113.834 173.134 113.833C172.988 113.828 172.848 113.772 172.739 113.674C172.631 113.577 172.559 113.445 172.538 113.3C172.528 113.233 172.534 113.164 172.554 113.099C172.573 113.035 172.607 112.975 172.652 112.924C172.698 112.873 172.753 112.833 172.816 112.806C172.878 112.779 172.945 112.766 173.013 112.768C173.16 112.771 173.3 112.827 173.409 112.924C173.519 113.022 173.59 113.155 173.61 113.3Z" fill="#263238"/>
<path d="M173.681 115.43H170.358C170.295 115.42 170.237 115.388 170.196 115.339C170.155 115.29 170.132 115.228 170.132 115.164C170.132 115.1 170.155 115.038 170.196 114.99C170.237 114.941 170.295 114.908 170.358 114.898H173.681C173.744 114.908 173.801 114.941 173.843 114.99C173.884 115.038 173.907 115.1 173.907 115.164C173.907 115.228 173.884 115.29 173.843 115.339C173.801 115.388 173.744 115.42 173.681 115.43V115.43Z" fill="#263238"/>
<path d="M158.387 124.064C158.434 124.491 158.389 124.924 158.255 125.332C158.121 125.741 157.902 126.116 157.612 126.433C157.321 126.75 156.967 127.002 156.572 127.171C156.177 127.34 155.75 127.424 155.32 127.415C154.409 127.397 153.537 127.046 152.867 126.429C152.197 125.811 151.777 124.97 151.685 124.064C151.636 123.639 151.679 123.208 151.81 122.801C151.942 122.394 152.158 122.019 152.446 121.703C152.734 121.386 153.086 121.135 153.479 120.965C153.872 120.796 154.296 120.712 154.724 120.72C155.637 120.737 156.512 121.086 157.186 121.701C157.86 122.316 158.287 123.156 158.387 124.064V124.064Z" fill="white"/>
<path d="M154.22 123.297C154.227 123.365 154.219 123.433 154.198 123.497C154.177 123.562 154.143 123.621 154.097 123.671C154.052 123.722 153.996 123.762 153.934 123.789C153.872 123.816 153.805 123.83 153.737 123.83C153.591 123.829 153.451 123.774 153.344 123.675C153.236 123.577 153.169 123.442 153.155 123.297C153.147 123.23 153.153 123.161 153.174 123.096C153.194 123.031 153.229 122.971 153.275 122.921C153.32 122.87 153.377 122.83 153.439 122.803C153.502 122.776 153.569 122.763 153.638 122.765C153.783 122.766 153.923 122.821 154.031 122.919C154.138 123.018 154.206 123.152 154.22 123.297V123.297Z" fill="#263238"/>
<path d="M156.762 123.297C156.77 123.365 156.763 123.434 156.743 123.499C156.722 123.563 156.688 123.623 156.642 123.674C156.596 123.724 156.54 123.764 156.477 123.791C156.415 123.818 156.347 123.831 156.279 123.83C156.134 123.826 155.996 123.77 155.889 123.672C155.782 123.574 155.714 123.441 155.697 123.297C155.689 123.23 155.695 123.161 155.716 123.096C155.736 123.031 155.771 122.971 155.817 122.921C155.862 122.87 155.919 122.83 155.981 122.803C156.044 122.776 156.111 122.763 156.18 122.765C156.326 122.764 156.467 122.819 156.575 122.917C156.683 123.016 156.749 123.152 156.762 123.297V123.297Z" fill="#263238"/>
<path d="M153.51 126.08C153.477 126.081 153.444 126.075 153.414 126.062C153.383 126.05 153.356 126.032 153.332 126.009C153.284 125.96 153.256 125.894 153.256 125.825C153.256 125.755 153.284 125.689 153.332 125.64C153.562 125.395 153.841 125.201 154.15 125.069C154.459 124.937 154.792 124.87 155.128 124.873C155.832 124.881 156.507 125.149 157.024 125.626C157.049 125.65 157.069 125.678 157.082 125.71C157.096 125.742 157.103 125.776 157.103 125.81C157.103 125.845 157.096 125.879 157.082 125.911C157.069 125.942 157.049 125.971 157.024 125.995C156.973 126.042 156.906 126.069 156.836 126.069C156.766 126.069 156.699 126.042 156.648 125.995C156.228 125.603 155.675 125.385 155.1 125.384C154.835 125.378 154.572 125.428 154.328 125.529C154.083 125.631 153.863 125.782 153.68 125.974C153.639 126.029 153.578 126.067 153.51 126.08V126.08Z" fill="#263238"/>
<path d="M207.285 99.4978C205.07 94.8331 199.901 91.7446 194.328 91.7446H182.968C182.188 91.7791 181.412 91.6068 180.72 91.2452C180.028 90.8836 179.444 90.3456 179.027 89.6856C177.444 86.7178 173.667 84.6021 169.378 84.6021C165.09 84.6021 161.568 86.732 160.319 89.6856C159.8 90.9352 158.316 91.7446 156.612 91.7446H145.252C139.679 91.7446 134.858 94.8331 133.182 99.4978C133.12 99.6607 133.096 99.8355 133.111 100.009C133.13 100.373 133.287 100.716 133.552 100.968C133.816 101.219 134.167 101.359 134.531 101.358H206.156C206.375 101.359 206.59 101.303 206.781 101.195C206.972 101.088 207.132 100.934 207.246 100.747C207.359 100.559 207.422 100.346 207.429 100.127C207.436 99.9086 207.387 99.6918 207.285 99.4978V99.4978ZM169.84 93.0297C168.992 93.0123 168.182 92.6783 167.569 92.0936C166.955 91.5089 166.582 90.7158 166.524 89.8702C166.496 89.463 166.552 89.0543 166.689 88.6699C166.827 88.2855 167.042 87.9337 167.322 87.6368C167.603 87.3399 167.941 87.1044 168.317 86.945C168.693 86.7856 169.098 86.7058 169.506 86.7108C170.359 86.7196 171.177 87.0498 171.797 87.6355C172.417 88.2212 172.793 89.0193 172.85 89.8702C172.879 90.2799 172.822 90.6911 172.683 91.0775C172.544 91.4638 172.325 91.817 172.042 92.1143C171.759 92.4116 171.417 92.6466 171.037 92.8042C170.658 92.9618 170.25 93.0386 169.84 93.0297V93.0297Z" fill="#263238"/>
<path d="M280.898 311.469C280.342 311.537 279.781 311.398 279.322 311.078C279.261 311.003 279.224 310.912 279.215 310.816C279.207 310.72 279.226 310.623 279.272 310.538C279.306 310.465 279.356 310.401 279.419 310.351C279.482 310.3 279.555 310.265 279.634 310.247C280.472 310.013 282.41 311.05 282.474 311.099C282.498 311.11 282.518 311.128 282.531 311.151C282.544 311.174 282.549 311.201 282.545 311.227C282.544 311.251 282.535 311.273 282.52 311.291C282.504 311.309 282.483 311.322 282.46 311.327C281.944 311.418 281.422 311.466 280.898 311.469V311.469ZM279.961 310.46C279.883 310.449 279.804 310.449 279.726 310.46C279.678 310.469 279.632 310.489 279.593 310.519C279.553 310.548 279.521 310.587 279.499 310.631C279.428 310.787 279.499 310.865 279.499 310.908C279.783 311.241 281.104 311.248 282.055 311.114C281.402 310.772 280.692 310.551 279.961 310.46Z" fill="#059BDB"/>
<path d="M282.46 311.326H282.411C281.75 311.042 280.373 309.906 280.401 309.324C280.401 309.182 280.487 309.012 280.827 308.976C281.082 308.955 281.336 309.031 281.537 309.189C282.068 309.746 282.428 310.443 282.574 311.199C282.583 311.216 282.587 311.236 282.587 311.255C282.587 311.275 282.583 311.295 282.574 311.312C282.558 311.324 282.539 311.331 282.519 311.334C282.499 311.336 282.479 311.334 282.46 311.326V311.326ZM280.948 309.196H280.877C280.657 309.196 280.65 309.303 280.65 309.331C280.65 309.686 281.58 310.574 282.269 310.957C282.134 310.351 281.831 309.795 281.395 309.353C281.267 309.256 281.109 309.206 280.948 309.211V309.196Z" fill="#059BDB"/>
<path d="M288.182 311.206H282.964L281.097 299.122H286.315L288.182 311.206Z" fill="#E7C2B5"/>
<path d="M282.928 310.602H288.608C288.716 310.605 288.819 310.641 288.905 310.704C288.992 310.767 289.057 310.856 289.091 310.957L290.639 315.593C290.672 315.697 290.68 315.807 290.664 315.915C290.647 316.023 290.606 316.125 290.544 316.214C290.481 316.303 290.399 316.377 290.304 316.429C290.208 316.482 290.102 316.512 289.993 316.516C287.934 316.516 284.952 316.367 282.368 316.367C279.35 316.367 279.62 316.531 276.077 316.531C273.947 316.531 273.102 314.365 273.947 314.166C277.93 313.279 278.392 313.179 281.672 311.007C282.039 310.746 282.478 310.605 282.928 310.602V310.602Z" fill="#263238"/>
<path opacity="0.2" d="M281.097 299.128L282.062 305.355H287.281L286.315 299.128H281.097Z" fill="black"/>
<path d="M287.586 181.07L284.036 184.655L289.475 186.579C289.475 186.579 291.605 183.654 290.107 181.652L287.586 181.07Z" fill="#E7C2B5"/>
<path d="M282.843 189.668L288.275 190.463L289.489 186.579L284.05 184.655L282.843 189.668Z" fill="#E7C2B5"/>
<path d="M289.958 136.922C290.419 137.916 290.788 138.761 291.158 139.684C291.527 140.607 291.868 141.494 292.223 142.403C292.897 144.228 293.501 146.088 294.061 147.969C294.632 149.873 295.106 151.804 295.481 153.756L295.751 155.247L295.971 156.766C296.049 157.27 296.099 157.796 296.142 158.314C296.184 158.832 296.255 159.301 296.255 159.954V160.877V161.694L296.213 162.496L296.135 163.256C296.042 164.278 295.907 165.237 295.78 166.209C295.496 168.126 295.169 170.001 294.807 171.889C294.054 175.603 293.231 179.231 292.237 182.887L285.769 181.609C286.18 178.002 286.606 174.339 286.947 170.732C287.111 168.929 287.288 167.132 287.387 165.372C287.43 164.505 287.48 163.625 287.48 162.794V162.169V161.594V161.019L287.43 160.551C287.398 160.177 287.346 159.805 287.274 159.436C287.21 159.038 287.153 158.641 287.061 158.236L286.798 157.022L286.493 155.801C286.053 154.168 285.556 152.528 284.988 150.888C284.42 149.247 283.788 147.614 283.12 145.996C282.794 145.179 282.453 144.37 282.098 143.575C281.743 142.779 281.388 141.949 281.04 141.26L289.958 136.922Z" fill="#263238"/>
<path d="M265.441 178.528C265.441 178.528 266.308 218.458 268.651 234.362C271.093 250.905 280.011 304.148 280.011 304.148H288.843C288.843 304.148 285.676 253.475 284.668 237.195C283.568 219.445 283.809 178.528 283.809 178.528H265.441Z" fill="#059BDB"/>
<path d="M277.888 300.626C277.845 300.626 278.796 304.297 278.796 304.297H289.546L289.468 301.024L277.888 300.626Z" fill="#263238"/>
<path d="M263.451 113.796C263.478 113.354 263.266 112.981 262.976 112.963C262.686 112.946 262.429 113.29 262.402 113.732C262.375 114.174 262.588 114.547 262.877 114.565C263.167 114.583 263.424 114.239 263.451 113.796Z" fill="#263238"/>
<path d="M263.233 114.564C262.658 115.918 261.903 117.188 260.99 118.341C261.288 118.558 261.63 118.706 261.992 118.775C262.355 118.843 262.727 118.831 263.084 118.739L263.233 114.564Z" fill="#E7C2B5"/>
<path d="M265.108 111.312C265.053 111.312 264.999 111.298 264.951 111.27C264.697 111.07 264.399 110.934 264.081 110.875C263.763 110.816 263.436 110.834 263.127 110.929C263.095 110.941 263.061 110.947 263.027 110.947C262.993 110.946 262.96 110.938 262.928 110.924C262.897 110.91 262.869 110.891 262.846 110.866C262.823 110.841 262.805 110.812 262.793 110.78C262.782 110.747 262.777 110.712 262.779 110.678C262.781 110.644 262.79 110.61 262.806 110.579C262.821 110.548 262.842 110.52 262.868 110.497C262.894 110.475 262.924 110.457 262.956 110.446C263.345 110.319 263.759 110.289 264.163 110.359C264.566 110.428 264.946 110.594 265.271 110.844C265.325 110.886 265.36 110.947 265.369 111.015C265.378 111.082 265.361 111.151 265.321 111.206C265.296 111.238 265.263 111.265 265.226 111.284C265.19 111.302 265.149 111.312 265.108 111.312V111.312Z" fill="#263238"/>
<path d="M277.263 118.64C276.382 122.459 275.388 129.453 277.973 131.995C277.973 131.995 276.794 135.864 269.701 135.864C261.891 135.864 266.116 131.995 266.116 131.995C270.376 130.979 270.411 127.827 269.772 124.859L277.263 118.64Z" fill="#E7C2B5"/>
<path d="M280.721 133.784C281.488 132.229 282.333 130.439 280.721 129.886C278.96 129.268 269.226 128.643 265.811 129.793C264.898 130.026 264.116 130.611 263.635 131.421C263.155 132.23 263.015 133.198 263.248 134.11L280.721 133.784Z" fill="#059BDB"/>
<path d="M288.19 133.493C292.684 135.566 294.97 151.285 294.97 151.285L285.918 154.125C284.301 149.966 282.988 145.695 281.992 141.345C280.6 134.785 283.589 131.377 288.19 133.493Z" fill="#263238"/>
<path d="M232.554 157.952L228.379 154.359L224.624 159.826C224.624 159.826 227.996 162.531 231.724 161.424L232.554 157.952Z" fill="#E7C2B5"/>
<path d="M222.877 152.62L222.302 158.023L224.623 159.827L228.379 154.36L222.877 152.62Z" fill="#E7C2B5"/>
<path d="M278.221 112.825C277.696 118.249 277.66 121.444 274.82 124.227C273.906 125.133 272.762 125.774 271.511 126.08C270.26 126.386 268.95 126.346 267.72 125.964C266.491 125.583 265.388 124.874 264.53 123.914C263.672 122.954 263.091 121.779 262.85 120.514C261.856 115.643 262.85 107.592 268.267 105.434C269.42 104.936 270.684 104.751 271.931 104.896C273.179 105.041 274.366 105.512 275.374 106.26C276.383 107.009 277.176 108.01 277.676 109.162C278.176 110.314 278.364 111.577 278.221 112.825V112.825Z" fill="#E7C2B5"/>
<path d="M267.11 114.564C266.634 110.815 266.712 109.395 268.714 108.565C266.634 108.153 264.831 108.096 263.972 106.882C263.113 105.668 262.907 102.565 267.081 101.145C266.698 101.855 267.912 103.332 271.753 101.997C275.594 100.662 281.189 100.52 281.693 104.425C283.724 103.715 287.125 109.985 283.113 114.564C279.769 118.398 277.54 121.046 276.879 123.084C276.848 123.179 276.798 123.267 276.73 123.342C276.663 123.416 276.581 123.475 276.489 123.516C276.397 123.556 276.297 123.576 276.197 123.575C276.097 123.574 275.998 123.552 275.907 123.51C274.522 122.864 272.044 123.418 270.937 123.716C270.781 123.756 270.616 123.743 270.469 123.677C270.321 123.611 270.201 123.497 270.127 123.354C269.41 121.877 267.472 117.66 267.11 114.564Z" fill="#263238"/>
<path d="M280.94 104.901C280.94 104.901 282.588 102.579 285.747 104.305C284.123 104.229 282.497 104.431 280.94 104.901Z" fill="#263238"/>
<path d="M281.21 105.398C281.21 105.398 283.504 103.978 281.715 101.301C281.824 102.687 281.653 104.08 281.21 105.398Z" fill="#263238"/>
<path d="M269.765 114.72C269.516 116.062 268.85 117.292 267.862 118.235C266.549 119.477 265.413 118.597 265.377 116.999C265.342 115.579 265.981 113.179 267.507 112.54C269.034 111.901 270.035 113.115 269.765 114.72Z" fill="#E7C2B5"/>
<path opacity="0.3" d="M266.173 200.715C266.684 212.629 267.486 226.46 268.651 234.362C269.098 237.373 269.751 241.59 270.532 246.482C273.67 229.357 275.545 207.29 266.173 200.715Z" fill="black"/>
<path d="M262.261 311.469C261.593 311.469 260.947 311.376 260.741 311.078C260.687 310.998 260.659 310.904 260.659 310.808C260.659 310.712 260.687 310.618 260.741 310.538C260.836 310.396 260.98 310.292 261.146 310.247C262.019 310.013 263.808 311.05 263.886 311.099C263.908 311.111 263.926 311.131 263.935 311.154C263.944 311.178 263.944 311.203 263.936 311.227C263.931 311.252 263.919 311.274 263.901 311.292C263.884 311.309 263.861 311.322 263.837 311.327C263.316 311.418 262.789 311.465 262.261 311.469ZM261.472 310.46C261.392 310.449 261.311 310.449 261.231 310.46C261.18 310.47 261.132 310.49 261.089 310.52C261.046 310.549 261.01 310.587 260.983 310.631C260.89 310.787 260.919 310.865 260.947 310.908C261.181 311.241 262.495 311.248 263.475 311.114C262.857 310.767 262.176 310.545 261.472 310.46V310.46Z" fill="#059BDB"/>
<path d="M263.844 311.327H263.794C263.176 311.043 261.962 309.907 262.083 309.324C262.083 309.182 262.211 309.012 262.552 308.976C262.678 308.96 262.807 308.971 262.929 309.008C263.051 309.045 263.165 309.106 263.262 309.189C263.908 309.736 263.972 311.142 263.972 311.199C263.971 311.221 263.966 311.242 263.956 311.262C263.946 311.282 263.932 311.299 263.915 311.312C263.893 311.323 263.868 311.328 263.844 311.327ZM262.644 309.197H262.573C262.346 309.197 262.332 309.303 262.324 309.331C262.253 309.686 263.07 310.574 263.702 310.957C263.663 310.37 263.442 309.809 263.07 309.353C262.949 309.257 262.798 309.206 262.644 309.211V309.197Z" fill="#059BDB"/>
<path d="M269.581 311.206H264.369L264.27 299.122H269.489L269.581 311.206Z" fill="#E7C2B5"/>
<path d="M264.419 310.602H270.099C270.201 310.601 270.299 310.636 270.378 310.701C270.456 310.766 270.508 310.857 270.525 310.957L271.398 315.593C271.418 315.708 271.412 315.825 271.382 315.936C271.351 316.048 271.296 316.152 271.221 316.24C271.146 316.328 271.052 316.399 270.946 316.446C270.841 316.494 270.726 316.518 270.61 316.516C268.558 316.516 265.59 316.367 263.013 316.367C259.988 316.367 257.376 316.531 253.833 316.531C251.703 316.531 251.177 314.365 252.079 314.166C256.19 313.279 259.527 313.179 263.127 311.007C263.513 310.757 263.959 310.617 264.419 310.602Z" fill="#263238"/>
<path opacity="0.2" d="M264.277 299.128L264.319 305.355H269.538L269.495 299.128H264.277Z" fill="black"/>
<path d="M256.133 178.528C256.133 178.528 254.003 217.528 254.046 233.432C254.046 249.975 262.424 304.148 262.424 304.148H271.256C271.256 304.148 268.956 250.941 269.95 234.71C271.008 216.96 276.134 178.542 276.134 178.542L256.133 178.528Z" fill="#059BDB"/>
<path d="M260.848 300.626C260.805 300.626 261.21 304.297 261.21 304.297H271.959L272.371 301.024L260.848 300.626Z" fill="#263238"/>
<path d="M258.036 133.443C258.036 133.443 249.147 155.9 253.016 194.716H285.477C285.818 190.456 282.424 153.352 287.267 133.173C284.195 132.579 281.088 132.185 277.966 131.995C274.017 131.767 270.058 131.767 266.109 131.995C263.384 132.269 260.685 132.753 258.036 133.443V133.443Z" fill="#263238"/>
<path opacity="0.2" d="M253.443 153.77C252.96 157.32 252.562 161.374 252.307 165.84C258.611 160.047 260.77 145.612 260.77 145.612L253.443 153.77Z" fill="black"/>
<path d="M261.38 144.135C260.102 147.458 258.81 150.66 257.39 153.877C255.97 157.093 254.5 160.267 252.846 163.447L252.2 164.633L251.873 165.229C251.739 165.471 251.753 165.485 251.384 166.103C250.747 167.104 249.865 167.925 248.82 168.488C247.957 168.942 247.015 169.227 246.044 169.326C244.71 169.448 243.366 169.34 242.068 169.007C241.043 168.753 240.037 168.425 239.058 168.027C237.301 167.3 235.6 166.445 233.967 165.471C233.165 165.009 232.398 164.512 231.638 164.051C230.879 163.589 230.19 163 229.374 162.432L233.208 156.553C235.959 158.069 238.847 159.322 241.834 160.295C242.468 160.491 243.116 160.638 243.772 160.735C244.147 160.815 244.534 160.815 244.908 160.735C244.951 160.735 244.816 160.693 244.582 160.813C244.296 160.959 244.052 161.174 243.872 161.438C243.723 161.687 243.914 161.317 243.978 161.175L244.234 160.614L244.745 159.5C246.094 156.489 247.344 153.372 248.558 150.27C249.772 147.167 250.95 143.929 252.037 140.798L261.38 144.135Z" fill="#263238"/>
<path d="M264.909 135.8C266.57 140.444 254.813 159.138 254.813 159.138L247.84 152.23C247.84 152.23 249.622 146.358 251.973 139.286C254.287 132.335 263.325 131.363 264.909 135.8Z" fill="#263238"/>
</svg>
