<svg width="405" height="405" viewBox="0 0 405 405" fill="none" xmlns="http://www.w3.org/2000/svg">
<path opacity="0.4" d="M203 333.138C284.302 333.138 350.21 329.291 350.21 324.544C350.21 319.797 284.302 315.949 203 315.949C121.698 315.949 55.7891 319.797 55.7891 324.544C55.7891 329.291 121.698 333.138 203 333.138Z" fill="#23AEEA"/>
<path d="M179.224 127.518C179.276 136.287 172.993 136.199 173.119 133.475C173.245 130.752 171.691 124.233 173.119 124.862C174.547 125.491 179.202 123.641 179.224 127.518Z" fill="#263238"/>
<path d="M175.272 143.399C176.138 143.332 177.877 144.139 178.032 146.425C178.073 147.09 178.267 147.736 178.6 148.312C178.932 148.889 179.394 149.38 179.949 149.748C179.949 149.748 177.07 150.096 175.183 148.601C173.644 147.395 172.963 144.753 173.77 144.161C174.212 143.805 174.724 143.545 175.272 143.399V143.399Z" fill="#263238"/>
<path d="M174.14 137.168C175.62 138.478 176.974 141.941 173.637 143.584C170.299 145.227 165.053 141.401 165.053 141.401L170.817 138.729L174.14 137.168Z" fill="#263238"/>
<path d="M175.783 143.717C175.701 143.237 175.567 142.768 175.383 142.318C175.367 142.275 175.342 142.237 175.309 142.205C175.276 142.173 175.237 142.149 175.193 142.135C175.15 142.121 175.104 142.117 175.058 142.123C175.013 142.129 174.97 142.145 174.932 142.17L172.882 143.539C172.841 143.567 172.807 143.604 172.784 143.648C172.76 143.692 172.748 143.741 172.748 143.791C172.748 143.84 172.76 143.889 172.784 143.933C172.807 143.977 172.841 144.015 172.882 144.042C173.177 144.259 173.494 144.442 173.829 144.59C174.31 144.782 175.309 144.235 175.65 143.998C175.696 143.969 175.734 143.927 175.757 143.877C175.781 143.827 175.79 143.771 175.783 143.717V143.717Z" fill="#059BDB"/>
<path opacity="0.3" d="M175.783 143.717C175.701 143.237 175.567 142.768 175.383 142.318C175.367 142.275 175.342 142.237 175.309 142.205C175.276 142.173 175.237 142.149 175.193 142.135C175.15 142.121 175.104 142.117 175.058 142.123C175.013 142.129 174.97 142.145 174.932 142.17L172.882 143.539C172.841 143.567 172.807 143.604 172.784 143.648C172.76 143.692 172.748 143.741 172.748 143.791C172.748 143.84 172.76 143.889 172.784 143.933C172.807 143.977 172.841 144.015 172.882 144.042C173.177 144.259 173.494 144.442 173.829 144.59C174.31 144.782 175.309 144.235 175.65 143.998C175.696 143.969 175.734 143.927 175.757 143.877C175.781 143.827 175.79 143.771 175.783 143.717V143.717Z" fill="black"/>
<path d="M153.724 140.083C152.902 139.81 151.023 140.18 150.327 142.37C150.129 143.005 149.787 143.587 149.328 144.068C148.868 144.549 148.303 144.918 147.678 145.145C147.678 145.145 150.394 146.166 152.584 145.145C154.36 144.338 155.618 141.926 155.004 141.156C154.659 140.71 154.223 140.344 153.724 140.083Z" fill="#263238"/>
<path d="M161.878 125.024C158.881 125.838 154.848 129.39 156.639 133.749C154.87 134.955 152.606 138.426 155.255 140.646C158.104 143.036 165.112 139.684 165.112 139.684L165.164 138.544L166 130.064L161.878 125.024Z" fill="#263238"/>
<path d="M153.154 140.276C153.352 139.828 153.601 139.403 153.894 139.01C153.923 138.975 153.959 138.946 154.001 138.926C154.043 138.907 154.088 138.896 154.134 138.896C154.18 138.896 154.226 138.907 154.267 138.926C154.309 138.946 154.345 138.975 154.375 139.01L156.032 140.823C156.066 140.86 156.09 140.905 156.102 140.953C156.115 141.001 156.116 141.052 156.105 141.1C156.094 141.149 156.072 141.194 156.04 141.232C156.008 141.27 155.967 141.3 155.921 141.319C155.585 141.456 155.235 141.558 154.878 141.623C154.36 141.697 153.561 140.934 153.25 140.624C153.2 140.583 153.163 140.527 153.146 140.465C153.129 140.403 153.131 140.337 153.154 140.276Z" fill="#059BDB"/>
<path opacity="0.3" d="M153.154 140.276C153.352 139.828 153.601 139.403 153.894 139.01C153.923 138.975 153.959 138.946 154.001 138.926C154.043 138.907 154.088 138.896 154.134 138.896C154.18 138.896 154.226 138.907 154.267 138.926C154.309 138.946 154.345 138.975 154.375 139.01L156.032 140.823C156.066 140.86 156.09 140.905 156.102 140.953C156.115 141.001 156.116 141.052 156.105 141.1C156.094 141.149 156.072 141.194 156.04 141.232C156.008 141.27 155.967 141.3 155.921 141.319C155.585 141.456 155.235 141.558 154.878 141.623C154.36 141.697 153.561 140.934 153.25 140.624C153.2 140.583 153.163 140.527 153.146 140.465C153.129 140.403 153.131 140.337 153.154 140.276Z" fill="black"/>
<path d="M180.119 155.912C181.533 157.007 183.079 158.177 184.633 159.242C186.187 160.308 187.749 161.381 189.355 162.365C190.96 163.349 192.588 164.267 194.231 165.14L195.467 165.769L196.725 166.353C197.139 166.553 197.561 166.731 197.99 166.894L198.619 167.153C198.834 167.234 199.063 167.338 199.197 167.375C199.97 167.612 200.762 167.783 201.565 167.885C202.438 168.011 203.355 168.1 204.288 168.167C206.145 168.285 208.054 168.337 209.971 168.344C211.888 168.351 213.826 168.344 215.758 168.285C217.689 168.226 219.643 168.181 221.567 168.122L221.929 171.03C218.043 171.814 214.118 172.395 210.171 172.769C208.18 172.947 206.182 173.08 204.14 173.095C203.119 173.095 202.083 173.095 201.017 172.999C199.871 172.931 198.735 172.745 197.628 172.444C197.287 172.355 197.073 172.266 196.821 172.185L196.081 171.926C195.585 171.763 195.097 171.585 194.601 171.385L193.166 170.808L191.76 170.187C189.902 169.349 188.091 168.41 186.335 167.375C184.589 166.346 182.872 165.281 181.215 164.141C179.557 163.001 177.959 161.825 176.331 160.441L180.119 155.912Z" fill="#F1C09A"/>
<path d="M172.438 152.59C174.281 151.154 181.866 155.853 184.175 157.814L182.495 167.974C182.495 167.974 171.58 163.401 170.921 160.278C170.24 157.015 171.047 153.685 172.438 152.59Z" fill="#263238"/>
<path d="M220.76 168.374L225.333 164.829L225.696 170.313C225.696 170.313 222.543 172.266 220.464 171.053L220.76 168.374Z" fill="#F1C09A"/>
<path d="M229.411 164.289L231.749 166.894L225.666 170.313L225.304 164.829L229.411 164.289Z" fill="#F1C09A"/>
<path d="M142.527 316.788L148.292 317.217L150.394 303.949L144.636 303.52L142.527 316.788Z" fill="#F1C09A"/>
<path d="M101.746 298.244L106.637 301.322L115.347 290.992L110.456 287.906L101.746 298.244Z" fill="#F1C09A"/>
<path d="M108.184 300.219L103.603 295.609C103.525 295.529 103.42 295.48 103.308 295.472C103.196 295.464 103.086 295.497 102.996 295.565L98.8303 298.68C98.7286 298.762 98.6454 298.865 98.586 298.981C98.5265 299.098 98.4922 299.225 98.4852 299.356C98.4782 299.486 98.4988 299.617 98.5455 299.739C98.5921 299.861 98.664 299.971 98.7563 300.064C100.377 301.64 101.243 302.321 103.255 304.349C104.491 305.599 106.171 307.545 107.88 309.27C109.59 310.994 111.381 309.388 110.84 308.53C108.339 304.63 108.791 303.172 108.62 301.189C108.595 300.824 108.44 300.48 108.184 300.219V300.219Z" fill="#263238"/>
<path d="M148.677 316.389H142.18C142.065 316.388 141.955 316.428 141.867 316.501C141.779 316.574 141.719 316.676 141.699 316.788L140.67 321.924C140.646 322.054 140.652 322.188 140.688 322.315C140.723 322.443 140.787 322.56 140.875 322.659C140.963 322.758 141.072 322.836 141.194 322.887C141.316 322.938 141.448 322.96 141.58 322.952C143.845 322.915 144.947 322.782 147.804 322.782C149.557 322.782 154.464 322.96 156.913 322.96C159.362 322.96 159.607 320.562 158.608 320.348C154.131 319.371 151.111 318.031 149.654 316.744C149.384 316.507 149.035 316.38 148.677 316.389Z" fill="#263238"/>
<path d="M150.393 303.949L149.224 311.319L143.541 310.365L144.629 303.527L150.393 303.949Z" fill="#F1C09A"/>
<path d="M110.456 287.913L115.347 290.991L111.743 295.269L106.741 292.316L110.456 287.913Z" fill="#F1C09A"/>
<path d="M146.908 183.336L169.952 187.828C181.858 155.586 179.268 154.528 179.268 154.528C177.594 153.608 175.864 152.792 174.088 152.086L173.778 151.968C172.298 151.428 172.002 151.346 170.033 150.769C166.644 149.962 163.484 149.289 159.57 148.734L158.83 148.63C158.09 148.542 157.416 148.468 156.735 148.401C156.277 148.349 155.818 148.32 155.381 148.29L153.901 148.209C151.37 148.083 149.557 148.12 149.557 148.12C150.26 168.255 149.121 174.035 146.908 183.336Z" fill="#263238"/>
<path d="M162.899 137.168C162.899 140.661 162.359 146.958 159.562 148.749C159.562 148.749 159.821 152.345 166.074 153.559C172.956 154.898 170.026 150.784 170.026 150.784C166.451 149.156 167.066 146.388 168.25 143.902L162.899 137.168Z" fill="#F1C09A"/>
<path d="M165.083 139.913L168.25 143.902C167.972 144.478 167.745 145.077 167.569 145.692C166.17 145.204 164.505 143.25 164.609 141.719C164.656 141.093 164.817 140.481 165.083 139.913Z" fill="#F1C09A"/>
<path d="M162.567 129.146C161.827 134.837 161.375 137.227 163.654 140.668C167.081 145.848 174.229 145.515 176.664 140.165C178.884 135.348 179.712 126.845 174.643 123.552C173.531 122.817 172.248 122.379 170.918 122.279C169.588 122.179 168.255 122.421 167.045 122.981C165.835 123.542 164.788 124.403 164.004 125.482C163.22 126.561 162.726 127.822 162.567 129.146V129.146Z" fill="#F1C09A"/>
<path d="M181.089 120.133C181.192 121.035 181.124 121.949 180.889 122.827C180.835 122.529 180.763 122.235 180.674 121.946C178.647 115.242 169.515 116.84 166.762 119.726C162.322 118.453 158.097 119.467 158.659 124.906C158.73 126.307 159.234 127.652 160.102 128.754C159.414 130.663 160.102 133.705 162.374 133.793C165.571 133.919 168.605 129.686 169.826 127.363C172.046 127.74 175.243 128.103 177.67 127.511C178.077 127.755 178.41 127.925 178.41 127.925C180.993 126.541 182.961 125.202 181.089 120.133Z" fill="#263238"/>
<path d="M160.598 133.031C160.508 134.135 160.856 135.231 161.567 136.08C162.529 137.197 163.787 136.539 164.239 135.214C164.616 134.015 164.564 131.995 163.277 131.366C162.993 131.233 162.681 131.172 162.368 131.191C162.055 131.209 161.751 131.305 161.485 131.471C161.219 131.636 160.998 131.866 160.843 132.138C160.688 132.411 160.604 132.718 160.598 133.031V133.031Z" fill="#F1C09A"/>
<path d="M169.604 187.828C169.604 187.828 169.693 233.575 165.949 250.802C162.056 268.725 150.608 309.499 150.608 309.499L142.32 308.426C142.32 308.426 148.81 267.237 151.57 249.426C154.582 230.015 152.74 184.542 152.74 184.542L169.604 187.828Z" fill="#059BDB"/>
<path opacity="0.3" d="M169.604 187.828C169.604 187.828 169.693 233.575 165.949 250.802C162.056 268.725 150.608 309.499 150.608 309.499L142.32 308.426C142.32 308.426 148.81 267.237 151.57 249.426C154.582 230.015 152.74 184.542 152.74 184.542L169.604 187.828Z" fill="black"/>
<path d="M152.022 310.217L140.899 308.781L141.373 304.844L153.997 306.324L152.022 310.217Z" fill="#263238"/>
<path d="M163.869 186.644C163.869 186.644 151.459 224.451 145.295 246.229C138.797 269.206 113.889 294.618 113.889 294.618L106.748 290.488C106.748 290.488 123.768 266.364 130.021 244.927C142.756 201.407 137.525 192.187 146.908 183.336L163.869 186.644Z" fill="#059BDB"/>
<path opacity="0.3" d="M163.869 186.644C163.869 186.644 151.459 224.451 145.295 246.229C138.797 269.206 113.889 294.618 113.889 294.618L106.748 290.488C106.748 290.488 123.768 266.364 130.021 244.927C142.756 201.407 137.525 192.187 146.908 183.336L163.869 186.644Z" fill="black"/>
<path d="M115.051 295.765L105.127 290.037L107.599 286.5L118.618 292.575L115.051 295.765Z" fill="#263238"/>
<path d="M170.78 132.38C170.692 132.839 170.862 133.253 171.165 133.312C171.469 133.372 171.779 133.046 171.905 132.572C172.031 132.099 171.824 131.692 171.52 131.633C171.217 131.573 170.869 131.921 170.78 132.38Z" fill="#263238"/>
<path d="M175.953 133.387C175.864 133.845 176.035 134.267 176.338 134.326C176.641 134.386 176.952 134.06 177.041 133.586C177.13 133.113 176.96 132.706 176.656 132.654C176.353 132.602 176.042 132.92 175.953 133.387Z" fill="#263238"/>
<path d="M176.523 132.661L177.685 132.565C177.685 132.565 176.952 133.312 176.523 132.661Z" fill="#263238"/>
<path d="M174.436 133.912C174.64 135.034 174.999 136.122 175.502 137.146C175.237 137.27 174.947 137.334 174.654 137.334C174.362 137.334 174.072 137.27 173.807 137.146L174.436 133.912Z" fill="#F1C09A"/>
<path d="M171.868 138.626C171.25 138.524 170.665 138.275 170.164 137.899C169.662 137.523 169.26 137.031 168.99 136.465C168.982 136.448 168.979 136.431 168.979 136.413C168.978 136.395 168.982 136.377 168.989 136.36C168.996 136.344 169.006 136.329 169.019 136.316C169.032 136.304 169.047 136.294 169.064 136.287C169.097 136.275 169.134 136.275 169.167 136.289C169.2 136.303 169.227 136.329 169.241 136.361C169.5 136.881 169.877 137.333 170.342 137.68C170.808 138.027 171.348 138.26 171.92 138.359C171.938 138.362 171.955 138.368 171.97 138.377C171.985 138.387 171.998 138.399 172.008 138.414C172.019 138.428 172.026 138.444 172.03 138.462C172.034 138.479 172.034 138.497 172.031 138.515C172.024 138.551 172.003 138.583 171.972 138.603C171.942 138.624 171.905 138.632 171.868 138.626V138.626Z" fill="#263238"/>
<path d="M169.604 130.412C169.549 130.411 169.496 130.395 169.451 130.364C169.406 130.332 169.371 130.289 169.351 130.238C169.331 130.187 169.327 130.131 169.339 130.078C169.351 130.024 169.379 129.976 169.419 129.938C169.736 129.641 170.12 129.423 170.538 129.303C170.957 129.184 171.397 129.165 171.824 129.25C171.894 129.271 171.953 129.318 171.989 129.381C172.025 129.445 172.035 129.52 172.016 129.59C171.997 129.66 171.952 129.719 171.889 129.755C171.827 129.791 171.753 129.801 171.683 129.783V129.783C171.345 129.723 170.996 129.742 170.666 129.84C170.336 129.937 170.033 130.11 169.782 130.345C169.733 130.388 169.669 130.412 169.604 130.412Z" fill="#263238"/>
<path d="M178.824 131.44C178.77 131.441 178.717 131.425 178.672 131.394C178.627 131.364 178.592 131.321 178.573 131.27C178.446 130.949 178.246 130.663 177.989 130.433C177.732 130.203 177.425 130.036 177.093 129.945C177.057 129.939 177.023 129.926 176.993 129.907C176.962 129.887 176.936 129.862 176.915 129.832C176.895 129.803 176.88 129.769 176.873 129.734C176.865 129.699 176.864 129.663 176.871 129.627C176.887 129.557 176.928 129.496 176.987 129.455C177.046 129.414 177.118 129.396 177.189 129.405C177.611 129.511 178.002 129.715 178.329 130.002C178.656 130.289 178.909 130.65 179.068 131.055C179.083 131.089 179.091 131.125 179.091 131.161C179.091 131.198 179.084 131.234 179.071 131.268C179.057 131.302 179.037 131.332 179.011 131.358C178.985 131.384 178.954 131.404 178.92 131.418L178.824 131.44Z" fill="#263238"/>
<path d="M171.402 136.435C171.173 136.436 170.947 136.384 170.741 136.283C170.536 136.181 170.357 136.033 170.218 135.851C169.87 135.308 169.638 134.699 169.536 134.063C169.434 133.426 169.465 132.775 169.626 132.151C170.048 129.812 171.513 127.911 172.897 127.911C173.127 127.913 173.354 127.968 173.56 128.071C173.766 128.173 173.947 128.321 174.088 128.503C174.435 129.046 174.666 129.655 174.768 130.291C174.87 130.928 174.84 131.578 174.68 132.203C174.258 134.541 172.786 136.435 171.402 136.435ZM172.882 128.118C171.587 128.118 170.196 129.953 169.789 132.203C169.53 133.683 169.737 135.015 170.344 135.732C170.467 135.892 170.625 136.022 170.806 136.112C170.987 136.201 171.185 136.249 171.387 136.25C172.69 136.25 174.073 134.423 174.48 132.173H174.569H174.48C174.637 131.578 174.669 130.958 174.574 130.35C174.478 129.742 174.257 129.161 173.925 128.643C173.804 128.484 173.649 128.355 173.471 128.264C173.293 128.173 173.097 128.123 172.897 128.118H172.882Z" fill="#FAFAFA"/>
<path d="M177.152 137.175C176.912 137.17 176.677 137.112 176.463 137.004C176.249 136.897 176.062 136.743 175.916 136.553C175.584 136.055 175.359 135.493 175.255 134.903C175.152 134.314 175.173 133.709 175.316 133.127C175.694 130.952 177.115 129.19 178.484 129.19C178.723 129.196 178.959 129.256 179.173 129.365C179.387 129.474 179.573 129.629 179.719 129.819C180.049 130.317 180.273 130.878 180.376 131.466C180.479 132.055 180.46 132.658 180.319 133.238C179.949 135.421 178.528 137.175 177.152 137.175ZM178.461 129.375C177.174 129.375 175.842 131.07 175.501 133.164C175.368 133.719 175.349 134.295 175.446 134.857C175.543 135.42 175.753 135.957 176.064 136.435C176.194 136.603 176.36 136.74 176.549 136.835C176.738 136.931 176.947 136.984 177.159 136.99C178.447 136.99 179.786 135.303 180.119 133.209C180.251 132.654 180.271 132.079 180.175 131.517C180.08 130.955 179.872 130.418 179.564 129.938C179.435 129.769 179.269 129.631 179.08 129.533C178.89 129.436 178.682 129.382 178.469 129.375H178.461Z" fill="#FAFAFA"/>
<path d="M109.886 302.906C109.146 302.906 108.369 301.766 107.969 301.108C107.955 301.086 107.947 301.06 107.947 301.034C107.947 301.007 107.955 300.982 107.969 300.96C107.986 300.939 108.007 300.922 108.032 300.912C108.056 300.901 108.083 300.897 108.11 300.9C108.347 300.952 110.382 301.396 110.641 302.092C110.67 302.169 110.678 302.252 110.664 302.333C110.649 302.413 110.613 302.489 110.559 302.551C110.486 302.662 110.386 302.753 110.269 302.815C110.151 302.878 110.019 302.909 109.886 302.906V302.906ZM108.339 301.241C108.909 302.099 109.464 302.61 109.864 302.632C109.952 302.633 110.04 302.611 110.118 302.568C110.195 302.525 110.261 302.463 110.308 302.388C110.333 302.362 110.349 302.329 110.356 302.294C110.363 302.258 110.359 302.221 110.345 302.188C110.211 301.818 109.153 301.448 108.339 301.241Z" fill="#059BDB"/>
<path d="M108.672 301.241C108.448 301.244 108.224 301.219 108.006 301.167C107.984 301.159 107.964 301.146 107.947 301.13C107.93 301.113 107.918 301.093 107.91 301.07C107.893 301.028 107.893 300.98 107.91 300.937C107.962 300.893 109.094 299.775 109.93 299.775H109.989C110.093 299.782 110.194 299.811 110.286 299.859C110.377 299.908 110.458 299.975 110.522 300.057C110.598 300.135 110.644 300.237 110.655 300.346C110.666 300.455 110.64 300.564 110.581 300.656C110.345 301.056 109.397 301.241 108.672 301.241ZM108.339 300.952C109.035 301.033 110.16 300.834 110.389 300.501C110.426 300.449 110.456 300.367 110.345 300.227C110.306 300.172 110.255 300.128 110.196 300.097C110.137 300.066 110.071 300.05 110.004 300.049C109.369 300.171 108.788 300.486 108.339 300.952V300.952Z" fill="#059BDB"/>
<path d="M150.801 317.402C150.188 317.385 149.579 317.311 148.98 317.18C148.952 317.174 148.926 317.16 148.906 317.138C148.886 317.117 148.873 317.09 148.869 317.062C148.866 317.033 148.871 317.005 148.884 316.98C148.898 316.955 148.918 316.934 148.943 316.921C149.217 316.788 151.592 315.604 152.281 316.003C152.343 316.043 152.395 316.097 152.431 316.162C152.467 316.227 152.487 316.299 152.488 316.373C152.496 316.498 152.474 316.623 152.424 316.738C152.374 316.853 152.297 316.954 152.199 317.032C151.787 317.308 151.295 317.438 150.801 317.402V317.402ZM149.446 317.002C150.712 317.21 151.666 317.158 152.036 316.84C152.099 316.785 152.149 316.716 152.181 316.639C152.213 316.562 152.227 316.479 152.221 316.396C152.223 316.368 152.217 316.34 152.204 316.315C152.191 316.29 152.171 316.27 152.147 316.255C151.777 316.04 150.46 316.544 149.446 317.002Z" fill="#059BDB"/>
<path d="M149.017 317.18C148.99 317.188 148.962 317.188 148.935 317.18C148.914 317.166 148.897 317.146 148.886 317.123C148.875 317.099 148.872 317.073 148.876 317.047C148.876 316.944 149.231 314.59 150.519 314.59H150.63C151 314.627 151.104 314.812 151.126 314.968C151.229 315.619 149.794 316.877 149.069 317.188L149.017 317.18ZM150.497 314.842C149.661 314.842 149.291 316.204 149.165 316.796C149.905 316.359 150.889 315.375 150.83 314.983C150.83 314.983 150.83 314.864 150.571 314.842H150.497Z" fill="#059BDB"/>
<path d="M171.35 131.655L172.512 131.551C172.512 131.551 171.779 132.306 171.35 131.655Z" fill="#263238"/>
<path d="M166.266 158.48C156.646 154.832 153.642 149.371 153.871 148.224L155.351 148.312H155.603C155.958 148.312 156.343 148.364 156.706 148.409C157.386 148.468 158.089 148.542 158.8 148.638L159.54 148.742C163.072 149.169 166.569 149.849 170.003 150.777C171.572 151.235 172.09 151.383 172.963 151.694L173.74 151.975L174.051 152.094C174.821 153.751 174.651 157.141 166.266 158.48Z" fill="#F1C09A"/>
<path d="M166.266 158.48C156.646 154.832 153.642 149.371 153.871 148.224L155.351 148.312H155.603C157.557 151.087 161.834 154.921 166.192 155.446C169.7 154.706 173.008 153.862 172.978 151.694L173.755 151.975L174.066 152.094C174.821 153.751 174.651 157.141 166.266 158.48Z" fill="#059BDB"/>
<path opacity="0.3" d="M166.266 158.48C156.646 154.832 153.642 149.371 153.871 148.224L155.351 148.312H155.603C157.557 151.087 161.834 154.921 166.192 155.446C169.7 154.706 173.008 153.862 172.978 151.694L173.755 151.975L174.066 152.094C174.821 153.751 174.651 157.141 166.266 158.48Z" fill="black"/>
<path d="M146.827 181.915L145.347 183.78C145.236 183.921 145.399 184.121 145.665 184.172L169.833 188.879C170.041 188.923 170.233 188.879 170.27 188.723L170.877 186.703C170.921 186.563 170.766 186.407 170.536 186.363L147.197 181.819C147.132 181.806 147.065 181.807 147.001 181.824C146.936 181.841 146.877 181.872 146.827 181.915V181.915Z" fill="#263238"/>
<path d="M149.454 185.134L148.832 185.016C148.706 185.016 148.625 184.912 148.647 184.831L149.461 182.211C149.461 182.13 149.609 182.093 149.728 182.115L150.357 182.234C150.482 182.234 150.564 182.345 150.542 182.419L149.728 185.046C149.698 185.088 149.655 185.12 149.606 185.136C149.556 185.152 149.503 185.152 149.454 185.134V185.134Z" fill="#059BDB"/>
<path opacity="0.3" d="M149.454 185.134L148.832 185.016C148.706 185.016 148.625 184.912 148.647 184.831L149.461 182.211C149.461 182.13 149.609 182.093 149.728 182.115L150.357 182.234C150.482 182.234 150.564 182.345 150.542 182.419L149.728 185.046C149.698 185.088 149.655 185.12 149.606 185.136C149.556 185.152 149.503 185.152 149.454 185.134V185.134Z" fill="black"/>
<path d="M151.097 157.052C150.815 158.806 150.549 160.752 150.357 162.572C150.164 164.393 149.994 166.272 149.905 168.167C149.856 169.099 149.826 170.031 149.816 170.964C149.816 171.889 149.816 172.814 149.816 173.739C149.853 175.551 149.994 177.36 150.238 179.156C150.378 179.771 150.629 180.355 150.978 180.88C151.421 181.6 151.916 182.288 152.458 182.937C153.641 184.34 154.906 185.672 156.247 186.926C157.601 188.228 159.022 189.486 160.48 190.714C161.938 191.943 163.44 193.164 164.92 194.34L163.329 196.797C159.846 194.888 156.516 192.714 153.368 190.293C151.743 189.048 150.21 187.688 148.78 186.223C148.018 185.437 147.318 184.593 146.686 183.699C145.904 182.642 145.348 181.435 145.051 180.155L144.777 178.586C144.681 178.075 144.614 177.565 144.555 177.061C144.407 176.04 144.326 175.026 144.244 174.013C144.09 171.996 144.043 169.973 144.104 167.952C144.163 165.947 144.274 163.949 144.474 161.958C144.673 159.967 144.925 158.014 145.325 155.957L151.097 157.052Z" fill="#F1C09A"/>
<path d="M146.183 149.666C143.016 152.227 143.771 159.834 143.771 159.834L154.427 163.342C154.427 163.342 153.938 154.573 153.42 151.42C152.784 147.668 149.291 147.143 146.183 149.666Z" fill="#263238"/>
<path d="M163.617 193.866L168.435 192.076L167.695 196.656C167.695 196.656 164.202 197.914 162.411 196.301L163.617 193.866Z" fill="#F1C09A"/>
<path d="M174.17 192.756V196.294L167.695 196.656L168.435 192.076L174.17 192.756Z" fill="#F1C09A"/>
<path d="M168.065 188.761L167.443 188.642C167.317 188.642 167.236 188.539 167.258 188.457L168.072 185.838C168.072 185.756 168.22 185.719 168.346 185.742L168.967 185.86C169.093 185.86 169.175 185.971 169.152 186.045L168.338 188.672C168.316 188.746 168.22 188.79 168.065 188.761Z" fill="#059BDB"/>
<path opacity="0.3" d="M168.065 188.761L167.443 188.642C167.317 188.642 167.236 188.539 167.258 188.457L168.072 185.838C168.072 185.756 168.22 185.719 168.346 185.742L168.967 185.86C169.093 185.86 169.175 185.971 169.152 186.045L168.338 188.672C168.316 188.746 168.22 188.79 168.065 188.761Z" fill="black"/>
<path d="M158.763 186.94L158.134 186.822C158.008 186.822 157.927 186.718 157.956 186.637L158.77 184.017C158.77 183.936 158.911 183.899 159.037 183.921L159.666 184.039C159.784 184.039 159.873 184.15 159.843 184.224L159.029 186.851C159.007 186.94 158.889 186.977 158.763 186.94Z" fill="#059BDB"/>
<path opacity="0.3" d="M158.763 186.94L158.134 186.822C158.008 186.822 157.927 186.718 157.956 186.637L158.77 184.017C158.77 183.936 158.911 183.899 159.037 183.921L159.666 184.039C159.784 184.039 159.873 184.15 159.843 184.224L159.029 186.851C159.007 186.94 158.889 186.977 158.763 186.94Z" fill="black"/>
<path d="M111.632 230.09L149.994 313.873C150.873 315.777 152.47 317.256 154.436 317.986C156.402 318.717 158.578 318.64 160.487 317.772L166.577 314.99L307.599 250.425C309.504 249.548 310.985 247.953 311.717 245.988C312.449 244.023 312.373 241.849 311.506 239.939L277.607 165.939L273.167 156.164C272.286 154.261 270.689 152.783 268.724 152.053C266.758 151.323 264.584 151.398 262.674 152.264L115.554 219.604C113.65 220.481 112.168 222.075 111.434 224.039C110.699 226.003 110.771 228.178 111.632 230.09V230.09Z" fill="#059BDB"/>
<path opacity="0.1" d="M111.632 230.09L149.994 313.873C150.873 315.777 152.47 317.256 154.436 317.986C156.402 318.717 158.578 318.64 160.487 317.772L166.577 314.99L307.599 250.425C309.504 249.548 310.985 247.953 311.717 245.988C312.449 244.023 312.373 241.849 311.506 239.939L277.607 165.939L273.167 156.164C272.286 154.261 270.689 152.783 268.724 152.053C266.758 151.323 264.584 151.398 262.674 152.264L115.554 219.604C113.65 220.481 112.168 222.075 111.434 224.039C110.699 226.003 110.771 228.178 111.632 230.09V230.09Z" fill="white"/>
<path d="M146.104 305.377L307.611 231.434L288.71 190.148L127.202 264.092L146.104 305.377Z" fill="#059BDB"/>
<path opacity="0.3" d="M146.104 305.377L307.611 231.434L288.71 190.148L127.202 264.092L146.104 305.377Z" fill="white"/>
<path d="M186.723 270.749L288.786 224.021L282.021 209.246L179.959 255.973L186.723 270.749Z" fill="#059BDB"/>
<path opacity="0.8" d="M186.723 270.749L288.786 224.021L282.021 209.246L179.959 255.973L186.723 270.749Z" fill="white"/>
<path d="M130.808 271.984L292.315 198.04L282.23 176.011L120.723 249.955L130.808 271.984Z" fill="#059BDB"/>
<path opacity="0.3" d="M130.808 271.984L292.315 198.04L282.23 176.011L120.723 249.955L130.808 271.984Z" fill="black"/>
<path d="M133.566 231.141L166.577 314.96L307.599 250.395C309.504 249.519 310.985 247.924 311.717 245.959C312.449 243.994 312.373 241.819 311.506 239.91L277.607 165.91L138.036 220.877C136.086 221.65 134.522 223.164 133.684 225.087C132.847 227.01 132.804 229.186 133.566 231.141V231.141Z" fill="#078EC8"/>
<path d="M320.225 204.646L319.526 204.892L320.682 208.18L321.38 207.935L320.225 204.646Z" fill="#059BDB"/>
<path opacity="0.1" d="M320.225 204.646L319.526 204.892L320.682 208.18L321.38 207.935L320.225 204.646Z" fill="white"/>
<path d="M314.392 188.111L313.693 188.356L318.244 201.315L318.942 201.069L314.392 188.111Z" fill="#059BDB"/>
<path opacity="0.1" d="M314.392 188.111L313.693 188.356L318.244 201.315L318.942 201.069L314.392 188.111Z" fill="white"/>
<path d="M143.386 221.165L296.048 167.552C298.028 166.863 300.201 166.986 302.091 167.894C303.981 168.802 305.435 170.422 306.134 172.399L336.666 259.342C337.356 261.322 337.234 263.495 336.328 265.386C335.421 267.277 333.803 268.733 331.827 269.435L179.165 323.048C177.183 323.736 175.01 323.612 173.119 322.704C171.229 321.796 169.774 320.178 169.071 318.201L138.539 231.259C137.849 229.277 137.972 227.103 138.88 225.212C139.788 223.321 141.408 221.866 143.386 221.165V221.165Z" fill="#059BDB"/>
<path opacity="0.1" d="M143.386 221.165L296.048 167.552C298.028 166.863 300.201 166.986 302.091 167.894C303.981 168.802 305.435 170.422 306.134 172.399L336.666 259.342C337.356 261.322 337.234 263.495 336.328 265.386C335.421 267.277 333.803 268.733 331.827 269.435L179.165 323.048C177.183 323.736 175.01 323.612 173.119 322.704C171.229 321.796 169.774 320.178 169.071 318.201L138.539 231.259C137.849 229.277 137.972 227.103 138.88 225.212C139.788 223.321 141.408 221.866 143.386 221.165V221.165Z" fill="white"/>
<path d="M163.507 302.347L331.103 243.492L317.821 205.67L150.225 264.526L163.507 302.347Z" fill="#059BDB"/>
<path opacity="0.3" d="M163.507 302.347L331.103 243.492L317.821 205.67L150.225 264.526L163.507 302.347Z" fill="white"/>
<path d="M265.011 204.831L299.655 192.665L297.76 187.267L263.115 199.434L265.011 204.831Z" fill="#059BDB"/>
<path opacity="0.8" d="M265.011 204.831L299.655 192.665L297.76 187.267L263.115 199.434L265.011 204.831Z" fill="white"/>
<path d="M294.167 265.939L321.962 256.178L320.971 253.358L293.176 263.118L294.167 265.939Z" fill="#059BDB"/>
<path opacity="0.8" d="M294.167 265.939L321.962 256.178L320.971 253.358L293.176 263.118L294.167 265.939Z" fill="white"/>
<path d="M288.038 274.155L323.855 261.577L322.865 258.756L287.047 271.335L288.038 274.155Z" fill="#059BDB"/>
<path opacity="0.8" d="M288.038 274.155L323.855 261.577L322.865 258.756L287.047 271.335L288.038 274.155Z" fill="white"/>
<path d="M179.373 312.316L197.282 306.027L195.151 299.96L177.242 306.249L179.373 312.316Z" fill="#059BDB"/>
<path opacity="0.8" d="M179.373 312.316L197.282 306.027L195.151 299.96L177.242 306.249L179.373 312.316Z" fill="white"/>
<path d="M290.905 247.99L311.817 240.65C312.919 240.257 313.822 239.446 314.33 238.391C314.837 237.336 314.907 236.124 314.525 235.018V235.018C314.133 233.916 313.321 233.013 312.267 232.506C311.212 231.998 310 231.928 308.894 232.31L287.974 239.658C286.872 240.05 285.969 240.862 285.462 241.917C284.954 242.971 284.884 244.183 285.266 245.289V245.289C285.66 246.392 286.473 247.295 287.529 247.801C288.585 248.307 289.799 248.375 290.905 247.99V247.99Z" fill="#059BDB"/>
<path d="M255.081 260.57L276.001 253.222C277.095 252.828 277.991 252.021 278.496 250.973C279.001 249.926 279.075 248.722 278.702 247.62C278.308 246.519 277.496 245.618 276.442 245.112C275.387 244.607 274.176 244.537 273.071 244.919L252.158 252.268C251.056 252.66 250.153 253.472 249.646 254.526C249.139 255.581 249.068 256.793 249.45 257.899C249.85 258.995 250.664 259.889 251.718 260.389C252.772 260.889 253.98 260.954 255.081 260.57V260.57Z" fill="#059BDB"/>
<path d="M219.28 273.15L240.2 265.802C241.291 265.405 242.184 264.596 242.686 263.549C243.188 262.502 243.26 261.3 242.886 260.2V260.2C242.492 259.099 241.68 258.198 240.626 257.692C239.571 257.186 238.36 257.117 237.255 257.499L216.32 264.818C215.219 265.211 214.318 266.024 213.812 267.078C213.306 268.133 213.237 269.344 213.619 270.449V270.449C214.013 271.557 214.83 272.464 215.891 272.97C216.952 273.477 218.171 273.541 219.28 273.15Z" fill="#059BDB"/>
<path d="M183.442 285.73L204.361 278.382C205.457 277.989 206.355 277.182 206.861 276.135C207.368 275.087 207.443 273.883 207.07 272.78V272.78C206.676 271.679 205.864 270.778 204.809 270.272C203.755 269.766 202.544 269.697 201.438 270.079L180.519 277.427C179.416 277.82 178.513 278.631 178.006 279.686C177.499 280.74 177.429 281.953 177.81 283.059V283.059C178.21 284.154 179.025 285.049 180.078 285.549C181.132 286.049 182.34 286.114 183.442 285.73Z" fill="#059BDB"/>
<g opacity="0.8">
<path opacity="0.8" d="M290.905 247.99L311.817 240.65C312.919 240.257 313.822 239.446 314.33 238.391C314.837 237.336 314.907 236.124 314.525 235.018V235.018C314.133 233.916 313.321 233.013 312.267 232.506C311.212 231.998 310 231.928 308.894 232.31L287.974 239.658C286.872 240.05 285.969 240.862 285.462 241.917C284.954 242.971 284.884 244.183 285.266 245.289V245.289C285.66 246.392 286.473 247.295 287.529 247.801C288.585 248.307 289.799 248.375 290.905 247.99V247.99Z" fill="white"/>
<path opacity="0.8" d="M255.081 260.57L276.001 253.222C277.095 252.828 277.991 252.021 278.496 250.973C279.001 249.926 279.075 248.722 278.702 247.62C278.308 246.519 277.496 245.618 276.441 245.112C275.387 244.607 274.175 244.537 273.07 244.919L252.158 252.268C251.055 252.66 250.152 253.472 249.645 254.526C249.138 255.581 249.068 256.793 249.449 257.899C249.849 258.995 250.664 259.889 251.718 260.389C252.771 260.889 253.979 260.954 255.081 260.57V260.57Z" fill="white"/>
<path opacity="0.8" d="M219.28 273.151L240.2 265.802C241.291 265.405 242.183 264.597 242.686 263.55C243.188 262.502 243.26 261.3 242.886 260.201V260.201C242.492 259.099 241.68 258.198 240.625 257.693C239.571 257.187 238.36 257.117 237.254 257.5L216.32 264.818C215.219 265.212 214.317 266.024 213.812 267.079C213.306 268.133 213.237 269.344 213.619 270.45V270.45C214.012 271.558 214.829 272.464 215.891 272.971C216.952 273.477 218.171 273.542 219.28 273.151Z" fill="white"/>
<path opacity="0.8" d="M183.442 285.731L204.361 278.382C205.457 277.99 206.355 277.183 206.861 276.135C207.368 275.088 207.443 273.883 207.07 272.781V272.781C206.676 271.68 205.864 270.778 204.809 270.273C203.755 269.767 202.544 269.698 201.438 270.08L180.519 277.428C179.416 277.82 178.513 278.632 178.006 279.686C177.499 280.741 177.429 281.953 177.81 283.059V283.059C178.21 284.155 179.025 285.049 180.078 285.549C181.132 286.049 182.34 286.114 183.442 285.731Z" fill="white"/>
</g>
<path d="M289.043 231.159L307.657 224.622C309.238 224.067 310.069 222.336 309.514 220.755L305.635 209.709C305.08 208.128 303.348 207.297 301.767 207.852L283.153 214.388C281.572 214.944 280.741 216.675 281.296 218.256L285.175 229.302C285.73 230.883 287.462 231.714 289.043 231.159Z" fill="#059BDB"/>
<path opacity="0.3" d="M289.043 231.159L307.657 224.622C309.238 224.067 310.069 222.336 309.514 220.755L305.635 209.709C305.08 208.128 303.348 207.297 301.767 207.852L283.153 214.388C281.572 214.944 280.741 216.675 281.296 218.256L285.175 229.302C285.73 230.883 287.462 231.714 289.043 231.159Z" fill="black"/>
<path d="M179.32 242.595C176.635 242.596 174.047 241.588 172.069 239.772C170.091 237.956 168.868 235.463 168.641 232.787C168.413 230.111 169.199 227.448 170.842 225.324C172.485 223.2 174.866 221.77 177.513 221.318C180.16 220.866 182.88 221.424 185.135 222.882C187.39 224.34 189.016 226.592 189.69 229.191C190.363 231.791 190.037 234.548 188.774 236.918C187.512 239.288 185.405 241.098 182.872 241.989C181.731 242.391 180.53 242.596 179.32 242.595ZM179.32 221.875C178.183 221.878 177.055 222.07 175.983 222.445C173.469 223.329 171.409 225.175 170.256 227.577C169.102 229.979 168.951 232.741 169.833 235.255V235.255C170.445 236.991 171.522 238.525 172.947 239.691C174.372 240.856 176.09 241.607 177.913 241.862C179.736 242.117 181.594 241.866 183.284 241.137C184.974 240.407 186.431 239.227 187.496 237.726C188.56 236.224 189.192 234.459 189.321 232.622C189.45 230.786 189.072 228.95 188.229 227.314C187.385 225.678 186.108 224.305 184.536 223.346C182.965 222.387 181.161 221.878 179.32 221.875Z" fill="#059BDB"/>
<path opacity="0.8" d="M179.32 242.595C176.635 242.596 174.047 241.588 172.069 239.772C170.091 237.956 168.868 235.463 168.641 232.787C168.413 230.111 169.199 227.448 170.842 225.324C172.485 223.2 174.866 221.77 177.513 221.318C180.16 220.866 182.88 221.424 185.135 222.882C187.39 224.34 189.016 226.592 189.69 229.191C190.363 231.791 190.037 234.548 188.774 236.918C187.512 239.288 185.405 241.098 182.872 241.989C181.731 242.391 180.53 242.596 179.32 242.595ZM179.32 221.875C178.183 221.878 177.055 222.07 175.983 222.445C173.469 223.329 171.409 225.175 170.256 227.577C169.102 229.979 168.951 232.741 169.833 235.255V235.255C170.445 236.991 171.522 238.525 172.947 239.691C174.372 240.856 176.09 241.607 177.913 241.862C179.736 242.117 181.594 241.866 183.284 241.137C184.974 240.407 186.431 239.227 187.496 237.726C188.56 236.224 189.192 234.459 189.321 232.622C189.45 230.786 189.072 228.95 188.229 227.314C187.385 225.678 186.108 224.305 184.536 223.346C182.965 222.387 181.161 221.878 179.32 221.875Z" fill="white"/>
<path d="M154.219 240.716C154.901 242.646 156.14 244.332 157.78 245.558C159.419 246.785 161.385 247.499 163.43 247.609C165.474 247.72 167.506 247.221 169.267 246.178C171.029 245.134 172.442 243.592 173.328 241.746C174.214 239.9 174.532 237.833 174.244 235.806C173.956 233.779 173.074 231.883 171.708 230.357C170.343 228.831 168.556 227.743 166.574 227.232C164.591 226.721 162.501 226.809 160.569 227.485C159.281 227.935 158.096 228.634 157.08 229.543C156.064 230.452 155.237 231.553 154.647 232.782C154.057 234.011 153.716 235.345 153.642 236.706C153.569 238.068 153.765 239.43 154.219 240.716V240.716Z" fill="#059BDB"/>
<path opacity="0.8" d="M154.219 240.716C154.901 242.646 156.14 244.332 157.78 245.558C159.419 246.785 161.385 247.499 163.43 247.609C165.474 247.72 167.506 247.221 169.267 246.178C171.029 245.134 172.442 243.592 173.328 241.746C174.214 239.9 174.532 237.833 174.244 235.806C173.956 233.779 173.074 231.883 171.708 230.357C170.343 228.831 168.556 227.743 166.574 227.232C164.591 226.721 162.501 226.809 160.569 227.485C159.281 227.935 158.096 228.634 157.08 229.543C156.064 230.452 155.237 231.553 154.647 232.782C154.057 234.011 153.716 235.345 153.642 236.706C153.569 238.068 153.765 239.43 154.219 240.716V240.716Z" fill="white"/>
<path d="M300.819 138.249C313.948 133.546 320.742 119.097 315.994 105.976C311.246 92.8555 296.754 86.0311 283.624 90.7337C270.495 95.4363 263.701 109.885 268.449 123.006C273.197 136.127 287.689 142.952 300.819 138.249Z" fill="#059BDB"/>
<path opacity="0.4" d="M300.819 138.249C313.948 133.546 320.742 119.097 315.994 105.976C311.246 92.8555 296.754 86.0311 283.624 90.7337C270.495 95.4363 263.701 109.885 268.449 123.006C273.197 136.127 287.689 142.952 300.819 138.249Z" fill="black"/>
<path opacity="0.2" d="M299.666 134.347C310.646 130.279 316.219 118.086 312.113 107.112C308.008 96.1375 295.778 90.5388 284.797 94.6065C273.817 98.6742 268.244 110.868 272.349 121.842C276.455 132.816 288.685 138.415 299.666 134.347Z" fill="black"/>
<path d="M300.112 134.858C310.495 130.554 315.393 118.651 311.051 108.273C306.709 97.8948 294.773 92.9714 284.39 97.276C274.007 101.581 269.11 113.483 273.451 123.861C277.793 134.24 289.729 139.163 300.112 134.858Z" fill="#059BDB"/>
<path opacity="0.4" d="M300.112 134.858C310.495 130.554 315.393 118.651 311.051 108.273C306.709 97.8948 294.773 92.9714 284.39 97.276C274.007 101.581 269.11 113.483 273.451 123.861C277.793 134.24 289.729 139.163 300.112 134.858Z" fill="black"/>
<path d="M289.927 120.878L280.782 115.598L281.683 114.038L289.066 111.712C290.14 111.361 290.955 111.022 291.509 110.694C292.074 110.364 292.498 109.953 292.782 109.461C293.156 108.813 293.274 108.184 293.137 107.574C293.005 106.967 292.632 106.485 292.015 106.129C291.28 105.705 290.581 105.6 289.918 105.815C289.254 106.029 288.697 106.526 288.248 107.304L285.978 105.994C286.456 105.166 287.073 104.529 287.828 104.085C288.592 103.638 289.429 103.432 290.339 103.467C291.255 103.506 292.17 103.79 293.086 104.318C294.406 105.081 295.253 106.014 295.628 107.119C296.013 108.221 295.868 109.358 295.192 110.529C294.8 111.207 294.195 111.809 293.378 112.333C292.57 112.855 291.457 113.338 290.039 113.781L284.659 115.42L290.973 119.065L289.927 120.878Z" fill="white"/>
<path d="M295.182 121.745C295.737 122.065 296.294 122.171 296.855 122.063C297.415 121.955 297.858 121.662 298.183 121.186L300.313 122.415C299.799 123.248 299.049 123.807 298.062 124.092C297.085 124.375 296.091 124.341 295.081 123.991L293.82 126.176L291.951 125.098L293.213 122.912C292.196 122.042 291.627 120.979 291.506 119.722C291.388 118.458 291.725 117.142 292.516 115.772L292.667 115.51C293.433 114.184 294.392 113.255 295.545 112.725C296.698 112.195 297.905 112.153 299.167 112.6L300.381 110.498L302.249 111.577L301.041 113.669C301.924 114.411 302.458 115.284 302.642 116.288C302.833 117.294 302.661 118.291 302.125 119.277L299.995 118.047C300.297 117.424 300.368 116.826 300.209 116.253C300.054 115.673 299.693 115.22 299.126 114.893C297.694 114.066 296.367 114.595 295.146 116.48L294.748 117.147C294.115 118.243 293.839 119.176 293.918 119.944C294.008 120.709 294.429 121.31 295.182 121.745Z" fill="white"/>
<path d="M248.654 92.2686C247.51 78.3696 235.311 68.0672 221.409 69.2575C207.506 70.4478 197.163 82.68 198.307 96.5789C199.452 110.478 211.65 120.78 225.553 119.59C239.455 118.4 249.798 106.167 248.654 92.2686Z" fill="#059BDB"/>
<path opacity="0.4" d="M248.654 92.2686C247.51 78.3696 235.311 68.0672 221.409 69.2575C207.506 70.4478 197.163 82.68 198.307 96.5789C199.452 110.478 211.65 120.78 225.553 119.59C239.455 118.4 249.798 106.167 248.654 92.2686Z" fill="black"/>
<path opacity="0.2" d="M244.586 92.3714C243.499 80.7122 233.163 72.1731 221.5 73.2987C209.837 74.4244 201.264 84.7886 202.351 96.4478C203.438 108.107 213.774 116.646 225.437 115.52C237.1 114.395 245.673 104.031 244.586 92.3714Z" fill="black"/>
<path d="M245.195 92.0746C243.724 80.9314 233.495 73.1201 222.346 74.6277C211.198 76.1352 203.353 86.3907 204.824 97.5339C206.295 108.677 216.524 116.488 227.672 114.981C238.82 113.473 246.665 103.218 245.195 92.0746Z" fill="#059BDB"/>
<path opacity="0.4" d="M245.195 92.0746C243.724 80.9314 233.495 73.1201 222.346 74.6277C211.198 76.1352 203.353 86.3907 204.824 97.5339C206.295 108.677 216.524 116.488 227.672 114.981C238.82 113.473 246.665 103.218 245.195 92.0746Z" fill="black"/>
<path d="M229.055 98.2933L221.588 105.76L220.314 104.486L219.979 96.7527C219.918 95.6239 219.801 94.7494 219.628 94.129C219.455 93.4986 219.168 92.9825 218.766 92.5808C218.237 92.052 217.66 91.7749 217.035 91.7495C216.414 91.719 215.853 91.9554 215.349 92.4588C214.749 93.0588 214.467 93.707 214.503 94.4036C214.538 95.1002 214.874 95.7663 215.509 96.4018L213.656 98.2551C212.98 97.5789 212.525 96.8188 212.291 95.9747C212.057 95.1205 212.075 94.2587 212.344 93.3892C212.619 92.5147 213.13 91.7037 213.877 90.9563C214.955 89.8784 216.076 89.3013 217.241 89.225C218.405 89.1386 219.465 89.5733 220.421 90.5292C220.975 91.0834 221.4 91.8232 221.695 92.7486C221.99 93.6638 222.168 94.8638 222.229 96.3484L222.419 101.969L227.575 96.8137L229.055 98.2933Z" fill="white"/>
<path d="M231.253 93.4411C231.705 92.9886 231.952 92.4776 231.992 91.9081C232.033 91.3387 231.865 90.8353 231.489 90.398L233.228 88.6591C233.899 89.3709 234.245 90.2404 234.265 91.2675C234.285 92.2844 233.996 93.2352 233.396 94.1199L235.18 95.9046L233.655 97.4299L231.87 95.6453C230.767 96.4028 229.592 96.6774 228.347 96.4689C227.096 96.2554 225.911 95.5893 224.793 94.4707L224.579 94.2572C223.496 93.1742 222.848 92.0073 222.634 90.7565C222.421 89.5057 222.693 88.3286 223.45 87.2253L221.734 85.5092L223.26 83.9839L224.968 85.6923C225.914 85.0313 226.895 84.7415 227.912 84.8228C228.934 84.8991 229.852 85.3237 230.665 86.0965L228.926 87.8354C228.403 87.3829 227.843 87.1592 227.248 87.1643C226.649 87.1643 226.117 87.3956 225.654 87.8583C224.485 89.0277 224.653 90.4463 226.158 92.114L226.699 92.6708C227.594 93.5657 228.423 94.0741 229.186 94.1962C229.948 94.308 230.637 94.0563 231.253 93.4411Z" fill="white"/>
</svg>
