<svg width="405" height="405" viewBox="0 0 405 405" fill="none" xmlns="http://www.w3.org/2000/svg">
<path opacity="0.4" d="M202.5 328.314C272.104 328.314 328.529 325.02 328.529 320.956C328.529 316.892 272.104 313.598 202.5 313.598C132.897 313.598 76.4717 316.892 76.4717 320.956C76.4717 325.02 132.897 328.314 202.5 328.314Z" fill="#23AEEA"/>
<path d="M276.691 320.956H192.672C191.441 320.963 190.221 320.719 189.087 320.238C187.954 319.758 186.93 319.051 186.078 318.162C185.227 317.273 184.565 316.219 184.134 315.066C183.703 313.912 183.512 312.683 183.572 311.453L191.21 132.339C191.345 129.793 192.444 127.394 194.284 125.629C196.124 123.864 198.566 122.866 201.116 122.836H285.135C286.366 122.828 287.587 123.072 288.721 123.552C289.855 124.032 290.879 124.739 291.731 125.628C292.583 126.518 293.244 127.572 293.675 128.726C294.105 129.879 294.296 131.109 294.235 132.339L286.597 311.453C286.461 313.999 285.361 316.397 283.521 318.161C281.682 319.926 279.24 320.925 276.691 320.956V320.956Z" fill="#059BDB"/>
<path d="M290.653 194.161H290.075C289.798 194.162 289.525 194.107 289.271 193.999C289.017 193.891 288.787 193.732 288.596 193.533C288.405 193.334 288.257 193.097 288.16 192.839C288.063 192.58 288.02 192.304 288.034 192.029L289.47 158.359C289.501 157.788 289.748 157.25 290.161 156.854C290.574 156.458 291.121 156.234 291.693 156.227H292.272C292.547 156.225 292.821 156.28 293.074 156.388C293.328 156.496 293.557 156.655 293.748 156.854C293.938 157.054 294.086 157.29 294.182 157.549C294.278 157.808 294.32 158.083 294.306 158.359L292.876 192.029C292.845 192.6 292.598 193.137 292.185 193.533C291.772 193.929 291.225 194.153 290.653 194.161Z" fill="#059BDB"/>
<path d="M189.149 169.214H187.686C187.468 169.216 187.252 169.173 187.05 169.088C186.849 169.003 186.667 168.878 186.516 168.721C186.365 168.563 186.248 168.376 186.172 168.171C186.096 167.966 186.063 167.748 186.075 167.53L186.484 157.917C186.507 157.465 186.701 157.038 187.027 156.725C187.353 156.411 187.786 156.233 188.239 156.227H189.701C189.92 156.225 190.137 156.269 190.339 156.354C190.541 156.44 190.723 156.565 190.874 156.724C191.026 156.882 191.143 157.069 191.22 157.274C191.296 157.479 191.331 157.698 191.32 157.917L190.91 167.53C190.886 167.982 190.69 168.408 190.363 168.72C190.035 169.033 189.602 169.209 189.149 169.214V169.214Z" fill="#263238"/>
<path d="M188.421 186.387H186.952C186.734 186.388 186.518 186.344 186.317 186.259C186.116 186.174 185.935 186.049 185.784 185.892C185.633 185.734 185.516 185.547 185.44 185.343C185.364 185.139 185.33 184.921 185.34 184.703L185.75 175.083C185.774 174.632 185.969 174.208 186.295 173.895C186.621 173.583 187.053 173.406 187.505 173.4H188.974C189.192 173.399 189.408 173.442 189.609 173.527C189.81 173.612 189.991 173.737 190.142 173.895C190.293 174.052 190.41 174.239 190.486 174.443C190.562 174.648 190.596 174.865 190.586 175.083L190.176 184.703C190.152 185.154 189.957 185.579 189.631 185.891C189.305 186.204 188.873 186.381 188.421 186.387V186.387Z" fill="#263238"/>
<path d="M274.429 320.956H190.41C189.178 320.965 187.958 320.722 186.823 320.242C185.689 319.762 184.664 319.056 183.812 318.166C182.96 317.276 182.299 316.222 181.868 315.068C181.438 313.913 181.248 312.683 181.31 311.453L188.941 132.339C189.077 129.793 190.176 127.394 192.015 125.629C193.855 123.864 196.298 122.866 198.847 122.836H282.873C284.104 122.828 285.325 123.072 286.459 123.552C287.593 124.032 288.617 124.739 289.469 125.628C290.321 126.518 290.982 127.572 291.413 128.726C291.843 129.879 292.034 131.109 291.973 132.339L284.335 311.453C284.2 313.999 283.101 316.398 281.261 318.163C279.421 319.928 276.979 320.927 274.429 320.956Z" fill="#263238"/>
<path opacity="0.6" d="M274.429 320.956H190.41C189.178 320.965 187.958 320.722 186.823 320.242C185.689 319.762 184.664 319.056 183.812 318.166C182.96 317.276 182.299 316.222 181.868 315.068C181.438 313.913 181.248 312.683 181.31 311.453L188.941 132.339C189.077 129.793 190.176 127.394 192.015 125.629C193.855 123.864 196.298 122.866 198.847 122.836H282.873C284.104 122.828 285.325 123.072 286.459 123.552C287.593 124.032 288.617 124.739 289.469 125.628C290.321 126.518 290.982 127.572 291.413 128.726C291.843 129.879 292.034 131.109 291.973 132.339L284.335 311.453C284.2 313.999 283.101 316.398 281.261 318.163C279.421 319.928 276.979 320.927 274.429 320.956Z" fill="#059BDB"/>
<path opacity="0.5" d="M239.329 308.873C239.242 310.588 238.503 312.205 237.263 313.393C236.024 314.582 234.378 315.253 232.66 315.269C231.831 315.276 231.009 315.113 230.245 314.791C229.481 314.469 228.792 313.993 228.219 313.394C227.645 312.794 227.201 312.084 226.913 311.307C226.625 310.529 226.499 309.701 226.544 308.873C226.63 307.159 227.368 305.543 228.606 304.355C229.845 303.167 231.49 302.498 233.206 302.483C234.035 302.476 234.857 302.638 235.621 302.96C236.384 303.282 237.074 303.757 237.648 304.355C238.221 304.954 238.666 305.663 238.956 306.44C239.245 307.217 239.372 308.045 239.329 308.873Z" fill="#059BDB"/>
<path opacity="0.5" d="M222.215 131.26C222.248 130.564 222.546 129.908 223.047 129.424C223.549 128.941 224.216 128.668 224.913 128.66C225.249 128.657 225.583 128.723 225.893 128.854C226.203 128.985 226.483 129.179 226.715 129.422C226.948 129.666 227.127 129.955 227.243 130.271C227.359 130.587 227.409 130.924 227.389 131.26C227.358 131.956 227.06 132.614 226.558 133.098C226.057 133.581 225.389 133.854 224.692 133.86C224.355 133.863 224.021 133.797 223.711 133.666C223.401 133.535 223.121 133.342 222.889 133.098C222.657 132.854 222.477 132.565 222.361 132.249C222.245 131.933 222.195 131.596 222.215 131.26V131.26Z" fill="#059BDB"/>
<path opacity="0.5" d="M233.856 128.667H255.371C255.707 128.665 256.04 128.732 256.349 128.864C256.659 128.996 256.938 129.19 257.17 129.433C257.401 129.676 257.581 129.965 257.698 130.28C257.814 130.595 257.865 130.931 257.848 131.267C257.814 131.962 257.517 132.619 257.015 133.102C256.514 133.586 255.847 133.859 255.15 133.867H233.635C233.299 133.869 232.965 133.802 232.656 133.671C232.346 133.539 232.067 133.346 231.834 133.102C231.602 132.859 231.423 132.57 231.307 132.254C231.19 131.939 231.14 131.602 231.159 131.267V131.267C231.193 130.571 231.491 129.916 231.993 129.433C232.494 128.949 233.16 128.676 233.856 128.667V128.667Z" fill="#059BDB"/>
<path d="M263.385 255.16C279.448 239.434 280.256 214.209 265.189 198.817C250.121 183.425 224.884 183.696 208.821 199.421C192.757 215.147 191.949 240.372 207.016 255.764C222.084 271.155 247.321 270.885 263.385 255.16Z" fill="white"/>
<path d="M242.95 220.863H243.567L244.984 220.148H246.089L247.038 220.59H248.078L248.475 220.362L248.501 219.719L247.929 219.452L247.123 218.614L247.155 217.808H246.512L245.966 218.334L245.244 217.574H244.406L243.034 219.842L243.333 220.388L242.878 220.687L242.95 220.863Z" fill="#059BDB"/>
<path d="M251.276 221.474L251.243 222.26L251.939 222.995H253.375L253.434 221.493H253.115L253.174 220.083L252.582 219.465L252.621 218.49H253.239L253.278 217.632L252.381 217.509L250.866 218.965L250.834 219.771L251.666 220.648L251.646 221.116L251.276 221.474Z" fill="#059BDB"/>
<path d="M201.883 242.8L199.283 240.083L199.367 238.081L201.525 236.014L201.571 234.98L200.479 233.836H198.321L198.366 232.732L196.325 231.75C196.779 238.535 199.042 245.075 202.877 250.691L203.709 245.842L201.837 243.892L201.883 242.8Z" fill="#059BDB"/>
<path opacity="0.3" d="M250.828 251.374L246.771 265.199C248.522 264.648 250.231 263.975 251.887 263.184L250.828 251.374Z" fill="#263238"/>
<path d="M280.455 297.699H186.361C186.076 297.701 185.793 297.645 185.53 297.534C185.267 297.423 185.03 297.259 184.832 297.052C184.635 296.846 184.482 296.601 184.383 296.334C184.284 296.066 184.24 295.781 184.255 295.496L190.801 142.05C190.829 141.459 191.083 140.902 191.509 140.492C191.936 140.082 192.504 139.851 193.095 139.847H287.183C287.469 139.844 287.753 139.899 288.016 140.01C288.28 140.121 288.518 140.285 288.716 140.491C288.914 140.698 289.068 140.943 289.167 141.211C289.267 141.479 289.311 141.765 289.295 142.05L282.756 295.496C282.727 296.087 282.472 296.645 282.044 297.055C281.616 297.465 281.048 297.695 280.455 297.699Z" fill="#E4EEF5"/>
<path d="M274.596 291.1H193.349C193.103 291.102 192.858 291.05 192.631 290.948C192.404 290.845 192.199 290.695 192.029 290.505C191.859 290.315 191.727 290.09 191.641 289.844C191.555 289.598 191.518 289.336 191.531 289.074L197.183 148C197.207 147.457 197.426 146.944 197.794 146.567C198.163 146.19 198.653 145.978 199.164 145.974H280.405C280.652 145.971 280.897 146.023 281.125 146.124C281.352 146.226 281.558 146.377 281.729 146.567C281.9 146.757 282.033 146.982 282.119 147.228C282.205 147.475 282.242 147.737 282.229 148L276.583 289.074C276.557 289.618 276.337 290.13 275.968 290.507C275.598 290.884 275.108 291.096 274.596 291.1Z" fill="white"/>
<path d="M270.494 220.138C270.494 237.745 254.377 253.218 235.813 253.218C217.249 253.218 204.333 238.702 204.333 220.138C204.333 201.573 221.407 186.524 237.947 186.524C256.511 186.524 270.494 200.214 270.494 220.138Z" fill="#DCF5FF"/>
<path d="M270.494 220.379L268.701 221.186H268.07L267.4 221.834V222.412L268.296 223.356L268.248 224.528L266.85 225.428V225.073L265.851 224.015H265.241L265.181 225.351L266.261 226.84L266.223 227.685L266.493 227.968H266.11L265.354 226.987L265.381 226.267L264.874 225.607L264.939 224.075L264.615 222.543H264.431L264.086 222.881H263.767L263.81 221.889L263.098 221.137V220.591H262.968L262.558 220.989H261.726L259.475 223.17L259.421 224.403L258.752 225.586L258.309 225.384L257.64 223.721L257.267 221.578L256.538 221.295L255.329 219.397H252.565L252.317 219.108H251.237L250.416 218.536L250.19 217.794H249.65L249.396 217.985L249.898 219.386L250.767 220.477L251.701 219.572H251.944L252.079 219.981L252.921 220.733L252.274 221.502L252.16 221.965L250.481 223.203L247.566 224.174L247.409 222.505L246.421 221.229L245.882 219.713L244.802 218.203V218.558L245.768 222.276L247.528 225.046L249.472 224.741L249.418 225.946L248.392 227.521L245.574 230.122L245.52 231.403L246.006 233.623L244.208 235.58L244.149 236.932L242.475 239.009V239.478L240.24 240.76H239.187L238.863 240.182L237.595 234.555L237.649 233.257L237.93 232.859L237.978 231.687L236.801 228.873L236.834 228.126L237.104 227.952V227.243L236.904 226.905H235.867L235.387 226.256H234.075L232.342 226.567H230.247L228.509 223.65L228.633 220.722L232.439 216L234.771 215.352H237.287L237.46 216.606L239.981 217.696L240.564 217.151H241.914L242.319 217.576H244.694L245.477 216.208L245.509 215.559L245.331 215.368H245.066L244.872 215.553H244.456L244.251 215.341H243.89L243.674 215.553H243.393L243.166 215.308L242.659 214.763L242.702 213.672H241.914L241.557 213.858L241.687 214.708L241.341 214.861V215.27L241.093 215.139L240.483 213.836V213.22L239.684 212.674L238.718 211.655H238.318V212.129L238.858 212.593L238.901 212.952L240.105 213.879L239.986 214.136L239.932 213.879H239.625L239.673 214.277L239.09 214.883L238.912 215.319L238.405 214.774H239.052L239.339 214.501V213.988L237.719 212.713L237.584 212.271H237.017L236.429 212.723H235.975L235.646 212.571L235.106 212.909V213.247L234.226 214.103V214.545L233.519 215.292H232.844L232.563 215.471H232.223L232.072 215.226L231.316 215.073L231.359 214.065L231.824 213.618V212.745H233.924L234.043 211.442L233.163 210.602L236.574 208.334L237.465 207.958L237.519 206.764L237.994 206.301L237.93 207.827L239.706 207.582H241.26L241.309 206.415L241.676 206.061L241.903 206.301H242.211L242.248 205.363H243.441L243.884 204.937H241.914L241.514 204.518L241.563 203.482L242.696 202.391V201.846H241.914L239.862 203.831L239.754 206.639L238.809 206.993L238.27 205.581L237.05 206.066L236.591 205.581L236.645 204.256L240.165 200.063L244.014 198.918L247.312 200.75L246.697 201.344H244.667L246.286 203.067L248.165 201.977L254.784 199.905L262.201 196.748C259.221 193.496 255.602 190.908 251.575 189.147C247.548 187.387 243.202 186.494 238.815 186.525C233.675 186.528 228.604 187.714 223.985 189.992L225.524 189.829L230.382 191.274L227.683 199.452L224.093 200.924L221.658 202.129L220.778 204.954L218.829 204.218L217.474 201.159L217.863 200.221L216.783 195.57L215.995 195.401C214.618 196.638 213.338 197.982 212.168 199.42L213.96 201.055L212.967 203.858L210.715 202.358L211.207 201.333L210.915 201.028C209.39 203.138 208.103 205.413 207.077 207.811L208.156 208.46L209.495 207.167L209.63 203.858L213.949 205.815L216.206 208.667L215.185 209.654H213.134L213.706 211.578L207.768 217.227L208.459 218.972L208.038 219.381L206.774 218.045H204.491C204.431 218.667 204.383 219.299 204.356 219.932C204.329 220.564 204.323 221.311 204.356 221.993H204.442L205.128 221.333H206.132L205.592 221.878L205.533 223.29H206.753L207.141 224.817H208.119L209.074 225.831L210.111 224.806L216.249 227.129L216.913 228.628L219.164 229.719L220.589 229.806L222.133 231.158L220.632 233.568L219.79 236.332L217.539 237.216L212.626 243.088C217.082 247.991 222.955 251.349 229.411 252.684L229.907 252.444L234.572 252.112L237.735 251.844L238.75 251.299L241.363 251.392L243.312 251.937L242.848 252.112L243.62 252.499C249.372 251.131 254.69 248.319 259.081 244.323C263.472 240.328 266.794 235.279 268.739 229.642L268.091 228.432L269.398 227.57C270.02 225.22 270.387 222.809 270.494 220.379V220.379ZM252.921 196.006L255.761 194.992H257.03L253.288 196.666L252.489 198.024L253.256 198.973L252.257 198.842L251.717 197.937L252.921 196.006ZM243.501 192.599L242.642 192.986L240.856 192.386L243.501 192.599ZM240.073 192.599L241.978 193.449L242.912 194.065L241.833 194.24L241.601 193.624L240.996 193.471L240.17 194.905L238.944 193.335L238.793 192.789L240.073 192.599ZM209.7 221.785L209.161 221.66L206.947 220.749L207.438 220.537L209.738 221.333L209.7 221.785ZM211.201 222.369H210.024L210.354 221.785L211.665 221.922L211.201 222.369ZM232.655 206.104L233.292 205.793L233.832 206.911L234.825 208.836L232.844 209.632L233.26 207.713L232.558 207.015L232.655 206.104ZM231.435 207.571H232.515L232.266 208.803H231.284L231.435 207.571ZM229.087 202.866L228.612 203.013L227.742 202.833L227.559 202.326L227.775 202.086L229.573 201.666L230.474 202.086L230.296 202.424L229.34 202.549L229.087 202.866ZM248.824 235.727L247.901 237.39H247.274L247.01 237.112L247.064 235.891L247.382 235.58L247.188 235.373L247.242 234.282L248.473 233.644L248.964 232.881L249.094 233.721L248.824 235.727ZM266.893 230.444H266.256L264.777 228.263L263.853 226.829L264.615 226.894L266.931 229.522L266.893 230.444Z" fill="url(#paint0_linear)"/>
<path d="M142.857 148.745C141.655 152.067 140.439 155.453 139.282 158.801C138.691 160.478 138.132 162.155 137.592 163.825C137.053 165.496 136.552 167.16 136.143 168.772C135.935 169.571 135.759 170.364 135.649 171.06C135.59 171.411 135.571 171.71 135.545 171.944C135.519 172.178 135.545 172.594 135.545 172.932C135.691 174.547 135.96 176.149 136.351 177.722C137.137 181.063 138.151 184.515 139.152 187.914L135.681 189.546C133.665 186.383 131.943 183.041 130.54 179.562C129.778 177.709 129.196 175.787 128.804 173.822C128.7 173.257 128.628 172.686 128.59 172.113C128.559 171.506 128.572 170.898 128.629 170.293C128.726 169.188 128.882 168.2 129.058 167.238C129.821 163.558 130.787 159.924 131.95 156.35C133.068 152.84 134.271 149.415 135.629 145.95L142.857 148.745Z" fill="#F0BCAA"/>
<path d="M138.086 186.25L140.978 189.981L135.648 192.503C135.648 192.503 134.127 190.046 135.044 187.745L138.086 186.25Z" fill="#F0BCAA"/>
<path d="M142.746 193.199L138.859 195.623L135.648 192.497L140.978 189.975L142.746 193.199Z" fill="#F0BCAA"/>
<path d="M161.337 124.273C161.291 124.682 161.467 125.033 161.74 125.066C162.013 125.098 162.26 124.786 162.305 124.377C162.351 123.967 162.169 123.616 161.902 123.584C161.636 123.551 161.382 123.85 161.337 124.273Z" fill="#263238"/>
<path d="M161.434 125.033C161.784 126.337 162.311 127.586 163.001 128.745C162.7 128.915 162.365 129.017 162.02 129.044C161.676 129.071 161.329 129.022 161.005 128.901L161.434 125.033Z" fill="#BD8B86"/>
<path d="M160.089 121.835C160.031 121.818 159.982 121.778 159.952 121.725C159.936 121.697 159.926 121.667 159.921 121.635C159.917 121.603 159.92 121.571 159.928 121.54C159.936 121.509 159.951 121.48 159.971 121.455C159.991 121.43 160.015 121.409 160.043 121.393C160.373 121.197 160.745 121.083 161.128 121.059C161.512 121.035 161.895 121.103 162.247 121.257C162.303 121.289 162.345 121.341 162.364 121.402C162.384 121.464 162.379 121.53 162.351 121.588C162.32 121.644 162.27 121.686 162.209 121.706C162.149 121.725 162.083 121.72 162.026 121.692V121.692C161.746 121.572 161.441 121.52 161.136 121.542C160.832 121.563 160.538 121.657 160.277 121.816C160.249 121.832 160.217 121.842 160.185 121.845C160.153 121.848 160.12 121.845 160.089 121.835V121.835Z" fill="#263238"/>
<path d="M148.207 127.302C148.941 131.033 149.669 137.877 147.056 140.367C147.056 140.367 148.083 144.156 155.019 144.156C162.65 144.156 158.665 140.367 158.665 140.367C154.499 139.372 154.609 136.285 155.331 133.379L148.207 127.302Z" fill="#F0BCAA"/>
<path d="M144.852 142.291C144.163 141.836 145.06 139.451 145.749 139.041C147.576 137.936 155.675 137.566 159.048 139.691C159.359 140.08 159.578 140.534 159.69 141.018C159.803 141.503 159.806 142.007 159.698 142.493L144.852 142.291Z" fill="#263238"/>
<path d="M126.003 315.354C126.211 315.417 126.43 315.438 126.647 315.415C126.864 315.391 127.074 315.324 127.264 315.217C127.337 315.144 127.385 315.051 127.401 314.949C127.417 314.848 127.401 314.743 127.355 314.652C127.329 314.574 127.287 314.504 127.231 314.445C127.175 314.387 127.106 314.342 127.03 314.314C126.321 314.021 124.774 314.743 124.709 314.775C124.688 314.784 124.669 314.8 124.656 314.819C124.644 314.839 124.637 314.862 124.638 314.886C124.639 314.909 124.646 314.931 124.658 314.951C124.671 314.97 124.689 314.986 124.709 314.996C125.127 315.16 125.56 315.28 126.003 315.354V315.354ZM126.789 314.496L126.932 314.535C126.977 314.553 127.017 314.58 127.051 314.615C127.084 314.65 127.11 314.691 127.127 314.736C127.205 314.951 127.127 315.022 127.127 315.042C126.867 315.289 125.827 315.126 125.106 314.873C125.633 314.627 126.207 314.498 126.789 314.496V314.496Z" fill="#059BDB"/>
<path d="M124.741 315.002H124.8C125.365 314.807 126.555 313.871 126.542 313.293C126.54 313.201 126.506 313.113 126.445 313.044C126.384 312.975 126.301 312.93 126.21 312.916C126.122 312.889 126.028 312.882 125.936 312.894C125.844 312.906 125.756 312.938 125.677 312.987C125.027 313.364 124.657 314.801 124.644 314.859C124.637 314.88 124.637 314.902 124.643 314.923C124.648 314.944 124.66 314.962 124.676 314.976C124.695 314.991 124.718 315 124.741 315.002V315.002ZM126.093 313.13H126.145C126.295 313.169 126.301 313.247 126.301 313.273C126.301 313.618 125.528 314.346 124.943 314.651C125.074 314.084 125.373 313.57 125.801 313.176C125.889 313.124 125.994 313.108 126.093 313.13Z" fill="#059BDB"/>
<path d="M160.634 316.003C161.284 316.003 161.934 315.912 162.136 315.62C162.189 315.543 162.218 315.451 162.218 315.357C162.218 315.263 162.189 315.171 162.136 315.093C162.094 315.022 162.039 314.96 161.973 314.911C161.907 314.862 161.832 314.826 161.752 314.807C160.907 314.58 159.152 315.594 159.048 315.639C159.026 315.65 159.008 315.669 158.997 315.691C158.987 315.713 158.984 315.739 158.99 315.763C158.992 315.787 159.002 315.809 159.019 315.827C159.035 315.845 159.057 315.856 159.081 315.86C159.593 315.953 160.113 316.001 160.634 316.003V316.003ZM161.447 315.015C161.524 315.005 161.603 315.005 161.681 315.015C161.729 315.026 161.775 315.046 161.815 315.075C161.856 315.104 161.889 315.141 161.915 315.184C161.999 315.334 161.967 315.412 161.915 315.451C161.674 315.782 160.387 315.789 159.438 315.659C160.059 315.314 160.741 315.095 161.447 315.015V315.015Z" fill="#059BDB"/>
<path d="M159.094 315.867H159.146C159.757 315.587 160.979 314.489 160.888 313.917C160.888 313.78 160.771 313.611 160.433 313.579C160.317 313.569 160.199 313.582 160.087 313.618C159.976 313.653 159.872 313.711 159.783 313.787C159.133 314.32 158.997 315.691 158.99 315.737C158.99 315.758 158.994 315.779 159.003 315.798C159.012 315.818 159.026 315.834 159.042 315.847C159.058 315.857 159.076 315.864 159.094 315.867V315.867ZM160.342 313.793H160.414C160.628 313.793 160.641 313.897 160.648 313.93C160.706 314.274 159.874 315.139 159.244 315.522C159.293 314.942 159.52 314.39 159.894 313.943C160.019 313.839 160.179 313.785 160.342 313.793Z" fill="#059BDB"/>
<path d="M153.479 315.743H158.588L159.095 303.92H153.992L153.479 315.743Z" fill="#F0BCAA"/>
<path d="M119.041 313.93L124.137 314.762L127.757 303.517L122.655 302.685L119.041 313.93Z" fill="#F0BCAA"/>
<path d="M124.501 314.235L118.839 313.306C118.739 313.288 118.636 313.306 118.547 313.356C118.458 313.405 118.389 313.484 118.352 313.579L116.623 317.888C116.582 317.994 116.565 318.107 116.573 318.219C116.581 318.332 116.615 318.441 116.671 318.539C116.727 318.637 116.804 318.721 116.897 318.785C116.99 318.849 117.096 318.891 117.208 318.909C119.158 319.195 120.172 319.24 122.655 319.65C124.189 319.903 128.089 320.813 130.227 320.95C132.366 321.086 132.782 319 131.917 318.74C128.05 317.628 126.321 316.003 125.261 314.684C125.072 314.445 124.801 314.286 124.501 314.235V314.235Z" fill="#263238"/>
<path d="M158.554 315.152H152.977C152.875 315.151 152.776 315.186 152.697 315.25C152.617 315.314 152.563 315.403 152.542 315.503L151.534 320.053C151.51 320.162 151.51 320.276 151.536 320.385C151.561 320.494 151.611 320.596 151.682 320.683C151.753 320.77 151.842 320.84 151.944 320.887C152.046 320.935 152.157 320.958 152.269 320.957C154.277 320.924 157.183 320.807 159.711 320.807C162.669 320.807 163.917 320.97 167.381 320.97C169.474 320.97 170.059 318.851 169.182 318.656C165.184 317.785 163.234 317.694 159.783 315.562C159.418 315.316 158.993 315.174 158.554 315.152Z" fill="#263238"/>
<path d="M137.917 141.524C133.257 143.058 130.462 155.583 130.462 155.583L140.699 161.986C142.931 159.116 144.38 155.716 144.905 152.119C145.951 145.593 142.701 139.951 137.917 141.524Z" fill="#059BDB"/>
<g opacity="0.4">
<path opacity="0.4" d="M137.917 141.524C133.257 143.058 130.462 155.583 130.462 155.583L140.699 161.986C142.931 159.116 144.38 155.716 144.905 152.119C145.951 145.593 142.701 139.951 137.917 141.524Z" fill="white"/>
</g>
<path opacity="0.2" d="M140.712 154.654C139.548 156.449 138.781 158.473 138.463 160.588L140.699 161.986C142.625 159.517 143.959 156.64 144.599 153.575L140.712 154.654Z" fill="black"/>
<path d="M166.517 141.784C166.517 141.784 171.951 147.92 166.816 185.906H139.516C139.327 181.714 141.96 161.271 137.917 141.524C140.935 140.941 143.988 140.554 147.056 140.367C150.922 140.143 154.799 140.143 158.665 140.367C161.315 140.635 163.94 141.109 166.517 141.784V141.784Z" fill="#059BDB"/>
<g opacity="0.4">
<path opacity="0.4" d="M166.517 141.784C166.517 141.784 171.951 147.92 166.816 185.906H139.516C139.327 181.714 141.96 161.271 137.917 141.524C140.935 140.941 143.988 140.554 147.056 140.367C150.922 140.143 154.799 140.143 158.665 140.367C161.315 140.635 163.94 141.109 166.517 141.784V141.784Z" fill="white"/>
</g>
<path opacity="0.2" d="M168.902 153.393L168.798 153.302L162.591 154.791C162.24 158.99 166.556 164.001 168.779 166.296C169.054 162 169.095 157.693 168.902 153.393V153.393Z" fill="black"/>
<path opacity="0.2" d="M159.095 303.926L158.835 310.017H153.726L153.986 303.926H159.095Z" fill="black"/>
<path opacity="0.2" d="M122.655 302.685L127.757 303.524L125.885 309.315L120.789 308.483L122.655 302.685Z" fill="black"/>
<path d="M147.777 121.901C147.537 126.958 147.127 129.909 149.389 132.769C152.776 137.072 159.237 135.453 160.985 130.565C162.565 126.171 162.701 118.631 158.002 116.09C156.968 115.523 155.807 115.231 154.628 115.24C153.45 115.249 152.293 115.56 151.268 116.142C150.244 116.725 149.385 117.56 148.774 118.567C148.163 119.575 147.82 120.723 147.777 121.901Z" fill="#F0BCAA"/>
<path d="M157.177 126.34C155.123 129.486 156.273 130.532 155.123 131.975C153.972 133.418 146.27 135.479 146.198 131.832C146.234 130.53 145.97 129.237 145.425 128.053C144.881 126.87 144.071 125.828 143.059 125.007C142.616 124.571 142.282 124.037 142.083 123.448C141.885 122.86 141.827 122.232 141.915 121.617C142.003 121.002 142.234 120.416 142.589 119.907C142.945 119.397 143.415 118.978 143.962 118.683C146.705 117.168 142.799 116.427 144.476 113.99C146.972 110.376 150.384 109.186 153.238 111.682C156.091 114.178 160.719 115.582 164.041 112.404C167.362 109.225 166.784 121.621 158.516 121.055C162.071 124.611 156.13 122.875 157.177 126.34Z" fill="#263238"/>
<path d="M145.698 117.428C144.353 118.371 142.383 115.238 142.851 113.528C141.148 115.478 141.551 118.676 145.035 118.728C148.519 118.78 145.698 117.428 145.698 117.428Z" fill="#263238"/>
<path d="M155.532 123.954C155.395 125.206 155.677 126.467 156.331 127.542C157.209 128.953 158.489 128.407 158.931 126.977C159.347 125.677 159.393 123.395 158.177 122.485C156.962 121.575 155.701 122.453 155.532 123.954Z" fill="#F0BCAA"/>
<path d="M157.131 185.906C157.131 185.906 151.339 224.906 148.161 239.524C144.651 255.527 128.544 308.45 128.544 308.45L119.444 306.5C119.444 306.5 129.954 263.353 132.879 240.981C135.122 223.795 139.548 185.906 139.548 185.906H157.131Z" fill="#263238"/>
<path d="M130.735 305.428C130.774 305.428 129.032 308.73 129.032 308.73L118.749 306.5L119.62 303.406L130.735 305.428Z" fill="#059BDB"/>
<path opacity="0.3" d="M153.471 199.803C146.776 201.103 147.485 226.095 148.271 238.939C150.221 229.839 153.029 212.387 154.96 199.985C154.498 199.759 153.974 199.695 153.471 199.803V199.803Z" fill="black"/>
<path d="M166.817 185.906C166.817 185.906 168.942 224.068 168.383 239.635C167.805 255.801 160.733 308.841 160.733 308.841H152.088C152.088 308.841 153.186 256.769 152.803 240.87C152.38 223.535 147.187 185.906 147.187 185.906H166.817Z" fill="#263238"/>
<path d="M162.396 305.396C162.435 305.396 161.908 308.984 161.908 308.984H151.391L151.105 305.779L162.396 305.396Z" fill="#059BDB"/>
<path d="M169.292 146.958C170.755 150.351 172.347 153.848 173.998 157.209C175.582 160.538 177.371 163.766 179.354 166.874C179.842 167.615 180.342 168.324 180.856 168.987L181.246 169.467C181.376 169.617 181.415 169.682 181.545 169.819C181.766 170.066 182.071 170.338 182.37 170.618C183.618 171.749 185.139 172.861 186.647 173.972C189.689 176.175 192.881 178.36 196.007 180.576L194.246 183.982C190.538 182.608 186.924 180.99 183.43 179.139C181.598 178.189 179.83 177.118 178.139 175.935C177.661 175.593 177.201 175.226 176.761 174.837C176.54 174.642 176.254 174.355 176.052 174.154L175.487 173.537C174.759 172.718 174.089 171.892 173.452 171.053C171.076 167.769 168.955 164.308 167.108 160.699C166.198 158.931 165.308 157.163 164.508 155.356C163.709 153.549 162.851 151.801 162.123 149.851L169.292 146.958Z" fill="#F0BCAA"/>
<path d="M159.069 146.886C155.13 152.736 164.353 163.351 164.353 163.351L174.669 156.201C173.95 152.574 172.773 149.053 171.165 145.723C167.805 138.657 162.072 142.447 159.069 146.886Z" fill="#059BDB"/>
<g opacity="0.4">
<path opacity="0.4" d="M159.069 146.886C155.13 152.736 164.353 163.351 164.353 163.351L174.669 156.201C173.95 152.574 172.773 149.053 171.165 145.723C167.805 138.657 162.072 142.447 159.069 146.886Z" fill="white"/>
</g>
<path d="M192.907 179.894L199.251 180.791L197.593 186.121C197.593 186.121 193.089 186.121 191.743 182.65L192.907 179.894Z" fill="#F0BCAA"/>
<path d="M201.22 182.494L199.848 186.862L197.573 186.121L199.231 180.791L201.22 182.494Z" fill="#F0BCAA"/>
<path opacity="0.8" d="M340.103 116.573L331.976 122.587C331.764 122.742 331.498 122.808 331.238 122.77C330.977 122.731 330.742 122.592 330.584 122.381L319.133 106.906C318.978 106.693 318.913 106.427 318.952 106.167C318.991 105.906 319.132 105.672 319.343 105.515L327.47 99.5007C327.683 99.3448 327.948 99.2789 328.209 99.3173C328.469 99.3558 328.704 99.4956 328.862 99.7063L340.313 115.182C340.469 115.395 340.534 115.66 340.494 115.92C340.455 116.181 340.314 116.415 340.103 116.573V116.573Z" fill="#059BDB"/>
<path d="M340.499 115.885L330.862 113.347C329.969 113.111 329.183 112.578 328.634 111.836C328.085 111.094 327.805 110.187 327.841 109.264L328.238 99.3143C328.49 99.3605 328.714 99.5017 328.864 99.7087L340.315 115.184C340.462 115.386 340.528 115.636 340.499 115.885V115.885Z" fill="#00A6DA"/>
<path opacity="0.6" d="M340.499 115.885L330.862 113.347C329.969 113.111 329.183 112.578 328.634 111.836C328.085 111.094 327.805 110.187 327.841 109.264L328.238 99.3143C328.49 99.3605 328.714 99.5017 328.864 99.7087L340.315 115.184C340.462 115.386 340.528 115.636 340.499 115.885V115.885Z" fill="#4882C5"/>
<path opacity="0.8" d="M290.194 103.374L283.962 114.167C283.799 114.448 283.532 114.653 283.218 114.737C282.905 114.822 282.57 114.779 282.288 114.619L261.735 102.753C261.455 102.589 261.251 102.32 261.168 102.007C261.084 101.693 261.128 101.359 261.289 101.077L267.521 90.2834C267.684 90.0027 267.952 89.7978 268.265 89.7132C268.579 89.6286 268.913 89.6712 269.195 89.8316L289.748 101.698C290.028 101.862 290.232 102.13 290.316 102.444C290.399 102.758 290.355 103.092 290.194 103.374V103.374Z" fill="#059BDB"/>
<path d="M290.304 102.401L278.161 104.27C277.036 104.442 275.886 104.226 274.9 103.657C273.915 103.088 273.152 102.2 272.739 101.14L268.297 89.6959C268.604 89.6243 268.927 89.6737 269.199 89.8338L289.752 101.7C290.017 101.856 290.214 102.107 290.304 102.401V102.401Z" fill="#00A6DA"/>
<path opacity="0.6" d="M290.304 102.401L278.161 104.27C277.036 104.442 275.886 104.226 274.9 103.657C273.915 103.088 273.152 102.2 272.739 101.14L268.297 89.6959C268.604 89.6243 268.927 89.6737 269.199 89.8338L289.752 101.7C290.017 101.856 290.214 102.107 290.304 102.401V102.401Z" fill="#4882C5"/>
<path opacity="0.8" d="M254.432 64.5907L249.377 73.3464C249.245 73.5741 249.028 73.7403 248.773 73.8089C248.519 73.8776 248.248 73.843 248.019 73.7129L231.346 64.0872C231.119 63.9539 230.954 63.7363 230.886 63.4818C230.818 63.2272 230.854 62.9562 230.985 62.7276L236.04 53.9719C236.172 53.7442 236.389 53.578 236.644 53.5094C236.898 53.4408 237.169 53.4753 237.398 53.6054L254.07 63.2312C254.298 63.3644 254.463 63.582 254.531 63.8366C254.599 64.0911 254.563 64.3622 254.432 64.5907V64.5907Z" fill="#059BDB"/>
<path d="M254.521 63.8017L244.671 65.3177C243.758 65.4573 242.825 65.2818 242.026 64.8202C241.226 64.3585 240.608 63.6382 240.272 62.778L236.669 53.4949C236.918 53.4369 237.18 53.477 237.401 53.6068L254.073 63.2325C254.289 63.3594 254.448 63.5625 254.521 63.8017V63.8017Z" fill="#00A6DA"/>
<path opacity="0.6" d="M254.521 63.8017L244.671 65.3177C243.758 65.4573 242.825 65.2818 242.026 64.8202C241.226 64.3585 240.608 63.6382 240.272 62.778L236.669 53.4949C236.918 53.4369 237.18 53.477 237.401 53.6068L254.073 63.2325C254.289 63.3594 254.448 63.5625 254.521 63.8017V63.8017Z" fill="#4882C5"/>
<g opacity="0.6">
<path opacity="0.8" d="M206.744 45.4511L209.383 54.0819C209.451 54.307 209.427 54.5499 209.317 54.7577C209.207 54.9655 209.019 55.1215 208.795 55.1918L192.361 60.2163C192.135 60.2835 191.893 60.2591 191.685 60.1483C191.478 60.0376 191.322 59.8495 191.253 59.6248L188.614 50.994C188.546 50.7689 188.57 50.5261 188.68 50.3183C188.79 50.1104 188.977 49.9544 189.202 49.8841L205.636 44.8596C205.862 44.7924 206.104 44.8169 206.312 44.9276C206.519 45.0384 206.675 45.2265 206.744 45.4511V45.4511Z" fill="#059BDB"/>
<path d="M206.283 44.9124L201.276 52.266C200.812 52.9468 200.129 53.4491 199.341 53.6901C198.553 53.9311 197.706 53.8963 196.94 53.5916L188.686 50.2924C188.8 50.0943 188.985 49.9477 189.204 49.8828L205.639 44.8583C205.853 44.7949 206.083 44.8142 206.283 44.9124V44.9124Z" fill="#00A6DA"/>
<path opacity="0.6" d="M206.283 44.9124L201.276 52.266C200.812 52.9468 200.129 53.4491 199.341 53.6901C198.553 53.9311 197.706 53.8963 196.94 53.5916L188.686 50.2924C188.8 50.0943 188.985 49.9477 189.204 49.8828L205.639 44.8583C205.853 44.7949 206.083 44.8142 206.283 44.9124V44.9124Z" fill="#4882C5"/>
</g>
<path opacity="0.8" d="M180.304 73.6742L187.453 80.8232C187.639 81.0101 187.743 81.2627 187.744 81.5261C187.744 81.7896 187.641 82.0425 187.456 82.2301L173.843 95.8429C173.656 96.0279 173.403 96.1314 173.139 96.1309C172.876 96.1305 172.623 96.0261 172.436 95.8405L165.287 88.6915C165.102 88.5046 164.997 88.252 164.997 87.9885C164.996 87.7251 165.1 87.4721 165.285 87.2846L178.898 73.6718C179.085 73.4868 179.338 73.3833 179.602 73.3837C179.865 73.3842 180.118 73.4886 180.304 73.6742V73.6742Z" fill="#059BDB"/>
<path d="M179.565 73.384L178.48 83.2907C178.379 84.2084 177.968 85.0642 177.315 85.7171C176.662 86.37 175.807 86.7809 174.889 86.8823L164.99 87.96C164.998 87.7042 165.104 87.4615 165.287 87.2821L178.9 73.6693C179.078 73.4941 179.316 73.3923 179.565 73.384V73.384Z" fill="#00A6DA"/>
<path opacity="0.6" d="M179.565 73.384L178.48 83.2907C178.379 84.2084 177.968 85.0642 177.315 85.7171C176.662 86.37 175.807 86.7809 174.889 86.8823L164.99 87.96C164.998 87.7042 165.104 87.4615 165.287 87.2821L178.9 73.6693C179.078 73.4941 179.316 73.3923 179.565 73.384V73.384Z" fill="#4882C5"/>
<path opacity="0.8" d="M225.3 89.9626L230.234 101.874C230.362 102.185 230.361 102.534 230.233 102.844C230.105 103.155 229.86 103.402 229.55 103.533L206.869 112.928C206.557 113.054 206.209 113.053 205.899 112.924C205.589 112.795 205.342 112.548 205.212 112.239L200.278 100.327C200.151 100.016 200.151 99.6676 200.279 99.357C200.407 99.0464 200.653 98.7989 200.962 98.6682L223.644 89.2731C223.955 89.1467 224.303 89.1482 224.614 89.2773C224.924 89.4064 225.17 89.6527 225.3 89.9626V89.9626Z" fill="#059BDB"/>
<path d="M224.571 89.2601L218.458 100.402C217.891 101.434 216.989 102.242 215.901 102.693C214.813 103.143 213.604 103.21 212.474 102.881L200.285 99.3199C200.419 99.0227 200.663 98.7887 200.966 98.6664L223.648 89.2714C223.943 89.1519 224.273 89.1479 224.571 89.2601V89.2601Z" fill="#00A6DA"/>
<path opacity="0.6" d="M224.571 89.2601L218.458 100.402C217.891 101.434 216.989 102.242 215.901 102.693C214.813 103.143 213.604 103.21 212.474 102.881L200.285 99.3199C200.419 99.0227 200.663 98.7887 200.966 98.6664L223.648 89.2714C223.943 89.1519 224.273 89.1479 224.571 89.2601V89.2601Z" fill="#4882C5"/>
<g opacity="0.6">
<path opacity="0.8" d="M304.483 71.5428L296.002 74.6296C295.781 74.7093 295.537 74.6984 295.324 74.5994C295.111 74.5004 294.945 74.3213 294.863 74.1008L288.985 57.9519C288.907 57.7304 288.918 57.4867 289.018 57.2737C289.118 57.0608 289.297 56.8958 289.518 56.8146L297.999 53.7278C298.22 53.6482 298.464 53.659 298.677 53.758C298.891 53.857 299.056 54.0362 299.138 54.2566L305.016 70.4055C305.095 70.6271 305.083 70.8708 304.983 71.0837C304.884 71.2967 304.704 71.4617 304.483 71.5428V71.5428Z" fill="#059BDB"/>
<path d="M304.997 71.0543L297.391 66.439C296.687 66.0108 296.15 65.3555 295.868 64.581C295.586 63.8065 295.576 62.959 295.84 62.1783L298.703 53.7628C298.907 53.8661 299.063 54.0439 299.139 54.2592L305.017 70.4081C305.091 70.6184 305.084 70.849 304.997 71.0543V71.0543Z" fill="#00A6DA"/>
<path opacity="0.6" d="M304.997 71.0543L297.391 66.439C296.687 66.0108 296.15 65.3555 295.868 64.581C295.586 63.8065 295.576 62.959 295.84 62.1783L298.703 53.7628C298.907 53.8661 299.063 54.0439 299.139 54.2592L305.017 70.4081C305.091 70.6184 305.084 70.849 304.997 71.0543V71.0543Z" fill="#4882C5"/>
</g>
<defs>
<linearGradient id="paint0_linear" x1="237.414" y1="186.524" x2="237.414" y2="252.684" gradientUnits="userSpaceOnUse">
<stop stop-color="#52CBFF" stop-opacity="0.38"/>
<stop offset="1" stop-color="#52CBFF"/>
</linearGradient>
</defs>
</svg>
