<svg width="281" height="229" viewBox="0 0 281 229" fill="none" xmlns="http://www.w3.org/2000/svg">
<path opacity="0.4" d="M140.225 229C217.669 229 280.45 225.335 280.45 220.813C280.45 216.292 217.669 212.626 140.225 212.626C62.7808 212.626 0 216.292 0 220.813C0 225.335 62.7808 229 140.225 229Z" fill="#23AEEA"/>
<path d="M184.465 0H101.535C95.7169 0 91 4.72466 91 10.5528V209.447C91 215.275 95.7169 220 101.535 220H184.465C190.283 220 195 215.275 195 209.447V10.5528C195 4.72466 190.283 0 184.465 0Z" fill="#059BDB"/>
<path opacity="0.7" d="M184.465 0H101.535C95.7169 0 91 4.72466 91 10.5528V209.447C91 215.275 95.7169 220 101.535 220H184.465C190.283 220 195 215.275 195 209.447V10.5528C195 4.72466 190.283 0 184.465 0Z" fill="white"/>
<path d="M184.414 0H101.186C95.3462 0 90.6123 4.7339 90.6123 10.5735V209.856C90.6123 215.696 95.3462 220.43 101.186 220.43H184.414C190.253 220.43 194.987 215.696 194.987 209.856V10.5735C194.987 4.7339 190.253 0 184.414 0Z" fill="#059BDB"/>
<path opacity="0.2" d="M184.414 0H101.186C95.3462 0 90.6123 4.7339 90.6123 10.5735V209.856C90.6123 215.696 95.3462 220.43 101.186 220.43H184.414C190.253 220.43 194.987 215.696 194.987 209.856V10.5735C194.987 4.7339 190.253 0 184.414 0Z" fill="black"/>
<path d="M146.871 210.717C146.873 211.649 146.598 212.56 146.081 213.335C145.564 214.111 144.829 214.715 143.968 215.073C143.108 215.43 142.16 215.524 141.246 215.342C140.333 215.161 139.493 214.712 138.834 214.053C138.175 213.395 137.727 212.555 137.545 211.641C137.364 210.727 137.458 209.78 137.815 208.919C138.172 208.059 138.777 207.323 139.552 206.807C140.327 206.29 141.239 206.015 142.17 206.016C143.417 206.016 144.613 206.511 145.495 207.393C146.376 208.275 146.871 209.47 146.871 210.717Z" fill="#059BDB"/>
<path opacity="0.4" d="M146.871 210.717C146.873 211.649 146.598 212.56 146.081 213.335C145.564 214.111 144.829 214.715 143.968 215.073C143.108 215.43 142.16 215.524 141.246 215.342C140.333 215.161 139.493 214.712 138.834 214.053C138.175 213.395 137.727 212.555 137.545 211.641C137.364 210.727 137.458 209.78 137.815 208.919C138.172 208.059 138.777 207.323 139.552 206.807C140.327 206.29 141.239 206.015 142.17 206.016C143.417 206.016 144.613 206.511 145.495 207.393C146.376 208.275 146.871 209.47 146.871 210.717Z" fill="black"/>
<path d="M194.148 203.825H90.2939V14.3992H194.871L194.148 203.825Z" fill="#059BDB"/>
<path opacity="0.8" d="M195.066 203.724L90.2354 203.847V14.4139L194.972 14.3054L195.066 203.724Z" fill="white"/>
<path d="M172.407 22.239H100.368C96.3972 22.239 93.1787 25.4575 93.1787 29.4278V72.4304C93.1787 76.4007 96.3972 79.6192 100.368 79.6192H172.407C176.378 79.6192 179.596 76.4007 179.596 72.4304V29.4278C179.596 25.4575 176.378 22.239 172.407 22.239Z" fill="white"/>
<path opacity="0.27" d="M110.108 44.3243C114.983 42.2859 117.283 36.6812 115.245 31.8058C113.206 26.9304 107.601 24.6306 102.726 26.669C97.8507 28.7074 95.5509 34.3121 97.5893 39.1875C99.6277 44.0629 105.232 46.3627 110.108 44.3243Z" fill="#059BDB"/>
<path d="M114.319 35.4958C114.325 36.81 113.996 38.1042 113.364 39.2565C112.446 40.949 110.942 42.2481 109.134 42.9095C107.326 43.5709 105.338 43.549 103.545 42.8479C101.752 42.1469 100.277 40.815 99.3969 39.1027C98.5168 37.3903 98.2925 35.4155 98.7662 33.5494C99.2399 31.6833 100.379 30.0545 101.969 28.9693C103.559 27.884 105.491 27.417 107.402 27.6561C109.312 27.8952 111.069 28.8239 112.343 30.2676C113.617 31.7113 114.319 33.5705 114.319 35.4958Z" fill="white"/>
<path opacity="0.27" d="M113.364 39.2491C112.686 40.4994 111.684 41.5435 110.462 42.2711C109.239 42.9986 107.844 43.3827 106.421 43.3827C104.999 43.3827 103.603 42.9986 102.381 42.2711C101.159 41.5435 100.156 40.4994 99.4785 39.2491C101.534 37.8769 103.95 37.1445 106.421 37.1445C108.893 37.1445 111.309 37.8769 113.364 39.2491Z" fill="#059BDB"/>
<path opacity="0.27" d="M106.421 36.2982C108.362 36.2982 109.936 34.7246 109.936 32.7834C109.936 30.8422 108.362 29.2686 106.421 29.2686C104.48 29.2686 102.906 30.8422 102.906 32.7834C102.906 34.7246 104.48 36.2982 106.421 36.2982Z" fill="#059BDB"/>
<path d="M174.295 84.9204H98.4799C95.5521 84.9204 93.1787 87.2938 93.1787 90.2216V99.703C93.1787 102.631 95.5521 105.004 98.4799 105.004H174.295C177.223 105.004 179.596 102.631 179.596 99.703V90.2216C179.596 87.2938 177.223 84.9204 174.295 84.9204Z" fill="white"/>
<path d="M214.03 102.542L224.249 130.704C224.512 131.441 224.474 132.252 224.142 132.96C223.81 133.669 223.212 134.218 222.477 134.487L168.865 153.934C168.129 154.198 167.319 154.16 166.611 153.83C165.902 153.499 165.353 152.903 165.082 152.169L154.863 124C154.598 123.264 154.636 122.454 154.968 121.746C155.3 121.038 155.9 120.491 156.635 120.225L210.247 100.77C210.984 100.507 211.795 100.545 212.504 100.877C213.212 101.209 213.761 101.808 214.03 102.542Z" fill="#059BDB"/>
<path d="M212.41 100.836L197.085 126.054C195.666 128.393 193.49 130.176 190.919 131.108C188.347 132.041 185.535 132.067 182.946 131.182L155.016 121.65C155.352 120.979 155.931 120.462 156.636 120.203L210.248 100.749C210.954 100.504 211.726 100.535 212.41 100.836Z" fill="#147FBC"/>
<path opacity="0.6" d="M177.47 155.355L176.978 180.725C176.963 181.387 176.687 182.016 176.21 182.475C175.733 182.934 175.094 183.187 174.432 183.177L126.129 182.237C125.801 182.23 125.478 182.159 125.178 182.028C124.877 181.896 124.606 181.707 124.379 181.47C124.152 181.234 123.974 180.955 123.855 180.65C123.735 180.345 123.677 180.019 123.684 179.691L124.169 154.321C124.177 153.977 124.256 153.64 124.399 153.328C124.541 153.016 124.746 152.736 125 152.505C125.471 152.085 126.083 151.857 126.714 151.869L175.018 152.802C175.681 152.817 176.311 153.094 176.771 153.572C177.23 154.051 177.482 154.692 177.47 155.355Z" fill="#059BDB"/>
<path d="M176.711 153.511L156.924 168.785C155.089 170.2 152.826 170.947 150.509 170.902C148.192 170.857 145.96 170.024 144.181 168.539L125.037 152.505C125.508 152.085 126.12 151.857 126.751 151.869L175.055 152.802C175.676 152.824 176.266 153.077 176.711 153.511Z" fill="#059BDB"/>
<path opacity="0.5" d="M176.711 153.511L156.924 168.785C155.089 170.2 152.826 170.947 150.509 170.902C148.192 170.857 145.96 170.024 144.181 168.539L125.037 152.505C125.508 152.085 126.12 151.857 126.751 151.869L175.055 152.802C175.676 152.824 176.266 153.077 176.711 153.511Z" fill="white"/>
<path d="M128.747 5.96672C128.749 5.63804 128.847 5.31715 129.031 5.04456C129.215 4.77197 129.475 4.55989 129.779 4.4351C130.083 4.31031 130.417 4.2784 130.739 4.3434C131.062 4.40839 131.357 4.56738 131.589 4.8003C131.821 5.03321 131.979 5.32961 132.042 5.65208C132.106 5.97455 132.073 6.30864 131.947 6.61217C131.82 6.91569 131.607 7.17505 131.334 7.35751C131.06 7.53997 130.739 7.63735 130.41 7.63735C130.191 7.63736 129.975 7.59409 129.772 7.51004C129.57 7.426 129.386 7.30282 129.232 7.1476C129.077 6.99237 128.955 6.80815 128.872 6.6055C128.788 6.40285 128.746 6.18576 128.747 5.96672Z" fill="#059BDB"/>
<path d="M136.16 4.30322H149.981C150.422 4.30513 150.844 4.48099 151.155 4.79252C151.467 5.10406 151.643 5.52605 151.645 5.96662C151.645 6.40845 151.47 6.83229 151.158 7.14539C150.846 7.45849 150.423 7.63535 149.981 7.63726H136.16C135.719 7.63535 135.296 7.45849 134.984 7.14539C134.672 6.83229 134.497 6.40845 134.497 5.96662C134.499 5.52605 134.675 5.10406 134.986 4.79252C135.298 4.48099 135.72 4.30513 136.16 4.30322Z" fill="#059BDB"/>
<path opacity="0.4" d="M128.747 5.96672C128.749 5.63804 128.847 5.31715 129.031 5.04456C129.215 4.77197 129.475 4.55989 129.779 4.4351C130.083 4.31031 130.417 4.2784 130.739 4.3434C131.062 4.40839 131.357 4.56738 131.589 4.8003C131.821 5.03321 131.979 5.32961 132.042 5.65208C132.106 5.97455 132.073 6.30864 131.947 6.61217C131.82 6.91569 131.607 7.17505 131.334 7.35751C131.06 7.53997 130.739 7.63735 130.41 7.63735C130.191 7.63736 129.975 7.59409 129.772 7.51004C129.57 7.426 129.386 7.30282 129.232 7.1476C129.077 6.99237 128.955 6.80815 128.872 6.6055C128.788 6.40285 128.746 6.18576 128.747 5.96672Z" fill="black"/>
<path opacity="0.4" d="M136.16 4.30322H149.981C150.422 4.30513 150.844 4.48099 151.155 4.79252C151.467 5.10406 151.643 5.52605 151.645 5.96662C151.645 6.40845 151.47 6.83229 151.158 7.14539C150.846 7.45849 150.423 7.63535 149.981 7.63726H136.16C135.719 7.63535 135.296 7.45849 134.984 7.14539C134.672 6.83229 134.497 6.40845 134.497 5.96662C134.499 5.52605 134.675 5.10406 134.986 4.79252C135.298 4.48099 135.72 4.30513 136.16 4.30322Z" fill="black"/>
<path d="M195.131 37.8174H188.239C186.637 37.8174 185.339 39.1158 185.339 40.7175V61.7125C185.339 63.3142 186.637 64.6126 188.239 64.6126H195.131C196.733 64.6126 198.031 63.3142 198.031 61.7125V40.7175C198.031 39.1158 196.733 37.8174 195.131 37.8174Z" fill="#059BDB"/>
<path opacity="0.8" d="M195.131 37.8174H188.239C186.637 37.8174 185.339 39.1158 185.339 40.7175V61.7125C185.339 63.3142 186.637 64.6126 188.239 64.6126H195.131C196.733 64.6126 198.031 63.3142 198.031 61.7125V40.7175C198.031 39.1158 196.733 37.8174 195.131 37.8174Z" fill="white"/>
<path d="M195.854 72.3438H187.516C186.314 72.3438 185.339 73.3184 185.339 74.5206V85.2821C185.339 86.4844 186.314 87.459 187.516 87.459H195.854C197.057 87.459 198.031 86.4844 198.031 85.2821V74.5206C198.031 73.3184 197.057 72.3438 195.854 72.3438Z" fill="#059BDB"/>
<path opacity="0.8" d="M195.854 72.3438H187.516C186.314 72.3438 185.339 73.3184 185.339 74.5206V85.2821C185.339 86.4844 186.314 87.459 187.516 87.459H195.854C197.057 87.459 198.031 86.4844 198.031 85.2821V74.5206C198.031 73.3184 197.057 72.3438 195.854 72.3438Z" fill="white"/>
<path d="M103.326 198.53L108.642 199.044L114.174 186.395L108.859 185.874L103.326 198.53Z" fill="#F0BCAA"/>
<path d="M49.3672 159.787L52.3975 164.38L64.0124 158.833L60.9748 154.233L49.3672 159.787Z" fill="#F0BCAA"/>
<path d="M114.175 186.395L111.325 192.918H105.778L108.852 185.874L114.175 186.395Z" fill="#F0BCAA"/>
<path d="M60.9746 154.24L64.0049 158.833L58.0238 161.69L54.9863 157.097L60.9746 154.24Z" fill="#F0BCAA"/>
<path d="M163.1 69.067L163.274 69.4575L163.498 69.9132C163.643 70.2169 163.809 70.5279 163.975 70.8389C164.315 71.4536 164.699 72.0756 165.06 72.6686C165.822 73.8827 166.66 75.047 167.57 76.1545C168.496 77.2514 169.483 78.2945 170.528 79.2788C171.07 79.7562 171.598 80.2479 172.162 80.7253L173.008 81.3906L173.204 81.5497C173.112 81.5211 173.017 81.5018 172.922 81.4919C172.712 81.4704 172.5 81.5027 172.307 81.5859C172.189 81.6203 172.083 81.6881 172.003 81.7812C171.953 81.8535 172.083 81.7378 172.191 81.5497C172.477 81.0224 172.703 80.4644 172.864 79.8863C173.261 78.4818 173.572 77.0544 173.797 75.6121C174.043 74.1223 174.245 72.5963 174.404 71.0703C174.563 69.5443 174.73 67.9894 174.874 66.4706L177.666 66.4272C177.84 68.04 177.912 69.6094 177.977 71.215C178.042 72.8205 178.013 74.4116 177.977 76.0388C177.913 77.7119 177.722 79.3777 177.406 81.0218C177.222 81.969 176.929 82.8913 176.531 83.77C176.242 84.3919 175.845 84.9576 175.359 85.4407C174.982 85.7951 174.54 86.0727 174.057 86.2579C173.494 86.4686 172.89 86.543 172.292 86.4749C171.808 86.4112 171.338 86.2644 170.904 86.0409C170.73 85.9535 170.561 85.857 170.398 85.7517L170.123 85.5708L169.067 84.8476C168.344 84.3703 167.707 83.8423 167.049 83.3144C165.748 82.2278 164.527 81.0483 163.397 79.7851C162.275 78.5107 161.243 77.1599 160.309 75.7423C159.846 75.0191 159.419 74.2959 159.007 73.5726C158.804 73.1893 158.609 72.8133 158.421 72.4155L158.146 71.8008C158.052 71.5838 157.98 71.4102 157.864 71.1137L163.1 69.067Z" fill="#F0BCAA"/>
<path d="M165.545 72.8062L160.685 79.5104L162.695 81.4848L167.866 75.2651L165.545 72.8062Z" fill="#F5F5F5"/>
<path d="M157.922 63.9612C163.397 65.4076 167.172 73.0882 167.172 73.0882L160.851 81.9476C160.851 81.9476 153.243 72.3794 153.438 69.3564C153.626 66.1887 154.624 63.0716 157.922 63.9612Z" fill="#059BDB"/>
<path opacity="0.7" d="M157.922 63.9612C163.397 65.4076 167.172 73.0882 167.172 73.0882L160.851 81.9476C160.851 81.9476 153.243 72.3794 153.438 69.3564C153.626 66.1887 154.624 63.0716 157.922 63.9612Z" fill="#059BDB"/>
<path d="M162.645 66.7891C162.645 66.7891 164.446 68.9153 143.603 94.1412L124.314 82.8445C129.232 75.1856 132.075 70.3473 137.752 52.0354C140.784 53.0555 143.738 54.2955 146.59 55.7455C149.616 57.27 152.543 58.9825 155.355 60.8731C158.913 63.4189 162.645 66.7891 162.645 66.7891Z" fill="#059BDB"/>
<path opacity="0.7" d="M162.645 66.7891C162.645 66.7891 164.446 68.9153 143.603 94.1412L124.314 82.8445C129.232 75.1856 132.075 70.3473 137.752 52.0354C140.784 53.0555 143.738 54.2955 146.59 55.7455C149.616 57.27 152.543 58.9825 155.355 60.8731C158.913 63.4189 162.645 66.7891 162.645 66.7891Z" fill="#059BDB"/>
<path d="M160.142 64.612C158.783 63.4838 157.04 62.088 155.355 60.873C152.558 58.9585 149.629 57.245 146.589 55.7454C144.882 54.8558 143.132 54.0747 141.642 53.4817C141.404 53.8795 141.599 55.0945 142.329 56.8736C145.107 60.4535 151.558 65.7258 156.938 66.7745C159.441 66.4128 160.222 65.6173 160.142 64.612Z" fill="#F5F5F5"/>
<path d="M142.329 56.8735C143.95 60.485 146.108 63.8305 148.73 66.7961C151.459 67.0686 154.209 67.0686 156.938 66.7961C151.557 65.7257 145.106 60.4535 142.329 56.8735Z" fill="#F5F5F5"/>
<path d="M143.624 94.1411C143.624 94.1411 143.935 143.696 135.148 158.001C126.007 172.878 114.088 191.023 114.088 191.023L103.768 190.524C103.768 190.524 115.802 163.679 120.344 151.217C126.6 134.041 129.492 85.8674 129.492 85.8674L143.624 94.1411Z" fill="#365984"/>
<path opacity="0.4" d="M143.624 94.1411C143.624 94.1411 143.935 143.696 135.148 158.001C126.007 172.878 114.088 191.023 114.088 191.023L103.768 190.524C103.768 190.524 115.802 163.679 120.344 151.217C126.6 134.041 129.492 85.8674 129.492 85.8674L143.624 94.1411Z" fill="black"/>
<path opacity="0.2" d="M132.646 95.5222C130.975 96.9398 129.537 98.6116 128.386 100.476C128.06 104.165 127.663 108.309 127.207 112.648C130.353 108.374 132.841 100.874 132.646 95.5222Z" fill="black"/>
<path d="M138.526 91.1832C138.526 91.1832 116.692 122.18 103.088 138.916C92.095 152.404 60.2733 162.059 60.2733 162.059L56.3896 155.55C56.3896 155.55 81.7023 141.418 89.2527 132.291C113.423 103.073 113.119 87.9215 124.343 82.9241L138.526 91.1832Z" fill="#36577E"/>
<path opacity="0.4" d="M138.526 91.1832C138.526 91.1832 116.692 122.18 103.088 138.916C92.095 152.404 60.2733 162.059 60.2733 162.059L56.3896 155.55C56.3896 155.55 81.7023 141.418 89.2527 132.291C113.423 103.073 113.119 87.9215 124.343 82.9241L138.526 91.1832Z" fill="black"/>
<path d="M174.94 67.1505L173.493 61.3647L179.011 62.9703C179.011 62.9703 178.859 66.8612 176.95 68.1268L174.94 67.1505Z" fill="#F0BCAA"/>
<path d="M175.25 56.7217L179.127 58.6816L179.033 62.9992L173.515 61.3937L175.25 56.7217Z" fill="#F0BCAA"/>
<path d="M105.93 58.8481L100.867 55.7383L105.93 53.0334C105.93 53.0334 108.526 55.9263 108.049 58.1683L105.93 58.8481Z" fill="#F0BCAA"/>
<path d="M98.8643 51.1746L103.008 49.8728L105.959 53.0333L100.875 55.7381L98.8643 51.1746Z" fill="#F0BCAA"/>
<path d="M53.67 163.896L51.8692 157.98C51.8375 157.878 51.7703 157.792 51.68 157.736C51.5897 157.68 51.4822 157.659 51.3774 157.676L46.4957 158.399C46.3735 158.422 46.2575 158.471 46.1553 158.542C46.0532 158.613 45.9672 158.704 45.903 158.811C45.8388 158.917 45.7978 159.036 45.7828 159.16C45.7678 159.283 45.7791 159.408 45.8159 159.527C46.4812 161.574 46.9007 162.536 47.6962 165.132C48.1808 166.738 49.027 170.347 49.6996 172.56C50.3722 174.773 52.5924 174.223 52.5129 173.24C52.144 168.842 52.8673 166.593 53.6122 164.85C53.7392 164.548 53.7596 164.211 53.67 163.896Z" fill="#263238"/>
<path d="M109.351 197.402H102.842C102.724 197.403 102.61 197.443 102.518 197.514C102.425 197.586 102.358 197.687 102.328 197.8L100.882 202.971C100.846 203.093 100.84 203.221 100.864 203.346C100.887 203.47 100.94 203.587 101.018 203.687C101.095 203.788 101.196 203.868 101.31 203.922C101.425 203.976 101.551 204.002 101.677 203.998C103.963 203.962 105.076 203.832 107.948 203.832C109.712 203.832 114.283 204.013 116.72 204.013C119.157 204.013 119.613 201.597 118.622 201.38C114.189 200.404 111.643 199.051 110.276 197.764C110.025 197.53 109.694 197.401 109.351 197.402Z" fill="#263238"/>
<path d="M124.697 81.5425L122.817 82.7647C122.672 82.8587 122.752 83.0902 122.976 83.2203L143.226 95.0594C143.4 95.1607 143.595 95.1607 143.667 95.0594L144.854 93.4322C144.933 93.3165 144.854 93.1284 144.651 93.02L125.124 81.5859C125.064 81.5394 124.992 81.5107 124.917 81.5031C124.842 81.4954 124.765 81.509 124.697 81.5425Z" fill="#263238"/>
<path d="M136.167 60.3308C134.801 61.4229 133.499 62.3052 132.117 63.2237C130.736 64.1422 129.333 64.9305 127.887 65.7116C124.984 67.3 121.929 68.5915 118.767 69.5663C118.376 69.7037 117.957 69.7978 117.559 69.9062C117.161 70.0147 116.778 70.1232 116.301 70.2245C115.264 70.4571 114.195 70.5109 113.14 70.3836C112.022 70.2505 110.946 69.8754 109.987 69.2843C109.096 68.7208 108.314 68.0004 107.68 67.158C106.609 65.6658 105.843 63.9776 105.423 62.1895C105.209 61.3651 105.055 60.5265 104.961 59.6799C104.846 58.8363 104.79 57.9856 104.794 57.1342L107.571 56.8955C107.906 58.3073 108.359 59.6887 108.924 61.0251C109.415 62.2493 110.129 63.3723 111.028 64.3375C111.351 64.7012 111.744 64.9954 112.185 65.2018C112.625 65.4082 113.103 65.5226 113.589 65.538C114.099 65.5341 114.606 65.4537 115.093 65.2993C115.722 65.0968 116.46 64.8654 117.132 64.6195C119.916 63.5729 122.608 62.2982 125.182 60.8081C126.498 60.0849 127.756 59.2532 129.029 58.4505C130.302 57.6477 131.553 56.7437 132.645 55.9192L136.167 60.3308Z" fill="#F0BCAA"/>
<path d="M127.222 58.4358L129.724 66.0006L132.074 64.5904L129.876 57.0906L127.222 58.4358Z" fill="#F5F5F5"/>
<path d="M54.2269 166.998C54.1051 166.996 53.9857 166.964 53.8798 166.904C53.2795 166.542 53.1131 165.262 53.0625 164.532C53.0622 164.507 53.0687 164.482 53.0815 164.46C53.0942 164.439 53.1127 164.421 53.1348 164.409C53.157 164.397 53.1819 164.391 53.2072 164.391C53.2324 164.391 53.2573 164.397 53.2795 164.409C53.4531 164.554 54.9718 165.855 54.8778 166.535C54.8679 166.613 54.8371 166.688 54.7888 166.75C54.7404 166.812 54.6763 166.86 54.603 166.89C54.4881 166.955 54.3591 166.993 54.2269 166.998ZM53.3518 164.828C53.4458 165.805 53.6845 166.485 54.0099 166.68C54.0846 166.719 54.1678 166.74 54.2522 166.74C54.3366 166.74 54.4198 166.719 54.4945 166.68C54.5957 166.629 54.6174 166.571 54.6174 166.521C54.6681 166.152 53.9448 165.364 53.3518 164.828Z" fill="#059BDB"/>
<path d="M55.1378 165.429C54.3953 165.365 53.6882 165.083 53.1056 164.619C53.094 164.6 53.0879 164.579 53.0879 164.557C53.0879 164.536 53.094 164.514 53.1056 164.496C53.1107 164.474 53.1214 164.454 53.1366 164.437C53.1518 164.421 53.171 164.409 53.1924 164.402C53.2575 164.402 54.7762 163.924 55.456 164.344C55.542 164.395 55.6157 164.464 55.672 164.546C55.7282 164.629 55.7656 164.723 55.7815 164.821C55.8109 164.921 55.8054 165.027 55.7659 165.123C55.7265 165.219 55.6554 165.299 55.5645 165.349C55.4309 165.41 55.2844 165.438 55.1378 165.429ZM53.4744 164.583C54.0313 164.966 55.0655 165.306 55.4054 165.118C55.456 165.118 55.5211 165.031 55.4922 164.865C55.4817 164.803 55.4574 164.744 55.4211 164.693C55.3848 164.641 55.3374 164.599 55.2825 164.568C54.6929 164.385 54.061 164.39 53.4744 164.583Z" fill="#059BDB"/>
<path d="M112.244 198.48C111.642 198.468 111.044 198.393 110.458 198.256C110.431 198.249 110.407 198.234 110.389 198.213C110.371 198.193 110.36 198.167 110.356 198.14C110.356 198.113 110.364 198.087 110.378 198.064C110.392 198.041 110.412 198.022 110.436 198.01C110.87 197.8 113.097 196.795 113.69 197.193C113.747 197.233 113.792 197.288 113.82 197.351C113.848 197.415 113.858 197.485 113.85 197.554C113.847 197.676 113.816 197.795 113.759 197.903C113.703 198.011 113.622 198.104 113.524 198.176C113.139 198.407 112.692 198.514 112.244 198.48ZM110.913 198.082C111.637 198.212 112.852 198.357 113.365 197.966C113.435 197.917 113.491 197.852 113.53 197.777C113.569 197.701 113.59 197.617 113.589 197.532C113.593 197.51 113.592 197.487 113.584 197.465C113.576 197.444 113.563 197.424 113.546 197.41C113.22 197.193 111.882 197.655 110.913 198.082Z" fill="#059BDB"/>
<path d="M110.486 198.256C110.46 198.266 110.432 198.266 110.406 198.256C110.386 198.242 110.371 198.221 110.363 198.198C110.356 198.174 110.355 198.149 110.363 198.126C110.363 198.024 110.927 195.659 112.229 195.826C112.569 195.862 112.656 196.035 112.677 196.166C112.764 196.788 111.274 197.974 110.508 198.277L110.486 198.256ZM112.113 196.05C111.332 196.05 110.862 197.316 110.667 197.887C111.39 197.475 112.446 196.535 112.395 196.173C112.395 196.115 112.316 196.072 112.178 196.057L112.113 196.05Z" fill="#059BDB"/>
<path d="M126.042 85.2672L125.522 84.9635C125.42 84.8984 125.37 84.7971 125.413 84.7393L126.975 82.6347C127.019 82.5768 127.142 82.5768 127.243 82.6347L127.771 82.9457C127.872 83.0035 127.923 83.1048 127.879 83.1627L126.317 85.2672C126.274 85.3251 126.151 85.3251 126.042 85.2672Z" fill="#059BDB"/>
<path d="M141.628 94.3868L141.107 94.0759C141.006 94.018 140.956 93.9168 140.999 93.8589L142.561 91.7543C142.605 91.6965 142.727 91.6965 142.829 91.7543L143.357 92.0581C143.458 92.1232 143.509 92.2244 143.458 92.2823L141.903 94.3868C141.86 94.4447 141.737 94.4447 141.628 94.3868Z" fill="#059BDB"/>
<path d="M133.839 89.8233L133.312 89.5195C133.21 89.4617 133.16 89.3604 133.21 89.2953L134.765 87.198C134.816 87.1329 134.932 87.1329 135.04 87.198L135.561 87.5017C135.669 87.5596 135.713 87.6608 135.669 87.7259L134.107 89.8233C134.064 89.8884 133.941 89.8884 133.839 89.8233Z" fill="#059BDB"/>
<path opacity="0.4" d="M126.042 85.2672L125.522 84.9635C125.42 84.8984 125.37 84.7971 125.413 84.7393L126.975 82.6347C127.019 82.5768 127.142 82.5768 127.243 82.6347L127.771 82.9457C127.872 83.0035 127.923 83.1048 127.879 83.1627L126.317 85.2672C126.274 85.3251 126.151 85.3251 126.042 85.2672Z" fill="black"/>
<path opacity="0.4" d="M141.628 94.3868L141.107 94.0759C141.006 94.018 140.956 93.9168 140.999 93.8589L142.561 91.7543C142.605 91.6965 142.727 91.6965 142.829 91.7543L143.357 92.0581C143.458 92.1232 143.509 92.2244 143.458 92.2823L141.903 94.3868C141.86 94.4447 141.737 94.4447 141.628 94.3868Z" fill="black"/>
<path opacity="0.4" d="M133.839 89.8233L133.312 89.5195C133.21 89.4617 133.16 89.3604 133.21 89.2953L134.765 87.198C134.816 87.1329 134.932 87.1329 135.04 87.198L135.561 87.5017C135.669 87.5596 135.713 87.6608 135.669 87.7259L134.107 89.8233C134.064 89.8884 133.941 89.8884 133.839 89.8233Z" fill="black"/>
<path d="M148.31 57.1918C148.31 52.8525 146.864 35.7773 153.98 34.3308C156.23 31.9587 167.374 31.7128 169.081 37.7444C171.338 45.6637 167.996 64.9881 167.996 64.9881L148.31 57.1918Z" fill="#263238"/>
<path d="M169.48 65.0316C169.456 65.0289 169.433 65.0215 169.412 65.0099C169.391 64.9982 169.373 64.9825 169.358 64.9636C169.343 64.9448 169.332 64.9232 169.326 64.9001C169.319 64.877 169.318 64.8529 169.321 64.8291C169.321 64.6338 171.671 45.3022 169.075 37.6505C168.352 35.5532 166.341 34.0851 163.361 33.5065C159.485 32.7471 155.29 33.6945 154.126 35.0397C154.092 35.0728 154.047 35.0914 153.999 35.0914C153.952 35.0914 153.906 35.0728 153.873 35.0397C153.839 35.0047 153.82 34.9581 153.82 34.9095C153.82 34.861 153.839 34.8144 153.873 34.7794C155.232 33.2027 159.796 32.4144 163.455 33.1304C166.565 33.7307 168.691 35.3001 169.444 37.5131C172.062 45.2588 169.726 64.6555 169.704 64.8508C169.703 64.8782 169.697 64.9052 169.685 64.9299C169.673 64.9545 169.655 64.9762 169.634 64.9935C169.613 65.0107 169.588 65.023 169.561 65.0296C169.534 65.0362 169.507 65.0369 169.48 65.0316Z" fill="#263238"/>
<path d="M153.243 46.3943C152.15 49.5331 149.677 55.0223 146.603 55.7455C146.603 55.7455 145.699 59.0578 150.943 62.1243C156.728 65.4945 155.369 60.8731 155.369 60.8731C152.664 58.284 154.103 55.9986 155.933 54.1327L153.243 46.3943Z" fill="#F0BCAA"/>
<path d="M154.327 49.5474L155.918 54.1253C155.488 54.5576 155.094 55.0245 154.74 55.5212C153.64 54.6461 152.461 52.5126 153.069 51.1818C153.387 50.566 153.813 50.0124 154.327 49.5474Z" fill="#F0BCAA"/>
<path d="M153.286 40.1381C151.789 45.3959 151.044 47.5873 152.714 51.1383C155.224 56.4901 162.001 57.1771 165.009 52.4762C167.743 48.2454 169.725 40.3623 165.414 36.5654C164.469 35.7247 163.325 35.1385 162.091 34.8621C160.856 34.5857 159.572 34.6283 158.358 34.9857C157.145 35.3432 156.043 36.0037 155.155 36.9052C154.268 37.8066 153.624 38.9192 153.286 40.1381Z" fill="#F0BCAA"/>
<path d="M151.746 43.4508C155.485 44.8466 164.272 40.2107 166.666 37.3685C166.984 32.9858 156.707 34.7143 156.707 34.7143C156.707 34.7143 151.225 33.0292 151.746 43.4508Z" fill="#263238"/>
<path d="M150.856 44.4993C150.613 45.5267 150.787 46.6088 151.341 47.5079C152.064 48.6939 153.395 48.2311 153.973 47.0595C154.494 45.9891 154.733 44.0726 153.612 43.2987C153.363 43.1345 153.076 43.0351 152.779 43.0095C152.481 42.9839 152.182 43.033 151.909 43.1522C151.635 43.2714 151.396 43.4571 151.212 43.6923C151.028 43.9275 150.906 44.2049 150.856 44.4993Z" fill="#F0BCAA"/>
<path d="M160.583 44.3258C160.431 44.7452 160.533 45.1647 160.808 45.2587C161.082 45.3527 161.422 45.0924 161.574 44.6729C161.726 44.2534 161.618 43.8412 161.343 43.7399C161.068 43.6387 160.728 43.9063 160.583 44.3258Z" fill="#263238"/>
<path d="M165.314 45.9964C165.169 46.4158 165.27 46.8281 165.545 46.9293C165.82 47.0306 166.16 46.763 166.305 46.3435C166.449 45.924 166.348 45.5046 166.08 45.4105C165.813 45.3165 165.466 45.5769 165.314 45.9964Z" fill="#263238"/>
<path d="M165.949 45.3887L167.056 45.4538C167.056 45.4538 166.26 46.0613 165.949 45.3887Z" fill="#263238"/>
<path d="M163.809 46.2712C163.847 47.3567 164.032 48.432 164.359 49.4679C164.092 49.5462 163.811 49.5648 163.536 49.5223C163.261 49.4798 162.998 49.3773 162.768 49.222L163.809 46.2712Z" fill="#F0BCAA"/>
<path d="M160.757 50.3648H160.714C160.146 50.1803 159.631 49.8629 159.211 49.439C158.791 49.015 158.478 48.4968 158.298 47.9275C158.292 47.8931 158.299 47.8574 158.317 47.8279C158.336 47.7983 158.366 47.777 158.4 47.7684C158.416 47.7642 158.434 47.7635 158.451 47.7664C158.468 47.7693 158.484 47.7758 158.498 47.7853C158.512 47.7948 158.525 47.8073 158.534 47.8218C158.543 47.8363 158.549 47.8527 158.551 47.8697C158.727 48.3931 159.021 48.8687 159.411 49.259C159.802 49.6493 160.277 49.9437 160.801 50.1189C160.83 50.129 160.854 50.1491 160.87 50.1757C160.886 50.2022 160.891 50.2335 160.886 50.2638C160.881 50.2942 160.865 50.3217 160.842 50.3416C160.818 50.3614 160.788 50.3722 160.757 50.372V50.3648Z" fill="#263238"/>
<path d="M160.373 42.6696C160.315 42.6705 160.258 42.6515 160.211 42.6157C160.164 42.5799 160.131 42.5294 160.117 42.4725C160.103 42.4155 160.108 42.3554 160.133 42.3019C160.157 42.2485 160.198 42.2047 160.251 42.1779C160.61 41.9747 161.013 41.8602 161.425 41.8438C161.838 41.8275 162.248 41.9098 162.623 42.0838C162.656 42.0977 162.687 42.1184 162.712 42.1448C162.738 42.1712 162.757 42.2026 162.769 42.237C162.782 42.2714 162.787 42.308 162.784 42.3445C162.781 42.3809 162.771 42.4163 162.753 42.4485C162.736 42.4806 162.712 42.5088 162.683 42.5311C162.654 42.5534 162.621 42.5693 162.585 42.5779C162.55 42.5865 162.513 42.5875 162.477 42.5809C162.441 42.5743 162.407 42.5601 162.377 42.5395C162.078 42.4069 161.751 42.347 161.424 42.3646C161.098 42.3822 160.78 42.4768 160.496 42.6407C160.459 42.6606 160.416 42.6705 160.373 42.6696Z" fill="#263238"/>
<path d="M168.315 44.5862C168.258 44.5861 168.202 44.5667 168.158 44.5313C168.113 44.4958 168.082 44.4464 168.069 44.3909C167.996 44.0726 167.849 43.7758 167.641 43.5245C167.432 43.2733 167.168 43.0746 166.868 42.9445C166.803 42.9214 166.749 42.8738 166.718 42.8118C166.687 42.7497 166.681 42.678 166.702 42.6118C166.712 42.5789 166.729 42.5485 166.752 42.5224C166.775 42.4964 166.803 42.4752 166.834 42.4603C166.865 42.4454 166.899 42.437 166.933 42.4357C166.968 42.4344 167.002 42.4402 167.034 42.4527C167.417 42.6098 167.756 42.8569 168.023 43.1729C168.29 43.4888 168.477 43.8645 168.568 44.268C168.576 44.3012 168.578 44.3358 168.574 44.3699C168.569 44.4039 168.557 44.4366 168.54 44.4662C168.522 44.4958 168.499 44.5216 168.472 44.5422C168.444 44.5628 168.413 44.5777 168.38 44.5862H168.315Z" fill="#263238"/>
<path d="M161.198 43.7256L162.305 43.7907C162.305 43.7907 161.531 44.3909 161.198 43.7256Z" fill="#263238"/>
<path d="M137.766 52.0353C135.487 51.4929 128.479 56.8302 128.479 56.8302L131.452 66.3116C131.452 66.3116 138.778 62.2544 139.458 59.2675C140.131 56.1721 140.362 52.6573 137.766 52.0353Z" fill="#059BDB"/>
<path opacity="0.7" d="M137.766 52.0353C135.487 51.4929 128.479 56.8302 128.479 56.8302L131.452 66.3116C131.452 66.3116 138.778 62.2544 139.458 59.2675C140.131 56.1721 140.362 52.6573 137.766 52.0353Z" fill="#059BDB"/>
</svg>
