<svg width="405" height="405" viewBox="0 0 405 405" fill="none" xmlns="http://www.w3.org/2000/svg">
<path opacity="0.4" d="M203.266 319.944C279.834 319.944 341.904 316.32 341.904 311.85C341.904 307.38 279.834 303.756 203.266 303.756C126.698 303.756 64.6279 307.38 64.6279 311.85C64.6279 316.32 126.698 319.944 203.266 319.944Z" fill="#23AEEA"/>
<path d="M178.854 133.863C177.351 137.514 168.504 137.263 159.236 133.441C149.968 129.619 143.664 123.561 145.167 119.909C145.52 119.066 146.527 115.904 147.533 115.469C150.988 114.007 157.563 117.291 164.683 120.229C171.313 122.949 178.895 124.723 180.071 128.321C180.778 130.51 179.282 132.822 178.854 133.863Z" fill="#50B9E6"/>
<path opacity="0.2" d="M180.071 128.32C180.635 131.183 179.391 132.557 178.854 133.862C178.316 135.168 176.746 136.025 174.549 136.324C174.275 136.371 173.998 136.403 173.72 136.419C172.035 136.518 170.345 136.429 168.681 136.154C168.443 136.154 168.205 136.079 167.96 136.038C166.006 135.688 164.081 135.192 162.2 134.556L161.52 134.325C160.766 134.06 159.99 133.767 159.215 133.448C158.44 133.128 157.706 132.768 156.978 132.448L156.352 132.149C154.638 131.301 152.986 130.333 151.409 129.252L150.851 128.858C149.474 127.884 148.213 126.757 147.091 125.498C146.921 125.308 146.764 125.124 146.615 124.934C145.153 123.084 144.575 121.316 145.153 119.909C145.534 119.004 146.35 115.91 147.519 115.462C148.958 115.056 150.48 115.056 151.919 115.462L152.599 115.625C155.999 116.495 160.283 118.433 164.655 120.235C169.81 122.364 175.909 124.574 178.901 127.124C179.079 127.273 179.249 127.432 179.411 127.6C179.65 127.822 179.871 128.063 180.071 128.32V128.32Z" fill="black"/>
<g opacity="0.2">
<path opacity="0.2" d="M152.939 115.04L152.626 115.611L147.104 125.492C146.934 125.301 146.778 125.118 146.628 124.927L151.932 115.448L152.347 114.714L152.939 115.04Z" fill="black"/>
</g>
<g opacity="0.2">
<path opacity="0.2" d="M157.114 119.073L151.422 129.273L150.865 128.878L156.522 118.76L157.114 119.073Z" fill="black"/>
</g>
<g opacity="0.2">
<path opacity="0.2" d="M167.579 124.92L162.201 134.556L161.521 134.325L166.961 124.56L167.579 124.92Z" fill="black"/>
</g>
<g opacity="0.2">
<path opacity="0.2" d="M162.711 122.201L156.992 132.448L156.366 132.149L162.119 121.84L162.711 122.201Z" fill="black"/>
</g>
<g opacity="0.2">
<path opacity="0.2" d="M173.924 126.784L168.681 136.154C168.443 136.154 168.205 136.079 167.96 136.039L173.325 126.444L173.924 126.784Z" fill="black"/>
</g>
<path d="M180.03 130.68C178.527 134.332 169.789 134.189 160.514 130.36C151.239 126.532 144.942 120.48 146.452 116.829C147.961 113.177 156.692 113.327 165.968 117.148C175.243 120.97 181.533 127.008 180.03 130.68Z" fill="#50B9E6"/>
<path opacity="0.2" d="M176.875 129.354C175.814 131.931 169.001 131.571 161.663 128.545C154.326 125.519 149.24 120.97 150.301 118.392C151.361 115.815 158.175 116.176 165.519 119.202C172.863 122.228 177.943 126.777 176.875 129.354Z" fill="white"/>
<path d="M225.719 100.856C228.14 103.977 223.529 111.532 215.594 117.672C207.658 123.812 199.274 126.26 196.86 123.112C196.302 122.391 194.045 119.977 194.181 118.848C194.636 115.129 200.749 111.062 206.842 106.343C212.513 101.95 217.811 96.252 221.517 97.0204C223.767 97.5168 225.032 99.9716 225.719 100.856Z" fill="#50B9E6"/>
<path opacity="0.2" d="M221.517 97.0474C224.285 97.9858 224.856 99.7674 225.72 100.855C226.583 101.943 226.549 103.759 225.72 105.819C225.624 106.071 225.509 106.323 225.386 106.581C224.641 108.093 223.729 109.516 222.666 110.824C222.524 111.015 222.367 111.198 222.211 111.389C220.932 112.914 219.541 114.341 218.049 115.659L217.526 116.115C216.92 116.638 216.281 117.162 215.622 117.672C214.962 118.182 214.302 118.665 213.636 119.12C213.452 119.256 213.255 119.385 213.072 119.515C211.483 120.58 209.819 121.53 208.094 122.357C207.883 122.466 207.679 122.554 207.482 122.649C205.949 123.358 204.341 123.892 202.688 124.241C202.443 124.295 202.205 124.336 201.967 124.37C199.635 124.717 197.812 124.37 196.881 123.139C196.282 122.364 194.004 120.113 194.202 118.882C194.557 117.427 195.313 116.101 196.384 115.054C196.534 114.884 196.697 114.714 196.867 114.537C199.322 111.994 203.123 109.267 206.863 106.377C211.276 102.977 216.227 98.7678 219.919 97.4486C220.142 97.3667 220.369 97.2963 220.599 97.2378C220.9 97.152 221.207 97.0883 221.517 97.0474V97.0474Z" fill="black"/>
<g opacity="0.2">
<path opacity="0.2" d="M196.506 113.979L196.846 114.537L202.667 124.241C202.422 124.295 202.184 124.336 201.946 124.37L196.363 115.04L195.928 114.36L196.506 113.979Z" fill="black"/>
</g>
<g opacity="0.2">
<path opacity="0.2" d="M202.076 112.361L208.073 122.357C207.862 122.466 207.658 122.554 207.461 122.649L201.491 112.708L202.076 112.361Z" fill="black"/>
</g>
<g opacity="0.2">
<path opacity="0.2" d="M212.35 106.2L218.028 115.666L217.505 116.121L211.766 106.547L212.35 106.2Z" fill="black"/>
</g>
<g opacity="0.2">
<path opacity="0.2" d="M207.576 109.063L213.615 119.12C213.431 119.256 213.234 119.385 213.05 119.515L206.985 109.41L207.576 109.063Z" fill="black"/>
</g>
<g opacity="0.2">
<path opacity="0.2" d="M217.124 101.61L222.646 110.824C222.503 111.015 222.347 111.198 222.19 111.389L216.54 101.964L217.124 101.61Z" fill="black"/>
</g>
<path d="M213.535 115.003C221.466 108.86 225.935 101.351 223.518 98.2307C221.101 95.1102 212.713 97.5601 204.783 103.703C196.852 109.845 192.383 117.354 194.8 120.475C197.217 123.595 205.605 121.145 213.535 115.003Z" fill="#50B9E6"/>
<path opacity="0.2" d="M212.552 113.11C218.829 108.249 222.532 102.519 220.823 100.313C219.114 98.1072 212.641 100.26 206.364 105.122C200.088 109.983 196.385 115.713 198.093 117.919C199.802 120.125 206.275 117.972 212.552 113.11Z" fill="white"/>
<path d="M192.896 86.2356C192.121 90.71 182.084 92.6004 170.714 90.5604C159.345 88.5204 150.77 83.264 151.565 78.7896C151.749 77.7492 152.069 73.9616 153.136 73.2068C156.665 70.718 164.866 72.7988 173.597 74.3492C181.757 75.7976 190.686 75.9132 192.896 79.6736C194.235 81.9856 193.12 84.9572 192.896 86.2356Z" fill="#50B9E6"/>
<path opacity="0.2" d="M192.896 79.6803C194.256 82.7675 193.175 84.6103 192.896 86.2151C192.617 87.8199 191.06 89.1595 188.667 90.0435C188.374 90.1591 188.068 90.2543 187.755 90.3495C185.883 90.8758 183.958 91.1928 182.016 91.2947C181.737 91.2947 181.465 91.2947 181.18 91.3423C178.892 91.4265 176.601 91.3424 174.325 91.0907L173.53 90.9887C172.612 90.8731 171.667 90.7371 170.721 90.5671C169.776 90.3971 168.858 90.2067 167.954 89.9959C167.695 89.9415 167.437 89.8735 167.179 89.8123C165.042 89.2848 162.947 88.603 160.909 87.7723C160.657 87.6771 160.419 87.5683 160.181 87.4731C158.393 86.7118 156.696 85.7515 155.122 84.6103C154.884 84.4403 154.667 84.2703 154.442 84.0935C152.334 82.3731 151.253 80.5235 151.559 78.8031C151.763 77.6879 151.926 74.0431 153.123 73.2203C154.32 72.3975 156.033 72.1391 158.073 72.1323H158.889C162.969 72.2683 168.226 73.4039 173.591 74.3559C179.915 75.4847 187.32 76.4707 191.305 78.6059C191.539 78.7298 191.766 78.866 191.985 79.0139C192.306 79.212 192.61 79.4348 192.896 79.6803Z" fill="black"/>
<g opacity="0.2">
<path opacity="0.2" d="M159.113 71.4388L158.895 72.1528L155.115 84.6239C154.877 84.4539 154.659 84.2839 154.435 84.1071L158.066 72.146L158.351 71.2144L159.113 71.4388Z" fill="black"/>
</g>
<g opacity="0.2">
<path opacity="0.2" d="M164.798 74.9201L160.902 87.7653C160.65 87.6701 160.412 87.5613 160.174 87.4661L164.05 74.6821L164.798 74.9201Z" fill="black"/>
</g>
<g opacity="0.2">
<path opacity="0.2" d="M178.01 78.9456L174.318 91.1108L173.522 91.0088L177.256 78.7144L178.01 78.9456Z" fill="black"/>
</g>
<g opacity="0.2">
<path opacity="0.2" d="M171.87 77.0827L167.947 90.0027C167.688 89.9483 167.43 89.8803 167.171 89.8191L171.115 76.8379L171.87 77.0827Z" fill="black"/>
</g>
<g opacity="0.2">
<path opacity="0.2" d="M185.606 79.4763L182.009 91.3151C181.73 91.3151 181.458 91.3151 181.172 91.3627L184.851 79.252L185.606 79.4763Z" fill="black"/>
</g>
<path d="M193.425 82.3289C194.222 77.855 185.647 72.5875 174.274 70.5636C162.9 68.5397 153.035 70.5259 152.239 74.9998C151.443 79.4738 160.017 84.7412 171.391 86.7651C182.764 88.789 192.629 86.8028 193.425 82.3289Z" fill="#50B9E6"/>
<path opacity="0.2" d="M189.555 81.6446C190.117 78.4833 183.278 74.6223 174.278 73.0209C165.279 71.4194 157.527 72.6839 156.964 75.8453C156.402 79.0066 163.241 82.8676 172.241 84.469C181.241 86.0705 188.992 84.8059 189.555 81.6446Z" fill="white"/>
<path d="M252.259 200.468L182.28 204.548C179.808 204.694 177.383 205.283 175.12 206.289L99.1095 240.289C97.7758 240.875 96.6837 241.901 96.0154 243.196C95.3471 244.49 95.1431 245.975 95.4375 247.402L107.997 306.8C108.209 307.756 108.638 308.652 109.249 309.417C109.86 310.183 110.639 310.798 111.525 311.217C112.41 311.636 113.38 311.846 114.36 311.833C115.34 311.819 116.303 311.581 117.177 311.138L192.201 273.684L261.48 271.365C262.332 271.342 263.17 271.138 263.938 270.766C264.705 270.394 265.385 269.863 265.931 269.208C266.477 268.553 266.877 267.79 267.105 266.968C267.333 266.146 267.384 265.285 267.253 264.443L257.985 207.567C257.502 204.63 255.271 200.38 252.259 200.468Z" fill="#50B9E6"/>
<path opacity="0.1" d="M252.259 200.468L182.28 204.548C179.808 204.694 177.383 205.283 175.12 206.289L99.1095 240.289C97.7758 240.875 96.6837 241.901 96.0154 243.196C95.3471 244.49 95.1431 245.975 95.4375 247.402L107.997 306.8C108.209 307.756 108.638 308.652 109.249 309.417C109.86 310.183 110.639 310.798 111.525 311.217C112.41 311.636 113.38 311.846 114.36 311.833C115.34 311.819 116.303 311.581 117.177 311.138L192.201 273.684L261.48 271.365C262.332 271.342 263.17 271.138 263.938 270.766C264.705 270.394 265.385 269.863 265.931 269.208C266.477 268.553 266.877 267.79 267.105 266.968C267.333 266.146 267.384 265.285 267.253 264.443L257.985 207.567C257.502 204.63 255.271 200.38 252.259 200.468Z" fill="black"/>
<path d="M111.798 161.793L75.0742 195.645L140.976 267.138L177.7 233.285L111.798 161.793Z" fill="#50B9E6"/>
<path opacity="0.5" d="M177.691 233.292L140.964 267.142L75.0718 195.654L99.171 173.438L111.799 161.797L113.9 164.082L177.691 233.292Z" fill="#FAFAFA"/>
<path d="M112.034 166.164L79.6299 196.034L141.274 262.906L173.677 233.036L112.034 166.164Z" stroke="#50B9E6" stroke-miterlimit="10"/>
<path d="M133.945 222.452C137.662 219.026 137.192 212.47 132.895 207.809C128.598 203.148 122.102 202.147 118.386 205.573C114.669 208.999 115.139 215.555 119.436 220.216C123.732 224.877 130.228 225.878 133.945 222.452Z" fill="#50B9E6"/>
<path opacity="0.1" d="M140.576 238.127L127.527 242.635L99.1709 173.438L111.798 161.797L113.9 164.082L140.576 238.127Z" fill="black"/>
<path d="M143.119 133.784L96.1641 150.81L129.308 242.219L176.263 225.194L143.119 133.784Z" fill="#50B9E6"/>
<path opacity="0.5" d="M143.119 133.784L96.1641 150.81L129.308 242.219L176.263 225.194L143.119 133.784Z" fill="#FAFAFA"/>
<path d="M141.643 137.906L100.211 152.929L131.214 238.432L172.645 223.409L141.643 137.906Z" stroke="#50B9E6" stroke-miterlimit="10"/>
<path d="M140.101 198.284C144.854 196.561 146.954 190.333 144.793 184.373C142.632 178.413 137.028 174.979 132.276 176.702C127.524 178.425 125.423 184.653 127.584 190.613C129.745 196.572 135.349 200.007 140.101 198.284Z" fill="#50B9E6"/>
<path d="M252.715 202.883L183.695 206.772C181.248 206.906 178.848 207.494 176.616 208.506L101.721 242.316C100.402 242.912 99.3255 243.941 98.6702 245.231C98.0148 246.522 97.8197 247.998 98.1169 249.415L110.677 308.84C110.879 309.791 111.296 310.682 111.897 311.446C112.498 312.21 113.266 312.827 114.142 313.247C115.018 313.668 115.978 313.883 116.95 313.874C117.922 313.866 118.879 313.635 119.748 313.199L193.664 275.955L261.99 273.793C262.836 273.766 263.666 273.559 264.426 273.186C265.186 272.813 265.857 272.282 266.395 271.629C266.933 270.975 267.325 270.215 267.546 269.398C267.767 268.581 267.811 267.726 267.675 266.891L258.379 210.023C257.896 207.058 255.693 202.801 252.715 202.883Z" fill="#50B9E6"/>
<path opacity="0.2" d="M186.503 217.176L245.725 213.531" stroke="black" stroke-width="2" stroke-linecap="round" stroke-linejoin="round"/>
<path opacity="0.2" d="M179.411 218.706L190.23 268.4" stroke="black" stroke-width="2" stroke-linecap="round" stroke-linejoin="round"/>
<path opacity="0.2" d="M107.277 263.572L114.906 301.795C114.906 301.795 120.754 286.631 107.277 263.572Z" fill="#FAFAFA"/>
<path opacity="0.2" d="M108.276 264.021C108.541 264.701 176.045 235.733 176.045 235.733C176.228 242.301 174.586 248.791 171.301 254.481C168.017 260.171 163.218 264.839 157.44 267.965C137.121 279.355 108.276 264.021 108.276 264.021Z" fill="#FAFAFA"/>
<path d="M153.115 265.15C154.73 265.15 156.039 263.841 156.039 262.226C156.039 260.611 154.73 259.302 153.115 259.302C151.5 259.302 150.191 260.611 150.191 262.226C150.191 263.841 151.5 265.15 153.115 265.15Z" fill="#50B9E6"/>
<path opacity="0.2" d="M176.079 235.733C176.079 235.733 184.45 248.334 182.423 269.795Z" fill="black"/>
<g opacity="0.2">
<path opacity="0.2" d="M104.046 248.558L105.604 247.871" stroke="#FAFAFA" stroke-linecap="round" stroke-linejoin="round"/>
<path opacity="0.2" d="M108.834 246.443L171.87 218.577" stroke="#FAFAFA" stroke-linecap="round" stroke-linejoin="round" stroke-dasharray="5.2 5.2"/>
<path opacity="0.2" d="M173.488 217.863L175.038 217.176" stroke="#FAFAFA" stroke-linecap="round" stroke-linejoin="round"/>
</g>
<path opacity="0.2" d="M188.489 228.348L247.71 224.697" stroke="black" stroke-width="2" stroke-linecap="round" stroke-linejoin="round"/>
<path opacity="0.2" d="M191.155 242.281L250.376 238.63" stroke="black" stroke-width="2" stroke-linecap="round" stroke-linejoin="round"/>
<path d="M204.598 142.422C204.598 142.422 203.108 158.286 197.213 159.653C193.562 160.442 189.755 160.061 186.333 158.565L181.539 154.879L179.2 163.039C179.2 163.039 181.756 166.514 187.094 164.107C187.094 164.107 196.614 168.296 201.878 164.107C207.141 159.918 208.827 148.426 208.827 148.426L204.598 142.422Z" fill="#F0BCAA"/>
<path d="M209.337 134.738C209.337 134.738 205.223 127.727 207.093 115.018C208.963 102.309 219.619 100.738 223.733 101.656C227.847 102.574 231.213 106.525 234.015 114.046C236.816 121.566 237.85 123.525 242.521 122.206C247.193 120.886 259.623 116.766 263.085 120.431C264.08 121.432 264.814 122.663 265.221 124.015C265.627 125.367 265.695 126.798 265.417 128.183C265.417 128.183 282.709 123.98 281.213 139.403C279.717 154.825 254.761 169.221 231.023 153.982C207.284 138.743 209.337 134.738 209.337 134.738Z" fill="#263238"/>
<path d="M209.147 172.063C209.147 172.063 204.448 212.476 204.604 231.427C204.761 250.379 211.493 295.041 211.493 295.041H219.796C219.796 295.041 218.701 259.328 218.857 247.108C219.014 234.889 221.203 214.672 221.203 214.672C221.203 214.672 223.862 232.842 226.997 239.261C230.132 245.68 247.519 268.399 259.582 275.451L265.22 270.276C265.22 270.276 252.687 254.772 247.988 247.095C243.29 239.417 239.067 237.241 237.34 222.961C235.612 208.681 238.598 185.84 233.586 172.057L209.147 172.063Z" fill="#263238"/>
<path opacity="0.2" d="M221.203 214.672L217.592 189.056C217.592 189.056 214.743 204.451 220.353 223.253L221.203 214.672Z" fill="black"/>
<path d="M213.2 297.306L213.479 305.241L219.048 305.704L219.327 304.962V296.748L213.2 297.306Z" fill="#F0BCAA"/>
<path d="M210.555 294.287L211.065 297.258L220.626 297.489L221.231 293.919L210.555 294.287Z" fill="#50B9E6"/>
<path d="M256.964 276.001L265.825 267.746L267.776 270.854L260.167 277.817L256.964 276.001Z" fill="#50B9E6"/>
<path d="M261.235 276.001L267.083 280.925L270.836 276.511L266.036 271.547L261.235 276.001Z" fill="#F0BCAA"/>
<path d="M271.972 276.171L275.508 278.347C275.669 278.447 275.807 278.58 275.911 278.738C276.015 278.896 276.083 279.075 276.111 279.262C276.139 279.449 276.126 279.64 276.072 279.822C276.018 280.003 275.926 280.171 275.8 280.313C273.237 283.209 266.688 290.567 266.036 291.084C265.226 291.764 264.247 290.621 263.996 289.601C263.996 289.601 265.852 287.14 266.036 285.562C266.113 284.344 266.113 283.122 266.036 281.904C266.021 281.599 266.123 281.3 266.321 281.067L270.272 276.43C270.476 276.188 270.761 276.029 271.073 275.981C271.386 275.934 271.705 276.001 271.972 276.171V276.171Z" fill="#263238"/>
<path d="M220.407 305.921L221.142 310.001C221.176 310.188 221.168 310.38 221.12 310.563C221.072 310.746 220.984 310.917 220.863 311.063C220.741 311.209 220.59 311.326 220.418 311.407C220.247 311.488 220.06 311.53 219.87 311.531C216.001 311.531 206.155 311.572 205.332 311.436C204.305 311.266 204.489 309.797 205.094 308.941C205.094 308.941 208.161 308.682 209.446 307.751C210.402 307.001 211.31 306.192 212.166 305.33C212.384 305.116 212.676 304.992 212.982 304.983L219.068 304.84C219.384 304.829 219.693 304.932 219.94 305.13C220.186 305.329 220.352 305.61 220.407 305.921Z" fill="#263238"/>
<path d="M234.477 149.651L242.963 143.694C242.963 143.694 240.705 134.663 237.36 134.215C234.014 133.766 217.409 130.604 206.848 134.215C206.848 134.215 203.054 135.296 201.884 145.951L206.399 147.393C206.399 147.393 208.018 167.344 209.017 170.418H233.117C233.117 170.418 233.389 153.261 234.477 149.651Z" fill="#50B9E6"/>
<path d="M236.306 148.365C236.306 148.365 239.522 157.545 240.094 162.482C240.094 162.482 232.45 159.435 230.478 158.041L228.982 152.669L223.923 150.201L222.42 154.281L226.643 159.517C226.643 159.517 238.156 170.288 243.99 167.826C249.824 165.365 241.685 144.611 241.685 144.611L236.306 148.365Z" fill="#F0BCAA"/>
<path d="M214.716 108.17C214.716 108.17 211.771 114.045 211.996 118.826C212.22 123.606 214.634 125.558 219.224 126.231C219.224 126.231 221.182 132.351 216.042 132.97C215.647 133.018 215.511 134.575 215.538 134.826C215.674 135.819 216.66 136.363 217.578 136.594C218.545 136.808 219.532 136.918 220.523 136.921C221.563 136.957 222.597 136.755 223.548 136.332C224.499 135.91 225.341 135.276 226.01 134.48C226.119 134.35 227.153 133.031 227.153 133.031C227.153 133.031 224.698 131.814 225.562 123.844C226.733 123.082 227.633 121.968 228.132 120.662C228.601 120.413 229.016 120.073 229.352 119.662C229.688 119.251 229.939 118.777 230.09 118.268C230.458 116.677 229.05 114.474 226.48 116.677C226.48 116.677 221.638 114.229 219.802 105.654C218.441 107.045 216.647 107.932 214.716 108.17V108.17Z" fill="#F0BCAA"/>
<path d="M216.096 117.521L216.511 114.379L214.288 116.841C214.517 117.085 214.799 117.273 215.113 117.391C215.427 117.509 215.763 117.553 216.096 117.521V117.521Z" fill="#DAAD9E"/>
<path d="M217.388 119.819C217.388 119.819 219.734 120.179 220.863 118.676" stroke="#222221" stroke-width="0.75" stroke-linecap="round" stroke-linejoin="round"/>
<path d="M219.734 109.979C220.267 109.828 220.83 109.823 221.366 109.965C221.901 110.108 222.387 110.392 222.774 110.788" stroke="#222221" stroke-linecap="round" stroke-linejoin="round"/>
<path d="M215.675 109.299C215.675 109.299 214.315 109.089 213.709 109.857" stroke="#222221" stroke-linecap="round" stroke-linejoin="round"/>
<path d="M220.68 114.114C220.619 114.59 220.313 114.936 220 114.896C219.687 114.855 219.476 114.44 219.537 113.964C219.599 113.488 219.905 113.141 220.217 113.182C220.53 113.223 220.741 113.638 220.68 114.114Z" fill="#222221"/>
<path d="M215.251 113.061C215.313 112.588 215.106 112.171 214.789 112.13C214.473 112.089 214.166 112.439 214.105 112.912C214.043 113.385 214.25 113.802 214.567 113.843C214.883 113.884 215.19 113.534 215.251 113.061Z" fill="#222221"/>
<path d="M220.224 113.182L219.149 112.713C219.164 112.83 219.208 112.942 219.279 113.037C219.35 113.132 219.444 113.207 219.552 113.255C219.661 113.302 219.78 113.32 219.898 113.308C220.016 113.295 220.128 113.252 220.224 113.182V113.182Z" fill="#222221"/>
<path d="M214.893 112.176L213.818 111.707C213.833 111.824 213.877 111.936 213.948 112.031C214.019 112.126 214.113 112.201 214.221 112.248C214.33 112.296 214.449 112.314 214.567 112.301C214.685 112.289 214.797 112.245 214.893 112.176V112.176Z" fill="#222221"/>
<path d="M208.174 169.357V172.192L234.286 172.41L233.586 169.037L208.174 169.357Z" fill="#50B9E6"/>
<path opacity="0.4" d="M208.174 169.357V172.192L234.286 172.41L233.586 169.037L208.174 169.357Z" fill="white"/>
</svg>
