<svg width="405" height="405" viewBox="0 0 405 405" fill="none" xmlns="http://www.w3.org/2000/svg">
<path opacity="0.4" d="M202.5 329.886C275.102 329.886 333.958 326.449 333.958 322.211C333.958 317.972 275.102 314.536 202.5 314.536C129.898 314.536 71.043 317.972 71.043 322.211C71.043 326.449 129.898 329.886 202.5 329.886Z" fill="#23AEEA"/>
<path d="M90.9556 238.329L82.6094 93.1959C82.5616 92.5194 82.6545 91.8403 82.8822 91.2014C83.11 90.5626 83.4677 89.9779 83.9327 89.4842C84.3977 88.9905 84.9601 88.5985 85.5841 88.333C86.2082 88.0675 86.8806 87.9341 87.5588 87.9414H253.079C254.496 87.9587 255.854 88.509 256.883 89.4828C257.912 90.4566 258.536 91.7824 258.632 93.1959L266.971 238.329C267.02 239.004 266.928 239.683 266.701 240.322C266.474 240.96 266.117 241.545 265.652 242.038C265.188 242.531 264.626 242.923 264.002 243.187C263.378 243.452 262.706 243.585 262.029 243.576H96.5016C95.0862 243.561 93.7289 243.012 92.7008 242.039C91.6726 241.066 91.0494 239.741 90.9556 238.329V238.329Z" fill="#50B9E6"/>
<path d="M262.029 243.902H96.5016C95.0048 243.882 93.5702 243.299 92.4826 242.271C91.395 241.242 90.7338 239.842 90.6301 238.349L82.2907 93.2095C82.239 92.4895 82.3374 91.7666 82.5796 91.0866C82.8218 90.4066 83.2026 89.7844 83.6978 89.2592C84.1931 88.734 84.7919 88.3174 85.4565 88.0357C86.1212 87.754 86.837 87.6134 87.5588 87.6228H253.079C254.576 87.6414 256.012 88.2231 257.1 89.252C258.188 90.2809 258.848 91.6816 258.95 93.1756L267.297 238.308C267.347 239.028 267.248 239.751 267.006 240.431C266.763 241.111 266.382 241.733 265.887 242.259C265.393 242.784 264.794 243.201 264.13 243.484C263.466 243.767 262.75 243.909 262.029 243.902V243.902ZM91.3081 238.308C91.3983 239.639 91.9862 240.887 92.9548 241.804C93.9234 242.721 95.2017 243.24 96.5355 243.258H262.029C262.662 243.264 263.29 243.139 263.873 242.891C264.455 242.642 264.98 242.276 265.415 241.815C265.849 241.354 266.183 240.808 266.396 240.212C266.609 239.615 266.696 238.981 266.652 238.349L258.313 93.2095C258.221 91.8787 257.632 90.6313 256.662 89.7154C255.692 88.7996 254.413 88.2824 253.079 88.2669H87.5588C86.9248 88.2586 86.296 88.3822 85.7123 88.6297C85.1286 88.8773 84.6027 89.2434 84.168 89.705C83.7332 90.1665 83.3991 90.7133 83.1868 91.3107C82.9746 91.9082 82.8888 92.5432 82.9348 93.1756L91.3081 238.308Z" fill="#F6FBFF"/>
<path d="M92.9829 238.329L84.6367 93.1959C84.5889 92.5194 84.6818 91.8403 84.9096 91.2014C85.1373 90.5626 85.495 89.9779 85.9601 89.4842C86.4251 88.9905 86.9874 88.5985 87.6115 88.333C88.2356 88.0675 88.9079 87.9341 89.5861 87.9414H255.106C256.523 87.9587 257.881 88.509 258.91 89.4828C259.939 90.4566 260.564 91.7824 260.659 93.1959L268.998 238.329C269.047 239.004 268.955 239.683 268.728 240.322C268.501 240.96 268.144 241.545 267.68 242.038C267.215 242.531 266.653 242.923 266.029 243.187C265.405 243.452 264.733 243.585 264.056 243.576H98.5289C97.1136 243.561 95.7562 243.012 94.7281 242.039C93.7 241.066 93.0767 239.741 92.9829 238.329V238.329Z" fill="#098AC1"/>
<path d="M264.056 243.902H98.529C97.0333 243.88 95.6004 243.297 94.5142 242.269C93.428 241.24 92.7678 239.841 92.6643 238.349L84.3181 93.2095C84.2664 92.4895 84.3648 91.7666 84.607 91.0866C84.8492 90.4066 85.23 89.7844 85.7252 89.2592C86.2204 88.734 86.8193 88.3174 87.4839 88.0357C88.1485 87.754 88.8644 87.6134 89.5861 87.6228H255.106C256.604 87.6414 258.039 88.2231 259.127 89.252C260.215 90.2809 260.876 91.6816 260.978 93.1756L269.324 238.308C269.375 239.028 269.275 239.751 269.033 240.431C268.79 241.111 268.41 241.733 267.915 242.259C267.42 242.784 266.822 243.201 266.157 243.484C265.493 243.767 264.778 243.909 264.056 243.902V243.902ZM89.5861 88.2669C88.9521 88.2586 88.3234 88.3822 87.7397 88.6297C87.156 88.8773 86.6301 89.2434 86.1953 89.705C85.7606 90.1665 85.4265 90.7133 85.2142 91.3107C85.0019 91.9082 84.9161 92.5432 84.9622 93.1756L93.3016 238.308C93.3917 239.639 93.9796 240.887 94.9482 241.804C95.9168 242.721 97.1952 243.24 98.529 243.258H264.056C264.689 243.264 265.317 243.139 265.9 242.891C266.483 242.642 267.008 242.276 267.442 241.815C267.876 241.354 268.211 240.808 268.424 240.212C268.637 239.615 268.724 238.981 268.68 238.349L260.34 93.2095C260.245 91.8798 259.655 90.6342 258.686 89.719C257.717 88.8037 256.439 88.2855 255.106 88.2669H89.5861Z" fill="#608CC0"/>
<path d="M148.619 108.905H102.366C101.525 108.884 100.723 108.551 100.114 107.971C99.5046 107.391 99.1331 106.605 99.0711 105.766V105.766C99.044 105.365 99.1 104.963 99.2356 104.585C99.3712 104.207 99.5835 103.861 99.8592 103.569C100.135 103.276 100.468 103.044 100.837 102.887C101.207 102.73 101.605 102.65 102.007 102.654H148.26C149.099 102.665 149.904 102.992 150.514 103.568C151.124 104.144 151.496 104.929 151.555 105.766V105.766C151.586 106.169 151.533 106.574 151.399 106.955C151.265 107.337 151.054 107.686 150.778 107.981C150.502 108.276 150.167 108.511 149.796 108.67C149.424 108.829 149.023 108.909 148.619 108.905V108.905Z" fill="#50B9E6"/>
<path d="M140.124 119.692H102.983C102.151 119.68 101.353 119.357 100.745 118.788C100.137 118.219 99.7624 117.444 99.6951 116.614C99.6671 116.213 99.7221 115.811 99.8569 115.433C99.9917 115.054 100.203 114.708 100.478 114.415C100.753 114.122 101.086 113.889 101.455 113.731C101.824 113.573 102.222 113.492 102.624 113.495H139.758C140.598 113.507 141.404 113.834 142.014 114.412C142.625 114.989 142.995 115.776 143.053 116.614V116.614C143.075 117.011 143.016 117.409 142.879 117.783C142.741 118.157 142.529 118.498 142.254 118.786C141.98 119.075 141.649 119.304 141.283 119.46C140.917 119.616 140.522 119.695 140.124 119.692V119.692Z" fill="#50B9E6"/>
<path d="M158.288 133.618H102.692C102.145 133.612 101.621 133.399 101.226 133.021C100.831 132.644 100.594 132.13 100.563 131.584V131.584C100.542 131.323 100.576 131.061 100.662 130.814C100.749 130.567 100.885 130.34 101.064 130.149C101.243 129.958 101.459 129.806 101.7 129.703C101.94 129.6 102.2 129.548 102.461 129.55H158.057C158.604 129.558 159.127 129.772 159.521 130.149C159.916 130.526 160.154 131.039 160.186 131.584V131.584C160.207 131.845 160.173 132.108 160.087 132.355C160.001 132.602 159.864 132.828 159.685 133.02C159.507 133.211 159.29 133.363 159.05 133.466C158.809 133.569 158.55 133.621 158.288 133.618V133.618Z" fill="#50B9E6"/>
<path d="M168.315 140.032H109.174C108.627 140.024 108.104 139.811 107.709 139.433C107.315 139.056 107.077 138.543 107.045 137.998C107.023 137.737 107.056 137.474 107.142 137.227C107.228 136.979 107.364 136.752 107.543 136.56C107.722 136.369 107.939 136.217 108.18 136.114C108.421 136.011 108.681 135.96 108.943 135.964H168.085C168.632 135.97 169.155 136.183 169.551 136.561C169.946 136.939 170.183 137.452 170.214 137.998V137.998C170.235 138.259 170.201 138.521 170.114 138.768C170.028 139.016 169.891 139.242 169.713 139.433C169.534 139.625 169.318 139.777 169.077 139.88C168.837 139.983 168.577 140.035 168.315 140.032V140.032Z" fill="#50B9E6"/>
<path d="M157.854 146.446H109.54C108.994 146.44 108.471 146.226 108.076 145.849C107.682 145.471 107.447 144.957 107.417 144.412V144.412C107.394 144.151 107.425 143.888 107.51 143.64C107.594 143.392 107.73 143.164 107.909 142.972C108.087 142.781 108.304 142.628 108.546 142.526C108.787 142.424 109.047 142.373 109.309 142.378H157.623C158.17 142.382 158.695 142.595 159.091 142.973C159.486 143.351 159.723 143.866 159.752 144.412V144.412C159.773 144.673 159.739 144.935 159.653 145.182C159.567 145.43 159.43 145.656 159.251 145.847C159.073 146.039 158.856 146.191 158.616 146.294C158.375 146.397 158.116 146.449 157.854 146.446V146.446Z" fill="#50B9E6"/>
<path d="M152.769 152.86H109.912C109.366 152.854 108.842 152.641 108.447 152.263C108.051 151.885 107.814 151.372 107.783 150.826V150.826C107.761 150.565 107.793 150.302 107.878 150.055C107.963 149.807 108.099 149.58 108.277 149.389C108.456 149.197 108.672 149.045 108.913 148.942C109.154 148.839 109.413 148.788 109.675 148.792H152.538C153.085 148.798 153.609 149.011 154.004 149.389C154.399 149.767 154.636 150.28 154.667 150.826C154.688 151.087 154.654 151.349 154.568 151.596C154.482 151.843 154.345 152.07 154.166 152.261C153.988 152.453 153.771 152.605 153.53 152.708C153.29 152.811 153.03 152.863 152.769 152.86V152.86Z" fill="#50B9E6"/>
<path d="M139.107 163.294H104.387C103.841 163.29 103.317 163.077 102.922 162.699C102.528 162.32 102.293 161.806 102.265 161.26V161.26C102.242 160.999 102.274 160.737 102.359 160.489C102.444 160.242 102.581 160.015 102.759 159.823C102.937 159.631 103.154 159.479 103.394 159.376C103.635 159.274 103.895 159.222 104.157 159.226H138.877C139.423 159.234 139.946 159.448 140.341 159.825C140.736 160.202 140.973 160.715 141.006 161.26V161.26C141.028 161.521 140.995 161.784 140.909 162.032C140.823 162.279 140.686 162.506 140.507 162.698C140.328 162.889 140.112 163.041 139.87 163.144C139.629 163.247 139.369 163.298 139.107 163.294V163.294Z" fill="#50B9E6"/>
<path d="M148.938 178.515H111.384C111.122 178.513 110.863 178.565 110.622 178.668C110.381 178.771 110.165 178.923 109.986 179.114C109.808 179.306 109.671 179.532 109.585 179.779C109.499 180.026 109.465 180.289 109.485 180.549V180.549C109.518 181.095 109.755 181.607 110.15 181.985C110.545 182.362 111.068 182.576 111.614 182.583H149.182C149.444 182.586 149.703 182.534 149.944 182.431C150.185 182.328 150.401 182.176 150.58 181.985C150.758 181.793 150.895 181.567 150.981 181.32C151.068 181.073 151.101 180.81 151.081 180.549V180.549C151.05 180.001 150.811 179.486 150.413 179.108C150.014 178.73 149.487 178.518 148.938 178.515Z" fill="#50B9E6"/>
<path d="M141.481 172.102H111.018C110.756 172.099 110.497 172.151 110.256 172.254C110.016 172.357 109.799 172.509 109.621 172.7C109.442 172.892 109.305 173.118 109.219 173.365C109.133 173.612 109.099 173.875 109.12 174.136V174.136C109.151 174.681 109.388 175.195 109.783 175.573C110.178 175.95 110.702 176.164 111.249 176.17H141.684C141.946 176.173 142.206 176.122 142.447 176.02C142.688 175.917 142.905 175.765 143.084 175.573C143.263 175.382 143.399 175.155 143.485 174.907C143.571 174.66 143.604 174.397 143.582 174.136V174.136C143.552 173.595 143.319 173.085 142.929 172.708C142.54 172.331 142.023 172.114 141.481 172.102Z" fill="#50B9E6"/>
<path d="M144.579 165.688H110.679C110.417 165.685 110.158 165.737 109.918 165.84C109.678 165.943 109.462 166.095 109.284 166.287C109.106 166.478 108.969 166.705 108.884 166.952C108.798 167.199 108.766 167.461 108.787 167.722C108.816 168.267 109.052 168.78 109.446 169.158C109.84 169.536 110.363 169.75 110.909 169.756H144.843C145.105 169.759 145.365 169.708 145.606 169.606C145.847 169.503 146.064 169.351 146.243 169.159C146.422 168.968 146.559 168.741 146.644 168.493C146.73 168.246 146.763 167.983 146.742 167.722V167.722C146.709 167.171 146.466 166.653 146.064 166.275C145.662 165.897 145.131 165.687 144.579 165.688Z" fill="#50B9E6"/>
<path d="M141.921 212.212H107.201C106.655 212.204 106.132 211.99 105.737 211.613C105.342 211.236 105.104 210.723 105.072 210.178V210.178C105.05 209.917 105.083 209.654 105.169 209.406C105.255 209.159 105.392 208.932 105.571 208.74C105.749 208.549 105.966 208.397 106.207 208.294C106.448 208.191 106.708 208.14 106.97 208.144H141.691C142.237 208.15 142.76 208.364 143.154 208.741C143.548 209.119 143.784 209.633 143.813 210.178V210.178C143.836 210.439 143.803 210.701 143.718 210.949C143.633 211.197 143.497 211.424 143.319 211.615C143.141 211.807 142.924 211.959 142.683 212.062C142.443 212.165 142.183 212.216 141.921 212.212V212.212Z" fill="#50B9E6"/>
<path d="M151.765 227.44H114.197C113.936 227.437 113.676 227.489 113.436 227.592C113.195 227.695 112.978 227.847 112.8 228.039C112.621 228.23 112.485 228.457 112.398 228.704C112.312 228.951 112.278 229.213 112.299 229.474C112.331 230.019 112.569 230.532 112.964 230.909C113.359 231.287 113.882 231.5 114.428 231.508H151.996C152.258 231.512 152.518 231.461 152.759 231.358C153 231.255 153.217 231.103 153.396 230.912C153.574 230.72 153.711 230.493 153.797 230.246C153.883 229.998 153.916 229.735 153.894 229.474V229.474C153.862 228.929 153.624 228.416 153.229 228.039C152.834 227.662 152.311 227.448 151.765 227.44V227.44Z" fill="#50B9E6"/>
<path d="M144.267 221.026H113.824C113.563 221.023 113.304 221.075 113.064 221.178C112.823 221.281 112.607 221.433 112.429 221.625C112.251 221.816 112.115 222.043 112.029 222.29C111.944 222.537 111.911 222.799 111.933 223.06V223.06C111.964 223.606 112.201 224.119 112.596 224.497C112.991 224.875 113.515 225.088 114.062 225.094H144.497C144.759 225.097 145.018 225.045 145.259 224.942C145.499 224.839 145.716 224.687 145.895 224.495C146.073 224.304 146.21 224.078 146.296 223.83C146.382 223.583 146.416 223.321 146.396 223.06V223.06C146.363 222.515 146.126 222.002 145.731 221.625C145.336 221.247 144.813 221.034 144.267 221.026V221.026Z" fill="#50B9E6"/>
<path d="M147.392 214.612H113.492C113.23 214.609 112.97 214.66 112.729 214.762C112.488 214.865 112.271 215.017 112.092 215.209C111.914 215.4 111.777 215.627 111.691 215.875C111.605 216.122 111.572 216.385 111.594 216.646V216.646C111.626 217.191 111.864 217.704 112.259 218.081C112.654 218.459 113.177 218.673 113.723 218.68H147.657C147.918 218.683 148.178 218.631 148.418 218.528C148.659 218.425 148.876 218.273 149.054 218.082C149.233 217.89 149.369 217.664 149.456 217.417C149.542 217.17 149.576 216.907 149.555 216.646V216.646C149.522 216.095 149.28 215.578 148.878 215.2C148.476 214.821 147.944 214.611 147.392 214.612V214.612Z" fill="#50B9E6"/>
<path d="M150.057 197.757H112.489C112.227 197.753 111.967 197.804 111.726 197.907C111.486 198.01 111.269 198.162 111.091 198.354C110.913 198.545 110.776 198.772 110.691 199.02C110.606 199.268 110.574 199.53 110.597 199.791V199.791C110.626 200.336 110.862 200.85 111.256 201.228C111.65 201.605 112.173 201.819 112.719 201.825H150.294C150.556 201.829 150.816 201.778 151.057 201.675C151.298 201.572 151.515 201.42 151.694 201.229C151.872 201.037 152.009 200.81 152.095 200.563C152.181 200.315 152.214 200.052 152.192 199.791V199.791C152.161 199.244 151.923 198.73 151.527 198.352C151.13 197.974 150.604 197.761 150.057 197.757V197.757Z" fill="#50B9E6"/>
<path d="M142.558 191.343H112.123C111.861 191.34 111.601 191.392 111.361 191.495C111.12 191.598 110.904 191.75 110.725 191.942C110.547 192.133 110.41 192.36 110.324 192.607C110.237 192.854 110.203 193.116 110.224 193.377V193.377C110.257 193.922 110.494 194.435 110.889 194.812C111.284 195.19 111.807 195.404 112.353 195.411H142.789C143.05 195.414 143.31 195.362 143.55 195.259C143.791 195.156 144.007 195.004 144.186 194.812C144.365 194.621 144.501 194.395 144.588 194.148C144.674 193.9 144.708 193.638 144.687 193.377V193.377C144.656 192.831 144.419 192.318 144.024 191.94C143.629 191.563 143.105 191.349 142.558 191.343V191.343Z" fill="#50B9E6"/>
<path d="M145.683 184.929H111.783C111.522 184.927 111.263 184.978 111.022 185.081C110.782 185.185 110.566 185.337 110.388 185.528C110.21 185.72 110.074 185.946 109.988 186.193C109.903 186.441 109.87 186.703 109.892 186.963V186.963C109.923 187.509 110.16 188.023 110.555 188.4C110.95 188.778 111.474 188.991 112.021 188.997H145.921C146.182 189 146.442 188.948 146.682 188.845C146.923 188.742 147.139 188.59 147.318 188.399C147.497 188.207 147.633 187.981 147.72 187.734C147.806 187.487 147.84 187.224 147.819 186.963V186.963C147.787 186.417 147.548 185.903 147.152 185.526C146.755 185.148 146.231 184.935 145.683 184.929V184.929Z" fill="#50B9E6"/>
<path d="M209.321 132.276H192.554C188.031 132.222 183.695 130.466 180.408 127.359C177.122 124.252 175.126 120.021 174.817 115.509V115.509C174.664 113.348 174.961 111.179 175.689 109.139C176.417 107.099 177.559 105.232 179.045 103.655C180.531 102.079 182.327 100.828 184.321 99.9812C186.315 99.1344 188.462 98.7101 190.628 98.7352V98.7352C195.151 98.7897 199.488 100.546 202.773 103.655C206.059 106.763 208.053 110.996 208.358 115.509L209.321 132.276Z" fill="#50B9E6"/>
<path d="M192.385 129.374C188.646 129.328 185.062 127.876 182.345 125.307C179.629 122.737 177.98 119.239 177.726 115.509V115.509C177.599 113.723 177.843 111.93 178.444 110.243C179.044 108.556 179.989 107.013 181.217 105.71C182.444 104.406 183.929 103.372 185.578 102.672C187.226 101.973 189.001 101.622 190.791 101.644V101.644C194.532 101.686 198.118 103.137 200.837 105.707C203.555 108.277 205.204 111.777 205.456 115.509V115.509C205.583 117.295 205.338 119.088 204.736 120.775C204.135 122.462 203.19 124.005 201.962 125.308C200.733 126.611 199.248 127.646 197.599 128.345C195.951 129.045 194.175 129.395 192.385 129.374V129.374Z" fill="white"/>
<path d="M193.239 109.895L193.917 121.123H190.812L190.391 113.766C189.953 114.117 189.483 114.425 188.988 114.688C188.432 114.962 187.853 115.189 187.259 115.366L187.117 112.851C187.975 112.605 188.777 112.193 189.476 111.637C190.028 111.166 190.458 110.568 190.73 109.895H193.239Z" fill="#098AC1"/>
<path d="M219.674 165.816H236.441C238.606 165.842 240.754 165.417 242.747 164.57C244.74 163.723 246.536 162.472 248.022 160.896C249.507 159.32 250.649 157.452 251.376 155.412C252.103 153.372 252.399 151.203 252.245 149.043C251.938 144.531 249.944 140.3 246.658 137.193C243.372 134.086 239.037 132.33 234.515 132.276V132.276C232.349 132.25 230.202 132.673 228.208 133.519C226.215 134.365 224.418 135.616 222.932 137.191C221.446 138.767 220.303 140.634 219.576 142.674C218.848 144.714 218.551 146.882 218.704 149.043L219.674 165.816Z" fill="#50B9E6"/>
<path d="M236.272 162.908C238.063 162.929 239.838 162.579 241.487 161.879C243.135 161.179 244.62 160.145 245.849 158.842C247.077 157.539 248.022 155.996 248.624 154.309C249.225 152.622 249.47 150.829 249.344 149.043C249.09 145.311 247.44 141.812 244.722 139.243C242.004 136.673 238.418 135.222 234.679 135.178V135.178C232.888 135.157 231.114 135.508 229.466 136.208C227.818 136.909 226.334 137.943 225.106 139.246C223.878 140.549 222.934 142.092 222.333 143.778C221.732 145.464 221.487 147.257 221.614 149.043C221.866 152.774 223.514 156.273 226.231 158.842C228.948 161.412 232.533 162.863 236.272 162.908V162.908Z" fill="white"/>
<path d="M240.699 154.657H231.498C231.548 153.748 231.825 152.867 232.305 152.094C233.087 150.995 234.05 150.036 235.153 149.26C235.763 148.83 236.313 148.319 236.787 147.741C237 147.455 237.114 147.108 237.112 146.751C237.103 146.586 237.061 146.425 236.987 146.277C236.914 146.128 236.811 145.997 236.685 145.89C236.425 145.65 236.082 145.521 235.729 145.531C235.555 145.522 235.382 145.551 235.22 145.615C235.059 145.679 234.913 145.778 234.793 145.904C234.509 146.277 234.359 146.736 234.366 147.205L231.281 146.955C231.304 146.244 231.49 145.548 231.824 144.921C232.129 144.424 232.582 144.035 233.119 143.809C233.885 143.511 234.705 143.377 235.526 143.415C236.389 143.38 237.251 143.507 238.068 143.788C238.658 144.017 239.171 144.41 239.546 144.921C239.915 145.42 240.13 146.016 240.163 146.636C240.198 147.311 240.031 147.982 239.682 148.561C239.142 149.365 238.451 150.056 237.648 150.595C237.051 151.023 236.658 151.321 236.461 151.497C236.223 151.71 235.996 151.937 235.783 152.175H240.577L240.699 154.657Z" fill="#098AC1"/>
<path d="M213.179 199.33H196.398C191.876 199.276 187.539 197.52 184.253 194.413C180.966 191.306 178.97 187.075 178.662 182.563V182.563C178.508 180.403 178.804 178.234 179.531 176.195C180.257 174.155 181.4 172.288 182.885 170.712C184.37 169.136 186.167 167.886 188.16 167.04C190.153 166.193 192.301 165.77 194.466 165.796C198.988 165.85 203.325 167.606 206.611 170.713C209.898 173.82 211.894 178.051 212.202 182.563L213.179 199.33Z" fill="#50B9E6"/>
<path d="M196.242 196.449C192.503 196.404 188.918 194.953 186.201 192.383C183.485 189.813 181.836 186.314 181.584 182.584V182.584C181.456 180.798 181.7 179.005 182.301 177.318C182.902 175.631 183.846 174.087 185.074 172.784C186.302 171.481 187.787 170.447 189.435 169.747C191.083 169.047 192.858 168.697 194.649 168.718V168.718C198.383 168.771 201.96 170.226 204.671 172.795C207.382 175.364 209.027 178.858 209.28 182.584V182.584C209.407 184.367 209.162 186.157 208.563 187.842C207.963 189.526 207.021 191.068 205.797 192.371C204.572 193.673 203.091 194.708 201.446 195.41C199.802 196.112 198.03 196.465 196.242 196.449V196.449Z" fill="white"/>
<path d="M193.815 180.258L190.886 179.736C191.027 178.894 191.479 178.136 192.154 177.614C193.007 177.068 194.012 176.809 195.022 176.875C196.14 176.785 197.256 177.069 198.195 177.682C198.513 177.921 198.774 178.227 198.961 178.578C199.147 178.93 199.254 179.318 199.273 179.716C199.308 180.17 199.196 180.624 198.954 181.011C198.673 181.438 198.288 181.788 197.836 182.028C198.185 182.098 198.521 182.222 198.832 182.394C199.206 182.61 199.519 182.918 199.741 183.289C199.975 183.688 200.106 184.141 200.121 184.604C200.157 185.246 200.019 185.885 199.721 186.455C199.424 187.04 198.949 187.515 198.365 187.811C197.594 188.164 196.75 188.329 195.903 188.292C195.088 188.321 194.274 188.199 193.503 187.933C192.932 187.714 192.423 187.361 192.018 186.902C191.588 186.399 191.261 185.816 191.056 185.187L194.1 184.78C194.186 185.26 194.404 185.706 194.73 186.068C195 186.316 195.354 186.452 195.72 186.448C195.911 186.454 196.1 186.417 196.273 186.339C196.447 186.262 196.601 186.146 196.724 186.001C196.988 185.657 197.109 185.225 197.063 184.794C197.063 184.352 196.899 183.927 196.602 183.6C196.456 183.461 196.284 183.351 196.095 183.279C195.906 183.207 195.705 183.173 195.503 183.18C195.169 183.196 194.838 183.258 194.52 183.363V181.173C194.656 181.18 194.792 181.18 194.927 181.173C195.108 181.179 195.288 181.148 195.457 181.083C195.626 181.018 195.78 180.919 195.91 180.794C196.031 180.675 196.124 180.532 196.184 180.374C196.243 180.216 196.268 180.047 196.256 179.878C196.249 179.575 196.125 179.286 195.91 179.071C195.677 178.865 195.373 178.758 195.063 178.773C194.905 178.766 194.747 178.791 194.598 178.847C194.45 178.903 194.315 178.988 194.202 179.099C193.949 179.432 193.814 179.84 193.815 180.258V180.258Z" fill="#098AC1"/>
<g opacity="0.6">
<path d="M223.518 232.891H240.285C242.451 232.916 244.599 232.492 246.592 231.645C248.586 230.798 250.382 229.547 251.868 227.971C253.354 226.395 254.497 224.528 255.225 222.487C255.952 220.447 256.249 218.278 256.096 216.118V216.118C255.793 211.603 253.8 207.368 250.514 204.257C247.228 201.146 242.891 199.387 238.366 199.33V199.33C236.201 199.304 234.054 199.728 232.06 200.574C230.067 201.42 228.271 202.67 226.785 204.246C225.3 205.822 224.158 207.689 223.431 209.729C222.704 211.769 222.408 213.937 222.562 216.097L223.518 232.891Z" fill="#50B9E6"/>
<path d="M240.129 229.983C241.92 230.004 243.695 229.654 245.343 228.954C246.991 228.254 248.476 227.22 249.704 225.917C250.932 224.614 251.876 223.07 252.477 221.383C253.078 219.697 253.322 217.904 253.194 216.118C252.941 212.388 251.291 208.891 248.575 206.322C245.858 203.754 242.274 202.303 238.536 202.259C236.746 202.238 234.971 202.588 233.323 203.287C231.675 203.987 230.19 205.02 228.962 206.322C227.733 207.625 226.788 209.167 226.186 210.853C225.584 212.539 225.338 214.332 225.464 216.118V216.118C225.718 219.849 227.368 223.348 230.086 225.918C232.803 228.487 236.389 229.938 240.129 229.983V229.983Z" fill="white"/>
<path d="M240.068 219.67H234.481L234.339 217.148L239.539 210.504H242.217L242.604 217.284H243.994L244.129 219.663H242.773L242.895 221.697H240.224L240.068 219.67ZM239.932 217.29L239.729 213.819L236.976 217.29H239.932Z" fill="#098AC1"/>
</g>
<path d="M217.416 199.947C217.264 199.946 217.118 199.887 217.007 199.783C216.897 199.678 216.83 199.536 216.819 199.384L212.968 132.31C212.956 132.228 212.961 132.144 212.983 132.064C213.005 131.984 213.044 131.91 213.096 131.845C213.148 131.781 213.213 131.729 213.287 131.691C213.361 131.653 213.442 131.631 213.525 131.626C213.607 131.622 213.69 131.634 213.768 131.663C213.845 131.692 213.916 131.737 213.975 131.795C214.035 131.853 214.081 131.923 214.112 132C214.143 132.077 214.158 132.159 214.155 132.242L217.979 199.33C217.988 199.487 217.935 199.642 217.831 199.76C217.727 199.878 217.58 199.95 217.423 199.96L217.416 199.947Z" fill="#50B9E6"/>
<path d="M219.314 233.481C219.163 233.481 219.018 233.424 218.909 233.32C218.799 233.217 218.733 233.075 218.724 232.925L216.792 199.384C216.797 199.235 216.857 199.094 216.961 198.987C217.065 198.881 217.206 198.817 217.354 198.808C217.503 198.8 217.649 198.847 217.765 198.941C217.88 199.035 217.957 199.169 217.978 199.316L219.911 232.857C219.918 233.014 219.863 233.168 219.758 233.285C219.652 233.402 219.505 233.472 219.348 233.481H219.314Z" fill="#E0E0E0"/>
<path d="M214.786 132.276C214.797 132.437 214.775 132.599 214.72 132.751C214.666 132.904 214.581 133.043 214.47 133.161C214.359 133.279 214.225 133.372 214.077 133.436C213.928 133.499 213.768 133.532 213.606 133.53C213.263 133.531 212.933 133.402 212.681 133.17C212.43 132.937 212.276 132.618 212.25 132.276C212.239 132.114 212.261 131.952 212.316 131.799C212.371 131.646 212.456 131.506 212.568 131.388C212.679 131.27 212.814 131.177 212.964 131.114C213.113 131.051 213.274 131.019 213.436 131.022C213.778 131.022 214.107 131.152 214.357 131.384C214.607 131.617 214.76 131.935 214.786 132.276V132.276Z" fill="white"/>
<path d="M213.606 134.127C213.116 134.121 212.646 133.931 212.29 133.594C211.935 133.257 211.719 132.799 211.687 132.31C211.67 132.067 211.704 131.823 211.785 131.594C211.867 131.365 211.996 131.156 212.163 130.979C212.329 130.802 212.531 130.661 212.755 130.566C212.979 130.47 213.22 130.422 213.463 130.425C213.953 130.432 214.421 130.623 214.777 130.96C215.132 131.296 215.348 131.754 215.382 132.242V132.242C215.401 132.489 215.368 132.737 215.285 132.971C215.202 133.205 215.071 133.418 214.901 133.598C214.733 133.771 214.531 133.907 214.308 133.998C214.086 134.089 213.846 134.133 213.606 134.127V134.127ZM213.463 131.618C213.383 131.616 213.303 131.631 213.228 131.661C213.153 131.692 213.086 131.737 213.029 131.794C212.972 131.853 212.929 131.924 212.902 132.001C212.875 132.078 212.865 132.161 212.873 132.242C212.892 132.425 212.976 132.595 213.111 132.72C213.246 132.845 213.422 132.916 213.606 132.92C213.686 132.922 213.766 132.907 213.841 132.877C213.915 132.846 213.983 132.801 214.039 132.744C214.094 132.683 214.135 132.612 214.162 132.535C214.189 132.459 214.2 132.377 214.195 132.296C214.177 132.113 214.093 131.943 213.958 131.818C213.823 131.693 213.647 131.622 213.463 131.618V131.618Z" fill="#50B9E6"/>
<path d="M216.738 165.816C216.748 165.978 216.725 166.14 216.67 166.292C216.615 166.445 216.529 166.584 216.418 166.702C216.307 166.819 216.172 166.913 216.023 166.976C215.874 167.04 215.714 167.072 215.552 167.071C215.209 167.072 214.879 166.943 214.627 166.71C214.376 166.477 214.221 166.158 214.196 165.816C214.183 165.655 214.205 165.493 214.259 165.34C214.313 165.187 214.398 165.047 214.509 164.929C214.62 164.811 214.754 164.718 214.904 164.654C215.053 164.591 215.213 164.56 215.375 164.562C215.719 164.559 216.051 164.687 216.304 164.92C216.557 165.153 216.712 165.474 216.738 165.816Z" fill="white"/>
<path d="M215.531 167.661C215.042 167.655 214.574 167.466 214.218 167.13C213.863 166.795 213.646 166.338 213.612 165.85C213.594 165.603 213.627 165.355 213.71 165.122C213.793 164.888 213.924 164.675 214.094 164.494C214.26 164.319 214.461 164.179 214.684 164.085C214.907 163.99 215.147 163.943 215.389 163.945C215.877 163.951 216.346 164.14 216.702 164.476C217.057 164.811 217.273 165.268 217.307 165.755V165.755C217.324 165.998 217.291 166.241 217.209 166.47C217.127 166.699 216.998 166.908 216.831 167.084C216.664 167.261 216.463 167.401 216.239 167.495C216.015 167.59 215.774 167.637 215.531 167.633V167.661ZM215.389 165.152C215.308 165.151 215.227 165.167 215.153 165.199C215.078 165.23 215.011 165.277 214.955 165.335C214.9 165.395 214.858 165.466 214.831 165.543C214.804 165.62 214.793 165.701 214.799 165.783C214.817 165.965 214.902 166.135 215.036 166.26C215.171 166.385 215.347 166.456 215.531 166.461C215.612 166.462 215.692 166.446 215.766 166.415C215.84 166.383 215.907 166.337 215.963 166.278C216.018 166.22 216.061 166.15 216.088 166.074C216.115 165.998 216.127 165.917 216.121 165.837C216.104 165.651 216.019 165.479 215.883 165.352C215.746 165.226 215.568 165.155 215.382 165.152H215.389Z" fill="#50B9E6"/>
<path d="M218.643 199.33C218.655 199.492 218.632 199.654 218.577 199.807C218.523 199.96 218.437 200.1 218.325 200.218C218.214 200.335 218.079 200.429 217.929 200.492C217.78 200.555 217.619 200.587 217.457 200.584C217.12 200.577 216.798 200.444 216.554 200.212C216.309 199.981 216.16 199.666 216.135 199.33C216.123 199.169 216.146 199.007 216.2 198.855C216.254 198.702 216.34 198.563 216.45 198.445C216.561 198.327 216.695 198.234 216.844 198.17C216.992 198.107 217.153 198.074 217.314 198.076C217.652 198.082 217.976 198.213 218.222 198.445C218.468 198.677 218.618 198.993 218.643 199.33V199.33Z" fill="white"/>
<path d="M217.457 201.201C216.968 201.194 216.499 201.003 216.144 200.667C215.788 200.33 215.572 199.872 215.539 199.384C215.519 199.137 215.552 198.889 215.635 198.655C215.718 198.421 215.849 198.208 216.02 198.028C216.185 197.851 216.386 197.711 216.609 197.617C216.832 197.522 217.073 197.475 217.315 197.479C217.804 197.485 218.272 197.674 218.628 198.009C218.983 198.345 219.2 198.802 219.234 199.289V199.289C219.256 199.536 219.226 199.785 219.144 200.019C219.062 200.253 218.931 200.466 218.759 200.645C218.592 200.822 218.39 200.963 218.166 201.059C217.942 201.155 217.701 201.203 217.457 201.201ZM217.315 198.693C217.234 198.691 217.154 198.706 217.08 198.736C217.005 198.767 216.938 198.812 216.881 198.869C216.772 198.992 216.716 199.152 216.725 199.316C216.745 199.499 216.83 199.668 216.964 199.793C217.099 199.917 217.274 199.989 217.457 199.994C217.538 199.995 217.618 199.979 217.693 199.947C217.768 199.916 217.835 199.87 217.891 199.811C217.948 199.753 217.992 199.682 218.018 199.605C218.045 199.527 218.055 199.445 218.047 199.364V199.364C218.027 199.182 217.942 199.014 217.807 198.89C217.673 198.767 217.498 198.696 217.315 198.693V198.693Z" fill="#E0E0E0"/>
<path d="M220.569 232.891C220.581 233.052 220.558 233.214 220.504 233.367C220.45 233.519 220.364 233.658 220.254 233.776C220.143 233.894 220.009 233.988 219.86 234.051C219.711 234.115 219.551 234.147 219.39 234.145C219.047 234.146 218.717 234.018 218.465 233.785C218.213 233.552 218.059 233.233 218.034 232.891C218.022 232.729 218.045 232.567 218.099 232.414C218.154 232.261 218.24 232.122 218.352 232.004C218.463 231.886 218.598 231.792 218.747 231.729C218.897 231.666 219.058 231.635 219.22 231.637C219.562 231.638 219.89 231.767 220.14 232C220.391 232.232 220.544 232.551 220.569 232.891V232.891Z" fill="white"/>
<path d="M219.389 234.735C218.9 234.73 218.431 234.54 218.076 234.205C217.72 233.869 217.504 233.413 217.47 232.925C217.447 232.678 217.478 232.429 217.56 232.195C217.642 231.961 217.773 231.748 217.945 231.569C218.112 231.392 218.314 231.251 218.538 231.155C218.762 231.059 219.003 231.011 219.247 231.013C219.736 231.02 220.205 231.211 220.56 231.548C220.915 231.884 221.131 232.342 221.165 232.83C221.181 233.072 221.147 233.315 221.065 233.543C220.982 233.772 220.854 233.98 220.687 234.157C220.52 234.333 220.319 234.473 220.095 234.568C219.872 234.663 219.632 234.71 219.389 234.708V234.735ZM219.247 232.227C219.166 232.226 219.085 232.242 219.011 232.274C218.936 232.305 218.869 232.351 218.813 232.41C218.756 232.468 218.712 232.539 218.685 232.616C218.658 232.693 218.649 232.776 218.657 232.857C218.675 233.04 218.759 233.21 218.894 233.335C219.029 233.46 219.205 233.531 219.389 233.535C219.469 233.537 219.549 233.522 219.624 233.491C219.698 233.461 219.766 233.416 219.823 233.359C219.932 233.236 219.988 233.075 219.979 232.911C219.962 232.727 219.878 232.556 219.743 232.429C219.608 232.303 219.431 232.231 219.247 232.227V232.227Z" fill="#E0E0E0"/>
<path d="M320.168 144.765C320.622 145.443 320.988 146.073 321.361 146.738C321.734 147.402 322.08 148.046 322.419 148.704C323.097 150.019 323.727 151.368 324.31 152.731C325.481 155.485 326.422 158.331 327.124 161.24L327.361 162.352L327.476 162.908V163.044L327.524 163.328C327.554 163.508 327.574 163.689 327.585 163.871C327.607 164.991 327.376 166.101 326.907 167.118C326.215 168.617 325.316 170.012 324.236 171.261C322.309 173.539 320.125 175.587 317.727 177.363L315.557 175.085C317.243 172.947 318.809 170.717 320.249 168.406C320.887 167.394 321.406 166.311 321.795 165.179C321.905 164.895 321.94 164.586 321.896 164.284C321.896 164.284 321.896 164.284 321.896 164.284L321.856 164.169L321.72 163.688L321.435 162.738C320.618 160.193 319.64 157.702 318.506 155.28C317.944 154.046 317.327 152.846 316.717 151.64C316.405 151.043 316.086 150.446 315.761 149.856C315.435 149.267 315.083 148.663 314.791 148.168L320.168 144.765Z" fill="#F0BCAA"/>
<path d="M317.137 173.871L312.038 174.081L314.072 178.454C314.072 178.454 317.699 178.251 319.062 176.054L317.137 173.871Z" fill="#F0BCAA"/>
<path d="M310.777 176.047L312.038 179.966L314.093 178.461L312.038 174.081L310.777 176.047Z" fill="#F0BCAA"/>
<path d="M307.638 316.258C308.191 316.243 308.742 316.168 309.279 316.034C309.307 316.027 309.332 316.013 309.353 315.993C309.373 315.972 309.387 315.947 309.394 315.919C309.399 315.891 309.396 315.862 309.386 315.835C309.375 315.809 309.357 315.786 309.333 315.77C309.123 315.627 307.252 314.414 306.526 314.739C306.445 314.776 306.375 314.834 306.322 314.906C306.27 314.979 306.237 315.064 306.228 315.153C306.195 315.291 306.199 315.436 306.24 315.573C306.28 315.71 306.355 315.834 306.458 315.932C306.8 316.179 307.219 316.294 307.638 316.258V316.258ZM308.865 315.824C307.78 316.041 306.974 316 306.662 315.715C306.594 315.648 306.546 315.565 306.521 315.473C306.496 315.382 306.495 315.285 306.519 315.193C306.522 315.154 306.534 315.116 306.556 315.082C306.577 315.049 306.607 315.022 306.641 315.003C307.028 314.834 308.106 315.356 308.865 315.824Z" fill="#50B9E6"/>
<path d="M309.244 316.034C309.269 316.041 309.294 316.041 309.319 316.034C309.341 316.02 309.359 316.002 309.372 315.979C309.385 315.957 309.393 315.931 309.393 315.905C309.393 315.831 309.393 314.041 308.715 313.444C308.633 313.368 308.535 313.311 308.429 313.277C308.322 313.243 308.209 313.233 308.098 313.247C307.981 313.251 307.867 313.293 307.776 313.368C307.686 313.443 307.622 313.546 307.597 313.661C307.447 314.339 308.559 315.695 309.142 316.034C309.175 316.046 309.211 316.046 309.244 316.034V316.034ZM308.227 313.519C308.345 313.522 308.459 313.567 308.546 313.647C308.946 314.007 309.068 315.003 309.095 315.607C308.512 315.132 307.82 314.129 307.915 313.702C307.915 313.634 307.97 313.546 308.159 313.525L308.227 313.519Z" fill="#50B9E6"/>
<path d="M260.666 313.492C260.692 313.493 260.717 313.488 260.741 313.478C260.764 313.467 260.785 313.451 260.801 313.431C260.819 313.406 260.829 313.376 260.829 313.346C260.829 313.315 260.819 313.286 260.801 313.261C260.611 313.017 258.944 310.922 258.042 310.861H257.981C257.899 310.862 257.819 310.885 257.749 310.927C257.679 310.968 257.621 311.027 257.581 311.098C257.508 311.206 257.463 311.33 257.451 311.459C257.44 311.588 257.461 311.719 257.513 311.837C257.872 312.665 259.628 313.193 260.645 313.485L260.666 313.492ZM258.028 311.153C258.523 311.187 259.567 312.237 260.279 313.092C258.923 312.692 257.988 312.197 257.784 311.736C257.75 311.657 257.737 311.571 257.745 311.486C257.753 311.4 257.783 311.318 257.832 311.248C257.848 311.218 257.871 311.194 257.9 311.178C257.929 311.161 257.961 311.152 257.994 311.153H258.028Z" fill="#50B9E6"/>
<path d="M260.666 313.492C260.691 313.489 260.715 313.479 260.735 313.463C260.756 313.448 260.771 313.427 260.781 313.403C260.781 313.342 261.398 311.817 260.964 310.908C260.901 310.774 260.811 310.654 260.701 310.555C260.59 310.456 260.461 310.38 260.32 310.332C259.927 310.19 259.723 310.332 259.642 310.454C259.228 311.017 260.001 312.827 260.544 313.444C260.559 313.461 260.578 313.474 260.599 313.482C260.62 313.49 260.643 313.494 260.666 313.492ZM260.076 310.549C260.214 310.565 260.346 310.617 260.459 310.699C260.572 310.781 260.662 310.89 260.72 311.017C260.913 311.687 260.879 312.402 260.625 313.051C260.123 312.325 259.662 310.97 259.906 310.631C259.92 310.597 259.944 310.569 259.974 310.55C260.004 310.53 260.04 310.521 260.076 310.522V310.549Z" fill="#50B9E6"/>
<path d="M305.346 123.625C304.668 127.313 303.068 135.374 305.658 137.774C305.658 137.774 304.675 141.53 297.827 141.666C290.295 141.808 294.207 138.005 294.207 138.005C298.309 136.94 298.187 133.903 297.455 131.055L305.346 123.625Z" fill="#F0BCAA"/>
<path d="M306.682 134.337C306.494 133.845 306.123 133.445 305.646 133.221C305.169 132.997 304.624 132.967 304.126 133.137C301.772 133.866 299.338 134.307 296.878 134.452C296.439 134.481 296.014 134.62 295.643 134.857C295.271 135.094 294.966 135.422 294.756 135.808L291.847 140.934L308.431 138.9L306.682 134.337Z" fill="#50B9E6"/>
<path d="M290.179 117.502C290.224 117.49 290.265 117.469 290.301 117.441C290.362 117.392 290.4 117.321 290.409 117.244C290.418 117.167 290.396 117.089 290.349 117.028C290.069 116.657 289.703 116.36 289.282 116.162C288.862 115.965 288.399 115.873 287.935 115.895C287.857 115.904 287.786 115.943 287.736 116.004C287.687 116.065 287.663 116.143 287.671 116.221C287.674 116.259 287.685 116.296 287.703 116.33C287.721 116.363 287.746 116.393 287.775 116.417C287.805 116.441 287.839 116.459 287.876 116.47C287.913 116.48 287.952 116.483 287.989 116.478V116.478C288.356 116.47 288.72 116.55 289.05 116.71C289.38 116.87 289.667 117.107 289.888 117.4C289.923 117.442 289.968 117.474 290.019 117.492C290.071 117.51 290.126 117.513 290.179 117.502V117.502Z" fill="#263238"/>
<path d="M288.606 121.136C288.257 122.33 287.746 123.471 287.087 124.526C287.358 124.683 287.66 124.779 287.971 124.807C288.283 124.835 288.597 124.795 288.891 124.689L288.606 121.136Z" fill="#FF5652"/>
<path d="M289.013 120.234C289.054 120.736 288.816 121.163 288.491 121.197C288.165 121.231 287.874 120.845 287.813 120.343C287.752 119.841 288.003 119.414 288.328 119.387C288.654 119.36 288.972 119.733 289.013 120.234Z" fill="#263238"/>
<path d="M288.491 119.401L287.271 119.17C287.271 119.17 287.963 120.045 288.491 119.401Z" fill="#263238"/>
<path d="M266.592 317.404L260.578 315.336L264.822 301.959L270.829 304.033L266.592 317.404Z" fill="#F0BCAA"/>
<path d="M316.187 316.082H309.977L309.414 301.708H315.624L316.187 316.082Z" fill="#F0BCAA"/>
<path d="M309.78 315.173H316.75C316.868 315.172 316.983 315.214 317.073 315.291C317.163 315.369 317.221 315.476 317.238 315.593L317.957 321.112C317.969 321.253 317.952 321.394 317.907 321.527C317.861 321.66 317.789 321.783 317.694 321.887C317.599 321.991 317.484 322.074 317.355 322.131C317.226 322.188 317.087 322.217 316.946 322.218C314.512 322.177 313.346 322.035 310.282 322.035C308.39 322.035 305.637 322.224 303.027 322.224C300.417 322.224 300.315 319.655 301.413 319.417C306.288 318.373 307.075 316.929 308.736 315.553C309.03 315.31 309.399 315.176 309.78 315.173V315.173Z" fill="#263238"/>
<path d="M261.364 312.895L267.812 315.926C267.924 315.971 268.015 316.057 268.066 316.166C268.118 316.276 268.126 316.4 268.09 316.516L266.429 321.695C266.376 321.826 266.297 321.945 266.197 322.044C266.096 322.142 265.976 322.219 265.844 322.269C265.712 322.318 265.571 322.34 265.43 322.332C265.289 322.325 265.151 322.288 265.025 322.224C262.795 321.133 261.771 320.495 258.923 319.167C257.174 318.346 253.499 316.821 251.072 315.688C248.645 314.556 249.655 312.237 250.76 312.502C255.71 313.702 258.11 313.268 260.252 312.773C260.626 312.69 261.017 312.733 261.364 312.895V312.895Z" fill="#263238"/>
<path opacity="0.2" d="M264.822 301.966L262.544 309.125L268.646 310.929L270.836 304.033L264.822 301.966Z" fill="black"/>
<path opacity="0.2" d="M315.625 301.715H309.414L309.706 309.119H315.916L315.625 301.715Z" fill="black"/>
<path d="M317.794 138.561C320.378 139.076 323.185 148.29 323.185 148.29L315.937 156.175C315.937 156.175 309.835 147.592 311.048 144.365C312.337 141.022 314.743 137.957 317.794 138.561Z" fill="#50B9E6"/>
<path opacity="0.4" d="M317.794 138.561C320.378 139.076 323.185 148.29 323.185 148.29L315.937 156.175C315.937 156.175 309.835 147.592 311.048 144.365C312.337 141.022 314.743 137.957 317.794 138.561Z" fill="white"/>
<path opacity="0.4" d="M313.74 144.541C312.431 143.375 311.55 143.748 310.953 144.704C310.377 147.47 313.923 153.165 315.354 155.321C315.991 152.704 316.71 147.192 313.74 144.541Z" fill="#50B9E6"/>
<path d="M284.64 140.703C284.179 143.415 284.077 151.68 288.315 176.746L313.537 176.251C313.055 166.006 313.008 159.687 317.794 138.561C314.255 137.901 310.673 137.5 307.075 137.361C303.257 137.164 299.431 137.241 295.624 137.591C291.956 137.991 287.928 138.791 286.132 139.171C285.758 139.246 285.415 139.433 285.149 139.706C284.882 139.98 284.705 140.327 284.64 140.703V140.703Z" fill="#50B9E6"/>
<path opacity="0.4" d="M284.64 140.703C284.179 143.415 284.077 151.68 288.315 176.746L313.537 176.251C313.055 166.006 313.008 159.687 317.794 138.561C314.255 137.901 310.673 137.5 307.075 137.361C303.257 137.164 299.431 137.241 295.624 137.591C291.956 137.991 287.928 138.791 286.132 139.171C285.758 139.246 285.415 139.433 285.149 139.706C284.882 139.98 284.705 140.327 284.64 140.703V140.703Z" fill="white"/>
<path d="M305.618 116.94C305.733 123.103 305.916 125.713 303.082 129.144C298.817 134.317 291.244 133.212 289.291 127.232C287.529 121.848 287.63 112.668 293.42 109.658C294.681 108.983 296.095 108.645 297.525 108.678C298.955 108.711 300.351 109.114 301.579 109.847C302.807 110.58 303.825 111.619 304.532 112.862C305.24 114.105 305.614 115.509 305.618 116.94V116.94Z" fill="#F0BCAA"/>
<path d="M288.491 115.333C293.393 114.356 299.827 112.695 301.109 109.115C302.39 105.536 287.881 102.742 288.491 115.333Z" fill="#263238"/>
<path d="M292.261 116.953C291.583 116.607 290.302 114.458 291.095 110.715C291.888 106.973 297.801 103.617 302.431 106.254C297.536 108.139 292.261 116.953 292.261 116.953Z" fill="#50B9E6"/>
<path d="M291.847 113.075C291.02 116.539 291.847 119.014 293.203 120.289C293.203 120.289 289.813 142.622 306.763 140.195C323.713 137.767 313.835 112.397 309.868 108.674C305.902 104.952 295.271 103.115 291.847 113.075Z" fill="#263238"/>
<path d="M291.949 118.465C291.257 119.577 290.934 120.88 291.027 122.187C291.149 123.841 292.444 123.841 293.393 122.865C294.342 121.889 295.176 119.834 294.695 118.573C294.213 117.312 292.674 117.292 291.949 118.465Z" fill="#F0BCAA"/>
<path d="M294.979 176.61C294.979 176.61 298.824 219.094 302.702 243.007C305.834 262.316 308.485 307.498 308.485 307.498H316.947C316.947 307.498 319.706 263.428 318.065 244.268C313.902 195.866 321.394 191.343 313.536 176.251L294.979 176.61Z" fill="#50B9E6"/>
<path opacity="0.4" d="M303.583 190.814C301.38 194.055 298.437 197.791 297.481 201.737C298.241 208.903 299.129 216.829 300.092 224.45C302.424 218.043 306.411 205.236 303.583 190.814Z" fill="black"/>
<path d="M288.315 176.746C288.315 176.746 278.206 222.457 274.755 241.081C271.148 260.459 262.788 304.366 262.788 304.366L271.229 308.705C271.229 308.705 286.823 255.821 288.911 246.071C294.417 225.691 312.045 176.305 312.045 176.305L288.315 176.746Z" fill="#50B9E6"/>
<path d="M261.032 306.176L271.29 310.264L273.283 306.691L262.306 302.305L261.032 306.176Z" fill="#263238"/>
<path d="M307.326 307.668H318.1L318.723 303.884L307.319 303.498L307.326 307.668Z" fill="#263238"/>
<path d="M313.909 174.766L315.062 176.997C315.15 177.166 314.94 177.349 314.648 177.356L288.206 177.878C287.976 177.878 287.786 177.77 287.772 177.627L287.535 175.383C287.535 175.227 287.711 175.092 287.962 175.085L313.503 174.583C313.581 174.575 313.659 174.587 313.731 174.619C313.802 174.652 313.864 174.702 313.909 174.766V174.766Z" fill="#263238"/>
<path d="M310.492 177.682H311.17C311.306 177.682 311.414 177.607 311.401 177.526L311.062 174.603C311.062 174.515 310.933 174.448 310.797 174.448H310.12C309.984 174.448 309.882 174.522 309.889 174.61L310.228 177.532C310.242 177.634 310.357 177.688 310.492 177.682Z" fill="#50B9E6"/>
<path d="M293.915 178.007H294.593C294.729 178.007 294.83 177.932 294.817 177.851L294.485 174.929C294.485 174.841 294.356 174.773 294.213 174.773H293.535C293.393 174.773 293.291 174.848 293.305 174.936L293.637 177.858C293.657 177.946 293.78 178.014 293.915 178.007Z" fill="#50B9E6"/>
<path d="M288.85 146.554C287.458 149.476 285.887 152.309 284.145 155.036C283.27 156.392 282.375 157.748 281.379 159.104C280.904 159.782 280.368 160.413 279.86 161.064C279.351 161.715 278.775 162.345 278.179 162.962C277.552 163.641 276.872 164.27 276.145 164.84C275.44 165.388 274.702 165.891 273.934 166.345C272.478 167.204 270.957 167.948 269.385 168.569C266.348 169.767 263.194 170.642 259.974 171.179L259.161 168.149C261.943 166.987 264.66 165.672 267.297 164.21C268.563 163.512 269.782 162.73 270.944 161.871C271.485 161.471 272.002 161.038 272.49 160.576C272.966 160.134 273.402 159.651 273.792 159.131C275.612 156.803 277.266 154.35 278.741 151.789C279.521 150.494 280.24 149.158 280.972 147.829C281.704 146.5 282.416 145.117 283.08 143.836L288.85 146.554Z" fill="#F0BCAA"/>
<path d="M286.485 139.076C280.525 140.364 278.518 149.083 278.518 149.083L286.125 155.64C286.125 155.64 293.868 147.68 293.583 142.9C293.4 139.347 289.732 138.378 286.485 139.076Z" fill="#50B9E6"/>
<path opacity="0.4" d="M286.485 139.076C280.525 140.364 278.518 149.083 278.518 149.083L286.125 155.64C286.125 155.64 293.868 147.68 293.583 142.9C293.4 139.347 289.732 138.378 286.485 139.076Z" fill="white"/>
<path d="M262.279 170.678L256.252 173.736L254.015 168.583C254.015 168.583 259.35 167.349 261.642 168.495L262.279 170.678Z" fill="#F0BCAA"/>
<path d="M253.954 174.793L251.615 171.302L254.015 168.583L256.252 173.736L253.954 174.793Z" fill="#F0BCAA"/>
</svg>
