<svg width="405" height="405" viewBox="0 0 405 405" fill="none" xmlns="http://www.w3.org/2000/svg">
<path opacity="0.4" d="M202.5 344.642C285.81 344.642 353.346 340.699 353.346 335.835C353.346 330.971 285.81 327.028 202.5 327.028C119.19 327.028 51.6533 330.971 51.6533 335.835C51.6533 340.699 119.19 344.642 202.5 344.642Z" fill="#23AEEA"/>
<path d="M308.91 240.806L307.905 259.124L308.682 259.166L309.687 240.848L308.91 240.806Z" fill="#059BDB"/>
<path d="M309.768 225.268L309.25 234.706L310.027 234.749L310.545 225.31L309.768 225.268Z" fill="#059BDB"/>
<path d="M293.37 294.041H202.173C200.793 294.057 199.425 293.789 198.154 293.252C196.884 292.715 195.737 291.921 194.788 290.921C193.838 289.92 193.105 288.734 192.636 287.436C192.166 286.139 191.97 284.759 192.059 283.382L202.562 91.9006C202.757 89.0309 204.027 86.3403 206.118 84.3649C208.209 82.3895 210.967 81.2745 213.843 81.242H305.048C306.424 81.2317 307.787 81.5049 309.053 82.0446C310.319 82.5843 311.46 83.3789 312.405 84.3788C313.35 85.3788 314.079 86.5627 314.547 87.8568C315.015 89.1509 315.211 90.5274 315.123 91.9006L304.612 283.382C304.419 286.246 303.156 288.932 301.073 290.907C298.99 292.881 296.24 294 293.37 294.041V294.041Z" fill="#059BDB"/>
<path opacity="0.8" d="M287.854 294.041H202.173C200.793 294.057 199.425 293.789 198.154 293.252C196.884 292.715 195.737 291.921 194.788 290.921C193.838 289.92 193.105 288.734 192.636 287.436C192.166 286.139 191.97 284.759 192.059 283.382L202.562 91.9006C202.757 89.031 204.027 86.3403 206.118 84.3649C208.209 82.3896 210.967 81.2745 213.843 81.242H299.532C300.908 81.2306 302.272 81.5031 303.538 82.0423C304.805 82.5816 305.946 83.3762 306.891 84.3764C307.837 85.3766 308.566 86.561 309.033 87.8556C309.5 89.1502 309.696 90.5272 309.607 91.9006L299.104 283.382C298.907 286.246 297.641 288.931 295.558 290.905C293.474 292.88 290.724 293.999 287.854 294.041V294.041Z" fill="white"/>
<path d="M245.391 115.956H220.783C220.201 115.961 219.626 115.845 219.091 115.617C218.557 115.389 218.075 115.053 217.676 114.63C217.278 114.207 216.971 113.707 216.774 113.16C216.578 112.613 216.496 112.031 216.535 111.452V111.452C216.617 110.243 217.15 109.11 218.03 108.277C218.909 107.443 220.069 106.972 221.28 106.955H245.889C246.469 106.949 247.045 107.064 247.579 107.291C248.114 107.518 248.596 107.854 248.994 108.276C249.393 108.698 249.701 109.198 249.897 109.744C250.094 110.291 250.175 110.872 250.137 111.452V111.452C250.055 112.661 249.521 113.795 248.642 114.63C247.763 115.464 246.603 115.938 245.391 115.956Z" fill="white"/>
<path d="M250.137 111.452C249.997 113.633 249.037 115.681 247.45 117.184C245.862 118.686 243.764 119.532 241.579 119.551C240.532 119.563 239.494 119.358 238.53 118.95C237.567 118.541 236.698 117.937 235.979 117.177C235.26 116.416 234.706 115.515 234.352 114.529C233.998 113.544 233.852 112.496 233.923 111.452C234.063 109.271 235.023 107.223 236.61 105.72C238.198 104.218 240.295 103.372 242.481 103.353C243.528 103.341 244.566 103.546 245.53 103.954C246.493 104.363 247.362 104.967 248.081 105.727C248.8 106.488 249.354 107.389 249.708 108.375C250.062 109.36 250.208 110.408 250.137 111.452V111.452Z" fill="#059BDB"/>
<path d="M243.812 144.75H219.203C218.622 144.755 218.047 144.639 217.512 144.411C216.978 144.183 216.496 143.847 216.097 143.424C215.699 143.001 215.391 142.501 215.195 141.954C214.999 141.407 214.917 140.825 214.956 140.246C215.038 139.037 215.571 137.904 216.45 137.07C217.33 136.237 218.49 135.765 219.701 135.749H244.31C244.89 135.743 245.466 135.858 246 136.085C246.535 136.312 247.017 136.647 247.415 137.07C247.814 137.492 248.121 137.992 248.318 138.538C248.515 139.085 248.596 139.666 248.557 140.246V140.246C248.476 141.455 247.942 142.589 247.063 143.424C246.184 144.258 245.023 144.731 243.812 144.75V144.75Z" fill="white"/>
<path d="M235.091 145.913C238.386 142.707 238.597 137.579 235.562 134.459C232.527 131.339 227.395 131.409 224.1 134.615C220.804 137.821 220.593 142.949 223.628 146.069C226.663 149.188 231.795 149.119 235.091 145.913Z" fill="#059BDB"/>
<path opacity="0.3" d="M235.091 145.913C238.386 142.707 238.597 137.579 235.562 134.459C232.527 131.339 227.395 131.409 224.1 134.615C220.804 137.821 220.593 142.949 223.628 146.069C226.663 149.188 231.795 149.119 235.091 145.913Z" fill="#FAFAFA"/>
<path d="M216.045 202.338H240.622C241.834 202.319 242.994 201.845 243.873 201.011C244.752 200.177 245.286 199.042 245.368 197.833C245.406 197.253 245.324 196.671 245.127 196.124C244.93 195.577 244.622 195.077 244.223 194.654C243.823 194.232 243.34 193.897 242.805 193.67C242.27 193.443 241.693 193.33 241.112 193.336H216.543C215.331 193.353 214.169 193.824 213.289 194.657C212.408 195.49 211.873 196.624 211.789 197.833V197.833C211.752 198.413 211.834 198.995 212.032 199.542C212.229 200.089 212.537 200.589 212.936 201.012C213.335 201.435 213.817 201.77 214.352 201.999C214.887 202.227 215.463 202.342 216.045 202.338V202.338Z" fill="white"/>
<path d="M225.391 203.489C228.686 200.283 228.898 195.155 225.863 192.035C222.827 188.915 217.696 188.985 214.4 192.19C211.105 195.396 210.894 200.524 213.929 203.644C216.964 206.764 222.095 206.695 225.391 203.489Z" fill="#059BDB"/>
<path opacity="0.7" d="M225.391 203.489C228.686 200.283 228.898 195.155 225.863 192.035C222.827 188.915 217.696 188.985 214.4 192.19C211.105 195.396 210.894 200.524 213.929 203.644C216.964 206.764 222.095 206.695 225.391 203.489Z" fill="#FAFAFA"/>
<path d="M239.065 231.132H214.465C213.884 231.136 213.308 231.021 212.773 230.793C212.238 230.564 211.756 230.229 211.356 229.806C210.957 229.383 210.649 228.883 210.452 228.336C210.255 227.789 210.172 227.207 210.209 226.627C210.293 225.418 210.829 224.284 211.709 223.451C212.59 222.618 213.751 222.147 214.963 222.13H239.563C240.145 222.124 240.721 222.237 241.257 222.464C241.792 222.691 242.275 223.026 242.674 223.448C243.074 223.871 243.382 224.371 243.579 224.918C243.776 225.465 243.858 226.047 243.819 226.627V226.627C243.737 227.838 243.203 228.973 242.322 229.808C241.441 230.642 240.279 231.115 239.065 231.132V231.132Z" fill="white"/>
<path d="M243.819 226.627C243.68 228.808 242.72 230.856 241.132 232.358C239.545 233.861 237.447 234.707 235.261 234.726C234.214 234.738 233.176 234.533 232.212 234.125C231.248 233.716 230.378 233.113 229.659 232.352C228.939 231.591 228.384 230.69 228.03 229.705C227.675 228.72 227.528 227.672 227.598 226.627C227.741 224.447 228.702 222.401 230.289 220.899C231.876 219.398 233.971 218.551 236.156 218.528C237.203 218.515 238.242 218.719 239.207 219.127C240.171 219.535 241.041 220.138 241.761 220.899C242.481 221.66 243.036 222.562 243.39 223.548C243.744 224.533 243.89 225.582 243.819 226.627V226.627Z" fill="#059BDB"/>
<path d="M217.624 173.544H242.232C243.444 173.526 244.604 173.052 245.484 172.218C246.363 171.383 246.896 170.249 246.978 169.04V169.04C247.016 168.459 246.935 167.878 246.738 167.331C246.541 166.783 246.233 166.283 245.833 165.861C245.433 165.438 244.951 165.103 244.415 164.877C243.88 164.65 243.304 164.536 242.722 164.543H218.122C216.911 164.56 215.75 165.031 214.871 165.864C213.992 166.698 213.458 167.831 213.376 169.04V169.04C213.337 169.619 213.419 170.201 213.615 170.748C213.812 171.295 214.119 171.795 214.518 172.218C214.916 172.641 215.398 172.977 215.933 173.205C216.467 173.433 217.043 173.549 217.624 173.544V173.544Z" fill="white"/>
<path d="M213.392 169.039C213.321 170.084 213.467 171.132 213.821 172.117C214.175 173.102 214.728 174.003 215.447 174.764C216.167 175.525 217.035 176.129 217.999 176.537C218.963 176.946 220.001 177.15 221.047 177.138C223.233 177.119 225.331 176.273 226.918 174.771C228.506 173.269 229.466 171.221 229.605 169.039C229.676 167.995 229.53 166.947 229.177 165.962C228.823 164.977 228.269 164.075 227.55 163.315C226.831 162.554 225.962 161.95 224.998 161.542C224.035 161.133 222.997 160.928 221.95 160.94C219.764 160.96 217.667 161.805 216.079 163.308C214.491 164.81 213.531 166.858 213.392 169.039V169.039Z" fill="#059BDB"/>
<path opacity="0.7" d="M213.392 169.039C213.321 170.084 213.467 171.132 213.821 172.117C214.175 173.102 214.728 174.003 215.447 174.764C216.167 175.525 217.035 176.129 217.999 176.537C218.963 176.946 220.001 177.15 221.047 177.138C223.233 177.119 225.331 176.273 226.918 174.771C228.506 173.269 229.466 171.221 229.605 169.039C229.676 167.995 229.53 166.947 229.177 165.962C228.823 164.977 228.269 164.075 227.55 163.315C226.831 162.554 225.962 161.95 224.998 161.542C224.035 161.133 222.997 160.928 221.95 160.94C219.764 160.96 217.667 161.805 216.079 163.308C214.491 164.81 213.531 166.858 213.392 169.039V169.039Z" fill="#FAFAFA"/>
<path d="M299.291 110.106H262.818C262.586 110.107 262.356 110.059 262.143 109.967C261.93 109.875 261.738 109.741 261.579 109.571C261.42 109.402 261.297 109.202 261.219 108.984C261.14 108.765 261.107 108.533 261.122 108.301C261.155 107.818 261.369 107.365 261.721 107.032C262.072 106.699 262.536 106.511 263.02 106.504H299.493C299.725 106.502 299.955 106.549 300.168 106.64C300.381 106.731 300.573 106.865 300.732 107.033C300.891 107.202 301.014 107.402 301.093 107.62C301.171 107.838 301.204 108.07 301.189 108.301V108.301C301.158 108.786 300.945 109.241 300.593 109.575C300.241 109.91 299.776 110.099 299.291 110.106V110.106Z" fill="white"/>
<path d="M287.139 116.408H262.476C262.243 116.409 262.012 116.363 261.798 116.271C261.584 116.18 261.391 116.045 261.231 115.876C261.071 115.707 260.948 115.506 260.869 115.287C260.79 115.068 260.757 114.835 260.772 114.603C260.805 114.12 261.019 113.667 261.37 113.334C261.722 113.001 262.186 112.812 262.67 112.806H287.341C287.573 112.804 287.803 112.85 288.016 112.941C288.23 113.032 288.423 113.166 288.582 113.335C288.742 113.503 288.866 113.703 288.945 113.921C289.025 114.139 289.058 114.371 289.045 114.603C289.011 115.088 288.797 115.543 288.444 115.877C288.091 116.212 287.625 116.401 287.139 116.408V116.408Z" fill="white"/>
<path d="M288.368 225.281H256.47C256.237 225.281 256.008 225.234 255.794 225.142C255.581 225.05 255.389 224.915 255.23 224.746C255.071 224.577 254.948 224.377 254.87 224.158C254.791 223.94 254.759 223.708 254.774 223.476C254.805 222.992 255.018 222.538 255.37 222.205C255.722 221.872 256.187 221.684 256.672 221.679H288.531C288.763 221.677 288.993 221.723 289.207 221.814C289.42 221.905 289.613 222.039 289.773 222.208C289.932 222.376 290.056 222.576 290.135 222.794C290.215 223.012 290.249 223.244 290.235 223.476C290.202 223.955 289.993 224.404 289.648 224.738C289.303 225.071 288.847 225.265 288.368 225.281V225.281Z" fill="white"/>
<path d="M271.905 231.575H256.182C255.95 231.576 255.72 231.53 255.506 231.439C255.293 231.348 255.1 231.214 254.94 231.046C254.781 230.877 254.657 230.678 254.578 230.46C254.498 230.242 254.464 230.009 254.478 229.778V229.778C254.511 229.295 254.725 228.842 255.077 228.509C255.428 228.176 255.892 227.987 256.376 227.981H272.123C272.355 227.979 272.585 228.025 272.799 228.116C273.012 228.207 273.205 228.341 273.365 228.51C273.525 228.678 273.648 228.878 273.727 229.096C273.807 229.314 273.841 229.546 273.827 229.778V229.778C273.794 230.265 273.577 230.721 273.22 231.055C272.863 231.388 272.394 231.574 271.905 231.575V231.575Z" fill="white"/>
<path d="M297.563 141.599H261.091C260.607 141.606 260.143 141.794 259.791 142.127C259.439 142.46 259.226 142.913 259.192 143.396V143.396C259.179 143.628 259.213 143.86 259.292 144.078C259.372 144.296 259.495 144.496 259.655 144.664C259.814 144.833 260.007 144.967 260.221 145.058C260.434 145.149 260.664 145.195 260.896 145.194H297.369C297.853 145.187 298.317 144.998 298.669 144.665C299.021 144.332 299.234 143.879 299.267 143.396V143.396C299.281 143.165 299.247 142.932 299.168 142.714C299.088 142.496 298.965 142.297 298.805 142.128C298.645 141.96 298.453 141.826 298.239 141.735C298.026 141.644 297.796 141.598 297.563 141.599V141.599Z" fill="white"/>
<path d="M286.103 135.297H261.441C260.957 135.304 260.493 135.493 260.141 135.826C259.789 136.159 259.576 136.612 259.543 137.095V137.095C259.528 137.326 259.56 137.559 259.639 137.777C259.718 137.996 259.84 138.196 259.999 138.365C260.158 138.534 260.35 138.669 260.563 138.761C260.777 138.853 261.006 138.9 261.239 138.9H285.909C286.394 138.891 286.858 138.701 287.209 138.367C287.561 138.032 287.774 137.579 287.807 137.095C287.822 136.863 287.789 136.63 287.71 136.411C287.631 136.193 287.508 135.993 287.348 135.824C287.188 135.655 286.995 135.522 286.781 135.431C286.566 135.34 286.336 135.295 286.103 135.297Z" fill="white"/>
<path d="M278.371 167.693H259.699C259.466 167.694 259.237 167.647 259.023 167.555C258.81 167.463 258.618 167.328 258.459 167.159C258.3 166.989 258.177 166.789 258.099 166.571C258.02 166.352 257.988 166.12 258.003 165.888V165.888C258.034 165.405 258.247 164.951 258.599 164.617C258.951 164.284 259.416 164.096 259.901 164.091H278.573C278.807 164.086 279.039 164.13 279.256 164.22C279.472 164.309 279.668 164.443 279.83 164.612C279.992 164.78 280.118 164.981 280.199 165.201C280.279 165.42 280.314 165.655 280.3 165.888V165.888C280.266 166.378 280.049 166.836 279.691 167.171C279.333 167.506 278.861 167.692 278.371 167.693V167.693Z" fill="white"/>
<path d="M296.132 167.693H285.116C284.883 167.695 284.652 167.649 284.438 167.557C284.224 167.466 284.031 167.331 283.871 167.162C283.711 166.992 283.588 166.792 283.509 166.573C283.43 166.354 283.397 166.121 283.412 165.889V165.889C283.445 165.405 283.658 164.952 284.01 164.619C284.362 164.287 284.826 164.098 285.31 164.091H296.334C296.566 164.09 296.796 164.136 297.009 164.227C297.222 164.318 297.414 164.452 297.573 164.621C297.733 164.789 297.855 164.989 297.934 165.207C298.013 165.425 298.045 165.657 298.03 165.889V165.889C297.997 166.372 297.784 166.826 297.433 167.16C297.081 167.495 296.617 167.685 296.132 167.693V167.693Z" fill="white"/>
<path d="M283.98 173.987H259.294C259.062 173.989 258.832 173.943 258.618 173.852C258.404 173.761 258.212 173.627 258.052 173.458C257.892 173.29 257.769 173.09 257.689 172.872C257.61 172.654 257.576 172.422 257.59 172.19C257.623 171.707 257.837 171.254 258.188 170.921C258.54 170.588 259.004 170.4 259.488 170.393H284.19C284.422 170.392 284.652 170.438 284.865 170.529C285.079 170.62 285.272 170.754 285.431 170.922C285.591 171.091 285.715 171.29 285.794 171.508C285.874 171.726 285.907 171.959 285.894 172.19C285.86 172.676 285.644 173.131 285.289 173.465C284.934 173.798 284.467 173.985 283.98 173.987V173.987Z" fill="white"/>
<path d="M253.07 256.836H211.058C210.731 256.844 210.406 256.783 210.104 256.657C209.803 256.531 209.531 256.343 209.307 256.106C209.082 255.868 208.91 255.586 208.802 255.278C208.693 254.969 208.651 254.642 208.677 254.316V254.316C208.724 253.639 209.023 253.004 209.516 252.537C210.009 252.07 210.659 251.805 211.338 251.795H253.35C253.676 251.787 254.001 251.849 254.303 251.974C254.604 252.1 254.876 252.288 255.101 252.526C255.325 252.763 255.497 253.046 255.606 253.354C255.714 253.662 255.757 253.99 255.73 254.316C255.685 254.994 255.387 255.63 254.893 256.097C254.4 256.564 253.749 256.828 253.07 256.836V256.836Z" fill="white"/>
<path d="M290.523 256.836H264.74C264.413 256.844 264.088 256.783 263.787 256.657C263.485 256.531 263.213 256.343 262.989 256.106C262.764 255.868 262.592 255.586 262.484 255.278C262.375 254.969 262.333 254.642 262.359 254.316V254.316C262.406 253.639 262.705 253.004 263.198 252.537C263.691 252.07 264.341 251.805 265.02 251.795H290.803C291.13 251.787 291.454 251.849 291.756 251.974C292.058 252.1 292.329 252.288 292.554 252.526C292.778 252.763 292.95 253.046 293.059 253.354C293.167 253.662 293.21 253.99 293.183 254.316V254.316C293.137 254.993 292.837 255.628 292.344 256.095C291.852 256.562 291.202 256.826 290.523 256.836V256.836Z" fill="white"/>
<path d="M242.567 265.628H210.591C210.264 265.636 209.939 265.574 209.638 265.449C209.336 265.323 209.064 265.135 208.84 264.897C208.615 264.66 208.443 264.377 208.335 264.069C208.226 263.761 208.184 263.433 208.21 263.107V263.107C208.255 262.429 208.554 261.793 209.047 261.326C209.54 260.859 210.192 260.595 210.871 260.587H242.839C243.166 260.579 243.49 260.64 243.792 260.766C244.094 260.892 244.366 261.08 244.59 261.317C244.814 261.555 244.986 261.837 245.095 262.145C245.203 262.454 245.246 262.781 245.22 263.107V263.107C245.175 263.784 244.877 264.419 244.385 264.886C243.894 265.353 243.245 265.618 242.567 265.628Z" fill="white"/>
<path d="M277.289 274.466H210.108C209.782 274.473 209.457 274.412 209.155 274.286C208.854 274.161 208.582 273.973 208.357 273.735C208.133 273.497 207.961 273.215 207.852 272.907C207.744 272.599 207.702 272.271 207.728 271.945V271.945C207.773 271.269 208.07 270.634 208.562 270.167C209.053 269.7 209.703 269.435 210.381 269.424H277.561C277.888 269.417 278.212 269.478 278.514 269.604C278.816 269.73 279.088 269.918 279.312 270.155C279.536 270.393 279.708 270.675 279.817 270.983C279.925 271.292 279.968 271.619 279.942 271.945C279.897 272.622 279.599 273.257 279.107 273.724C278.616 274.191 277.967 274.456 277.289 274.466Z" fill="white"/>
<path d="M268.731 199.187H257.932C257.448 199.194 256.984 199.382 256.632 199.715C256.281 200.048 256.067 200.501 256.034 200.984V200.984C256.02 201.216 256.054 201.448 256.133 201.666C256.213 201.884 256.336 202.084 256.496 202.252C256.656 202.421 256.848 202.555 257.062 202.646C257.275 202.737 257.505 202.783 257.738 202.781H268.536C269.02 202.775 269.484 202.586 269.836 202.253C270.188 201.92 270.401 201.467 270.435 200.984C270.448 200.752 270.415 200.52 270.335 200.302C270.256 200.084 270.132 199.885 269.972 199.716C269.813 199.548 269.62 199.414 269.406 199.323C269.193 199.232 268.963 199.186 268.731 199.187V199.187Z" fill="white"/>
<path d="M287.995 199.187H275.477C274.992 199.193 274.528 199.382 274.177 199.715C273.825 200.048 273.611 200.501 273.578 200.984V200.984C273.564 201.216 273.598 201.448 273.678 201.666C273.757 201.884 273.881 202.083 274.04 202.252C274.2 202.42 274.393 202.554 274.606 202.645C274.82 202.736 275.05 202.783 275.282 202.781H287.8C288.284 202.774 288.748 202.586 289.1 202.253C289.452 201.92 289.665 201.467 289.698 200.984C289.713 200.752 289.68 200.519 289.601 200.301C289.522 200.082 289.399 199.882 289.239 199.713C289.079 199.545 288.886 199.411 288.672 199.32C288.458 199.229 288.227 199.184 287.995 199.187V199.187Z" fill="white"/>
<path d="M282.945 192.885H258.283C257.798 192.89 257.333 193.078 256.981 193.411C256.629 193.744 256.416 194.198 256.384 194.682C256.369 194.914 256.402 195.146 256.481 195.365C256.559 195.583 256.682 195.783 256.841 195.952C257 196.122 257.192 196.256 257.405 196.348C257.618 196.44 257.848 196.487 258.08 196.487H282.751C283.236 196.478 283.7 196.288 284.051 195.954C284.403 195.62 284.616 195.166 284.649 194.682V194.682C284.663 194.45 284.629 194.218 284.55 194C284.47 193.782 284.347 193.582 284.187 193.414C284.027 193.245 283.835 193.112 283.621 193.021C283.407 192.93 283.177 192.883 282.945 192.885V192.885Z" fill="white"/>
<path d="M146.484 146.695C143.94 148.804 141.311 151.099 138.891 153.402C137.677 154.561 136.495 155.736 135.398 156.949C134.334 158.09 133.359 159.31 132.48 160.598L132.332 160.816L132.262 160.941C132.198 161.039 132.144 161.143 132.099 161.252C131.99 161.493 131.889 161.796 131.78 162.115C131.573 162.822 131.412 163.542 131.298 164.27C131.055 165.895 130.899 167.531 130.831 169.172C130.668 172.533 130.668 176.042 130.73 179.472L127.089 180.017C126.177 176.497 125.552 172.909 125.222 169.288C125.048 167.408 125.004 165.519 125.089 163.632C125.151 162.613 125.281 161.6 125.478 160.598C125.587 160.034 125.735 159.477 125.922 158.933C126.038 158.63 126.124 158.35 126.28 158.031L126.497 157.564C126.575 157.424 126.63 157.338 126.692 157.214C127.644 155.493 128.757 153.865 130.014 152.351C131.179 150.899 132.418 149.507 133.725 148.181C136.286 145.56 139.02 143.114 141.91 140.86L146.484 146.695Z" fill="#E7C2B5"/>
<path d="M145.123 137.367C141.139 139.701 135.118 145.77 135.118 145.77L142.501 154.631C142.501 154.631 152.981 148.345 154.256 144.883C156.388 139.055 148.888 135.134 145.123 137.367Z" fill="#059BDB"/>
<path d="M130.566 178.158L131.468 183.425L126.575 182.717C126.575 182.717 125.571 179.138 128.131 177.909L130.566 178.158Z" fill="#E7C2B5"/>
<path d="M129.664 186.63L125.26 185.261L126.575 182.717L131.469 183.425L129.664 186.63Z" fill="#E7C2B5"/>
<path d="M174.741 118.757C174.741 119.294 175.037 119.73 175.394 119.738C175.752 119.745 176.025 119.31 176.017 118.781C176.009 118.252 175.721 117.808 175.363 117.8C175.005 117.793 174.733 118.228 174.741 118.757Z" fill="#263238"/>
<path d="M175.208 117.808L176.507 117.458C176.507 117.458 175.853 118.469 175.208 117.808Z" fill="#263238"/>
<path d="M175.2 119.287C175.701 120.519 176.366 121.678 177.176 122.733C176.898 122.923 176.583 123.05 176.251 123.107C175.92 123.163 175.58 123.147 175.255 123.06L175.2 119.287Z" fill="#E7C2B5"/>
<path d="M175.418 115.202C175.367 115.217 175.313 115.217 175.262 115.202C174.879 115.062 174.468 115.014 174.063 115.061C173.658 115.108 173.269 115.25 172.928 115.474C172.895 115.5 172.858 115.519 172.817 115.53C172.777 115.54 172.735 115.543 172.693 115.537C172.652 115.531 172.612 115.517 172.576 115.496C172.54 115.474 172.509 115.446 172.485 115.412C172.435 115.345 172.413 115.261 172.425 115.178C172.437 115.095 172.48 115.019 172.547 114.969C172.968 114.688 173.449 114.509 173.951 114.446C174.453 114.382 174.963 114.436 175.441 114.603C175.52 114.63 175.585 114.686 175.623 114.76C175.661 114.834 175.668 114.92 175.643 115C175.624 115.049 175.594 115.093 175.555 115.128C175.516 115.163 175.469 115.188 175.418 115.202V115.202Z" fill="#263238"/>
<path d="M158.885 124.468C159.243 128.49 157.897 135.08 154.863 137.32C154.863 137.32 157.15 141.553 164.479 142.541C172.547 143.622 168.758 139.086 168.758 139.086C164.471 137.453 164.922 134.224 166.012 131.306L158.885 124.468Z" fill="#E7C2B5"/>
<path d="M173.208 142.214C177.044 143.257 181.074 144.26 185.026 145.155C187.018 145.583 189.009 145.933 191.001 146.361C192.993 146.789 194.992 147.061 196.976 147.318L197.754 147.419L198.268 147.473C198.625 147.473 199.046 147.473 199.435 147.473C200.339 147.41 201.238 147.288 202.126 147.108C204.053 146.71 205.957 146.209 207.829 145.606C211.665 144.408 215.555 142.961 219.359 141.467L221.086 144.712C217.5 147.058 213.736 149.121 209.829 150.881C207.807 151.795 205.728 152.574 203.605 153.215C202.469 153.552 201.313 153.812 200.143 153.993C199.497 154.081 198.848 154.136 198.198 154.156H197.139L196.361 154.094C192.077 153.797 187.816 153.231 183.602 152.398C179.402 151.616 175.247 150.608 171.154 149.38L173.208 142.214Z" fill="#E7C2B5"/>
<path d="M218.348 142.782L219.476 138.962L223.622 140.518C223.622 140.518 222.673 146.26 219.118 144.672L218.348 142.782Z" fill="#E7C2B5"/>
<path d="M221.88 136.426L226.112 136.9L223.623 140.518L219.476 138.962L221.88 136.426Z" fill="#E7C2B5"/>
<path d="M146.982 328.545L153.649 329.035L155.633 313.724L148.966 313.234L146.982 328.545Z" fill="#E7C2B5"/>
<path d="M97.8125 298.864L102.34 303.89L114.991 295.146L110.463 290.127L97.8125 298.864Z" fill="#E7C2B5"/>
<path d="M105.693 306.738C105.613 306.748 105.532 306.748 105.452 306.738C104.674 306.473 104.091 304.972 103.834 304.1C103.825 304.071 103.826 304.039 103.835 304.01C103.844 303.98 103.862 303.954 103.887 303.935C103.911 303.916 103.94 303.904 103.971 303.902C104.002 303.899 104.032 303.906 104.059 303.921C104.301 304.046 106.448 305.213 106.518 306.069C106.525 306.162 106.509 306.255 106.469 306.34C106.43 306.424 106.369 306.497 106.292 306.551C106.12 306.679 105.908 306.745 105.693 306.738V306.738ZM104.254 304.349C104.643 305.501 105.117 306.255 105.553 306.395C105.648 306.422 105.747 306.424 105.843 306.401C105.938 306.378 106.026 306.33 106.098 306.263C106.132 306.24 106.161 306.209 106.18 306.172C106.199 306.136 106.208 306.094 106.207 306.053C106.168 305.602 105.102 304.839 104.254 304.349Z" fill="#059BDB"/>
<path d="M105.95 304.66C105.239 304.646 104.54 304.473 103.904 304.155C103.881 304.139 103.861 304.119 103.848 304.094C103.834 304.07 103.827 304.043 103.826 304.015C103.826 303.987 103.833 303.959 103.849 303.935C103.864 303.912 103.886 303.893 103.912 303.882C103.974 303.843 105.623 302.933 106.534 303.244C106.652 303.282 106.761 303.346 106.853 303.43C106.944 303.515 107.016 303.619 107.063 303.735C107.125 303.845 107.147 303.974 107.124 304.099C107.101 304.224 107.036 304.337 106.938 304.419C106.645 304.608 106.297 304.693 105.95 304.66V304.66ZM104.332 304.015C105.11 304.334 106.386 304.481 106.736 304.186C106.79 304.131 106.853 304.054 106.736 303.859C106.707 303.785 106.662 303.717 106.604 303.662C106.546 303.607 106.477 303.565 106.401 303.54C105.679 303.483 104.957 303.649 104.332 304.015V304.015Z" fill="#059BDB"/>
<path d="M104.371 303.151L100.636 296.523C100.575 296.408 100.474 296.32 100.352 296.274C100.231 296.228 100.097 296.228 99.9751 296.274L94.4591 298.39C94.318 298.453 94.1919 298.545 94.0894 298.66C93.9868 298.775 93.9101 298.911 93.8644 299.058C93.8187 299.206 93.8051 299.361 93.8245 299.514C93.8438 299.667 93.8957 299.815 93.9767 299.946C95.3226 302.233 96.0773 303.268 97.7189 306.17C98.7303 307.959 100.286 311.873 101.484 314.448C102.683 317.023 105.219 316.004 104.947 314.837C104.032 311.414 103.904 307.829 104.573 304.349C104.648 303.939 104.577 303.515 104.371 303.151V303.151Z" fill="#263238"/>
<path d="M156.551 329.253C155.845 329.239 155.142 329.161 154.45 329.02C154.419 329.012 154.39 328.996 154.368 328.972C154.346 328.949 154.331 328.919 154.326 328.887C154.321 328.855 154.327 328.821 154.342 328.792C154.357 328.762 154.382 328.739 154.412 328.724C154.715 328.568 157.422 327.168 158.224 327.658C158.299 327.7 158.363 327.761 158.408 327.834C158.453 327.908 158.478 327.992 158.481 328.078C158.495 328.224 158.475 328.37 158.421 328.506C158.366 328.641 158.28 328.761 158.169 328.856C157.69 329.166 157.12 329.306 156.551 329.253V329.253ZM154.995 328.794C156.466 329.035 157.562 328.973 157.983 328.607C158.053 328.545 158.107 328.466 158.141 328.378C158.175 328.29 158.187 328.195 158.177 328.102C158.178 328.067 158.17 328.034 158.153 328.004C158.137 327.974 158.113 327.948 158.084 327.931C157.625 327.689 156.092 328.265 154.98 328.794H154.995Z" fill="#059BDB"/>
<path d="M154.482 329.02C154.451 329.03 154.419 329.03 154.388 329.02C154.365 329.005 154.347 328.984 154.336 328.959C154.325 328.934 154.322 328.907 154.326 328.88C154.326 328.755 154.645 326.032 156.139 326.032H156.271C156.699 326.071 156.823 326.289 156.855 326.468C156.979 327.246 155.361 328.67 154.521 329.027C154.507 329.027 154.494 329.025 154.482 329.02V329.02ZM156.147 326.312C155.182 326.312 154.801 327.868 154.684 328.576C155.516 328.078 156.613 326.95 156.543 326.491C156.543 326.491 156.543 326.351 156.24 326.32L156.147 326.312Z" fill="#059BDB"/>
<path d="M154.069 328.086H146.569C146.439 328.086 146.313 328.132 146.213 328.216C146.113 328.3 146.047 328.416 146.025 328.545L145.021 334.473C145.001 334.622 145.013 334.773 145.056 334.916C145.1 335.06 145.173 335.193 145.272 335.305C145.371 335.418 145.492 335.508 145.629 335.57C145.766 335.632 145.914 335.664 146.064 335.664C148.678 335.617 149.954 335.461 153.237 335.461C155.26 335.461 159.461 335.671 162.254 335.671C165.047 335.671 165.272 332.909 164.113 332.653C158.916 331.532 156.893 329.976 155.174 328.498C154.866 328.235 154.475 328.089 154.069 328.086V328.086Z" fill="#263238"/>
<path opacity="0.2" d="M155.633 313.732L154.528 322.243L147.938 321.138L148.958 313.234L155.633 313.732Z" fill="black"/>
<path opacity="0.2" d="M110.455 290.127L114.983 295.153L109.755 298.763L105.063 293.854L110.455 290.127Z" fill="black"/>
<path d="M143.621 177.504L170.602 181.13C181.066 143.249 177.978 142.23 177.978 142.23C175.955 141.283 173.877 140.462 171.754 139.771L171.388 139.655C169.645 139.126 169.279 139.056 166.953 138.527C162.962 137.819 159.259 137.274 154.684 136.885C154.396 136.885 154.101 136.83 153.813 136.815C152.988 136.76 152.171 136.722 151.378 136.69C150.849 136.69 150.312 136.69 149.822 136.69H147.192C146.672 136.702 146.159 136.822 145.688 137.043C145.217 137.264 144.797 137.581 144.455 137.973C144.113 138.366 143.857 138.825 143.702 139.322C143.548 139.82 143.499 140.343 143.559 140.861C145.869 160.754 145.138 167.312 143.621 177.504Z" fill="#059BDB"/>
<path opacity="0.2" d="M171.38 150.795C171.567 152.554 175.628 155.767 177.036 154.903C177.44 152.795 177.736 151.013 177.946 149.582C175.908 149.426 171.917 147.178 171.38 150.795Z" fill="black"/>
<path d="M166.999 141.926C166.805 135.702 181.89 142.557 185.352 144.105L181.494 154.538C181.494 154.538 176.444 154.367 173.231 152.507C171.403 151.391 169.879 149.842 168.792 147.996C167.705 146.151 167.089 144.066 166.999 141.926V141.926Z" fill="#059BDB"/>
<path d="M156.598 117.03C157.096 123.612 157.166 126.405 160.573 129.829C165.685 134.971 173.737 133.151 175.231 126.608C176.577 120.718 175.534 110.947 169.007 108.239C167.606 107.611 166.065 107.36 164.537 107.51C163.009 107.66 161.546 108.205 160.293 109.093C159.04 109.98 158.04 111.179 157.392 112.571C156.744 113.963 156.47 115.5 156.598 117.03V117.03Z" fill="#E7C2B5"/>
<path d="M157.174 110.083C150.561 108.426 150.351 113.973 150.491 116.898C150.631 119.823 145.768 121.224 145.768 124.888C145.768 129.665 149.37 132.512 140.61 133.96C133.196 135.181 130.908 144.447 141.878 149.87C154.023 155.86 172.345 147.427 170.12 139.406C166.712 127.028 172.835 127.066 172.158 120.142C171.652 115.116 176.414 114.867 174.702 110.674C172.446 105.189 156.598 100.373 157.174 110.083Z" fill="#263238"/>
<path d="M149.518 119.364C148.608 114.572 149.106 111.397 150.996 109.911C153.431 107.99 157.174 109.655 157.329 109.725L157.01 110.433C157.01 110.433 153.532 108.877 151.471 110.518C149.829 111.818 149.432 114.743 150.28 119.216L149.518 119.364Z" fill="#263238"/>
<path d="M142.042 132.59C140.334 132.536 138.648 132.195 137.055 131.579L137.343 130.855C137.397 130.855 142.641 132.94 145.068 130.925C146.251 129.945 146.585 128.109 146.072 125.479L146.85 125.332C147.425 128.28 146.998 130.373 145.582 131.556C144.558 132.302 143.306 132.668 142.042 132.59V132.59Z" fill="#263238"/>
<path d="M170.361 119.683C170.298 120.911 170.616 122.128 171.271 123.168C172.174 124.639 173.395 124.367 173.792 123.122C174.189 121.877 174.119 119.877 172.897 118.812C171.676 117.746 170.485 118.321 170.361 119.683Z" fill="#E7C2B5"/>
<path d="M163.499 180.173C163.499 180.173 153.011 224.519 148.11 249.952C142.944 276.816 112.322 298.732 112.322 298.732L105.6 291.816C105.6 291.816 125.315 274.56 130.379 249.477C140.657 198.565 133.701 188.311 143.605 177.504L163.499 180.173Z" fill="#263238"/>
<path d="M112.898 299.728L104.503 291.092L106.86 288.556L116.609 297.137L112.898 299.728Z" fill="#059BDB"/>
<path opacity="0.2" d="M157.928 189.804C149.775 196.884 150.654 222.006 151.51 233.326C154.925 217.229 159.041 199.304 161.453 188.933C160.589 188.295 159.422 188.505 157.928 189.804Z" fill="black"/>
<path d="M170.228 181.153C170.228 181.153 174.943 233.769 172.368 253.842C169.692 274.715 156.03 320.135 156.03 320.135L146.484 318.898C146.484 318.898 154.264 273.883 155.688 253.219C157.197 230.657 150.483 178.531 150.483 178.531L170.228 181.153Z" fill="#263238"/>
<path d="M158.115 320.687L144.407 318.913L144.617 314.868L159.492 316.307L158.115 320.687Z" fill="#059BDB"/>
<path d="M143.372 175.878L141.894 178.111C141.785 178.29 141.987 178.508 142.298 178.547L170.602 182.382C170.843 182.382 171.061 182.32 171.092 182.172L171.59 179.838C171.629 179.675 171.426 179.504 171.162 179.465L143.815 175.801C143.741 175.775 143.661 175.769 143.583 175.782C143.506 175.796 143.433 175.829 143.372 175.878V175.878Z" fill="#059BDB"/>
<path opacity="0.3" d="M143.372 175.878L141.894 178.111C141.785 178.29 141.987 178.508 142.298 178.547L170.602 182.382C170.843 182.382 171.061 182.32 171.092 182.172L171.59 179.838C171.629 179.675 171.426 179.504 171.162 179.465L143.815 175.801C143.741 175.775 143.661 175.769 143.583 175.782C143.506 175.796 143.433 175.829 143.372 175.878V175.878Z" fill="black"/>
<path d="M146.733 179.403L146.001 179.309C145.854 179.309 145.752 179.2 145.776 179.107L146.445 176.034C146.445 175.948 146.6 175.894 146.748 175.909L147.48 176.011C147.627 176.011 147.729 176.119 147.713 176.205L147.036 179.278C147.021 179.371 146.881 179.426 146.733 179.403Z" fill="#263238"/>
<path d="M165.234 181.931L164.503 181.83C164.355 181.83 164.254 181.721 164.269 181.635L164.946 178.562C164.946 178.476 165.102 178.414 165.249 178.438L165.981 178.531C166.129 178.531 166.23 178.64 166.206 178.733L165.537 181.806C165.514 181.892 165.382 181.954 165.234 181.931Z" fill="#263238"/>
</svg>
