<svg width="24" height="24" viewBox="0 0 24 24" fill="none" xmlns="http://www.w3.org/2000/svg">
<g clip-path="url(#clip0_3584_3461)">
<path d="M18.0871 7.92358H5.91223C5.64141 7.92358 5.42188 8.14311 5.42188 8.41394V18.6236C5.42188 18.8944 5.64141 19.1139 5.91223 19.1139H8.08273V22.5546C8.08273 23.3529 8.72987 24.0001 9.52823 24.0001C10.3265 24.0001 10.9737 23.353 10.9737 22.5546V19.1139H12.9955V22.5546C12.9955 23.3529 13.6427 24.0001 14.441 24.0001C15.2393 24.0001 15.8865 23.353 15.8865 22.5546V19.1139H18.0872C18.358 19.1139 18.5775 18.8944 18.5775 18.6236V8.41394C18.5775 8.14311 18.3579 7.92358 18.0871 7.92358Z" fill="#0D2842"/>
<path d="M3.36152 7.92114C2.56322 7.92114 1.91602 8.56829 1.91602 9.36665V15.2377C1.91602 16.036 2.56316 16.6832 3.36152 16.6832C4.15982 16.6832 4.80703 16.0361 4.80703 15.2377V9.36665C4.80697 8.56835 4.15982 7.92114 3.36152 7.92114Z" fill="#0D2842"/>
<path d="M20.6389 7.92114C19.8406 7.92114 19.1934 8.56829 19.1934 9.36665V15.2377C19.1934 16.036 19.8405 16.6832 20.6389 16.6832C21.4372 16.6832 22.0844 16.0361 22.0844 15.2377V9.36665C22.0844 8.56835 21.4372 7.92114 20.6389 7.92114Z" fill="#0D2842"/>
<path d="M6.01235 7.20745H17.9614C18.2732 7.20745 18.5056 6.9203 18.4416 6.6152C18.0464 4.73139 16.847 3.14384 15.2195 2.22674L16.241 0.383656C16.3102 0.258874 16.2651 0.101618 16.1403 0.0324888C16.0152 -0.0368151 15.8582 0.00843866 15.7891 0.133221L14.7599 1.99019C13.9169 1.599 12.9774 1.38052 11.9869 1.38052C10.9963 1.38052 10.0568 1.599 9.21386 1.99019L8.18464 0.133162C8.11546 0.00832248 7.9582 -0.0366989 7.83348 0.0324307C7.7087 0.10156 7.66362 0.258816 7.73275 0.383597L8.75424 2.22669C7.12679 3.14384 5.92742 4.73133 5.53216 6.6152C5.46808 6.9203 5.70057 7.20745 6.01235 7.20745ZM15.5524 4.46068C15.5524 4.76752 15.3036 5.01633 14.9967 5.01633C14.6899 5.01633 14.441 4.76758 14.441 4.46068C14.441 4.15383 14.6898 3.90503 14.9967 3.90503C15.3036 3.90503 15.5524 4.15383 15.5524 4.46068ZM8.97696 3.90503C9.28381 3.90503 9.53261 4.15378 9.53261 4.46068C9.53261 4.76752 9.28386 5.01633 8.97696 5.01633C8.67012 5.01633 8.42131 4.76758 8.42131 4.46068C8.42131 4.15383 8.67006 3.90503 8.97696 3.90503Z" fill="#0D2842"/>
</g>
<defs>
<clipPath id="clip0_3584_3461">
<rect width="24" height="24" fill="white"/>
</clipPath>
</defs>
</svg>
