<svg width="190" height="174" viewBox="0 0 190 174" fill="none" xmlns="http://www.w3.org/2000/svg">
<path d="M7.91655 183.205C6.2169 186.444 12.5566 189.1 16.2108 190.152C19.939 191.024 23.7973 191.276 27.6155 190.897C32.7144 190.638 37.9323 190.185 42.3344 187.788C46.1896 185.512 49.2711 182.222 51.2066 178.315C53.115 174.419 54.6234 170.357 55.7106 166.185C55.7106 166.185 15.548 168.679 7.91655 183.205Z" fill="#52CBFF"/>
<g opacity="0.4">
<path d="M7.92045 183.205C6.22081 186.444 12.5605 189.1 16.2147 190.152C19.9429 191.024 23.8012 191.276 27.6194 190.897C32.7183 190.638 37.9362 190.185 42.3383 187.788C46.1935 185.513 49.275 182.222 51.2105 178.315C53.1189 174.42 54.6273 170.358 55.7145 166.186C55.7145 166.186 15.5519 168.679 7.92045 183.205Z" fill="black"/>
</g>
<path d="M121.352 172.841C127.973 177.316 135.908 179.685 144.025 179.61C147.916 179.817 151.753 178.665 154.818 176.371C156.127 175.222 157.112 173.764 158.455 172.663C159.373 171.918 160.444 171.351 161.311 170.558C161.768 170.182 162.121 169.705 162.337 169.168C162.554 168.631 162.627 168.051 162.551 167.481C162.216 166.074 161.389 164.818 160.206 163.918C155.6 161.424 150.093 161.521 144.79 161.635C139.483 161.854 134.241 162.831 129.238 164.534C125.125 165.861 120.825 167.772 118.734 171.335" fill="#52CBFF"/>
<g opacity="0.4">
<path d="M162.551 167.481C161.95 166.115 160.893 164.976 159.543 164.242C154.937 161.748 150.093 161.521 144.79 161.635C139.483 161.854 134.241 162.831 129.238 164.533C125.125 165.861 120.825 167.772 118.734 171.335L121.352 172.841C127.973 177.315 135.908 179.684 144.025 179.61C147.916 179.816 151.753 178.665 154.818 176.371C156.127 175.221 157.112 173.764 158.455 172.663C159.373 171.918 160.444 171.351 161.311 170.557C161.768 170.182 162.121 169.705 162.337 169.168C162.554 168.631 162.627 168.051 162.551 167.481Z" fill="black"/>
</g>
<path d="M42.9329 230.96L127.66 232.029C127.833 232.028 128.003 231.99 128.157 231.915C128.311 231.841 128.444 231.734 128.547 231.601C128.649 231.469 128.717 231.316 128.747 231.154C128.776 230.992 128.765 230.826 128.714 230.669L118.771 201.131C118.771 201.131 120.233 186.362 122.256 168.614C125.332 141.651 129.428 107.757 129.479 107.854C123.683 92.3729 89.4863 89.7495 89.4863 89.7495L50.5133 91.9519L49.1536 89.7657L37.936 94.7372C35.4893 95.8217 33.1365 97.0888 30.8994 98.5266C23.489 103.239 5.64267 114.073 2.37935 126.137C-5.15009 154.072 7.59723 185.245 7.59723 185.245L15.7895 179.14C17.8531 177.625 20.0223 176.245 22.2822 175.01L38.7008 216.936C37.7238 217.523 36.8963 218.31 36.2789 219.24C35.6614 220.17 35.2695 221.22 35.1315 222.313C34.9956 225.713 36.8312 229.794 42.9329 230.96Z" fill="#52CBFF"/>
<g opacity="0.3">
<path d="M79.285 181.537C81.9704 167.772 80.5597 153.619 79.115 139.692C74.424 151.028 74.5939 163.983 69.614 175.221C69.0035 176.408 68.5578 177.666 68.2883 178.962C68.1585 179.613 68.1924 180.284 68.3874 180.921C68.5824 181.557 68.9328 182.14 69.41 182.622C70.7697 183.804 72.8093 183.156 74.6109 182.962C76.2237 182.669 77.7932 182.191 79.285 181.537Z" fill="black"/>
</g>
<path d="M160.105 162.169C153.187 147.319 128.797 106.252 128.797 106.252L109.914 128.81L114.316 173.1C114.316 173.1 124.293 162.493 152.184 162.282C154.211 162.36 156.194 162.868 157.988 163.77C159.782 164.673 161.342 165.946 162.552 167.497L160.105 162.169Z" fill="#52CBFF"/>
<path d="M46.7256 154.315C45.3785 151.167 44.3097 147.917 43.5303 144.599C42.4747 141.367 41.7015 138.058 41.2188 134.704C42.5462 137.858 43.6089 141.107 44.3971 144.421C45.4529 147.653 46.2317 150.962 46.7256 154.315Z" fill="#263238"/>
<path d="M108.482 125.813C109.097 126.227 109.666 126.699 110.182 127.222C111.683 128.604 113.091 130.075 114.397 131.627C118.792 136.746 121.881 142.765 123.422 149.214C124.222 152.778 124.4 156.444 123.949 160.063C123.524 163.383 122.861 166.298 122.419 168.76C121.977 171.221 121.705 173.229 121.569 174.622C121.565 175.345 121.486 176.067 121.331 176.776C121.211 176.053 121.177 175.319 121.229 174.589C121.304 172.605 121.497 170.626 121.807 168.662C122.164 166.185 122.759 163.237 123.15 159.983C123.543 156.445 123.342 152.87 122.555 149.392C121.033 143.064 118.08 137.129 113.904 132C110.793 128.016 108.346 125.943 108.482 125.813Z" fill="#263238"/>
<path d="M97.5779 170.623C96.6774 172.073 95.6663 173.459 94.5525 174.768C93.6738 176.231 92.6795 177.628 91.5781 178.946C91.9046 177.237 92.676 175.634 93.8217 174.283C94.7276 172.779 96.0202 171.519 97.5779 170.623Z" fill="#263238"/>
<path d="M39.4085 131.401C38.1136 130.676 36.8598 129.887 35.6523 129.037C29.6076 125.253 22.7476 122.812 15.5795 121.895C14.0789 121.791 12.5863 121.602 11.1094 121.328C12.6149 121.13 14.1419 121.13 15.6475 121.328C23.0109 121.927 30.0631 124.43 36.0432 128.567C37.2975 129.358 38.4301 130.312 39.4085 131.401Z" fill="#263238"/>
<path d="M128.799 105.717C125.757 108.051 122.916 110.612 120.301 113.377C117.894 116.327 115.74 119.457 113.859 122.737C114.061 121.634 114.457 120.571 115.032 119.595C116.263 117.167 117.804 114.893 119.621 112.826C121.444 110.763 123.534 108.929 125.842 107.369C126.72 106.66 127.721 106.101 128.799 105.717Z" fill="#263238"/>
<path d="M93.8161 92.3733C93.9708 92.6069 94.0962 92.8569 94.19 93.1182C94.5216 93.8516 94.7888 94.6099 94.9889 95.3854C95.7055 98.2712 95.7055 101.277 94.9889 104.162C93.9311 108.47 91.5104 112.365 88.0543 115.32C83.6919 118.841 78.1338 120.729 72.4175 120.632C66.6963 120.65 61.1219 118.906 56.5258 115.66C52.8637 112.996 49.8924 109.567 47.8406 105.636C46.4584 103.004 45.4851 100.195 44.9512 97.2962C44.7953 96.5153 44.6931 95.7255 44.6453 94.9319C44.5974 94.6531 44.5974 94.3687 44.6453 94.0898C44.6453 94.0898 44.8322 95.2234 45.3081 97.2315C45.969 100.048 47.0147 102.771 48.4185 105.328C50.4918 109.141 53.4365 112.461 57.0357 115.045C61.4645 118.169 66.8217 119.871 72.3325 119.903C77.842 119.999 83.2045 118.206 87.4424 114.85C90.7813 112.004 93.1491 108.27 94.241 104.13C94.9972 101.335 95.1016 98.4169 94.5469 95.5797C94.224 93.4421 93.7141 92.4057 93.8161 92.3733Z" fill="#263238"/>
<g opacity="0.3">
<path d="M99.7704 173.489C99.7704 172.679 99.6345 171.724 98.8866 171.319C98.6494 171.205 98.3874 171.146 98.1218 171.146C97.8561 171.146 97.5942 171.205 97.3569 171.319C96.8816 171.564 96.4603 171.893 96.1162 172.29C94.118 174.272 92.5727 176.626 91.5781 179.205L99.9064 178.509C99.8554 176.873 99.8214 175.157 99.7704 173.489Z" fill="black"/>
</g>
<g opacity="0.3">
<path d="M127.418 156.792C126.581 152.252 124.493 148.004 121.367 144.485C124.97 155.691 123.764 162.023 121.741 169.699L122.183 168.63C124.512 164.144 128.047 161.327 127.418 156.792Z" fill="black"/>
</g>
<path d="M104.73 2.06026C106.65 -2.47402 104.322 -7.96374 100.192 -10.8948C95.8387 -13.6249 90.5311 -14.6084 85.4216 -13.6316C80.3809 -12.6246 75.5008 -10.9912 70.9066 -8.77343C68.7703 -10.8262 66.0772 -12.2729 63.1279 -12.9518C60.1787 -13.6308 57.0894 -13.5153 54.205 -12.6183C51.3207 -11.7212 48.7548 -10.078 46.7939 -7.87206C44.8329 -5.66609 43.5542 -2.98422 43.1004 -0.125907C41.2627 -0.56662 39.3337 -0.522263 37.5205 0.00239944C35.7073 0.527061 34.0782 1.51222 32.8081 2.85218C31.538 4.19213 30.6748 5.83631 30.3112 7.60826C29.9475 9.38021 30.0971 11.2131 30.7439 12.9102L53.7232 20.6022L78.8099 62.7063C82.5175 65.7201 87.2493 67.3457 92.1224 67.2799C96.9955 67.2141 101.677 65.4614 105.293 62.3488C108.91 59.2361 111.214 54.9762 111.777 50.3638C112.339 45.7514 111.121 41.1016 108.35 37.2819C109.755 36.0909 110.949 34.6909 111.885 33.1363C113.89 32.0068 115.639 30.5089 117.031 28.7297C118.423 26.9505 119.429 24.9254 119.992 22.7722C122.219 13.396 114.605 3.16145 104.73 2.06026Z" fill="#263238"/>
<path d="M89.0318 89.8523L89.0321 89.8535C89.5461 92.2887 89.5322 94.7982 88.9915 97.2282C88.4507 99.6582 87.394 101.959 85.8851 103.988C84.3761 106.018 82.4464 107.734 80.2135 109.03C77.9805 110.326 75.4919 111.174 72.9004 111.521L72.8983 111.522C68.1523 112.178 63.3223 111.117 59.3603 108.552C55.3995 105.987 52.5958 102.107 51.4931 97.6802C51.4929 97.6794 51.4927 97.6786 51.4925 97.6778L46.1737 75.4964L46.172 75.4901L33.593 25.9002V24.3432V24.2835L33.579 24.2255C33.2088 22.6972 33.1759 21.2882 33.5804 20.1668C33.9746 19.0735 34.8015 18.2024 36.2831 17.7442L36.3154 17.7342L36.3461 17.7199L68.727 2.6742C73.8372 1.11744 78.8499 3.03789 83.0023 6.68887C87.1646 10.3484 90.3915 15.6933 91.8625 20.7739L91.8626 20.7743C95.1956 32.2455 98.7645 46.3297 99.2369 55.2352L99.237 55.236C99.7219 64.103 96.6285 69.7454 93.4407 73.167C91.842 74.883 90.213 76.0468 88.9854 76.7774C88.3719 77.1426 87.86 77.3986 87.5046 77.5607C87.3267 77.6418 87.1894 77.6987 87.0992 77.7337C87.0536 77.7514 87.0231 77.7623 87.0073 77.7675C86.9979 77.7707 87.0001 77.7697 87.0092 77.7673L87.0094 77.7673C87.012 77.7666 87.0315 77.7614 87.0583 77.7576C87.0678 77.7563 87.1081 77.7505 87.1602 77.7541C87.1901 77.7571 87.2678 77.7736 87.3143 77.79C87.3498 77.8082 87.4024 77.8505 87.4539 77.902C87.2916 77.8273 86.9397 77.7997 86.7265 77.9497C86.6693 78.0456 86.6287 78.1885 86.6253 78.2255C86.6247 78.2432 86.625 78.2711 86.6254 78.2814C86.6259 78.2881 86.6268 78.2994 86.6273 78.3042C86.6283 78.3137 86.6293 78.3212 86.6298 78.3247C86.6316 78.3372 86.6337 78.3487 86.6344 78.3523C86.6365 78.3637 86.6395 78.3789 86.6428 78.3959C86.6498 78.4309 86.6604 78.4834 86.6745 78.5521C86.7028 78.69 86.7456 78.8968 86.8018 79.1671C86.9142 79.7078 87.0805 80.5046 87.2919 81.5167C87.3684 81.8832 87.4509 82.278 87.5389 82.6991C87.9368 84.6038 88.4473 87.0475 89.0318 89.8523ZM86.6529 78.4177C86.6825 78.4769 86.7378 78.545 86.7946 78.602C86.7688 78.5901 86.7478 78.5769 86.7331 78.5631C86.7067 78.5267 86.6747 78.4702 86.6663 78.4519C86.6619 78.4416 86.6553 78.4244 86.6529 78.4177Z" fill="#FFBE9D" stroke="#263238"/>
<path d="M92.2248 32.6183C92.3612 33.1929 92.2609 33.7955 91.9446 34.3017C91.6284 34.8079 91.1203 35.1792 90.5251 35.3389C90.2248 35.4188 89.9106 35.44 89.6015 35.4012C89.2924 35.3624 88.9947 35.2644 88.7263 35.1131C88.458 34.9618 88.2245 34.7604 88.04 34.5209C87.8555 34.2814 87.7238 34.0088 87.6527 33.7195C87.5169 33.147 87.6177 32.5466 87.9342 32.0431C88.2507 31.5395 88.7586 31.1714 89.3524 31.0151C89.6516 30.9326 89.9652 30.909 90.2743 30.9458C90.5834 30.9825 90.8813 31.0788 91.1501 31.2288C91.4188 31.3788 91.6527 31.5793 91.8375 31.8182C92.0222 32.0571 92.154 32.3294 92.2248 32.6183Z" fill="#263238"/>
<path d="M90.7438 29.1689C90.5058 29.5251 88.4492 28.6345 85.9338 29.1689C83.4183 29.7033 81.8206 31.2579 81.4807 31.015C81.1408 30.7721 81.4807 30.3186 82.1775 29.6061C83.1126 28.6647 84.3291 28.0201 85.6619 27.76C86.9767 27.4899 88.3479 27.6319 89.571 28.1649C90.5228 28.5373 90.8458 29.0231 90.7438 29.1689Z" fill="#263238"/>
<path d="M67.5417 37.9292C67.6775 38.5017 67.5767 39.1021 67.2602 39.6056C66.9437 40.1092 66.4358 40.4773 65.842 40.6336C65.5485 40.715 65.241 40.7401 64.9372 40.7075C64.6334 40.6749 64.3395 40.5852 64.0723 40.4437C63.8052 40.3021 63.5702 40.1114 63.3809 39.8827C63.1916 39.654 63.0518 39.3919 62.9696 39.1113C62.8332 38.5367 62.9335 37.9342 63.2497 37.428C63.566 36.9218 64.0741 36.5505 64.6693 36.3908C64.9639 36.3097 65.2725 36.2852 65.5771 36.3188C65.8818 36.3525 66.1763 36.4435 66.4436 36.5867C66.711 36.7299 66.9457 36.9223 67.1342 37.1528C67.3227 37.3833 67.4613 37.6472 67.5417 37.9292Z" fill="#263238"/>
<path d="M66.3063 34.8856C66.0853 35.2419 64.0118 34.335 61.4963 34.8856C58.9808 35.4362 57.3831 36.9584 57.0432 36.7317C56.7033 36.505 57.0432 36.0354 57.74 35.3066C58.6794 34.3736 59.8948 33.7353 61.2244 33.4767C62.5379 33.2107 63.906 33.3467 65.1335 33.8654C66.0343 34.254 66.4253 34.6913 66.3063 34.8856Z" fill="#263238"/>
<path d="M79.105 50.1074C80.3512 49.4525 81.675 48.9414 83.0482 48.5852C83.6771 48.3909 84.2719 48.148 84.2889 47.7108C84.2 47.0667 83.9098 46.4629 83.4561 45.978L80.5157 41.6704C76.4025 35.533 73.2752 30.4481 73.5302 30.3347C73.7851 30.2214 77.3374 35.031 81.4505 41.1684L84.3229 45.5084C84.8872 46.1726 85.1933 47.002 85.1897 47.8565C85.139 48.0894 85.0351 48.3089 84.8853 48.4992C84.7354 48.6895 84.5435 48.8461 84.3229 48.9577C83.9904 49.1254 83.6361 49.2506 83.2692 49.3301C81.9248 49.7687 80.5237 50.0302 79.105 50.1074Z" fill="#263238"/>
<path d="M87.1214 78.2522C78.5247 80.1034 69.5573 79.6437 61.2188 76.9243C61.2188 76.9243 70.1249 88.0009 88.0902 82.7055L87.1214 78.2522Z" fill="#EB996E"/>
<path d="M66.7279 31.4524C66.5579 32.1487 63.9575 32.1325 61.0001 32.8289C58.0427 33.5252 55.6972 34.5778 55.2213 34.0272C55.0174 33.7681 55.3573 33.088 56.2581 32.4078C57.4554 31.4471 58.8779 30.7751 60.4052 30.4484C61.9196 30.1061 63.4969 30.1061 65.0113 30.4484C66.218 30.6589 66.8469 31.1285 66.7279 31.4524Z" fill="#263238"/>
<path d="M89.7778 21.5255C89.3699 22.1733 87.1943 22.0113 84.6789 22.481C82.1634 22.9506 80.1748 23.7603 79.5799 23.2907C79.308 23.0477 79.5799 22.4324 80.3107 21.6713C81.4329 20.772 82.7896 20.1788 84.2369 19.9547C85.6604 19.6814 87.1351 19.7822 88.5031 20.2462C89.5398 20.6996 89.9478 21.2016 89.7778 21.5255Z" fill="#263238"/>
<path d="M44.1406 5.67126C44.5167 7.42552 45.2937 9.07934 46.4163 10.5152C47.5389 11.9511 48.9796 13.1339 50.6361 13.9794C52.2926 14.825 54.1241 15.3126 56.0007 15.4076C57.8773 15.5026 59.7529 15.2028 61.4941 14.5293C64.1795 13.4929 66.9669 11.5496 69.6863 12.4889C72.4058 13.4281 73.5276 17.1203 76.128 18.4968C79.9522 20.5372 84.6263 17.007 88.8924 17.3632C92.2917 17.6385 94.8582 20.1162 97.4926 22.2214C100.127 24.3266 103.764 25.9136 106.739 24.3914C106.058 21.687 105.048 19.0675 103.73 16.5859C102.401 14.0876 100.202 12.107 97.5096 10.9828C96.0139 10.4161 94.3992 10.2217 92.9715 9.5254C89.8952 8.03556 88.5185 4.66724 86.2919 2.1248C84.8297 0.522628 82.9876 -0.724411 80.9186 -1.51295C78.8495 -2.30149 76.613 -2.60883 74.3944 -2.40949C70.7232 -2.05322 67.2389 -0.288091 63.5336 -0.433836C60.7972 -0.547193 58.1797 -1.71314 55.4433 -1.66456C50.1234 -1.66456 46.1293 2.86972 43.1719 7.09632" fill="#263238"/>
<path d="M62.0534 9.37957C59.6059 9.20144 54.6089 8.71562 52.9603 7.06385C51.2854 5.27898 49.1478 3.94461 46.7615 3.19432C44.3753 2.44402 41.824 2.30414 39.3631 2.78867C36.9211 3.48228 34.7774 4.90456 33.2475 6.84614C31.7176 8.78772 30.8824 11.146 30.8649 13.5738C27.891 14.2652 25.1683 15.7091 22.9844 17.7528C20.8005 19.7965 19.2365 22.3642 18.4574 25.1848C17.6663 28.1375 17.6397 31.2291 18.3798 34.1938C19.12 37.1584 20.6048 39.9075 22.7066 42.2045C23.7276 43.421 24.659 44.7034 25.494 46.0425C24.3415 47.4047 23.3284 48.8688 22.4686 50.4148C18.5764 58.6089 29.1312 61.7505 29.1312 61.7505C29.1312 67.2564 34.4851 67.2241 37.9014 67.2079C41.3177 67.1917 43.2043 75.8878 45.8728 75.5477L43.1703 48.7145C43.5661 48.8611 43.9865 48.9379 44.411 48.9412C50.8527 49.0545 49.1701 37.4273 47.0965 34.3667C49.0157 32.0904 50.6366 29.5998 51.9235 26.9499C53.0903 22.8991 53.1721 18.6341 52.1614 14.5454C54.32 14.2863 63.1072 9.44435 62.0534 9.37957Z" fill="#263238"/>
<path d="M44.0139 50.1397C43.7944 49.287 43.3518 48.5012 42.7275 47.8556C42.1031 47.21 41.3173 46.7255 40.4434 46.4474C39.5694 46.1693 38.6357 46.1066 37.7295 46.2652C36.8232 46.4238 35.9739 46.7985 35.2607 47.3543C33.561 48.747 32.6602 51.0789 33.68 54.9816C36.4334 65.4105 46.8523 60.6333 46.7843 60.3418C46.7163 60.0503 45.2037 54.4472 44.0139 50.1397Z" fill="#FFBE9D"/>
<path d="M42.405 57.1848C42.405 57.1848 42.252 57.3629 41.963 57.5734C41.5612 57.867 41.0555 58.0005 40.5523 57.9459C39.2946 57.8163 37.8499 56.3265 37.306 54.4318C37.0468 53.5465 36.9946 52.6178 37.153 51.7112C37.1703 51.3591 37.2767 51.0161 37.4631 50.7115C37.6496 50.407 37.9106 50.1499 38.2238 49.9623C38.4302 49.8563 38.669 49.8226 38.8988 49.8669C39.1286 49.9113 39.3348 50.031 39.4816 50.2052C39.7025 50.4481 39.6855 50.6748 39.7535 50.691C39.8215 50.7072 39.9405 50.4481 39.7535 50.0433C39.6231 49.8031 39.4143 49.6099 39.1586 49.4927C38.7989 49.354 38.3966 49.354 38.0368 49.4927C37.61 49.6858 37.2413 49.9786 36.9649 50.3438C36.6886 50.709 36.5136 51.1348 36.4562 51.5817C36.2357 52.6015 36.2765 53.6569 36.5752 54.6585C36.7648 55.5989 37.2418 56.4649 37.9464 57.1477C38.651 57.8306 39.5517 58.2998 40.5353 58.4965C40.8552 58.5088 41.174 58.4527 41.4681 58.3322C41.7623 58.2117 42.0243 58.0299 42.235 57.8001C42.4559 57.4438 42.4559 57.2009 42.405 57.1848Z" fill="#EB996E"/>
<path d="M102.712 35.5815C102.712 35.5815 103.715 34.8528 105.109 33.2334C107.032 30.9001 108.212 28.0898 108.508 25.1365C108.733 23.1204 108.525 21.0817 107.896 19.1447C107.17 16.9229 105.825 14.9304 104.004 13.3797C101.902 11.6302 99.3557 10.4349 96.6188 9.91221C93.8818 9.38954 91.049 9.55771 88.4014 10.4C87.8915 10.562 87.4156 10.8049 86.9397 10.9992C86.4638 11.1936 86.0389 11.485 85.5969 11.7279L84.9171 12.0842V11.3717C84.9025 10.1172 84.4137 8.90984 83.5404 7.97097C82.6458 7.05979 81.5481 6.35145 80.328 5.89816C78.0196 4.98161 75.4622 4.79985 73.0365 5.37995C68.3455 6.40017 64.3683 8.4406 60.6121 8.86164C57.6665 9.34938 54.636 8.77189 52.1139 7.24225C51.4482 6.80593 50.8722 6.25707 50.4142 5.62286C50.1423 5.18563 50.0063 4.94272 50.0403 4.92653C50.6561 5.7262 51.4088 6.42144 52.2668 6.98314C54.7482 8.34792 57.6632 8.81367 60.4762 8.29484C62.4332 7.944 64.347 7.40131 66.1869 6.67545C68.347 5.85274 70.5613 5.16574 72.8156 4.61884C74.0723 4.32914 75.3646 4.20383 76.6568 4.24637C78.0204 4.315 79.3607 4.61098 80.617 5.12084C81.9167 5.64989 83.0775 6.44621 84.0163 7.45277C85.0214 8.54906 85.5872 9.94864 85.6139 11.4041L84.9341 11.0478L86.3448 10.2705C86.8717 10.0762 87.3646 9.81707 87.9084 9.63894C90.6989 8.7284 93.6926 8.53794 96.5853 9.08689C99.478 9.63584 102.167 10.9046 104.378 12.7644C106.29 14.4132 107.689 16.5307 108.423 18.8856C109.186 21.3816 109.289 24.0186 108.722 26.5616C108.156 29.1045 106.938 31.4745 105.177 33.4601C104.617 34.0688 103.984 34.6123 103.29 35.0795C103.12 35.2685 102.926 35.4371 102.712 35.5815Z" fill="#455A64"/>
<path d="M100.502 -1.03306C99.3861 -1.57278 98.1959 -1.95984 96.9666 -2.18283C95.5614 -2.36586 94.1308 -2.23843 92.7855 -1.81038C91.0431 -1.30254 89.5293 -0.253574 88.4854 1.1693L88.0605 1.73608L87.8055 1.08833C86.9181 -0.902346 85.4896 -2.63153 83.6671 -3.92099C81.8447 -5.21046 79.6943 -6.01355 77.4377 -6.24749C73.8933 -6.37451 70.4005 -5.40908 67.4777 -3.49454C64.9878 -1.94804 62.3399 -0.64588 59.5744 0.391991C57.6679 1.0791 55.6142 1.31257 53.5916 1.07213C53.0525 0.977297 52.5235 0.836389 52.0109 0.651099C51.671 0.505354 51.4841 0.424378 51.5011 0.391991C51.5181 0.359603 52.2659 0.602509 53.6426 0.73206C55.5978 0.848454 57.5555 0.54405 59.3704 -0.158595C62.0578 -1.27514 64.6346 -2.61923 67.0698 -4.17468C68.574 -5.06459 70.1683 -5.80787 71.8288 -6.39324C73.6543 -7.02743 75.6054 -7.26533 77.5396 -7.08958C79.9502 -6.8388 82.2443 -5.96995 84.1778 -4.57551C86.1112 -3.18107 87.6117 -1.31322 88.5194 0.82922H87.8565C89.0252 -0.692601 90.6943 -1.79842 92.5985 -2.31238C94.0454 -2.71205 95.5703 -2.78415 97.0516 -2.52291C97.9895 -2.35324 98.8876 -2.02411 99.7031 -1.55127C99.9939 -1.41566 100.263 -1.24117 100.502 -1.03306Z" fill="#455A64"/>
<path d="M78.1138 54.9005C77.7168 54.5842 77.2542 54.3515 76.7562 54.2176C76.2583 54.0836 75.7362 54.0514 75.2243 54.1232C74.6258 54.2449 74.0608 54.4852 73.566 54.8283C73.0711 55.1714 72.6575 55.6098 72.3519 56.115C72.3519 56.115 72.2669 56.196 72.25 56.2446C72.0159 56.6144 71.9089 57.0447 71.944 57.4753C72.018 57.9444 72.2116 58.389 72.5079 58.7702C72.8043 59.1513 73.1943 59.4574 73.6437 59.6615C74.362 60.0085 75.1754 60.1356 75.9724 60.0254C76.7695 59.9153 77.5114 59.5733 78.0967 59.0461C78.6523 58.4867 78.9634 57.7467 78.9665 56.9765C78.9697 56.2064 78.6647 55.464 78.1138 54.9005Z" fill="#D79675"/>
<path d="M78.9667 59.9374C78.8307 59.9374 78.6778 59.4516 78.2189 58.7877C77.6662 57.8976 76.8402 57.1905 75.8524 56.7619C74.8645 56.3333 73.7625 56.2038 72.695 56.391C71.8622 56.5043 71.3523 56.7311 71.3013 56.6177C71.2503 56.5043 71.6412 56.1157 72.559 55.808C73.7603 55.4397 75.0624 55.5089 76.2132 56.0023C77.3745 56.495 78.2932 57.3934 78.7797 58.5124C79.1366 59.3545 79.0857 59.9212 78.9667 59.9374Z" fill="#263238"/>
<path d="M57.2284 205.131C57.2284 205.131 99.3116 207.463 124.194 207.674C143.451 207.852 152.052 202.977 155.893 191.172C159.122 181.278 152.188 162.282 152.188 162.282C139.151 162.282 131.112 164.064 122.733 167.804L124.959 176.484L57.1094 182.055L57.2284 205.131Z" fill="#FFBE9D"/>
<path d="M41.8305 167.74C41.8305 167.74 28.8112 170.719 19.2422 176.808L29.4401 203.139C32.8394 211.787 43.2242 216.095 51.5355 211.56C64.3338 204.581 68.8549 184.241 68.8549 184.241L82.911 126.138L59.6088 112.227L41.9155 167.74" fill="#FFBE9D"/>
<path d="M59.5216 112.227L60.4734 93.1183L55.2554 73.6857C54.9665 72.6169 54.8305 71.2728 55.7483 70.6251C56.2035 70.2925 56.7655 70.1205 57.3387 70.1382C57.912 70.1559 58.4611 70.3623 58.8927 70.7222C60.3034 72.1149 67.102 89.1023 67.102 89.1023C67.102 89.1023 77.4188 83.2077 79.2545 82.9162C81.0901 82.6247 83.3846 87.9201 83.5376 88.3249C83.6051 89.5116 83.6051 90.7009 83.5376 91.8876C83.5376 91.8876 89.9113 92.0657 90.4892 92.8916C90.9525 94.5788 91.198 96.3136 91.22 98.0575C91.22 98.0575 93.9224 98.8833 94.3473 100.827C94.7722 102.77 95.6561 105.976 94.3473 106.689C93.0386 107.401 90.3872 108.794 90.3872 108.794C90.3872 108.794 89.3164 118.705 89.0274 119.611C88.7385 120.518 82.7727 126.089 82.7727 126.089L59.5216 112.227Z" fill="#FFBE9D"/>
<path d="M37.832 211.949C37.832 211.949 38.4609 212.305 39.7866 212.71C41.7252 213.29 43.7761 213.445 45.7864 213.164C49.016 212.725 52.0406 211.396 54.4886 209.342C57.7237 206.545 60.4566 203.263 62.5789 199.626C63.8287 197.487 64.8808 195.25 65.7233 192.937C66.6072 190.393 67.3393 187.804 67.9158 185.181C69.2415 179.723 70.6862 173.845 72.2159 167.594C75.2753 155.109 78.7086 141.149 82.4138 126.105V125.992H82.4988C83.6715 124.891 84.8443 123.773 86.0171 122.608C86.5949 122.025 87.1728 121.442 87.7167 120.842C87.9887 120.535 88.2776 120.227 88.4985 119.919C88.6706 119.615 88.7693 119.277 88.7875 118.932C89.2464 115.693 89.6033 112.341 89.9772 108.956V108.746L90.1812 108.648L93.4275 106.916C93.6655 106.77 94.0394 106.608 94.1924 106.478C94.3548 106.338 94.4627 106.15 94.4983 105.944C94.5774 105.407 94.5774 104.862 94.4983 104.325C94.3336 103.137 94.078 101.963 93.7335 100.811C93.1555 99.8032 92.1847 99.0528 91.031 98.7216L90.7421 98.6244V98.3491C90.7421 97.4099 90.6401 96.4382 90.5211 95.4828C90.4749 95.0043 90.4011 94.5285 90.3002 94.0577C90.2605 93.8502 90.1919 93.6487 90.0962 93.4585C90.0962 93.3452 90.0962 93.4585 89.9942 93.3614C89.9018 93.3152 89.805 93.2773 89.7053 93.248C87.6612 92.8236 85.5766 92.6011 83.4846 92.5841H83.0427V92.1631C83.0427 91.159 83.0427 90.0417 83.0427 88.9243C82.9725 88.5431 82.8345 88.1762 82.6347 87.8393C82.4648 87.4506 82.2608 87.0782 82.0569 86.6895C81.659 85.9394 81.1926 85.2241 80.6632 84.5519C80.4227 84.2386 80.1298 83.9651 79.7963 83.7422C79.6731 83.643 79.5218 83.5808 79.3614 83.5635C79.2011 83.5462 79.0389 83.5746 78.8955 83.6451C78.0732 83.9452 77.2726 84.2968 76.499 84.6977C73.3377 86.3171 70.2443 87.9365 67.219 89.6854L66.777 89.9445L66.5901 89.4911C64.9924 85.6531 63.3947 81.8637 61.8311 78.1553C61.0492 76.293 60.2844 74.4308 59.5025 72.6009C59.3819 72.1909 59.1426 71.8216 58.812 71.5352C58.4813 71.2488 58.0727 71.0569 57.6329 70.9815C57.2267 70.853 56.7867 70.86 56.3852 71.0012C55.9837 71.1425 55.6445 71.4096 55.4234 71.7588C55.2115 72.1062 55.1222 72.5092 55.1685 72.9085C55.1685 73.2648 55.4064 73.8154 55.5084 74.2526C55.7803 75.1919 56.0352 76.1149 56.2902 77.038C56.8001 78.9003 57.293 80.7302 57.8029 82.5439C58.8 86.1929 59.7802 89.7555 60.7433 93.2318V93.3452C60.4034 99.9955 60.0804 106.365 59.7745 112.454V112.422L44.2907 160.42L39.9226 173.78C39.4127 175.286 39.0218 176.468 38.7499 177.294C38.4779 178.12 38.3079 178.476 38.3079 178.476C38.3079 178.476 38.3929 178.055 38.6309 177.262L39.7017 173.715C40.6875 170.59 42.0981 166.072 43.8828 160.307C47.554 148.712 52.7719 132.162 59.0776 112.211V112.292C59.3722 106.225 59.6725 99.8551 59.9784 93.1833V93.2966C59.0096 89.8149 58.0068 86.2523 57.0041 82.6249L55.4744 77.1189C55.2194 76.1959 54.9645 75.2567 54.6926 74.3336C54.5463 73.8487 54.4271 73.3568 54.3356 72.86C54.2729 72.2978 54.3978 71.7312 54.6926 71.2406C55.0072 70.7354 55.4926 70.3472 56.0693 70.1394C56.6398 69.9803 57.2434 69.9623 57.8232 70.0869C58.4031 70.2116 58.94 70.4749 59.3836 70.8519C59.8102 71.2332 60.1263 71.7129 60.3014 72.2446L62.6299 77.7991C64.2106 81.5237 65.7912 85.313 67.4059 89.1348L66.777 88.9243C69.8194 87.2077 72.8788 85.4912 76.1081 83.888C76.9245 83.4815 77.7643 83.1192 78.6236 82.803C78.892 82.6966 79.1846 82.6575 79.4734 82.6896C79.7642 82.7297 80.0425 82.8291 80.2893 82.9811C80.6986 83.2609 81.0598 83.5996 81.36 83.9851C81.9283 84.6938 82.4235 85.453 82.8387 86.2523C83.0597 86.6571 83.2636 87.0458 83.4506 87.4506C83.6925 87.8794 83.8536 88.3453 83.9265 88.8271C83.9265 89.9769 83.9265 91.0457 83.9265 92.0659L83.5016 91.6287C85.6864 91.6426 87.8633 91.8815 89.9942 92.3412C90.1405 92.3899 90.2826 92.4494 90.4191 92.5193C90.6059 92.6162 90.7594 92.7624 90.8611 92.9404C90.9929 93.2032 91.09 93.4806 91.15 93.7662C91.252 94.2844 91.32 94.7703 91.388 95.2723C91.4899 96.2601 91.5579 97.2317 91.6089 98.2034L91.3029 97.8147C91.998 98.009 92.6442 98.336 93.2023 98.7759C93.7604 99.2158 94.2187 99.7593 94.5493 100.373C94.9217 101.604 95.1945 102.86 95.3651 104.13C95.4832 104.779 95.4832 105.441 95.3651 106.09C95.2911 106.482 95.0745 106.838 94.7532 107.094C94.4744 107.272 94.185 107.434 93.8864 107.58L90.6571 109.183L90.878 108.875C90.4871 112.26 90.1302 115.579 89.6543 118.867L89.5523 119.498C89.5129 119.754 89.4013 119.995 89.2294 120.195C88.9792 120.549 88.7007 120.885 88.3966 121.199C87.8187 121.814 87.2408 122.413 86.6969 122.996C85.5242 124.162 84.3514 125.279 83.1617 126.381L83.2806 126.186C79.5414 141.214 76.0741 155.173 72.9638 167.659C71.4171 173.893 69.9384 179.772 68.5787 185.213C67.997 187.856 67.2478 190.462 66.3351 193.018C65.4605 195.352 64.3803 197.611 63.1058 199.771C60.9345 203.456 58.1376 206.772 54.8285 209.585C52.3074 211.653 49.2049 212.97 45.9054 213.374C43.8516 213.637 41.7618 213.437 39.8036 212.791C39.3055 212.617 38.8225 212.406 38.3589 212.16L37.832 211.949Z" fill="#323130"/>
<path d="M83.5508 91.9365C83.5508 92.0499 82.9729 92.1146 82.0721 92.147C80.9282 92.1678 79.7894 92.298 78.6728 92.5357C77.5952 92.7881 76.6015 93.2949 75.7834 94.0093C75.1715 94.5599 74.8996 95.0295 74.7637 94.9809C74.6277 94.9324 74.7636 94.3494 75.3245 93.6045C76.116 92.6615 77.2176 91.9998 78.4519 91.726C79.6416 91.4466 80.8772 91.3916 82.0891 91.564C83.007 91.6774 83.5508 91.8232 83.5508 91.9365Z" fill="#EB996E"/>
<path d="M78.6253 92.114C78.4043 92.033 78.3873 91.531 78.6253 90.9966C78.8632 90.4622 79.2032 90.0898 79.4241 90.1707C79.6451 90.2517 79.6791 90.7537 79.4241 91.2881C79.1692 91.8225 78.7952 92.195 78.6253 92.114Z" fill="#EB996E"/>
<path d="M91.5119 97.9928C89.862 98.4791 88.1393 98.7035 86.413 98.6567C85.8696 98.6394 85.3298 98.7466 84.8388 98.9692C84.3479 99.1918 83.9202 99.5233 83.5916 99.936C83.1497 100.6 83.3026 101.151 83.1667 101.183C83.0307 101.215 82.6228 100.649 83.0477 99.6769C83.2817 99.1299 83.7084 98.6775 84.2544 98.3976C84.8836 98.0687 85.5787 97.87 86.294 97.8146C88.0296 97.5615 89.7997 97.6219 91.5119 97.9928Z" fill="#EB996E"/>
<path d="M90.3832 103.822C90.6212 103.822 90.7571 105.02 90.6891 106.494C90.6211 107.968 90.3662 109.134 90.1282 109.134C89.8903 109.134 89.7373 107.919 89.8053 106.445C89.8733 104.972 90.1283 103.806 90.3832 103.822Z" fill="#EB996E"/>
<path d="M8.93742 118.899C8.93742 118.899 8.30853 119.514 7.42471 120.826C6.2382 122.694 5.45794 124.77 5.13023 126.931C4.64582 130.149 4.54315 133.408 4.82425 136.647C5.01121 140.323 5.31716 144.339 5.79306 148.55C6.59814 155.74 7.7952 162.886 9.37935 169.958C9.97422 172.679 10.5181 174.816 10.892 176.436C11.062 177.116 11.215 177.683 11.3339 178.168C11.4529 178.654 11.4699 178.784 11.4699 178.784C11.4699 178.784 11.3849 178.59 11.2659 178.201C11.147 177.812 10.96 177.132 10.773 176.468C10.3481 174.962 9.77023 172.792 9.07337 170.072C7.42124 163.002 6.18989 155.849 5.38516 148.647C4.90926 144.437 4.62029 140.404 4.45033 136.728C4.19274 133.486 4.31817 130.227 4.82425 127.012C5.18944 124.823 6.02247 122.728 7.27175 120.858C7.73201 120.137 8.29229 119.478 8.93742 118.899Z" fill="white"/>
<path d="M44.719 96.8429L44.3281 97.0372L43.2063 97.5554C42.2375 97.9926 40.8268 98.6404 39.1441 99.531C34.7577 101.862 30.4975 104.402 26.3798 107.142C21.5188 110.381 17.2187 113.328 14.0743 115.466L10.3521 117.976L9.31533 118.64C9.19955 118.728 9.07419 118.804 8.94141 118.867C9.03825 118.758 9.15309 118.665 9.28136 118.591L10.2671 117.879L13.9214 115.271C17.0317 113.085 21.3149 110.041 26.1759 106.867C30.3011 104.115 34.5915 101.595 39.0252 99.3205C40.7248 98.4623 42.1525 97.8469 43.1553 97.442L44.2941 96.9886C44.634 96.8753 44.634 96.8267 44.719 96.8429Z" fill="white"/>
<path d="M125.775 107.385C125.668 107.329 125.571 107.258 125.486 107.175L124.721 106.543C123.774 105.781 122.78 105.073 121.746 104.422C118.296 102.326 114.635 100.563 110.818 99.1586C107.012 97.7223 103.125 96.4897 99.1751 95.4664C97.6454 95.0616 96.4216 94.7701 95.5548 94.5757L94.586 94.3329C94.468 94.3096 94.3536 94.2715 94.2461 94.2195H94.603L95.5888 94.3976C96.4557 94.5596 97.6964 94.8187 99.226 95.1911C103.214 96.1502 107.131 97.3565 110.954 98.8023C114.793 100.206 118.458 102.009 121.882 104.179C123.308 105.098 124.614 106.174 125.775 107.385Z" fill="white"/>
</svg>
