<svg width="575" height="249" viewBox="0 0 575 249" fill="none" xmlns="http://www.w3.org/2000/svg">
<g clip-path="url(#clip0)">
<path d="M527.478 180.47V196.219C527.478 196.219 524.961 220.238 520.89 243.321L543.228 290.124L538.084 290.433C538.084 290.433 503.641 247.865 502.432 243.321C501.224 238.777 503.241 204.398 503.241 204.398L468.107 225.6L452.958 278.918L447.805 276.801C447.805 276.801 453.058 219.702 454.167 218.33C471.025 197.546 494.762 183.796 494.762 183.796L499.606 175.017L527.478 180.47Z" fill="#263238" stroke="#263238" stroke-linecap="round" stroke-linejoin="round"/>
<path d="M485.165 130.241C485.165 130.241 486.392 136.948 484.619 138.484C482.847 140.02 476.55 141.001 475.832 137.948C475.114 134.894 481.039 104.595 481.757 101.542C482.475 98.4884 484.62 100.288 485.337 101.187C486.055 102.087 485.165 130.241 485.165 130.241Z" fill="#F0BCAA" stroke="#263238" stroke-linecap="round" stroke-linejoin="round"/>
<path d="M516.456 119.127C516.456 119.127 536.159 127.07 542.247 129.778C548.336 132.486 545.101 138.566 544.192 140.683C543.283 142.801 528.67 180.67 528.307 181.351C527.943 182.033 525.58 183.678 522.2 183.669C518.819 183.66 499.08 178.77 498.371 176.398C497.663 174.027 498.926 170.3 498.926 170.3L509.231 138.766C509.231 138.766 484.113 140.129 482.877 139.947C481.641 139.765 478.405 135.812 482.186 132.059C485.966 128.306 509.649 121.908 510.904 120.835C512.158 119.763 514.302 118.4 516.456 119.127Z" fill="white" stroke="#263238" stroke-linecap="round" stroke-linejoin="round"/>
<path d="M485.721 126.288C485.721 126.288 488.947 126.288 490.019 132.931C491.091 139.574 489.483 140.819 487.693 141.174C485.902 141.528 481.776 142.991 479.623 140.819C477.469 138.647 477.287 133.822 478.541 130.059C478.761 129.338 479.121 128.667 479.602 128.085C480.083 127.504 480.675 127.024 481.343 126.673C482.011 126.322 482.741 126.108 483.493 126.041C484.244 125.975 485.002 126.059 485.721 126.288V126.288Z" fill="white" stroke="#263238" stroke-linecap="round" stroke-linejoin="round"/>
<path d="M523.544 119.3L515.474 129.342L521.027 126.288L523.008 131.496L523.544 119.3Z" fill="white" stroke="#263238" stroke-linecap="round" stroke-linejoin="round"/>
<path d="M522.108 113.919L523.181 132.213L530.896 123.961L532.687 112.665L522.108 113.919Z" fill="#F0BCAA" stroke="#263238" stroke-linecap="round" stroke-linejoin="round"/>
<path d="M533.767 119.118L524.516 127.67L526.861 135.213L535.376 125.398L533.767 119.118Z" fill="white" stroke="#263238" stroke-linecap="round" stroke-linejoin="round"/>
<path d="M450.741 175.644C463.147 175.688 475.283 172.017 485.583 165.102C492.026 160.861 497.516 155.325 501.701 148.845C505.886 142.366 508.676 135.086 509.893 127.469C514.801 96.1981 491.863 66.5354 458.693 61.2553L428.021 55.3755L424.831 78.1769L454.621 83.5296L454.948 83.5932C475.85 86.8558 490.391 104.959 487.41 123.961C484.429 142.964 465.09 155.687 444.279 152.524L413.017 146.572L408.764 168.801L440.281 174.79L440.644 174.853C443.984 175.376 447.36 175.641 450.741 175.644V175.644Z" fill="#263238" stroke="#263238" stroke-linecap="round" stroke-linejoin="round"/>
<path d="M451.442 173.2C463.848 173.244 475.984 169.572 486.284 162.658C492.727 158.417 498.217 152.88 502.402 146.401C506.587 139.922 509.377 132.642 510.594 125.025C515.52 93.7537 492.564 64.0819 459.394 58.811L428.722 52.9312L425.578 75.7325L455.368 81.0853C455.475 81.1123 455.584 81.1305 455.695 81.1398C476.597 84.4023 491.137 102.514 488.147 121.517C485.158 140.52 465.837 153.243 445.017 150.08L413.682 144.128L409.383 166.356L440.918 172.345L441.282 172.409C444.643 172.935 448.04 173.2 451.442 173.2V173.2Z" fill="#52CBFF" stroke="#263238" stroke-linecap="round" stroke-linejoin="round"/>
<path d="M449.168 79.9766L425.576 75.7325L428.72 52.9312L452.685 57.5296L449.168 79.9766Z" fill="white" stroke="#263238" stroke-linecap="round" stroke-linejoin="round"/>
<path d="M409.427 166.357L413.681 144.128L438.399 148.817L434.901 171.192L409.427 166.357Z" fill="white" stroke="#263238" stroke-linecap="round" stroke-linejoin="round"/>
<path d="M521.281 165.166C521.281 165.166 488.156 167.075 486.52 166.802C484.885 166.529 479.759 161.049 478.469 160.441C477.178 159.832 474.579 161.722 473.016 162.34C471.453 162.958 470.135 162.131 470.017 163.394C469.899 164.657 470.826 165.148 472.616 165.057C474.406 164.966 475.479 164.721 476.369 164.675C477.26 164.63 474.497 166.575 472.098 168.856C469.699 171.137 467.772 171.955 468.363 173C468.954 174.045 470.38 173.791 471.244 173C472.107 172.209 474.606 172.091 476.578 172C478.55 171.909 481.877 170.292 481.877 170.292C486.481 171.377 491.141 172.211 495.835 172.791C505.968 174.236 520.264 176.362 524.199 175.972C528.134 175.581 530.724 170.246 530.724 170.246L521.281 165.166Z" fill="#F0BCAA" stroke="#263238" stroke-linecap="round" stroke-linejoin="round"/>
<path d="M542.246 129.778C542.246 129.778 547.572 131.85 549.007 134.903C550.443 137.957 548.826 142.973 546.681 146.917C544.536 150.862 531.432 171.455 531.432 171.455L523.543 164.284C523.543 164.284 530.714 141.692 531.613 139.747" fill="white"/>
<path d="M542.246 129.778C542.246 129.778 547.572 131.85 549.007 134.903C550.443 137.957 548.826 142.973 546.681 146.917C544.536 150.862 531.432 171.455 531.432 171.455L523.543 164.284C523.543 164.284 530.714 141.692 531.613 139.747" stroke="#263238" stroke-linecap="round" stroke-linejoin="round"/>
<path d="M525.334 158.395C525.334 158.395 530.896 160.903 533.94 164.311C536.985 167.719 536.667 168.792 534.658 170.945C532.65 173.099 531.432 174.172 530.178 173.281C528.924 172.39 520.491 166.82 519.954 165.384C519.418 163.948 521.208 158.577 522.463 158.032C523.43 157.771 524.462 157.902 525.334 158.395V158.395Z" fill="white" stroke="#263238" stroke-linecap="round" stroke-linejoin="round"/>
<path d="M481.758 101.542C481.758 101.542 476.196 96.3441 475.478 93.8268C474.76 91.3095 476.387 87.3744 476.914 87.1927C477.441 87.0109 477.986 88.1015 477.986 89.5283C477.986 89.5283 479.604 87.5562 479.804 88.9921C479.906 89.8244 479.964 90.6617 479.976 91.5003C479.976 91.5003 481.594 89.6828 481.948 90.9641C482.036 91.3545 482.015 91.7613 481.889 92.1408C481.762 92.5204 481.535 92.8582 481.231 93.118C481.231 93.118 483.566 91.3004 483.566 92.5727C483.486 93.4508 483.107 94.275 482.494 94.9083C482.494 94.9083 485.538 99.0341 485.356 101.188C485.374 101.732 485.177 102.262 484.808 102.663C484.44 103.064 483.928 103.304 483.384 103.333" fill="#F0BCAA"/>
<path d="M481.758 101.542C481.758 101.542 476.196 96.3441 475.478 93.8268C474.76 91.3095 476.387 87.3744 476.914 87.1927C477.441 87.0109 477.986 88.1015 477.986 89.5283C477.986 89.5283 479.604 87.5562 479.804 88.9921C479.906 89.8244 479.964 90.6617 479.976 91.5003C479.976 91.5003 481.594 89.6828 481.948 90.9641C482.036 91.3545 482.015 91.7613 481.889 92.1408C481.762 92.5204 481.535 92.8582 481.231 93.118C481.231 93.118 483.566 91.3004 483.566 92.5727C483.486 93.4508 483.107 94.275 482.494 94.9083C482.494 94.9083 485.538 99.0341 485.356 101.188C485.374 101.732 485.177 102.262 484.808 102.663C484.44 103.064 483.928 103.304 483.384 103.333" stroke="#263238" stroke-linecap="round" stroke-linejoin="round"/>
<path d="M481.176 93.1177C481.176 93.1177 479.922 94.3718 480.103 95.4442" stroke="#263238" stroke-linecap="round" stroke-linejoin="round"/>
<path d="M479.957 91.5C479.957 91.5 478.521 93.4721 478.521 94.7262" stroke="#263238" stroke-linecap="round" stroke-linejoin="round"/>
<path d="M477.987 89.5278C477.187 90.6344 476.692 91.9319 476.551 93.2902" stroke="#263238" stroke-linecap="round" stroke-linejoin="round"/>
<path d="M524.516 127.67L523.18 132.214L525.815 131.314L524.516 127.67Z" fill="white" stroke="#263238" stroke-linecap="round" stroke-linejoin="round"/>
<path d="M522.462 88.81C522.462 88.81 523.544 85.5838 528.024 85.2203C532.504 84.8567 540.584 91.3182 541.301 95.8076C542.019 100.297 535.376 112.302 533.404 114.092C531.432 115.883 519.357 117 516.5 113C514 109.5 518.882 95.6258 522.462 88.81Z" fill="#F0BCAA" stroke="#263238" stroke-linecap="round" stroke-linejoin="round"/>
<path d="M522.824 99.752C522.824 99.752 521.007 102.078 519.952 102.26C518.898 102.442 518.091 102.909 519 104C519.909 105.091 522.079 104.987 522.079 104.987" stroke="#263238" stroke-linecap="round" stroke-linejoin="round"/>
<path d="M522.071 107.994C522.071 107.994 526.015 108.903 527.806 106.022" stroke="#263238" stroke-linecap="round" stroke-linejoin="round"/>
<path d="M527.125 105.304L528.742 106.74" stroke="#263238" stroke-linecap="round" stroke-linejoin="round"/>
<path d="M527.843 101.542C527.161 101.008 526.365 100.641 525.516 100.47" stroke="#263238" stroke-linecap="round" stroke-linejoin="round"/>
<path d="M530.532 98.6701C530.532 98.6701 529.46 97.0616 526.052 97.7613" stroke="#263238" stroke-linecap="round" stroke-linejoin="round"/>
<path d="M524.799 95.7895C524.799 95.7895 524.981 93.0632 522.463 93.2722" stroke="#263238" stroke-linecap="round" stroke-linejoin="round"/>
<path d="M520.362 98.2703C520.071 98.9065 520.062 99.5154 520.362 99.6426C520.662 99.7698 521.08 99.3427 521.371 98.7338C521.662 98.1249 521.662 97.4888 521.371 97.3706C521.08 97.2525 520.644 97.6069 520.362 98.2703Z" fill="#263238"/>
<path d="M536.812 106.386C536.812 106.386 534.085 105.668 534.085 104.232C534.085 102.796 535.167 102.415 534.803 101.36C534.44 100.306 531.932 98.8521 532.649 97.2345C533.367 95.6169 536.957 95.626 536.594 94.3718C536.23 93.1177 524.225 90.0642 523.325 86.3018C522.426 82.5395 526.379 77.8683 529.423 78.0501C532.468 78.2318 530.859 81.9942 530.859 81.9942C530.859 81.9942 539.829 79.2678 541.619 82.7121C543.41 86.1564 540.002 87.7377 540.002 87.7377C540.002 87.7377 546.281 90.6004 546.817 94.908C547.354 99.2156 539.829 107.458 538.211 107.994C536.594 108.531 536.812 106.386 536.812 106.386Z" fill="#263238" stroke="#263238" stroke-linecap="round" stroke-linejoin="round"/>
<path d="M535.376 107.458C535.376 107.458 536.458 104.95 538.43 105.131C540.402 105.313 539.866 108.176 537.894 110.511C535.922 112.847 533.586 111.229 533.404 110.693" fill="#F0BCAA"/>
<path d="M535.376 107.458C535.376 107.458 536.458 104.95 538.43 105.131C540.402 105.313 539.866 108.176 537.894 110.511C535.922 112.847 533.586 111.229 533.404 110.693" stroke="#263238" stroke-linecap="round" stroke-linejoin="round"/>
<path d="M352.693 97.9614H377.176V114.056H352.693V97.9614Z" fill="white" stroke="#263238" stroke-linecap="round" stroke-linejoin="round"/>
<path d="M377.176 97.9614L364.934 106.004L352.693 97.9614" stroke="#263238" stroke-linecap="round" stroke-linejoin="round"/>
<path d="M300.757 65.7927L324.475 59.7207L328.466 75.3124L304.749 81.3844L300.757 65.7927Z" fill="white" stroke="#263238" stroke-linecap="round" stroke-linejoin="round"/>
<path d="M324.484 59.7378L314.624 70.5705L300.765 65.8085" stroke="#263238" stroke-linecap="round" stroke-linejoin="round"/>
<path d="M314.676 148.188L338.394 142.116L342.385 157.707L318.668 163.779L314.676 148.188Z" fill="white" stroke="#263238" stroke-linecap="round" stroke-linejoin="round"/>
<path d="M338.427 142.137L328.557 152.97L314.707 148.208" stroke="#263238" stroke-linecap="round" stroke-linejoin="round"/>
<path d="M288.605 93.1257L312.322 87.0537L316.314 102.645L292.596 108.717L288.605 93.1257Z" fill="white" stroke="#263238" stroke-linecap="round" stroke-linejoin="round"/>
<path d="M312.335 87.0737L302.475 97.9064L288.616 93.1535" stroke="#263238" stroke-linecap="round" stroke-linejoin="round"/>
<path d="M310.906 120.967L326.577 102.157L338.942 112.46L323.271 131.269L310.906 120.967Z" fill="white" stroke="#263238" stroke-linecap="round" stroke-linejoin="round"/>
<path d="M326.575 102.151L324.921 116.71L310.899 120.963" stroke="#263238" stroke-linecap="round" stroke-linejoin="round"/>
<path d="M280.013 62.7993L295.685 43.9897L308.05 54.292L292.378 73.1016L280.013 62.7993Z" fill="white" stroke="#263238" stroke-linecap="round" stroke-linejoin="round"/>
<path d="M295.677 43.9883L294.023 58.547L280 62.8001" stroke="#263238" stroke-linecap="round" stroke-linejoin="round"/>
<path d="M293.821 116.598L313.407 131.043L303.911 143.919L284.325 129.474L293.821 116.598Z" fill="white" stroke="#263238" stroke-width="0.994032" stroke-linecap="round" stroke-linejoin="round"/>
<path d="M311.072 130.823L296.45 130.041L291.361 116.3" stroke="#263238" stroke-linecap="round" stroke-linejoin="round"/>
<path d="M411.991 45.2241H436.474V61.3187H411.991V45.2241Z" fill="white" stroke="#263238" stroke-linecap="round" stroke-linejoin="round"/>
<path d="M436.474 45.2241L424.232 53.2669L411.991 45.2241" stroke="#263238" stroke-linecap="round" stroke-linejoin="round"/>
<path d="M388.367 57.6337L406.097 40.75L417.196 52.4052L399.466 69.2889L388.367 57.6337Z" fill="white" stroke="#263238" stroke-linecap="round" stroke-linejoin="round"/>
<path d="M406.111 40.7529L402.794 55.0208L388.381 57.6381" stroke="#263238" stroke-linecap="round" stroke-linejoin="round"/>
<path d="M324.46 33.9998L346.627 44.3931L339.795 58.9654L317.627 48.5722L324.46 33.9998Z" fill="white" stroke="#263238" stroke-linecap="round" stroke-linejoin="round"/>
<path d="M346.622 44.4152L332.127 46.5054L324.457 34.0278" stroke="#263238" stroke-linecap="round" stroke-linejoin="round"/>
<path d="M364.032 66.8854L358.117 43.1279L373.735 39.2398L379.65 62.9972L364.032 66.8854Z" fill="white" stroke="#263238" stroke-linecap="round" stroke-linejoin="round"/>
<path d="M358.11 43.1338L368.879 53.0668L364.026 66.8894" stroke="#263238" stroke-linecap="round" stroke-linejoin="round"/>
<path d="M417.476 132.437L437.57 146.423L428.376 159.633L408.282 145.646L417.476 132.437Z" fill="white" stroke="#263238" stroke-linecap="round" stroke-linejoin="round"/>
<path d="M437.566 146.409L422.926 146.018L417.473 132.422" stroke="#263238" stroke-linecap="round" stroke-linejoin="round"/>
<path d="M387.756 135.692L407.832 149.647L398.658 162.845L378.582 148.889L387.756 135.692Z" fill="white" stroke="#263238" stroke-width="0.998649" stroke-linecap="round" stroke-linejoin="round"/>
<path d="M407.376 149.471L392.735 149.08L387.283 135.485" stroke="#263238" stroke-linecap="round" stroke-linejoin="round"/>
<path d="M409.442 67.2575L431.219 56.0703L438.573 70.3864L416.796 81.5735L409.442 67.2575Z" fill="white" stroke="#263238" stroke-linecap="round" stroke-linejoin="round"/>
<path d="M431.212 56.0659L423.996 68.8162L409.437 67.2531" stroke="#263238" stroke-linecap="round" stroke-linejoin="round"/>
<path d="M399.806 160.446L421.583 149.259L428.937 163.575L407.16 174.762L399.806 160.446Z" fill="white" stroke="#263238" stroke-linecap="round" stroke-linejoin="round"/>
<path d="M421.589 149.253L414.373 162.012L399.805 160.449" stroke="#263238" stroke-linecap="round" stroke-linejoin="round"/>
<path d="M442.553 128.959L482.556 136.684L486.763 127.899L488.446 119.576L445.532 110.329L442.553 128.959Z" fill="#52CBFF" stroke="#263238"/>
<path d="M486.629 120.781L489.355 118.509L490.264 121.235L485.72 135.321L482.085 138.502L481.63 134.413L486.629 120.781Z" fill="#52CBFF"/>
<path d="M444.371 131.232L442.099 128.96L481.631 136.685L479.813 138.502L444.371 131.232Z" fill="#263238"/>
</g>
<defs>
<clipPath id="clip0">
<rect width="575" height="249" fill="white"/>
</clipPath>
</defs>
</svg>
