<svg width="575" height="249" viewBox="0 0 575 249" fill="none" xmlns="http://www.w3.org/2000/svg">
<g clip-path="url(#clip0)">
<path d="M438.319 46.0257H403.882C402.891 46.0269 401.917 46.2937 401.063 46.7983C400.209 47.303 399.506 48.0271 399.027 48.8954V48.8954C398.181 50.4227 396.941 51.6956 395.437 52.5819C393.933 53.4682 392.218 53.9356 390.472 53.9356C388.726 53.9356 387.012 53.4682 385.508 52.5819C384.003 51.6956 382.764 50.4227 381.917 48.8954V48.8954C381.442 48.0159 380.738 47.2812 379.879 46.7692C379.02 46.2572 378.039 45.9869 377.039 45.9869H342.641C341.697 45.9746 340.76 46.1485 339.883 46.4985C339.006 46.8485 338.206 47.3678 337.53 48.0268C336.854 48.6858 336.314 49.4716 335.941 50.3392C335.569 51.2069 335.371 52.1395 335.358 53.0837V247.309C335.385 249.215 336.167 251.033 337.532 252.363C338.898 253.694 340.735 254.428 342.641 254.405H438.319C440.226 254.428 442.064 253.694 443.431 252.364C444.797 251.033 445.581 249.215 445.609 247.309V53.1224C445.583 51.2148 444.8 49.3958 443.433 48.0651C442.066 46.7344 440.226 46.0009 438.319 46.0257Z" fill="#52CBFF"/>
<path d="M448.968 50.9742C448.972 49.6658 448.718 48.3695 448.22 47.1596C447.722 45.9496 446.99 44.8498 446.066 43.9232C445.143 42.9967 444.045 42.2615 442.837 41.7598C441.628 41.2582 440.333 41 439.025 41H341.943C340.638 40.999 339.345 41.2552 338.139 41.7541C336.932 42.2529 335.836 42.9846 334.913 43.9073C333.989 44.83 333.257 45.9256 332.757 47.1315C332.257 48.3374 332 49.63 332 50.9354V50.9354V255.065C332 257.7 333.047 260.227 334.91 262.09C336.773 263.953 339.3 265 341.935 265H439.025C441.66 265 444.188 263.954 446.053 262.09C447.917 260.227 448.966 257.7 448.968 255.065V255.065V50.9742ZM445.609 247.309C445.581 249.216 444.797 251.033 443.431 252.364C442.064 253.694 440.226 254.428 438.319 254.405H342.641C340.735 254.428 338.897 253.694 337.532 252.363C336.167 251.033 335.385 249.215 335.358 247.309V53.1226C335.37 52.1784 335.568 51.2458 335.941 50.3782C336.314 49.5105 336.854 48.7247 337.53 48.0657C338.206 47.4067 339.006 46.8874 339.883 46.5374C340.76 46.1874 341.697 46.0136 342.641 46.0259H377.054C378.053 46.0256 379.034 46.2958 379.891 46.8079C380.749 47.32 381.452 48.0549 381.925 48.9344V48.9344C382.771 50.4616 384.011 51.7345 385.515 52.6208C387.02 53.5071 388.734 53.9745 390.48 53.9745C392.226 53.9745 393.94 53.5071 395.445 52.6208C396.949 51.7345 398.189 50.4616 399.035 48.9344C399.513 48.0649 400.216 47.3399 401.07 46.8351C401.924 46.3303 402.898 46.0642 403.89 46.0646H438.327C439.271 46.0523 440.208 46.2262 441.085 46.5762C441.962 46.9262 442.762 47.4455 443.438 48.1045C444.114 48.7635 444.654 49.5493 445.027 50.4169C445.399 51.2846 445.597 52.2172 445.609 53.1613V247.309Z" fill="#263238"/>
<path d="M486.654 122.256C486.654 122.256 453.282 132.599 447 124.43L447.852 82.7651H452.918L458.874 112.116L486.223 107.107C486.223 107.107 489.728 117.966 486.654 122.256Z" fill="white"/>
<path d="M486.654 122.256C486.654 122.256 453.282 132.599 447 124.43L447.852 82.7651H452.918L458.874 112.116L486.223 107.107C486.223 107.107 489.728 117.966 486.654 122.256Z" stroke="#263238" stroke-linecap="round" stroke-linejoin="round"/>
<path d="M483.379 123.348L489.24 159.43C489.087 182.815 500.243 179.301 507.99 179.234C516.943 179.157 530.532 170.28 523.867 156.462L526.433 106.447L510.834 105.259C505.691 104.857 484.624 105.518 482.949 108.209C478.601 115.189 483.379 123.348 483.379 123.348Z" fill="white"/>
<path d="M483.379 123.348L489.24 159.43C489.087 182.815 500.243 179.301 507.99 179.234C516.943 179.157 530.532 170.28 523.867 156.462L526.433 106.447L510.834 105.259C505.691 104.857 484.624 105.518 482.949 108.209C478.601 115.189 483.379 123.348 483.379 123.348Z" stroke="#263238" stroke-linecap="round" stroke-linejoin="round"/>
<path d="M541.131 129.008C538.791 125.6 537.066 121.808 536.037 117.804C535.662 115.798 535.077 113.837 534.294 111.953C533.555 110.498 532.487 109.234 531.176 108.262C529.865 107.29 528.346 106.635 526.738 106.351C526.052 106.2 525.339 106.233 524.67 106.447C523.281 106.973 522.669 108.573 522.391 110.028C521.79 113.154 521.967 116.381 522.908 119.422C523.55 121.491 531.258 136.487 536.314 142.299C535.874 139.369 539.245 129.573 541.131 129.008Z" fill="white"/>
<path d="M541.131 129.008C538.791 125.6 537.066 121.808 536.037 117.804C535.662 115.798 535.077 113.837 534.294 111.953C533.555 110.498 532.487 109.234 531.176 108.262C529.865 107.29 528.346 106.635 526.738 106.351C526.052 106.2 525.339 106.233 524.67 106.447C523.281 106.973 522.669 108.573 522.391 110.028C521.79 113.154 521.967 116.381 522.908 119.422C523.55 121.491 531.258 136.487 536.314 142.299C535.874 139.369 539.245 129.573 541.131 129.008Z" stroke="#263238" stroke-linecap="round" stroke-linejoin="round"/>
<path d="M534.486 139.733C529.334 129.86 531.824 107.107 531.671 103.449L538.47 103.085C539.15 103.085 542.3 122.486 544.445 130.54C546.361 137.875 544.522 145.296 541.132 145.296C538.317 145.296 535.568 141.811 534.486 139.733Z" fill="white" stroke="#263238" stroke-linecap="round" stroke-linejoin="round"/>
<path d="M454.623 118.014C456.071 116.684 457.206 115.048 457.946 113.226Z" fill="white"/>
<path d="M454.623 118.014C456.071 116.684 457.206 115.048 457.946 113.226" stroke="#263238" stroke-linecap="round" stroke-linejoin="round"/>
<path d="M490.197 151.051C492.926 155.523 510.604 160.302 517.652 159.277" stroke="#263238" stroke-linecap="round" stroke-linejoin="round"/>
<path d="M495.196 163.672C500.288 164.549 505.507 164.35 510.518 163.088" stroke="#263238" stroke-linecap="round" stroke-linejoin="round"/>
<path d="M526.872 166.191C526.872 166.191 531.919 174.963 533.001 177.002C534.083 179.042 556.941 209.082 561.327 230.953C562.15 235.109 545.287 281.591 545.287 281.591L541.456 279.427C541.456 279.427 544.119 237.034 543.467 233.51C542.816 229.986 525.991 203.978 525.991 203.978C525.991 203.978 516.597 197.073 512.729 189.049L526.872 166.191Z" fill="#263238"/>
<path d="M527.419 188.168C527.419 188.168 524.546 194.565 524.546 195.484C524.546 196.403 540.347 246.332 544.991 257.881C547.928 265.318 550.516 272.928 552.757 280.71C552.757 280.71 554.557 283.075 553.198 285.498C551.838 287.921 546.427 289.51 545.317 287.346C544.206 285.182 533.26 273.94 528.645 262.755C524.029 251.57 517.537 232.878 513.84 225.916C508.999 217.021 504.701 207.839 500.97 198.424C496.326 186.54 491.576 173.727 491.576 173.727C493.505 173.901 495.443 173.955 497.379 173.89C501.938 173.735 506.451 172.935 510.786 171.515C520.879 168.125 525.245 161.633 525.245 161.633C525.245 161.633 527.745 168.403 528.396 169.715L527.419 188.168Z" fill="#263238"/>
<path d="M538.327 103.095L536.316 103.258C533.768 103.71 531.151 103.589 528.655 102.903C527.056 102.511 523.35 101.361 522.91 101.285C521.809 101.049 520.697 100.87 519.577 100.749C516.197 100.548 517.911 99.2835 519.319 99.3409C521.177 99.4271 521.799 99.3888 523.226 99.4941C523.053 99.3984 522.527 99.2931 522.517 98.8813C522.517 97.8758 523.839 97.9237 523.839 97.9237C523.839 97.9237 522.393 97.3108 522.594 96.5543C522.795 95.7978 523.762 95.5967 524.375 95.6542C524.375 95.6542 523.561 95.2616 523.599 94.8402C523.772 93.2123 527.114 93.0974 527.114 93.0974C527.114 93.0974 526.15 93.0977 525.936 92.331C525.723 91.5643 527.938 91.215 529.288 92.3313C530.322 93.0686 530.465 92.858 531.557 93.5188C532.621 94.4293 533.479 95.5554 534.075 96.8225C534.248 97.0906 538.327 103.095 538.327 103.095Z" fill="#F0BCAA" stroke="#263238" stroke-linecap="round" stroke-linejoin="round"/>
<path d="M447.852 82.7651V77.4888C447.839 74.8411 448.227 72.2068 449.001 69.6748C449.441 68.2767 449.959 67.0605 450.428 66.8786C451.299 66.5626 451.682 70.0961 451.682 70.0961C451.027 67.2628 450.608 64.3802 450.428 61.4778C450.428 58.4039 454.565 71.1686 454.565 71.1686L452.918 82.7651H447.852Z" fill="#F0BCAA" stroke="#263238" stroke-linecap="round" stroke-linejoin="round"/>
<path d="M452.852 74.1854C453.352 73.7992 453.725 73.2723 453.924 72.6724Z" fill="white"/>
<path d="M452.852 74.1854C453.352 73.7992 453.725 73.2723 453.924 72.6724" stroke="#263238" stroke-linecap="round" stroke-linejoin="round"/>
<path d="M492.955 93.7677C494.744 96.7787 495.732 100.197 495.828 103.698C496 109.52 502.742 117.669 504.666 118.062C506.591 118.455 508.372 108.869 508.286 105.967C508.2 103.066 507.128 95.0508 507.128 95.0508C507.128 95.0508 497.906 88.0795 492.955 93.7677Z" fill="#F0BCAA" stroke="#263238" stroke-linecap="round" stroke-linejoin="round"/>
<path d="M495.666 101.476C495.666 101.476 504.505 113.532 507.971 101.275C511.438 89.018 498.252 104.627 495.666 101.476Z" fill="#263238"/>
<path d="M510.584 92.8103C510.115 99.9635 506.849 103.985 503.086 104.694C499.648 105.326 494.621 101.821 492.112 96.6215C491.92 96.497 488.866 94.3808 488.138 93.8637C487.758 93.5977 487.448 93.2436 487.234 92.8317C487.021 92.4198 486.91 91.9623 486.912 91.4984C486.936 91.0532 487.094 90.6256 487.363 90.2705C487.633 89.9155 488.003 89.6494 488.425 89.5066H488.511C488.942 89.4127 489.391 89.446 489.804 89.6023C489.172 87.1605 488.655 84.6803 488.262 82.181C488.444 76.4354 490.35 71.7432 496.479 71.2835C502.607 70.8239 507.73 74.2521 507.97 76.7227C508.142 78.6379 508.764 83.7036 509.32 88.9416C509.473 90.3014 510.689 91.2015 510.584 92.8103Z" fill="#F0BCAA" stroke="#263238" stroke-linecap="round" stroke-linejoin="round"/>
<path d="M507.971 84.5367C507.971 84.5367 504.025 82.7269 504.696 88.6065C504.83 89.7652 506.984 91.4793 506.984 91.4793C506.984 91.4793 506.429 93.2125 505.404 93.2125" stroke="#263238" stroke-linecap="round" stroke-linejoin="round"/>
<path d="M500.348 86.5473C500.348 86.5473 498.337 85.3216 496.958 86.0781C496.239 86.3909 495.627 86.9068 495.196 87.5624" stroke="#263238" stroke-linecap="round" stroke-linejoin="round"/>
<path d="M501.114 90.8952C501.267 91.6038 501.114 92.2358 500.702 92.322C500.29 92.4082 499.888 91.8911 499.744 91.1825C499.601 90.4738 499.744 89.8418 500.166 89.7556C500.587 89.6694 500.97 90.177 501.114 90.8952Z" fill="#263238"/>
<path d="M508.889 88.8271C509.043 89.5357 508.889 90.1677 508.478 90.2539C508.066 90.3401 507.664 89.823 507.52 89.1239C507.376 88.4249 507.52 87.7737 507.932 87.6971C508.344 87.6205 508.746 88.128 508.889 88.8271Z" fill="#263238"/>
<path d="M487.804 74.7597C487.103 75.4458 486.618 76.3209 486.406 77.2782C485.832 79.3029 485.666 81.4213 485.918 83.5106C486.169 85.5999 486.833 87.6185 487.871 89.4492C488.509 89.3709 489.156 89.3967 489.786 89.5258C490.456 89.6982 491.318 90.8473 491.634 91.441C491.911 92.074 492.07 92.7522 492.103 93.4424C491.95 91.623 491.806 89.8131 491.653 87.9937C491.55 87.2662 491.583 86.526 491.749 85.8103V85.8103C492.218 84.3165 491.701 80.7925 491.835 77.642C495.809 82.4971 501.583 81.6352 503.499 81.4724C506.371 81.233 508.823 78.2932 508.67 76.1961C508.516 74.0989 507.951 68.6981 498.481 68.1427C496.394 67.9206 494.291 68.3594 492.467 69.3971C491.889 69.778 491.398 70.277 491.027 70.8613C490.655 71.4456 490.412 72.1019 490.313 72.787C490.178 73.668 490.514 73.7446 489.843 74.1755C489.173 74.6065 488.464 74.1947 487.804 74.7597Z" fill="#263238" stroke="#263238" stroke-linecap="round" stroke-linejoin="round"/>
<path d="M493.251 80.3269C498.277 72.6538 507.6 80.2623 508.5 76.4999C509.4 72.7376 505.044 65.3181 502 65.4999C498.956 65.6816 498.986 67.9492 498.986 67.9492C498.986 67.9492 490.016 65.2229 488.226 68.6672C486.435 72.1115 492.687 70.8855 489.843 73.6928C487 76.5 488.226 88 493.251 80.3269Z" fill="#263238" stroke="#263238" stroke-linecap="round" stroke-linejoin="round"/>
<path d="M500.349 96.583C500.349 96.583 501.756 98.1343 504.696 97.1097Z" fill="white"/>
<path d="M500.349 96.583C500.349 96.583 501.756 98.1343 504.696 97.1097" stroke="#263238" stroke-linecap="round" stroke-linejoin="round"/>
<path d="M364.335 70.11C362.656 70.11 361.42 69.747 360.628 69.021C359.836 68.2877 359.44 67.261 359.44 65.941C359.44 64.6357 359.832 63.6163 360.617 62.883C361.409 62.1497 362.648 61.783 364.335 61.783C366.029 61.783 367.268 62.1497 368.053 62.883C368.845 63.6163 369.241 64.6357 369.241 65.941C369.241 67.2683 368.849 68.295 368.064 69.021C367.279 69.747 366.036 70.11 364.335 70.11ZM364.335 67.866C365.149 67.866 365.736 67.712 366.095 67.404C366.454 67.0887 366.634 66.601 366.634 65.941C366.634 65.2957 366.454 64.8153 366.095 64.5C365.736 64.1847 365.149 64.027 364.335 64.027C363.528 64.027 362.945 64.1847 362.586 64.5C362.227 64.8153 362.047 65.2957 362.047 65.941C362.047 66.5937 362.227 67.0777 362.586 67.393C362.945 67.7083 363.528 67.866 364.335 67.866ZM376.883 63.994C376.831 64.918 376.806 65.9153 376.806 66.986C376.806 68.064 376.831 69.0687 376.883 70C376.413 69.978 376.043 69.967 375.772 69.967C375.515 69.967 375.145 69.978 374.661 70L374.342 68.383C374.173 68.9697 373.909 69.406 373.55 69.692C373.19 69.9707 372.772 70.11 372.296 70.11C371.856 70.11 371.474 70.0147 371.152 69.824C370.829 69.626 370.583 69.362 370.415 69.032C370.253 68.702 370.173 68.3317 370.173 67.921V66.337C370.173 65.3617 370.154 64.5807 370.118 63.994H372.593C372.549 65.072 372.527 66.139 372.527 67.195C372.527 67.5177 372.604 67.7743 372.758 67.965C372.919 68.1557 373.121 68.251 373.363 68.251C373.59 68.251 373.788 68.152 373.957 67.954C374.133 67.7487 374.239 67.47 374.276 67.118V66.865C374.29 66.293 374.298 65.897 374.298 65.677C374.298 65.171 374.283 64.61 374.254 63.994H376.883ZM382.749 65.963C382.075 65.919 381.459 65.886 380.901 65.864L380.89 67.03C380.89 67.426 380.975 67.7377 381.143 67.965C381.319 68.185 381.627 68.295 382.067 68.295C382.236 68.295 382.397 68.2803 382.551 68.251C382.522 68.5223 382.507 68.7973 382.507 69.076C382.507 69.208 382.515 69.5087 382.529 69.978C382.207 70.0367 381.935 70.0733 381.715 70.088C381.495 70.1027 381.209 70.11 380.857 70.11C379.999 70.11 379.391 69.9047 379.031 69.494C378.679 69.076 378.503 68.4967 378.503 67.756L378.514 65.897C378.17 65.9117 377.81 65.9337 377.436 65.963V64.016C377.818 64.016 378.14 63.895 378.404 63.653C378.668 63.411 378.826 63.1213 378.877 62.784H381.869C381.495 63.2973 381.081 63.708 380.626 64.016H382.749V65.963ZM388.598 63.994H390.71C390.673 65.1967 390.655 66.9053 390.655 69.12C390.655 69.9927 390.479 70.7077 390.127 71.265C389.782 71.8223 389.324 72.2257 388.752 72.475C388.18 72.7317 387.542 72.86 386.838 72.86C386.141 72.86 385.518 72.7573 384.968 72.552C384.418 72.354 384 72.0863 383.714 71.749L384.209 70.066C384.605 70.2933 384.979 70.4547 385.331 70.55C385.683 70.6527 386.049 70.704 386.431 70.704C387.677 70.704 388.301 70.176 388.301 69.12C388.301 68.966 388.304 68.856 388.312 68.79C388.312 68.746 388.312 68.6873 388.312 68.614C388.319 68.5407 388.319 68.4453 388.312 68.328C387.938 69.3693 387.146 69.89 385.936 69.89C385.444 69.89 385.004 69.758 384.616 69.494C384.234 69.23 383.937 68.8743 383.725 68.427C383.512 67.9723 383.406 67.4737 383.406 66.931C383.406 66.3737 383.512 65.864 383.725 65.402C383.937 64.9327 384.234 64.5623 384.616 64.291C384.997 64.0197 385.426 63.884 385.903 63.884C387.142 63.884 387.949 64.3203 388.323 65.193L388.598 63.994ZM387.08 68.13C387.248 68.13 387.424 68.0933 387.608 68.02C387.791 67.9393 387.949 67.8147 388.081 67.646C388.213 67.47 388.279 67.2537 388.279 66.997C388.279 66.5423 388.176 66.2197 387.971 66.029C387.765 65.831 387.461 65.732 387.058 65.732C386.706 65.732 386.427 65.8493 386.222 66.084C386.016 66.3187 385.914 66.623 385.914 66.997C385.914 67.3343 386.024 67.6093 386.244 67.822C386.471 68.0273 386.75 68.13 387.08 68.13ZM395.133 70.11C393.879 70.11 392.955 69.824 392.361 69.252C391.775 68.6727 391.481 67.9137 391.481 66.975C391.481 66.0583 391.775 65.314 392.361 64.742C392.955 64.17 393.879 63.884 395.133 63.884C395.977 63.884 396.681 64.0233 397.245 64.302C397.817 64.5733 398.239 64.9437 398.51 65.413C398.782 65.875 398.917 66.3957 398.917 66.975C398.917 67.921 398.602 68.68 397.971 69.252C397.348 69.824 396.402 70.11 395.133 70.11ZM395.177 68.24C395.654 68.24 396.01 68.1263 396.244 67.899C396.479 67.6717 396.596 67.3673 396.596 66.986C396.596 66.6267 396.479 66.3333 396.244 66.106C396.01 65.8713 395.654 65.754 395.177 65.754C394.701 65.754 394.352 65.8677 394.132 66.095C393.912 66.3223 393.802 66.6193 393.802 66.986C393.802 67.3673 393.912 67.6717 394.132 67.899C394.352 68.1263 394.701 68.24 395.177 68.24ZM401.165 63.345C400.703 63.345 400.358 63.2313 400.131 63.004C399.911 62.7767 399.801 62.4797 399.801 62.113C399.801 61.7537 399.911 61.4567 400.131 61.222C400.358 60.9873 400.703 60.87 401.165 60.87C401.605 60.87 401.942 60.991 402.177 61.233C402.412 61.4677 402.529 61.761 402.529 62.113C402.529 62.4797 402.415 62.7767 402.188 63.004C401.961 63.2313 401.62 63.345 401.165 63.345ZM399.889 70C399.94 68.8193 399.966 67.844 399.966 67.074C399.966 66.1573 399.937 65.1307 399.878 63.994H402.518C402.459 65.0867 402.43 66.1133 402.43 67.074C402.43 67.8807 402.456 68.856 402.507 70H399.889ZM407.805 70C407.849 68.922 407.871 67.9283 407.871 67.019C407.871 66.6963 407.791 66.4397 407.629 66.249C407.475 66.0583 407.277 65.963 407.035 65.963C406.793 65.963 406.588 66.073 406.419 66.293C406.251 66.5057 406.152 66.799 406.122 67.173C406.108 67.7303 406.1 68.1263 406.1 68.361C406.1 68.8597 406.115 69.406 406.144 70H403.515C403.574 68.944 403.603 67.9467 403.603 67.008C403.603 66.0693 403.574 65.0647 403.515 63.994C403.999 64.016 404.37 64.027 404.626 64.027C404.898 64.027 405.268 64.016 405.737 63.994L406.056 65.611C406.225 65.0243 406.489 64.5917 406.848 64.313C407.208 64.027 407.626 63.884 408.102 63.884C408.542 63.884 408.924 63.983 409.246 64.181C409.569 64.3717 409.811 64.632 409.972 64.962C410.141 65.292 410.225 65.6623 410.225 66.073V67.657C410.225 68.6323 410.244 69.4133 410.28 70H407.805ZM416.356 63.994H418.468C418.431 65.1967 418.413 66.9053 418.413 69.12C418.413 69.9927 418.237 70.7077 417.885 71.265C417.54 71.8223 417.082 72.2257 416.51 72.475C415.938 72.7317 415.3 72.86 414.596 72.86C413.899 72.86 413.276 72.7573 412.726 72.552C412.176 72.354 411.758 72.0863 411.472 71.749L411.967 70.066C412.363 70.2933 412.737 70.4547 413.089 70.55C413.441 70.6527 413.807 70.704 414.189 70.704C415.435 70.704 416.059 70.176 416.059 69.12C416.059 68.966 416.062 68.856 416.07 68.79C416.07 68.746 416.07 68.6873 416.07 68.614C416.077 68.5407 416.077 68.4453 416.07 68.328C415.696 69.3693 414.904 69.89 413.694 69.89C413.202 69.89 412.762 69.758 412.374 69.494C411.992 69.23 411.695 68.8743 411.483 68.427C411.27 67.9723 411.164 67.4737 411.164 66.931C411.164 66.3737 411.27 65.864 411.483 65.402C411.695 64.9327 411.992 64.5623 412.374 64.291C412.755 64.0197 413.184 63.884 413.661 63.884C414.9 63.884 415.707 64.3203 416.081 65.193L416.356 63.994ZM414.838 68.13C415.006 68.13 415.182 68.0933 415.366 68.02C415.549 67.9393 415.707 67.8147 415.839 67.646C415.971 67.47 416.037 67.2537 416.037 66.997C416.037 66.5423 415.934 66.2197 415.729 66.029C415.523 65.831 415.219 65.732 414.816 65.732C414.464 65.732 414.185 65.8493 413.98 66.084C413.774 66.3187 413.672 66.623 413.672 66.997C413.672 67.3343 413.782 67.6093 414.002 67.822C414.229 68.0273 414.508 68.13 414.838 68.13Z" fill="#263238"/>
<circle cx="358.5" cy="106.5" r="13" fill="white" stroke="#263238"/>
<rect x="377.5" y="95.5" width="56" height="21" rx="5.5" fill="white" stroke="#263238"/>
<path d="M384 101.5H427.5" stroke="#263238" stroke-linecap="round" stroke-linejoin="round"/>
<path d="M384 106H413" stroke="#263238" stroke-linecap="round" stroke-linejoin="round"/>
<path d="M384 110H419" stroke="#263238" stroke-linecap="round" stroke-linejoin="round"/>
<path d="M358.7 100.155C359.2 100.155 359.67 100.21 360.11 100.32C360.55 100.43 360.975 100.605 361.385 100.845L360.83 101.925C360.55 101.775 360.22 101.635 359.84 101.505C359.47 101.375 359.09 101.31 358.7 101.31C357.18 101.31 356.235 102.265 355.865 104.175H359.525V105.15H355.76C355.75 105.25 355.745 105.345 355.745 105.435C355.745 105.525 355.745 105.62 355.745 105.72C355.745 105.81 355.745 105.91 355.745 106.02C355.745 106.12 355.75 106.225 355.76 106.335H359.075V107.31H355.88C356.05 108.16 356.375 108.82 356.855 109.29C357.345 109.75 358 109.98 358.82 109.98C359.21 109.98 359.6 109.935 359.99 109.845C360.39 109.745 360.745 109.63 361.055 109.5V110.67C360.745 110.8 360.4 110.91 360.02 111C359.65 111.1 359.225 111.15 358.745 111.15C357.535 111.15 356.585 110.805 355.895 110.115C355.215 109.425 354.765 108.49 354.545 107.31H353.345V106.335H354.425C354.415 106.215 354.41 106.115 354.41 106.035C354.41 105.955 354.41 105.85 354.41 105.72C354.41 105.61 354.41 105.505 354.41 105.405C354.42 105.295 354.425 105.21 354.425 105.15H353.345V104.175H354.53C354.72 102.945 355.165 101.97 355.865 101.25C356.565 100.52 357.51 100.155 358.7 100.155Z" fill="#263238"/>
<circle cx="358.5" cy="142.5" r="13" fill="white" stroke="#263238"/>
<rect x="377.5" y="131.5" width="56" height="21" rx="5.5" fill="white" stroke="#263238"/>
<path d="M384 138H420" stroke="#263238" stroke-linecap="round" stroke-linejoin="round"/>
<path d="M384 142.5H426" stroke="#263238" stroke-linecap="round" stroke-linejoin="round"/>
<path d="M384 146.5H413" stroke="#263238" stroke-linecap="round" stroke-linejoin="round"/>
<path d="M358.7 136.155C359.2 136.155 359.67 136.21 360.11 136.32C360.55 136.43 360.975 136.605 361.385 136.845L360.83 137.925C360.55 137.775 360.22 137.635 359.84 137.505C359.47 137.375 359.09 137.31 358.7 137.31C357.18 137.31 356.235 138.265 355.865 140.175H359.525V141.15H355.76C355.75 141.25 355.745 141.345 355.745 141.435C355.745 141.525 355.745 141.62 355.745 141.72C355.745 141.81 355.745 141.91 355.745 142.02C355.745 142.12 355.75 142.225 355.76 142.335H359.075V143.31H355.88C356.05 144.16 356.375 144.82 356.855 145.29C357.345 145.75 358 145.98 358.82 145.98C359.21 145.98 359.6 145.935 359.99 145.845C360.39 145.745 360.745 145.63 361.055 145.5V146.67C360.745 146.8 360.4 146.91 360.02 147C359.65 147.1 359.225 147.15 358.745 147.15C357.535 147.15 356.585 146.805 355.895 146.115C355.215 145.425 354.765 144.49 354.545 143.31H353.345V142.335H354.425C354.415 142.215 354.41 142.115 354.41 142.035C354.41 141.955 354.41 141.85 354.41 141.72C354.41 141.61 354.41 141.505 354.41 141.405C354.42 141.295 354.425 141.21 354.425 141.15H353.345V140.175H354.53C354.72 138.945 355.165 137.97 355.865 137.25C356.565 136.52 357.51 136.155 358.7 136.155Z" fill="#263238"/>
<circle cx="358.5" cy="178.5" r="13" fill="white" stroke="#263238"/>
<rect x="377.5" y="167.5" width="56" height="21" rx="5.5" fill="white" stroke="#263238"/>
<path d="M384 174H423" stroke="#263238" stroke-linecap="round" stroke-linejoin="round"/>
<path d="M384 178.5H419" stroke="#263238" stroke-linecap="round" stroke-linejoin="round"/>
<path d="M384 182.5H428" stroke="#263238" stroke-linecap="round" stroke-linejoin="round"/>
<path d="M358.7 172.155C359.2 172.155 359.67 172.21 360.11 172.32C360.55 172.43 360.975 172.605 361.385 172.845L360.83 173.925C360.55 173.775 360.22 173.635 359.84 173.505C359.47 173.375 359.09 173.31 358.7 173.31C357.18 173.31 356.235 174.265 355.865 176.175H359.525V177.15H355.76C355.75 177.25 355.745 177.345 355.745 177.435C355.745 177.525 355.745 177.62 355.745 177.72C355.745 177.81 355.745 177.91 355.745 178.02C355.745 178.12 355.75 178.225 355.76 178.335H359.075V179.31H355.88C356.05 180.16 356.375 180.82 356.855 181.29C357.345 181.75 358 181.98 358.82 181.98C359.21 181.98 359.6 181.935 359.99 181.845C360.39 181.745 360.745 181.63 361.055 181.5V182.67C360.745 182.8 360.4 182.91 360.02 183C359.65 183.1 359.225 183.15 358.745 183.15C357.535 183.15 356.585 182.805 355.895 182.115C355.215 181.425 354.765 180.49 354.545 179.31H353.345V178.335H354.425C354.415 178.215 354.41 178.115 354.41 178.035C354.41 177.955 354.41 177.85 354.41 177.72C354.41 177.61 354.41 177.505 354.41 177.405C354.42 177.295 354.425 177.21 354.425 177.15H353.345V176.175H354.53C354.72 174.945 355.165 173.97 355.865 173.25C356.565 172.52 357.51 172.155 358.7 172.155Z" fill="#263238"/>
<circle cx="358.5" cy="214.5" r="13" fill="white" stroke="#263238"/>
<rect x="377.5" y="203.5" width="56" height="21" rx="5.5" fill="white" stroke="#263238"/>
<path d="M384 210H427" stroke="#263238" stroke-linecap="round" stroke-linejoin="round"/>
<path d="M384 214.5H420" stroke="#263238" stroke-linecap="round" stroke-linejoin="round"/>
<path d="M384 218.5H425" stroke="#263238" stroke-linecap="round" stroke-linejoin="round"/>
<path d="M358.7 208.155C359.2 208.155 359.67 208.21 360.11 208.32C360.55 208.43 360.975 208.605 361.385 208.845L360.83 209.925C360.55 209.775 360.22 209.635 359.84 209.505C359.47 209.375 359.09 209.31 358.7 209.31C357.18 209.31 356.235 210.265 355.865 212.175H359.525V213.15H355.76C355.75 213.25 355.745 213.345 355.745 213.435C355.745 213.525 355.745 213.62 355.745 213.72C355.745 213.81 355.745 213.91 355.745 214.02C355.745 214.12 355.75 214.225 355.76 214.335H359.075V215.31H355.88C356.05 216.16 356.375 216.82 356.855 217.29C357.345 217.75 358 217.98 358.82 217.98C359.21 217.98 359.6 217.935 359.99 217.845C360.39 217.745 360.745 217.63 361.055 217.5V218.67C360.745 218.8 360.4 218.91 360.02 219C359.65 219.1 359.225 219.15 358.745 219.15C357.535 219.15 356.585 218.805 355.895 218.115C355.215 217.425 354.765 216.49 354.545 215.31H353.345V214.335H354.425C354.415 214.215 354.41 214.115 354.41 214.035C354.41 213.955 354.41 213.85 354.41 213.72C354.41 213.61 354.41 213.505 354.41 213.405C354.42 213.295 354.425 213.21 354.425 213.15H353.345V212.175H354.53C354.72 210.945 355.165 209.97 355.865 209.25C356.565 208.52 357.51 208.155 358.7 208.155Z" fill="#263238"/>
</g>
<defs>
<clipPath id="clip0">
<rect width="575" height="249" fill="white"/>
</clipPath>
</defs>
</svg>
