<svg width="100" height="138" viewBox="0 0 100 138" fill="none" xmlns="http://www.w3.org/2000/svg">
<path d="M5.0155 97.0575C4.12708 98.6509 7.44088 99.9576 9.35098 100.475C11.2997 100.904 13.3165 101.028 15.3123 100.842C17.9775 100.714 20.705 100.491 23.006 99.3122C25.0211 98.1926 26.6318 96.5739 27.6435 94.6513C28.6411 92.7349 29.4295 90.7365 29.9978 88.6838C29.9978 88.6838 9.00449 89.9108 5.0155 97.0575Z" fill="#52CBFF"/>
<g opacity="0.4">
<path d="M5.0155 97.0575C4.12708 98.6509 7.44088 99.9576 9.35098 100.475C11.2997 100.904 13.3165 101.028 15.3123 100.842C17.9775 100.714 20.705 100.491 23.006 99.3122C25.0211 98.1926 26.6318 96.5739 27.6435 94.6513C28.6411 92.7349 29.4295 90.7365 29.9978 88.6838C29.9978 88.6838 9.00449 89.9108 5.0155 97.0575Z" fill="black"/>
</g>
<path d="M64.3057 91.9586C67.7666 94.1601 71.9142 95.3256 76.1572 95.2889C78.1911 95.3905 80.1967 94.8241 81.7986 93.6955C82.4827 93.1298 82.998 92.4127 83.6998 91.871C84.1796 91.5045 84.7393 91.2256 85.1924 90.8352C85.4315 90.6506 85.6159 90.4157 85.729 90.1515C85.8422 89.8873 85.8806 89.6022 85.8409 89.3214C85.6655 88.6295 85.2332 88.0114 84.6149 87.5686C82.2073 86.3417 79.3288 86.3895 76.5569 86.4452C73.7829 86.5529 71.0427 87.0337 68.4279 87.8714C66.2779 88.5247 64.0303 89.4648 62.9375 91.2177" fill="#52CBFF"/>
<g opacity="0.4">
<path d="M85.8409 89.3213C85.5268 88.6492 84.974 88.089 84.2684 87.7278C81.8608 86.5008 79.3288 86.3893 76.5569 86.4451C73.7829 86.5527 71.0427 87.0335 68.4279 87.8712C66.2779 88.5245 64.0303 89.4647 62.9375 91.2175L64.3057 91.9584C67.7666 94.1599 71.9142 95.3254 76.1572 95.2888C78.1911 95.3904 80.1967 94.8239 81.7986 93.6953C82.4827 93.1296 82.998 92.4126 83.6998 91.8708C84.1796 91.5043 84.7393 91.2254 85.1924 90.835C85.4315 90.6504 85.6159 90.4155 85.729 90.1513C85.8422 89.8872 85.8806 89.602 85.8409 89.3213Z" fill="black"/>
</g>
<path d="M23.3163 120.553L67.604 121.079C67.6941 121.078 67.783 121.059 67.8634 121.023C67.9438 120.986 68.0136 120.933 68.0672 120.868C68.1207 120.803 68.1565 120.728 68.1717 120.648C68.187 120.568 68.1811 120.487 68.1548 120.409L62.9575 105.877C62.9575 105.877 63.7216 98.6108 64.7788 89.8786C66.3868 76.6131 68.5279 59.9375 68.5546 59.9853C65.5251 52.3686 47.6501 51.0779 47.6501 51.0779L27.2787 52.1614L26.568 51.0858L20.7044 53.5318C19.4255 54.0654 18.1957 54.6888 17.0264 55.3962C13.1529 57.7146 3.82446 63.0448 2.1187 68.9804C-1.81699 82.724 4.84612 98.0611 4.84612 98.0611L9.12831 95.0574C10.2069 94.312 11.3408 93.6332 12.5221 93.0257L21.1042 113.653C20.5935 113.942 20.161 114.329 19.8382 114.787C19.5155 115.244 19.3106 115.761 19.2385 116.298C19.1674 117.971 20.1269 119.979 23.3163 120.553Z" fill="#52CBFF"/>
<g opacity="0.3">
<path d="M42.3197 96.2369C43.7234 89.4647 42.986 82.5013 42.2309 75.6494C39.7788 81.2265 39.8677 87.6004 37.2646 93.1297C36.9455 93.7136 36.7126 94.3323 36.5717 94.9701C36.5038 95.2904 36.5216 95.6206 36.6235 95.9336C36.7254 96.2466 36.9086 96.5335 37.158 96.7707C37.8687 97.3523 38.9349 97.0336 39.8766 96.938C40.7196 96.7938 41.54 96.5584 42.3197 96.2369Z" fill="black"/>
</g>
<g opacity="0.4">
<path d="M25.9816 111.916C29.5353 113.024 33.3199 110.96 37.0779 110.594C39.5655 110.355 42.0531 110.865 44.5229 111.223C49.5171 111.948 54.5979 112.06 59.626 111.558C60.3974 111.52 61.1526 111.344 61.847 111.04C62.2058 110.821 62.4994 110.526 62.7023 110.181C62.9051 109.837 63.011 109.454 63.0108 109.064C54.6419 108.267 46.2819 107.837 37.913 107.064C35.8299 106.745 33.6964 106.808 31.6408 107.248C29.1177 107.949 27.1987 109.725 25.4219 111.486" fill="black"/>
</g>
<path d="M84.5631 86.7079C80.9472 79.4018 68.1984 59.1968 68.1984 59.1968L58.3281 70.2952L60.6291 92.0858C60.6291 92.0858 65.8441 86.8672 80.4231 86.7636C81.4826 86.8016 82.5192 87.0518 83.4569 87.4957C84.3946 87.9396 85.2097 88.566 85.8424 89.3291L84.5631 86.7079Z" fill="#52CBFF"/>
<path d="M25.3004 82.8437C24.5962 81.2947 24.0375 79.6957 23.6301 78.0633C23.0784 76.4733 22.6742 74.8451 22.4219 73.1953C23.1157 74.7469 23.6712 76.3453 24.0832 77.9757C24.6351 79.5662 25.0422 81.1942 25.3004 82.8437Z" fill="#263238"/>
<path d="M57.5809 68.821C57.9023 69.0247 58.2 69.257 58.4694 69.5142C59.2542 70.194 59.9901 70.9178 60.6726 71.6813C62.9699 74.1996 64.5847 77.1613 65.3901 80.3338C65.8082 82.0875 65.9013 83.891 65.6656 85.6719C65.4435 87.3052 65.0969 88.7393 64.866 89.9503C64.635 91.1613 64.4928 92.1493 64.4217 92.8345C64.4198 93.1905 64.3781 93.5455 64.2974 93.8941C64.2345 93.5385 64.2166 93.1777 64.2441 92.8185C64.2832 91.8422 64.384 90.8686 64.5461 89.9025C64.7327 88.6835 65.0437 87.2335 65.248 85.632C65.4535 83.8914 65.3485 82.1325 64.937 80.4214C64.1413 77.3082 62.5981 74.3881 60.415 71.8645C58.7892 69.9046 57.5099 68.8848 57.5809 68.821Z" fill="#263238"/>
<path d="M48.5375 118.8C48.2289 118.924 47.9032 119.01 47.5691 119.055C47.1896 119.145 46.8038 119.212 46.4142 119.255C45.9611 119.31 45.4458 119.398 44.8684 119.422C43.5149 119.533 42.1529 119.533 40.7994 119.422C39.1433 119.269 37.5072 118.976 35.9131 118.545C34.327 118.088 32.7922 117.499 31.3289 116.785C30.1424 116.191 29.0159 115.506 27.9618 114.737C27.4998 114.418 27.1266 114.084 26.789 113.805C26.4979 113.57 26.222 113.32 25.9628 113.056C25.7158 112.851 25.5033 112.615 25.332 112.355C25.3942 112.299 26.3448 113.255 28.1661 114.506C29.23 115.232 30.3559 115.882 31.5332 116.45C32.98 117.132 34.49 117.7 36.0463 118.147C37.6132 118.57 39.2185 118.869 40.8438 119.039C42.1714 119.168 43.5079 119.205 44.8417 119.151C47.1249 119.039 48.5198 118.737 48.5375 118.8Z" fill="#263238"/>
<path d="M62.2113 114.275C62.4205 114.635 62.5387 115.032 62.5578 115.438C62.6996 116.409 62.6179 117.396 62.3179 118.338C62.0128 119.301 61.3941 120.161 60.5411 120.808C59.8926 121.294 59.395 121.445 59.3684 121.405C59.3417 121.366 59.7593 121.103 60.319 120.609C61.0376 119.937 61.5595 119.115 61.8382 118.218C62.5489 116.115 62.0425 114.283 62.2113 114.275Z" fill="#263238"/>
<path d="M59.8037 117.079C59.9965 117.899 59.9194 118.751 59.5818 119.532C59.2443 120.313 58.6608 120.989 57.9025 121.477C57.8048 121.39 58.631 120.601 59.1463 119.382C59.6615 118.163 59.6704 117.087 59.8037 117.079Z" fill="#263238"/>
<path d="M51.8783 90.8669C51.4076 91.5807 50.8791 92.2624 50.2969 92.9066C49.8376 93.6262 49.3179 94.3133 48.7422 94.9621C48.9128 94.1213 49.3161 93.3324 49.9149 92.6675C50.3884 91.9277 51.0641 91.308 51.8783 90.8669Z" fill="#263238"/>
<path d="M21.4757 71.57C20.7989 71.2135 20.1435 70.8253 19.5123 70.4068C16.3528 68.5452 12.767 67.3444 9.02014 66.8932C8.23581 66.842 7.45557 66.7488 6.68359 66.6143C7.47055 66.5169 8.26872 66.5169 9.05568 66.6143C12.9046 66.9089 16.5908 68.1403 19.7167 70.1757C20.3723 70.5651 20.9644 71.0343 21.4757 71.57Z" fill="#263238"/>
<path d="M68.1998 58.9338C66.6098 60.0821 65.1244 61.3423 63.7577 62.7024C62.4994 64.1539 61.3734 65.6939 60.3906 67.3075C60.4958 66.7648 60.7031 66.2422 61.0036 65.7618C61.6469 64.5672 62.4526 63.4485 63.4023 62.4315C64.3549 61.4165 65.4476 60.5143 66.654 59.7465C67.1132 59.3978 67.6362 59.1229 68.1998 58.9338Z" fill="#263238"/>
<path d="M49.916 52.3689C49.9968 52.4838 50.0624 52.6068 50.1115 52.7354C50.2848 53.0962 50.4245 53.4693 50.529 53.8508C50.9036 55.2706 50.9036 56.7493 50.529 58.1691C49.9761 60.2886 48.7108 62.2048 46.9043 63.6586C44.624 65.3909 41.7188 66.3198 38.7308 66.2718C35.7403 66.2811 32.8265 65.4231 30.4241 63.8259C28.5099 62.5152 26.9568 60.828 25.8843 58.8941C25.1618 57.5993 24.653 56.2171 24.374 54.791C24.2925 54.4068 24.2391 54.0182 24.2141 53.6277C24.1891 53.4905 24.1891 53.3506 24.2141 53.2134C24.2141 53.2134 24.3118 53.7711 24.5606 54.7591C24.906 56.145 25.4526 57.4843 26.1864 58.7427C27.2701 60.6183 28.8093 62.2519 30.6906 63.5231C33.0056 65.0605 35.8059 65.8975 38.6864 65.9133C41.5663 65.9608 44.3693 65.0786 46.5844 63.4275C48.3297 62.027 49.5674 60.1901 50.1381 58.1532C50.5334 56.7782 50.588 55.3423 50.298 53.9464C50.1292 52.8947 49.8627 52.3848 49.916 52.3689Z" fill="#263238"/>
<g opacity="0.3">
<path d="M53.0244 92.2771C53.0244 91.8788 52.9533 91.4087 52.5624 91.2095C52.4384 91.1535 52.3015 91.1243 52.1626 91.1243C52.0237 91.1243 51.8868 91.1535 51.7628 91.2095C51.5143 91.3299 51.2941 91.4922 51.1143 91.6875C50.0698 92.6623 49.2621 93.8207 48.7422 95.0896L53.0954 94.747C53.0688 93.9423 53.051 93.0977 53.0244 92.2771Z" fill="black"/>
</g>
<g opacity="0.3">
<path d="M67.4792 84.0627C67.0416 81.8287 65.9501 79.7391 64.3164 78.0076C66.1999 83.5209 65.5691 86.6361 64.5119 90.4126L64.7429 89.8868C65.96 87.6799 67.8079 86.2936 67.4792 84.0627Z" fill="black"/>
</g>
<path d="M55.6176 7.93526C56.6215 5.70441 55.4044 3.0035 53.2455 1.56142C50.9703 0.218237 48.1959 -0.265619 45.5252 0.21495C42.8904 0.710386 40.3395 1.51399 37.9381 2.60514C36.8214 1.59517 35.4137 0.883428 33.8721 0.549393C32.3305 0.215357 30.7157 0.272177 29.2081 0.713502C27.7004 1.15483 26.3592 1.96328 25.3342 3.04861C24.3092 4.13393 23.6408 5.4534 23.4036 6.85967C22.443 6.64285 21.4347 6.66467 20.4869 6.9228C19.5392 7.18093 18.6877 7.66563 18.0238 8.32488C17.3599 8.98413 16.9087 9.79305 16.7186 10.6648C16.5285 11.5366 16.6067 12.4384 16.9448 13.2734L28.9562 17.0578L42.0692 37.7728C44.0072 39.2556 46.4806 40.0554 49.0277 40.023C51.5749 39.9906 54.022 39.1283 55.9123 37.5969C57.8027 36.0655 59.0073 33.9696 59.3012 31.7004C59.5952 29.4311 58.9585 27.1434 57.5099 25.2641C58.2446 24.6782 58.8687 23.9894 59.3579 23.2245C60.4057 22.6688 61.32 21.9318 62.0475 21.0565C62.775 20.1811 63.3012 19.1848 63.5956 18.1254C64.7594 13.5124 60.7793 8.47703 55.6176 7.93526Z" fill="#263238"/>
<path d="M47.1818 51.1865L47.1821 51.1878C47.4419 52.3463 47.4349 53.5397 47.1615 54.6959C46.8881 55.8522 46.3533 56.9497 45.5867 57.9203C44.8199 58.8911 43.837 59.7147 42.6962 60.3379C41.5553 60.9611 40.2819 61.3699 38.9542 61.5374L38.9522 61.5376C36.5196 61.8543 34.0468 61.3417 32.0227 60.1082C30.0003 58.8757 28.5799 57.0184 28.0224 54.9124C28.0222 54.9117 28.022 54.911 28.0218 54.9103L25.2422 43.9995L25.2422 43.9995L25.2405 43.9928L18.6745 19.629V18.8985V18.8352L18.6587 18.7739C18.4726 18.0505 18.4662 17.4195 18.6503 16.9391C18.8237 16.4866 19.189 16.1051 19.9045 15.8968L19.9355 15.8878L19.9651 15.8749L36.8768 8.47861C39.4501 7.74684 41.9892 8.65282 44.1162 10.4131C46.254 12.1822 47.9127 14.7693 48.6669 17.221L48.667 17.2214C50.4103 22.8688 52.2653 29.7683 52.5102 34.1123L52.5102 34.1131C52.7588 38.3912 51.1766 41.0967 49.5545 42.7354C48.7382 43.5601 47.906 44.1199 47.2792 44.471C46.9661 44.6464 46.7059 44.7688 46.5271 44.8455C46.4375 44.884 46.3696 44.9104 46.327 44.926C46.305 44.934 46.2927 44.9381 46.2889 44.9393C46.2908 44.9387 46.2961 44.9371 46.3036 44.9353C46.3045 44.9351 46.3066 44.9345 46.3098 44.9338C46.3183 44.9319 46.334 44.9286 46.3534 44.926C46.3628 44.9248 46.401 44.9196 46.4503 44.9228C46.4786 44.9255 46.5525 44.9403 46.597 44.9551C46.6314 44.9717 46.6833 45.0114 46.7351 45.0606C46.5742 44.9909 46.2346 44.9673 46.0279 45.1076C45.9662 45.2056 45.9218 45.3539 45.918 45.393C45.9173 45.4118 45.9176 45.4414 45.9181 45.4522C45.9186 45.4593 45.9197 45.4713 45.9202 45.4762C45.9213 45.4861 45.9224 45.4939 45.923 45.4975C45.9248 45.5092 45.9268 45.5195 45.9272 45.5218L45.9273 45.522L45.9325 45.5474L45.9494 45.626C45.9548 45.6508 45.9612 45.6801 45.9686 45.7137C45.9815 45.7725 45.9974 45.8446 46.0161 45.9293C46.0749 46.1955 46.1618 46.5876 46.2723 47.0855C46.3124 47.2662 46.3556 47.4608 46.4017 47.6684C46.6096 48.6054 46.8764 49.8072 47.1818 51.1865ZM45.9486 45.5958C45.9808 45.6567 46.0397 45.7256 46.0989 45.782C46.0722 45.7704 46.0505 45.7575 46.0351 45.7439C46.0071 45.7074 45.9726 45.6501 45.9634 45.6314C45.9586 45.6207 45.9513 45.6028 45.9486 45.5958Z" fill="#FFBE9D" stroke="#263238"/>
<path d="M49.0808 22.9698C49.1521 23.2525 49.0997 23.549 48.9344 23.798C48.7691 24.0471 48.5035 24.2298 48.1924 24.3083C48.0354 24.3477 47.8712 24.3581 47.7096 24.339C47.548 24.3199 47.3924 24.2717 47.2522 24.1972C47.1119 24.1228 46.9899 24.0237 46.8934 23.9059C46.797 23.788 46.7281 23.6539 46.691 23.5116C46.62 23.2299 46.6727 22.9346 46.8381 22.6868C47.0035 22.4391 47.269 22.2579 47.5794 22.1811C47.7358 22.1405 47.8998 22.1289 48.0613 22.1469C48.2228 22.165 48.3786 22.2124 48.5191 22.2862C48.6595 22.36 48.7818 22.4587 48.8784 22.5762C48.975 22.6937 49.0438 22.8277 49.0808 22.9698Z" fill="#263238"/>
<path d="M48.3099 21.2725C48.1855 21.4478 47.1105 21.0096 45.7956 21.2725C44.4808 21.5355 43.6457 22.3003 43.468 22.1808C43.2903 22.0613 43.468 21.8382 43.8322 21.4877C44.321 21.0245 44.9569 20.7074 45.6535 20.5794C46.3408 20.4465 47.0575 20.5163 47.6969 20.7786C48.1944 20.9618 48.3632 21.2008 48.3099 21.2725Z" fill="#263238"/>
<path d="M36.1787 25.5827C36.2497 25.8644 36.197 26.1597 36.0316 26.4075C35.8662 26.6553 35.6007 26.8364 35.2903 26.9132C35.1369 26.9533 34.9761 26.9656 34.8174 26.9496C34.6586 26.9336 34.5049 26.8894 34.3653 26.8198C34.2257 26.7501 34.1028 26.6563 34.0039 26.5438C33.9049 26.4313 33.8319 26.3023 33.7889 26.1643C33.7176 25.8816 33.77 25.5852 33.9353 25.3361C34.1006 25.087 34.3662 24.9044 34.6773 24.8258C34.8313 24.7859 34.9926 24.7739 35.1519 24.7904C35.3111 24.807 35.4651 24.8518 35.6048 24.9222C35.7445 24.9926 35.8672 25.0873 35.9658 25.2007C36.0643 25.3141 36.1367 25.444 36.1787 25.5827Z" fill="#263238"/>
<path d="M35.5364 24.0851C35.4209 24.2604 34.3371 23.8142 33.0222 24.0851C31.7074 24.356 30.8722 25.1049 30.6945 24.9934C30.5169 24.8819 30.6945 24.6508 31.0588 24.2923C31.5498 23.8332 32.1851 23.5192 32.8801 23.392C33.5666 23.2611 34.2818 23.328 34.9234 23.5832C35.3943 23.7744 35.5986 23.9895 35.5364 24.0851Z" fill="#263238"/>
<path d="M42.2224 31.5743C42.8738 31.252 43.5657 31.0006 44.2835 30.8253C44.6122 30.7297 44.9232 30.6102 44.9321 30.3951C44.8856 30.0782 44.7339 29.7812 44.4967 29.5426L42.9598 27.4233C40.8098 24.4037 39.1751 21.902 39.3084 21.8462C39.4416 21.7904 41.2984 24.1567 43.4484 27.1763L44.9498 29.3115C45.2448 29.6383 45.4048 30.0464 45.4029 30.4668C45.3764 30.5814 45.3221 30.6894 45.2438 30.783C45.1655 30.8766 45.0651 30.9537 44.9498 31.0086C44.776 31.0911 44.5908 31.1527 44.399 31.1918C43.6963 31.4076 42.964 31.5363 42.2224 31.5743Z" fill="#263238"/>
<path d="M46.4145 45.4214C41.9209 46.3321 37.2336 46.106 32.875 44.7681C32.875 44.7681 37.5303 50.2177 46.9209 47.6124L46.4145 45.4214Z" fill="#EB996E"/>
<path d="M35.7554 22.3959C35.6666 22.7385 34.3073 22.7305 32.7615 23.0731C31.2156 23.4157 29.9896 23.9336 29.7409 23.6627C29.6343 23.5352 29.8119 23.2006 30.2828 22.866C30.9087 22.3933 31.6522 22.0627 32.4505 21.9019C33.2421 21.7335 34.0666 21.7335 34.8581 21.9019C35.4889 22.0055 35.8176 22.2366 35.7554 22.3959Z" fill="#263238"/>
<path d="M47.8025 17.512C47.5893 17.8307 46.4521 17.7511 45.1372 17.9821C43.8224 18.2132 42.7829 18.6115 42.472 18.3805C42.3298 18.261 42.472 17.9582 42.854 17.5837C43.4406 17.1413 44.1497 16.8495 44.9062 16.7392C45.6503 16.6048 46.4211 16.6543 47.1362 16.8826C47.6781 17.1057 47.8913 17.3527 47.8025 17.512Z" fill="#263238"/>
<path d="M23.9478 9.712C24.1444 10.5751 24.5505 11.3888 25.1373 12.0952C25.7241 12.8017 26.4772 13.3836 27.343 13.7996C28.2089 14.2156 29.1662 14.4555 30.1471 14.5022C31.128 14.549 32.1084 14.4015 33.0185 14.0701C34.4222 13.5602 35.8792 12.6041 37.3007 13.0662C38.7222 13.5283 39.3085 15.3449 40.6678 16.0221C42.6668 17.026 45.1099 15.2891 47.3398 15.4644C49.1167 15.5998 50.4582 16.8188 51.8352 17.8546C53.2123 18.8903 55.1135 19.6711 56.6682 18.9222C56.3122 17.5917 55.7845 16.3029 55.0957 15.082C54.401 13.8528 53.2515 12.8783 51.8441 12.3253C51.0623 12.0464 50.2183 11.9508 49.472 11.6082C47.864 10.8752 47.1444 9.21802 45.9806 7.96716C45.2162 7.1789 44.2534 6.56536 43.1719 6.1774C42.0903 5.78944 40.9213 5.63823 39.7616 5.73631C37.8427 5.91159 36.0214 6.78003 34.0846 6.70832C32.6543 6.65255 31.2861 6.07891 29.8558 6.10281C27.075 6.10281 24.9873 8.33365 23.4414 10.4131" fill="#263238"/>
<path d="M33.3118 11.5364C32.0325 11.4487 29.4205 11.2097 28.5588 10.397C27.6833 9.5189 26.566 8.8624 25.3187 8.49326C24.0713 8.12412 22.7378 8.0553 21.4514 8.29368C20.175 8.63493 19.0545 9.33469 18.2548 10.2899C17.4551 11.2452 17.0185 12.4054 17.0093 13.5999C15.4549 13.9401 14.0317 14.6504 12.8902 15.6559C11.7487 16.6614 10.9311 17.9248 10.5239 19.3125C10.1104 20.7652 10.0965 22.2862 10.4833 23.7448C10.8702 25.2034 11.6463 26.5559 12.745 27.6861C13.2787 28.2846 13.7655 28.9155 14.2019 29.5743C13.5995 30.2445 13.07 30.9649 12.6206 31.7255C10.5861 35.757 16.1032 37.3026 16.1032 37.3026C16.1032 40.0115 18.9017 39.9956 20.6874 39.9876C22.4731 39.9796 23.4593 44.2581 24.8541 44.0908L23.4415 30.8889C23.6484 30.9611 23.8681 30.9989 24.09 31.0005C27.4571 31.0563 26.5776 25.3357 25.4938 23.8299C26.4969 22.71 27.3442 21.4846 28.0169 20.1809C28.6267 18.1879 28.6695 16.0896 28.1412 14.0779C29.2695 13.9505 33.8626 11.5682 33.3118 11.5364Z" fill="#263238"/>
<path d="M23.8842 31.5901C23.7694 31.1706 23.5381 30.784 23.2118 30.4664C22.8854 30.1487 22.4747 29.9104 22.0178 29.7736C21.561 29.6367 21.073 29.6059 20.5993 29.6839C20.1256 29.7619 19.6816 29.9463 19.3088 30.2198C18.4204 30.9049 17.9495 32.0522 18.4826 33.9724C19.9218 39.1033 25.3678 36.7529 25.3323 36.6095C25.2967 36.4661 24.5061 33.7094 23.8842 31.5901Z" fill="#FFBE9D"/>
<path d="M23.0419 35.0561C23.0419 35.0561 22.9619 35.1437 22.8109 35.2473C22.6009 35.3917 22.3365 35.4574 22.0735 35.4306C21.4161 35.3668 20.6609 34.6338 20.3766 33.7017C20.2412 33.2661 20.2139 32.8092 20.2967 32.3631C20.3057 32.1899 20.3613 32.0211 20.4588 31.8713C20.5562 31.7215 20.6927 31.595 20.8564 31.5027C20.9643 31.4505 21.0891 31.4339 21.2092 31.4558C21.3293 31.4776 21.4371 31.5365 21.5138 31.6222C21.6293 31.7417 21.6204 31.8532 21.656 31.8612C21.6915 31.8692 21.7537 31.7417 21.656 31.5425C21.5878 31.4244 21.4787 31.3293 21.345 31.2716C21.157 31.2034 20.9467 31.2034 20.7587 31.2716C20.5355 31.3666 20.3428 31.5107 20.1984 31.6904C20.0539 31.87 19.9624 32.0795 19.9324 32.2994C19.8172 32.8012 19.8385 33.3204 19.9946 33.8132C20.0938 34.2759 20.3431 34.7019 20.7114 35.0379C21.0797 35.3738 21.5505 35.6047 22.0646 35.7014C22.2319 35.7075 22.3985 35.6799 22.5522 35.6206C22.706 35.5613 22.8429 35.4719 22.9531 35.3588C23.0685 35.1836 23.0686 35.0641 23.0419 35.0561Z" fill="#EB996E"/>
<path d="M54.566 24.4275C54.566 24.4275 55.0902 24.069 55.8187 23.2723C56.8239 22.1243 57.4406 20.7417 57.5955 19.2886C57.7132 18.2967 57.6044 17.2937 57.2757 16.3407C56.8962 15.2476 56.1931 14.2673 55.2412 13.5044C54.1422 12.6436 52.8114 12.0555 51.3808 11.7984C49.9502 11.5412 48.4695 11.624 47.0855 12.0384C46.819 12.1181 46.5703 12.2376 46.3215 12.3332C46.0727 12.4288 45.8506 12.5722 45.6196 12.6917L45.2643 12.867V12.5164C45.2567 11.8992 45.0012 11.3052 44.5447 10.8433C44.0771 10.395 43.5033 10.0465 42.8655 9.82349C41.6589 9.37255 40.3221 9.28313 39.0542 9.56853C36.6022 10.0705 34.5233 11.0744 32.5599 11.2815C31.0202 11.5215 29.4361 11.2373 28.1178 10.4848C27.7699 10.2701 27.4688 10.0001 27.2294 9.68804C27.0872 9.47293 27.0162 9.35342 27.0339 9.34545C27.3558 9.73888 27.7493 10.0809 28.1978 10.3573C29.4948 11.0288 31.0185 11.2579 32.4888 11.0026C33.5118 10.83 34.5121 10.563 35.4739 10.2059C36.603 9.80114 37.7604 9.46314 38.9387 9.19407C39.5956 9.05154 40.2711 8.98989 40.9466 9.01082C41.6593 9.04458 42.3599 9.1902 43.0166 9.44105C43.6959 9.70134 44.3027 10.0931 44.7934 10.5883C45.3188 11.1277 45.6146 11.8163 45.6285 12.5324L45.2731 12.3571L46.0105 11.9747C46.286 11.879 46.5436 11.7516 46.8279 11.6639C48.2865 11.216 49.8513 11.1222 51.3633 11.3923C52.8754 11.6624 54.2808 12.2867 55.4366 13.2016C56.4358 14.0128 57.1672 15.0546 57.5511 16.2133C57.9498 17.4413 58.0035 18.7386 57.7074 19.9898C57.4113 21.2409 56.7747 22.4069 55.8542 23.3838C55.5616 23.6833 55.2306 23.9507 54.8681 24.1806C54.7789 24.2736 54.6775 24.3565 54.566 24.4275Z" fill="#455A64"/>
<path d="M53.4066 6.41342C52.8233 6.14788 52.2013 5.95745 51.5587 5.84774C50.8242 5.75769 50.0764 5.82038 49.3732 6.03098C48.4624 6.28084 47.6711 6.79692 47.1255 7.49697L46.9034 7.77582L46.7701 7.45713C46.3063 6.47773 45.5596 5.62698 44.607 4.99257C43.6544 4.35816 42.5303 3.96304 41.3508 3.84795C39.4981 3.78545 37.6724 4.26044 36.1446 5.20238C34.8431 5.96325 33.459 6.60391 32.0135 7.11454C31.017 7.45259 29.9435 7.56746 28.8863 7.44916C28.6045 7.4025 28.328 7.33318 28.06 7.24202C27.8824 7.17031 27.7846 7.13047 27.7935 7.11454C27.8024 7.0986 28.1933 7.21811 28.9129 7.28185C29.9349 7.33911 30.9582 7.18935 31.9069 6.84365C33.3116 6.29432 34.6585 5.63303 35.9314 4.86776C36.7176 4.42993 37.551 4.06424 38.419 3.77624C39.3732 3.46422 40.393 3.34717 41.4041 3.43364C42.6641 3.55702 43.8633 3.98449 44.8739 4.67055C45.8845 5.35661 46.6688 6.27558 47.1433 7.32965H46.7968C47.4076 6.58092 48.2801 6.03687 49.2755 5.784C50.0318 5.58736 50.8288 5.55189 51.6031 5.68042C52.0933 5.7639 52.5628 5.92583 52.989 6.15846C53.1411 6.22518 53.2817 6.31103 53.4066 6.41342Z" fill="#455A64"/>
<path d="M41.7049 33.9325C41.4975 33.7769 41.2556 33.6624 40.9954 33.5965C40.7351 33.5306 40.4622 33.5148 40.1946 33.5501C39.8818 33.61 39.5864 33.7282 39.3278 33.897C39.0691 34.0658 38.8529 34.2815 38.6932 34.53C38.6932 34.53 38.6488 34.5699 38.6399 34.5938C38.5175 34.7757 38.4616 34.9874 38.48 35.1993C38.5186 35.4301 38.6198 35.6488 38.7747 35.8364C38.9296 36.0239 39.1335 36.1745 39.3684 36.2749C39.7439 36.4456 40.169 36.5081 40.5857 36.4539C41.0023 36.3998 41.3901 36.2315 41.696 35.9721C41.9865 35.6969 42.149 35.3328 42.1507 34.9539C42.1523 34.575 41.9929 34.2097 41.7049 33.9325Z" fill="#D79675"/>
<path d="M42.1497 36.4105C42.0786 36.4105 41.9987 36.1715 41.7588 35.8448C41.4699 35.4069 41.0382 35.059 40.5218 34.8481C40.0055 34.6372 39.4294 34.5736 38.8714 34.6656C38.4361 34.7214 38.1696 34.833 38.1429 34.7772C38.1163 34.7214 38.3206 34.5302 38.8003 34.3788C39.4283 34.1976 40.1089 34.2317 40.7104 34.4744C41.3175 34.7168 41.7976 35.1588 42.052 35.7094C42.2385 36.1237 42.2119 36.4025 42.1497 36.4105Z" fill="#263238"/>
<path d="M30.7888 107.845C30.7888 107.845 52.786 108.992 65.7924 109.096C75.8582 109.184 80.3536 106.786 82.3614 100.977C84.0494 96.1093 80.4247 86.7637 80.4247 86.7637C73.6105 86.7637 69.4083 87.6401 65.0284 89.4805L66.1922 93.751L30.7266 96.4917L30.7888 107.845Z" fill="#FFBE9D"/>
<path d="M73.5803 98.3083C72.6263 97.1959 71.512 96.202 70.2666 95.3524C68.9304 94.6192 67.49 94.0511 65.9844 93.6633C66.4585 93.6022 66.942 93.6404 67.397 93.7749C68.5147 94.0117 69.5747 94.4303 70.5242 95.0098C71.4755 95.5911 72.2979 96.326 72.9496 97.1769C73.4471 97.8303 73.6336 98.2844 73.5803 98.3083Z" fill="#EB996E"/>
<path d="M22.7407 89.4486C22.7407 89.4486 15.9354 90.9146 10.9336 93.9103L16.2641 106.865C18.0409 111.12 23.4692 113.239 27.8135 111.008C34.5033 107.574 36.8665 97.5673 36.8665 97.5673L44.2137 68.9806L32.0335 62.1367L22.7851 89.4486" fill="#FFBE9D"/>
<path d="M31.9876 62.1368L32.4851 52.7354L29.7576 43.1747C29.6066 42.6488 29.5355 41.9875 30.0153 41.6688C30.2532 41.5052 30.5469 41.4206 30.8466 41.4293C31.1462 41.438 31.4333 41.5396 31.6589 41.7167C32.3962 42.4018 35.9499 50.7595 35.9499 50.7595C35.9499 50.7595 41.3426 47.8594 42.3021 47.716C43.2616 47.5726 44.461 50.1779 44.5409 50.3771C44.5762 50.9609 44.5762 51.5461 44.5409 52.1299C44.5409 52.1299 47.8725 52.2176 48.1745 52.6239C48.4168 53.454 48.545 54.3075 48.5566 55.1655C48.5566 55.1655 49.9691 55.5718 50.1912 56.5279C50.4133 57.4839 50.8753 59.0615 50.1912 59.412C49.5072 59.7626 48.1212 60.4478 48.1212 60.4478C48.1212 60.4478 47.5615 65.3238 47.4105 65.7699C47.2595 66.2161 44.1411 68.9568 44.1411 68.9568L31.9876 62.1368Z" fill="#FFBE9D"/>
<path d="M20.6484 111.199C20.6484 111.199 20.9771 111.375 21.6701 111.574C22.6834 111.859 23.7555 111.935 24.8062 111.797C26.4944 111.581 28.0754 110.928 29.3549 109.917C31.046 108.541 32.4745 106.926 33.5838 105.136C34.2371 104.084 34.787 102.983 35.2274 101.846C35.6894 100.594 36.0721 99.32 36.3734 98.0295C37.0664 95.3445 37.8216 92.4524 38.6211 89.377C40.2203 83.2342 42.0149 76.3664 43.9516 68.9648V68.909H43.9961C44.6091 68.3673 45.2221 67.8175 45.8351 67.2439C46.1371 66.957 46.4392 66.6702 46.7235 66.3754C46.8657 66.2241 47.0167 66.0727 47.1322 65.9213C47.2221 65.7714 47.2737 65.6053 47.2832 65.4353C47.5231 63.8418 47.7096 62.1926 47.9051 60.5274V60.4239L48.0117 60.3761L49.7086 59.5236C49.833 59.4519 50.0284 59.3722 50.1084 59.3084C50.1933 59.2395 50.2497 59.1469 50.2683 59.0455C50.3096 58.7812 50.3096 58.5131 50.2683 58.2488C50.1822 57.6645 50.0486 57.0867 49.8685 56.5199C49.5664 56.0243 49.059 55.6551 48.4559 55.4921L48.3049 55.4443V55.3089C48.3049 54.8468 48.2516 54.3687 48.1894 53.8986C48.1652 53.6632 48.1267 53.4292 48.0739 53.1975C48.0532 53.0954 48.0173 52.9963 47.9673 52.9027C47.9673 52.847 47.9673 52.9027 47.914 52.8549C47.8657 52.8322 47.8151 52.8136 47.7629 52.7992C46.6945 52.5904 45.6048 52.4809 44.5113 52.4725H44.2804V52.2654C44.2804 51.7714 44.2804 51.2216 44.2804 50.6719C44.2437 50.4844 44.1715 50.3038 44.0671 50.1381C43.9783 49.9469 43.8717 49.7636 43.7651 49.5724C43.5571 49.2034 43.3133 48.8514 43.0366 48.5207C42.9109 48.3666 42.7578 48.232 42.5835 48.1223C42.5191 48.0735 42.44 48.0429 42.3561 48.0344C42.2723 48.0259 42.1876 48.0399 42.1126 48.0745C41.6828 48.2222 41.2643 48.3952 40.8599 48.5924C39.2075 49.3892 37.5906 50.1859 36.0092 51.0464L35.7782 51.1738L35.6805 50.9507C34.8454 49.0625 34.0102 47.1981 33.1929 45.3736C32.7842 44.4574 32.3844 43.5412 31.9758 42.6409C31.9127 42.4392 31.7876 42.2575 31.6148 42.1166C31.442 41.9757 31.2284 41.8812 30.9985 41.8441C30.7862 41.7809 30.5562 41.7844 30.3463 41.8539C30.1364 41.9233 29.9592 42.0548 29.8436 42.2266C29.7328 42.3975 29.6861 42.5957 29.7103 42.7922C29.7103 42.9675 29.8347 43.2384 29.888 43.4535C30.0301 43.9156 30.1634 44.3698 30.2966 44.8239C30.5632 45.7401 30.8208 46.6404 31.0873 47.5328C31.6086 49.3281 32.1209 51.0809 32.6243 52.7912V52.847C32.4466 56.1189 32.2778 59.2527 32.1179 62.2484V62.2324L24.0244 85.8475L21.7412 92.4205C21.4747 93.1615 21.2703 93.7431 21.1282 94.1494C20.986 94.5558 20.8972 94.7311 20.8972 94.7311C20.8972 94.7311 20.9416 94.5239 21.066 94.1335L21.6257 92.3887C22.141 90.851 22.8784 88.6281 23.8112 85.7918C25.7302 80.0872 28.4576 71.9446 31.7537 62.1289V62.1687C31.9077 59.1836 32.0646 56.0498 32.2245 52.7673V52.8231C31.7181 51.1101 31.194 49.3573 30.6698 47.5726L29.8702 44.8637C29.737 44.4096 29.6037 43.9475 29.4616 43.4934C29.3851 43.2548 29.3228 43.0128 29.275 42.7683C29.2422 42.4918 29.3075 42.213 29.4616 41.9716C29.626 41.7231 29.8798 41.532 30.1812 41.4298C30.4794 41.3516 30.7949 41.3427 31.098 41.404C31.4011 41.4654 31.6817 41.5949 31.9136 41.7804C32.1366 41.968 32.3018 42.204 32.3933 42.4656L33.6104 45.1984C34.4367 47.0308 35.2629 48.8952 36.1069 50.7755L35.7782 50.6719C37.3685 49.8274 38.9676 48.9828 40.6556 48.1941C41.0823 47.9941 41.5213 47.8158 41.9705 47.6603C42.1108 47.6079 42.2637 47.5887 42.4147 47.6045C42.5667 47.6242 42.7122 47.6731 42.8411 47.7479C43.0551 47.8855 43.2439 48.0522 43.4008 48.2419C43.6979 48.5905 43.9567 48.964 44.1737 49.3573C44.2892 49.5565 44.3958 49.7477 44.4936 49.9469C44.62 50.1578 44.7042 50.387 44.7423 50.6241C44.7423 51.1898 44.7423 51.7156 44.7423 52.2175L44.5202 52.0024C45.6623 52.0093 46.8001 52.1268 47.914 52.353C47.9905 52.3769 48.0647 52.4062 48.1361 52.4406C48.2337 52.4883 48.3139 52.5602 48.3671 52.6478C48.436 52.7771 48.4867 52.9136 48.5181 53.0541C48.5714 53.3091 48.607 53.5481 48.6425 53.7951C48.6958 54.2811 48.7313 54.7591 48.758 55.2372L48.5981 55.0459C48.9613 55.1415 49.2992 55.3024 49.5909 55.5188C49.8826 55.7353 50.1221 56.0027 50.2949 56.3048C50.4896 56.9102 50.6322 57.5282 50.7214 58.1532C50.7831 58.4722 50.7831 58.7983 50.7214 59.1172C50.6827 59.3104 50.5695 59.4853 50.4015 59.6112C50.2558 59.6987 50.1045 59.7785 49.9485 59.8502L48.2605 60.639L48.3759 60.4876C48.1716 62.1528 47.985 63.7861 47.7363 65.4034L47.683 65.7141C47.6624 65.84 47.604 65.9584 47.5142 66.0567C47.3834 66.2312 47.2379 66.3963 47.0789 66.5507C46.7768 66.8535 46.4747 67.1483 46.1904 67.4351C45.5774 68.0087 44.9644 68.5585 44.3426 69.1002L44.4047 69.0046C42.4502 76.3983 40.6378 83.2661 39.012 89.4089C38.2036 92.4763 37.4306 95.3684 36.7199 98.0455C36.4159 99.3456 36.0243 100.628 35.5472 101.886C35.0901 103.034 34.5254 104.145 33.8592 105.208C32.7243 107.021 31.2623 108.652 29.5326 110.036C28.2148 111.054 26.5931 111.702 24.8684 111.901C23.7949 112.03 22.7025 111.932 21.679 111.614C21.4187 111.528 21.1662 111.424 20.9238 111.303L20.6484 111.199Z" fill="#323130"/>
<path d="M44.5483 52.1539C44.5483 52.2097 44.2463 52.2416 43.7754 52.2575C43.1775 52.2677 42.5822 52.3318 41.9986 52.4487C41.4353 52.5729 40.9158 52.8222 40.4882 53.1738C40.1684 53.4446 40.0263 53.6757 39.9552 53.6518C39.8841 53.6279 39.9552 53.3411 40.2484 52.9746C40.6621 52.5106 41.2379 52.1851 41.8831 52.0504C42.5049 51.9129 43.1508 51.8858 43.7843 51.9707C44.264 52.0265 44.5483 52.0982 44.5483 52.1539Z" fill="#EB996E"/>
<path d="M41.9728 52.2413C41.8573 52.2015 41.8484 51.9545 41.9728 51.6916C42.0972 51.4286 42.2749 51.2454 42.3904 51.2852C42.5058 51.3251 42.5236 51.5721 42.3904 51.835C42.2571 52.0979 42.0616 52.2811 41.9728 52.2413Z" fill="#EB996E"/>
<path d="M48.7102 55.1334C47.8478 55.3727 46.9474 55.483 46.045 55.46C45.7609 55.4515 45.4788 55.5043 45.2222 55.6138C44.9656 55.7233 44.742 55.8864 44.5702 56.0894C44.3392 56.4161 44.4192 56.687 44.3481 56.7029C44.2771 56.7189 44.0638 56.44 44.2859 55.962C44.4083 55.6928 44.6313 55.4703 44.9167 55.3326C45.2456 55.1707 45.6089 55.073 45.9828 55.0457C46.89 54.9212 47.8153 54.9509 48.7102 55.1334Z" fill="#EB996E"/>
<path d="M48.1192 58.0015C48.2435 58.0015 48.3146 58.5911 48.2791 59.3161C48.2435 60.0412 48.1103 60.6148 47.9859 60.6148C47.8615 60.6148 47.7815 60.0173 47.8171 59.2922C47.8526 58.5672 47.9859 57.9936 48.1192 58.0015Z" fill="#EB996E"/>
<path d="M5.54621 65.4192C5.54621 65.4192 5.21748 65.7219 4.7555 66.3673C4.13531 67.2863 3.72746 68.3078 3.55616 69.371C3.30296 70.954 3.24929 72.5576 3.39622 74.1514C3.49395 75.9599 3.65387 77.9358 3.90263 80.0073C4.32345 83.545 4.94916 87.0607 5.7772 90.5401C6.08815 91.8786 6.37243 92.9303 6.56788 93.727C6.65672 94.0616 6.73669 94.3405 6.79888 94.5795C6.86107 94.8185 6.86994 94.8823 6.86994 94.8823C6.86994 94.8823 6.82552 94.7867 6.76334 94.5954C6.70115 94.4042 6.60341 94.0696 6.50569 93.7429C6.28358 93.002 5.98152 91.9344 5.61727 90.5959C4.75369 87.1177 4.11005 83.5985 3.68942 80.0551C3.44066 77.9836 3.28961 75.9998 3.20077 74.1912C3.06613 72.5962 3.13169 70.9927 3.39622 69.4108C3.58711 68.3337 4.02254 67.3033 4.67555 66.3832C4.91613 66.0283 5.20899 65.704 5.54621 65.4192Z" fill="white"/>
<path d="M24.2481 54.5677L24.0437 54.6633L23.4574 54.9182C22.951 55.1333 22.2136 55.452 21.334 55.8902C19.0412 57.037 16.8144 58.2868 14.6621 59.6349C12.1212 61.2283 9.87346 62.6784 8.22989 63.7301L6.28425 64.965L5.74233 65.2916C5.68181 65.335 5.61628 65.3724 5.54688 65.4032C5.5975 65.3497 5.65752 65.3039 5.72457 65.2677L6.23984 64.9172L8.14993 63.6344C9.77574 62.5588 12.0146 61.061 14.5554 59.4994C16.7117 58.1456 18.9543 56.9059 21.2719 55.7867C22.1603 55.3644 22.9066 55.0616 23.4307 54.8624L24.026 54.6394C24.2036 54.5836 24.2036 54.5597 24.2481 54.5677Z" fill="white"/>
<path d="M66.6208 59.7545C66.565 59.7268 66.5141 59.6919 66.4697 59.6509L66.0699 59.3402C65.5749 58.9654 65.0557 58.6169 64.5152 58.2965C62.7117 57.2653 60.7981 56.3978 58.8027 55.7071C56.8134 55.0005 54.7817 54.394 52.717 53.8906C51.9175 53.6914 51.2778 53.548 50.8247 53.4524L50.3183 53.3329C50.2566 53.3214 50.1968 53.3027 50.1406 53.2771H50.3272L50.8425 53.3647C51.2956 53.4444 51.9441 53.5719 52.7437 53.7551C54.828 54.227 56.8757 54.8205 58.8738 55.5318C60.8807 56.2224 62.7965 57.1095 64.5863 58.177C65.3313 58.6293 66.0141 59.1588 66.6208 59.7545Z" fill="white"/>
<path d="M24.4975 120.569C24.377 120.55 24.2602 120.515 24.151 120.465C23.8424 120.344 23.5452 120.2 23.2626 120.035C22.784 119.778 22.3666 119.439 22.0343 119.037C21.702 118.635 21.4613 118.178 21.3259 117.693C21.082 116.713 21.2037 115.688 21.6723 114.777C21.8077 114.494 21.9808 114.226 22.1876 113.98C22.3298 113.813 22.4275 113.733 22.4364 113.741C22.194 114.081 21.9774 114.435 21.7878 114.801C21.3748 115.696 21.2787 116.683 21.5124 117.629C21.7669 118.563 22.4004 119.378 23.2893 119.916C24.0266 120.394 24.5153 120.537 24.4975 120.569Z" fill="white"/>
<path d="M21.6719 111.94C21.8608 112.257 22.0013 112.594 22.0894 112.944C22.2285 113.28 22.3123 113.631 22.3382 113.988C22.1363 113.679 21.9923 113.343 21.9118 112.992C21.7661 112.656 21.6849 112.301 21.6719 111.94Z" fill="white"/>
<path d="M33.6848 290.575L60.7816 290.456L60.2929 206.441L60.0353 120.975L23.317 120.553L16.7161 131.707C14.0153 136.192 12.2936 141.097 11.6432 146.16C11.199 150.032 14.4328 162.621 15.5522 165.807L25.6535 194.538L33.6848 290.575Z" fill="#263238"/>
<path d="M67.9833 121.079L97.7631 193.876C99.5274 198.567 100.113 203.549 99.4791 208.466C98.8447 213.383 97.0058 218.114 94.0939 222.319L59.5167 282.871L40.0781 261.056L69.005 206.879L43.5074 169.791L47.7985 121.19L59.8099 121.015L67.9833 121.079Z" fill="#263238"/>
<path d="M56.8829 122.513C56.9867 122.769 57.0496 123.038 57.0694 123.31C57.1672 123.82 57.2738 124.561 57.3981 125.485C57.6291 127.325 57.8779 129.883 58.02 132.711C58.1622 135.539 58.1711 138.105 58.1266 139.961C58.1266 140.886 58.0645 141.642 58.02 142.16C58.0291 142.429 57.9931 142.698 57.9134 142.957C57.8016 141.962 57.763 140.961 57.7979 139.961C57.7979 138.105 57.7002 135.555 57.5581 132.727C57.4159 129.899 57.2205 127.357 57.0694 125.556C56.943 124.546 56.8808 123.53 56.8829 122.513Z" fill="#455A64"/>
<path d="M50.9072 124.154C50.9516 124.21 50.4452 124.417 50.3031 125.062C50.2632 125.238 50.2742 125.419 50.3348 125.589C50.3955 125.759 50.5039 125.913 50.6496 126.034C50.8254 126.181 51.0444 126.279 51.2807 126.317C51.5169 126.356 51.7604 126.332 51.9822 126.25C52.195 126.151 52.3728 126.001 52.4953 125.817C52.6178 125.632 52.6801 125.421 52.6752 125.206C52.667 125.028 52.608 124.854 52.5038 124.702C52.3996 124.55 52.2537 124.424 52.0799 124.337C51.7185 124.18 51.3155 124.117 50.9161 124.154C50.9161 124.154 51.0049 124.051 51.2359 123.987C51.5691 123.914 51.92 123.945 52.2309 124.075C52.479 124.167 52.6935 124.32 52.8504 124.515C53.0073 124.711 53.1004 124.942 53.1194 125.182C53.1546 125.479 53.0852 125.778 52.921 126.037C52.7567 126.297 52.5059 126.503 52.2039 126.628C51.9018 126.753 51.5636 126.79 51.237 126.733C50.9104 126.677 50.6117 126.53 50.383 126.313C50.1942 126.145 50.0603 125.933 49.9961 125.702C49.9319 125.47 49.9397 125.227 50.0188 124.999C50.108 124.701 50.3088 124.439 50.5874 124.258C50.7651 124.146 50.8983 124.13 50.9072 124.154Z" fill="#455A64"/>
<path d="M36.6958 122.712C36.8267 122.963 36.9079 123.233 36.9357 123.509C37.0787 124.224 37.1056 124.954 37.0157 125.676C36.888 126.751 36.5417 127.796 35.994 128.759C35.3324 129.957 34.3529 130.992 33.1416 131.771C31.9303 132.55 30.5241 133.051 29.0466 133.229C27.864 133.387 26.6589 133.347 25.4929 133.109C24.704 132.956 23.944 132.701 23.2363 132.353C22.9689 132.239 22.723 132.089 22.5078 131.906C23.4898 132.303 24.5137 132.61 25.564 132.823C26.8276 133.058 28.1319 133.056 29.3946 132.817C30.6574 132.578 31.8511 132.107 32.9004 131.433C33.9498 130.759 34.832 129.897 35.4914 128.902C36.1508 127.907 36.573 126.801 36.7314 125.652C36.8358 124.674 36.8239 123.688 36.6958 122.712Z" fill="#455A64"/>
<path d="M71.555 129.692C70.9753 129.752 70.388 129.689 69.8403 129.508C68.4982 129.129 67.293 128.436 66.3489 127.501C65.3961 126.569 64.7422 125.424 64.4565 124.186C64.3166 123.681 64.3166 123.153 64.4565 122.648C64.5365 122.648 64.5454 123.23 64.8119 124.122C65.1719 125.275 65.8267 126.337 66.7243 127.224C67.6218 128.11 68.7374 128.797 69.9825 129.229C70.9064 129.556 71.5639 129.612 71.555 129.692Z" fill="#455A64"/>
<path d="M41.9721 134.193C42.0432 134.289 41.4213 134.735 40.755 135.372C40.0887 136.01 39.6356 136.599 39.5201 136.543C39.4046 136.488 39.7067 135.747 40.4085 135.093C41.1104 134.44 41.8833 134.089 41.9721 134.193Z" fill="#FAFAFA"/>
<path d="M52.9234 133.938C52.7902 133.938 52.5858 133.484 52.2749 132.942C51.9639 132.4 51.6797 131.954 51.7774 131.874C51.8751 131.795 52.3549 132.145 52.6658 132.751C52.9767 133.356 53.0389 133.874 52.9234 133.938Z" fill="#FAFAFA"/>
<path d="M42.2733 124.64C42.1578 124.64 41.909 124.385 41.7314 123.979C41.5537 123.573 41.5004 123.182 41.6159 123.182C41.7314 123.182 41.9801 123.437 42.1578 123.843C42.3355 124.25 42.3888 124.6 42.2733 124.64Z" fill="#FAFAFA"/>
<path d="M63.7658 130.52C63.6414 130.52 63.6503 130.018 63.7658 129.452C63.8813 128.887 64.1122 128.44 64.2366 128.464C64.361 128.488 64.3521 128.974 64.2366 129.54C64.1211 130.106 63.8901 130.544 63.7658 130.52Z" fill="#FAFAFA"/>
<path d="M68.8109 139.627C68.6954 139.579 68.8553 138.989 69.1752 138.296C69.495 137.603 69.8415 137.085 69.957 137.125C70.0725 137.165 69.957 137.762 69.6016 138.455C69.2462 139.149 68.9353 139.667 68.8109 139.627Z" fill="#FAFAFA"/>
</svg>
