<svg width="290" height="225" viewBox="0 0 290 225" fill="none" xmlns="http://www.w3.org/2000/svg">
<mask id="mask0" mask-type="alpha" maskUnits="userSpaceOnUse" x="0" y="0" width="290" height="225">
<path d="M0 40C0 17.9086 17.9086 0 40 0H250C272.091 0 290 17.9086 290 40V185C290 207.091 272.091 225 250 225H40C17.9086 225 0 207.091 0 185V40Z" fill="#DCF5FF"/>
</mask>
<g mask="url(#mask0)">
<path d="M225.758 196.533V208.418C225.758 208.418 223.859 226.544 220.786 243.964L237.644 279.283L233.762 279.516C233.762 279.516 207.77 247.393 206.858 243.964C205.945 240.535 207.468 214.591 207.468 214.591L180.954 230.591L169.522 270.827L165.633 269.229C165.633 269.229 169.597 226.14 170.434 225.104C183.156 209.42 201.069 199.043 201.069 199.043L204.725 192.418L225.758 196.533Z" fill="#263238" stroke="#263238" stroke-linecap="round" stroke-linejoin="round"/>
<path d="M193.827 158.629C193.827 158.629 194.752 163.69 193.415 164.849C192.078 166.008 187.325 166.749 186.783 164.444C186.241 162.14 190.713 139.275 191.255 136.971C191.797 134.666 193.415 136.024 193.957 136.703C194.499 137.382 193.827 158.629 193.827 158.629Z" fill="#F0BCAA" stroke="#263238" stroke-linecap="round" stroke-linejoin="round"/>
<path d="M217.441 150.241C217.441 150.241 232.31 156.235 236.905 158.278C241.5 160.322 239.058 164.91 238.372 166.508C237.686 168.106 226.659 196.684 226.384 197.198C226.11 197.713 224.327 198.954 221.776 198.947C219.224 198.94 204.329 195.251 203.794 193.461C203.259 191.671 204.212 188.859 204.212 188.859L211.989 165.061C211.989 165.061 193.033 166.09 192.101 165.953C191.168 165.816 188.726 162.832 191.579 160C194.432 157.167 212.305 152.339 213.251 151.53C214.197 150.721 215.816 149.692 217.441 150.241Z" fill="white" stroke="#263238" stroke-linecap="round" stroke-linejoin="round"/>
<path d="M194.247 155.645C194.247 155.645 196.681 155.645 197.49 160.658C198.3 165.671 197.086 166.611 195.735 166.878C194.384 167.146 191.27 168.25 189.645 166.611C188.019 164.972 187.882 161.33 188.829 158.491C188.994 157.946 189.267 157.44 189.63 157.001C189.992 156.563 190.439 156.2 190.943 155.936C191.447 155.671 191.998 155.509 192.566 155.459C193.133 155.409 193.704 155.472 194.247 155.645V155.645Z" fill="white" stroke="#263238" stroke-linecap="round" stroke-linejoin="round"/>
<path d="M222.789 150.372L216.699 157.95L220.889 155.645L222.384 159.575L222.789 150.372Z" fill="white" stroke="#263238" stroke-linecap="round" stroke-linejoin="round"/>
<path d="M221.707 146.311L222.516 160.116L228.338 153.889L229.689 145.364L221.707 146.311Z" fill="#F0BCAA" stroke="#263238" stroke-linecap="round" stroke-linejoin="round"/>
<path d="M230.504 150.234L223.522 156.688L225.292 162.38L231.718 154.973L230.504 150.234Z" fill="white" stroke="#263238" stroke-linecap="round" stroke-linejoin="round"/>
<path d="M167.849 192.891C177.211 192.925 186.369 190.154 194.143 184.936C199.005 181.735 203.147 177.557 206.306 172.668C209.464 167.778 211.57 162.284 212.488 156.536C216.192 132.937 198.882 110.553 173.85 106.568L150.704 102.131L148.296 119.338L170.777 123.377L171.024 123.425C186.798 125.887 197.771 139.549 195.521 153.889C193.272 168.229 178.678 177.831 162.973 175.444L139.381 170.952L136.171 187.727L159.955 192.246L160.23 192.294C162.75 192.689 165.298 192.889 167.849 192.891V192.891Z" fill="#263238" stroke="#263238" stroke-linecap="round" stroke-linejoin="round"/>
<path d="M168.378 191.047C177.74 191.08 186.898 188.31 194.672 183.091C199.534 179.891 203.676 175.713 206.835 170.823C209.994 165.934 212.099 160.44 213.017 154.692C216.735 131.093 199.411 108.702 174.379 104.724L151.233 100.287L148.86 117.494L171.341 121.533C171.422 121.553 171.504 121.567 171.588 121.574C187.361 124.036 198.334 137.704 196.078 152.045C193.822 166.385 179.241 175.986 163.529 173.6L139.883 169.108L136.639 185.883L160.436 190.402L160.711 190.45C163.247 190.847 165.811 191.047 168.378 191.047V191.047Z" fill="#52CBFF" stroke="#263238" stroke-linecap="round" stroke-linejoin="round"/>
<path d="M166.661 120.696L148.858 117.494L151.231 100.287L169.315 103.757L166.661 120.696Z" fill="white" stroke="#263238" stroke-linecap="round" stroke-linejoin="round"/>
<path d="M136.672 185.883L139.881 169.108L158.535 172.647L155.895 189.531L136.672 185.883Z" fill="white" stroke="#263238" stroke-linecap="round" stroke-linejoin="round"/>
<path d="M221.082 184.985C221.082 184.985 196.085 186.425 194.85 186.219C193.616 186.014 189.748 181.878 188.774 181.419C187.8 180.959 185.839 182.386 184.659 182.852C183.479 183.318 182.485 182.694 182.396 183.647C182.307 184.601 183.006 184.971 184.357 184.903C185.708 184.834 186.518 184.649 187.19 184.614C187.862 184.58 185.777 186.048 183.966 187.769C182.156 189.491 180.702 190.108 181.148 190.896C181.593 191.685 182.67 191.493 183.322 190.896C183.973 190.3 185.859 190.211 187.347 190.142C188.836 190.074 191.346 188.853 191.346 188.853C194.82 189.672 198.337 190.301 201.88 190.739C209.527 191.829 220.314 193.434 223.284 193.139C226.253 192.844 228.208 188.818 228.208 188.818L221.082 184.985Z" fill="#F0BCAA" stroke="#263238" stroke-linecap="round" stroke-linejoin="round"/>
<path d="M236.903 158.279C236.903 158.279 240.922 159.842 242.006 162.147C243.089 164.451 241.868 168.237 240.25 171.213C238.631 174.19 228.742 189.73 228.742 189.73L222.789 184.319C222.789 184.319 228.2 167.27 228.879 165.802" fill="white"/>
<path d="M236.903 158.279C236.903 158.279 240.922 159.842 242.006 162.147C243.089 164.451 241.868 168.237 240.25 171.213C238.631 174.19 228.742 189.73 228.742 189.73L222.789 184.319C222.789 184.319 228.2 167.27 228.879 165.802" stroke="#263238" stroke-linecap="round" stroke-linejoin="round"/>
<path d="M224.14 179.875C224.14 179.875 228.337 181.768 230.635 184.339C232.932 186.911 232.692 187.721 231.177 189.346C229.661 190.971 228.742 191.781 227.796 191.108C226.849 190.436 220.485 186.232 220.08 185.149C219.676 184.065 221.027 180.012 221.973 179.601C222.703 179.404 223.482 179.502 224.14 179.875V179.875Z" fill="white" stroke="#263238" stroke-linecap="round" stroke-linejoin="round"/>
<path d="M191.256 136.971C191.256 136.971 187.059 133.048 186.517 131.148C185.975 129.249 187.203 126.279 187.6 126.142C187.998 126.005 188.41 126.828 188.41 127.904C188.41 127.904 189.63 126.416 189.781 127.5C189.859 128.128 189.902 128.76 189.912 129.393C189.912 129.393 191.132 128.021 191.4 128.988C191.466 129.283 191.45 129.59 191.355 129.876C191.259 130.162 191.088 130.417 190.858 130.613C190.858 130.613 192.621 129.242 192.621 130.202C192.56 130.865 192.274 131.487 191.811 131.964C191.811 131.964 194.109 135.078 193.972 136.703C193.985 137.114 193.836 137.514 193.558 137.817C193.28 138.119 192.894 138.301 192.483 138.322" fill="#F0BCAA"/>
<path d="M191.256 136.971C191.256 136.971 187.059 133.048 186.517 131.148C185.975 129.249 187.203 126.279 187.6 126.142C187.998 126.005 188.41 126.828 188.41 127.904C188.41 127.904 189.63 126.416 189.781 127.5C189.859 128.128 189.902 128.76 189.912 129.393C189.912 129.393 191.132 128.021 191.4 128.988C191.466 129.283 191.45 129.59 191.355 129.876C191.259 130.162 191.088 130.417 190.858 130.613C190.858 130.613 192.621 129.242 192.621 130.202C192.56 130.865 192.274 131.487 191.811 131.964C191.811 131.964 194.109 135.078 193.972 136.703C193.985 137.114 193.836 137.514 193.558 137.817C193.28 138.119 192.894 138.301 192.483 138.322" stroke="#263238" stroke-linecap="round" stroke-linejoin="round"/>
<path d="M190.816 130.613C190.816 130.613 189.87 131.56 190.007 132.369" stroke="#263238" stroke-linecap="round" stroke-linejoin="round"/>
<path d="M189.897 129.393C189.897 129.393 188.814 130.881 188.814 131.827" stroke="#263238" stroke-linecap="round" stroke-linejoin="round"/>
<path d="M188.41 127.904C187.806 128.739 187.433 129.719 187.327 130.744" stroke="#263238" stroke-linecap="round" stroke-linejoin="round"/>
<path d="M223.523 156.688L222.515 160.117L224.504 159.438L223.523 156.688Z" fill="white" stroke="#263238" stroke-linecap="round" stroke-linejoin="round"/>
<path d="M221.974 127.362C221.974 127.362 222.79 124.928 226.171 124.653C229.552 124.379 235.649 129.255 236.191 132.643C236.732 136.031 231.719 145.09 230.231 146.441C228.743 147.792 219.63 148.636 217.474 145.617C215.588 142.976 219.272 132.506 221.974 127.362Z" fill="#F0BCAA" stroke="#263238" stroke-linecap="round" stroke-linejoin="round"/>
<path d="M222.246 135.62C222.246 135.62 220.874 137.375 220.079 137.512C219.283 137.65 218.674 138.002 219.36 138.825C220.046 139.648 221.684 139.57 221.684 139.57" stroke="#263238" stroke-linecap="round" stroke-linejoin="round"/>
<path d="M221.678 141.84C221.678 141.84 224.655 142.526 226.006 140.352" stroke="#263238" stroke-linecap="round" stroke-linejoin="round"/>
<path d="M225.491 139.81L226.712 140.893" stroke="#263238" stroke-linecap="round" stroke-linejoin="round"/>
<path d="M226.033 136.97C225.519 136.567 224.918 136.29 224.278 136.161" stroke="#263238" stroke-linecap="round" stroke-linejoin="round"/>
<path d="M228.063 134.804C228.063 134.804 227.254 133.59 224.682 134.118" stroke="#263238" stroke-linecap="round" stroke-linejoin="round"/>
<path d="M223.736 132.63C223.736 132.63 223.873 130.572 221.974 130.73" stroke="#263238" stroke-linecap="round" stroke-linejoin="round"/>
<path d="M220.389 134.502C220.169 134.982 220.162 135.441 220.389 135.537C220.615 135.633 220.93 135.311 221.15 134.851C221.369 134.392 221.369 133.912 221.15 133.823C220.93 133.733 220.601 134.001 220.389 134.502Z" fill="#263238"/>
<path d="M232.803 140.626C232.803 140.626 230.745 140.084 230.745 139.001C230.745 137.917 231.561 137.629 231.287 136.834C231.013 136.038 229.12 134.941 229.662 133.72C230.203 132.499 232.912 132.506 232.638 131.56C232.364 130.613 223.304 128.309 222.625 125.47C221.946 122.631 224.93 119.105 227.227 119.243C229.524 119.38 228.311 122.219 228.311 122.219C228.311 122.219 235.08 120.162 236.431 122.761C237.782 125.36 235.21 126.553 235.21 126.553C235.21 126.553 239.949 128.714 240.353 131.964C240.758 135.215 235.08 141.435 233.859 141.84C232.638 142.245 232.803 140.626 232.803 140.626Z" fill="#263238" stroke="#263238" stroke-linecap="round" stroke-linejoin="round"/>
<path d="M231.719 141.435C231.719 141.435 232.536 139.542 234.024 139.679C235.512 139.817 235.107 141.977 233.619 143.739C232.131 145.502 230.368 144.281 230.231 143.877" fill="#F0BCAA"/>
<path d="M231.719 141.435C231.719 141.435 232.536 139.542 234.024 139.679C235.512 139.817 235.107 141.977 233.619 143.739C232.131 145.502 230.368 144.281 230.231 143.877" stroke="#263238" stroke-linecap="round" stroke-linejoin="round"/>
<path d="M93.8582 134.269H112.334V146.414H93.8582V134.269Z" fill="white" stroke="#263238" stroke-linecap="round" stroke-linejoin="round"/>
<path d="M112.334 134.269L103.096 140.338L93.8582 134.269" stroke="#263238" stroke-linecap="round" stroke-linejoin="round"/>
<path d="M54.664 109.993L72.5625 105.411L75.5748 117.177L57.6763 121.759L54.664 109.993Z" fill="white" stroke="#263238" stroke-linecap="round" stroke-linejoin="round"/>
<path d="M72.5703 105.423L65.1293 113.598L54.6707 110.005" stroke="#263238" stroke-linecap="round" stroke-linejoin="round"/>
<path d="M65.1689 172.172L83.0674 167.589L86.0797 179.356L68.1812 183.938L65.1689 172.172Z" fill="white" stroke="#263238" stroke-linecap="round" stroke-linejoin="round"/>
<path d="M83.0918 167.606L75.6439 175.781L65.1921 172.187" stroke="#263238" stroke-linecap="round" stroke-linejoin="round"/>
<path d="M45.4931 130.619L63.3916 126.037L66.4039 137.803L48.5054 142.386L45.4931 130.619Z" fill="white" stroke="#263238" stroke-linecap="round" stroke-linejoin="round"/>
<path d="M63.4014 126.052L55.9603 134.227L45.5017 130.64" stroke="#263238" stroke-linecap="round" stroke-linejoin="round"/>
<path d="M62.3229 151.63L74.1494 137.435L83.4808 145.21L71.6543 159.404L62.3229 151.63Z" fill="white" stroke="#263238" stroke-linecap="round" stroke-linejoin="round"/>
<path d="M74.1484 137.43L72.9003 148.417L62.3182 151.626" stroke="#263238" stroke-linecap="round" stroke-linejoin="round"/>
<path d="M39.0104 107.734L50.8369 93.5391L60.1683 101.314L48.3418 115.508L39.0104 107.734Z" fill="white" stroke="#263238" stroke-linecap="round" stroke-linejoin="round"/>
<path d="M50.8301 93.5376L49.5819 104.524L38.9998 107.734" stroke="#263238" stroke-linecap="round" stroke-linejoin="round"/>
<path d="M49.4303 148.333L64.2109 159.234L57.045 168.95L42.2644 158.05L49.4303 148.333Z" fill="white" stroke="#263238" stroke-width="0.994032" stroke-linecap="round" stroke-linejoin="round"/>
<path d="M62.4492 159.067L51.4145 158.477L47.574 148.108" stroke="#263238" stroke-linecap="round" stroke-linejoin="round"/>
<path d="M138.607 94.4707H157.083V106.616H138.607V94.4707Z" fill="white" stroke="#263238" stroke-linecap="round" stroke-linejoin="round"/>
<path d="M157.083 94.4707L147.845 100.54L138.607 94.4707" stroke="#263238" stroke-linecap="round" stroke-linejoin="round"/>
<path d="M120.78 103.835L134.159 91.0942L142.535 99.8898L129.155 112.631L120.78 103.835Z" fill="white" stroke="#263238" stroke-linecap="round" stroke-linejoin="round"/>
<path d="M134.17 91.0962L131.667 101.863L120.79 103.839" stroke="#263238" stroke-linecap="round" stroke-linejoin="round"/>
<path d="M72.552 86L89.2803 93.8433L84.1242 104.84L67.3959 96.997L72.552 86Z" fill="white" stroke="#263238" stroke-linecap="round" stroke-linejoin="round"/>
<path d="M89.2773 93.8598L78.3387 95.4372L72.5504 86.021" stroke="#263238" stroke-linecap="round" stroke-linejoin="round"/>
<path d="M102.415 110.817L97.9512 92.8887L109.737 89.9545L114.201 107.883L102.415 110.817Z" fill="white" stroke="#263238" stroke-linecap="round" stroke-linejoin="round"/>
<path d="M97.9454 92.8931L106.072 100.389L102.41 110.82" stroke="#263238" stroke-linecap="round" stroke-linejoin="round"/>
<path d="M142.746 160.285L157.91 170.84L150.971 180.809L135.807 170.254L142.746 160.285Z" fill="white" stroke="#263238" stroke-linecap="round" stroke-linejoin="round"/>
<path d="M157.907 170.829L146.859 170.534L142.744 160.274" stroke="#263238" stroke-linecap="round" stroke-linejoin="round"/>
<path d="M120.318 162.742L135.468 173.273L128.545 183.232L113.395 172.701L120.318 162.742Z" fill="white" stroke="#263238" stroke-width="0.998649" stroke-linecap="round" stroke-linejoin="round"/>
<path d="M135.124 173.14L124.076 172.845L119.961 162.585" stroke="#263238" stroke-linecap="round" stroke-linejoin="round"/>
<path d="M136.683 111.098L153.117 102.656L158.667 113.459L142.233 121.902L136.683 111.098Z" fill="white" stroke="#263238" stroke-linecap="round" stroke-linejoin="round"/>
<path d="M153.111 102.652L147.666 112.274L136.679 111.094" stroke="#263238" stroke-linecap="round" stroke-linejoin="round"/>
<path d="M129.412 181.423L145.846 172.98L151.396 183.784L134.961 192.226L129.412 181.423Z" fill="white" stroke="#263238" stroke-linecap="round" stroke-linejoin="round"/>
<path d="M145.85 172.976L140.404 182.604L129.411 181.425" stroke="#263238" stroke-linecap="round" stroke-linejoin="round"/>
<path d="M161.67 157.661L191.859 163.49L195.034 156.861L196.304 150.58L163.918 143.602L161.67 157.661Z" fill="#52CBFF" stroke="#263238"/>
<path d="M194.932 151.488L196.989 149.774L197.675 151.831L194.246 162.461L191.503 164.862L191.16 161.776L194.932 151.488Z" fill="#52CBFF"/>
<path d="M163.042 159.376L161.327 157.662L191.16 163.491L189.789 164.863L163.042 159.376Z" fill="#263238"/>
</g>
</svg>
