<svg width="290" height="225" viewBox="0 0 290 225" fill="none" xmlns="http://www.w3.org/2000/svg">
<mask id="mask0" mask-type="alpha" maskUnits="userSpaceOnUse" x="0" y="0" width="290" height="225">
<path d="M0 40C0 17.9086 17.9086 0 40 0H250C272.091 0 290 17.9086 290 40V185C290 207.091 272.091 225 250 225H40C17.9086 225 0 207.091 0 185V40Z" fill="#DCF5FF"/>
</mask>
<g mask="url(#mask0)">
<path d="M139.448 85.5198H115.329C114.635 85.5206 113.953 85.7075 113.355 86.0609C112.757 86.4144 112.264 86.9215 111.929 87.5297V87.5297C111.336 88.5994 110.468 89.4909 109.414 90.1116C108.361 90.7324 107.16 91.0598 105.937 91.0598C104.714 91.0598 103.514 90.7324 102.46 90.1116C101.406 89.4909 100.538 88.5994 99.9454 87.5297V87.5297C99.6124 86.9137 99.119 86.3991 98.5175 86.0405C97.916 85.6819 97.2288 85.4926 96.5285 85.4926H72.4368C71.7755 85.484 71.1189 85.6057 70.5047 85.8509C69.8904 86.096 69.3305 86.4597 68.8568 86.9213C68.3832 87.3829 68.005 87.9332 67.7441 88.5409C67.4831 89.1486 67.3444 89.8018 67.3359 90.4631V226.496C67.3545 227.831 67.9021 229.104 68.8584 230.036C69.8147 230.968 71.1016 231.482 72.4368 231.466H139.448C140.784 231.482 142.071 230.968 143.029 230.036C143.986 229.105 144.534 227.832 144.555 226.496V90.4902C144.536 89.1542 143.988 87.8802 143.03 86.9481C142.073 86.0161 140.784 85.5024 139.448 85.5198Z" fill="#52CBFF"/>
<path d="M146.907 88.9858C146.91 88.0694 146.732 87.1615 146.383 86.3141C146.035 85.4667 145.522 84.6964 144.875 84.0474C144.228 83.3984 143.46 82.8835 142.613 82.5322C141.767 82.1808 140.86 82 139.943 82H71.9484C71.0342 81.9993 70.1287 82.1788 69.2838 82.5281C68.4389 82.8775 67.6712 83.39 67.0244 84.0362C66.3777 84.6825 65.8646 85.4498 65.5146 86.2944C65.1645 87.139 64.9844 88.0444 64.9844 88.9586V88.9586V231.928C64.9844 233.774 65.7175 235.544 67.0225 236.849C68.3275 238.154 70.0975 238.887 71.943 238.887H139.943C141.789 238.887 143.56 238.154 144.866 236.849C146.171 235.544 146.906 233.774 146.907 231.928V231.928V88.9858ZM144.555 226.496C144.535 227.832 143.986 229.105 143.029 230.037C142.072 230.968 140.784 231.483 139.449 231.467H72.4373C71.1022 231.483 69.8153 230.968 68.859 230.036C67.9027 229.105 67.3551 227.831 67.3365 226.496V90.4905C67.345 89.8292 67.4837 89.1761 67.7447 88.5684C68.0056 87.9607 68.3837 87.4103 68.8574 86.9487C69.3311 86.4872 69.891 86.1235 70.5053 85.8783C71.1195 85.6332 71.776 85.5114 72.4373 85.5201H96.54C97.2396 85.5199 97.9261 85.7091 98.5268 86.0678C99.1274 86.4265 99.6197 86.9411 99.9514 87.5571V87.5571C100.544 88.6268 101.412 89.5183 102.466 90.1391C103.52 90.7598 104.72 91.0872 105.943 91.0872C107.166 91.0872 108.367 90.7598 109.42 90.1391C110.474 89.5183 111.342 88.6268 111.935 87.5571C112.27 86.9482 112.762 86.4404 113.36 86.0868C113.958 85.7333 114.64 85.5469 115.335 85.5472H139.454C140.116 85.5386 140.772 85.6603 141.386 85.9055C142.001 86.1506 142.561 86.5143 143.034 86.9759C143.508 87.4375 143.886 87.9878 144.147 88.5955C144.408 89.2032 144.547 89.8564 144.555 90.5177V226.496Z" fill="#263238"/>
<path d="M173.302 138.911C173.302 138.911 149.928 146.155 145.528 140.434L146.125 111.252H149.673L153.845 131.809L173 128.301C173 128.301 175.455 135.907 173.302 138.911Z" fill="white"/>
<path d="M173.302 138.911C173.302 138.911 149.928 146.155 145.528 140.434L146.125 111.252H149.673L153.845 131.809L173 128.301C173 128.301 175.455 135.907 173.302 138.911Z" stroke="#263238" stroke-linecap="round" stroke-linejoin="round"/>
<path d="M171.009 139.675L175.113 164.947C175.006 181.325 182.82 178.864 188.246 178.817C194.516 178.763 204.034 172.546 199.366 162.868L201.163 127.838L190.237 127.006C186.636 126.724 171.881 127.187 170.707 129.072C167.662 133.961 171.009 139.675 171.009 139.675Z" fill="white"/>
<path d="M171.009 139.675L175.113 164.947C175.006 181.325 182.82 178.864 188.246 178.817C194.516 178.763 204.034 172.546 199.366 162.868L201.163 127.838L190.237 127.006C186.636 126.724 171.881 127.187 170.707 129.072C167.662 133.961 171.009 139.675 171.009 139.675Z" stroke="#263238" stroke-linecap="round" stroke-linejoin="round"/>
<path d="M211.456 143.64C209.816 141.253 208.609 138.597 207.888 135.793C207.625 134.388 207.216 133.014 206.667 131.695C206.149 130.676 205.402 129.791 204.483 129.11C203.565 128.429 202.501 127.971 201.375 127.771C200.895 127.666 200.395 127.689 199.927 127.838C198.954 128.207 198.525 129.327 198.33 130.347C197.909 132.536 198.034 134.796 198.692 136.926C199.142 138.375 204.541 148.878 208.082 152.949C207.774 150.897 210.134 144.036 211.456 143.64Z" fill="white"/>
<path d="M211.456 143.64C209.816 141.253 208.609 138.597 207.888 135.793C207.625 134.388 207.216 133.014 206.667 131.695C206.149 130.676 205.402 129.791 204.483 129.11C203.565 128.429 202.501 127.971 201.375 127.771C200.895 127.666 200.395 127.689 199.927 127.838C198.954 128.207 198.525 129.327 198.33 130.347C197.909 132.536 198.034 134.796 198.692 136.926C199.142 138.375 204.541 148.878 208.082 152.949C207.774 150.897 210.134 144.036 211.456 143.64Z" stroke="#263238" stroke-linecap="round" stroke-linejoin="round"/>
<path d="M206.802 151.151C203.194 144.236 204.938 128.3 204.83 125.738L209.592 125.483C210.068 125.483 212.275 139.072 213.777 144.712C215.119 149.85 213.831 155.047 211.457 155.047C209.485 155.047 207.56 152.606 206.802 151.151Z" fill="white" stroke="#263238" stroke-linecap="round" stroke-linejoin="round"/>
<path d="M150.866 135.94C151.881 135.008 152.675 133.863 153.194 132.586Z" fill="white"/>
<path d="M150.866 135.94C151.881 135.008 152.675 133.863 153.194 132.586" stroke="#263238" stroke-linecap="round" stroke-linejoin="round"/>
<path d="M175.783 159.079C177.695 162.211 190.076 165.557 195.012 164.84" stroke="#263238" stroke-linecap="round" stroke-linejoin="round"/>
<path d="M179.283 167.919C182.85 168.532 186.505 168.393 190.014 167.51" stroke="#263238" stroke-linecap="round" stroke-linejoin="round"/>
<path d="M201.47 169.682C201.47 169.682 205.004 175.826 205.762 177.254C206.52 178.683 222.529 199.722 225.601 215.041C226.178 217.952 214.367 250.507 214.367 250.507L211.684 248.991C211.684 248.991 213.549 219.3 213.093 216.832C212.637 214.364 200.853 196.148 200.853 196.148C200.853 196.148 194.273 191.312 191.563 185.692L201.47 169.682Z" fill="#263238"/>
<path d="M201.854 185.075C201.854 185.075 199.842 189.555 199.842 190.199C199.842 190.843 210.908 225.812 214.161 233.901C216.218 239.11 218.031 244.44 219.6 249.89C219.6 249.89 220.861 251.547 219.909 253.244C218.957 254.94 215.167 256.054 214.389 254.538C213.611 253.022 205.945 245.148 202.712 237.315C199.48 229.481 194.932 216.389 192.344 211.513C188.953 205.283 185.942 198.852 183.329 192.258C180.077 183.934 176.75 174.961 176.75 174.961C178.101 175.082 179.459 175.12 180.814 175.075C184.007 174.966 187.168 174.406 190.204 173.411C197.273 171.037 200.331 166.49 200.331 166.49C200.331 166.49 202.082 171.232 202.538 172.15L201.854 185.075Z" fill="#263238"/>
<path d="M209.493 125.49L208.085 125.605C206.3 125.922 204.467 125.837 202.719 125.356C201.599 125.081 199.004 124.277 198.695 124.223C197.924 124.058 197.145 123.933 196.361 123.847C193.993 123.706 195.194 122.821 196.18 122.861C197.481 122.922 197.917 122.895 198.916 122.969C198.796 122.902 198.427 122.828 198.42 122.539C198.42 121.835 199.346 121.869 199.346 121.869C199.346 121.869 198.333 121.44 198.474 120.91C198.615 120.38 199.292 120.239 199.721 120.279C199.721 120.279 199.151 120.004 199.178 119.709C199.299 118.569 201.639 118.488 201.639 118.488C201.639 118.488 200.964 118.489 200.815 117.952C200.665 117.415 202.217 117.17 203.162 117.952C203.886 118.468 203.987 118.321 204.751 118.784C205.496 119.421 206.098 120.21 206.515 121.097C206.636 121.285 209.493 125.49 209.493 125.49Z" fill="#F0BCAA" stroke="#263238" stroke-linecap="round" stroke-linejoin="round"/>
<path d="M146.125 111.252V107.556C146.117 105.702 146.388 103.857 146.93 102.084C147.239 101.104 147.601 100.253 147.929 100.125C148.54 99.9038 148.808 102.379 148.808 102.379C148.349 100.394 148.055 98.3753 147.929 96.3424C147.929 94.1895 150.827 103.13 150.827 103.13L149.673 111.252H146.125Z" fill="#F0BCAA" stroke="#263238" stroke-linecap="round" stroke-linejoin="round"/>
<path d="M149.627 105.242C149.977 104.972 150.239 104.603 150.378 104.183Z" fill="white"/>
<path d="M149.627 105.242C149.977 104.972 150.239 104.603 150.378 104.183" stroke="#263238" stroke-linecap="round" stroke-linejoin="round"/>
<path d="M177.715 118.958C178.967 121.067 179.66 123.461 179.727 125.913C179.848 129.991 184.569 135.698 185.917 135.973C187.265 136.248 188.513 129.535 188.453 127.502C188.392 125.47 187.641 119.857 187.641 119.857C187.641 119.857 181.182 114.974 177.715 118.958Z" fill="#F0BCAA" stroke="#263238" stroke-linecap="round" stroke-linejoin="round"/>
<path d="M179.613 124.356C179.613 124.356 185.804 132.8 188.232 124.216C190.66 115.631 181.424 126.563 179.613 124.356Z" fill="#263238"/>
<path d="M190.062 118.288C189.733 123.298 187.446 126.115 184.81 126.611C182.403 127.054 178.881 124.599 177.124 120.957C176.99 120.87 174.851 119.388 174.341 119.026C174.075 118.84 173.858 118.592 173.708 118.303C173.559 118.015 173.481 117.694 173.482 117.369C173.499 117.057 173.61 116.758 173.798 116.509C173.987 116.261 174.246 116.074 174.542 115.974H174.602C174.904 115.908 175.219 115.932 175.508 116.041C175.065 114.331 174.703 112.594 174.428 110.843C174.556 106.819 175.89 103.533 180.183 103.211C184.475 102.889 188.063 105.29 188.231 107.02C188.352 108.362 188.788 111.91 189.177 115.578C189.284 116.531 190.136 117.161 190.062 118.288Z" fill="#F0BCAA" stroke="#263238" stroke-linecap="round" stroke-linejoin="round"/>
<path d="M188.231 112.493C188.231 112.493 185.468 111.225 185.937 115.343C186.031 116.155 187.54 117.355 187.54 117.355C187.54 117.355 187.151 118.569 186.434 118.569" stroke="#263238" stroke-linecap="round" stroke-linejoin="round"/>
<path d="M182.892 113.901C182.892 113.901 181.483 113.042 180.517 113.572C180.014 113.791 179.585 114.152 179.283 114.612" stroke="#263238" stroke-linecap="round" stroke-linejoin="round"/>
<path d="M183.429 116.946C183.536 117.442 183.429 117.885 183.14 117.945C182.852 118.006 182.57 117.643 182.469 117.147C182.369 116.651 182.469 116.208 182.765 116.148C183.06 116.087 183.328 116.443 183.429 116.946Z" fill="#263238"/>
<path d="M188.876 115.498C188.983 115.994 188.876 116.437 188.588 116.497C188.299 116.558 188.017 116.195 187.917 115.706C187.816 115.216 187.917 114.76 188.205 114.707C188.494 114.653 188.775 115.008 188.876 115.498Z" fill="#263238"/>
<path d="M174.106 105.645C173.615 106.125 173.275 106.738 173.127 107.408C172.725 108.827 172.609 110.31 172.785 111.774C172.961 113.237 173.426 114.651 174.153 115.933C174.6 115.878 175.053 115.896 175.494 115.987C175.964 116.107 176.567 116.912 176.789 117.328C176.983 117.771 177.094 118.246 177.117 118.73C177.01 117.455 176.909 116.188 176.802 114.914C176.73 114.404 176.753 113.886 176.869 113.384V113.384C177.198 112.338 176.836 109.87 176.929 107.663C179.713 111.064 183.757 110.46 185.098 110.346C187.111 110.178 188.827 108.119 188.72 106.651C188.613 105.182 188.217 101.399 181.584 101.01C180.123 100.855 178.649 101.162 177.372 101.889C176.967 102.155 176.623 102.505 176.363 102.914C176.103 103.323 175.933 103.783 175.863 104.263C175.769 104.88 176.004 104.934 175.534 105.235C175.065 105.537 174.569 105.249 174.106 105.645Z" fill="#263238" stroke="#263238" stroke-linecap="round" stroke-linejoin="round"/>
<path d="M177.923 109.544C181.442 104.17 187.973 109.498 188.603 106.863C189.233 104.228 186.182 99.0317 184.05 99.159C181.918 99.2863 181.939 100.875 181.939 100.875C181.939 100.875 175.657 98.965 174.403 101.377C173.149 103.79 177.527 102.931 175.536 104.897C173.544 106.863 174.403 114.918 177.923 109.544Z" fill="#263238" stroke="#263238" stroke-linecap="round" stroke-linejoin="round"/>
<path d="M182.893 120.93C182.893 120.93 183.878 122.016 185.938 121.299Z" fill="white"/>
<path d="M182.893 120.93C182.893 120.93 183.878 122.016 185.938 121.299" stroke="#263238" stroke-linecap="round" stroke-linejoin="round"/>
<path d="M88.6885 103.266C87.4 103.266 86.4519 102.987 85.8442 102.43C85.2365 101.867 84.9326 101.08 84.9326 100.067C84.9326 99.0652 85.2337 98.283 85.8357 97.7204C86.4434 97.1577 87.3944 96.8763 88.6885 96.8763C89.9883 96.8763 90.9393 97.1577 91.5414 97.7204C92.1491 98.283 92.4529 99.0652 92.4529 100.067C92.4529 101.085 92.1519 101.873 91.5498 102.43C90.9477 102.987 89.994 103.266 88.6885 103.266ZM88.6885 101.544C89.3131 101.544 89.7633 101.426 90.039 101.189C90.3147 100.947 90.4526 100.573 90.4526 100.067C90.4526 99.5716 90.3147 99.203 90.039 98.9611C89.7633 98.7191 89.3131 98.5981 88.6885 98.5981C88.0696 98.5981 87.6223 98.7191 87.3465 98.9611C87.0708 99.203 86.933 99.5716 86.933 100.067C86.933 100.568 87.0708 100.939 87.3465 101.181C87.6223 101.423 88.0696 101.544 88.6885 101.544Z" fill="#263238"/>
<path d="M98.3164 98.5728C98.277 99.2818 98.2573 100.047 98.2573 100.869C98.2573 101.696 98.277 102.467 98.3164 103.181C97.9563 103.164 97.6721 103.156 97.4639 103.156C97.267 103.156 96.9828 103.164 96.6115 103.181L96.3667 101.94C96.2373 102.391 96.0347 102.725 95.759 102.945C95.4833 103.159 95.1625 103.266 94.7968 103.266C94.4592 103.266 94.1666 103.192 93.919 103.046C93.6714 102.894 93.4829 102.692 93.3535 102.438C93.2297 102.185 93.1678 101.901 93.1678 101.586V100.371C93.1678 99.6222 93.1538 99.023 93.1256 98.5728H95.0247C94.9909 99.4 94.974 100.219 94.974 101.029C94.974 101.277 95.0331 101.473 95.1513 101.62C95.2751 101.766 95.4298 101.839 95.6155 101.839C95.7899 101.839 95.9419 101.763 96.0713 101.611C96.2063 101.454 96.2879 101.24 96.316 100.97V100.776C96.3273 100.337 96.3329 100.033 96.3329 99.8642C96.3329 99.4759 96.3217 99.0455 96.2992 98.5728H98.3164Z" fill="#263238"/>
<path d="M102.818 100.084C102.3 100.05 101.827 100.025 101.4 100.008L101.391 100.902C101.391 101.206 101.456 101.445 101.585 101.62C101.72 101.789 101.957 101.873 102.294 101.873C102.424 101.873 102.548 101.862 102.666 101.839C102.643 102.047 102.632 102.258 102.632 102.472C102.632 102.574 102.638 102.804 102.649 103.164C102.401 103.209 102.193 103.237 102.024 103.249C101.855 103.26 101.636 103.266 101.366 103.266C100.708 103.266 100.241 103.108 99.9649 102.793C99.6948 102.472 99.5597 102.028 99.5597 101.459L99.5682 100.033C99.3037 100.044 99.028 100.061 98.741 100.084V98.5897C99.0336 98.5897 99.2812 98.4969 99.4838 98.3112C99.6863 98.1255 99.8073 97.9032 99.8467 97.6444H102.142C101.855 98.0383 101.538 98.3534 101.189 98.5897H102.818V100.084Z" fill="#263238"/>
<path d="M107.305 98.5728H108.926C108.898 99.4956 108.884 100.807 108.884 102.506C108.884 103.176 108.749 103.724 108.479 104.152C108.214 104.579 107.862 104.889 107.424 105.08C106.985 105.277 106.495 105.376 105.955 105.376C105.42 105.376 104.942 105.297 104.52 105.139C104.098 104.987 103.777 104.782 103.558 104.523L103.938 103.232C104.242 103.406 104.528 103.53 104.799 103.603C105.069 103.682 105.35 103.721 105.643 103.721C106.599 103.721 107.077 103.316 107.077 102.506C107.077 102.388 107.08 102.303 107.086 102.253C107.086 102.219 107.086 102.174 107.086 102.118C107.092 102.061 107.092 101.988 107.086 101.898C106.799 102.697 106.191 103.097 105.263 103.097C104.886 103.097 104.548 102.996 104.25 102.793C103.957 102.59 103.729 102.317 103.566 101.974C103.403 101.625 103.322 101.243 103.322 100.826C103.322 100.399 103.403 100.008 103.566 99.6532C103.729 99.2931 103.957 99.0089 104.25 98.8007C104.543 98.5925 104.872 98.4884 105.237 98.4884C106.188 98.4884 106.807 98.8232 107.094 99.4928L107.305 98.5728ZM106.141 101.746C106.27 101.746 106.405 101.718 106.546 101.662C106.686 101.6 106.807 101.504 106.909 101.375C107.01 101.24 107.061 101.074 107.061 100.877C107.061 100.528 106.982 100.281 106.824 100.134C106.667 99.9823 106.433 99.9064 106.124 99.9064C105.854 99.9064 105.64 99.9964 105.482 100.176C105.325 100.357 105.246 100.59 105.246 100.877C105.246 101.136 105.33 101.347 105.499 101.51C105.674 101.668 105.887 101.746 106.141 101.746Z" fill="#263238"/>
<path d="M112.32 103.266C111.358 103.266 110.649 103.046 110.193 102.607C109.743 102.163 109.518 101.58 109.518 100.86C109.518 100.157 109.743 99.5857 110.193 99.1468C110.649 98.7079 111.358 98.4884 112.32 98.4884C112.967 98.4884 113.507 98.5953 113.941 98.8091C114.379 99.0173 114.703 99.3015 114.911 99.6616C115.119 100.016 115.224 100.416 115.224 100.86C115.224 101.586 114.982 102.168 114.498 102.607C114.019 103.046 113.293 103.266 112.32 103.266ZM112.354 101.831C112.72 101.831 112.992 101.744 113.173 101.569C113.353 101.395 113.443 101.161 113.443 100.869C113.443 100.593 113.353 100.368 113.173 100.193C112.992 100.013 112.72 99.9233 112.354 99.9233C111.988 99.9233 111.721 100.01 111.552 100.185C111.383 100.359 111.299 100.587 111.299 100.869C111.299 101.161 111.383 101.395 111.552 101.569C111.721 101.744 111.988 101.831 112.354 101.831Z" fill="#263238"/>
<path d="M116.948 98.0748C116.594 98.0748 116.329 97.9876 116.155 97.8132C115.986 97.6388 115.901 97.4109 115.901 97.1295C115.901 96.8538 115.986 96.6259 116.155 96.4459C116.329 96.2658 116.594 96.1758 116.948 96.1758C117.286 96.1758 117.545 96.2686 117.725 96.4543C117.905 96.6344 117.995 96.8594 117.995 97.1295C117.995 97.4109 117.907 97.6388 117.733 97.8132C117.559 97.9876 117.297 98.0748 116.948 98.0748ZM115.969 103.181C116.008 102.275 116.028 101.527 116.028 100.936C116.028 100.233 116.006 99.445 115.961 98.5728H117.986C117.941 99.4112 117.919 100.199 117.919 100.936C117.919 101.555 117.938 102.303 117.978 103.181H115.969Z" fill="#263238"/>
<path d="M122.043 103.181C122.077 102.354 122.094 101.592 122.094 100.894C122.094 100.646 122.032 100.449 121.908 100.303C121.79 100.157 121.638 100.084 121.452 100.084C121.267 100.084 121.109 100.168 120.98 100.337C120.85 100.5 120.774 100.725 120.752 101.012C120.741 101.44 120.735 101.744 120.735 101.924C120.735 102.306 120.746 102.725 120.769 103.181H118.751C118.796 102.371 118.819 101.606 118.819 100.885C118.819 100.165 118.796 99.3943 118.751 98.5728C119.123 98.5897 119.407 98.5981 119.604 98.5981C119.812 98.5981 120.096 98.5897 120.456 98.5728L120.701 99.8135C120.831 99.3634 121.033 99.0314 121.309 98.8176C121.585 98.5981 121.905 98.4884 122.271 98.4884C122.609 98.4884 122.901 98.5644 123.149 98.7163C123.396 98.8626 123.582 99.0624 123.706 99.3156C123.835 99.5688 123.9 99.8529 123.9 100.168V101.383C123.9 102.132 123.914 102.731 123.942 103.181H122.043Z" fill="#263238"/>
<path d="M128.604 98.5728H130.224C130.196 99.4956 130.182 100.807 130.182 102.506C130.182 103.176 130.047 103.724 129.777 104.152C129.513 104.579 129.161 104.889 128.722 105.08C128.283 105.277 127.794 105.376 127.253 105.376C126.719 105.376 126.241 105.297 125.819 105.139C125.397 104.987 125.076 104.782 124.856 104.523L125.236 103.232C125.54 103.406 125.827 103.53 126.097 103.603C126.367 103.682 126.649 103.721 126.941 103.721C127.898 103.721 128.376 103.316 128.376 102.506C128.376 102.388 128.379 102.303 128.384 102.253C128.384 102.219 128.384 102.174 128.384 102.118C128.39 102.061 128.39 101.988 128.384 101.898C128.097 102.697 127.49 103.097 126.561 103.097C126.184 103.097 125.847 102.996 125.548 102.793C125.256 102.59 125.028 102.317 124.865 101.974C124.702 101.625 124.62 101.243 124.62 100.826C124.62 100.399 124.702 100.008 124.865 99.6532C125.028 99.2931 125.256 99.0089 125.548 98.8007C125.841 98.5925 126.17 98.4884 126.536 98.4884C127.487 98.4884 128.106 98.8232 128.393 99.4928L128.604 98.5728ZM127.439 101.746C127.569 101.746 127.704 101.718 127.844 101.662C127.985 101.6 128.106 101.504 128.207 101.375C128.308 101.24 128.359 101.074 128.359 100.877C128.359 100.528 128.28 100.281 128.123 100.134C127.965 99.9823 127.732 99.9064 127.422 99.9064C127.152 99.9064 126.938 99.9964 126.781 100.176C126.623 100.357 126.544 100.59 126.544 100.877C126.544 101.136 126.629 101.347 126.798 101.51C126.972 101.668 127.186 101.746 127.439 101.746Z" fill="#263238"/>
<path d="M93.7005 127.876C93.7005 133.098 89.4673 137.331 84.2453 137.331C79.0233 137.331 74.79 133.098 74.79 127.876C74.79 122.654 79.0233 118.421 84.2453 118.421C89.4673 118.421 93.7005 122.654 93.7005 127.876Z" fill="white"/>
<path fill-rule="evenodd" clip-rule="evenodd" d="M84.2453 136.564C89.0435 136.564 92.9332 132.674 92.9332 127.876C92.9332 123.078 89.0435 119.188 84.2453 119.188C79.4471 119.188 75.5573 123.078 75.5573 127.876C75.5573 132.674 79.4471 136.564 84.2453 136.564ZM84.2453 137.331C89.4673 137.331 93.7005 133.098 93.7005 127.876C93.7005 122.654 89.4673 118.421 84.2453 118.421C79.0233 118.421 74.79 122.654 74.79 127.876C74.79 133.098 79.0233 137.331 84.2453 137.331Z" fill="#263238"/>
<path d="M97.2021 124.426C97.2021 121.883 99.2633 119.822 101.806 119.822H132.521C135.063 119.822 137.124 121.883 137.124 124.426V130.627C137.124 133.169 135.063 135.23 132.521 135.23H101.806C99.2633 135.23 97.2021 133.169 97.2021 130.627V124.426Z" fill="white"/>
<path fill-rule="evenodd" clip-rule="evenodd" d="M132.521 120.589H101.806C99.6871 120.589 97.9694 122.307 97.9694 124.426V130.627C97.9694 132.745 99.6871 134.463 101.806 134.463H132.521C134.639 134.463 136.357 132.745 136.357 130.627V124.426C136.357 122.307 134.639 120.589 132.521 120.589ZM101.806 119.822C99.2633 119.822 97.2021 121.883 97.2021 124.426V130.627C97.2021 133.169 99.2633 135.23 101.806 135.23H132.521C135.063 135.23 137.124 133.169 137.124 130.627V124.426C137.124 121.883 135.063 119.822 132.521 119.822H101.806Z" fill="#263238"/>
<path fill-rule="evenodd" clip-rule="evenodd" d="M101.721 124.374C101.721 124.162 101.892 123.991 102.104 123.991H132.571C132.783 123.991 132.955 124.162 132.955 124.374C132.955 124.586 132.783 124.758 132.571 124.758H102.104C101.892 124.758 101.721 124.586 101.721 124.374Z" fill="#263238"/>
<path fill-rule="evenodd" clip-rule="evenodd" d="M101.721 127.527C101.721 127.315 101.892 127.143 102.104 127.143H122.416C122.628 127.143 122.799 127.315 122.799 127.527C122.799 127.739 122.628 127.91 122.416 127.91H102.104C101.892 127.91 101.721 127.739 101.721 127.527Z" fill="#263238"/>
<path fill-rule="evenodd" clip-rule="evenodd" d="M101.721 130.327C101.721 130.115 101.892 129.943 102.104 129.943H126.618C126.83 129.943 127.002 130.115 127.002 130.327C127.002 130.539 126.83 130.711 126.618 130.711H102.104C101.892 130.711 101.721 130.539 101.721 130.327Z" fill="#263238"/>
<path d="M84.7671 123.309C85.1507 123.309 85.5114 123.351 85.849 123.436C86.1866 123.52 86.5127 123.654 86.8273 123.839L86.4014 124.667C86.1866 124.552 85.9334 124.445 85.6418 124.345C85.3579 124.245 85.0663 124.195 84.7671 124.195C83.6008 124.195 82.8757 124.928 82.5918 126.394H85.4001V127.142H82.5112C82.5036 127.218 82.4997 127.291 82.4997 127.36C82.4997 127.429 82.4997 127.502 82.4997 127.579C82.4997 127.648 82.4997 127.725 82.4997 127.809C82.4997 127.886 82.5036 127.967 82.5112 128.051H85.0548V128.799H82.6033C82.7337 129.451 82.9831 129.958 83.3514 130.318C83.7274 130.671 84.23 130.848 84.8592 130.848C85.1584 130.848 85.4576 130.813 85.7569 130.744C86.0638 130.667 86.3362 130.579 86.5741 130.479V131.377C86.3362 131.477 86.0715 131.561 85.7799 131.63C85.496 131.707 85.1699 131.746 84.8016 131.746C83.8732 131.746 83.1442 131.481 82.6148 130.951C82.093 130.422 81.7478 129.705 81.579 128.799H80.6582V128.051H81.4869C81.4792 127.959 81.4754 127.882 81.4754 127.821C81.4754 127.759 81.4754 127.679 81.4754 127.579C81.4754 127.495 81.4754 127.414 81.4754 127.337C81.483 127.253 81.4869 127.188 81.4869 127.142H80.6582V126.394H81.5675C81.7132 125.45 82.0547 124.702 82.5918 124.149C83.1289 123.589 83.854 123.309 84.7671 123.309Z" fill="#263238"/>
<path d="M93.7005 153.09C93.7005 158.312 89.4673 162.545 84.2453 162.545C79.0233 162.545 74.79 158.312 74.79 153.09C74.79 147.868 79.0233 143.634 84.2453 143.634C89.4673 143.634 93.7005 147.868 93.7005 153.09Z" fill="white"/>
<path fill-rule="evenodd" clip-rule="evenodd" d="M84.2453 161.777C89.0435 161.777 92.9332 157.888 92.9332 153.09C92.9332 148.291 89.0435 144.402 84.2453 144.402C79.4471 144.402 75.5573 148.291 75.5573 153.09C75.5573 157.888 79.4471 161.777 84.2453 161.777ZM84.2453 162.545C89.4673 162.545 93.7005 158.312 93.7005 153.09C93.7005 147.868 89.4673 143.634 84.2453 143.634C79.0233 143.634 74.79 147.868 74.79 153.09C74.79 158.312 79.0233 162.545 84.2453 162.545Z" fill="#263238"/>
<path d="M97.2021 149.639C97.2021 147.096 99.2633 145.035 101.806 145.035H132.521C135.063 145.035 137.124 147.096 137.124 149.639V155.84C137.124 158.383 135.063 160.444 132.521 160.444H101.806C99.2633 160.444 97.2021 158.383 97.2021 155.84V149.639Z" fill="white"/>
<path fill-rule="evenodd" clip-rule="evenodd" d="M132.521 145.802H101.806C99.6871 145.802 97.9694 147.52 97.9694 149.639V155.84C97.9694 157.959 99.6871 159.676 101.806 159.676H132.521C134.639 159.676 136.357 157.959 136.357 155.84V149.639C136.357 147.52 134.639 145.802 132.521 145.802ZM101.806 145.035C99.2633 145.035 97.2021 147.096 97.2021 149.639V155.84C97.2021 158.383 99.2633 160.444 101.806 160.444H132.521C135.063 160.444 137.124 158.383 137.124 155.84V149.639C137.124 147.096 135.063 145.035 132.521 145.035H101.806Z" fill="#263238"/>
<path fill-rule="evenodd" clip-rule="evenodd" d="M101.721 149.938C101.721 149.726 101.892 149.555 102.104 149.555H127.318C127.53 149.555 127.702 149.726 127.702 149.938C127.702 150.15 127.53 150.322 127.318 150.322H102.104C101.892 150.322 101.721 150.15 101.721 149.938Z" fill="#263238"/>
<path fill-rule="evenodd" clip-rule="evenodd" d="M101.721 153.089C101.721 152.877 101.892 152.706 102.104 152.706H131.521C131.733 152.706 131.904 152.877 131.904 153.089C131.904 153.301 131.733 153.473 131.521 153.473H102.104C101.892 153.473 101.721 153.301 101.721 153.089Z" fill="#263238"/>
<path fill-rule="evenodd" clip-rule="evenodd" d="M101.721 155.891C101.721 155.679 101.892 155.507 102.104 155.507H122.416C122.628 155.507 122.799 155.679 122.799 155.891C122.799 156.103 122.628 156.275 122.416 156.275H102.104C101.892 156.275 101.721 156.103 101.721 155.891Z" fill="#263238"/>
<path d="M84.7671 148.522C85.1507 148.522 85.5114 148.565 85.849 148.649C86.1866 148.733 86.5127 148.868 86.8273 149.052L86.4014 149.881C86.1866 149.765 85.9334 149.658 85.6418 149.558C85.3579 149.459 85.0663 149.409 84.7671 149.409C83.6008 149.409 82.8757 150.141 82.5918 151.607H85.4001V152.355H82.5112C82.5036 152.432 82.4997 152.505 82.4997 152.574C82.4997 152.643 82.4997 152.716 82.4997 152.792C82.4997 152.862 82.4997 152.938 82.4997 153.023C82.4997 153.099 82.5036 153.18 82.5112 153.264H85.0548V154.012H82.6033C82.7337 154.665 82.9831 155.171 83.3514 155.532C83.7274 155.885 84.23 156.061 84.8592 156.061C85.1584 156.061 85.4576 156.027 85.7569 155.958C86.0638 155.881 86.3362 155.793 86.5741 155.693V156.591C86.3362 156.69 86.0715 156.775 85.7799 156.844C85.496 156.921 85.1699 156.959 84.8016 156.959C83.8732 156.959 83.1442 156.694 82.6148 156.165C82.093 155.635 81.7478 154.918 81.579 154.012H80.6582V153.264H81.4869C81.4792 153.172 81.4754 153.096 81.4754 153.034C81.4754 152.973 81.4754 152.892 81.4754 152.792C81.4754 152.708 81.4754 152.628 81.4754 152.551C81.483 152.466 81.4869 152.401 81.4869 152.355H80.6582V151.607H81.5675C81.7132 150.663 82.0547 149.915 82.5918 149.363C83.1289 148.803 83.854 148.522 84.7671 148.522Z" fill="#263238"/>
<path d="M93.7005 178.304C93.7005 183.526 89.4673 187.759 84.2453 187.759C79.0233 187.759 74.79 183.526 74.79 178.304C74.79 173.082 79.0233 168.849 84.2453 168.849C89.4673 168.849 93.7005 173.082 93.7005 178.304Z" fill="white"/>
<path fill-rule="evenodd" clip-rule="evenodd" d="M84.2453 186.992C89.0435 186.992 92.9332 183.102 92.9332 178.304C92.9332 173.506 89.0435 169.616 84.2453 169.616C79.4471 169.616 75.5573 173.506 75.5573 178.304C75.5573 183.102 79.4471 186.992 84.2453 186.992ZM84.2453 187.759C89.4673 187.759 93.7005 183.526 93.7005 178.304C93.7005 173.082 89.4673 168.849 84.2453 168.849C79.0233 168.849 74.79 173.082 74.79 178.304C74.79 183.526 79.0233 187.759 84.2453 187.759Z" fill="#263238"/>
<path d="M97.2021 174.853C97.2021 172.311 99.2633 170.25 101.806 170.25H132.521C135.063 170.25 137.124 172.311 137.124 174.853V181.054C137.124 183.597 135.063 185.658 132.521 185.658H101.806C99.2633 185.658 97.2021 183.597 97.2021 181.054V174.853Z" fill="white"/>
<path fill-rule="evenodd" clip-rule="evenodd" d="M132.521 171.017H101.806C99.6871 171.017 97.9694 172.734 97.9694 174.853V181.054C97.9694 183.173 99.6871 184.891 101.806 184.891H132.521C134.639 184.891 136.357 183.173 136.357 181.054V174.853C136.357 172.734 134.639 171.017 132.521 171.017ZM101.806 170.25C99.2633 170.25 97.2021 172.311 97.2021 174.853V181.054C97.2021 183.597 99.2633 185.658 101.806 185.658H132.521C135.063 185.658 137.124 183.597 137.124 181.054V174.853C137.124 172.311 135.063 170.25 132.521 170.25H101.806Z" fill="#263238"/>
<path fill-rule="evenodd" clip-rule="evenodd" d="M101.721 175.152C101.721 174.94 101.892 174.768 102.104 174.768H129.42C129.631 174.768 129.803 174.94 129.803 175.152C129.803 175.364 129.631 175.535 129.42 175.535H102.104C101.892 175.535 101.721 175.364 101.721 175.152Z" fill="#263238"/>
<path fill-rule="evenodd" clip-rule="evenodd" d="M101.721 178.304C101.721 178.092 101.892 177.92 102.104 177.92H126.618C126.83 177.92 127.002 178.092 127.002 178.304C127.002 178.515 126.83 178.687 126.618 178.687H102.104C101.892 178.687 101.721 178.515 101.721 178.304Z" fill="#263238"/>
<path fill-rule="evenodd" clip-rule="evenodd" d="M101.721 181.106C101.721 180.894 101.892 180.722 102.104 180.722H132.921C133.133 180.722 133.305 180.894 133.305 181.106C133.305 181.318 133.133 181.489 132.921 181.489H102.104C101.892 181.489 101.721 181.318 101.721 181.106Z" fill="#263238"/>
<path d="M84.7671 173.736C85.1507 173.736 85.5114 173.779 85.849 173.863C86.1866 173.947 86.5127 174.082 86.8273 174.266L86.4014 175.094C86.1866 174.979 85.9334 174.872 85.6418 174.772C85.3579 174.672 85.0663 174.623 84.7671 174.623C83.6008 174.623 82.8757 175.355 82.5918 176.821H85.4001V177.569H82.5112C82.5036 177.646 82.4997 177.719 82.4997 177.788C82.4997 177.857 82.4997 177.93 82.4997 178.006C82.4997 178.075 82.4997 178.152 82.4997 178.237C82.4997 178.313 82.5036 178.394 82.5112 178.478H85.0548V179.226H82.6033C82.7337 179.879 82.9831 180.385 83.3514 180.746C83.7274 181.099 84.23 181.275 84.8592 181.275C85.1584 181.275 85.4576 181.24 85.7569 181.171C86.0638 181.095 86.3362 181.006 86.5741 180.907V181.804C86.3362 181.904 86.0715 181.989 85.7799 182.058C85.496 182.134 85.1699 182.173 84.8016 182.173C83.8732 182.173 83.1442 181.908 82.6148 181.379C82.093 180.849 81.7478 180.132 81.579 179.226H80.6582V178.478H81.4869C81.4792 178.386 81.4754 178.309 81.4754 178.248C81.4754 178.187 81.4754 178.106 81.4754 178.006C81.4754 177.922 81.4754 177.841 81.4754 177.765C81.483 177.68 81.4869 177.615 81.4869 177.569H80.6582V176.821H81.5675C81.7132 175.877 82.0547 175.129 82.5918 174.577C83.1289 174.016 83.854 173.736 84.7671 173.736Z" fill="#263238"/>
<path d="M93.7005 203.518C93.7005 208.74 89.4673 212.973 84.2453 212.973C79.0233 212.973 74.79 208.74 74.79 203.518C74.79 198.296 79.0233 194.063 84.2453 194.063C89.4673 194.063 93.7005 198.296 93.7005 203.518Z" fill="white"/>
<path fill-rule="evenodd" clip-rule="evenodd" d="M84.2453 212.206C89.0435 212.206 92.9332 208.316 92.9332 203.518C92.9332 198.72 89.0435 194.83 84.2453 194.83C79.4471 194.83 75.5573 198.72 75.5573 203.518C75.5573 208.316 79.4471 212.206 84.2453 212.206ZM84.2453 212.973C89.4673 212.973 93.7005 208.74 93.7005 203.518C93.7005 198.296 89.4673 194.063 84.2453 194.063C79.0233 194.063 74.79 198.296 74.79 203.518C74.79 208.74 79.0233 212.973 84.2453 212.973Z" fill="#263238"/>
<path d="M97.2021 200.068C97.2021 197.525 99.2633 195.464 101.806 195.464H132.521C135.063 195.464 137.124 197.525 137.124 200.068V206.269C137.124 208.811 135.063 210.872 132.521 210.872H101.806C99.2633 210.872 97.2021 208.811 97.2021 206.269V200.068Z" fill="white"/>
<path fill-rule="evenodd" clip-rule="evenodd" d="M132.521 196.231H101.806C99.6871 196.231 97.9694 197.949 97.9694 200.068V206.269C97.9694 208.387 99.6871 210.105 101.806 210.105H132.521C134.639 210.105 136.357 208.387 136.357 206.269V200.068C136.357 197.949 134.639 196.231 132.521 196.231ZM101.806 195.464C99.2633 195.464 97.2021 197.525 97.2021 200.068V206.269C97.2021 208.811 99.2633 210.872 101.806 210.872H132.521C135.063 210.872 137.124 208.811 137.124 206.269V200.068C137.124 197.525 135.063 195.464 132.521 195.464H101.806Z" fill="#263238"/>
<path fill-rule="evenodd" clip-rule="evenodd" d="M101.721 200.367C101.721 200.155 101.892 199.983 102.104 199.983H132.221C132.433 199.983 132.605 200.155 132.605 200.367C132.605 200.578 132.433 200.75 132.221 200.75H102.104C101.892 200.75 101.721 200.578 101.721 200.367Z" fill="#263238"/>
<path fill-rule="evenodd" clip-rule="evenodd" d="M101.721 203.518C101.721 203.306 101.892 203.134 102.104 203.134H127.318C127.53 203.134 127.702 203.306 127.702 203.518C127.702 203.73 127.53 203.902 127.318 203.902H102.104C101.892 203.902 101.721 203.73 101.721 203.518Z" fill="#263238"/>
<path fill-rule="evenodd" clip-rule="evenodd" d="M101.721 206.32C101.721 206.108 101.892 205.937 102.104 205.937H130.82C131.032 205.937 131.204 206.108 131.204 206.32C131.204 206.532 131.032 206.704 130.82 206.704H102.104C101.892 206.704 101.721 206.532 101.721 206.32Z" fill="#263238"/>
<path d="M84.7671 198.951C85.1507 198.951 85.5114 198.993 85.849 199.078C86.1866 199.162 86.5127 199.296 86.8273 199.481L86.4014 200.309C86.1866 200.194 85.9334 200.087 85.6418 199.987C85.3579 199.887 85.0663 199.837 84.7671 199.837C83.6008 199.837 82.8757 200.57 82.5918 202.036H85.4001V202.784H82.5112C82.5036 202.861 82.4997 202.933 82.4997 203.003C82.4997 203.072 82.4997 203.144 82.4997 203.221C82.4997 203.29 82.4997 203.367 82.4997 203.451C82.4997 203.528 82.5036 203.609 82.5112 203.693H85.0548V204.441H82.6033C82.7337 205.093 82.9831 205.6 83.3514 205.96C83.7274 206.313 84.23 206.49 84.8592 206.49C85.1584 206.49 85.4576 206.455 85.7569 206.386C86.0638 206.31 86.3362 206.221 86.5741 206.122V207.019C86.3362 207.119 86.0715 207.203 85.7799 207.273C85.496 207.349 85.1699 207.388 84.8016 207.388C83.8732 207.388 83.1442 207.123 82.6148 206.593C82.093 206.064 81.7478 205.347 81.579 204.441H80.6582V203.693H81.4869C81.4792 203.601 81.4754 203.524 81.4754 203.463C81.4754 203.401 81.4754 203.321 81.4754 203.221C81.4754 203.137 81.4754 203.056 81.4754 202.979C81.483 202.895 81.4869 202.83 81.4869 202.784H80.6582V202.036H81.5675C81.7132 201.092 82.0547 200.344 82.5918 199.791C83.1289 199.231 83.854 198.951 84.7671 198.951Z" fill="#263238"/>
</g>
</svg>
