<svg width="32" height="32" viewBox="0 0 32 32" fill="none" xmlns="http://www.w3.org/2000/svg">
<path d="M24.8997 31.9831L7.13135 32C3.2223 32.0036 0.0213251 28.8088 0.016883 24.8997L2.96183e-06 7.13135C-0.00355072 3.2223 3.19121 0.0213251 7.10025 0.016883L24.8686 2.96183e-06C28.7777 -0.00355072 31.9787 3.19121 31.9831 7.10026L32 24.8687C32.0044 28.7786 28.8088 31.9796 24.8997 31.9831Z" fill="url(#paint0_radial)"/>
<path d="M24.8997 31.9831L7.13135 32C3.2223 32.0036 0.0213251 28.8088 0.016883 24.8997L2.96183e-06 7.13135C-0.00355072 3.2223 3.19121 0.0213251 7.10025 0.016883L24.8686 2.96183e-06C28.7777 -0.00355072 31.9787 3.19121 31.9831 7.10026L32 24.8687C32.0044 28.7786 28.8088 31.9796 24.8997 31.9831Z" fill="#36C3FF"/>
<path d="M16.0002 22.2194C12.5718 22.2194 9.78125 19.4297 9.78125 16.0004C9.78125 12.5711 12.5718 9.78151 16.0002 9.78151C19.4286 9.78151 22.2191 12.5711 22.2191 16.0004C22.2191 19.4297 19.4286 22.2194 16.0002 22.2194ZM16.0002 11.5583C13.5508 11.5583 11.5581 13.5511 11.5581 16.0004C11.5581 18.4498 13.5508 20.4425 16.0002 20.4425C18.4496 20.4425 20.4423 18.4498 20.4423 16.0004C20.4423 13.5511 18.4496 11.5583 16.0002 11.5583Z" fill="white"/>
<path d="M22.6647 10.67C23.4007 10.67 23.9973 10.0733 23.9973 9.33733C23.9973 8.60134 23.4007 8.0047 22.6647 8.0047C21.9287 8.0047 21.332 8.60134 21.332 9.33733C21.332 10.0733 21.9287 10.67 22.6647 10.67Z" fill="white"/>
<path d="M21.3292 27.5499H10.6682C7.23975 27.5499 4.44922 24.7603 4.44922 21.331V10.6699C4.44922 7.24063 7.23975 4.45099 10.6682 4.45099H21.3292C24.7576 4.45099 27.5481 7.24063 27.5481 10.6699V21.331C27.5481 24.7603 24.7576 27.5499 21.3292 27.5499ZM10.6682 6.22783C8.21878 6.22783 6.22606 8.22055 6.22606 10.6699V21.331C6.22606 23.7803 8.21878 25.7731 10.6682 25.7731H21.3292C23.7786 25.7731 25.7713 23.7803 25.7713 21.331V10.6699C25.7713 8.22055 23.7786 6.22783 21.3292 6.22783H10.6682Z" fill="white"/>
<defs>
<radialGradient id="paint0_radial" cx="0" cy="0" r="1" gradientUnits="userSpaceOnUse" gradientTransform="translate(11.8959 32.0231) scale(39.8892)">
<stop stop-color="#FFDD55"/>
<stop offset="0.328" stop-color="#FF543F"/>
<stop offset="0.348" stop-color="#FC5245"/>
<stop offset="0.504" stop-color="#E64771"/>
<stop offset="0.643" stop-color="#D53E91"/>
<stop offset="0.761" stop-color="#CC39A4"/>
<stop offset="0.841" stop-color="#C837AB"/>
</radialGradient>
</defs>
</svg>
