<svg width="174" height="38" viewBox="0 0 174 38" fill="none" xmlns="http://www.w3.org/2000/svg">
<path fill-rule="evenodd" clip-rule="evenodd" d="M10.7788 0.305066C10.3812 0.59845 10.2571 1.10502 10.2571 1.10502L8.1788 9.1286H4.42147C4.42147 9.1286 3.57741 9.19055 3.06015 9.53322C2.54288 9.87589 2.33079 10.5136 2.33079 10.5136L1.66131 13.0301H7.17944L6.52089 15.5696H3.06015C3.06015 15.5696 1.98899 15.5777 1.48909 15.9442C0.989184 16.3108 0.659537 17.0461 0.659537 17.0461L0 19.497H5.50397L3.36983 27.7825C3.36983 27.7825 3.24813 28.5268 3.45688 28.8222C3.66562 29.1175 4.42147 29.2706 4.42147 29.2706H13.0564L10.9469 37.404C10.9469 37.404 10.9241 37.8508 11.2784 37.9578C11.6327 38.0648 12.2029 37.7835 12.2029 37.7835L24.0705 29.2706H40.1287C40.1287 29.2706 40.8547 29.2443 41.4096 28.8222C41.9645 28.4 42.085 27.7825 42.085 27.7825L48.9626 1.68686C48.9626 1.68686 49.1193 0.948111 48.6193 0.4116C48.1192 -0.124911 46.8673 0.0169827 46.8673 0.0169827H11.7316C11.7316 0.0169827 11.1764 0.0116823 10.7788 0.305066ZM14.262 3.9873L12.8893 9.00643H35.4788L34.8034 11.319C34.8034 11.319 34.5677 11.9982 34.0165 12.3598C33.4653 12.7213 32.7189 12.8341 32.4937 12.8341C32.2685 12.8341 11.9943 12.8341 11.9943 12.8341L11.3206 15.6205H33.6073L33.0103 18.0411C33.0103 18.0411 32.6829 18.8259 32.1173 19.2145C31.5517 19.6032 30.6078 19.6921 30.6078 19.6921H10.3859L9 25.4757L18.0536 25.6039L16.8386 29.9873L22.0828 26.0739C22.0828 26.0739 22.4408 25.7648 22.9648 25.6039C23.4888 25.443 24.0306 25.4757 24.0306 25.4757H38.4316L43.5195 5.91L44 4.06234L42.071 4.05747L14.262 3.9873Z" fill="#36C3FF"/>
<path d="M61.7428 17.141C61.7428 15.923 61.9878 14.859 62.4778 13.949C62.9818 13.039 63.6748 12.339 64.5568 11.849C65.4528 11.359 66.4748 11.114 67.6228 11.114C69.0928 11.114 70.3178 11.499 71.2978 12.269C72.2918 13.039 72.9428 14.124 73.2508 15.524H69.4288C69.1068 14.628 68.4838 14.18 67.5598 14.18C66.9018 14.18 66.3768 14.439 65.9848 14.957C65.5928 15.461 65.3968 16.189 65.3968 17.141C65.3968 18.093 65.5928 18.828 65.9848 19.346C66.3768 19.85 66.9018 20.102 67.5598 20.102C68.4838 20.102 69.1068 19.654 69.4288 18.758H73.2508C72.9428 20.13 72.2918 21.208 71.2978 21.992C70.3038 22.776 69.0788 23.168 67.6228 23.168C66.4748 23.168 65.4528 22.923 64.5568 22.433C63.6748 21.943 62.9818 21.243 62.4778 20.333C61.9878 19.423 61.7428 18.359 61.7428 17.141ZM74.4576 17.12C74.4576 15.916 74.6816 14.859 75.1296 13.949C75.5916 13.039 76.2146 12.339 76.9986 11.849C77.7826 11.359 78.6576 11.114 79.6236 11.114C80.4496 11.114 81.1706 11.282 81.7866 11.618C82.4166 11.954 82.8996 12.395 83.2356 12.941V11.282H86.8266V23H83.2356V21.341C82.8856 21.887 82.3956 22.328 81.7656 22.664C81.1496 23 80.4286 23.168 79.6026 23.168C78.6506 23.168 77.7826 22.923 76.9986 22.433C76.2146 21.929 75.5916 21.222 75.1296 20.312C74.6816 19.388 74.4576 18.324 74.4576 17.12ZM83.2356 17.141C83.2356 16.245 82.9836 15.538 82.4796 15.02C81.9896 14.502 81.3876 14.243 80.6736 14.243C79.9596 14.243 79.3506 14.502 78.8466 15.02C78.3566 15.524 78.1116 16.224 78.1116 17.12C78.1116 18.016 78.3566 18.73 78.8466 19.262C79.3506 19.78 79.9596 20.039 80.6736 20.039C81.3876 20.039 81.9896 19.78 82.4796 19.262C82.9836 18.744 83.2356 18.037 83.2356 17.141ZM94.1916 23.168C93.1696 23.168 92.2596 22.993 91.4616 22.643C90.6636 22.293 90.0336 21.817 89.5716 21.215C89.1096 20.599 88.8506 19.913 88.7946 19.157H92.3436C92.3856 19.563 92.5746 19.892 92.9106 20.144C93.2466 20.396 93.6596 20.522 94.1496 20.522C94.5976 20.522 94.9406 20.438 95.1786 20.27C95.4306 20.088 95.5566 19.857 95.5566 19.577C95.5566 19.241 95.3816 18.996 95.0316 18.842C94.6816 18.674 94.1146 18.492 93.3306 18.296C92.4906 18.1 91.7906 17.897 91.2306 17.687C90.6706 17.463 90.1876 17.12 89.7816 16.658C89.3756 16.182 89.1726 15.545 89.1726 14.747C89.1726 14.075 89.3546 13.466 89.7186 12.92C90.0966 12.36 90.6426 11.919 91.3566 11.597C92.0846 11.275 92.9456 11.114 93.9396 11.114C95.4096 11.114 96.5646 11.478 97.4046 12.206C98.2586 12.934 98.7486 13.9 98.8746 15.104H95.5566C95.5006 14.698 95.3186 14.376 95.0106 14.138C94.7166 13.9 94.3246 13.781 93.8346 13.781C93.4146 13.781 93.0926 13.865 92.8686 14.033C92.6446 14.187 92.5326 14.404 92.5326 14.684C92.5326 15.02 92.7076 15.272 93.0576 15.44C93.4216 15.608 93.9816 15.776 94.7376 15.944C95.6056 16.168 96.3126 16.392 96.8586 16.616C97.4046 16.826 97.8806 17.176 98.2866 17.666C98.7066 18.142 98.9236 18.786 98.9376 19.598C98.9376 20.284 98.7416 20.9 98.3496 21.446C97.9716 21.978 97.4186 22.398 96.6906 22.706C95.9766 23.014 95.1436 23.168 94.1916 23.168ZM108.338 11.156C109.682 11.156 110.76 11.604 111.572 12.5C112.384 13.382 112.79 14.6 112.79 16.154V23H109.22V16.637C109.22 15.853 109.017 15.244 108.611 14.81C108.205 14.376 107.659 14.159 106.973 14.159C106.287 14.159 105.741 14.376 105.335 14.81C104.929 15.244 104.726 15.853 104.726 16.637V23H101.135V7.46H104.726V12.857C105.09 12.339 105.587 11.926 106.217 11.618C106.847 11.31 107.554 11.156 108.338 11.156ZM115.012 20.27V17.372L121.648 7.88H125.659V17.162H127.381V20.27H125.659V23H122.068V20.27H115.012ZM122.32 11.828L118.792 17.162H122.32V11.828ZM134.264 23.168C133.242 23.168 132.332 22.993 131.534 22.643C130.736 22.293 130.106 21.817 129.644 21.215C129.182 20.599 128.923 19.913 128.867 19.157H132.416C132.458 19.563 132.647 19.892 132.983 20.144C133.319 20.396 133.732 20.522 134.222 20.522C134.67 20.522 135.013 20.438 135.251 20.27C135.503 20.088 135.629 19.857 135.629 19.577C135.629 19.241 135.454 18.996 135.104 18.842C134.754 18.674 134.187 18.492 133.403 18.296C132.563 18.1 131.863 17.897 131.303 17.687C130.743 17.463 130.26 17.12 129.854 16.658C129.448 16.182 129.245 15.545 129.245 14.747C129.245 14.075 129.427 13.466 129.791 12.92C130.169 12.36 130.715 11.919 131.429 11.597C132.157 11.275 133.018 11.114 134.012 11.114C135.482 11.114 136.637 11.478 137.477 12.206C138.331 12.934 138.821 13.9 138.947 15.104H135.629C135.573 14.698 135.391 14.376 135.083 14.138C134.789 13.9 134.397 13.781 133.907 13.781C133.487 13.781 133.165 13.865 132.941 14.033C132.717 14.187 132.605 14.404 132.605 14.684C132.605 15.02 132.78 15.272 133.13 15.44C133.494 15.608 134.054 15.776 134.81 15.944C135.678 16.168 136.385 16.392 136.931 16.616C137.477 16.826 137.953 17.176 138.359 17.666C138.779 18.142 138.996 18.786 139.01 19.598C139.01 20.284 138.814 20.9 138.422 21.446C138.044 21.978 137.491 22.398 136.763 22.706C136.049 23.014 135.216 23.168 134.264 23.168ZM156.159 11.156C157.615 11.156 158.77 11.597 159.624 12.479C160.492 13.361 160.926 14.586 160.926 16.154V23H157.356V16.637C157.356 15.881 157.153 15.3 156.747 14.894C156.355 14.474 155.809 14.264 155.109 14.264C154.409 14.264 153.856 14.474 153.45 14.894C153.058 15.3 152.862 15.881 152.862 16.637V23H149.292V16.637C149.292 15.881 149.089 15.3 148.683 14.894C148.291 14.474 147.745 14.264 147.045 14.264C146.345 14.264 145.792 14.474 145.386 14.894C144.994 15.3 144.798 15.881 144.798 16.637V23H141.207V11.282H144.798V12.752C145.162 12.262 145.638 11.877 146.226 11.597C146.814 11.303 147.479 11.156 148.221 11.156C149.103 11.156 149.887 11.345 150.573 11.723C151.273 12.101 151.819 12.64 152.211 13.34C152.617 12.696 153.17 12.171 153.87 11.765C154.57 11.359 155.333 11.156 156.159 11.156ZM168.204 23.168C167.182 23.168 166.272 22.993 165.474 22.643C164.676 22.293 164.046 21.817 163.584 21.215C163.122 20.599 162.863 19.913 162.807 19.157H166.356C166.398 19.563 166.587 19.892 166.923 20.144C167.259 20.396 167.672 20.522 168.162 20.522C168.61 20.522 168.953 20.438 169.191 20.27C169.443 20.088 169.569 19.857 169.569 19.577C169.569 19.241 169.394 18.996 169.044 18.842C168.694 18.674 168.127 18.492 167.343 18.296C166.503 18.1 165.803 17.897 165.243 17.687C164.683 17.463 164.2 17.12 163.794 16.658C163.388 16.182 163.185 15.545 163.185 14.747C163.185 14.075 163.367 13.466 163.731 12.92C164.109 12.36 164.655 11.919 165.369 11.597C166.097 11.275 166.958 11.114 167.952 11.114C169.422 11.114 170.577 11.478 171.417 12.206C172.271 12.934 172.761 13.9 172.887 15.104H169.569C169.513 14.698 169.331 14.376 169.023 14.138C168.729 13.9 168.337 13.781 167.847 13.781C167.427 13.781 167.105 13.865 166.881 14.033C166.657 14.187 166.545 14.404 166.545 14.684C166.545 15.02 166.72 15.272 167.07 15.44C167.434 15.608 167.994 15.776 168.75 15.944C169.618 16.168 170.325 16.392 170.871 16.616C171.417 16.826 171.893 17.176 172.299 17.666C172.719 18.142 172.936 18.786 172.95 19.598C172.95 20.284 172.754 20.9 172.362 21.446C171.984 21.978 171.431 22.398 170.703 22.706C169.989 23.014 169.156 23.168 168.204 23.168Z" fill="#0D2842"/>
</svg>
