<svg width="339" height="182" viewBox="0 0 339 182" fill="none" xmlns="http://www.w3.org/2000/svg">
<path d="M332.321 20.2161C331.86 9.07172 322.417 0.431671 311.275 0.961968L28.4548 14.4235C18.2507 14.9092 10.0328 22.9694 9.34943 33.1621L1.39883 151.751C0.635315 163.14 9.49414 172.879 20.9038 173.195L317.466 181.404C329.111 181.726 338.592 172.116 338.111 160.476L332.321 20.2161Z" fill="#DCF5FF"/>
<mask id="mask0_3784_13324" style="mask-type:alpha" maskUnits="userSpaceOnUse" x="1" y="0" width="337" height="182">
<path d="M332.19 20.219C331.73 9.07381 322.286 0.433128 311.144 0.963986L28.4506 14.4328C18.2464 14.919 10.0287 22.9798 9.34605 33.1728L1.3969 151.859C0.634185 163.246 9.49249 172.985 20.9014 173.301L317.333 181.514C328.978 181.837 338.46 172.227 337.979 160.587L332.19 20.219Z" fill="#DCF5FF"/>
</mask>
<g mask="url(#mask0_3784_13324)">
<g opacity="0.2" filter="url(#filter0_f_3784_13324)">
<ellipse cx="82.6988" cy="66.9034" rx="82.6988" ry="66.9034" transform="matrix(-1 0 0 1 53.8574 94.1211)" fill="#50FBF1"/>
</g>
<g opacity="0.2" filter="url(#filter1_f_3784_13324)">
<ellipse cx="82.6988" cy="66.9034" rx="82.6988" ry="66.9034" transform="matrix(-1 0 0 1 243.084 -70.6836)" fill="#B050FB" fill-opacity="0.4"/>
</g>
<path d="M209.839 51.4865C210.889 44.6998 214.46 38.5566 219.84 34.2793C225.221 30.002 232.018 27.9042 238.877 28.4034L240.304 28.5031C255.479 30.4967 262.253 44.4946 259.843 59.5891L254.552 113.16L254.295 124.225L218.14 127.5L218.924 104.118C218.924 104.118 204.434 100.786 205.318 86.1468C205.689 79.0695 207.814 64.5731 209.839 51.4865Z" fill="#FFBF9D"/>
<path d="M218.801 104.089C225.613 104.578 232.422 103.094 238.411 99.8174C238.411 99.8174 233.32 110.383 218.801 108.005V104.089Z" fill="#FF9A6C"/>
<path d="M215.513 66.083C215.469 66.6272 215.639 67.167 215.988 67.5873C216.337 68.0077 216.837 68.2752 217.381 68.3328C217.645 68.371 217.914 68.3567 218.173 68.2907C218.432 68.2246 218.675 68.1082 218.888 67.9481C219.101 67.788 219.281 67.5873 219.416 67.3576C219.552 67.128 219.641 66.8739 219.677 66.6099C219.725 66.0633 219.556 65.5198 219.207 65.0964C218.857 64.673 218.355 64.4034 217.809 64.3458C217.544 64.3077 217.273 64.3225 217.014 64.3895C216.755 64.4564 216.511 64.574 216.297 64.7356C216.084 64.8972 215.904 65.0995 215.77 65.3308C215.635 65.5621 215.548 65.8177 215.513 66.083V66.083Z" fill="#263238"/>
<path d="M212.463 58.8786C212.705 59.1635 214.374 58.1094 216.627 58.2803C218.881 58.4512 220.449 59.7048 220.706 59.4341C220.963 59.1635 220.606 58.8074 219.936 58.2376C219.008 57.4917 217.873 57.0491 216.684 56.9698C215.515 56.8915 214.349 57.1751 213.347 57.7817C212.62 58.2661 212.349 58.7504 212.463 58.8786Z" fill="#263238"/>
<path d="M236.627 68.09C236.579 68.6328 236.747 69.1726 237.093 69.5934C237.44 70.0142 237.939 70.2822 238.481 70.3398C238.746 70.382 239.016 70.3705 239.277 70.3061C239.537 70.2417 239.781 70.1256 239.996 69.9648C240.21 69.8041 240.39 69.6018 240.524 69.3702C240.658 69.1386 240.744 68.8824 240.777 68.6168C240.822 68.0733 240.654 67.5337 240.308 67.1115C239.962 66.6892 239.466 66.4173 238.923 66.3528C238.658 66.3107 238.386 66.3226 238.125 66.3879C237.864 66.4532 237.619 66.5705 237.404 66.7328C237.19 66.895 237.011 67.0989 236.877 67.3321C236.743 67.5654 236.658 67.8231 236.627 68.09V68.09Z" fill="#263238"/>
<path d="M234.574 60.8978C234.816 61.1969 236.485 60.1428 238.739 60.2995C240.992 60.4562 242.561 61.724 242.818 61.4676C243.074 61.2112 242.718 60.8408 242.033 60.2567C241.111 59.5131 239.979 59.0749 238.796 59.0032C237.625 58.9084 236.454 59.1931 235.458 59.8152C234.731 60.2995 234.46 60.8123 234.574 60.8978Z" fill="#263238"/>
<path d="M225.19 76.9741C224.03 76.5185 222.818 76.2076 221.582 76.0486C221.011 75.9489 220.469 75.7923 220.398 75.3936C220.399 74.7995 220.577 74.2193 220.911 73.7275L222.937 69.4557C225.789 63.404 227.828 58.4059 227.586 58.292C227.344 58.1781 224.862 63.0052 222.038 69.057C221.368 70.4809 220.712 71.9049 220.098 73.3288C219.683 73.9954 219.516 74.7871 219.628 75.5644C219.696 75.7716 219.812 75.9603 219.965 76.1158C220.118 76.2713 220.306 76.3896 220.512 76.4615C220.825 76.5727 221.151 76.6445 221.482 76.6751C222.7 76.9311 223.946 77.0316 225.19 76.9741V76.9741Z" fill="#263238"/>
<path d="M231.692 79.0107C231.335 79.0107 231.15 81.403 228.939 82.9836C226.729 84.5641 224.133 84.1085 224.09 84.4075C224.047 84.7065 224.632 84.9201 225.73 85.034C227.161 85.1587 228.59 84.7755 229.766 83.9518C230.894 83.1591 231.666 81.9585 231.92 80.6055C232.091 79.6373 231.863 79.0107 231.692 79.0107Z" fill="#263238"/>
<path d="M234.635 52.0537C234.821 52.6802 237.088 52.5521 239.698 53.0647C242.308 53.5773 244.405 54.4887 244.804 53.9191C244.975 53.6628 244.647 53.0647 243.82 52.4097C242.723 51.6059 241.457 51.0603 240.118 50.8137C238.78 50.5671 237.403 50.6259 236.09 50.9858C235.092 51.299 234.564 51.7547 234.635 52.0537Z" fill="#263238"/>
<path d="M213.779 52.4264C214.135 52.9677 215.719 52.5546 217.587 52.6544C219.455 52.7541 221.01 53.2526 221.409 52.7398C221.595 52.4977 221.409 51.9706 220.725 51.4293C219.836 50.7878 218.778 50.4215 217.683 50.3759C216.587 50.3303 215.502 50.6075 214.563 51.1729C213.879 51.6572 213.622 52.17 213.779 52.4264Z" fill="#263238"/>
<path d="M256.45 73.6327C256.505 73.0977 256.669 72.5795 256.932 72.1099C257.194 71.6403 257.55 71.229 257.977 70.9012C258.404 70.5734 258.894 70.336 259.416 70.2033C259.938 70.0707 260.482 70.0456 261.014 70.1298C263.738 70.5854 266.719 72.3511 266.063 77.9757C265.021 87.9433 255.195 84.8391 255.209 84.5543C255.223 84.2695 255.965 77.819 256.45 73.6327Z" fill="#FFBF9D"/>
<path d="M257.793 81.0338C257.793 81.0338 257.95 81.1762 258.235 81.3471C258.632 81.5643 259.097 81.6204 259.533 81.5037C260.224 81.1669 260.811 80.6507 261.232 80.0093C261.654 79.3679 261.895 78.6249 261.929 77.8585C262.038 77.0071 261.96 76.1422 261.701 75.3238C261.633 75.011 261.491 74.7188 261.288 74.4712C261.085 74.2237 260.826 74.0279 260.532 73.8999C260.336 73.8288 260.121 73.8267 259.924 73.8941C259.727 73.9614 259.559 74.0941 259.448 74.2701C259.291 74.5407 259.334 74.74 259.277 74.7542C259.22 74.7685 259.077 74.5692 259.277 74.1705C259.351 73.9259 259.513 73.7177 259.733 73.5866C259.88 73.4952 260.045 73.4342 260.216 73.4073C260.388 73.3804 260.563 73.3881 260.731 73.43C261.107 73.5533 261.447 73.7653 261.722 74.0479C261.998 74.3305 262.201 74.6754 262.314 75.0533C262.649 75.9632 262.752 76.9418 262.614 77.9012C262.343 79.8947 261.188 81.6746 259.633 81.9309C259.356 81.9845 259.071 81.9738 258.799 81.8998C258.527 81.8257 258.276 81.6902 258.064 81.5037C257.779 81.2901 257.751 81.0623 257.793 81.0338Z" fill="#FF9A6C"/>
<path d="M264.456 63.4763C263.629 66.3243 263.929 71.0947 261.376 70.4397C256.284 69.1581 257.511 79.5676 255.072 78.5423C252.633 77.517 250.536 74.5836 250.38 68.1755C250.194 60.0587 253.46 54.1918 250.265 44.8788C249.242 43.0233 247.757 41.4627 245.953 40.3477C244.149 39.2327 242.088 38.6009 239.968 38.5135C237.832 38.4667 235.719 38.9654 233.829 39.9622C231.94 40.959 230.337 42.4209 229.172 44.2095C228.715 41.3615 227.332 37.0895 224.807 35.6655C223.542 34.9734 222.101 34.6678 220.663 34.7868C219.226 34.9058 217.854 35.4441 216.721 36.3348C215.637 37.2837 214.933 38.5919 214.739 40.0181C214.545 41.4443 214.874 42.8925 215.665 44.0956C215.081 44.2722 214.455 44.2568 213.88 44.0517C213.305 43.8467 212.811 43.4627 212.471 42.9564C212.417 43.6187 212.502 44.285 212.721 44.9126C212.939 45.5402 213.286 46.1155 213.74 46.6019C212.689 46.3387 211.77 45.7005 211.158 44.8076C211.415 45.9895 211.658 47.1572 211.914 48.3249C207.636 48.4388 203.442 44.295 202.244 40.621C200.447 35.0247 201.831 29.3857 204.969 24.4159C206.502 21.9038 208.643 19.8167 211.195 18.3462C213.747 16.8757 216.628 16.0689 219.573 16C225.449 16 230.37 18.848 232.637 24.245C236.46 21.5536 244.19 20.6138 248.44 22.5504C250.566 23.5426 252.402 25.0623 253.773 26.9644C255.144 28.8664 256.003 31.0875 256.27 33.4156C257.638 32.9371 259.109 32.83 260.533 33.1052C261.956 33.3804 263.28 34.0281 264.371 34.982L264.913 35.4519C266.408 36.8754 267.517 38.6534 268.138 40.6205C268.759 42.5876 268.871 44.6795 268.464 46.7015C268.15 48.3391 267.58 50.0195 267.252 51.3296C266.268 55.274 264.456 63.4763 264.456 63.4763Z" fill="#263238"/>
<path d="M211.795 42.7553C211.795 42.7553 211.667 42.7553 211.453 42.4847C211.143 42.2096 210.861 41.9043 210.612 41.5734C209.671 40.3294 209.089 38.8522 208.929 37.3016C208.787 36.1554 208.891 34.9922 209.236 33.8897C209.58 32.7871 210.156 31.7706 210.925 30.9081C211.872 29.8496 213.063 29.0371 214.395 28.5409C215.727 28.0447 217.16 27.8798 218.57 28.0602C220.023 28.2827 221.407 28.8277 222.62 29.655C223.766 30.3851 224.79 31.2882 225.658 32.332C228.095 35.3203 229.362 39.0898 229.224 42.9404C229.224 43.4815 229.224 43.8944 229.095 44.1792C229.085 44.3247 229.056 44.4682 229.01 44.6064C229.149 42.5426 228.952 40.4698 228.425 38.4692C227.819 36.3163 226.77 34.3134 225.344 32.5884C223.665 30.4281 221.249 28.9587 218.556 28.4589C217.211 28.2943 215.847 28.4556 214.579 28.929C213.31 29.4024 212.174 30.1741 211.268 31.1787C210.528 31.999 209.969 32.9655 209.627 34.0155C209.286 35.0654 209.169 36.1753 209.285 37.2731C209.418 38.7713 209.939 40.2093 210.797 41.4453C211.396 42.2996 211.824 42.7268 211.795 42.7553Z" fill="#455A64"/>
<path d="M209.828 47.2273C209.709 47.0784 209.608 46.9159 209.528 46.7431C209.343 46.4156 209.072 45.9315 208.744 45.3192C207.786 43.5363 206.998 41.6675 206.39 39.7373C205.989 38.3911 205.769 36.9978 205.734 35.5937C205.682 33.9692 205.979 32.3525 206.604 30.8519C207.325 29.1832 208.52 27.7623 210.042 26.7652C211.667 25.709 213.539 25.0909 215.475 24.9711C217.419 24.8669 219.363 25.1726 221.18 25.8681C222.849 26.5152 224.412 27.4079 225.816 28.5167C228.27 30.3277 230.052 32.9026 230.879 35.8357C231.401 37.8217 231.297 39.9204 230.579 41.8448C230.386 42.3455 230.137 42.8231 229.838 43.2687C229.743 43.4378 229.622 43.5914 229.481 43.7244C229.856 43.0954 230.171 42.4328 230.422 41.7451C231.055 39.8482 231.11 37.8064 230.579 35.8784C229.73 33.0214 227.966 30.5207 225.559 28.7587C222.744 26.4704 219.204 25.2587 215.575 25.3413C213.711 25.4551 211.908 26.0487 210.341 27.0643C208.891 28.0107 207.747 29.3559 207.046 30.9374C206.439 32.3882 206.142 33.9502 206.176 35.5225C206.19 36.8951 206.387 38.2598 206.761 39.5807C207.33 41.5032 208.07 43.3712 208.972 45.1626L209.685 46.5865C209.759 46.7935 209.806 47.0087 209.828 47.2273V47.2273Z" fill="#455A64"/>
<path d="M260.916 57.0124C260.916 57.0124 261.843 56.2577 263.07 54.8195C264.65 52.9375 265.747 50.6989 266.264 48.2979C266.752 45.8908 266.634 43.4007 265.922 41.05C265.38 39.2416 264.767 38.2021 264.838 38.2021C265.028 38.4058 265.186 38.6361 265.309 38.8856C265.671 39.5518 265.976 40.2472 266.222 40.9646C267.044 43.3557 267.206 45.9237 266.692 48.3991C266.178 50.8745 265.005 53.1661 263.298 55.0331C262.786 55.5966 262.228 56.1158 261.629 56.5852C261.415 56.763 261.174 56.9071 260.916 57.0124V57.0124Z" fill="#455A64"/>
<path d="M251.803 56.7286C251.803 56.7286 252.302 56.5008 253.101 55.9597C254.206 55.1999 255.079 54.1504 255.625 52.9267L256.039 51.9726L255.953 53.0121C255.825 54.436 255.682 56.0451 255.525 57.7965L255.197 57.5972C256.629 56.6205 257.853 55.3701 258.798 53.9183C259.743 52.4665 260.39 50.8421 260.702 49.139C260.976 47.5845 260.976 45.9944 260.702 44.44C260.389 43.0129 259.911 41.6271 259.276 40.3105C259.276 40.3105 259.347 40.3817 259.462 40.5526C259.625 40.7995 259.772 41.0563 259.904 41.3215C260.402 42.2896 260.772 43.3189 261.002 44.383C261.532 46.9408 261.286 49.5983 260.295 52.0156C259.304 54.4329 257.614 56.5003 255.44 57.9532L255.069 58.1953V57.7538C255.254 56.0024 255.425 54.3791 255.582 52.9836L255.91 53.0691C255.311 54.3312 254.361 55.3942 253.172 56.1305C252.847 56.3203 252.508 56.4869 252.159 56.6289C252.047 56.6826 251.926 56.7163 251.803 56.7286V56.7286Z" fill="#455A64"/>
<path d="M249.019 35.682C248.442 34.5915 247.657 33.6241 246.708 32.8341C245.656 31.9985 244.419 31.4272 243.1 31.1681C241.489 30.8621 239.825 31.01 238.293 31.5953C236.749 32.1722 235.365 33.1096 234.257 34.3292C233.351 35.328 232.613 36.4679 232.075 37.704C231.619 38.8645 231.256 40.0597 230.991 41.2781C230.961 40.9394 230.985 40.5982 231.062 40.2671C231.205 39.346 231.449 38.4435 231.79 37.5758C232.302 36.2854 233.03 35.0912 233.943 34.0445C235.088 32.769 236.528 31.7915 238.136 31.1966C239.747 30.5869 241.497 30.4437 243.185 30.7836C244.559 31.0729 245.838 31.6993 246.908 32.6063C247.623 33.2171 248.218 33.956 248.662 34.7849C248.775 35.0117 248.875 35.2446 248.962 35.4826C249.019 35.5823 249.033 35.6677 249.019 35.682Z" fill="#455A64"/>
<path d="M246.68 28.0601C245.803 27.6081 244.88 27.2501 243.927 26.9922C241.593 26.4936 239.158 26.8366 237.053 27.9604C234.981 29.1461 233.293 30.9005 232.189 33.0154C231.319 34.6387 231.034 35.7636 230.963 35.7352C230.967 35.4634 231.015 35.194 231.106 34.9378C231.31 34.2271 231.577 33.5361 231.904 32.873C232.971 30.6469 234.692 28.7988 236.839 27.576C239.02 26.3975 241.566 26.0823 243.97 26.6931C244.689 26.8824 245.376 27.175 246.01 27.5617C246.259 27.69 246.485 27.8584 246.68 28.0601V28.0601Z" fill="#455A64"/>
<path d="M174.786 157.547C170.307 170.605 170.806 169.48 162.42 208.498C160.88 215.703 163.604 227.01 170.108 230.427C176.611 233.845 188.164 230.086 192.029 223.82L198.247 164.937L174.786 157.547Z" fill="#FFBF9D"/>
<path d="M282.894 228.304L282.708 197.275L282.837 194.228L314.371 186.88C314.371 186.88 308.181 166.517 302.504 144.63C299.224 131.984 288.313 125.633 285.675 124.266L285.09 123.996L254.74 111.18C248.607 117.702 239.679 122.942 231.079 120.436C226.182 118.839 221.846 115.874 218.585 111.892L198.147 118.912C192.24 120.936 187.232 124.968 183.999 130.304C179.721 137.923 166.043 172.597 165.758 173.309L191.088 175.573C191.088 175.573 186.595 257.624 188.235 272.277C188.235 272.277 194.396 276.549 209.914 277.261C241.405 278.685 288.256 276.507 288.256 276.507C287.515 271.779 286.745 263.876 286.317 259.874L282.894 228.304Z" fill="#52CBFF"/>
<path d="M191.997 145.085C192.126 145.085 191.455 164.651 190.5 188.773C189.544 212.896 188.66 232.462 188.574 232.462C188.489 232.462 189.116 212.896 190 188.759C190.885 164.622 191.869 145.071 191.997 145.085Z" fill="#263238"/>
<path d="M279.43 150.526C279.217 150.526 279.844 167.899 280.857 189.302C281.869 210.705 282.868 228.049 283.096 228.035C283.324 228.021 282.682 210.676 281.67 189.259C280.657 167.842 279.659 150.526 279.43 150.526Z" fill="#263238"/>
<path d="M314.526 201.648C313.499 193.945 312.643 187.138 312.643 187.138L287.427 192.991L288.511 197.049L269.015 177.27L265.92 177.54L256.107 187.722C256.107 187.722 264.665 205.764 269.642 212.784C276.117 221.926 286.286 235.853 300.221 234.685C313.099 233.603 316.365 215.461 314.526 201.648Z" fill="#FFBF9D"/>
<path d="M234.973 151.467L243.644 147.053L254.883 150.613L260.445 155.739L269.002 177.27L275.863 185.942L263.754 201.606L256.095 187.651C256.095 187.651 249.606 184.803 246.996 180.73C244.386 176.658 243.231 174.408 243.231 174.408C243.231 174.408 239.48 172.614 238.781 170.876C238.369 169.907 238.146 168.868 238.125 167.815L240.021 165.038C239.901 163.831 240.098 162.614 240.592 161.506C240.951 160.99 241.444 160.582 242.018 160.324C242.018 160.324 241.462 157.989 242.332 157.149C243.976 156.184 245.716 155.392 247.523 154.785L243.744 152.635C243.744 152.635 235.443 155.298 234.973 151.467Z" fill="#FFBF9D"/>
<path d="M247.838 159.281C247.838 159.395 246.511 159.424 244.985 159.765C243.459 160.107 242.133 160.591 242.133 160.491C242.99 159.92 243.965 159.55 244.985 159.41C245.915 159.155 246.889 159.111 247.838 159.281V159.281Z" fill="#FF9A6C"/>
<path d="M245.236 164.112C244.406 164.267 243.568 164.376 242.726 164.439C241.908 164.631 241.079 164.773 240.244 164.866C240.978 164.413 241.809 164.14 242.669 164.069C243.517 163.888 244.395 163.903 245.236 164.112V164.112Z" fill="#FF9A6C"/>
<path d="M241.571 171.692C241.471 171.692 241.4 171.194 241.414 170.581C241.428 169.969 241.514 169.484 241.614 169.484C241.714 169.484 241.785 169.983 241.785 170.595C241.785 171.208 241.671 171.692 241.571 171.692Z" fill="#FF9A6C"/>
<path d="M243.228 174.022C243.115 173.306 242.842 172.625 242.429 172.028C241.94 171.494 241.349 171.063 240.689 170.761C240.689 170.761 240.96 170.69 241.374 170.761C241.938 170.929 242.436 171.267 242.8 171.729C243.147 172.173 243.36 172.707 243.414 173.267C243.371 173.766 243.271 174.022 243.228 174.022Z" fill="#FF9A6C"/>
<path d="M250.001 167.119C249.597 166.549 249.083 166.065 248.489 165.695C247.843 165.397 247.146 165.223 246.436 165.182C246.436 165.182 246.664 165.025 247.092 164.997C247.645 164.97 248.195 165.099 248.679 165.368C249.163 165.637 249.562 166.037 249.83 166.521C250.03 166.848 250.044 167.105 250.001 167.119Z" fill="#FF9A6C"/>
<path d="M253.958 162.332C253.858 162.332 253.516 161.477 252.532 160.907C251.936 160.594 251.297 160.373 250.635 160.252C250.635 160.252 250.863 160.124 251.262 160.124C251.77 160.158 252.26 160.32 252.689 160.594C253.132 160.867 253.492 161.256 253.73 161.719C253.986 162.076 254.001 162.318 253.958 162.332Z" fill="#FF9A6C"/>
<path d="M256.609 159.981C256.609 159.981 256.609 159.682 256.509 159.241C256.438 158.669 256.222 158.125 255.881 157.66C255.532 157.197 255.071 156.829 254.541 156.592C254.127 156.407 253.842 156.35 253.856 156.293C253.87 156.236 254.17 156.208 254.626 156.293C255.248 156.476 255.794 156.856 256.181 157.375C256.56 157.897 256.765 158.525 256.765 159.17C256.765 159.711 256.651 159.995 256.609 159.981Z" fill="#FF9A6C"/>
<path d="M252.93 154.357C252.93 154.485 251.119 154.514 248.937 154.841C246.754 155.169 245.1 155.952 245.043 155.852C246.195 155.09 247.508 154.602 248.88 154.428C249.823 154.279 250.777 154.208 251.732 154.215C252.137 154.191 252.542 154.24 252.93 154.357V154.357Z" fill="#FF9A6C"/>
<path d="M196.61 160.336L200.432 200.878C200.443 201.799 200.676 202.703 201.113 203.514C201.551 204.325 202.178 205.018 202.942 205.534L227.573 205.021C229.049 203.043 229.721 200.581 229.456 198.129L226.718 159.325C226.561 156.99 225.691 155.309 224.635 155.281L198.692 154.683C197.366 154.654 196.339 157.445 196.61 160.336Z" fill="#263238"/>
<path d="M193.023 168.482C192.543 167.848 192.29 167.07 192.305 166.275C192.321 165.479 192.604 164.712 193.109 164.097C193.638 163.486 194.296 163.001 195.036 162.675C195.776 162.35 196.579 162.194 197.388 162.217C198.984 162.261 200.555 162.624 202.009 163.285C203.795 164.035 205.505 164.955 207.115 166.033C207.735 166.346 208.282 166.786 208.722 167.323C209.161 167.86 209.484 168.483 209.667 169.152C209.867 170.576 208.341 172 207.157 171.33C207.996 171.709 208.733 172.281 209.308 172.998C209.883 173.716 210.28 174.56 210.466 175.46C210.68 177.183 209.725 178.094 208.042 178.55C208.674 178.815 209.177 179.316 209.444 179.947C209.71 180.578 209.719 181.287 209.468 181.924C209.07 182.525 208.469 182.962 207.775 183.155C207.081 183.349 206.34 183.286 205.688 182.978C204.397 182.312 203.293 181.333 202.479 180.13C203.289 182.089 203.444 184.256 202.921 186.31C199.242 184.886 195.619 180.885 196.717 177.012C195.816 176.271 195.186 175.253 194.928 174.116C194.67 172.979 194.797 171.789 195.291 170.732C194.447 170.34 193.725 169.726 193.203 168.956C192.68 168.186 192.377 167.289 192.325 166.361" fill="#FFBF9D"/>
<path d="M192.629 164.952L192.33 182.282L187.823 189.046L167.186 207.487C167.186 207.487 170.238 232.535 179.565 229.801C188.893 227.067 191.132 225.287 196.68 215.191C199.618 209.766 201.444 200.951 203.141 195.924C204.139 192.962 203.269 183.421 203.269 183.421L192.629 164.952Z" fill="#FFBF9D"/>
<path d="M208.047 178.577C207.487 178.195 206.958 177.772 206.464 177.309C205.26 176.26 203.837 175.492 202.299 175.059C201.454 174.869 200.577 174.869 199.732 175.059C199.04 175.212 198.392 175.519 197.835 175.956C197.34 176.385 196.917 176.89 196.58 177.452C196.58 177.452 196.58 177.252 196.737 176.925C196.955 176.467 197.266 176.06 197.65 175.729C198.223 175.229 198.908 174.873 199.646 174.689C200.547 174.476 201.485 174.476 202.385 174.689C203.992 175.131 205.463 175.968 206.663 177.124C207.184 177.548 207.649 178.036 208.047 178.577V178.577Z" fill="#FF9A6C"/>
<path d="M207.786 171.513C207.112 171.308 206.465 171.021 205.861 170.659C205.29 170.374 204.606 170.018 203.821 169.705C202.958 169.39 202.071 169.142 201.169 168.964C200.278 168.777 199.361 168.743 198.459 168.864C197.736 168.989 197.049 169.271 196.448 169.69C195.874 170.096 195.388 170.615 195.021 171.214C195.042 171.024 195.1 170.84 195.193 170.673C195.435 170.203 195.775 169.79 196.191 169.462C196.816 168.975 197.55 168.648 198.33 168.508C199.272 168.323 200.241 168.323 201.183 168.508C202.109 168.689 203.016 168.956 203.893 169.306C204.599 169.609 205.285 169.956 205.946 170.345C206.585 170.693 207.2 171.083 207.786 171.513Z" fill="#FF9A6C"/>
</g>
<defs>
<filter id="filter0_f_3784_13324" x="-205.059" y="0.603149" width="352.434" height="320.843" filterUnits="userSpaceOnUse" color-interpolation-filters="sRGB">
<feFlood flood-opacity="0" result="BackgroundImageFix"/>
<feBlend mode="normal" in="SourceGraphic" in2="BackgroundImageFix" result="shape"/>
<feGaussianBlur stdDeviation="46.759" result="effect1_foregroundBlur_3784_13324"/>
</filter>
<filter id="filter1_f_3784_13324" x="-15.8324" y="-164.202" width="352.434" height="320.843" filterUnits="userSpaceOnUse" color-interpolation-filters="sRGB">
<feFlood flood-opacity="0" result="BackgroundImageFix"/>
<feBlend mode="normal" in="SourceGraphic" in2="BackgroundImageFix" result="shape"/>
<feGaussianBlur stdDeviation="46.759" result="effect1_foregroundBlur_3784_13324"/>
</filter>
</defs>
</svg>
