<svg width="63" height="64" viewBox="0 0 63 64" fill="none" xmlns="http://www.w3.org/2000/svg">
<path d="M31.4907 63.4063C48.8825 63.4063 62.9813 49.2123 62.9813 31.7032C62.9813 14.194 48.8825 0 31.4907 0C14.0989 0 0 14.194 0 31.7032C0 49.2123 14.0989 63.4063 31.4907 63.4063Z" fill="#52CBFF"/>
<path opacity="0.4" d="M19.8281 45.8345C19.9938 44.4563 21.0781 43.0563 20.4531 41.8095C19.7594 40.4188 17.7406 40.6438 16.3219 40.022C14.3406 39.1501 13.725 36.6876 12.4313 34.9501C11.2688 33.3876 8.55938 31.6844 6.49375 32.1532C4.99999 32.4938 4.48749 33.3844 4.33124 34.4813L4.14375 34.4501C3.59062 34.3907 2.94062 34.3626 2.63749 33.9032C2.28437 33.3688 2.6375 32.5782 2.26874 32.0532C2.04141 31.8142 1.77512 31.6155 1.48124 31.4657C1.21249 31.2782 0.984364 30.9188 1.14686 30.6282C1.30936 30.3376 1.63124 30.3344 1.80624 30.1126C1.87517 30.023 1.91254 29.9131 1.91254 29.8001C1.91254 29.687 1.87517 29.5772 1.80624 29.4876C1.23749 28.8157 0.606241 30.1876 0.290616 30.5094C0.210372 30.5939 0.125889 30.6742 0.0374912 30.7501C0.0343779 30.8084 0.0343779 30.8668 0.0374912 30.9251C0.0374912 31.1126 0.0374912 31.3032 0.0374912 31.4938C0.0374912 31.6844 0.0374912 31.8719 0.0374912 32.0626C0.0374912 32.2532 0.0374912 32.3751 0.0374912 32.5219C0.0374912 32.6688 0.0374912 32.8344 0.0374912 32.9844C0.376963 33.1101 0.70263 33.2703 1.00937 33.4626C1.63437 33.8157 2.30312 34.2844 2.34374 34.9907C2.33302 35.1061 2.35581 35.2222 2.40937 35.3251C2.48639 35.4083 2.59051 35.4615 2.70312 35.4751C3.22833 35.599 3.76401 35.6733 4.30312 35.697C4.30312 36.322 4.35625 36.9938 4.34687 37.622C4.33125 38.5345 4.03437 39.4345 4.13124 40.3376C4.27812 41.6126 5.16562 42.6595 5.9375 43.6845C8.875 47.6095 10.4594 52.122 12.1875 56.7282C12.5 56.9814 12.9625 57.3189 13.2906 57.5532C13.55 57.7407 13.7875 57.9032 14.0531 58.0814C14.3188 58.2595 14.5563 58.4126 14.8281 58.5814C15.0156 58.7032 15.0563 58.7345 15.2531 58.8501C15.2281 58.7939 15.275 58.8876 15.2531 58.8501C14.5594 57.3314 14.5594 55.2251 16.0469 54.4751C16.3476 54.3676 16.6316 54.2182 16.8906 54.0314C17.5531 53.4064 17.0094 52.1095 17.6719 51.4813C18.0469 51.1313 18.6281 51.1688 19.0906 50.947C19.925 50.5626 20.1938 49.497 20.1281 48.5813C20.0625 47.6657 19.725 46.747 19.8281 45.8345Z" fill="white"/>
<path opacity="0.4" d="M1.95664 22.6282C2.54414 22.1251 3.55977 22.0657 4.0129 22.6939C4.3254 23.1407 4.2629 23.7564 4.17852 24.3032C4.0629 25.0407 3.95039 25.7782 3.82852 26.5157C3.77456 26.7349 3.78542 26.9651 3.85977 27.1782C4.07852 27.647 4.84727 27.5564 5.14102 27.1376C5.43477 26.7189 5.40352 26.147 5.3254 25.6376C5.24727 25.1282 5.14102 24.5876 5.3254 24.1095C5.8254 22.922 7.59415 23.1032 8.61915 22.3314C9.24415 21.8532 9.54103 21.0501 9.91915 20.347C10.2973 19.6439 10.9317 18.9407 11.7285 18.9782C11.9973 18.9782 12.2629 19.0876 12.5317 19.0782C13.3192 19.0532 13.7817 17.9001 13.2192 17.3439C13.0886 17.2384 12.9711 17.1178 12.8692 16.9845C12.8141 16.8454 12.8089 16.6916 12.8545 16.5492C12.9001 16.4067 12.9936 16.2845 13.1192 16.2032C13.3725 16.0473 13.6599 15.9551 13.9567 15.9345C14.6285 15.822 15.3004 15.7189 15.9723 15.622C16.716 15.5064 17.666 15.122 17.5629 14.372C17.4723 13.7282 16.6004 13.4345 16.4723 12.8095C16.4613 12.6506 16.433 12.4934 16.3879 12.3407C16.1817 11.9345 15.5692 12.097 15.1754 12.3157C15.1251 12.1742 15.0428 12.0462 14.9348 11.9418C14.8269 11.8373 14.6963 11.7592 14.5533 11.7135C14.4102 11.6679 14.2585 11.6559 14.11 11.6785C13.9615 11.7011 13.8203 11.7577 13.6973 11.8439C13.2973 12.1564 13.2473 12.7501 13.1098 13.2439C12.7785 14.4407 11.8285 15.347 10.9223 16.1876C10.6473 16.5034 10.2722 16.7152 9.85978 16.7876C9.44728 16.8064 9.0129 16.3626 9.20353 16.0001C9.33165 15.7501 9.69103 15.6064 9.65665 15.3251C9.60665 14.9782 8.99728 15.0126 8.87853 14.6689C9.11915 13.6814 10.2504 13.2751 11.116 12.747C12.1781 12.0991 12.9857 11.1063 13.4035 9.93448C13.4488 9.84556 13.4747 9.74807 13.4795 9.64842C13.4844 9.54878 13.4681 9.44923 13.4317 9.35635C13.3035 9.10947 12.9692 9.06885 12.6848 9.06885C12.016 9.06885 11.1848 9.1501 10.941 9.77197C10.8129 10.1063 10.9067 10.4845 10.8254 10.8313C10.5942 11.8689 9.17228 11.9845 8.30665 12.6001C8.00121 12.8787 7.67415 13.1326 7.32853 13.3595C6.90366 13.5111 6.45449 13.5831 6.00352 13.572C5.9254 13.572 5.72227 13.572 5.64102 13.572C5.36602 13.9532 5.15039 14.3001 4.89727 14.6939C4.64414 15.0876 4.38789 15.5314 4.15039 15.9439C3.04255 17.8787 2.14574 19.9269 1.47539 22.0532C1.23164 22.8001 1.01914 23.6157 0.831639 24.3689C0.644139 25.122 0.519141 25.8689 0.384766 26.6564C0.649731 26.02 0.840568 25.3552 0.953514 24.6751C1.12851 23.9189 1.37227 23.122 1.95664 22.6282Z" fill="white"/>
<path opacity="0.4" d="M28.419 8.38447C28.7159 7.99385 28.6284 7.44697 28.8222 6.98135C29.1347 6.23135 30.1378 5.9626 30.4847 5.2251C30.6159 4.94072 30.6503 4.60009 30.8815 4.38134C31.1128 4.16259 31.3628 4.17197 31.5691 4.01259C32.0347 3.65634 31.8409 2.84697 31.3472 2.53447C30.1128 1.74384 27.8409 2.65634 26.7753 3.42822C25.4034 4.42197 24.0597 5.61572 22.2347 5.50009C21.7315 5.46572 21.2097 5.32822 20.7378 5.50009C20.2659 5.67197 19.9753 6.3876 20.3815 6.68447C20.6065 6.8501 20.9284 6.80635 21.1815 6.92197C21.6534 7.14072 21.7003 7.82197 21.469 8.2876C21.2378 8.75322 20.8253 9.1001 20.5534 9.5376C20.2905 9.97084 20.1723 10.4765 20.2159 10.9814C20.22 11.1585 20.26 11.3329 20.3336 11.4941C20.4072 11.6553 20.5128 11.7998 20.644 11.9189C21.2097 12.372 22.0753 11.9845 22.5565 11.4407C23.0378 10.897 23.369 10.1907 23.9909 9.81885C24.3124 9.6485 24.6581 9.52836 25.0159 9.4626L27.394 8.89698C27.7838 8.84698 28.1452 8.66631 28.419 8.38447Z" fill="white"/>
<path opacity="0.4" d="M62.9785 31.4626C62.9785 31.0095 62.9598 30.5595 62.9379 30.1126C62.916 29.6657 62.8941 29.2126 62.8504 28.7689C62.816 28.4095 62.7848 28.0501 62.7348 27.697C62.6848 27.3439 62.6348 26.8939 62.5754 26.5251C62.4037 25.4567 62.1721 24.3988 61.8816 23.3564C61.7629 22.947 61.5691 22.5095 61.4316 22.1064C61.2941 21.7032 61.1598 21.3032 61.0098 20.9032C60.8504 20.5907 60.6816 20.3126 60.4973 20.022C58.7473 17.2532 56.2066 15.0813 54.2816 12.4313C53.6566 11.5688 53.166 10.8688 52.0566 10.6876C50.4129 10.4313 49.5785 11.3688 48.4129 9.80946C48.1004 9.39071 47.5535 9.00321 47.0879 9.25008L47.4629 10.247C47.4937 10.3166 47.5066 10.3929 47.5004 10.4688C47.4754 10.7032 47.1285 10.7657 46.9285 10.6376C46.75 10.4779 46.6018 10.2874 46.491 10.0751C46.3542 9.89872 46.1821 9.75275 45.9858 9.64645C45.7895 9.54014 45.5733 9.47584 45.3508 9.45762C45.1283 9.4394 44.9045 9.46766 44.6935 9.5406C44.4826 9.61355 44.2891 9.72958 44.1254 9.88133C44.1108 9.72298 44.0546 9.57132 43.9623 9.44177C43.8701 9.31222 43.7452 9.20942 43.6004 9.14383C43.5764 9.29413 43.521 9.43767 43.4377 9.56508C43.3545 9.69248 43.2453 9.80088 43.1173 9.88318C42.9893 9.96547 42.8453 10.0198 42.6948 10.0427C42.5444 10.0655 42.3908 10.0563 42.2441 10.0157C42.1504 9.70321 42.6941 9.65633 42.8847 9.39071C43.0754 9.12508 42.8472 8.80633 42.6254 8.60321C42.0221 8.0795 41.2552 7.78227 40.4566 7.76258C39.9535 7.76258 39.4097 7.84696 38.9722 7.58758C38.7191 7.43758 38.5378 7.18758 38.2785 7.04383C37.7253 6.73133 37.0285 7.01883 36.4753 7.32821C35.7128 7.75008 34.9128 8.28446 34.6566 9.11571C34.4003 9.94696 34.9878 11.0657 35.8535 10.9595C36.0673 10.8917 36.2924 10.8662 36.516 10.8845C36.6621 10.9495 36.7852 11.0571 36.8693 11.193C36.9535 11.329 36.9948 11.4872 36.9879 11.647C36.9684 11.9664 37.0185 12.2863 37.1347 12.5845C37.2847 12.8657 37.7378 13.0032 37.9097 12.7407C38.3191 12.3501 38.2691 11.697 38.166 11.1438C38.0628 10.5907 37.9503 9.96883 38.2785 9.51571C38.6066 9.06258 39.5597 9.20321 39.4941 9.76571C39.4566 10.0782 39.0816 10.3345 39.0972 10.6657C39.1129 10.997 39.5253 11.1845 39.8628 11.1688C40.2003 11.1532 40.5472 11.0345 40.8754 11.122C41.2035 11.2095 41.4722 11.6345 41.2347 11.8782C40.8191 12.347 39.7441 11.5438 39.5316 12.1282C39.4691 12.2751 39.5316 12.4407 39.5316 12.6063C39.491 13.0938 38.8785 13.272 38.391 13.3313C37.9074 13.4315 37.4055 13.3958 36.941 13.2282C36.4972 13.0188 36.1941 12.4345 36.4472 12.0188C36.3794 11.9841 36.3052 11.9637 36.2291 11.9589C36.153 11.9542 36.0768 11.9652 36.0052 11.9914C35.9336 12.0175 35.8682 12.0581 35.813 12.1107C35.7579 12.1633 35.7142 12.2267 35.6847 12.297C35.5797 12.5875 35.5602 12.902 35.6285 13.2032C35.1128 13.0876 34.6472 13.5157 34.3535 13.9595C34.0597 14.4032 33.7722 14.897 33.2691 15.0626C32.766 15.2282 32.0628 15.0063 31.7972 15.4657C31.4535 16.0626 32.4503 16.8188 32.1097 17.4126C31.9097 17.747 31.4316 17.7251 31.0535 17.8407C30.0503 18.1251 29.7035 19.5907 30.3847 20.372C31.066 21.1532 32.4316 21.1095 33.1535 20.372C33.6597 19.8595 33.8628 19.1376 34.2253 18.5188C34.5878 17.9001 35.2785 17.347 35.966 17.547C36.2311 17.6466 36.4734 17.7986 36.6785 17.9938L37.6785 18.8376C37.8941 19.0157 38.1285 19.2407 38.1066 19.5188C38.0878 19.7438 37.9129 19.9188 37.8379 20.1282C37.6285 20.7313 38.5003 21.3032 39.0503 20.9751C39.6003 20.647 39.6566 19.8032 39.2816 19.2845C38.766 18.5688 37.5941 18.2095 37.6253 17.322C38.2222 16.8345 39.1628 17.347 39.5003 18.0407C39.8378 18.7345 39.8597 19.5438 40.1535 20.2564C40.4472 20.9689 41.2691 21.6063 41.9566 21.2595C41.7754 20.6345 41.6035 20.0282 41.4222 19.4157C41.8629 19.0876 42.3597 20.0407 42.8879 19.8845C43.2004 19.7845 43.2472 19.3251 43.1066 19.0157C42.966 18.7063 42.7222 18.4501 42.6629 18.1157C42.5629 17.5063 43.241 16.9626 43.8535 17.0626C44.1534 17.1378 44.4242 17.3003 44.6317 17.5295C44.8391 17.7587 44.974 18.0442 45.0191 18.3501C45.0436 18.5931 45.0971 18.8323 45.1785 19.0626C45.4097 19.5407 46.0004 19.6876 46.491 19.8845C46.9816 20.0813 47.491 20.5751 47.2879 21.0657C47.191 21.2782 46.9754 21.4814 47.0472 21.6907C47.1191 21.9001 47.4129 21.9689 47.4129 22.1782C47.4129 22.3157 47.2629 22.4126 47.1316 22.4657C46.8035 22.6001 46.4441 22.647 46.1254 22.8001C45.9607 22.8636 45.8181 22.9736 45.7148 23.1168C45.6116 23.26 45.5523 23.4301 45.5441 23.6064C45.5816 24.1064 46.1691 24.3439 46.4535 24.7595C46.7379 25.1751 46.6847 25.6751 46.8535 26.1251C47.0542 26.5209 47.3076 26.8878 47.6066 27.2157C48.4316 28.3407 48.6285 29.7907 49.0316 31.1251C49.2097 31.7282 49.5379 32.4001 50.1566 32.5157C50.5003 32.543 50.845 32.476 51.1535 32.322C52.0441 31.9689 52.9722 31.5876 53.5941 30.8657C54.216 30.1439 54.4316 28.9595 53.7879 28.247C53.7135 28.1436 53.6011 28.0739 53.4754 28.0532C53.3071 28.0631 53.1449 28.1193 53.0066 28.2157C52.769 28.3004 52.5122 28.316 52.2661 28.2607C52.02 28.2054 51.7945 28.0814 51.616 27.9032C51.2624 27.5441 50.9822 27.1195 50.791 26.6532L50.0535 25.1657C50.2168 25.061 50.4104 25.014 50.6035 25.0321C50.7967 25.0503 50.9782 25.1325 51.1191 25.2657C51.392 25.5389 51.636 25.8395 51.8472 26.1626C52.5879 27.1001 53.8097 27.497 54.991 27.6376C55.2935 27.6534 55.5918 27.7156 55.8754 27.822C56.7598 28.2251 57.0129 29.5251 57.9441 29.8032C58.2121 29.8463 58.4772 29.9058 58.7379 29.9814C58.9114 30.0902 59.0601 30.2344 59.1743 30.4046C59.2884 30.5747 59.3655 30.767 59.4004 30.9689C59.6035 31.7032 59.6723 32.4751 59.9816 33.172C60.291 33.8689 60.9191 34.5001 61.666 34.5126C61.9 34.5093 62.131 34.4596 62.3456 34.3662C62.5602 34.2729 62.7541 34.1378 62.916 33.9689C62.9535 33.2814 63.0004 32.5689 63.0004 31.872C62.9879 31.7501 62.9879 31.6064 62.9785 31.4626Z" fill="white"/>
<path opacity="0.4" d="M50.2343 44.5313C49.7655 44.622 49.6718 44.9001 49.4155 45.247C49.0843 45.697 48.6093 46.1501 48.3062 46.597C47.7968 47.3532 48.2562 48.5345 47.5843 49.172C47.4334 49.283 47.2884 49.402 47.1499 49.5282C47.0283 49.6966 46.9772 49.9058 47.0076 50.1113C47.0379 50.3167 47.1473 50.5022 47.3124 50.6282C47.4856 50.744 47.6884 50.8077 47.8967 50.8116C48.105 50.8154 48.31 50.7594 48.4874 50.6501C48.8384 50.42 49.0938 50.0701 49.2061 49.6657C49.2512 49.3699 49.3766 49.0921 49.5686 48.8626C49.9562 48.5251 50.553 48.7751 51.0624 48.7032C53.2124 48.4001 52.2874 44.1251 50.2343 44.5313Z" fill="white"/>
<path opacity="0.4" d="M50.9655 38.5843C52.2156 37.5093 52.7093 35.0812 51.1656 34.5218C50.5812 34.3093 49.9156 34.4812 49.3281 34.2562C48.5718 33.9624 48.2187 33.1156 47.9468 32.3499C47.228 30.3479 46.5103 28.3437 45.7937 26.3374C45.3624 25.1312 44.7062 23.7312 43.4374 23.5531C42.7155 23.4531 42.0187 23.7968 41.303 23.9249C38.8437 24.3749 34.7062 18.4187 32.8343 22.4281C32.5718 21.3374 30.803 21.7468 30.2374 22.7156C29.6718 23.6843 29.5499 24.9624 28.653 25.6343C27.9686 26.1468 26.9655 26.1781 26.4093 26.8249C26.0155 27.2812 25.9468 27.9218 25.8968 28.5218C25.803 29.6687 25.7093 30.8124 25.6124 31.9593C25.5374 32.8812 25.4749 33.8687 25.9249 34.6749C26.3749 35.4812 27.578 35.925 28.2624 35.2999C28.5749 35.0124 28.7093 34.5781 28.9655 34.2374C29.1786 33.9667 29.4655 33.7636 29.7917 33.6527C30.1178 33.5418 30.4691 33.5278 30.803 33.6124C31.3532 33.8019 31.8386 34.1432 32.203 34.5968C35.4062 38.0343 36.553 42.9562 36.6937 47.6593C36.7218 48.5218 36.7218 49.4062 37.0374 50.2062C37.4093 51.1437 38.1905 51.9062 38.4218 52.8875C38.5999 53.6437 38.4218 54.4719 38.7562 55.1781C39.353 56.475 41.3437 56.5281 42.428 55.6C43.5124 54.6719 43.8874 53.1719 44.1093 51.7593C44.3312 50.3468 44.4687 48.8625 45.2593 47.675C45.7499 46.9343 46.4687 46.3437 46.8218 45.5281C47.2999 44.3875 46.9468 43.0281 47.3905 41.8781C47.978 40.3406 49.7218 39.6593 50.9655 38.5843Z" fill="white"/>
</svg>
