<svg width="141" height="105" viewBox="0 0 141 105" fill="none" xmlns="http://www.w3.org/2000/svg">
<g clip-path="url(#clip0)">
<path d="M81.608 41.7663L76.3226 54.6848L62.0717 66.3223L69.2332 69.6463L64.1358 80.0482L139.719 102.516L81.608 41.7663Z" fill="#52CBFF"/>
<path opacity="0.3" d="M69.0907 69.6209L65.9065 68.0922L73.6797 61.2175L69.0907 69.6209Z" fill="white"/>
<path opacity="0.3" d="M76.3225 54.6847L139.719 102.516L74.7967 61.0852L62.0716 66.3223L76.3225 54.6847Z" fill="white"/>
<path d="M62.0715 66.3217C63.8652 64.9917 65.839 63.9239 67.9337 63.1502C69.8984 62.0998 72.001 61.3307 74.1798 60.8653C72.3913 62.192 70.4228 63.2567 68.3336 64.0275C66.3685 65.0917 64.259 65.8646 62.0715 66.3217V66.3217Z" fill="#50D2FB"/>
<path d="M2.65725 38.5658C2.55526 38.7951 0.567889 38.1951 -1.63982 36.955C-3.06456 36.3233 -4.30272 35.3355 -5.23514 34.0867C-5.06675 33.8616 -3.31777 34.8977 -1.16971 36.1082C0.228566 36.7186 1.52044 37.5482 2.65725 38.5658Z" fill="#50D2FB"/>
<path d="M20.3422 42.1032C18.8668 42.5944 17.2898 42.6976 15.7629 42.4029C13.2278 42.183 11.2699 41.5233 11.3123 41.2644C12.8274 41.1002 14.3587 41.1643 15.8548 41.4548C18.3075 41.6797 20.3341 41.8309 20.3422 42.1032Z" fill="#50D2FB"/>
<path d="M37.5667 37.1663C36.604 38.4012 35.2944 39.3205 33.8059 39.8065C32.4412 40.5757 30.886 40.9415 29.3215 40.8611C30.5904 40.0373 31.9641 39.3875 33.4059 38.9292C34.7195 38.1816 36.1159 37.59 37.5667 37.1663V37.1663Z" fill="#50D2FB"/>
<path d="M42.8805 21.4193C43.9431 22.6184 44.5019 24.1814 44.4406 25.7824C44.6013 28.46 43.4263 30.3744 43.2541 30.2607C43.0819 30.147 43.6365 28.2285 43.5023 25.8552C43.3681 23.482 42.6063 21.535 42.8805 21.4193Z" fill="#50D2FB"/>
<path d="M28.0588 13.3529C29.4759 12.6211 31.1123 12.4347 32.6577 12.8288C34.2551 12.9234 35.7545 13.63 36.8442 14.8017C36.7103 15.0495 34.8956 14.158 32.5086 13.7886C30.1216 13.4192 28.1081 13.6228 28.0588 13.3529Z" fill="#50D2FB"/>
<path d="M14.744 24.4719C14.8407 22.8788 15.4654 21.3633 16.5196 20.1649C17.3076 18.7969 18.5299 17.7312 19.9925 17.1369C19.2094 18.4299 18.3205 19.6559 17.3351 20.8023C15.8305 22.7364 15.0398 24.5781 14.744 24.4719Z" fill="#50D2FB"/>
<path d="M15.7388 42.1397C14.6848 40.985 13.9945 39.5454 13.754 38.0006C13.2079 36.5291 13.1146 34.9278 13.4863 33.4028C14.0483 34.8064 14.4496 36.2691 14.6824 37.763C15.211 39.1736 15.5657 40.6433 15.7388 42.1397V42.1397Z" fill="#50D2FB"/>
<path d="M27.7105 55.4931C26.2345 55.046 24.9 54.2229 23.8381 53.1044C22.5507 52.2242 21.5263 51.0111 20.874 49.5946C22.1916 50.3456 23.3971 51.278 24.4551 52.3645C25.6876 53.2423 26.7845 54.2964 27.7105 55.4931V55.4931Z" fill="#50D2FB"/>
<path d="M44.1694 62.9978C44.1018 63.2499 42.1194 62.7321 39.7667 61.8315C38.2819 61.4421 36.8943 60.7482 35.692 59.794C35.8008 59.5394 37.7832 60.0571 40.1107 60.951C41.5891 61.3492 42.9703 62.0458 44.1694 62.9978V62.9978Z" fill="#50D2FB"/>
<path d="M57.5585 65.6666C57.5825 65.9297 56.5515 66.2479 55.2092 66.0639C53.867 65.8799 52.9292 65.5475 52.9439 65.2407C52.9585 64.9339 54.0345 64.952 55.2735 65.0678C56.5124 65.1836 57.5344 65.4034 57.5585 65.6666Z" fill="#50D2FB"/>
</g>
<defs>
<clipPath id="clip0">
<rect width="141" height="105" fill="white"/>
</clipPath>
</defs>
</svg>
