<svg width="148" height="121" viewBox="0 0 148 121" fill="none" xmlns="http://www.w3.org/2000/svg">
<path d="M65.2676 32.9746L73.8126 44.0111L76.7655 62.1715L83.225 57.6314L89.6845 67.2468L146.934 13.0239L65.2676 32.9746Z" fill="#52CBFF"/>
<path opacity="0.3" d="M83.1314 57.742L80.2155 59.7353L78.1484 49.5662L83.1314 57.742Z" fill="white"/>
<path opacity="0.3" d="M73.8125 44.0111L146.934 13.0239L78.5925 48.5327L76.7654 62.1715L73.8125 44.0111Z" fill="white"/>
<path d="M76.7642 62.1716C76.5093 59.9532 76.5714 57.7099 76.9487 55.509C77.0215 53.2823 77.4067 51.0768 78.093 48.9573C78.3477 51.1695 78.2855 53.4067 77.9084 55.6013C77.8475 57.8353 77.4621 60.0485 76.7642 62.1716V62.1716Z" fill="#50D2FB"/>
<path d="M6.57729 107.13C6.57729 107.388 5.63601 107.739 4.34411 107.923C3.05221 108.108 2.01871 107.923 2.00025 107.757C1.9818 107.591 2.97843 107.13 4.21496 106.964C5.45149 106.798 6.52192 106.834 6.57729 107.13Z" fill="#50D2FB"/>
<path d="M23.0206 99.7473C23.1682 99.9503 21.6549 101.371 19.4771 102.663C18.2176 103.581 16.7431 104.16 15.1954 104.343C15.0846 104.084 16.8564 103.088 18.9788 101.833C20.2066 100.927 21.5709 100.223 23.0206 99.7473Z" fill="#50D2FB"/>
<path d="M34.926 86.2008C34.6136 87.7242 33.9145 89.1415 32.8958 90.3165C31.4378 92.402 29.8876 93.7677 29.6846 93.6016C30.2999 92.2073 31.1211 90.9132 32.1207 89.7628C33.5418 87.7511 34.6861 86.0716 34.926 86.2008Z" fill="#50D2FB"/>
<path d="M39.2632 68.8157C39.8514 70.2669 39.9927 71.8606 39.6693 73.3927C39.6532 74.9592 39.1923 76.4889 38.3405 77.8036C38.2614 76.2928 38.3856 74.7782 38.7095 73.3004C38.7189 71.789 38.9048 70.2839 39.2632 68.8157V68.8157Z" fill="#50D2FB"/>
<path d="M28.2827 56.3395C29.8525 56.0188 31.4854 56.3163 32.8413 57.17C35.2405 58.3696 36.311 60.3444 36.1264 60.4366C35.9418 60.5289 34.5577 59.0894 32.4353 58.0189C30.3128 56.9485 28.2458 56.6348 28.2827 56.3395Z" fill="#50D2FB"/>
<path d="M13.8857 65.143C13.9606 63.5499 14.6173 62.0395 15.7313 60.8982C16.6119 59.5622 17.9736 58.6169 19.5332 58.259C19.6808 58.499 18.0014 59.6248 16.488 61.5072C14.9746 63.3897 14.1441 65.2353 13.8857 65.143Z" fill="#50D2FB"/>
<path d="M16.8576 82.2328C15.5262 81.3526 14.5262 80.0538 14.0154 78.5417C13.2247 77.1752 12.9129 75.5838 13.1295 74.02C13.8577 75.3448 14.475 76.7275 14.9751 78.1541C15.8979 80.4242 17.0975 82.0298 16.8576 82.2328Z" fill="#50D2FB"/>
<path d="M32.6555 90.2058C31.1285 90.5412 29.5366 90.4193 28.0785 89.8551C26.5311 89.5924 25.0977 88.8725 23.9629 87.7881C25.4594 88.0032 26.9268 88.387 28.3369 88.9323C29.8228 89.1799 31.273 89.6075 32.6555 90.2058V90.2058Z" fill="#50D2FB"/>
<path d="M50.2062 86.5146C49.081 87.5694 47.7009 88.3135 46.2014 88.674C44.7954 89.3487 43.2326 89.6294 41.6797 89.486C42.9889 88.7204 44.3991 88.1427 45.8691 87.7696C47.2455 87.1411 48.7069 86.7183 50.2062 86.5146V86.5146Z" fill="#50D2FB"/>
<path d="M64.9345 76.0132C65.119 76.1977 63.6794 77.6557 61.7231 79.2429C60.6435 80.3341 59.3488 81.1888 57.9212 81.7529C57.7551 81.5314 59.1947 80.0734 61.1326 78.5047C62.2166 77.4235 63.5105 76.5756 64.9345 76.0132V76.0132Z" fill="#50D2FB"/>
<path d="M73.9408 65.752C74.1808 65.8627 73.9408 66.9147 73.1103 67.9851C72.2798 69.0556 71.5231 69.7015 71.2647 69.5354C71.0064 69.3693 71.56 68.4465 72.2798 67.4315C72.9996 66.4164 73.7009 65.6413 73.9408 65.752Z" fill="#50D2FB"/>
</svg>
