<svg width="224" height="153" viewBox="0 0 224 153" fill="none" xmlns="http://www.w3.org/2000/svg">
<path d="M223.354 148.646C223.549 148.842 223.549 149.158 223.354 149.354L220.172 152.536C219.976 152.731 219.66 152.731 219.464 152.536C219.269 152.34 219.269 152.024 219.464 151.828L222.293 149L219.464 146.172C219.269 145.976 219.269 145.66 219.464 145.464C219.66 145.269 219.976 145.269 220.172 145.464L223.354 148.646ZM62 100L61.7602 99.5612L62 100ZM223 149.5C221.261 149.5 219.572 149.464 217.932 149.393L217.975 148.394C219.601 148.464 221.275 148.5 223 148.5V149.5ZM208.095 148.488C204.629 147.982 201.418 147.297 198.437 146.453L198.709 145.491C201.646 146.322 204.814 146.999 208.239 147.498L208.095 148.488ZM189.085 142.981C185.933 141.494 183.104 139.795 180.544 137.931L181.132 137.122C183.642 138.95 186.417 140.616 189.512 142.076L189.085 142.981ZM173.107 131.35C170.792 128.887 168.752 126.277 166.909 123.59L167.733 123.025C169.553 125.677 171.561 128.245 173.835 130.665L173.107 131.35ZM161.754 115.125C160.139 112.184 158.649 109.231 157.196 106.354L158.088 105.903C159.543 108.783 161.025 111.721 162.631 114.643L161.754 115.125ZM152.626 97.6262C150.961 94.6639 149.219 91.9011 147.268 89.4416L148.051 88.8202C150.047 91.3361 151.818 94.1482 153.498 97.1361L152.626 97.6262ZM140.251 82.7994C137.705 81.0911 134.805 79.798 131.412 79.0329L131.632 78.0574C135.146 78.8498 138.161 80.1924 140.808 81.969L140.251 82.7994ZM121.731 78.2907C118.818 78.4279 115.628 78.8492 112.116 79.5913L111.909 78.6129C115.465 77.8614 118.71 77.4319 121.684 77.2919L121.731 78.2907ZM102.569 82.161C99.6645 83.0915 96.5811 84.1999 93.3038 85.4992L92.9352 84.5695C96.231 83.263 99.3356 82.1468 102.264 81.2087L102.569 82.161ZM84.2348 89.3612C81.4225 90.6349 78.4862 92.0297 75.419 93.5517L74.9745 92.656C78.0514 91.1292 80.9983 89.7292 83.8222 88.4503L84.2348 89.3612ZM66.7327 98.0178C65.2623 98.7985 63.7648 99.6053 62.2398 100.439L61.7602 99.5612C63.2887 98.7259 64.7897 97.9172 66.2637 97.1345L66.7327 98.0178ZM62.2398 100.439C60.7011 101.28 59.2125 102.071 57.7726 102.814L57.3139 101.926C58.7464 101.186 60.2279 100.399 61.7602 99.5612L62.2398 100.439ZM48.9625 107.031C45.5271 108.527 42.4375 109.671 39.6601 110.49L39.3773 109.531C42.1065 108.726 45.1567 107.597 48.5634 106.114L48.9625 107.031ZM29.9034 112.087C25.838 112.032 22.8487 110.758 20.7074 108.452L21.4401 107.772C23.3624 109.842 26.0723 111.035 29.9168 111.087L29.9034 112.087ZM16.7133 99.3407C16.1692 96.427 15.9356 93.1072 15.885 89.4871L16.8849 89.4731C16.9351 93.0643 17.1667 96.3214 17.6964 99.1571L16.7133 99.3407ZM16.0769 79.633C16.2091 76.487 16.3881 73.1995 16.5573 69.8238L17.5561 69.8738C17.3865 73.2555 17.208 76.5344 17.0761 79.675L16.0769 79.633ZM16.9653 60.0227C17.0586 56.7879 17.0992 53.5101 17.0435 50.2231L18.0433 50.2061C18.0993 53.5123 18.0585 56.8059 17.9649 60.0516L16.9653 60.0227ZM16.552 40.4549C16.2637 37.1927 15.8371 33.9567 15.2295 30.7804L16.2117 30.5925C16.8265 33.8068 17.2573 37.0766 17.5481 40.3669L16.552 40.4549ZM12.7826 21.3506C11.7443 18.2695 10.473 15.2871 8.9238 12.4383L9.80229 11.9606C11.3818 14.865 12.6754 17.9012 13.7302 21.0313L12.7826 21.3506ZM3.4725 4.41798C2.44241 3.192 1.33748 2.00454 0.152557 0.859561L0.847443 0.140439C2.05748 1.30968 3.186 2.52248 4.23813 3.77469L3.4725 4.41798Z" fill="#52CBFF"/>
</svg>
