<svg width="278" height="91" viewBox="0 0 278 91" fill="none" xmlns="http://www.w3.org/2000/svg">
<path d="M275.857 25.4836C276.121 25.4044 276.4 25.5546 276.479 25.8191L277.77 30.1299C277.849 30.3944 277.699 30.6731 277.435 30.7523C277.17 30.8316 276.892 30.6814 276.812 30.4168L275.664 26.5851L271.833 27.7328C271.568 27.8121 271.29 27.6619 271.21 27.3973C271.131 27.1328 271.281 26.8541 271.546 26.7749L275.857 25.4836ZM91 72L90.8099 71.5375L91 72ZM276.44 26.1998C275.654 27.6588 274.796 29.0895 273.872 30.4923L273.037 29.942C273.946 28.5629 274.788 27.1574 275.56 25.7254L276.44 26.1998ZM267.7 38.4103C265.506 40.8334 263.101 43.161 260.513 45.3953L259.86 44.6383C262.42 42.4282 264.794 40.129 266.959 37.7389L267.7 38.4103ZM252.631 51.5316C249.962 53.4144 247.158 55.2213 244.238 56.9539L243.728 56.0939C246.627 54.3736 249.409 52.5809 252.054 50.7145L252.631 51.5316ZM235.479 61.7615C232.551 63.2505 229.537 64.6758 226.451 66.0388L226.047 65.1241C229.117 63.7679 232.115 62.3503 235.026 60.8702L235.479 61.7615ZM217.221 69.8544C214.14 71.0464 211.007 72.1822 207.835 73.2628L207.512 72.3163C210.672 71.2398 213.792 70.1086 216.86 68.9218L217.221 69.8544ZM198.326 76.3069C195.145 77.263 191.939 78.1669 188.721 79.0196L188.465 78.053C191.673 77.203 194.868 76.3021 198.039 75.3492L198.326 76.3069ZM179.037 81.4262C175.782 82.183 172.528 82.8888 169.288 83.5448L169.089 82.5646C172.321 81.9106 175.565 81.2067 178.81 80.4522L179.037 81.4262ZM159.484 85.3871C156.166 85.9631 152.878 86.4866 149.631 86.9587L149.488 85.9691C152.725 85.4983 156.005 84.9763 159.313 84.4019L159.484 85.3871ZM139.735 88.2571C136.35 88.6527 133.031 88.99 129.797 89.2705L129.711 88.2742C132.935 87.9947 136.243 87.6584 139.619 87.2639L139.735 88.2571ZM119.826 89.9719C116.355 90.1566 113.02 90.2688 109.847 90.3106L109.834 89.3106C112.992 89.2691 116.314 89.1574 119.773 88.9733L119.826 89.9719ZM99.9353 90.1924C96.2174 90.0426 92.8412 89.7705 89.8727 89.3804L90.003 88.3889C92.9354 88.7743 96.2807 89.0443 99.9756 89.1932L99.9353 90.1924ZM80.1237 87.1197C77.9315 86.2258 76.383 85.0934 75.8757 83.6506C75.3474 82.1479 76.0175 80.5575 77.6366 78.9582L78.3393 79.6697C76.8201 81.1702 76.4845 82.3671 76.8191 83.3189C77.1747 84.3304 78.3577 85.3196 80.5013 86.1937L80.1237 87.1197ZM86.0945 73.6182C87.5089 72.9427 89.0787 72.249 90.8099 71.5375L91.1901 72.4625C89.4734 73.168 87.9207 73.8542 86.5256 74.5206L86.0945 73.6182ZM90.8099 71.5375C92.3977 70.885 93.9319 70.2386 95.4136 69.5983L95.8103 70.5162C94.3228 71.1591 92.7831 71.8078 91.1901 72.4625L90.8099 71.5375ZM104.169 65.5922C107.309 64.0635 110.137 62.5716 112.671 61.1159L113.169 61.9829C110.613 63.4517 107.764 64.9541 104.606 66.4913L104.169 65.5922ZM120.614 55.9792C123.674 53.7051 125.964 51.5365 127.57 49.4714L128.359 50.0854C126.682 52.2421 124.319 54.4718 121.211 56.7818L120.614 55.9792ZM130.487 40.9289C130.131 38.2313 128.483 35.6639 125.698 33.2158L126.358 32.4647C129.245 35.0019 131.079 37.772 131.478 40.7982L130.487 40.9289ZM117.702 27.9752C115.098 26.6271 112.162 25.3361 108.954 24.0992L109.313 23.1662C112.548 24.4129 115.518 25.7185 118.162 27.0872L117.702 27.9752ZM99.8605 20.9486C96.9 20.0195 93.796 19.1251 90.5807 18.2632L90.8396 17.2973C94.0664 18.1622 97.184 19.0606 100.16 19.9945L99.8605 20.9486ZM81.2219 15.9123C78.1409 15.1847 74.9939 14.4827 71.8049 13.8045L72.0129 12.8264C75.2082 13.5059 78.3626 14.2096 81.4517 14.9391L81.2219 15.9123ZM62.3351 11.8792C59.1798 11.2646 56.0074 10.6713 52.8401 10.0978L53.0183 9.11378C56.1893 9.68794 59.3661 10.2821 62.5263 10.8976L62.3351 11.8792ZM43.3189 8.42584C40.1057 7.8775 36.9214 7.34858 33.7899 6.83758L33.9509 5.85063C37.0843 6.36194 40.271 6.89126 43.4871 7.44009L43.3189 8.42584ZM24.2563 5.30581C20.9613 4.78295 17.7606 4.27995 14.6848 3.79461L14.8406 2.80683C17.9156 3.29204 21.1175 3.79522 24.413 4.31817L24.2563 5.30581ZM5.15787 2.27525C3.51941 2.00921 1.93695 1.74863 0.417084 1.49308L0.582916 0.506921C2.10049 0.76209 3.68106 1.02236 5.31815 1.28817L5.15787 2.27525Z" fill="#52CBFF"/>
</svg>
