<svg width="159" height="144" viewBox="0 0 159 144" fill="none" xmlns="http://www.w3.org/2000/svg">
<path d="M0.646447 139.646C0.451184 139.842 0.451184 140.158 0.646447 140.354L3.82843 143.536C4.02369 143.731 4.34027 143.731 4.53553 143.536C4.7308 143.34 4.7308 143.024 4.53553 142.828L1.70711 140L4.53553 137.172C4.7308 136.976 4.7308 136.66 4.53553 136.464C4.34027 136.269 4.02369 136.269 3.82843 136.464L0.646447 139.646ZM1 140.5C2.56899 140.5 4.14926 140.48 5.73935 140.44L5.71437 139.44C4.13232 139.48 2.56038 139.5 1 139.5V140.5ZM15.2522 139.984C18.3861 139.766 21.5459 139.48 24.7208 139.135L24.6126 138.141C21.4498 138.485 18.3029 138.769 15.1826 138.987L15.2522 139.984ZM34.1513 137.941C37.2796 137.491 40.4126 136.989 43.5402 136.44L43.3674 135.455C40.2495 136.003 37.1267 136.503 34.009 136.951L34.1513 137.941ZM52.8783 134.662C55.9913 134.024 59.0891 133.344 62.1616 132.628L61.9347 131.654C58.8706 132.368 55.7815 133.046 52.6774 133.683L52.8783 134.662ZM71.3959 130.352C74.4939 129.547 77.5544 128.709 80.5665 127.846L80.2909 126.884C77.2866 127.746 74.2341 128.581 71.1442 129.384L71.3959 130.352ZM89.6591 125.116C92.7436 124.148 95.7606 123.157 98.6972 122.152L98.3732 121.206C95.4448 122.208 92.4359 123.196 89.3596 124.162L89.6591 125.116ZM107.656 118.945C110.724 117.798 113.675 116.641 116.491 115.485L116.112 114.56C113.306 115.712 110.365 116.865 107.306 118.009L107.656 118.945ZM125.235 111.702C128.339 110.281 131.206 108.879 133.798 107.513L133.332 106.628C130.758 107.984 127.909 109.379 124.819 110.792L125.235 111.702ZM142.007 102.708C145.606 100.309 148.112 98.0828 149.153 96.1644L148.274 95.6874C147.36 97.3715 145.043 99.4823 141.452 101.876L142.007 102.708ZM143.107 90.3204C141.719 90.1596 140.096 90.0766 138.228 90.0766V91.0766C140.068 91.0766 141.652 91.1585 142.992 91.3138L143.107 90.3204ZM138.228 90.0766C136.4 90.0766 134.618 90.0699 132.883 90.0565L132.875 91.0564C134.613 91.0699 136.397 91.0766 138.228 91.0766V90.0766ZM122.734 89.8899C119.112 89.7956 115.73 89.666 112.576 89.5023L112.524 90.5009C115.687 90.6651 119.078 90.795 122.708 90.8896L122.734 89.8899ZM102.334 88.7805C98.4608 88.4226 95.0604 87.9938 92.0971 87.4982L91.9321 88.4845C94.9248 88.985 98.3501 89.4166 102.242 89.7762L102.334 88.7805ZM82.3073 85.1026C77.5535 83.3643 75.622 81.2954 75.4399 79.0805L74.4432 79.1624C74.677 82.0053 77.1418 84.2786 81.9639 86.0418L82.3073 85.1026ZM80.1602 70.7596C82.2189 68.7125 84.8633 66.5338 87.9382 64.2391L87.3402 63.4376C84.2469 65.746 81.5609 67.9565 79.4551 70.0505L80.1602 70.7596ZM96.3343 58.3347C99.0498 56.5069 101.922 54.6274 104.885 52.7024L104.34 51.8638C101.376 53.7896 98.4983 55.6726 95.7759 57.5052L96.3343 58.3347ZM113.501 47.1107C116.352 45.2522 119.226 43.3606 122.068 41.4419L121.509 40.613C118.672 42.5276 115.803 44.416 112.955 46.273L113.501 47.1107ZM130.512 35.5649C133.351 33.5157 136.099 31.4422 138.694 29.351L138.067 28.5723C135.488 30.6501 132.755 32.7128 129.927 34.7541L130.512 35.5649ZM146.468 22.5468C149.111 19.9947 151.445 17.4218 153.359 14.8389L152.556 14.2434C150.682 16.7711 148.388 19.3028 145.774 21.8274L146.468 22.5468ZM158.208 5.67774C158.724 3.95306 159 2.22553 159 0.5H158C158 2.11788 157.741 3.74863 157.25 5.39081L158.208 5.67774Z" fill="#52CBFF"/>
</svg>
