<svg width="358" height="117" viewBox="0 0 358 117" fill="none" xmlns="http://www.w3.org/2000/svg">
<path d="M0.476661 38.0005C0.20082 38.0134 -0.0123448 38.2475 0.000544995 38.5233L0.210596 43.0184C0.223486 43.2943 0.457549 43.5074 0.73339 43.4945C1.00923 43.4817 1.2224 43.2476 1.20951 42.9718L1.02279 38.9761L5.01843 38.7894C5.29428 38.7765 5.50744 38.5424 5.49455 38.2666C5.48166 37.9908 5.2476 37.7776 4.97176 37.7905L0.476661 38.0005ZM178.5 76.5L178.872 76.1654L178.5 76.5ZM0.163335 38.8697C1.31647 39.9198 2.5294 40.9786 3.79844 42.0444L4.44156 41.2786C3.18192 40.2207 1.97912 39.1708 0.836665 38.1303L0.163335 38.8697ZM11.5346 48.126C14.0657 50.001 16.744 51.889 19.551 53.7821L20.1102 52.9531C17.3141 51.0673 14.6479 49.1878 12.1298 47.3225L11.5346 48.126ZM27.7482 59.1003C30.4526 60.7917 33.2459 62.4815 36.1149 64.1642L36.6208 63.3016C33.7595 61.6234 30.9743 59.9385 28.2784 58.2524L27.7482 59.1003ZM44.6145 69.0071C47.4321 70.568 50.3053 72.118 53.2233 73.6522L53.6886 72.7671C50.7769 71.2361 47.9101 69.6897 45.0991 68.1324L44.6145 69.0071ZM61.9161 78.111C64.8143 79.5616 67.7444 80.9932 70.6968 82.4017L71.1274 81.4992C68.1806 80.0933 65.2561 78.6645 62.3637 77.2168L61.9161 78.111ZM79.56 86.5307C82.531 87.882 85.5142 89.2062 88.5002 90.4993L88.8976 89.5817C85.9172 88.291 82.9395 86.9692 79.974 85.6205L79.56 86.5307ZM97.5132 94.3046C100.552 95.5543 103.583 96.7675 106.597 97.9396L106.959 97.0076C103.952 95.8378 100.926 94.6271 97.8936 93.3797L97.5132 94.3046ZM115.751 101.393C118.862 102.529 121.942 103.615 124.979 104.646L125.301 103.699C122.271 102.671 119.198 101.587 116.094 100.453L115.751 101.393ZM134.286 107.674C137.487 108.667 140.623 109.589 143.679 110.433L143.945 109.469C140.9 108.628 137.774 107.709 134.583 106.719L134.286 107.674ZM153.162 112.857C156.484 113.633 159.678 114.295 162.72 114.833L162.894 113.848C159.873 113.314 156.696 112.656 153.389 111.884L153.162 112.857ZM172.47 116.168C176.074 116.494 179.358 116.572 182.259 116.373L182.19 115.375C179.355 115.57 176.127 115.495 172.561 115.172L172.47 116.168ZM191.885 113.918C193.438 113.017 194.64 111.858 195.426 110.416C196.212 108.974 196.564 107.28 196.464 105.335L195.465 105.386C195.557 107.177 195.232 108.683 194.548 109.938C193.864 111.193 192.805 112.228 191.383 113.053L191.885 113.918ZM193.46 95.8908C192.176 93.4074 190.467 90.6769 188.305 87.6862L187.495 88.272C189.635 91.2328 191.316 93.9208 192.572 96.3501L193.46 95.8908ZM182.24 80.0099C181.181 78.7651 180.059 77.4838 178.872 76.1654L178.128 76.8346C179.31 78.1464 180.426 79.4206 181.478 80.6577L182.24 80.0099ZM178.872 76.1654C177.594 74.7463 176.488 73.3884 175.547 72.0889L174.737 72.6756C175.702 74.0078 176.83 75.3932 178.128 76.8346L178.872 76.1654ZM171.371 63.0339C170.889 59.5789 172.054 56.6888 174.615 54.2123L173.92 53.4934C171.161 56.1616 169.848 59.3597 170.38 63.1721L171.371 63.0339ZM183.277 49.0389C186.141 47.8829 189.449 46.865 193.13 45.9597L192.891 44.9886C189.179 45.9016 185.823 46.9329 182.903 48.1116L183.277 49.0389ZM203.21 43.8918C206.462 43.3319 209.891 42.8257 213.464 42.361L213.336 41.3693C209.751 41.8354 206.308 42.3436 203.04 42.9063L203.21 43.8918ZM223.771 41.1635C227.123 40.8135 230.562 40.4869 234.064 40.1754L233.976 39.1793C230.469 39.4912 227.025 39.8182 223.667 40.1689L223.771 41.1635ZM244.375 39.3074C247.786 39.0329 251.233 38.7648 254.699 38.4959L254.622 37.4989C251.156 37.7678 247.707 38.036 244.295 38.3106L244.375 39.3074ZM265.029 37.6881C268.48 37.4133 271.929 37.1309 275.359 36.834L275.272 35.8377C271.846 36.1344 268.399 36.4166 264.949 36.6913L265.029 37.6881ZM285.685 35.8811C289.173 35.536 292.618 35.1678 296.001 34.769L295.884 33.7758C292.509 34.1739 289.069 34.5414 285.586 34.886L285.685 35.8811ZM306.294 33.4207C309.817 32.9069 313.24 32.3469 316.534 31.7307L316.351 30.7478C313.071 31.3611 309.662 31.9189 306.149 32.4312L306.294 33.4207ZM326.654 29.543C330.226 28.6485 333.576 27.6578 336.655 26.553L336.317 25.6118C333.275 26.7032 329.958 27.6848 326.411 28.5729L326.654 29.543ZM346.131 22.2627C349.487 20.3141 352.222 18.0915 354.185 15.5394L353.393 14.9296C351.53 17.3503 348.908 19.494 345.629 21.398L346.131 22.2627ZM357.657 5.64655C357.674 3.97678 357.454 2.22171 356.985 0.376801L356.015 0.623199C356.465 2.39352 356.673 4.06224 356.657 5.63662L357.657 5.64655Z" fill="#52CBFF"/>
</svg>
