<svg width="165" height="141" viewBox="0 0 165 141" fill="none" xmlns="http://www.w3.org/2000/svg">
<path d="M0.646447 136.764C0.451184 136.959 0.451184 137.275 0.646447 137.471L3.82843 140.653C4.02369 140.848 4.34027 140.848 4.53553 140.653C4.7308 140.457 4.7308 140.141 4.53553 139.946L1.70711 137.117L4.53553 134.289C4.7308 134.093 4.7308 133.777 4.53553 133.582C4.34027 133.386 4.02369 133.386 3.82843 133.582L0.646447 136.764ZM142.5 82.0323L142.669 81.5616L142.5 82.0323ZM1 137.617C2.59196 137.617 4.26605 137.597 6.01472 137.558L5.99236 136.559C4.25034 136.597 2.58374 136.617 1 136.617V137.617ZM16.0621 137.167C19.2784 136.995 22.6549 136.775 26.1603 136.508L26.0846 135.511C22.586 135.777 19.2169 135.996 16.0087 136.168L16.0621 137.167ZM36.1969 135.653C39.4671 135.346 42.8146 135.004 46.2179 134.629L46.1085 133.635C42.7103 134.009 39.3681 134.35 36.1033 134.658L36.1969 135.653ZM56.236 133.451C59.544 133.037 62.8836 132.594 66.2365 132.125L66.0978 131.134C62.7498 131.603 59.415 132.045 56.1118 132.458L56.236 133.451ZM76.21 130.653C79.5379 130.136 82.8611 129.594 86.1621 129.027L85.9929 128.041C82.6974 128.607 79.3794 129.149 76.0566 129.665L76.21 130.653ZM96.0902 127.234C99.436 126.599 102.739 125.938 105.98 125.254L105.773 124.276C102.54 124.958 99.2432 125.617 95.9036 126.252L96.0902 127.234ZM115.806 123.06C119.179 122.262 122.453 121.437 125.604 120.587L125.343 119.622C122.203 120.468 118.939 121.291 115.576 122.086L115.806 123.06ZM135.308 117.761C138.714 116.685 141.906 115.576 144.842 114.435L144.48 113.503C141.568 114.634 138.396 115.737 135.007 116.807L135.308 117.761ZM154.053 110.292C157.627 108.389 160.47 106.402 162.384 104.331L161.65 103.653C159.843 105.607 157.109 107.532 153.583 109.409L154.053 110.292ZM164.17 94.6511C162.905 92.3646 160.421 90.0929 156.624 87.827L156.112 88.6857C159.843 90.9126 162.154 93.0727 163.295 95.1352L164.17 94.6511ZM147.528 83.4145C146.016 82.7981 144.397 82.1804 142.669 81.5616L142.331 82.5031C144.048 83.1175 145.653 83.7301 147.151 84.3405L147.528 83.4145ZM142.669 81.5616C141.081 80.9933 139.536 80.4341 138.032 79.8839L137.689 80.823C139.195 81.3741 140.742 81.934 142.331 82.5031L142.669 81.5616ZM129.2 76.5721C126.055 75.3609 123.131 74.1966 120.417 73.076L120.035 74.0004C122.758 75.1243 125.689 76.2916 128.841 77.5053L129.2 76.5721ZM111.692 69.2977C108.461 67.8203 105.645 66.4277 103.211 65.1106L102.735 65.9901C105.193 67.32 108.03 68.7226 111.276 70.2072L111.692 69.2977ZM95.2699 60.0953C91.6599 57.2837 90.2815 54.9651 90.3184 52.9987L89.3186 52.98C89.2722 55.4474 90.9946 58.033 94.6554 60.8842L95.2699 60.0953ZM95.9098 46.4083C98.2025 45.0195 101.08 43.6615 104.345 42.2718L103.954 41.3517C100.675 42.7471 97.7458 44.127 95.3917 45.553L95.9098 46.4083ZM113.151 38.713C116.011 37.5848 118.988 36.4108 121.983 35.1646L121.599 34.2413C118.614 35.4834 115.646 36.6541 112.785 37.7827L113.151 38.713ZM130.696 31.2933C133.602 29.8968 136.439 28.4018 139.114 26.7811L138.596 25.9258C135.955 27.5258 133.147 29.0058 130.263 30.392L130.696 31.2933ZM146.907 21.2211C149.422 19.0632 151.615 16.7043 153.347 14.1043L152.514 13.55C150.844 16.0586 148.717 18.3507 146.256 20.4621L146.907 21.2211ZM157.082 5.23384C157.391 3.69119 157.553 2.08353 157.553 0.40686H156.553C156.553 2.01855 156.397 3.56035 156.101 5.03731L157.082 5.23384Z" fill="#52CBFF"/>
</svg>
