<svg width="276" height="80" viewBox="0 0 276 80" fill="none" xmlns="http://www.w3.org/2000/svg">
<path d="M275.068 1.50465C275.342 1.5422 275.533 1.79442 275.495 2.068L274.883 6.52619C274.846 6.79977 274.594 6.9911 274.32 6.95354C274.046 6.91599 273.855 6.66377 273.893 6.39019L274.437 2.42735L270.474 1.88335C270.2 1.8458 270.009 1.59357 270.046 1.32C270.084 1.04642 270.336 0.855087 270.61 0.892642L275.068 1.50465ZM62.6322 39.7638L62.2927 39.3968L62.6322 39.7638ZM275.302 2.39835C274.079 3.32655 272.799 4.2615 271.465 5.20213L270.889 4.38498C272.213 3.45047 273.484 2.52233 274.698 1.60165L275.302 2.39835ZM263.369 10.579C260.735 12.2355 257.958 13.9034 255.054 15.5772L254.555 14.7107C257.449 13.0427 260.215 11.3814 262.837 9.73249L263.369 10.579ZM246.583 20.2851C243.804 21.7778 240.935 23.2711 237.988 24.7613L237.537 23.8689C240.477 22.3822 243.338 20.8926 246.11 19.4041L246.583 20.2851ZM229.289 29.0439C226.415 30.4222 223.483 31.7945 220.501 33.1577L220.085 32.2482C223.062 30.8875 225.989 29.5177 228.857 28.1422L229.289 29.0439ZM211.64 37.1183C208.711 38.3985 205.745 39.6676 202.75 40.9228L202.363 40.0005C205.354 38.7472 208.316 37.4801 211.239 36.202L211.64 37.1183ZM193.796 44.5983C190.81 45.7991 187.802 46.9841 184.781 48.1506L184.421 47.2177C187.438 46.0529 190.441 44.8696 193.423 43.6705L193.796 44.5983ZM175.719 51.5784C172.69 52.7003 169.655 53.8015 166.62 54.8793L166.286 53.937C169.316 52.8607 172.347 51.7611 175.371 50.6406L175.719 51.5784ZM157.465 58.06C154.387 59.1053 151.318 60.1237 148.263 61.1127L147.955 60.1614C151.005 59.1739 154.07 58.1569 157.143 57.1131L157.465 58.06ZM139.026 64.0278C135.91 64.985 132.818 65.9079 129.759 66.7935L129.481 65.833C132.535 64.9489 135.621 64.0276 138.732 63.0719L139.026 64.0278ZM120.454 69.3986C117.271 70.2586 114.134 71.0726 111.054 71.8372L110.813 70.8667C113.886 70.1038 117.016 69.2915 120.193 68.4332L120.454 69.3986ZM101.606 74.0656C98.3536 74.7901 95.1828 75.45 92.1067 76.0405L91.9182 75.0585C94.9838 74.47 98.145 73.8121 101.388 73.0895L101.606 74.0656ZM82.5532 77.6949C79.197 78.2071 75.9905 78.6165 72.9559 78.915L72.858 77.9198C75.8725 77.6232 79.0612 77.2163 82.4024 76.7064L82.5532 77.6949ZM63.2457 79.4926C59.5924 79.5408 56.3153 79.3547 53.478 78.9092L53.6332 77.9213C56.3996 78.3557 59.6178 78.5404 63.2325 78.4927L63.2457 79.4926ZM44.3246 75.4565C43.0141 74.3882 42.0948 73.087 41.6283 71.5411C41.1628 69.9987 41.1581 68.2464 41.6205 66.2872L42.5938 66.5169C42.1621 68.3457 42.1819 69.9143 42.5856 71.2522C42.9882 72.5863 43.7827 73.7245 44.9564 74.6813L44.3246 75.4565ZM45.8649 57.4946C47.4391 55.1663 49.4359 52.6337 51.8805 49.8871L52.6274 50.5519C50.2049 53.2737 48.2372 55.7712 46.6933 58.0547L45.8649 57.4946ZM58.596 42.9031C59.764 41.7649 60.9958 40.5963 62.2927 39.3968L62.9717 40.1309C61.6808 41.3249 60.4553 42.4876 59.2939 43.6193L58.596 42.9031ZM62.2927 39.3968C63.5575 38.227 64.6806 37.099 65.6679 36.0113L66.4083 36.6834C65.3989 37.7955 64.2549 38.9441 62.9717 40.1309L62.2927 39.3968ZM70.749 28.2261C71.9146 24.9109 71.3828 22.1216 69.45 19.703L70.2312 19.0787C72.3865 21.7757 72.9685 24.9284 71.6924 28.5578L70.749 28.2261ZM61.8872 14.3938C59.3426 13.2325 56.3369 12.19 52.9293 11.2493L53.1954 10.2853C56.6373 11.2355 59.696 12.2945 62.3024 13.4841L61.8872 14.3938ZM43.6436 9.10626C40.6867 8.53169 37.5453 8.00484 34.2444 7.51811L34.3903 6.5288C37.7033 7.01733 40.8599 7.54665 43.8343 8.12462L43.6436 9.10626ZM24.766 6.27271C21.6902 5.91156 18.514 5.57507 15.2538 5.25832L15.3505 4.263C18.6163 4.5803 21.7991 4.91749 24.8827 5.27953L24.766 6.27271ZM5.72739 4.40306C4.15271 4.27192 2.56339 4.144 0.96106 4.01882L1.03894 3.02186C2.64282 3.14716 4.23386 3.27521 5.81039 3.40651L5.72739 4.40306Z" fill="#159AD2"/>
</svg>
